<svg xmlns="http://www.w3.org/2000/svg"><defs><font horiz-adv-x="992"><font-face ascent="1638" bbox="0 -1003 7295 2313" cap-height="1710" descent="-410" panose-1="2 0 4 0 0 0 0 0 0 0" underline-position="-250" underline-thickness="100" unicode-range="U+000D-FEFC" units-per-em="2048" x-height="1483"/><missing-glyph d="M142 226v1362h700v-1362h-700zM284 368h416v1079h-416v-1079z"/><glyph arabic-form="isolated" d="M3300 1370q0-41-229-163-154-77-307-154h-35q-13 1-13 25 0 59 240 181 149 70 296 140h36q0-3 6-9t6-20zM2388 1793q1-27-206-132-153-78-289-136h-36v43q-1 42 212 147 17 9 294 136 15-12 25-12v-46zM3003 903q-50-62-173.5-125.5t-195.5-63.5q-11 0-87 20.5t-87 20.5q-14 0-75-61-16 11-25 11-2 14 45 90 53 83 91 83 13 0 89.5-20.5t89.5-20.5q81 0 180 53 67 40 135 80zM2358 1281q-18-36-65-51-64-14-205-48-43-24-126-58-11 13-11 26 0 14 14.5 36t14.5 31q0 6-3 11-50 52-50 85 0 42 84.5 116t126.5 74q19 0 53-34t34-53q0-27-23.5-52t-43.5-25q-22 0-63 41l-35-7v-18q49-47 98-47 14 0 39 6.5t51 6.5q42 0 110-14v-26zM3228 229q0-186-207-238-90-23-341-23-11 0-153-5.5t-154-5.5q-48 0-112 41-76 49-85 117-19 205-58 614-5 52-32 189-25 130-25 140 0 13 24 50 33 53 40 67h37q44-113 64-323 13-179 26-357 7-103 37-296 11-50 65-65 43-14 244-14 428 0 529 60 1 7 1 13 0 33-57.5 82.5t-57.5 75.5q0 30 44 118 70-14 123-98 48-76 48-142zM2778 448q0-33-24-91t-43-73l-18 13q1-5 3 75 1 79-51 152t-52 78q0 37 45 82 58-16 100-96 40-73 40-140zM1703 1436q0-10-34-75-9 0-40 14.5t-44 14.5q-305-205-370-203h-45q22 39 176 141 142 94 142 124 0 9-31 46.5t-31 55.5q0 55 54 121 59 74 125 74 76 0 76-111 0-45-17-127 39-47 39-75zM3361-273q0-29-43-60-37-27-54-27-13 0-64 25.5t-64 25.5-49-31-48-31q-17 0-74 35-64 37-64 63 0 20 38.5 58.5t58.5 38.5q11 0 60.5-25.5t62.5-25.5q12 0 50.5 36t51.5 36q24 0 82-53 56-50 56-65zM1733 1053q0-60-35-118-19-31-81-54-121-44-160-44-33 0-54 34-18 26-18 48 0 35 44 122h36q14-25 12-64 7-6 26-6 14 0 46 39 40 50 57 62 5-19 31-60 15 10 41.5 40t41.5 41q0-3 6.5-14.5t6.5-25.5zM1220 1558q1-15-33.5-47.5t-60.5-45.5q-190-94-359-208h-35q-12 2-12 26 0 71 454 321h46v-46zM1815 238q0-32-22.5-64.5t-48.5-32.5q-13 0-40 17-31 18-39 21-14 3-64 3-180 0-296-131-50-55-50-129 0-21 12-102 13-88 16-123 1-20-36-97-40-83-67-83-40 0-95 105-44 84-55 134-20 88-11 177 1 8 29 89-17 17-27 17-12 0-104-20.5t-105-20.5q-133 0-198 98-47 74-62 215-7 107-14 213-54 510-54 579 0 50 75 123 50-14 54-96 23-490 24-512 15-203 54-368 11-44 57-66.5t125-22.5q118 0 218 54 16 9 102 120h46q13-13 13-45 0-30-56.5-129.5t-56.5-175.5l17-17q5 4 21 47 45 119 118 182 54 48 172 93 121 46 200 46 46 0 92-26 56-29 56-72zM1948-401q0-16-39-54t-58-38q-13 0-56.5 20t-56.5 20q-11 0-43-25t-44-25q-33 0-88 38t-55 64q0 25 43 61 40 31 54 31 17 0 62.5-25.5t55.5-25.5q13 0 51.5 30.5t51.5 30.5q33 0 81-47 41-43 41-55zM1588 1576v38q-4 0-20.5 5t-27.5 5q16-48 48-48z" glyph-name="uniFB52" horiz-adv-x="3219" unicode="&#xfb52;"/><glyph arabic-form="final" d="M3138 1512q0-78-111-149-97-60-161-60-13 0-20 4.5t-21 4.5q-13 0-40-21-40-32-52-40-15 15-15 36 0 22 40 73.5t66 60.5q69 22 129 110 54 78 103 78 82 0 82-97zM2583 1977q4-68-102-123l-176-74q-73-38-226-109h-45q-12 2-12 26 0 18 19 49t46 43q109 54 472 199 15-11 24-11zM2523 1629q0-36-24-95-31-70-71-86-3 0-103-27-19-5-57-32-34-25-46-25h-36q-62 0-62 82 0 85 75 151h47q-10-32-30-94 16-16 26-16 13 0 44 30 42 43 50 49 4 7 4 52 24 0 36 11 5-25 32-82 25 5 52 59t51 64q0-3 6-14.5t6-26.5zM3046 258q0-158-56-225-35 26-40 107-7 111-32 277-39 272-40 275-10 76-40 236-28 144-28 154t54 116h37q33-113 91-509 54-371 54-431zM1951 1072q0-27-33.5-62t-54.5-35-74.5 36.5-53.5 55.5q0 18 34.5 65.5t52.5 47.5q24 0 74-37 55-40 55-71zM2564 253q0-144-41-207-49-74-173-74-76 0-136 39-34 23-77 74-35 40-49 40 8 0-91-71.5t-205-71.5q-13 0-32-8-22-9-29-10-25-4-73 1-57 7-61 7-97 0-97 71 0 35 43 122h32q7 0 45-28 65-12 79-12h93q59 0 145 35 116 46 116 114 0 12-36 186t-36 187q0 89 34 112h36q80-281 117-454 14-67 82-118.5t136-51.5q50 0 77 17 0 118-42 374-53 310-65 453-2 18-20 58-18 38-18 61 0 51 86 193h36q7-50 14-101 12-60 89-83 3-56-3-68-25-40-49-79-19-32-19-67 0-12 23-131 27-139 35-191 34-239 34-318zM1172 1497q0-60-222-172-291-146-304-155h-36q0 4-5.5 9.5t-5.5 20.5q0 48 242 182 181 98 317 156 14-15 14-41zM2329-192q0-43-27-58-89-51-247-121-153-67-172-67h-43q-12 2-12 26 0 17 28 50 26 29 36 32 63 23 227 101 143 67 155 67h42q13-13 13-30zM927 750q0-33-41-71-36-32-52-32-25 0-68.5 35.5t-43.5 56.5q0 31 54 112h31q26 1 73-40.5t47-60.5zM1561 504q0-23-26-91-23-61-30-71-16-25-70-50-40-11-121-36-15-92-64-271-24-62-111-102-203-95-315-95-88 0-207 67-128 73-129 142 0 14-6 52t-6 50q0 63 70 176 58 94 117 187h35q13-13 13-30 0-13-70-140-42-79-42-147 0-97 110-153 81-41 156-41 80 0 199 51 139 61 139 128 0 105-45 181-47 84-47 100 0 35 45 103 34-21 89-68 28-24 65-24 11 0 44 5.5t47 6.5q14 8 38 24 0 30-26 94.5t-26 74.5q0 60 44 101 37 0 75-63 55-95 55-161zM1571-351q0-39-31.5-68t-59.5-29q-15 0-48 20.5t-45 20.5-56-36-56-36q-14 0-54 24-55 34-69 40v32q0 49 92 89 12 0 54.5-20.5t52.5-20.5q13 0 51.5 41t50.5 41q40 0 81-41 37-36 37-57zM3017 1466l-9 14-36-23 8-15z" glyph-name="uniFB53" horiz-adv-x="3068" unicode="&#xfb53;"/><glyph arabic-form="initial" d="M3883 1375q-155-130-538-331l-24 25q5 27 24 66 91 74 247 163 242 136 255 145h36v-68zM3904 123q0-57-82-84-57-16-115-32-45-16-91-32-51-19-94-65h-46q0 8 9.5 33t9.5 37-51.5 63-51.5 64q0 54 116 164 114 107 166 107 38 0 64-31 23-28 23-55t-23-64q-27-44-59-44-11 0-37 20.5t-39 20.5q-20 0-57-37 22-55 139-55-16 0 206 20 13-14 13-30zM3228 205q0-179-55-214-16 0-34 22-16 184-73 628-52 408-52 413 0 18 26 63t51 71q37-53 41-107 15-163 59-536 37-331 37-340zM2798 1325q0-26-125-99-148-91-451-273h-47v64q-1 32 586 364h37v-56zM1908 1188q0-39-35-72-92 61-104 61-25 0-64-43-60-67-86-86-78-62-207-116h-34q-13 1-13 25 0 30 84 89 114 79 213 178-15 29-55 62-27 22-27 66 0 55 53 123 56 73 116 73 12 0 24-3 47-52 47-137 0-17-2-43t-2-33q0-10 2-15 11-23 55-60 35-30 35-69zM1928 752q0-29-32-63t-60-34q-32 0-81 44-41 38-41 48 0 19 33.5 61t52.5 42q20 0 73-36 55-38 55-62zM915 1366q0-58-53-137-63-93-136-93-36 0-62 26.5t-26 60.5q0 58 52 148 57 104 118 104 21 0 32-5 14-9 40-40 35-41 35-64zM2779 205q0-55-27-122-34-83-82-83-57 0-160 56t-100 56q-12 0-49-35-41-38-58-43-104-34-200-34-203 0-263 143-38-33-76-68-46-37-85-52-26-4-52-9-39-7-59-27t-45-77q-32-70-40-82-52-85-161-156t-182-71h-107q-67 0-208 45-7 6-23 32l13 24q37 7 104-1 81-8 78-8 103 0 229.5 75t190.5 178v26q-78 11-156 23-121 30-121 133 0 42 74 166 80 136 131 136t107-102q36-63 49-107 9-33 45-68 69 9 191 44 25 11 51 64 16 32 31 64 14 19 63 44 38-13 28-127 50-89 248-89 21 0 41-2.5t26-2.5q29 0 126 49l124 134q127 129 186 129 56 0 91-103 27-79 27-152zM894 194q0-144-67-184-29 27-33 56 1 62-6 184-98 735-98 707 0 83 65 149 36-21 53-117 12-128 37-389 14-51 35-154 14-101 14-252zM1753 1342v47q-6 12-22 34h-35q-23-24-23-37 1-4 43-44h37zM2643 185q0 5-20 111h-36q-41-40-44-68 14-5 50-22t50-21zM822 1316q-35 36-50 36-23 0-51-35v-46h57q17 17 44 45zM1374 156q-7 79-65 79-22 0-45-23v-47q74-24 110-9z" glyph-name="uniFB54" horiz-adv-x="3917" unicode="&#xfb54;"/><glyph arabic-form="medial" d="M2598 1443q0-39-45-81-73 40-83 40-13 0-53-36-59-56-67-62-185-148-300-178-14 12-24 12 2 37 169 165t167 151q0 7-30.5 52.5t-30.5 64.5q0 49 67 127 71 81 124 73 50-32 50-127 0-56-20-103 6-12 43-51 33-34 33-47zM3171 1398q0-70-43-95-104-59-452-191-42-16-153-84-140-86-140-122 0-14 53-63 77-72 85-81 105-114 113-122 72-83 103-141 97-179 97-274 0-194-200-232-61-6-123-11-82-8-98-34-29-63-107-182-119-135-184-174-70-42-190-42-70 0-241 34-28 4-76 52 19 37 62 37 12 0 76-10.5t77-10.5q110 0 251 87 145 89 200 196v26q-77 12-154 25-123 35-123 126 0 72 55 172 61 115 130 115 63 0 132.5-133t138.5-133q9 0 96 14 92 17 128 19 47 4 47 44 0 12-11 24-13 15-17 25-96 256-277 362-17 2-48 4-46 4-87.5 45.5t-41.5 87.5q0 20 31 110 32 100 65 163 52 101 287 199 159 71 482 213h46q0-4 5.5-17.5t5.5-27.5zM1543 1295q0-66-51-66-13 0-41 20.5t-40 20.5q-5 0-165-133t-211-133h-54q14 34 169 162 148 122 148 145 0 12-33 44-39 38-46 51-3 11-3 28 0 24 23 88 9 23 72 71 58 45 68 45 53 0 68-108 4-60 6-121 12-15 61-54 29-24 29-60zM1482 918q-59-109-103-109-17 0-101 52 0 25 22 75 26 57 49 57 32 0 133-75zM694 1352q0-73-54.5-134t-125.5-61q-66 0-66 97 0 54 36 135 46 106 112 106 98 0 98-143zM1718 230q0-107-47-151-30-29-111-47-91-21-131-45-20-12-43-72-30-77-42-96-33-57-109-131-86-83-146-104-65-24-145-24-59 0-167 24-113 27-155 53 1 1 32 22 19 14 35 14 12 0 55.5-5.5t56.5-5.5q153 0 302 95 138 89 195 207-22 23-80 21-96-2-90-3-52 6-89.5 40.5t-37.5 79.5q0 73 46 173 56 124 133 124 65 0 117-84 46-81 91-160 4-2 43-2 49 0 107 16 77 20 77 56 0 13-66.5 135.5t-66.5 135.5q0 5 34 108 81-47 141.5-159.5t60.5-214.5zM694 194q0-68-25-129-25-65-65-84l-115 946q0 110 65 178 6 0 19-16t14-29zM2453 1578v48h-37l-13-24q0-23 13-24h37zM1370 1479q-15 14-40 14v-38q31 10 40 24zM2218 144q-26 67-67 81l-34-36q10-10 11-24 11-5 33-21h57zM612 1331q0 16-25 40-52-25-68-56 6-5 12.5-17.5t11.5-17.5q11 0 32 5.5t25 5.5q0 10 6 18t6 22zM1204 144v47q-42 44-56 44-11-7-22-15-13-10-13-26 0-15 6-25.5t6-13.5q46 0 79-11z" glyph-name="uniFB55" horiz-adv-x="2854" unicode="&#xfb55;"/><glyph arabic-form="isolated" d="M3846 1663q0-43-154-134-88-47-176-95-84-53-259-150-25 24-25 41 0 57 232 190 168 94 335 187h36q0-3 5.5-14t5.5-25zM3805 1043q0-19-38.5-58t-57.5-39q-12 0-48.5 15t-49.5 15-48.5-30.5-48.5-30.5q-35 0-76.5 33t-41.5 54q0 32 36 66 32 31 52 31 11 0 43-15t43-15q12 0 51 35.5t52 35.5q24 0 78-41t54-56zM3161 1520q0-50-153-148-78-46-157-92-68-41-216-150h-35q-13 14-13 36 0 54 100 125l108 66q240 166 353 202 0-3 6.5-14t6.5-25zM3150 956q0-124-64-161-36-11-102-36-98-49-105-49-32 0-57 44-19 35-19 54 0 10 10.5 46.5t10.5 58.5q3 0 21.5 6t35.5 6q1-21 11-72 3 0 5.5-4.5t17.5-4.5q34 0 65 119 5 7 20 23 11-1 26-4 3-5 28-67 20 36 70 113l18-12q8-16 8-60zM3980 239q0-223-474-268-73-167-202-283-137-124-266-124-82 0-204 31-142 36-175 82 21 30 46 30 9 0 97.5-15t102.5-15q289 0 470 281-22 26-55 26-13 0-18-5.5t-18-5.5q-76 0-131 36-64 42-64 113 0 60 50 160 61 121 134 121 61 0 136-118 38-63 77-125 23-13 89-13 76 0 172 24 131 32 131 84 0 29-48 77-18-17-57-48-33-24-80-24-70 0-115 63-39 52-39 111 0 61 51 151 58 105 124 105 113 0 241-280 25-54 25-171zM2823 337q0-54-25-126-20-32-37-43-33 38-28 67 5 26 5 52 0 87-55 171.5t-55 78.5q0 23 17 47t35 24q59 0 106-125 37-98 37-146zM1236 1452q-1-18-15-54-24-29-89-63-51-28-104-55-157-95-369-200h-36q0 4-6 9.5t-6 20.5q0 55 103 114 62 31 125 61 108 61 319 183 34-2 78-16zM2628-31q0-52-229-175-6-3-256-127h-34q-13 13-13 35 0 46 15 56 87 57 226 128 117 59 234 117h46q0-3 5.5-11.5t5.5-22.5zM2434 178q0-37-37-90.5t-60-53.5q-13 0-131 41t-131 41q-29 0-54-34-30-43-51-54-63-34-140-34-149 0-223 135-55 100-58 238 0 39-32 88-90-95-156-141v-140q-2-80-16-135-30-110-204-190-151-70-274-70-153 0-253 77-105 81-105 219 0 76 25 136 8 17 71 128 15 12 40 33 38 0 38-30 0-13-31-108t-31-107q0-100 108-149 76-35 158-35 92 0 213 41 167 56 167 148 0 47-14 91-11 32-62 117-47 77-47 88 0 31 43 118h36q40-42 61-50h34q86 0 140 82 82 127 88 132 23 0 44-33 32-65 54-221 22-152 52-207 50-92 170-92 81 0 153 90 56 85 113 168 64 90 123 90 16 0 40.5-19t31.5-35q107-249 107-273zM928 767q0-36-32-68-30-30-54-30-36 0-74 44-34 37-34 54 25 107 77 107 33 0 75-39.5t42-67.5zM1779-328q0-34-36-71t-57-37q-11 0-58.5 20.5t-58.5 20.5q-13 0-54-35.5t-54-35.5q-37 0-82 46-41 43-41 61t33 57.5 49 39.5q13 0 64-30.5t65-30.5q15 0 57.5 41t54.5 41q20 0 69-34.5t49-52.5zM3765 460q-22 66-67 66-8 0-45-32v-38q34-32 66-32 46 0 46 36zM3302 148q0 39-31 70h-47l-12-47q12-6 34-23h56zM2248 242q-20 82-20 78h-48q-11-23-11-58 41-20 79-20z" glyph-name="uniFB56" horiz-adv-x="3995" unicode="&#xfb56;"/><glyph arabic-form="final" d="M4371 1457q0-99-107-161-86-49-164-49-10 0-39.5 5t-42.5 5q-22 0-101-50h-37v33q0 27 65 83 57 49 72 53 25 2 70 6 9 7 93 113 47 59 109 59 37 0 61-31 21-29 21-66zM3829 1554q0-52-115-126-106-68-148-68h-73q-13 2-13 25 0 22 45 48 30 15 60 31 14 6 49 34-22 26-67 26-11 0-110-72h-37v34q-1 28 73 95 73 66 95 66 46 0 134-27 107-32 107-66zM4648 259q0-58-23-121-25-70-62-95-29-22-92-40-55-15-80-15h-46q-71 0-127 52-52 50-59 116-17 155-64 535-41 330-41 341 0 56 64 143 8 0 33-16 37-78 63-346 11-196 57-584 2-11 47-56 12-12 59-12 106 0 159 38 2 9 2 18 0 39-58 107t-58 99q0 41 45 107 64-20 105-84 76-120 76-187zM4576-232q0-27-32.5-62.5t-59.5-35.5q-26 0-69 37-39 34-44 51 31 61 87 117 37-21 75-42 43-27 43-65zM4791-314q0-53-106-101-159-70-349-139h-34q-13 13-13 30 0 53 34 67 191 85 453 179 15-15 15-36zM3204 950q0-36-43-67-36-25-54-25-12 0-48.5 15.5t-49.5 15.5q-12 0-53-31t-54-31q-33 0-77 40-41 36-41 52 0 34 29.5 63.5t63.5 29.5q14 0 49-15.5t47-15.5q13 0 52 30.5t51 30.5q27 0 76-32 52-34 52-60zM2456 1266q-31-130-363-254l-66 13q24 45 88 82 92 53 106 64-11 25-56 25-38 0-72-29-50-42-96-63v34q-1 9 55 82 59 76 80 84 11 4 79 4 154 0 245-42zM3491-140q0-42-214-136-288-125-323-145h-34q-13 14-13 41 0 50 33 67 118 58 300 134 180 75 199 75 52 0 52-36zM3788 249q1-29-5-74-17-41-34-83-23-52-45-70-43-34-224-34-147 0-236.5 35.5t-126.5 35.5q3 0-110.5-30.5t-197.5-30.5q-87 0-110 6-62 18-135 96-25-29-90-79-67-33-155-33-11 0-44.5 10t-48.5 10q-13 0-77-10t-76-10q-71 0-148.5 25.5t-82.5 25.5q-12 0-112.5-25.5t-113.5-25.5h-157l-605-20q-11 0-38.5 8t-43.5 8q-242 7-353 194 25 24 41 24 10 0 102-35.5t169-35.5q99 0 175.5 74.5t76.5 166.5q0 24-34 263-38 265-62 391-2 6-22 29-16 19-16 64 0 36 22 93 24 62 53 86h36q6-50 34-136 20-16 46-54-21-63-21-135 0-57 16-153 21-123 25-161 13-106 32-324 80 49 159 99 108 66 151 66 52 0 139-38 107-46 107-101 0-73-113-214 16-16 36-16 84 0 199 27 152 35 187 94h48q-4-29-4-50 0-64 45-64 7 0 25 1.5t27 1.5q110 0 135 22 27 40 83 111 42-2 42-32 0-9-4.5-29t-4.5-29q0-32 52-32 70 0 121 79.5t87 82.5q1 24 1-81 0-45 97-72 73-20 138-20 28 0 88 24 57 24 62 33-4 14-4 33 0 102 78 233 82 138 161 138 75 0 117-100 31-73 31-146 0-78-41-168 42-36 210-36 120 0 138 35-44 234-106 696-3 23-26 89-21 63-21 75 0 38 25 101 27 69 61 99 38-15 49-136 27-17 80-61 0-33-51-172zM1494-149q-12-35-53-85-104-59-453-197h-34q-12 13-12 30 0 53 33 67 63 27 271 127 169 82 183 82h42zM4241 1413l-11 11-25-25 9-11zM3275 296q4 18-16 72-21 60-45 60-26 0-69-42.5t-43-75.5q0-24 23-45.5t48-21.5q18 0 102 53zM1493 292q-89 54-147 54-36 0-179-92.5t-153-121.5h64q23-1 109 15 96 18 150 38 163 59 156 107z" glyph-name="uniFB57" horiz-adv-x="4644" unicode="&#xfb57;"/><glyph arabic-form="initial" d="M3824 1316l-32-66h-48q-7 21-68 61-112-102-388-257l-57 14q58 58 163 144 127 101 164 135-2 5-46 55-36 41-36 57 0 52 61 133 65 87 124 87 85 0 85-150 0-21-2-53.5t-2-39.5q0-12 2-15 24-27 48-53 32-37 32-52zM3722 922q0-34-32.5-63.5t-59.5-29.5q-41 0-77 32t-36 66q0 22 38.5 59.5t59.5 37.5q45 0 107-102zM3927 742q0-30-43-65-39-32-64-32-14 0-59.5 25.5t-58.5 25.5q-12 0-64.5-41t-63.5-41q-53 0-139 86 4 20 43 58 41 41 65 41 13 0 51.5-20.5t50.5-20.5q11 0 63 41t65 41q29 0 91.5-40.5t62.5-57.5zM3220 1427q0-36-243-182-177-105-354-211-5 0-18 5.5t-18 5.5v64q-2 55 608 375 14-11 25-11v-46zM2135 1495q0-56-227-188-255-148-383-212-15 15-15 36 0 56 44 83 259 157 523 311h47q0-5 5.5-10.5t5.5-19.5zM4121 220q0-88-57-141-53-49-132-49-64 0-118 36t-62 36q-11 0-49-33-42-39-55-45-49-24-105-24h-82q-36 0-119.5 66.5t-126.5 66.5q-119 0-233-65-105-59-89-277 1-21 15-73 13-49 13-75 0-9-2-17-2-19-44-83-51-75-84-75-41 0-91 111-39 85-50 139-16 73-13 276-7 11-45 2-159-36-231-36-59 0-148 18-99 22-128 47-28 33-99 108-32-31-110-89-1-1-144-48-51-16-145-16-87 0-115 9-64 20-64 93 0 92 56 92 13 0 77-20.5t77-20.5q85 0 192 39 141 51 141 130 0 10-41 177.5t-41 180.5q0 30 44 117 51-15 81-123 21-89 41-176 18-74 52-214.5t309-140.5q117 0 145 5 63 10 181 69 32 15 62 70 36 66 51 80h34q13-13 13-40 0-48-41-111-24-35-49-70-22-62-43-211l15-17q10 42 40 120 31 54 48 78 33 45 74 73 65 46 176 87t174 41q56 0 117.5-66.5t144.5-66.5q105 0 143 42 21 23 105 192h47q0-13-4.5-58.5t-4.5-57.5q0-17 35-52.5t54-35.5h60q7 3 22 17-3 13-16 56-11 38-11 50 0-9 33 122h36q27-55 55-109 29-65 29-110zM1582 1509q0-52-142-132-120-67-159-74-74-13-134-13-73 0-105 20.5t-49 20.5q-20 0-112-92-15 15-15 31 0 40 45 113 52 81 98 81 6 0 63-25.5t111-25.5q88 0 195 44 112 45 167 108h37v-56zM1244 148q0-42-64-107-28 0-46 24 0 67-6 205-17 128-51 400-11 27-25 82-13 143-13 211 0 48 2 51 6 20 52 101h37l104-721q0-131 5-193.5t5-52.5zM875 936q0-33-190-150-127-76-253-151h-45q-13 13-13 35 0 49 36 72 81 55 217 129 213 116 223 122 15-12 25-12v-45zM1008 178q1-47-188-90-17-4-80-40-42-34-124-98h-35q-12 24 8 84-42 23-132 79-1 5-1 9 0 64 125 196.5t193 132.5q42 0 74-33 28-29 28-54 0-27-25-66-28-42-57-42-11 0-40 25.5t-42 25.5q-47 0-92-68 7-55 92-55 13 0 120.5 25.5t119.5 25.5q4 0 56-23v-34zM3661 1511q-18 35-49 35-23-24-23-49 36-35 59-32z" glyph-name="uniFB58" horiz-adv-x="4124" unicode="&#xfb58;"/><glyph arabic-form="medial" d="M1111 1584q0-27-76-60-51-24-81-31-66-28-195-76-77-23-129-23-27 0-51 24v45q12 12 33 30 378 127 403 127h73q23-25 23-36zM1040 1226q0-28-24-84-26-60-51-75-38-16-102-45l-48-28q-32-19-47-19-36 0-64 33-23 30-23 59 0 21 18 63 23 54 50 59 14-13 14-64l17-17q43 11 54 69 11 68 47 94 13-38 42-102 39 10 45 67 8 64 48 86 24-71 24-96zM1347 227q0-235-164-235-125 0-262 143-25-36-99-109-86-65-141-65-33 0-94 28-73 31-87 68-4 7-15 64-6 31-34 55-87-61-116-70-6-2-64-2-50 0-102 16-72 23-72 61 0 13 19 33 26 24 30 31 47 80 160 159 125 88 158 128 9 37 58 125 37-25 45-116 4-68 8-134 3-85 7-169 16-103 114-103 90 0 141 59 49 56 49 141 0 12-25.5 176t-25.5 177q0 76 54 122 23 0 44-33 13-81 41-226 21-118 43-234 46-161 152-161h58q17 16 17 30 0 8-37 117-41 122-52 174-34 145-34 232 0 20 24 78 26 63 44 75 19-17 41-56 9-105 27-225 3-22 49-164 41-125 41-190zM1530-63q-7-70-142-147l-198-98q-1-1-53-38-41-30-53-30h-52q-13 14-13 30 0 25 21 55 19 26 33 33 226 116 433 219zM589-131q0-52-103-111-67-33-135-66-88-49-268-140h-34q-13 14-13 36 0 59 68 92 65 29 129 58 103 50 308 161h36q0-3 6-9t6-21zM466 345q0 21-15 36-39-23-79-45-48-30-58-66 3 0 19-6t31-6q26 0 59 20 43 25 43 67z" glyph-name="uniFB59" horiz-adv-x="1342" unicode="&#xfb59;"/><glyph arabic-form="isolated" d="M2012 1356q0-56-210-185-129-72-256-143-15 15-15 35 0 58 103 123 72 40 145 79 71 47 198 121 1-1 22-10 13-5 13-20zM1295 1647q-18-41-53-63-145-83-431-269h-36q-12 13-12 30 0 54 81 111 73 42 147 86 99 60 291 171zM2002 168q0-275-320-478-54-34-192-34-71 0-286 43 0 5-5.5 23.5t-5.5 23.5q43 23 127 23 115 0 133 2 75 12 163 51 84 38 179 140 104 109 115 189l-17 17q-8-4-64-38-39-24-57-24-57 0-116 66-54 60-54 98 0 60 57 162 64 114 127 114 99 0 164-155 52-122 52-223zM843 1021q-44-52-124-123-148-85-198-85h-42l-12 13v27q86 67 173 110-11 34-56 34-34 0-137-50v43q-1 46 72 86 62 34 101 34 12 0 84.5-10t85.5-10 28.5-1 24.5-1v-67zM1254 307q2-15 2-30 0-130-96-188-35-20-126-31-86-10-119-37-15-10-86-121-81-128-122-178-27-33-82.5-62t-109.5-58q-43-18-120-18-169 0-297 64v37q6 2 163 2 274 0 492 283v27q-13 7-77 7-73 0-132 39-68 45-68 114 0 81 64 172 67 95 136 95 56 0 118-96 39-70 79-140 115 4 166 15 88 20 103 72l-144 865q-5 44 27 99 29 48 58 95 32-16 34-99 2-31 16-45 29-13 80-52-5-53-35.5-103.5t-30.5-62.5q0-7 4-14zM1827 292v46q-43 45-58 45-42-42-43-68 33-35 55-35 15 0 28.5 6t17.5 6zM690 179v36q-30 32-56 45l-24-24v-34q11-7 33-23h47z" glyph-name="uniFB5A" horiz-adv-x="2017" unicode="&#xfb5a;"/><glyph arabic-form="final" d="M2026 1391q0-48-43-73-139-83-421-249-10-1-23.5 12t-13.5 29q0 47 193 167 136 80 271 160 9 0 22-13 15-16 15-33zM1340 1452q0-26-194-149-187-118-273-152-14 14-14 41 0 57 85 111l122 64q78 45 226 151h48v-66zM2282 424q0-73-115-127-43-27-144-75-332-106-503-106-37 0-196 52h-28q-28-55-28-72 0-12 6.5-28.5t6.5-25.5q9-6 131-42 82-26 82-88 0-201-298-312-205-77-373-77-11 0-69 10t-69 10q-8 0-69 28-197 90-197 290 0 84 70.5 198t123.5 118v-67q0-12-25-51-29-43-34-61-2-9-2-65 0-132 110-200 89-56 207-56 95 0 241 43 153 44 221 97v26q-61 19-256 61 0 3-6 11t-6 23q0 35 65.5 102t65.5 106q0 15-7 30l-103 815q0 61 43 189h38q11-82 89-463 1-6 72-266 5-26 27-82 28-55 80-73 43-13 88-26h27q7 7 7 26 0 11-20.5 65t-20.5 67q0 32 58 142 52 97 69 118 48 58 112 80 13 4 74 4 92 0 164-44 45-27 137-113 0-9-11-22-14-15-30-15-14 0-79 37-40 24-110 24-56 0-145-40-105-47-105-103 0-65 87-123 77-52 133-52 65 0 191 55 187 81 209 88 14-13 14-40zM1013 727q-13-38-47-95-62-51-168-97-115-50-195-50-13 0-77 20.5t-76 20.5q-13 0-48-34-46-47-60-58-15 15-15 30 0 38 54.5 111.5t88.5 73.5q13 0 82-20.5t81-20.5q148 0 353 133 9-2 27-14zM900 209q0-91-36-161-7-14-37-33-7 53-23 157-17 83-50 142-15 19-29 38-20 27-20 41 0 15 33 81h36q38-37 60-73 66-108 66-192z" glyph-name="uniFB5B" horiz-adv-x="2302" unicode="&#xfb5b;"/><glyph arabic-form="initial" d="M4942 1706q0-45-27-61-99-58-498-256h-47v58q174 141 558 289 14-14 14-30zM4932 1221q-18-46-95.5-71t-88.5-65l133-947q-11-40-43-121h-36q-7 6-21 23-6 90-34 261-24 141-48 283-51 339-51 420 0 10 14.5 34.5t14.5 34.5q-22 9-87-12h-34q-7 11 0 39 7 36 7 43 0 10-25.5 35.5t-25.5 40.5q0 37 81.5 113.5t128.5 76.5q30 0 61-34 26-30 26-48 0-25-21-48.5t-45-23.5q-10 0-34.5 21t-35.5 21l-17-17q19-39 42-45h45q37 0 68.5 8t39.5 8q26 0 81-30zM3980 1419q0-13-13-36-18-31-20-35h-33q-12 0-41 20.5t-41 20.5q-13 0-81-58-86-70-122-93-46-30-127-63-77-32-96-32-26 0-40 14 17 46 73 83 76 45 153 89 132 82 132 110 0 11-30.5 47t-30.5 51q0 56 54 133 60 86 124 86 33 0 51-14 36-38 36-114 0-61-23-112 4-11 42-50 33-33 33-47zM4399 840q0-31-30.5-64t-55.5-33q-23 0-85 37-64 39-64 60 0 33 33 65.5t65 32.5q37 0 86-31 51-34 51-67zM3827 850q0-21-33-64t-49-43-69.5 35-61.5 51q-3-2-3 21 0 18 25 54 29 44 62 44 41 0 85-34.5t44-63.5zM4461 247q0-251-358-251-89 0-218.5 35.5t-124.5 35.5q-10 0-39-15-36-18-52-23-134-43-288-43-115 0-167 34-7 5-46 41-28 27-43 27-12 0-41-33-34-38-49-46-43-23-125-23-13 0-61.5 10t-61.5 10q-2 0-60.5-20.5t-123.5-20.5q-104 0-113.5 3t-54.5 22q-38 16-53 16-9 0-68-17-62-18-88.5-21t-164.5-3q-42 0-138 66-74 52-112 89-20 19-293 265-14-25-9-57l10-40q9-54 0-94-27-115-181-151-127-23-254-45-18-95-22-112-15-57-43-104-55-7-124 48-64 51-76 98-13 51-13 83 0 18 4.5 33.5t4.5 19.5q0 12-17 35-8 1-17 1-71 0-139-39-78-46-81-115l112-698q-9-38-18-77-13-54-39-76-25 30-40 108l-20 132q-88 487-88 575 0 152 55 214 97 105 206 123 27 5 81 18 4 0 22 20 15 18 30 18 12 0 50-32 47-38 66-48 78-43 157-43h74q86 0 202 48 2 10 2 21 0 55-55 151-47 75-95 151-46 80-175 217-88 95-88 164 0 118 112 218 106 94 271 138 144 48 430 143 107 39 317 107 240 65 243 65 14 0 25-5.5t15-5.5v-46q1-48-63-83-18-10-186-58-119-36-348-102-112-46-327-127-94-31-189-62-127-49-197-122-1-7 2-16 486-473 866-805 30-26 121-36 57-6 91-6 61 0 122 16 37 4 110 37 11 24 53 79h36q14-32 14-65 0-13-2.5-31.5t-2.5-24.5q0-32 69-32 113 0 182 43 27 17 58 62 53 77 55 79 30 0 45-23 1-21-3-60-4-47-4-63 7-7 31-7 62 0 98 32 21 19 52 77t59 85q35-20 35-54 0-9-4-30t-2-31q17-21 55-46 132-33 199-33 10 0 52 10.5t55 10.5q35 0 84 18-5 55 5 162 17 56 72 146 78 124 146 124 81 0 125-93 34-68 34-143 0-89-42-159v-47q28 0 86 1t67 1q178 0 227 36 4 77-39 132.5t-43 107.5q0 11 33 113 60-28 113-147 48-105 48-165zM1421 1521q0-14-23-61h-53q-13 0-34 15.5t-34 15.5q2 0-157-133t-228-133h-53q-3 10-12 25l337 267q-8 12-57 61-34 35-34 55 0 54 53 132 57 84 110 84 40 0 57-23 23-30 30-96l8-110q5-7 55-43 35-25 35-56zM3028-183q0-54-244-161-194-86-318-119v64q-1 37 135 91 45 19 133 55 29 10 131 57 84 38 97 38h54q12-1 12-25zM888 815q0-55-125-134-112-72-138-70h-64v37q31 24 102 89-29 17-57 17-14 0-50-17-49-21-55-23 11 73 69 122 48 41 93 41 8 0 87-16t114-16q8-5 16-9.5t8-20.5zM3846 1575q0 41-35 58-46-22-46-47 36-36 58-34zM3909 328q0 31-28 64.5t-49 33.5q-26 0-62-35.5t-36-66.5q0-20 27.5-51t44.5-31q18 0 58 28 45 33 45 58zM1235 1656v36q-22 23-37 23l-23-25q34-34 60-34z" glyph-name="uniFB5C" horiz-adv-x="4888" unicode="&#xfb5c;"/><glyph arabic-form="isolated" d="M4605 1543q0-86-85-156-77-64-151-64-11 0-40 5t-42 5q-23 0-55-21-35-26-50-59h-47q10 99 123 177 29 8 73 27 9 7 88 104 57 69 104 69 82 0 82-87zM4103 1579q0-50-116-131-106-74-136-73h-74v48q46 22 142 79-28 26-57 26-57 0-84-26-39-35-73-45v33q-1 11 49 68 47 56 65 67 37 26 84 26-7 0 188-33 0-3 6-14t6-25zM4512 206q0-75-43-131h-37l-165 1001q-1 5-1 12 0 93 66 132 8 0 24.5-15.5t19.5-28.5q18-88 50-268 25-156 57-428 29-249 29-274zM3579 1264q-236-170-453-299h-35q-12 1-12 25 0 13 6.5 34t7.5 29q285 200 463 280 14-12 23-12v-57zM4041 350q-9-64-19-127-15-82-58-115-22-17-104-40.5t-118-47.5q-24-18-57-82-29-59-57-117-59-110-182-194-43-29-114.5-52t-165.5-23q-36 0-164 13-41 4-117 41 27 48 87 48 11 0 42-5t44-5q114 0 290 106 188 113 243 237-31 34-94 37-54 1-106 1-47 8-84 70-33 53-33 91 0 61 64 152 67 94 120 94 62 0 113-72 54-87 109-174 69 7 139 16 93 18 120 77l-174 819q12 51 24 104 17 60 62 110 32-18 36-71 4-61 13-74 11-16 100-72-4-23-13-65-18-19-46-63-2-4-2-59zM3120 447q0-55-20-116t-43-73q-6 61-22 168-17 71-86 149-64 72-64 82 0 4 32 71h33q38 1 104-100 60-92 63-118 3-42 3-63zM2260 1456q0-58-54-89-249-146-433-239-5 5-17.5 12.5t-17.5 12.5q10 32 35 77 67 38 183 104 145 88 290 152 14-14 14-30zM2721 238q-16-154-53-212-44-65-147-65-189 0-289 205-5 0-15-3-53-83-201-132-119-39-227-39-140 0-173 53-11 91 43 151 11 0 30-11 25-14 35-17 39-12 127-12 106 0 211 37 137 49 137 131 0 2-33 117-33 119-37 180-2 42-2 56 0 66 45 133 35-16 43-55 10-73 37-214 29-93 82-276 16-59 76-100 59-40 122-40 64 0 86 26-46 292-147 869-2 14-25 55-23 38-23 53 0 35 38 113 33 71 58 102 45-14 45-73v-14q-1-9-1-14 0-81 75-106v-55q1-13-15-60-21-57-25-77zM1635 1347q0-22-94-90-82-60-113-75-73-33-96-33h-63q-3 10-12 25 24 24 174 124-11 25-51 25-30 0-68.5-32t-56.5-32q-14 0-29 12 86 164 195 164 63 0 214-42v-46zM2925-128q-90-79-246-151-41-19-283-117 0 3-6.5 11.5t-6.5 23.5q0 40 26 55 86 54 232 127 217 108 237 119h47v-68zM950 745q-57-108-98-108-27 0-75 31-53 36-53 66 0 33 30 65t57 32q24 0 68-25 52-28 71-61zM1605 539q0-21-4-82-4-67-95-112-62-27-125-54-9-52-9-110-2-116-69-197-47-56-198-113-142-53-222-53-145 0-252 77-122 88-122 240 0 85 47 184 48 104 103 123 14-14 14-41 0-11-25.5-101t-25.5-103q0-32 43-105 64-110 264-110 70 0 197 43 151 53 151 110 0 103-56.5 211t-56.5 127q0 43 44 112-3 0 37-15 38-66 65-79 16-8 85-8 79 0 108 26-5 27-30 87-22 54-22 66 0 55 34 107h46q60-84 72-142 2-11 2-88zM1646-335q0-41-41-69-31-24-52-24-11 0-50 20.5t-52 20.5q-12 0-56-35.5t-56-35.5q-15 0-61 29-60 40-72 45 32 120 107 120 12 0 51.5-20.5t50.5-20.5q13 0 54 41t54 41q32 0 80-50 43-46 43-62zM1052-279q-10-36-44-84-75-36-454-187-14 14-14 40 0 13 6.5 31.5t7.5 24.5q432 201 443 201h31zM4503 1492q-10 9-26 15-38-17-56-48 37-6 54 4 14 14 28 29zM3498 188v36q-33 34-51 34-17 0-40-24v-36q68-22 91-10z" glyph-name="uniFB5E" horiz-adv-x="4526" unicode="&#xfb5e;"/><glyph arabic-form="final" d="M5644 1258q-149-129-506-290-15 15-15 36 0 73 218 172 107 47 256 140h47v-58zM5143 1540q4-15 4-33 0-89-102-174-94-78-168-78-11 0-30.5 5.5t-30.5 5.5q-36 0-71-36-40-38-81-45v43q-1 19 43.5 72.5t80.5 73.5q26 5 82 26 2 2 74 104 62 89 113 89 31 0 86-53zM4683 1567q0-53-166-136-147-74-179-74h-41l-23 25q8 32 74 66 84 40 110 68-29 16-57 16-24 0-53-29.5t-50-29.5q-11 0-24 6 68 165 194 165 44 0 120-20 95-25 95-57zM4970 196q-7-63-8-69-16-51-72-69l-135 950q-5 8-5 19 0 23 59 135h36zM5727 155q0-136-132-316-141-193-301-239-45-13-161-13-103 0-243 52-1 8-13 25 36 35 67 35 13 0 61.5-5t61.5-5q121 0 287 116 170 118 233 249 19 18 38 61v28l-18 17q-19-5-48-41-25-31-78-31-69 0-115 73-38 59-38 111 0 53 33 141 43 115 105 115 110 0 194-156 67-127 67-217zM3762 1813q0-3-16-44-54-40-202-117-198-105-323-150 0 3-6 11.5t-6 23.5q0 51 105 99 134 75 400 213h35q13-14 13-36zM3761 1308q-26-37-76-48-77-17-80-19-22-10-145-56h-35q5 49-34 83.5t-39 58.5q0 35 85 114.5t125 79.5q33 0 65-26t32-51q0-29-22-52.5t-44-23.5q-15 0-39 16-29 20-42 25-8-4-27-16v-20q48-46 87-46 13 0 69.5 15t68.5 15q25 0 51-22v-27zM4477 1050q5-54-30-100-30-35-61-70v-338q0-13-41-158t-41-158q0-9 26-117t26-123q0-87-35-99-76-27-228-49-118-16-158-16-112 0-112 67 0 45 53 93 18-1 53 6 37 15 129.5 106t92.5 117q0 38-136 240-121 179-144 202-44 47-88 93-70 69-103 69-12 0-50-15.5t-53-15.5q-154 0-154 195 0 123 82 123 120 0 363-263 207-222 257-328 15-29 84-137 16 0 20 8 45 147 45 153v488q0 174 119 252 0-4 7-24.5t9-32.5q-13-19-13-51 0-108 81-117zM3075 1552q0-48-117-124-109-71-145-71h-52l-23 25q10 29 57 60 38 22 76 45-17 34-62 34-14 0-59-33-55-40-70-49-14 2-14 26 0 52 72 112 69 57 118 57 73 0 206-46 13-8 13-36zM3065 958q0-18-34.5-60t-51.5-42q-14 0-53 20.5t-50 20.5q-12 0-49.5-41t-52.5-41q-23 0-74 30-55 32-55 57 0 29 34 64 31 33 54 33 12 0 48-15.5t48-15.5q8 0 47 41t56 41q41 0 87-34t46-58zM2645 1239q0-29-210-150-142-81-285-161h-46v44q-2 47 42 74 396 240 434 239h65v-46zM3280 196q0-141-119-194-115-40-232-81-16-8-29-43-12-32-23-63-111-237-275-317-69-34-182-34-57 0-160 24-120 29-147 61 4 48 41 48 13 0 69.5-15.5t68.5-15.5q142 0 239 52 84 44 194 161 12 22 36 62 48 64 48 73 0 25-68 74-1 7-7 35-7 25-7 39 0 19 19.5 43t37.5 24q13 0 58.5-15.5t59.5-15.5q173 0 276 78 2 42-27 86-38-22-77-43-50-29-65-29-66 0-109 54-39 49-39 116 0 61 43 154 56 117 130 117 59 0 139-118 57-85 82-150.5t25-166.5zM1284 1393q0-50-121-124l-128-68q-150-90-359-211h-36q0 4-6 12t-6 23q0 47 137 132 82 45 163 90 221 128 342 182 14-14 14-36zM2011-249q0-28-36.5-65.5t-56.5-37.5q-38 0-78 42-34 36-34 50 0 29 30 61 28 26 57 52 38-23 75-47 43-26 43-55zM946 682q0-27-43-66-40-37-54-37t-45 25q-49 36-52 38-3 40 25 84 30 48 67 48 30 0 68-43 34-38 34-49zM2052 206q0-210-195-210-144 0-208 97-37 57-93 264-5 3-21 17-11-14-137-119 2-103-16-306-23-122-131-185-201-116-357-116-171 0-272 85-106 87-106 243 0 122 136 275h38v-67q-1 4-26-41.5t-25-116.5q0-214 266-214 76 0 137 12 58 13 145 56 97 48 114 83 3 6 3 58 0 97-61.5 215.5t-61.5 132.5q0 55 34 108h35q51-51 75-51 100 0 145 49 19 21 93 165 22 0 54-22 7-25 38-203 21-123 71-196 40-59 147-59 66 0 66 36 0 12-35.5 83.5t-35.5 85.5q0 10 5.5 41.5t5.5 48.5q3 0 11.5 6t23.5 6q48 0 97-126 41-103 41-135zM2174-559q-1-1-11-44-8-32-26-43-95-55-241-125-150-72-168-71h-65v44q0 38 141 105 79 33 159 67 62 32 186 79 15-12 25-12zM1673-459q0-38-34-65-29-23-58-23-15 0-45 15.5t-43 15.5q-12 0-45-25.5t-46-25.5q-25 0-66.5 32.5t-41.5 54.5q0 38 87 97 12 0 48-20.5t50-20.5q11 0 43 31t43 31q23 0 63-32 45-35 45-65zM5532 274v36q-43 44-78 44l-24-25q34-67 62-67 15 0 25.5 6t14.5 6zM4231 18q0 25-5.5 46.5t-5.5 22.5q-33-17-59-69h70zM3075 387v36q-43 43-68 43-33-33-33-47v-31q23-23 50-23 30 0 51 22z" glyph-name="uniFB5F" horiz-adv-x="5721" unicode="&#xfb5f;"/><glyph arabic-form="medial" d="M1536 219q-2-10-17-126-10-77-37-108h-36l-104 914q0 117 79 149zM1730-273q-11-34-14-38-15-31-40-40-82-16-236-47-47-19-136-48-14 14-14 30 0 13 20.5 39.5t20.5 37.5q0 13-20.5 38.5t-20.5 38.5q0 52 72 118.5t128 66.5q20 0 53.5-34t33.5-53q0-21-33-40-27-17-38-17-12 0-31 7-26 9-55 14l-7-7v-19q54-46 109-46-15 0 64-1 62-1 144 0zM768 552q0-77-61-77-29 0-81 33.5t-52 53.5q0 23 32.5 65t54.5 42q43 0 77-42 30-39 30-75zM1833-442q0-38-157-89-326-109-330-109h-32q-13 13-13 30 0 47 44 67 92 43 245 97 147 51 168 50h75v-46zM1178 127q0-131-35-202-12-24-111-91-34-24-114-52-123-44-227-44-120 0-227 81-115 88-115 206 0 81 30 144 14 30 85 132 38 0 38-36 0-13-25.5-82t-25.5-81q0-100 115-152 81-38 161-38t196 31q162 44 162 112 0 66-23 126-10 26-58 117-41 76-41 90 0 13 31 45 39 43 46 52 63-63 102-170 36-100 36-188z" glyph-name="uniFB61" horiz-adv-x="1542" unicode="&#xfb61;"/><glyph arabic-form="isolated" d="M3901 1176q0-16-30-47.5t-55.5-46.5-317.5-160q-39-19-146-91-89-59-103-58h-53q-12 0-12 24 0 56 123 131 78 40 156 81 122 63 380 202h46q0-3 6-11.5t6-23.5zM2477 1458q0-14-6-32.5t-6-27.5q-3 0-11-6t-23-6q-8 0-50 31t-62 31q-9 0-93-87-94-97-140-125-35-21-321-137l-25 27q128 106 208 154 253 150 253 199 0 21-46 49t-46 68q0 69 68 142.5t133 67.5q43-22 48-102 7-102 19-126t60-69q40-39 40-51zM3788-282q0-39-48-79-40-34-55-34-19 0-96 51-32-26-63-52-35-29-50-29-32 0-85.5 42t-53.5 65q0 18 32 65 36 53 66 53 12 0 57.5-31t60.5-31q9 0 56.5 41t61.5 41q25 0 71-42t46-60zM3911 286q0-134-46-198-20-27-81-47-32-14-92-34-121-23-216-23h-108q-123 0-171 23-68 34-264 197-184 154-254 179-8-28-8-68 0-14 1.5-43t1.5-43q0-77-38-118-47-51-156-65-145-17-175-30-30-278-424-405-272-88-627-88-329 0-597 110-356 145-482 446v37h43q-5 0 119-116 134-126 253-163 69-31 194-76 64-14 267-44 213-30 269-30 9 0 59.5 8t68.5 9q199 10 338 37 88 17 217 72 209 88 209 181 0 43-14 75-11 24-54 87-35 55-35 68 0 41 44 127h35q65-88 87-106 45-36 126-36 110 0 179 47 12 77-126 252-79 81-160 162-103 109-103 179 0 13 7 33 9 24 9 29 23 138 145 221 44 29 262 127 202 91 508 201 259 91 517 182h33q13-13 13-36 0-111-163-176-110-34-218-68-300-109-819-331-49-23-99-46-83-45-83-80 0-22 150-132 103-75 207-150 73-54 257-214 164-142 275-219 62-43 263-43 12 0 94 10 91 11 121 13 42 4 139 55 4 55-53 114-60 60-60 95 0 32 18 71 20 41 43 41 62 0 113-114 41-94 41-146zM1524 1226q-9-18-134-99-138-89-189-88h-72q-14 1-14 24 0 30 78 72 95 51 107 62-28 36-77 36-39 0-131-92h-37v54q-1 41 134 135 22 15 65 15 79 0 270-63v-56zM1423 516q0-31-33-72t-54-41q-31 0-86 46-53 43-53 62 0 23 35 63 37 44 68 44 39 0 83-40 40-37 40-62zM2271 1623q0 37-38 49v-37q10-12 38-12z" glyph-name="uniFB62" horiz-adv-x="3917" unicode="&#xfb62;"/><glyph arabic-form="final" d="M2423 1683q0-40-26-60-98-76-263-158-78-45-239-120-14 15-14 41 0 52 25 67 154 85 460 261h44q13-14 13-31zM2300 1079q0-18-42.5-60.5t-64.5-42.5q-21 0-83 36-65 37-65 57 0 25 41.5 68.5t60.5 43.5q31 0 89-33 64-37 64-69zM1666 869q0-17-42-62t-60-45q-16 0-133 83 4 36 36 82 35 49 66 49 29 0 79-36 54-39 54-71zM959 1625q0-42-177-119-56-35-163-93-68-38-208-109-14 15-14 46 0 51 32 72 109 71 285 162 170 89 191 88h54v-47zM1000 1468q0-81-237-167-82-47-268-150h-44q-13 13-13 41 0 40 25 56 37 24 264 144 88 38 259 117 14-15 14-41zM2710 305q0-16-11-27-9-8-18-15-30-84-348-166-278-72-427-72-113 0-124 2-29 9-87 51-53 38-65 38-9 0-56-28-53-32-75-40-60-23-161-45-89-19-113-19h-141q-134 0-172 13-58 19-131 67-65 42-67 42-12 0-63-36-57-43-84-53-61-23-165-23-82 0-113 11-65 22-114 104-27 43-33 132-3 69-5 137-18 331-31 501-6 93-30 255-4 13-28 56-20 39-20 53 0 37 75 112 62-12 75-75 47-240 57-820 7-32 14-92 3-74 9-94 14-54 64-84 37-22 121-22 94 0 163 37 38 21 87 69 38 37 57 37 13 0 50-38 49-50 65-62 70-54 269-54 153 0 172 3 77 9 199 61 34 14 61 84 25 65 75 78 32-14 32-93 0-24 5-33 29-49 118-77 7-2 69-2 86 0 118 27-1 6-24 57-17 39-17 54 0 69 96 218 71 111 154 142 38 14 88 14 97 0 215-116v-26q-7-11-24-29-12 1-77 16-52 11-73 11-38 0-134-41-112-49-112-91 0-59 101-122 84-53 110-53 82 0 387 122h37v-56zM929 967q0-58-43-135-52-91-116-91-12 0-10 5t-10 5q-7 0-57-30.5t-87-30.5q-34 0-56 35-21 31-21 67 0 85 77 144 23-23 23-42 0-5-2-16.5t-2-18.5q0-14 6-28-7-8 16-8 32 0 53 53 19 50 37 100h36q5-36 30-102 42 6 48 62 9 68 41 92 37-19 37-61zM1962-157q-82-57-255-134-145-62-292-125-15 13-25 13v67q70 59 303 163 212 96 234 96 15 0 23-6t12-6v-68zM929-226q0-18-39.5-68t-57.5-50q-11 0-58 31t-60 31-59-41-59-41q-42 0-95.5 38t-53.5 64q0 36 50 77 42 36 53 36 10 0 60-25.5t63-25.5 59 41 59 41q33 0 85.5-41t52.5-67z" glyph-name="uniFB63" horiz-adv-x="2720" unicode="&#xfb63;"/><glyph arabic-form="initial" d="M1446 1739q0-47-115-101-3-1-134-50-71-28-256-119h-35q-13 1-13 24 0 20 20 51t45 43q388 178 433 178h43q12-2 12-26zM1446 1153q-22-19-73-37-58-22-78-35-1-3-6.5-5.5t-5.5-17.5l81-860q0-86-42-152-7 0-24-12-32 29-33 57-18 308-82 839-6 47 18 133-6 6-21 6-14 0-54-16-48-21-65-25-13 25 7 84-21 10-45 37-27 30-27 48 0 33 101 118 98 82 124 82 35 0 70-33 33-30 33-55 0-30-22-53t-45-23q-20 0-71 51-9-9-38-9 0-3-4.5-8t-4.5-19q0-46 57-46 228 0 250-4v-45zM863 1156q0-44-137-125-125-75-156-74h-73q-13 1-13 24 0 27 69 65 42 25 85 48-28 36-72 36-26 0-106-49h-37q26 77 85 122 52 40 104 40 11 0 99-23 96-25 141-31 0-2 5.5-10t5.5-23zM975 265q0-156-145-340-148-187-279-187-12 0-75-10t-74-10q-74 0-286 63v36q23 24 35 24 10 0 48-5.5t55-5.5q174 0 281 44 136 57 285 220 24 27 44 86-7 2-14 2-18 0-43-12.5t-41-12.5q-69 0-122 65-47 58-47 120 0 59 49 151 56 105 115 105 80 0 153-144 61-121 61-189zM812 346q-19 55-67 88-36-35-36-51 0-51 57-51 32 0 46 14z" glyph-name="uniFB64" horiz-adv-x="1364" unicode="&#xfb64;"/><glyph arabic-form="medial" d="M3169 1644q0-51-33-69-145-70-431-210-41-23-129-58v77q12 28 53 51 197 108 516 239 8-4 16-9t8-21zM2955 1030q0-33-32-68t-61-35q-26 0-79.5 34t-53.5 53q0 22 34 65t58 43q42 0 90-41 44-35 44-51zM2329 963q0-15-74-83-12-3-33-3-11 0-40 15t-42 15q-16 0-55.5-31t-51.5-31q-25 0-75 36-48 35-48 46 0 27 44 72 41 41 54 41 12 0 48-20.5t48-20.5q13 0 49 36t49 36q23 0 73-36 54-40 54-72zM1439 1690q0-40-37-63-357-218-379-217h-54v68q163 143 458 247 0-3 6-11.5t6-23.5zM1254 1439q-4-32-26-80-95-84-409-216-8 5-16.5 10t-8.5 20 15.5 43 28.5 35q327 189 362 188h54zM3210 288q0-58-3.5-82.5t-52.5-114.5q-10-21-101-62-96-43-145-43-10 0-121-10.5t-125-10.5q-135 0-318 34-26 4-107 32-74 26-86 26-19 0-133.5-35.5t-209.5-35.5q-125 0-199 95-45 59-80 178-28 95-44 95-17 0-57.5-35t-58.5-65q-23-39-46-143t-53-153q-82-141-192-204-59-34-212-34-49 0-158 22-97 18-128 30 0 7-11 25 35 36 61 36 13 0 66.5-10.5t66.5-10.5q28 0 102 16 92 21 137 47 85 51 199 191 74 90 74 155 0 15-5 17-7 3-8 5-61 38-71 55-8 12-8 51 0 77 72 77 15 0 32-5.5t29-5.5q71 0 122 86 15 26 65 149h36q26-53 56-209 27-139 68-195 64-86 201-86 74 0 125 28 1 73 5 110 5 62 21 104 26 69 103 144 87 85 155 85 71 0 115-114 34-85 34-152 0-58-4.5-69.5t-28.5-49.5q-19-31-19-45 0-32 37-39 193-33 296-33 73 0 224 26 201 34 201 82 0 20-37 76-103-51-136-51-74 0-127 54-48 50-48 110 0 67 57 165 63 111 127 111 102 0 211-238 35-77 35-176zM2523-179q0-36-24.5-69t-89.5-62q-57-23-113-45-113-51-311-129-24 24-24 40 0 60 170 132 90 32 181 65 63 31 187 80 14-12 24-12zM794 283q0-48-8-66-13-32-70-88l-127 936q-1 95 66 190 12-11 33-44 12-166 60-560zM1766-334q2-36-39-74-39-36-68-36-13 0-59 25.5t-59 25.5q-11 0-55.5-41t-57.5-41q-29 0-132 74 40 121 91 121 13 0 64.5-25.5t64.5-25.5q10 0 47 41t50 41q12 0 153-85zM3005 451q-44 66-66 77-24-11-46-57 34-35 66-35t46 15zM2320 354q0 20-32 70-34 53-55 53-29 0-86-72-53-66-53-77 0-32 34-56 29-21 53-21 19 0 75 34 64 38 64 69z" glyph-name="uniFB65" horiz-adv-x="3216" unicode="&#xfb65;"/><glyph arabic-form="isolated" d="M2586 1486q0-29-160-122-221-128-262-157h-45q-13 1-13 24 0 89 434 302h46v-47zM2116 1595q0-88-112-165-100-70-179-70-12 0-31 5t-31 5q-15 0-50-28-51-43-53-44-15 15-15 36 0 47 58 105 54 54 86 54 13 0 13-5t12-5q5 0 87 102.5t128 102.5q87 0 87-93zM2362 914q0-22-33-63-36-44-65-44-21 0-63 29-44 33-44 58 0 21 30.5 64t51.5 43q34 0 80-36 43-34 43-51zM2567 213q0-138-136-210-107-56-248-56-55 0-128 33-90 39-100 94-41 217-54 502 0 11-24 255-6 58-33 204-25 136-25 145 0 45 56 118 47-23 53-55 28-162 49-498 21-332 49-495 23-130 193-130 36 0 256 50v67q0 10-27 37-9-4-70-42-47-30-62-30-78 0-118 65-31 49-31 115 0 69 37 156 47 115 122 115 78 0 158-143 59-104 69-158 14-80 14-139zM1481 1626q0-11-32-69-94-23-322-94-197-62-208-62-27 0-51 22v48q101 57 276 105 145 40 291 80h33q13-14 13-30zM1369 1262q0-61-56-119-59-62-143-74-11-2-55.5-19.5t-58.5-17.5q-32 0-54 24.5t-22 57.5q0 56 43 143 5 0 18.5 4.5t17.5 4.5q0-36 21-112h26q28 35 71 143h37q0-44 19-102 43 4 62 62 22 67 50 82 24-48 24-77zM826 1108q0-31-34-66-9 3-55 25-34 16-49 16-26 0-47-27-37-48-83-82-92-68-228-126h-45q-12 2-12 25 0 11 240 195 57 44 57 61 0 13-30.5 54t-30.5 54q0 61 68 134 73 77 143 70 43-34 43-89 0-21-7.5-58t-7.5-50q0-19 8-30 21-25 41-52 29-36 29-54zM1655 202q0-31-29-112t-45-89q-25-13-89-13-125 0-221 102-50-52-162-130-31-13-99-13-145 0-202 226-30-23-87-59-48-24-115-24-95 0-159 43 11 104 148 212 52 42 224 146 11 7 34 57 29 61 46 84 37-136 22-272-3-27-3-54 0-195 138-195 74 0 122 38.5t48 104.5l-52 430q0 45 44 132 50-5 75-219 6-83 13-164 13-123 44-192 11-25 51.5-57t55.5-32h89q17 16 17 30 0 13-14 45-17 38-20 51-29 94-58 187-40 142-40 208t44 133q49-23 54-65 14-133 74-304 52-151 52-235zM2003 1538l-38 15q0-5-5.5-19t-5.5-19q5 0 24.5 11.5t24.5 11.5zM2372 424q-15 18-29 36-17 19-33 19-14 0-40-22v-48q35-32 61-32 41 0 41 47zM683 1272q-18 35-39 35l-12-36q5-5 19-11.5t18-11.5q0 9 14 24zM815 298v58h-47l-80-46q-48-27-55-54-5 0 22.5-6.5t84.5-6.5q58 20 75 55z" glyph-name="uniFB66" horiz-adv-x="2583" unicode="&#xfb66;"/><glyph arabic-form="final" d="M2635 1766q0-74-280-203l-300-150q-14 14-14 41 0 55 138 130 71 33 141 66 93 47 267 141h35q13-1 13-25zM2614 1243q-29-32-92-53-71-23-93-41 43-261 99-744 2-30 8-124 6-79 6-92 0-76-24-165-5-8-32-34-40 22-40 148 0 33-3 50-8 119-38 358-59 322-59 453 0 66 13 100-18 10-66-14h-35q-6 11 0 36 8 32 8 41 0 32-60 56-5 7-5 17 0 35 52 97t108 97q12 5 43 5 33 0 65-22.5t32-45.5q0-19-20-51-22-35-41-35-17 0-79 62-6 0-34-29 0-18 18-32 54-22 105-22-3 0 129 16 12-5 35-32zM2112 1111q0-52-206-186-18-11-71-27.5t-71-16.5q-12 0-60 21v29q56 29 173 100-10 23-62 23-13 0-68-21-64-26-94-34 23 74 88 129 59 49 105 49 13 0 106-17 107-20 148-25 12 0 12-24zM1405 1590q-32-39-120-90-63-35-127-70-200-116-308-181-10-1-24 12t-14 29q0 35 25 67l543 302q15-12 25-12v-57zM2153 179q0-156-108-312-118-171-295-222-9-3-114-3-137 0-270 43v46q23 24 55 24 13 0 49-5.5t49-5.5q176 0 328 107 145 104 214 265-16 17-25 17-11 0-48-20.5t-55-20.5q-158 0-158 164 0 61 39 151 50 115 119 115 92 0 163-144 57-117 57-199zM1488 87q0-19-17-63-18-50-40-73-87-100-296-168-181-59-318-59-176 0-286 87-118 94-118 260 0 52 52 142 56 95 110 124v-57q1-10-24.5-69t-25.5-73q0-135 117-205 91-55 211-55 256 0 492 150 0 19-18 30-104 33-245 37-34 19-34 53 0 31 64 81 84 63 87 66 23 27 23 74 0-19-46 301-13 97-40 328-2 22-20 79-17 54-17 70 0 46 25 110t51 84q24-10 40-97 15-82 87-98 8-52-13-99-4-8-27-31-20-19-20-33 0-6 34-231 36-238 44-327 6-71-25-145-5-19 0-37 21-14 86-22 46-6 72-39 35-48 35-95zM925 553q0-45-26-107-30-68-64-77-2 58-3 115-4 64-23 103-6 11-54 92-35 58-35 73 0 67 46 67 53 0 110-127 49-106 49-139zM1989 292q-28 41-77 66-35-35-35-46 0-19 21-37.5t40-18.5q20 0 51 36z" glyph-name="uniFB67" horiz-adv-x="2550" unicode="&#xfb67;"/><glyph arabic-form="initial" d="M2428-216q0-34-44-64-35-23-54-23-31 0-74.5 26.5t-43.5 45.5 36.5 66 56.5 47q37 0 81-37 42-36 42-61zM2694-359q0 21-15-54-220-114-370-176l-25 25q2 2 27 51 15 31 37 42 109 48 331 148 15-15 15-36zM1311 1190q-4-32-25-79-50-39-141-90-177-99-413-208-14 14-14 31 0 81 536 346h57zM2499 224q0-9-53-117h-35q-23 23-46.5 47t-64.5 24q-90 0-115-5-39-9-150-60-40-18-66-65-53-93-53-156 0-50 13-159 1-7 14.5-35t13.5-42q0-32-60.5-108t-78.5-76q-32 0-76 103-36 86-38 117-13 171-13 175 10 34 21 93v36q-61 0-185.5-16t-127.5-16q-12 0-48 4.5t-50 4.5q-45 0-70-30.5t-62-30.5q-117 0-264 65-2 1-20 20-15 17-29 17-8 0-47-30-42-33-65-38-55-13-134-13-51 0-98 28-59 36-68 99-44 313-44 606v294q0 11-15 83.5t-15 86.5q0 46 65 113 25 0 33-13 35-127 35-165v-289q0 1 13-141.5t14-215.5l-2-130q1-76 18-114 35-79 146-79 86 0 187.5 118t140.5 118q12 0 61-53 59-62 85-79 115-73 294-73 104 0 118 2 81 9 176 61 36 19 65 68 37 61 50 74 47-22 47-62 0-75-51-138-55-67-62-143l6-87q49 196 197 319 146 121 324 121 71 0 106-26 63-45 63-92zM2141-492q0-95-498-261-24 24-24 36 0 56 54 83 139 58 411 177h46q0-4 5.5-12t5.5-23zM1035 130q-15 26-57 68-25-49-24-59 52-25 81-9z" glyph-name="uniFB68" horiz-adv-x="2501" unicode="&#xfb68;"/><glyph arabic-form="isolated" d="M1781 1545q0-59-37-84-137-78-407-238h-35q-13 13-13 40 0 55 221 179 163 91 258 128 13-1 13-25zM1238 1543q0-34-233-166-184-104-295-155-14 15-14 46 0 42 15 52 108 74 280.5 172.5t192.5 97.5h54v-47zM1484 940q0-17-40-56.5t-57-39.5q-13 0-97 52 0 35 25 84 28 58 62 58 19 0 63-37.5t44-60.5zM1699 270q0-306-328-306-175 0-230 142-37 155-74 309-28-9-31.5-39.5t-5.5-60.5q-18-40-41-113-26-123-232-233-182-98-302-98-28 0-56 14 22 51 142 113 188 96 208 110 86 57 149 170 82 150 105 401 17 203 33 406 5 27 32 55 49-20 57-92 4-64 7-127 20-220 78-655 10-58 62-100 49-39 105-39 70 0 139 16 101 22 101 66 0 25-38 82-13-3-35-29-25-30-42-40-23-13-74-13-64 0-105 62-34 51-34 102 0 47 46 155 57 131 118 131 47 0 82-39 26-38 53-75 111-153 111-275zM931 398q0-20-36-56-27 31-65 102-50 91-66 116-27 40-105 120-89 92-117 92-13 0-46-10.5t-46-10.5q-143 0-143 169 0 108 82 108 88 0 239-130 127-109 186-200 44-68 82-154 35-80 35-146zM1505 429q-45 45-67 56-36-18-36-56 0-46 51-46 26 0 52 46z" glyph-name="uniFB6A" horiz-adv-x="1706" unicode="&#xfb6a;"/><glyph arabic-form="final" d="M3855 1443q0-51-37-74-77-41-232-130-38-22-230-118 0 3-6.5 11.5t-6.5 23.5q0 58 86 106 65 32 131 64 74 48 282 152 0-3 6.5-12t6.5-23zM3814 833q0-30-43-69-38-33-49-33-13 0-56.5 25.5t-56.5 25.5q-5 0-45.5-41t-77.5-41q-30 0-112 54v46q28 31 56 63 12 11 35 11 13 0 56.5-20.5t56.5-20.5q12 0 59.5 46.5t58.5 46.5q23 0 70.5-40t47.5-53zM3179 1595q0-16-155-102-141-77-216-110-59-29-168-79-13 15-13 36 0 56 43 82 100 62 269 148 165 82 185 82h55v-57zM3097 1268q0-81-56-144-52-59-132-80-7-1-38-20-27-16-45-16-42 0-77 32-4 23 5 81 11 66 28 91h36q6-27 31-82 40 6 54 62 17 67 56 92l17-13q18-24 0-45v-9l14-15q20 41 81 123 26-26 26-57zM3138 741q0-36-47-67-38-25-56-25-23 0-59.5 25.5t-47.5 25.5q-12 0-56-36t-56-36q-30 0-66 35-32 31-32 47 0 29 40 68 36 35 47 35 13 0 46.5-20.5t46.5-20.5q14 0 56 36t56 36q23 0 75.5-38.5t52.5-64.5zM1817 1125q0-44-46-67-11 5-55 30-38 22-52 22-7 0-167-127-171-135-301-170l-24 26q40 42 195 153 139 101 195 175-5 16-41 53-32 30-32 74 0 47 57 118 61 76 112 76 16 0 52-22 26-56 32-104 4-35-14-133 25-21 51-43 38-31 38-61zM3814 229q0-13-8-29-9-20-10-28-11-57-18-75-11-31-38-49-14-9-166-37-89-17-154-17-110 0-135 6-92 20-183 116-144-132-399-132-88 0-175 27-117 37-151 109-6 3-22 17-30-39-110-109-66-41-114-50-27-5-125-5-92 0-103 4-62 14-145 61-6 4-38 38-28 30-41 30-9 0-63-37-60-42-89-52-10-3-96-18-59-11-87-38-20-21-63-105-49-94-83-136-69-87-171-150-111-68-198-68-50 0-155 27-124 30-136 62 23 23 71 23 19 0 54.5-4.5t47.5-4.5q253 0 493 304v27q-31 14-145 25-89 8-139 65-14 17-14 76 0 72 64 173 68 108 130 108 64 0 122-94 41-77 81-153 20-2 39-2 101 0 231 73-1 8 9 17-52 46-123 46l-59-9q-13 0-13 24 0 18 46 75.5t79 79.5q86 56 157 56 96 0 167-32 94-40 94-122 0-42-8-59-14-26-75-81 0-18 19-32 96-43 161-43 92 0 214 43 36 13 65 60 24 40 47 79 32 42 43 42h44q5-12 5-96 0-32 46-54 84-41 131-49 23-5 107-5 140 0 219 27 110 37 171 136h49q74-163 292-163 53 0 138 20 83 20 114 38-2 22-33 87-29 62-29 75 0 43 44 107 50-5 88-104 32-82 32-141zM2452-226q0-24-35-60.5t-57-36.5q-19 0-69 31-54 34-54 56 0 17 33 62t49 45q28 0 77-30 56-35 56-67zM2698-303q0-50-234-160-198-94-315-126-14 14-14 36 0 41 84 87 8 4 113 53 188 85 341 141 8-5 16.5-10t8.5-21zM742 1371q0-65-54-130-58-70-130-70-113 0-113 87 0 64 52 156 58 106 122 106 52 0 90-54 33-48 33-95zM640 219q0-131-54-203h-37l-93 899q0 36 24 110 27 82 53 95 40-26 40-139 0-25 1-40 20-153 45-439 21-253 21-283zM1653 1285v36q-6 22-59 22 0-31 59-58zM650 1340q-28 57-51 57-39 0-61-45v-35q23-23 45-23 46 0 67 46zM1131 129v36q-14 17-29.5 35.5t-31.5 18.5q-36 0-51-33v-37q35-33 72-33 27 0 40 13z" glyph-name="uniFB6B" horiz-adv-x="3822" unicode="&#xfb6b;"/><glyph arabic-form="initial" d="M3652 1504q0-67-92-152-75-68-106-76-58 1-173-16-19-6-57-32-28-20-61-20 1 35 44 91 44 60 90 83 18 2 50 16 3 3 69 98 48 71 96 81 12 4 38 4 37 0 69.5-26t32.5-51zM3048 1622q0-70-153-152-124-66-181-73l-24 24q20 40 65 69l78 46q-18 39-46 34-38 0-121-70h-47q55 120 102 155 38 28 122 28 66 0 193-21 12-13 12-40zM3550 275q0-159-44-199h-36l-125 917q11 43 21 87 20 62 69 80zM2567 1320q0-47-202-176-131-84-263-167h-34q-13 13-13 40 0 53 217 191 182 117 280 158 15-15 15-46zM2045 1432q0-31-47-84-13-6-38-16-138-96-420-283h-35q-13 13-13 35 0 51 117 134l172 112q72 43 216 138h35q13-14 13-36zM3140 229q0-40-34-119-30-71-49-91-31-35-162-35-98 0-160 13-20 4-78 27-51 21-65 21-9 0-118-22-125-25-177-32-48-8-66-45-24-64-99-186-172-196-369-196-35 0-236 44-17 3-55 42 15 37 51 37 13 0 51.5-10.5t50.5-10.5q137 0 291 87 159 90 211 207-2 25-58 30-51 3-102 7-40 7-71 68-25 51-25 87 0 59 54 145 61 96 125 96 43 0 111-117 73-122 85-126 7-3 50-3 40 0 102 13 77 14 84 35l24 92q18 60 44 94 74 97 232 213-6 147-35 438-1 14-15 62-11 41-11 57 0 81 84 203h36q2-5 2-106 0-58 57-92 15-26 15-41 0-4-49-105-12-25-12-100 0-39 27-204 1-56 26-162 25-52 146-146 17-13 51-72 36-65 36-97zM1001 1002q0-87-157-154-128-56-223-56-11 0-81.5 15.5t-81.5 15.5q-12 0-64-43-59-49-78-58v54q-1 28 64.5 104t97.5 76q13 0 47-20 40-24 52-29 7-2 71-2 147 0 315 122 38 0 38-25zM847 505q0-18-22-77-22-63-42-95h-37q0 14 4.5 46t4.5 45q0 79-24 126-21 37-42 73-27 46-27 62 0 20 13 44 18 33 44 33 47 0 91-116 37-95 37-141zM1513 184q0 1-18-54-9-46-50-124-96-97-273-164-170-63-315-63-141 0-257 75-142 91-142 248 0 76 59 187 61 117 113 123-5-37-28-137-22-90-22-102 0-230 349-230 114 0 258 53 150 56 193 124-22 6-68 2-64-6-61-6-87 0-179 50-112 62-112 155 0 102 141 298 155 214 278 214 51 0 84-47 29-44 29-96 0-55-45-103-19 10-60 50-35 32-49 32-47 0-153-118-102-115-102-153 0-64 90-100 69-28 145-28 11 0 35.5 5t36.5 5q33 0 75-29 48-32 48-67zM3518 1418q0 20-12 39-31-15-48-48 12 0 34 4.5t26 4.5zM3038 184q-15 27-69.5 69t-80.5 48q-60-80-74-131 114-23 152-23 56 0 72 37zM2782 321q0 62-51 62-36 0-79.5-44t-43.5-84q0-22 13-35h44q117 51 117 101zM2053 159q0 5-4.5 24t-4.5 24h-38q-9-19-1-35 53-13 48-13z" glyph-name="uniFB6C" horiz-adv-x="3555" unicode="&#xfb6c;"/><glyph arabic-form="medial" d="M1646 1718q0-53-196-165-151-85-218-109-52-22-156-64-24 25-24 41 0 45 139 120 80 38 161 76 88 47 268 131 9-4 17.5-9.5t8.5-20.5zM1634 1240q0-41-76-49t-76-83l92-879q0-176-57-231-36 35-43 123-4 74-7 148-6 69-53 374-38 247-38 375 0 43 4 79-7 6-21 6-34 0-65-30-5 0-18 6t-19 6q0 5 5 36 4 26 1 37-2 8-21 40-16 29-16 44 0 47 67.5 118t116.5 71q33 0 63-26t30-60q0-33-32-61 72-14 163 1v-45zM827 673q0-27-30-69.5t-52-42.5q-27 0-77 35-57 38-57 68 0 23 30.5 67.5t51.5 44.5q25 0 79.5-43t54.5-60zM1226 141q0-286-332-362-119-27-114-27h-62q-126 0-231 85-111 90-111 212 0 174 127 287 16-12 25-12v-56q1-13-19.5-71.5t-20.5-70.5q0-108 103-165 82-45 189-45 70 0 187 43 131 46 163 98 4 4 4 49 0 62-61.5 199.5t-61.5 132.5q0 2 33 102h45q59-38 101-192 36-126 36-207zM1429 1269q-30 48-58 48 0-10-22-12 0-16 23-36h57z" glyph-name="uniFB6D" horiz-adv-x="1575" unicode="&#xfb6d;"/><glyph arabic-form="isolated" d="M4158 1521q1-28-115-89-202-106-482-262h-36q0 4-6 12t-6 23q0 18 25 53.5t50 49.5q179 90 533 270h37v-57zM4056 903q0-25-39.5-68.5t-52.5-43.5-49 20-49 20q-12 0-50.5-30.5t-51.5-30.5q-27 0-72.5 29.5t-45.5 46.5q0 20 34 64t48 44q11 0 47.5-15.5t49.5-15.5 56.5 36 56.5 36q32 0 77-37 41-36 41-55zM3370 1384q0-81-334-243h-63q-13-1-13 23 0 28 78 80l86 54q-22 35-61 35-30 0-56-25-45-42-70-56-15-11-25-11-1 2-2 3-11 9-11 27 0 56 84 123 77 62 116 62 5 0 102.5-15.5t144.5-15.5q24-24 24-41zM4117 233q0-144-97-217-60-44-210-44-132 0-226 51t-112 51q-11 0-91-32-91-37-127-47-198-54-341-54h-74q-240 0-355 224-95-94-151-119-121-54-203-54h-110q-53 0-91 23-43 26-43 69 0 46 43 112 11 0 38-13t36-15q90-12 143-12 61 0 172 49 130 57 130 119 0 14-35.5 190.5t-35.5 189.5q0 59 34 127 23-10 54-45 13-45 53-299 25-159 106-282 28-44 139-76 88-25 136-25 296 0 451 90 0 53-110 44-13 13-13 30 0 47 70 110 61 55 88 60 76 14 103 14 51 0 135-33 105-42 105-95 0-11-25.5-62.5t-25.5-64.5q0-62 159-72 17 0 88 17 78 18 91 30 4 9 4 21 0 80-72 170-1 1-9 14-5 9-5 24 0 24 17 70 20 53 39 53 51 0 94-145 34-111 34-146zM1681 1476q0-13-13-36-18-30-20-35h-33q-13 0-52 30.5t-51 30.5-46-34l-53-54q-87-76-206-150-129-79-208-100-15 13-24 13 36 61 237 204 182 130 182 167 0 16-9 17-43 37-54 56-9 17-9 55 0 39 53 111.5t90 72.5q79 0 96-101 5-63 9-126 8-11 68-58 43-32 43-63zM2571-110q0-54-43-79-92-52-232-119-143-68-161-68h-42q-13 14-13 30 0 17 15 43.5t29 34.5q133 58 400 188h34q13-13 13-30zM677 1419q0-84-70-151-68-64-144-64-93 0-93 76 0 58 46 157 58 125 133 125 50 0 91-52 37-48 37-91zM1691 381q0-101-35-181-25-57-126-84-105-28-124-60-21-72-89-196-136-146-212-192-91-55-228-55-140 0-302 97l13 18q-16-2 192-2 301 0 512 312-21 25-62 25-13 0-23-5t-23-5q-59 0-119 44-71 50-71 120 0 65 58 161 63 105 122 105 86 0 145-118t105-118q45 0 97 23 66 27 78 75l-154 778q19 123 74 189 30 0 45-23 4-79 4-81 14-46 81-81-1-47-20.5-103.5t-19.5-84.5q0-27 47-245 35-160 35-313zM647 278q0-20-15-175-3-36-54-87l-147 972q-1 11-1 22 0 38 19 75 18 34 36 67 27 0 34-12 22-159 48-319 23-87 55-266 25-222 25-277zM575 1383q0 15-6 28.5t-6 16.5h-57q-52-52-52-89l17.5-6t48.5-6q55 27 55 56zM1220 240q-3 18-23.5 48.5t-32.5 30.5q-15 0-23-5.5t-12-5.5v-58q65-22 91-10z" glyph-name="uniFB6E" horiz-adv-x="4135" unicode="&#xfb6e;"/><glyph arabic-form="initial" d="M2231 1425q0-46-32-71-28-20-308-188-92-63-259-161-14 15-14 46 0 54 14 66 107 83 272 182 141 84 281 167 46-23 46-41zM2303 217q0-207-145-375-154-177-362-177-178 0-311 53v36q23 23 45 23 11 0 71.5-10.5t71.5-10.5q155 0 337 136 188 139 211 287l-17 18q-18-7-69-42-41-30-67-30-69 0-116 74-38 60-38 116 0 68 40 151 53 109 135 109 92 0 162-164 52-126 52-194zM1341 247q0-55-35-170-6-20-54-43l-116 925q0 67 28 128.5t62 70.5zM532 759q0-38-37-73-32-29-55-29-43 0-80 36-33 33-33 61 39 108 77 108 26 0 77-40t51-63zM1372-162q0-36-34-57-14-10-164-58-57-19-123-68h-35q-18 31-6 85-48 51-48 84 0 42 72.5 105t117.5 63q77 0 77-72 0-24-42-64 46-10 160 13 9-4 17-9.5t8-21.5zM1443-320q0-67-54-94-139-58-422-178-15 13-24 13v43q-1 43 201 133 167 75 286 108 13-1 13-25zM952 247q0-222-146-342-130-108-335-108-133 0-237 72-122 82-122 220 0 65 57.5 183.5t92.5 128.5l16-10t8-21q0-9-30.5-96.5t-30.5-102.5q0-101 85-160 75-50 181-50 94 0 208 41 150 55 150 143 0 120-115 289-28 41-28 54 0 31 43 117h36q32-37 81-104 86-141 86-254zM2129 322v34q-27 55-61 55-19 0-35-18t-16-37q0-47 66-47 33 0 46 13z" glyph-name="uniFB70" horiz-adv-x="2317" unicode="&#xfb70;"/><glyph arabic-form="medial" d="M3067 1467q-18-28-104-78-382-222-403-221h-64q3 40 24 90 88 61 247 139 208 101 254 128h46v-58zM2525 1533q1-45-122-131-121-81-171-81h-63q-12 1-12 25 0 31 57 66 38 23 77 46-37 26-88 26-7 0-41-24.5t-60-24.5q-13 0-26 7 25 72 79 115 51 40 104 40 7 0 92-16 89-16 130-19 17-10 44-29zM3058 856q-4-13-53.5-55.5t-64.5-42.5q-11 0-51.5 25.5t-50.5 25.5q-13 0-61.5-41t-61.5-41q-34 0-76 32t-42 50q0 31 40 68 37 34 57 34 14 0 52.5-20.5t50.5-20.5q13 0 59 41t59 41q46 0 143-96zM1870 1111q0-61-47-77-1 1-20 10t-30 21q-12-9-103-109.5t-235-136.5l-46 14q25 25 165 134 98 78 122 132-6 8-68 44-45 27-45 60 0 42 44 115 50 84 104 84 40 0 61-81 10-48 19-96 4-13 43-58 36-41 36-56zM2976 251q0-261-373-261-8 0-85.5 6t-110.5 6-78 54q-34 44-67 88-10 1-30-18-26-24-36-31-33-18-95-36-66-20-91-32-29-14-62-98-40-105-51-121-112-163-255-224-54-24-125-24-58 0-181 26-142 31-151 61 8 25 44 25 14 0 43-5t40-5q364 0 558 323-20 25-41 25-13 0-15.5-5t-14.5-5q-225 0-225 153 0 101 69 173 17 27 58 78 25 26 78 26 45 0 117.5-123t107.5-123q65 0 176 57 22 10 56 33 13 14 13 69l-71 732q0 26 13 59 18 43 48 43 52 0 68-169 12-140 30-409l12-208q10-108 46-179 23-46 103-56 18-3 110-3 194 0 266 47-11 33-54 103-39 63-39 75 0 31 55 113 67-29 107-103 33-65 33-137zM601 1346q0-83-77-145-66-54-128-54-92 0-92 87 0 68 54 150 59 91 125 91 36 0 77-45.5t41-83.5zM1407 449q-4-54-104-96-86-36-149-36-13 0-77 15.5t-77 15.5-43-17q-36-20-48-23v34q0 18 38.5 58t57.5 40q13 0 87.5-25.5t86.5-25.5q24 0 228 60zM1256 87q0-83-53-159-59-82-131-82-60 0-144 53 31 9 76 9 117 0 170 117-8 18-60 39-42 18-42 64 37 128 77 128 46 0 80-74 27-58 27-95zM611 133q0-87-54-152h-37l-124 955q-1 5-1 13 0 79 78 136l17-13q22-59 25-83 19-211 68-625 28-198 28-231zM1788 174v37q-43 45-68 45-23-24-23-48 33-34 57-34h34zM488 1316q0 11-23 35h-34q-18-18-45-46 6-12 23-35h56q23 24 23 46z" glyph-name="uniFB71" horiz-adv-x="2964" unicode="&#xfb71;"/><glyph arabic-form="isolated" d="M1312 1730q0-49-34-69-125-73-302-164-184-95-203-94h-53q0 4-6 12.5t-6 23.5q0 44 152 120 78 35 158 70 98 54 280 131 14-13 14-30zM1301 1194q-14-36-154-89-110-40-221-81-18 30-7 66-6 9-38 45-20 22-20 47 0 56 85 130 81 70 130 70 33 0 57.5-23t24.5-54q0-39-56-76-18 11-37 24-24 17-40 17-24 0-41-35 27-32 59-37h59q-7 0 175 30 5-5 12-17.5t12-16.5zM1250 220q0-134-43-209-18 0-36 23-1 64-27 318-10 100-46 328-32 207-32 215 0 105 66 149l18-13q13-99 41-299 8-24 21-82 38-228 38-430zM718 1054q0-55-134-133-122-71-159-71h-84q-3 9-12 25 27 42 87 61 63 20 87 53-6 24-41 24-14 0-150-82-14 2-14 26 0 42 85 113 80 66 115 66 22 0 208-53 0-3 6-8.5t6-20.5zM902 215q0-164-123-335-141-197-332-197-12 0-33-5t-34-5q-101 0-263 44-12 6-34 33l13 17q-12-2 156-2 146 0 317 108 175 109 251 256v28q-16 17-25 17t-54-25.5-59-25.5q-58 0-103 64-35 52-35 89 0 76 40 170 50 117 124 117 85 0 147-156 47-119 47-192zM738 309v36q-42 42-69 42l-12-67q38-23 81-11z" glyph-name="uniFB72" horiz-adv-x="1252" unicode="&#xfb72;"/><glyph arabic-form="final" d="M4408 1373q-3 0-13.5-5.5t-25.5-5.5q-13 0-46.5 25.5t-46.5 25.5q-12 0-187-123t-187-123h-53q-4 9-13 25 32 54 155 132 139 88 184 136-16 42-43 72-20 21-20 45 0 46 55 120 62 84 125 84 40 0 62-65 10-27 10-54t-12-69-12-60q21-29 68-72v-88zM4461 998q0-25-42-61t-61-36q-9 0-41 20.5t-46 20.5q-12 0-58-36t-60-36q-35 0-122 66 25 39 50 77 25 31 63 31 11 0 44.5-15.5t46.5-15.5 59 36 59 36q27 0 63-23 45-29 45-64zM3857 1459q0-42-95-104-67-43-113-62-162-64-222-64-26 0-51 24 20 34 114 72 108 46 142 73-28 36-72 36-28 0-65-29-32-27-63-53-15 14-15 30 0 42 73 103 70 61 111 61 32 0 244-53 0-4 6-11.5t6-22.5zM4543 323q0-293-333-293h-61q-61 0-165 51.5t-112 51.5q6 0-126.5-56.5t-226.5-56.5q-12 0-10.5 5t-9.5 5q-84 0-126-23-22-11-53.5-95.5t-127.5-197.5q-113-132-209-162-76-23-160-23-77 0-296 73-1 8-11 26 16 4 164 4 159 0 313 97t246 258q4 11 4 38-46 28-93 57-30 24-30 66 0 35 19 61t42 26q10 0 86-25.5t144-25.5q255 0 354 68-21 67-174 67v43q0 17 31 59t63 66q61 45 192 45 75 0 145-37 90-49 90-131 0-45-71-114 28-44 91-53 16-3 109-3 81 0 101 5 38 8 110 52 0 32-45 120-4 7-48 80-31 51-31 66 0 29 44 117 63-25 119-133 52-101 52-178zM2168 1234q0-57-46-57-13 0-51.5 20.5t-51.5 20.5-91-65q-104-86-131-105-81-58-238-117l-67 14q29 31 238 172 181 123 181 153 0 6-41 50t-41 73q0 57 65.5 130.5t119.5 73.5q87 0 87-141 0-32-5-71.5t-5-36.5q5-11 43-59 34-41 34-55zM2209 717q0-31-50-59-40-23-53-23-33 0-132 75 36 119 96 119 27 0 83-44t56-68zM3335-507q0-16-15-41.5t-29-31.5q-126-58-316-133t-210-75h-31l-16 10t-8 21q0 58 262 159 175 64 348 127 15-14 15-36zM2771 353q0-210-299-309-195-64-407-64-11 0-58 5t-60 5q-68 0-105-80-44-95-81-113 0 3-7 14t-7 26q0 5 20.5 59.5t21.5 97.5q-6 5-98 72-51 36-66 36-6 0-67-41-67-45-110-59-38-2-113-25-32-17-67-81-28-59-57-118-35-69-119-149-88-84-156-107-71-24-140-24-57 0-168.5 22.5t-158.5 41.5q0 21 23 35 97-9 247 10 106 13 233 102 138 96 213 225-7 27-74 30-104 5-117 9-22 5-55 34-38 33-48 68-3 11-3 43 0 66 57 168 64 113 122 113 50 0 126-117 41-70 82-139 19-6 42-6 81 0 218 69 13 7 60 46 41 35 56 35 209-134 291-134 74 0 279.5 179.5t319.5 179.5q87 0 153-37 77-44 77-122zM601 1448q0-40-40-113-46-87-104-105l144-949q-9-27-13-127-3-75-41-122h-37l-145 1038q8 29 52 142-36 10-72 22-41 19-41 71 0 47 57 147 64 114 122 114 47 0 85-42 33-40 33-76zM4275 1588q0 5-5 24.5t-5 24.5h-37q-14-26 11-49h36zM2012 1383q14 42-11 91h-35q-24-23-24-40 0-26 34-51h36zM2639 292q-13 18-87 43-67 23-93 23-50 0-161-91-104-86-109-112h64q87-1 224 48 135 49 162 89zM509 1399q0 3-6 20t-6 23q-32 0-45 12-66-67-66-82t7.5-20 15.5-10q13-3 49 19 34 20 51 38zM1091 134v36q-15 35-55 55l-25-23v-46q11-6 34-22h46z" glyph-name="uniFB73" horiz-adv-x="4562" unicode="&#xfb73;"/><glyph arabic-form="initial" d="M2068 1653q-127-88-504-299h-45q-13 1-13 25 0 59 104 118 72 37 145 73 103 53 289 152 15-12 24-12v-57zM1803 980q0-20-39-59t-58-39q-28 0-64 30-33 28-33 42 0 31 34.5 67t57.5 36q37 0 71-27 31-26 31-50zM2028 315q0-333-378-333-170 0-233 115-33 60-41 145-14 246-47 737-5 46-22 161-16 106-16 116 0 43 44 107h36q19-28 40-86 13-241 25-482 17-279 42-480 19-159 213-159 81 0 148 18 97 28 97 84 0 24-17 41h-28q-10 0-41.5-26t-46.5-26q-70 0-125 47-59 49-59 122 0 76 60 177 68 116 144 116 88 0 154-186 51-140 51-208zM1004 1726q0-37-330-202-94-54-290-140-14 14-14 36 0 45 103 104 57 28 115 56 157 81 369 203h47v-57zM923 1353q0-54-27-109-35-76-100-93-28-7-124-39-78-25-92-25-87 0-87 62 0 36 25 92t51 71q26-14 25-41-4-41 1-53 7-8 21-8 41 0 65 53l40 100h36q24-48 22-84 7-8 21-8 38 0 51 60 17 73 46 94l17-13q9-14 9-59zM780 770q0-29-37-68-33-34-45-34-35 0-123 63 0 29 25 76 28 55 62 55 31 0 74.5-36.5t43.5-55.5zM1669-239q-3-28-81-48-68-16-137-32-27-7-73-39-41-28-52-28h-74q0 9 9 35.5t9 40.5q0 13-25 41t-25 41q0 48 74 124t120 76q30 0 69-23 44-26 44-54 0-12-17-42-21-34-25-47 186 0 184 0v-45zM1792-362q1-38-196-120-154-60-309-119h-35q-12 1-12 25 0 57 54 83 103 47 259 107t175 60h64v-36zM1138 268q0-41-23-139-22-90-33-114-39-79-192-137-130-50-223-50-139 0-233.5 81.5t-94.5 205.5q0 95 116 285h37q-40-162-40-183 0-117 80-177 65-48 166-48 79 0 195 41 152 53 152 132 0 34-13 86-11 44-58 148-41 93-41 105 0 58 56 133 13-7 32-23 34-80 68-159 49-120 49-187zM1855 458q-15 25-29 50-17 26-33 26-19 0-35.5-19t-16.5-42q0-51 62-51 34 0 52 36zM1434-201q-37 59-69 59 0-6-6-19t-6-18q12-6 34-22h47z" glyph-name="uniFB74" horiz-adv-x="2041" unicode="&#xfb74;"/><glyph arabic-form="medial" d="M2307 1517q0-78-113-165-105-81-174-81-11 0-32.5 5.5t-34.5 5.5q-38 0-90-50h-37q9 31 45 88 39 61 62 70 22 0 58 16 27 26 72.5 88t73.5 90q26 25 77 25 38 0 68-37 25-31 25-55zM1548 1593q-14-32-54-42-98-28-286-78-4-1-36-16-25-11-39-11h-94q0 4-6 25t-6 33q14 29 55 40 405 106 411 106 32 0 55-23v-34zM2143 293q0-79-24-196-15-23-55-43l-116 997q0 118 80 158zM1529 1251q0-35-21-89-21-56-42-74-9-7-115-45-17-7-66-35-39-23-54-23-46 0-91 42-4 103 43 172 5 0 18 5t18 5q19-33 3-85 16-16 25-16 39 0 61 62 14 46 29 91h36q14-26 12-64 18-18 34-18 16 20 36.5 66.5t36.5 66.5q37-18 37-61zM965 1030q0-50-212-162-141-69-283-139h-44q-13 13-13 30 0 49 33 68 160 79 472 239h47v-36zM1805 192q0-59-51-131-56-79-118-79-65 0-138 39-76 41-119 104-10-5-83-79-66-68-100-72-95-13-102-13-84 0-133 73-24 34-64 142-32-30-109-79-78-34-176-34-115 0-158 43 1 97 156 216 54 40 255 163 49 29 73 108 10 16 30 44 14 0 34-35 0 9-5.5-55t-5.5-122q0-300 149-300 81 0 142.5 49.5t61.5 124.5q0 12-20.5 168.5t-20.5 169.5q0 35 24 91 23 54 44 72 6-6 20-23 7-33 35-295 18-173 73-258 14-19 70.5-49t77.5-30q19 0 46 27-7 28-77 252-46 151-46 228 0 66 54 138 37 0 44-35 19-105 81-341 56-213 56-222zM2193 1485h-47q-18-24-44-58h47q44 18 44 58zM904 290v68l-14 12q-94-44-130-64-77-43-101-76 1 0 21.5-6.5t45.5-6.5q28 3 72 13 34 12 106 60z" glyph-name="uniFB75" horiz-adv-x="2164" unicode="&#xfb75;"/><glyph arabic-form="isolated" d="M2090 1595q0-44-44-69-388-217-393-217h-52q-13 1-13 25 0 50 54 82 128 69 390 209h45q13-13 13-30zM2621 1394q1-73-247-212-59-33-205-126-167-91-335-182-196-107-277-225 61-41 218-109 133-58 185-107 79-74 79-195 0-86-15-114-38-76-186-117-107-29-204-29-110 0-155 23-54 28-72 114-23 111-23 323l-72 670q0 34 25 98.5t43 70.5q40-93 52-279.5t40-252.5q25 36 88 98 186 127 495 309 410 243 499 299h67v-57zM1015 1365q0-39-44-71-19-15-102-60-152-84-411-221h-36v63q-1 36 133 108 77 37 155 75 99 53 290 141 15-14 15-35zM769 678q0-19-30-62-32-45-52-45-19 0-69 34-54 36-54 59 0 13 23 54 27 45 31 58h53q19 0 58.5-39t39.5-59zM1158 193q0-201-197-312-154-88-335-88-106 0-207 81-111 88-111 201 0 69 65.5 193t108.5 128v-57q0-13-30.5-91.5t-30.5-91.5q0-104 102-154 70-34 149-34 70 0 213 44 181 58 181 129 0 33-66.5 173.5t-66.5 149.5q0 23 11 57 14 43 35 50 64-20 123-156 56-127 56-222zM1936 216q0 22-35 63-17 18-154 91-147 78-186 77h-64l-11-96q21-210 117-210 149 0 320 55 10 7 13 20z" glyph-name="uniFB76" horiz-adv-x="2048" unicode="&#xfb76;"/><glyph arabic-form="final" d="M1307 1335q0-42-142-131-79-43-157-87-231-136-351-202-15 15-15 41 0 59 123 135 68 35 135 71 165 105 383 213 24-24 24-40zM1830 234q0-86-26-135-10-23-63-42l-78-26q-99-37-238-37-11 0-89.5 5t-89.5 5q-43 0-62-25.5t-82-25.5q-41 0-181.5 46t-135.5 46q-10 0-44-35-35-38-52-44-68-23-154-23-152 0-208 115-21 45-31 125-14 120-23 306-12 279-14 308-12 92-31 266 0 6-13 34.5t-13 42.5q0 36 76 113 46-35 61-120 6-70 12-141 16-243 58-768 3-28 49-73t72-45q125 0 156 13 35 14 136 144 93 120 137 120 19 0 95-73 88-83 97-90 98-63 290-63 41 0 142 21 118 24 144 47 3 36-55 122t-58 92q0 44 56 118 160-88 160-323zM1737-267q0-15-37.5-61.5t-54.5-46.5q-44 0-142 74-2 6-2 12 0 35 37.5 77t65.5 42q35 0 84-37t49-60zM2014-354q0-62-34-81-130-73-525-236-2 2-21 15-14 11-14 26t19.5 48.5 34.5 38.5q171 69 515 220 9-5 17-10.5t8-20.5zM970 172q-14 23-59 67l-13-58q45-28 72-9z" glyph-name="uniFB77" horiz-adv-x="1830" unicode="&#xfb77;"/><glyph arabic-form="initial" d="M3972 1473q0-62-54-93-407-240-454-239h-54v54q-1 30 217 148 214 118 331 155 14-1 14-25zM3921 936q0-28-50-58-41-24-53-24-11 0-46.5 15.5t-50.5 15.5q-13 0-51-36t-51-36q-15 0-53 24-52 32-65 39 4 59 34 96 29 36 68 36 43 0 97-41 9 5 54 48 34 34 49 34 26 0 72-44t46-69zM3378 1318q-38-61-150-119.5t-193-58.5q-53 0-77 13 11 38 88 71 100 42 127 65-12 15-62 15-41 0-56.5-9.5t-58.5-60.5h-48v43q0 28 68 87 58 50 78 59 6 2 16.5 3t32.5 1q83 0 235-43v-66zM2712 1407q0-43-26-61-168-112-540-317h-36q0 3-6 9t-6 20q0 57 150 145l160 82q89 56 269 152 1-1 22-9 13-6 13-21zM1945 1356q0-24-17-48t-35-24q-12 0-56 36t-56 36q-14 0-41-29-21-23-43-46-211-190-367-190-10 0-20 1 37 45 161 128 131 88 217 182-7 12-56 68-35 41-35 59 0 64 65 139.5t129 75.5q45 0 67-43 21-40 21-95 0-50-20-122 6-18 47-69 39-46 39-59zM4033 260q0-20-16-72-20-60-40-90-32-47-164-79-105-25-184-25-41 0-145.5 56t-110.5 56q-13 0-31-12-21-14-29-15l-182-58q-95-27-214-27-11 0-102 15.5t-103 15.5q-18 0-48.5-26t-68.5-26q-100 0-210.5 51t-97.5 51q-10 0-41-31-37-37-59-47-68-33-186-33-29 0-95 43-45 31-91 120-69-29-190-95-15-12-25-56-12-58-18-71-30-63-93-149-72-100-120-127-129-75-187-75h-77q-41 0-221 43-19 5-55 50 23 9 143 9 310 0 522 324-6 24-46 24-14 0-26.5-5t-24.5-5q-65 0-126 40-74 47-74 118 0 57 61 167 68 125 134 125 48 0 116-113 37-66 75-133 104 16 137 30 71 32 71 109l-92 747q0 65 54 137 26 0 34-12 44-228 78-544 2-83 21-266 11-26 24-83 5-179 163-179 100 0 172 69 7 7 99 128 52 69 107 69 35 0 87-54 68-72 111-98 143-83 309-83 228 0 287 66-63 79-184 68v44q0 45 95 109 79 53 103 57t88 4q267 0 267-164 0-39-18-60-51-63-54-68 38-56 174-56 85 0 99 2 60 9 106 54-12 40-64 128-49 81-49 92 0 13 33 112 3 0 8 5.5t20 5.5q53 0 114-150 50-125 50-157zM900 1565q0-49-86-106-65-38-131-76-174-112-187-121-123-76-206-111-15 14-15 35 0 40 30 63 38 24 75 47 310 197 473 294h35q12-1 12-25zM562 841q3-34-29-77t-68-43q-57 0-116 52-6 7 25 67 33 65 60 65 42 0 128-64zM941 168q0-102-24-161-33-77-101-122-55-37-143-77-86-39-105-39h-52q-155 0-259 67-125 80-125 234 0 66 85 238 25 49 77 63 0-2 6-11t6-23q0-13-25.5-100t-25.5-100q0-194 256-194 154 0 316 122 22 16 22 72 0 58-49 187-9 28-56 128-39 80-39 94 0 13 18 53 23 49 26 59 20 0 43-14 56-68 102.5-217t46.5-259zM1790 1531v57q-20 22-38 22 0-6-18-11-20-6-24-11 0-18 5-36t5-21h70zM2487 193q-16 28-43 76h-37l-12-57q29-16 77-44 10 9 15 25zM1411 179v36q-42 45-67 45l-23-24v-34q11-7 32-23h58z" glyph-name="uniFB78" horiz-adv-x="4029" unicode="&#xfb78;"/><glyph arabic-form="medial" d="M2376 1542q0-34-340-212-94-60-278-171h-44q-14 13-14 30 0 58 164 154 99 52 197 105 168 102 278 160h37v-66zM2079 908q0-28-34.5-62.5t-63.5-34.5q-34 0-85.5 32.5t-51.5 59.5q0 33 35 69 34 33 57 33 35 0 89-35t54-62zM1126 1654q0-25-197-143-192-117-208-116h-44v34q-1 41 164 144 114 69 228 137h57v-56zM922 1369q0-55-33-74-364-208-383-207h-54v54q-1 32 79 78 43 22 86 43 88 45 258 141h34q13-13 13-35zM2806 294q0-129-226-129-10 0-57 5.5t-60 5.5q-10 0-132-38-117-42-233-85-178-61-254-61t-124 27q-53 33-106 65-57-76-93-97-44-26-133-26-191 0-255 151-48 165-94 330-40-35-115-131-11-48-37-152-24-86-72-155-98-138-167-175-60-32-197-32-174 0-307 67 37 36 66 36 12 0 46-5t47-5q156 0 314 111 174 122 203 292-53 40-55 42-17 20-17 61 0 65 24 77 14 7 74 10 54 4 78 22 37 29 69 93 28 55 55 110h36q43-85 69-208 17-91 35.5-182.5t57.5-131.5q50-51 152-51 89 0 130 31 33 25 93 122h36q15-43 17-49 13-27 34-41 66-42 177-42 110 0 276 88-35 65-87 65-13 0-268-51-14 14-14 36 0 69 106 142 97 68 160 68 13 0 152-59 162-68 203-82 130-45 379-34 14-14 14-35zM1792-285q0-32-41-70-35-32-46-32-27 0-73 43-45 41-45 59 0 30 34.5 71.5t63.5 41.5q22 0 64.5-43.5t42.5-69.5zM2089-381q0-60-44-85-77-42-514-249-15 13-25 13v43q0 34 33 52 123 72 297 160 179 91 198 90h42q13 0 13-24zM431 253q0-45-55-118-42 17-45 56-15 169-58 511-68 420-68 421 0 17 23 74 25 61 42 74 10 0 26.5-11.5t17.5-23.5q34-251 67-504 50-375 50-479zM1239-376q0-29-43-68-39-35-54-35-13 0-51.5 25.5t-51.5 25.5q-12 0-55.5-41t-56.5-41q-9 0-38 21-40 28-76 45-4 5-9 10.5t-5 21.5q0 28 34 73t58 45q12 0 56-26t57-26q11 0 50 41t53 41q22 0 77-44t55-68z" glyph-name="uniFB79" horiz-adv-x="2802" unicode="&#xfb79;"/><glyph arabic-form="final" d="M2754 1439q0-50-54-78-356-189-403-187h-45v54q0 38 104 89 62 26 124 53 77 40 226 109h36q0-4 6-14.5t6-25.5zM1903 1716q0-47-212-162l-252-124h-35q-12 13-12 30 0 58 201 162 127 62 253 124h46q0-4 5.5-10t5.5-20zM2527 1029q-7-107-164-202-139-84-234-84-12 0-90 20.5t-89 20.5-40-33q-33-38-53-49-15 15-15 31 0 39 44 110 44 75 74 75 13 0 44-17 38-19 49-22 8-2 86-2 107 0 173 31 53 25 168 121h47zM2651 242q0-130-35-182-41-61-256-102-174-34-339-34-103 0-200 27-127 36-150 99-24 68-37 196-17 158-31 369-7 101-55 327-11 49 15 116 14 38 14 27 0 6-11 6 2 0-89-30-10 19 4 85-59 61-59 79 0 49 85 118 80 66 120 66 34 0 68.5-27.5t34.5-54.5q0-26-51-77 15-15 35-15 33 0 114 20l14-12v-49q-77-23-225-78 23-33 59-107 18-60 29-188-5-47-3-144 8-103 34-307 9-74 47-203 20-38 120-61 72-18 113-18 118 0 291 27 202 31 242 71-2 41-57.5 115.5t-55.5 78.5q0 30 43 116h46q92-87 115-151 11-30 11-103zM2283 442q0-18-24-73-26-60-44-76-10 67-38 187-9 24-51 93-38 61-38 73 0 31 45 77 69-24 112-118 38-81 38-163zM1269 1378q0-25-35-62-13 5-48 30-31 22-45 22-1 0-143-107.5t-176-107.5h-31l-24 25q26 48 129 117 109 75 148 129-43 46-50 64-2 5-2 38 0 67 40 126 48 75 128 75 12 0 24-2 19-17 40-55 1-10 1-22 0-24-8-71.5t-8-70.5q0-11 1-20 1-11 30-39.5t29-68.5zM2866-306q0-37-43-74-39-33-64-33-12 0-53.5 20.5t-54.5 20.5-51.5-31-50.5-31q-36 0-134 86 68 119 108 119 10 0 50.5-25.5t57.5-25.5q12 0 50.5 36t51.5 36q21 0 77-40t56-58zM1290 968q0-50-29-105-33-63-78-76-22-6-108-39-68-25-83-25-22 0-46.5 23.5t-24.5 42.5q0 29 25 85 28 62 53 64 23-13 20-40-2-30 11-43 38 1 52 48 20 66 37 86l25-5q11-19 29-67 23 12 39 52 20 48 30 61 48-22 48-62zM798 1506q0-47-238-192-210-126-280-151-14 14-14 41 0 62 104 123 72 36 144 73 77 45 226 142h45q13-14 13-36zM1413 190q0-65-45-112h-35q-47 55-58 62-14 9-52 9-91 0-254-95-55-33-66-94-6-30-6-73 0-33 5-107t5-110q0-62-10-100-25-36-71-103-2 0-10-7t-23-7q-62 0-95 180-23 125-23 245 0 8 31 162-9 9-24 3-101-37-143-43-20-4-115-4-265 0-299 106-36 111-44 353-11 330-13 354-6 53-28 198-20 128-20 141 0 30 43 117h36q37-37 40-66 16-123 41-450 2-129 4-257 6-148 43-254 6-18 39-41t56-25q132-12 190-12 62 0 150 34 103 40 144 97 18 33 37 68 29 47 63 47 45 0 45-57 0-14-50-108-65-119-82-159l5-45q177 287 476 287 52 0 86-53 27-42 27-81zM1515-403q0-31-43-69-38-34-50-34-13 0-51 20.5t-51 20.5-56.5-35.5-55.5-35.5q-59 0-113 102 0 34 40 71 34 32 52 32 13 0 56-26t57-26q9 0 49 36t58 36q24 0 66-35t42-57zM1668 1248q-11 6-54 47h-47q0-10-11-27 67-33 71-33 15 0 26.5 6.5t14.5 6.5zM1135 1543v36l-27 24q0-3-11.5-6.5t-11.5-18.5 5.5-23 5.5-12h39z" glyph-name="uniFB7B" horiz-adv-x="2963" unicode="&#xfb7b;"/><glyph arabic-form="initial" d="M3203 1514q0-67-106-143-96-67-150-67-10 0-37.5 10.5t-43.5 10.5q-14 0-55-17-49-19-66-23-4 21 31 70t71 68q31 6 82 26 38 44 76 86 58 67 106 67 29 0 62-34 30-31 30-54zM2649 1969q-2-34-25-81-170-105-554-277-13 2-13 26 0 66 136 130 267 125 410 202h46zM2568 1565q0-49-56-113-50-57-81-63-20 0-60-6-20-7-46-31-18-17-69-17-87 0-87 62 0 40 75 162h37q0-4-4.5-21.5t-5.5-32.5v-39q3 0 9.5-4t21.5-4q16 0 28 17 19 62 66 125l27 11 5-37q3-27-3-39l26-26q14 14 44 79 24 50 50 54 23-47 23-77zM3029 234q0-86-66-168-20 20-29 45-9 167-50 563-39 379-39 375 0 22 29 89 25 59 35 74 13 0 34-34 45-287 45-457zM2026 1053q0-27-32.5-62t-54.5-35q-32 0-74 29-44 32-44 58 0 31 87 118 38-21 75-44 43-25 43-64zM2538 256q5-61-4-95-40-145-81-164-52-24-110-24-57 0-123 47.5t-108 116.5q-174-153-342-153h-72q-56 0-97 29-46 32-46 83 0 13 19 44 21 36 24 48 162-41 203-41 45 0 152 38 134 48 134 106 0 12-30.5 155.5t-30.5 156.5q0 102 44 148 19 0 34-24 20-98 61-287 32-143 56-190 51-103 153-103 30 0 37 4 16 9 24 48l-122 880q-2 93 85 194h36q4-38 15-116 2-17 63-59 15-41 15-45 0-24-71-144zM1135 1529q0-44-101-103-53-27-107-53-109-66-331-181-14 14-14 41 0 56 220 178 142 80 285 159h35q13-14 13-41zM2302-237q0-46-238-151-88-44-268-130-15 12-26 12v44q0 15 21 42 19 25 33 31 46 21 251 121 158 78 172 77h55v-46zM931 715q0-33-36-70t-57-37q-33 0-79 44-44 41-44 63 0 26 26 66 29 42 56 42 28 0 79-37 55-41 55-71zM1555 521q0-142-84-216-18-16-58-31-43-17-61-32-1-36-9-121-11-73-17-100-13-66-32-96-51-83-207-139-129-48-218-48h-56q-127 0-228 85-105 87-105 206 0 62 40 155 45 104 100 137 2-13 2-26 0-30-15-87.5t-15-91.5q0-204 303-204 83 0 197 35 166 50 166 139 0 52-34 157-17 50-75 124-14 17-14 57 0 24 17 60 19 42 42 42 12 0 42-35 34-39 49-45 7-2 70-2 72 0 98 16-6 27-30 86-21 54-21 67 0 62 55 118 98-62 98-210zM1657-380q0-21-32-63-34-44-60-44-11 0-55.5 25.5t-57.5 25.5-33-28q-28-38-31-40-13-3-33-3-29 0-78.5 40t-49.5 62q0 23 44 69 41 43 54 43 14 0 57-30.5t55-30.5q38 0 45.5 36t56.5 36q30 0 74-36.5t44-61.5z" glyph-name="uniFB7C" horiz-adv-x="3044" unicode="&#xfb7c;"/><glyph arabic-form="medial" d="M3596 1385q-3-33-25-80-156-106-458-288-10 0-24 13t-14 28q0 51 172 157 147 85 293 170h56zM3690 204q-18-40-65-94-9-5-165-48-124-33-195-98-14 10-24 10-5 11 0 33 8 29 8 38 0 11-98 97-5 10-5 31 0 60 114.5 171t172.5 111q36 0 103-63 0-46-21-89-25-53-66-53-12 0-38 20.5t-39 20.5q-24 0-51-27 12-51 45-62 11-4 73-4 11 0 84 12 88 14 143 19zM2993 245q12-142-78-200l-147 1102q14 35 27 71 17 41 63 55zM2604 1412q-6-27-26-66-93-71-261-175-222-136-280-173h-34q-13 13-13 40 0 69 108 131 85 43 171 86 160 93 311 183zM1744 1192q0-39-12-62h-53q-15 0-38 22-28 27-34 29-210-248-442-327-6 5-18 12.5t-17 12.5q104 85 208 171 171 141 171 172 0 13-28 38-47 43-51 47-3 13-3 33 0 50 50 124 59 86 129 86 63 0 77-116 0-72 2-144 59-78 59-98zM1755 751q0-28-37-70t-61-42q-13 0-51 24-50 32-66 40v32q-1 18 39.5 63.5t57.5 45.5q27 0 72.5-37t45.5-56zM1325 1381q0-98-195-168-147-52-226-52 9 0-115 31-44-66-96-93-14 2-14 26 0 35 45 114 48 86 84 86 12 0 76-20.5t77-20.5q162 0 326 123 38 0 38-26zM649 1427q0-69-61-141-63-74-129-74-97 0-97 103 0 55 56 140 62 95 123 95 53 0 83-43 25-36 25-80zM2594 260q0-52-35-112-36-62-73-62-43 0-152.5 35.5t-102.5 35.5q-12 0-58-42-51-47-73-57-79-33-172-33-47 0-102 23-68 31-89 80h-37q-10-54-119-93-87-29-173-59-5-36-27-81-37-35-96-113-109-218-309-218h-107q-3 0-185 33-29 5-66 43 17 37 56 37-2 0 73-18 11-3 39 2 31 5 42 5 121 0 265 90 146 90 211 211-83 17-165 33-112 31-112 137 0 66 62 172 67 115 128 115 56 0 124-117 41-75 83-150 50 8 102 16 63 12 96.5 36.5t58.5 84.5q33 80 46 98 5 0 23.5-5.5t22.5-5.5l-4-74q0-46 17-68t87-37q60-14 107-14 128 0 210 93 56 87 112 173 61 92 138 92 18 0 46-16t32-28q76-228 76-242zM638 234q0-131-79-178l-125 976q-2 8-2 17 0 46 55 142 31 0 45-24 5-48 48-399 10-36 24-103 34-314 34-431zM1601 1393q-11 10-13 23h-35q-11-9-24-12v-35q33-33 59-33zM2440 306q-33 67-61 67-21 0-51-34v-35q34-12 88-34 5 5 12 17.5t12 18.5zM556 1391q0 15-5.5 23t-5.5 12h-57q-33-32-33-46v-33q4 0 17.5-6t27.5-6q19 0 37.5 18.5t18.5 37.5zM1242 170q-30 74-67 90-36-37-12-90h79z" glyph-name="uniFB7D" horiz-adv-x="3697" unicode="&#xfb7d;"/><glyph arabic-form="isolated" d="M3812 1262q0-52-183-169-4-3-251-148h-47v54q0 39 205 158 174 100 261 135 15-15 15-30zM3914 162q-22-60-79-85-6-2-98-28-84-22-173-71-39-33-119-77l30 115q-6 4-79 50-55 33-55 49 0 40 96 144 82 88 111 107 74 45 110 45 37 0 67-42 26-36 26-55 0-20-21-55-24-41-56-62-13 4-50 29-33 21-48 21-24 0-51-27v-26q95-38 144-38 11 0 88.5 15t90.5 15q19 0 66-24zM3198 171q0-24-22-88-26-72-45-81-31 18-33 56-7 129-23 368-12 127-53 401-40 255-40 260 0 46 66 133 38-17 43-66 107-932 107-983zM1907 1200q0-15-22-61h-42q-13 0-42 20.5t-42 20.5q-11 0-92-84-92-97-130-124-168-122-255-122-16 0-29 4 0 8 2 26 95 69 190 137 114 84 207 189-18 42-92 87-2 9-2 21 0 66 50 146 57 88 120 88t81-54q11-33 6-106-5-67 2-78 6-8 54-56 36-37 36-54zM2921-135q0-45-102-105-58-28-115-58-90-50-270-140-24 25-24 41 0 64 86 112 65 32 131 63 110 73 259 142 35-18 35-55zM1795 682q0-28-43-69-39-38-54-38-22 0-65 37.5t-43 60.5 30 63q33 44 62 44 43 0 80-37 33-33 33-61zM792 1456q0-68-54-138-59-77-136-77-29 0-63 32.5t-34 59.5q0 52 57 153 64 113 122 113 51 0 84-64 24-47 24-79zM2799 192q0-63-31-114-33-56-77-56-68 0-176 34-10 3-47 32-33 27-49 27-13 0-27-19-17-24-26-30-126-74-238-74-244 0-319 123-47-41-150-110-56-11-164-36-18-12-36-36-12-37-58-123-78-146-233-235-59-33-94-33-195 0-382 31l-23 24q0 18 24 32 70 1 140 1 82 2 136 17 82 22 195 99 122 84 181 170-10 48-62 52l-88 6q-56 19-90 76-27 46-27 85 0 72 64 172 73 115 157 115 15 0 46.5-29t45.5-56q27-66 84-193 127 0 210 34 52 21 74 70 9 29 19 58 33 62 76 54 15-23 13-63-4-46 1-62 80-69 125-79h104q118 0 214 32 59 21 175 154 105 121 169 121 37 0 57-17 87-195 87-254zM751 212q0-83-44-158h-37l-145 977q15 44 30 86 22 58 47 83 13-7 32-24 0-10 31-257zM1733 1402l-47 13q-23-24-23-38 32-33 59-33zM2644 218q-7 35-22 80h-35q-34-33-34-47 34-34 47-33h44zM699 1409q-6 23-23 57h-35q-44-45-44-67 0-24 13-24h45q20 9 44 34zM1314 149q-8 53-77 98-36-32-36-55 0-19 24-38t53-19q22 0 36 14z" glyph-name="uniFB7E" horiz-adv-x="3913" unicode="&#xfb7e;"/><glyph arabic-form="final" d="M2151 1534q0-94-105-181-95-79-176-79-12 0-33.5 5t-33.5 5q-27 0-50-21-25-22-23-49h-49v33q-1 55 103 144 21 18 84 18 39 61 79 120 54 82 117 82 87 0 87-77zM2438 224q0-36-16-105-18-81-38-91-25-12-91-28t-87-16h-38q-228 0-221 276l-113 834q0 10 54 118 23 0 44-34 28-132 72-492 12-96 17-195 9-196 17-222 34-112 170-112 128 0 128 57 0 13-46 82t-46 82q0 6 33 107h32q57 0 99-125 30-94 30-136zM1454 1561q-568-205-587-205-11 0-57 42v38q37 34 199 80 47 13 231 70 145 46 158 46 23 0 56-33v-38zM1425 1263q0-91-47-141t-162-78q-9-2-44-26-29-21-59-21-77 0-77 77 0 21 29 88 33 73 57 91 17-14 17-55-1-31-2-61 8-7 21-7 17 0 27 18 14 47 58 146 31-6 38-23 3-7 4-43 1-23 14-37 39 3 47 46 12 70 30 97h36q13-25 13-71zM2397-267q0-27-43-64-40-33-54-33-22 0-107 52 0 45 17 93 23 60 59 60 22 0 75-42.5t53-65.5zM2673-344q0-55-26-71-96-56-262-134-248-117-279-132h-33q-13 13-13 35 0 59 43 83 107 59 275 131 140 59 281 119 14-14 14-31zM1691 188q0-29-25-110-25-85-40-91-33-14-74-14-157 0-256 102-25-33-79-88-72-54-156-54-95 0-145 63-21 27-32 74-12 53-17 62-1 3 0 5-1 1-2 1-6-1-14-1-12 0-46-31-37-33-50-38-63-23-154-23-46 0-159 22 0 3-5.5 14t-5.5 25q0 69 93 149 54 46 180 123 103 64 113 84 7 13 28.5 76t40.5 100q24-11 43-64 10-132 19-264 25-204 144-204 42 0 97 28 72 36 72 90 0 13-36 210t-36 210q0 61 33 127h36q15-43 50-198 11-71 41-214 8-49 36-132 12-20 51.5-50t56.5-30h78q7 7 7 26 0 13-66.5 222.5t-66.5 222.5q0 36 23 120 12 17 44 44 19-22 33-85 7-42 15-83 12-37 31-102 1-4 57-150 43-114 43-174zM994-237q1-34-121-92-69-29-137-59-169-78-290-119-15 14-15 36 0 59 24 72 116 61 297 141 178 78 198 77h44v-56zM2037 1488q-55-28-63-59 54 20 60 32 4 9 3 27zM841 251v99l-15 12q-99-82-186-124-3-10-3-27 16 0 47.5-6.5t43.5-6.5q28 0 113 53z" glyph-name="uniFB7F" horiz-adv-x="2456" unicode="&#xfb7f;"/><glyph arabic-form="initial" d="M5072 1391q0-49-100-109-69-37-138-73-181-102-301-151-24 25-24 36 0 59 213 170 290 153 302 163h34q14-14 14-36zM4406 1422q0-65-83-117-62-32-124-65-174-125-309-191h-33q-13 13-13 35 0 44 14 56 144 107 501 307h35q12-1 12-25zM5072 184q0-115-25-167-103-213-197-290-96-81-259-81-213 0-267 55 26 47 52 47 12 0 58.5-5t58.5-5q263 0 463 345 6 16 6 45-58-42-110-42-60 0-106 54-43 50-43 105 0 52 36 155 47 137 113 137 79 0 153-126 61-100 63-146 4-71 4-81zM3464 1156q0 1-33-66-15 4-58 18-32 12-47 12 1 0-139-124-154-135-281-183l-25 25q48 74 157 169 162 142 181 160-12 30-52 59-30 22-30 73 0 53 47 136 54 94 112 94 64 0 80-108l6-160q0-8 1-9l49-49q32-32 32-47zM4386 219q0-111-67-235-72-133-191-222-73-55-203-55-175 0-286 53 90 12 269 52 94 30 238 169 148 142 148 212 0 39-51 93-46 44-91 88-12 12-12 45 0 17 17.5 63t28.5 55q200-106 200-318zM3700 306q0-64-64-206-15-1-54.5-7.5t-50.5-6.5q-57 0-122 25.5t-57 25.5q-16 0-29-18-19-36-113-64-69-21-94-21-23 0-76 26t-62 26l-84-36q-92-38-151-50-32-6-61-85-50-137-189-259-143-122-258-122-114 0-336 73 3 49 40 49 13 0 48.5-10t48.5-10q323 0 548 314v27q-18 7-108 7-179 0-179 148 0 77 51 178 60 124 139 124 45 0 120-119l86-148q146 0 221 44 29 17 54 83.5t60 88.5q42-14 42-55 0-13-5-40.5t-5-40.5q0-32 23-49 176-15 214 59 24 62 89 186h46q11-19 0-119-7-64 80-64h67q6 19 1 132-3 81 44 124 76-108 76-210zM1867 143q0-241-194-241-106 0-185 89-37 42-99 156-16-5-50-41-36-37-58-48-49-24-125-24-13 0-56.5 10.5t-56.5 10.5q-46 0-96 32-3 9-3 19 0 115 219 262 8 5 85 41 55 26 73 53 12 17 14 143 0 23 3 40 0 9 10 36.5t10 39.5q7 5 33 20 26-12 32-55 15-117 31-232 25-160 67-258 21-50 75.5-85.5t107.5-35.5q39 0 51 7 23 12 20 60l-133 889q-2 7-2 17 0 30 22 80t44 73h36q12-42 25-125 2-2 43-32 27-19 27-57 0-13-25.5-82t-25.5-82 10-70q13-68 16-88 55-428 55-522zM2051-123q0-51-122-121-73-36-147-73-63-31-205-108h-45q-13 1-13 25 0 63 54 92 375 210 423 209h43q12 0 12-24zM1406-144q0-43-172-132-114-56-230-112-47-28-146-68-25 24-25 35 0 54 90 106 69 33 139 66 104 55 310 151 34-35 34-46zM852 125q0-23-32-46-229-54-315-54h-87q-97 0-97 61t46 101q196 175 236 175 11 0 66-54 0-57-6-90.5t-6-28.5q-25 10-65 71-59-43-169-127 50-17 82-17-1 0 130 4.5t217 4.5zM4908 295q-11 22-56 67-47-46-47-61 0-41 52-41 20 0 51 35zM3289 1306q0 30-6 54.5l-6 24.5q-48-23-48-47 33-32 60-32zM2501 169v36q-26 55-67 55-35-35-35-56 0-24 13-25-1 0 25-5t64-5zM1365 240v79q-25 23-48 23-20-21-95-60-58-30-71-71 75-23 87-23 15 0 127 52z" glyph-name="uniFB80" horiz-adv-x="5070" unicode="&#xfb80;"/><glyph arabic-form="medial" d="M5659 1390q0-51-218-156-99-55-300-161-10 8-21 15-14 11-14 26 0 53 161 143 85 42 169 84 64 38 199 100 24-24 24-51zM5065 1554q0-94-113-171-96-64-163-64-11 0-26 5t-25 5q-40 0-95-81h-48q13 89 55 131 30 30 121 85 14 8 81 108 57 84 106 84 107 0 107-102zM4574 1571q0-19-20-56-24-43-55-60-190-106-198-105h-52q-13 1-13 25 0 30 123 104-19 45-56 45-29 0-111-81h-38v54q0 19 60 73 48 44 76 61 7 5 49 5 36 0 191-35 17-9 44-30zM4912 213q0-72-6-95-9-41-49-89-10 0-34 33-22 167-88 601-59 386-59 395 0 23 54 158 30 0 45-23 29-163 58-401 12-103 48-353 31-215 31-226zM5721 177q0-113-81-248t-198-214q-29-20-104-41-80-24-134-24-41 0-153 23-121 24-149 42 30 48 61 48 10 0 49-5.5t53-5.5q135 0 218 44 77 39 194 149 141 130 141 199l-17 18q-19-7-52-39-24-23-74-23-70 0-121 76-43 64-43 119 0 74 50 156 53 90 114 90 93 0 190-167 26-46 38-145 0-4 9-20.5t9-31.5zM2700 1538q0-57-123-134-73-39-145-79-166-96-278-169h-46q0 3-5.5 9t-5.5 20q0 69 120 142 74 38 148 75 97 54 277 162h46q12-2 12-26zM4390 1017q0-61-35-96.5t-37-88.5l72-552q2-71-29-136-11-28-21-55-18-39-45-57-93-64-320-64-148 0-245 47-60 29-194 138-160 131-307 224-4-3-10-17 24-193-53-289-13-16-107-46-86-27-103-27-12 0-89-5t-90-5q-77 0-163 56t-82 56q-8 0-68-43-64-46-105-56-135-33-309-33-148 0-207 33-30 34-90 99-123-98-349-154-199-50-398-50-160 0-304 67-193 89-193 255 0 56 25 126 32 85 82 125 32-19 32-54 0-20-13-58t-13-52q0-134 187-201 124-45 238-45 389 0 602 125 27 16 66 83 46 77 68 99 38-8 40-71-1-48-2-94 85-49 136-57 15-3 113-3 53 0 215 13 95 7 152 40 15 9 64 64 43 47 61 47 14 0 52-37 60-61 64-64 37-32 186-32 276 0 276 71 0 17-43 102-42 81-72 126-38 57-119 138t-107 123q-48 71-48 157 0 9 38 99 6 24 29 63 84 77 252 156 134 57 269 114 141 65 283 131 210 95 324 123 13-14 13-37 0-88-53-124-104-41-287-120-7-2-354-153-219-94-352-174-39-23-59-63 59-77 110-116 21-15 479-384 261-211 380-250 38-13 177-13 287 0 287 108 0 19-96 675-2 18-20 69-17 47-17 60 0 22 55 150 20 27 54 44 29-23 25-73-4-55 1-62 16-25 78-54 23-14 23-41zM2567 582q0-40-43-80-35-33-49-33-24 0-77 35-56 37-56 62 0 11 20.5 44.5t20.5 47.5q0 26-23 40-34 20-68 38 0 37 26 85 31 57 70 57 22 0 75-37t53-55q0-12-21-51t-21-56q30-24 58-49 35-31 35-48zM3622-155q0-40-37-68-58-44-150-82-77-30-155-58-17-8-92-47-62-32-74-32h-53q-12 2-12 26 0 66 235 170 145 61 290 121h35q13-13 13-30zM2127 530q0-131-63-174-8 78-43 218-13 28-74 114-55 76-55 88 0 22 19 47t37 25q84 0 175-240 4-34 4-78zM1257-299q0-41-38-79-33-34-55-34-37 0-78 32-45 31-45 61 0 27 31.5 69.5t55.5 42.5q27 0 76-31 53-34 53-61zM1523-447q0-54-259-177-164-73-329-145h-34q-13 1-13 25 0 68 121 124 74 29 148 57 97 45 298 151h44q24-23 24-35zM5515 286v56q-33 34-57 34-36-36-34-58 44-44 56-44 15 0 23 6t12 6z" glyph-name="uniFB81" horiz-adv-x="5723" unicode="&#xfb81;"/><glyph arabic-form="isolated" d="M3263 1561q0-88-84-166-81-74-167-74-12 0-36.5 5t-35.5 5q-12 0-53-28-54-36-70-44-15 15-15 31 0 49 67 102 44 31 89 63 39 57 125 167 41 47 98 47 82 0 82-108zM2772 2007q0-50-250-181-169-88-338-177h-44q-13 13-13 35 0 54 33 72 229 125 564 290h36q0-3 6-14t6-25zM2649 1577q0-61-4-69-15-33-60-82-189-95-203-95-40 0-63 33-18 25-18 49 0 37 26 82 28 50 62 61 23-23 23-83 23-2 43 54 27 71 43 90 27-1 35-19l20-42q19 10 22 44t48 59l17-13q9-19 9-69zM3150 164q0-22-53-102h-37l-145 1032q-1 6-1 14 0 76 56 140 40-15 51-92 5-63 9-126 17-119 51-359zM2178 1090q-18-35-36-71-26-47-62-47-32 0-74.5 36t-42.5 62q0 16 29 65 34 53 58 53 31 0 128-98zM2679 256q-29-150-49-192-46-95-150-95-63 0-136 63-70 61-121 152-29-34-89-88-39-27-114-62-168-44-227-44-58 0-104 29-54 33-54 88 0 25 55 108 85-51 191-51 62 0 173 48 134 58 134 126 0 13-25.5 169t-25.5 169q0 92 35 133 46-25 53-66 12-98 47-286 32-130 92-224 18-29 67-60 45-30 64-30 45 0 82 36-41 272-117 808-1 11-19 57-18 42-18 56 0 99 75 199h36q11-46 34-134 27-15 53-29 28-18 28-56 0-13-27-72-30-66-35-92zM2260-154q0-69-198-146-124-54-372-150-10 6-21 12-13 8-13 24 0 56 33 72 51 25 524 220h33q14-14 14-32zM1666 809q0-67-45-123-18 9-65 49-40 33-54 33-76 0-203-110-135-115-135-203 0-20 26.5-45t50.5-29q66-6 131-12 77-13 115-64 15-21 15-75 0-198-301-302-201-71-369-71-179 0-289 95-116 97-116 263 0 161 136 337 38 0 38-30 0-12-31-109.5t-31-110.5q0-132 106-213 92-69 212-69 111 0 257 41 165 44 245 110 2 34-80 47-120 19-154 34-84 38-84 132 0 12 16 54 18 49 21 70 25 142 205 296 171 148 280 148 35 0 72-64 31-55 31-79zM3160 1497v37h-37q-39-24-64-79h36q40 18 65 42z" glyph-name="uniFB82" horiz-adv-x="3117" unicode="&#xfb82;"/><glyph arabic-form="final" d="M2288 1485q0-46-98-106-59-33-119-65-105-74-301-171-13 14-13 46 0 45 14 55 126 88 460 287h44q13-13 13-46zM1633 1720q0-34-221-159-185-104-297-152l-16 10t-8 20q0 55 36 77 118 75 469 260h37v-56zM2124 897q0-27-32-69-34-44-59-44-31 0-77 36.5t-46 60.5q0 23 39 65.5t58 42.5q30 0 73.5-33t43.5-59zM1593 1352q0-93-53-143-43-40-146-70-12-4-45-27-31-21-43-21-93 0-93 103 0 48 33 93 28 39 57 50 14-27-8-86l28-27q39-3 55 50 22 73 44 93 10-1 25-4 6-9 29-67 27 11 46 65 22 59 44 78l18-12q9-16 9-75zM1500 774q0-24-42-68.5t-55-44.5q-28 0-64 34-33 32-33 48 0 30 24 67 28 46 63 46 26 0 65-25 42-28 42-57zM864 1607q1-32-227-166-155-88-310-175-25 24-25 46 0 52 104 116 67 38 134 74 143 100 300 173 15-12 24-12v-56zM2237 257q0-95-35-166-21-43-101-72-123-43-242-43-12 0-43.5 5t-44.5 5q-30 0-59-4-4-1-15-14-89-192-181-278-101-93-241-93-68 0-242 33-33 7-85 41v38q63 19 92 14 18-5 36-11 18-2 71-2 124 0 294 104 40 24 99 100 63 78 63 112 0 13-25.5 56.5t-25.5 56.5q0 32 14 59 18 33 47 33 9 0 67-30 64-33 93-39 11-2 101-2 261 0 261 66 0 13-61.5 110t-61.5 110q0 27 23.5 70t38.5 43q62 0 118-146 45-116 45-156zM917 237q0-106-15-206-8-59-84-139-78-84-141-94-15-10-51-24-93-23-185-23-129 0-233 70-121 82-121 216 0 74 44 173 46 102 94 123 36 0 36-30 0-13-25.5-92.5t-25.5-91.5q0-109 108-159 74-36 169-36 222 0 324 131 3 8 3 38l-143 972q-2 54 85 190 43-9 43-78v-7q0-93 75-110 5-58-13-109-1-3-20-34-17-26-17-40 0-87 46.5-371.5t46.5-268.5z" glyph-name="uniFB83" horiz-adv-x="2253" unicode="&#xfb83;"/><glyph arabic-form="isolated" d="M1918 1425q1-5 1-9 0-65-197-166-89-53-277-160-11-1-24.5 11.5t-13.5 28.5q0 59 215 182l262 136q5-5 17.5-11.5t16.5-11.5zM1345 1554q1-57-309-233-87-54-260-150-13 2-13 26 0 8 24 55 26 51 39 58 254 146 472 290h47v-46zM2185 407q1-75-230-179-203-91-256-91-12 0-117-5t-118-5q-107 0-248 102-18 0-27-26 4-40-18-97 19-38 88-48 98-15 113-22 56-25 56-98 0-137-186-244-139-80-289-106-72-13-201-13-170 0-284 85-32 23-73.5 103.5t-41.5 123.5q0 68 68 206 73 149 125 145v-56q1-12-20-42-23-34-27-51-23-89-23-116 0-131 141-194 95-41 212-41 210 0 426 122-1 7 9 17-21 19-122 34-107 16-143 44 0 40 50.5 107t50.5 81v510q0 12-25.5 220t-25.5 221q0 59 54 148h36q30-156 70-465 13-199 36-273 57-187 219-214h28q5 16-3 47-10 36-10 41 0 86 97 223 106 150 200 150 59 0 155-61.5t101-107.5q-12-14-12-24h-43q-13-1-67.5 29.5t-67.5 30.5q-44 0-130-41-100-49-100-97 0-58 62-110 60-49 118-49 55 0 176 48 114 45 170 85h47v-47zM865 480q0-96-57-179-20 35-22 138-2 66-64 161.5t-62 89.5q0 25 23 71h45q137-129 137-281z" glyph-name="uniFB84" horiz-adv-x="2183" unicode="&#xfb84;"/><glyph arabic-form="final" d="M4430 1315q0-58-232-194-163-93-327-185-2 2-20 15-15 11-15 25 0 59 122 130 68 34 136 67 89 53 278 171h47q0-4 5.5-9.5t5.5-19.5zM3386 1115q0-32-35-66-6 1-56 23-38 18-53 18-14 0-22-4-33-50-196-158-175-115-242-115-12 0-61 25 132 88 409 298-15 30-56 65-26 23-26 62 0 52 56 130 62 86 123 86 83 0 83-181 0-13-4-79 26-25 53-50t27-54zM4379 234q0-137-82-279-92-159-239-224-22-10-106-22-76-12-100-12-12 0-104 18-104 20-146 25v38q7 1 121 1 129 0 270 83 148 88 246 232 58 85 58 94 0 36-80 104-40 32-81 64-13 52-13 42 0 39 22 107h53q17 0 64.5-41t71.5-77q45-69 45-153zM3693 316q0-41-14-93-20-73-59-122-11-15-81-15-12 0-99.5 20.5t-99.5 20.5q-6 0-88.5-51t-147.5-51q-8 0-82.5 25t-91.5 25q-34 0-114-18-102-23-138-55-25-22-73-117-56-111-94-162-93-123-194-166-78-34-222-34-40 0-127.5 24t-107.5 42q16 21 77 23 51 2 102 3 38 10 102 23 89 10 217 117 122 102 178 205 0 9-17 21-77 5-153 10-80 10-123 66-14 18-14 70 0 78 57 182 62 115 127 115 62 0 114-92 35-73 71-145 34-19 66-19 25 0 89 16 81 20 123 47 28 18 52 62 20 40 41 78h37q0 22 0-166 45-27 98-27 23 0 86 19 70 23 80 40 2 3 42 113 29 78 79 114 28-12 28-60 0-21-5-54-8-41-8-44 15-17 68.5-36.5t79.5-19.5q37 0 37 30 0 13-20.5 59t-20.5 59q0 30 44 117 49-12 77-82 22-56 22-117zM1706 220q-7-142-37-207-47-101-162-101-95 0-155 50-63 52-122 185-33-34-110-89-49-24-135-24-10 0-167 32-12 13-12 30 0 81 176 222 94 67 189 134 1 9 3 121 2 90 23 136 27 0 34-11 25-47 50-225 26-184 62-261 58-126 179-126 99 0 99 53 0 13-6 27l-164 953q-5 87 64 184h46q5-41 10-83 9-50 73-91 3-12 3-25 0-34-23-88.5t-23-75.5q0-9 3-18zM1901-113q0-72-249-172-80-42-259-120-10 6-21 12-14 8-14 24 0 48 143 121 78 36 157 70 81 42 229 101 14-14 14-36zM1205-129q0-93-331-218-44-24-133-68h-45q-13 13-13 30 0 67 121 125 79 31 159 61 66 36 194 100h35q13-13 13-30zM693-40l-12-20q-84-38-352-38-38 0-147 44v62q-1 36 86 82 50 25 99 48 33 28 65 56 41 35 56 35 40 0 62-86 0-10-23-56-10 0-33 20t-36 20q-15 0-73-43-76-56-91-65 44-41 141-41 18 0 58.5 2t61.5 2q82 0 138-22zM3232 1276q0 10-6.5 34t-6.5 34q-51-17-68-35 45-46 55-46 24 0 26 13zM2444 183q-34 67-62 67-16 0-40-24 0-11 6-32.5t6-23.5q9 0 27-6.5t32-6.5q16 0 21 8.5t10 17.5zM1205 265q0 14-6 33t-6 22q-49-2-108-41-42-32-85-64l24-27h62q22 0 65 20 54 25 54 57z" glyph-name="uniFB85" horiz-adv-x="4390" unicode="&#xfb85;"/><glyph arabic-form="isolated" d="M7295 1349q0-48-117-116-60-30-120-61-118-72-159-96-107-59-165-74 0 3-6 11.5t-6 23.5q0 46 25 62 71 45 491 281h34q8-5 15.5-10t7.5-21zM6660 1513q0-79-102-156-93-69-153-69-12 0-31 5t-31 5q-39 0-60-17-35-28-68-55-5 5-12.5 18t-12.5 18q19 33 75 90 61 62 102 82 8 3 61 77 69 94 151 94 81 0 81-92zM6087 1505q0-58-146-141-130-75-167-74h-53q-13 2-13 26t81 68q91 49 104 69-22 22-67 22-28 0-111-61h-47v34q-1 18 62 72 58 50 83 63 9 4 49 4 54 0 131-22 94-26 94-60zM6477 243q-21-164-80-204l-156 988q12 54 54 137h37zM7295 167q0-76-34-196-31-45-97-144-128-198-314-201-9-1-33.5-9t-38.5-8q-137 0-300 33v37q106 10 279 35 108 25 242 134 153 123 204 258l-8 36q-17-22-56-58-33-25-69-25-67 0-124 66-50 59-50 108 0 59 36 160 49 137 123 137 103 0 180-156 60-124 60-207zM6005 210q0-19-22-81-24-64-44-96-32-51-263-87-172-27-254-27-226 0-226 143 0 36 11 84-43 13-138 4-127-25-389-66-169-21-489-44-270-20-310-20l-763-30q-614 0-804 143-27-25-90-68-71-39-206-49-27-1-108-9-68-7-82-7-257 0-345 143-6 1-16-3-54-79-327-134-230-46-423-46-163 0-299 66-177 88-177 250 0 113 105 256h35q13-13 13-31 0-10-25.5-64.5t-25.5-67.5q0-80 111-173 38-32 156-55 97-18 159-18 34 0 199 19 197 22 290 45 55 13 82 23 52 19 80 47 21 21 47 71 27 57 46 81h36q10-17 10-41 0-16-5.5-46t-5.5-43q0-15 5-26 52-89 290-89h174q43 0 152 33 55 16 163 150h37q35-55 37-59 28-37 54-50 88-44 295-68 144-17 395-17h412q13 0 169.5 10.5t169.5 10.5 174 10 174 10l1019 123q27 0 62 38-12 44-116 82-89 34-145 34l-1219-133h-684q-81 0-187 23-57 12-106 60-8 71 66 200 78 133 181 214 169 132 287 195 224 117 271 116h63q12-2 12-25 0-73-68-118-26-18-130-58-426-168-550-397 20-19 86-37.5t116-18.5h781l1147 132q97 0 199-51 129-63 129-163 0-46-29-114-28-64-58-100-24-9-77-49 0-17 8-22 79-43 120-43 13 0 69 5t69 5q58 0 177 20 160 28 160 67 0-5-28 179-38 232-71 527-1 15-23 67-21 48-21 72 0 31 28.5 110.5t46.5 93.5h36q19-36 25-136 8-9 89-59 6-46-59-161-2-3-2-68 0-13 41-297t41-297zM2514 1495q0-47-48-75-43-20-88-41-106-64-213-129-123-72-220-114-15 15-15 46 0 46 16 56 162 108 521 297h34q13-13 13-40zM2535 799q0-31-43-69-38-34-55-34-11 0-51 20.5t-51 20.5q-13 0-62-30.5t-61-30.5q-23 0-63 25-44 29-44 57t39 71q38 41 57 41 13 0 54-25.5t54-25.5 54 35.5 54 35.5q30 0 75-40 43-37 43-51zM3619-159q0-42-248-155-232-106-248-106-46 0-46 36 0 53 44 73 448 209 463 209 14 0 22.5-5.5t12.5-5.5v-46zM1910 624q0-34-26-90-27-58-49-62-5 111-31 187-10 28-72 95-57 64-57 75 0 37 54 92 68-25 126-124 55-95 55-173zM1050-307q0-17-43-59.5t-60-42.5q-23 0-69 40-43 38-43 52 0 41 75 113 140-52 140-103zM1274-457q1-26-215-117-199-83-333-122-14 14-14 36 0 57 34 72 117 54 284 121 171 68 190 67h54v-57zM6525 1481q-52-22-69-58h38q31 39 31 58zM7131 279q-46 70-98 87-34-33-34-56 0-18 17-44 20-33 49-33 45 0 66 46z" glyph-name="uniFB86" horiz-adv-x="7303" unicode="&#xfb86;"/><glyph arabic-form="final" d="M3420 1489q0-77-94-155-89-75-161-75-12 0-43 10.5t-44 10.5q-14 0-49-28-52-42-54-44-15 15-15 31 0 50 24 86 20 30 73 52 64 25 79 37 37 52 74 105 56 78 118 78 40 0 66-33t26-75zM2929 1919q0-41-44-63-169-78-513-249h-34q-23 24-23 46 0 53 43 73 511 239 535 239 15 0 23.5-5.5t12.5-5.5v-35zM2826 1577q0-111-73-161-24-16-105-37-18-6-64-29-40-19-54-19-31 0-56.5 23.5t-25.5 52.5q0 18 27 76 32 65 57 62 14-18-2-75 16-16 36-16 25 0 49 64 30 79 53 100 21-19 42-103 25 41 91 133 25-26 25-71zM3277 200q0-134-80-158l-135 966q11 51 22 103 22 66 67 86zM2314 1115q1-34-19-83-25-60-62-60-38 0-80.5 35.5t-42.5 62.5 40 64q36 33 52 33 28 0 112-52zM2816 236q-9-287-174-287-89 0-152 82-40 62-80 123-6 0-15-3-71-79-188.5-125t-239.5-46q-58 0-104 20-60 26-60 77 0 17 18 63 22 54 44 54 12 0 78.5-25.5t79.5-25.5q88 0 203 45 140 54 140 129 0 12-31 164.5t-31 163.5q0 37 23 193 4 0 22.5 6t23.5 6q7-8 20-24 5-81 30-206 53-255 53-257 76-251 192-251 56 0 56 67l-143 880q-3 40 21 103.5t54 95.5h35q16-19 16-69 0-81-1-77 24-14 79-59 1-9 1-20 0-92-62-165zM2499-199q0-53-44-74-391-188-444-187h-52q-13 2-13 26 0 54 36 72 153 63 459 198h44q14-13 14-35zM1085 915q1-86-196-165-162-64-238-64-11 0-78.5 20.5t-80.5 20.5q-36 0-67-47-37-55-61-66-15 14-15 36 0 35 59 124 63 96 105 96l43.5-30.5t115.5-30.5q84 0 197 44 121 46 180 108h36v-46zM1660 742q0-63-33-104-7-1-24-14-8 7-51 53-30 29-46 29-74 0-176-110-100-106-100-172 0-102 141-129 90-6 181-12 31-4 50-45 17-34 17-69 0-198-298-313-209-81-373-81h-41q-125 0-232 85-121 95-121 237 0 82 46 194 50 119 105 138 4-18 4-36 0-36-21.5-102t-21.5-107q0-133 131-194 87-41 202-41 286 0 497 160-12 41-103 41-19 0-69-3-42-3-59-1-57 4-111 74-47 63-47 108 0 11 12.5 52.5t14.5 55.5q15 137 166 293 147 152 247 152 46 0 82-55 31-47 31-84zM3317 1462q-12 3-21 3-23 0-60-48 10-9 26-15 55 28 55 60z" glyph-name="uniFB87" horiz-adv-x="3476" unicode="&#xfb87;"/><glyph arabic-form="isolated" d="M2919 1805q-11-17-32-40-121-68-546-281-15 12-25 12v33q0 41 242 176 195 108 336 169 15-12 25-12v-57zM2889 1346q0-41-73-71-96-41-110-54-11-49-11-44l112-952q0-121-53-193-7-1-25-12-46 328-79 691-21 97-55 297-12 96 18 163-4 4-18 14-2-5-29-7h-44q0 9 4.5 33t4.5 38q0 13-20.5 46t-20.5 46q0 47 74 121t120 74q24 0 58-26t34-51q0-29-51-81 26-12 58-12 18 0 44 3.5t34 3.5q28 0 28-27zM2029 1705q0-45-26-63-112-77-277.5-173.5t-183.5-96.5h-54q-12 2-12 26 0 52 204 168 146 82 292 163h45q12 0 12-24zM2306 947q0-16-32-66-35-52-56-52-28 0-72.5 33.5t-44.5 59.5q0 24 31 70 28 42 46 52l68-38q60-37 60-59zM1855 804q0-41-42-72-35-26-60-26-40 0-81.5 26.5t-41.5 55.5q0 34 33.5 73.5t58.5 39.5q24 0 78.5-42.5t54.5-54.5zM1302 1669q0-48-100-112-59-32-118-65-169-99-351-181-8 5-16.5 9.5t-8.5 20.5q0 31 36 77 168 89 511 281h34q13-13 13-30zM2388 317q0-124-36-182-40-65-193-97-19-12-36-36-18-69-68-163-41-75-129-151-94-80-167-95-67-13-140-13-68 0-156 27-106 32-140 81l13 18q29 0 101-11.5t80-11.5q131 0 303 112 180 116 209 239-28 23-57 47-25 25-25 57 0-4 34 97 105-30 150-30 43 0 95 20 59 24 59 51 0 13-36 92.5t-36 91.5q0 50 35 103 61-17 106-128 34-84 34-118zM1261 215q0-106-2-119-4-23-43-113-28-66-182-140-141-68-213-68-136 0-243 67-126 78-126 209 0 159 116 287 38 0 38-26 0-13-20.5-77t-20.5-76q0-111 89-167 69-43 162-43 81 0 200 45 153 57 153 139 0-38-106 854-2 18-20 69-18 48-18 60 0 56 75 204h47q5-62 11-123 8-57 71-61 6-88-13-130-37-79-37-105zM2684 1369q0 6-37 43 0-5-11.5-14t-11.5-14q45-22 60-15z" glyph-name="uniFB88" horiz-adv-x="2806" unicode="&#xfb88;"/><glyph arabic-form="final" d="M1879-158q0-47-54-74-440-218-454-218h-52q-14 14-14 30 0 58 86 101 55 23 112 45 49 25 351 161 25-24 25-45zM732 655q0-32-34-69-31-33-48-33-45 0-89 32t-44 65q0 23 25 67 28 51 57 51 39 0 90-54 43-46 43-59zM1786 307q0-75-10-103-19-51-81-51-18 0-135.5 41t-115.5 41q-11 0-61-47-55-52-81-63-56-10-160-32-22-54-18-97 14-171-168-285-156-100-331-100-158 0-259 85-105 88-105 232 0 137 125 306h38v-46q1-13-30-89t-31-89q0-121 113-184 90-51 220-51 58 0 165 48 114 50 165 104 13 14 13 69 0 119-101 273-12 16-12 48 0 52 34 102h32q18 0 40-39 30-54 52-74 44-40 114-40 159 0 243 171 14 27 91 104 83 83 111 83 63 0 110-155 33-115 33-162zM1632 349v46q-21 45-46 45-29-14-45-57 35-35 58-34h33z" glyph-name="uniFB89" horiz-adv-x="1794" unicode="&#xfb89;"/><glyph arabic-form="isolated" d="M2288 1571q0-54-234-194-171-103-295-159-13 15-13 46 0 60 77 107 65 31 130 64 38 20 112 62 69 45 198 110 25-24 25-36zM2299 1075q0-26-34.5-69t-58.5-43q-11 0-48.5 20.5t-53.5 20.5q-13 0-51.5-41t-51.5-41q-24 0-77 35-56 37-56 61 0 22 39.5 65t57.5 43q11 0 54.5-20.5t58.5-20.5q13 0 56.5 41t55.5 41q23 0 66-34t43-58zM1714 1407q0-50-154-149-131-83-190-101-14 14-14 36 0 14 144 154-3 5-41 5-30 0-81-41-58-45-79-52-15 15-15 31 0 40 42 90 45 54 115 90 9 5 69 5-7 0 181-15 6-5 23-20v-33zM1059 1331q0-14-5.5-31.5t-5.5-27.5q0-1-2-2-9-11-28-11-12 0-50.5 20.5t-51.5 20.5q3 0-162.5-112t-191.5-112h-65q26 47 148 139 135 101 169 142-11 28-40 54-22 18-22 58 0 50 56 126 63 84 123 84 43 0 67-64 21-53 17-86-2-11-15-49-11-32-10-49 69-79 69-100zM2360 374q0-217-105-290-78-54-284-54-72 0-98 27-67 67-81 76-42-62-175-110-120-43-204-43h-138q-94 0-220 91-12-10-13-66 0-54 1-109-1-63-18-108-41-105-183-167-116-51-228-51-146 0-237 64-106 74-106 218 0 66 39 159 41 101 98 152 37 0 37-25 0-13-30.5-107t-30.5-108q0-189 265-189 61 0 167 36 120 41 127 83 4 23 4 55l-123 1116q0 34 66 123 8-7 22-24 21-89 58-373 30-238 73-353 63-169 187-232 26-12 147-12 290 0 355 111 13 31 47 93h37q16-183 216-183 63 0 134 25 92 32 92 83 0 76-36 76-14 0-62-41t-61-41q-71 0-125.5 53.5t-54.5 121.5q0 71 53 175 62 121 132 121 37 0 76-36 28-25 102-160 78-142 78-177zM1909-312q-63-97-97-97t-81 36-47 66q0 33 27.5 68t54.5 35q34 0 71-34zM2145 473v35q-32 65-57 65-19 0-55-32v-58q49-23 66-23 32 0 46 13zM926 1475v47q-23 24-37 24-34-34-34-38l33-33h38z" glyph-name="uniFB8A" horiz-adv-x="2375" unicode="&#xfb8a;"/><glyph arabic-form="isolated" d="M2339 1398q9-14 6-50-2-39-20-51-90-67-245-164-250-156-264-164h-35q-13 13-13 40 0 54 176 165 98 56 195 114 115 82 200 110zM1636 1301q0-55-221-204-142-95-285-189h-45q-13 13-13 30 0 66 100 131 63 38 127 75 129 114 322 193 15-15 15-36zM2290 170q0-117-100-284-143-238-391-238-38 0-140 25-92 23-105 30 16 37 51 37 13 0 40.5-5t40.5-5q150 0 297 127 131 112 215 278v28l-25 27q-55-102-149-102-72 0-113 84-30 61-30 116 0 51 43 144 54 117 120 117 109 0 185-157 61-125 61-222zM632 595q0-22-32-70t-50-48q-26 0-78 34-55 37-55 63 0 16 29 65 32 53 53 53 27 0 80-37.5t53-59.5zM1605 283q0-72-55-154-165-3-208 13-19 7-64 40-39 29-52 29-12 0-33-31-22-33-32-37-44-13-122-48-32-21-36-67v-78q-7-165-165-254-121-68-257-68-123 0-218 56-120 73-120 210 0 70 39 163 40 102 97 154 38 0 38-26 0-13-25.5-105t-25.5-104q0-93 79-144 63-40 146-40 89 0 191 41 137 54 137 148 0 37-4 49-13 43-63 150-46 95-46 108 0 54 33 107h46q33-34 67-103 14-30 79-30 81 0 116 22 27 18 141 172 99 134 148 134 74 0 128-146 41-108 41-161zM2096 319q-28 55-69 55-44-44-44-61 0-15 6-20.5t6-8.5q4 0 17-6t28-6q35 0 56 47zM1460 315q-1 28-21 54t-39 26q-36 0-51-33v-26l12-12q62-21 99-9z" glyph-name="uniFB8C" horiz-adv-x="2287" unicode="&#xfb8c;"/></font>
</defs>
</svg>
