<svg xmlns="http://www.w3.org/2000/svg"><defs><font horiz-adv-x="992"><font-face ascent="1638" bbox="-154 -969 6482 2281" cap-height="1756" descent="-410" panose-1="2 0 4 0 0 0 0 0 0 0" underline-position="-250" underline-thickness="100" unicode-range="U+000D-FEFC" units-per-em="2048" x-height="1341"/><missing-glyph d="M142 226v1362h700v-1362h-700zM284 368h416v1079h-416v-1079z"/><glyph arabic-form="final" d="M4100 1299q0-46-138-129l-152-84q-70-44-227-140h-34q-23 24-23 46 0 48 25 62 52 28 287 171 181 109 196 109h54q0-4 6-12t6-23zM3373 1683q0-40-27-58-168-99-510-310h-34q-13 13-13 35 0 63 246 208 151 83 303 166 10-8 21-14 14-11 14-27zM3209 1022q0-27-42-64-37-32-55-32-11 0-49.5 15t-53.5 15q-13 0-51.5-30.5t-50.5-30.5q-25 0-76.5 32t-51.5 54q0 27 43 68 41 41 59 41 12 0 46.5-20.5t45.5-20.5q13 0 56.5 30.5t56.5 30.5q30 0 76.5-31t46.5-57zM4141 122q0-96-45-169-1-3-104-141-123-166-404-166-180 0-236 46 34 56 67 56 10 0 44-10t48-10q119 0 290 113 195 128 238 288-8 0-26 18-71-81-129-81-56 0-110 53t-54 105q0 68 36 154 49 118 128 118 103 0 186-150 71-127 71-224zM2308 1688q0-57-138-141-76-41-151-82-90-55-271-150-13 14-13 41 0 54 25 70 186 123 535 298 0-4 6.5-12.5t6.5-23.5zM3260 275q0-42-21-103-21-66-46-85-53-39-163-67-104-26-190-26-135 0-181 13-54 15-89 99-28 66-31 128 0 5-34 338-9 93-39 317-25 194-25 205 0 21 21.5 68t43.5 70q34-8 50-88 10-65 21-131 9-118 30-358 9-102 34-277 8-56 37-162 19-42 87-49-9 1 85 1 224 0 298 67 2 30-29 77-5 0-18-14-16-18-28-24-59-35-105-35-60 0-105 58-43 53-43 117 0 72 50 164 56 102 119 102 119 0 204-166 67-134 67-239zM2165 250q0-11-2.5-51.5t-2.5-55.5q0-31-42-73-38-38-71-43-17-2-68-14-41-9-55-9-58 0-126 51t-79 51q-13 0-59-32-56-39-72-46-37-18-241-71-208-55-243-55h-239q-492 0-492 286 0 35 48.5 109.5t87.5 104.5h37v-36q1-13-19.5-56t-20.5-55q0-189 368-189 12 0 146.5 4.5t145.5 4.5q25 0 152 25 145 28 195 49 94 41 141 81 22 35 73 101h35q15-8 20-29 4-14 2-40-2-38-2-37 0-9 11-24 131-33 146-33 65 0 123 37-72 412-116 735-3 13-20.5 49t-17.5 49q0 42 40 103t80 71q10-35 36-95 26-17 65-44 15-25 15-30 0-12-36-76t-36-77 46.5-320.5 46.5-319.5zM1335 608q0-36-54-73-44-30-58-30-11 0-49 20.5t-54 20.5q-13 0-54-30.5t-53-30.5q-27 0-74 25-55 29-55 62 0 27 35 67.5t58 40.5q13 0 59-26t59-26q12 0 56 36t56 36q24 0 76-33.5t52-58.5zM1448-216q0-39-26-62-41-37-140-73-92-34-186-68-74-34-227-88-14 11-25 11v54q0 43 136 94 87 29 175 58 88 40 268 110 25-24 25-36zM3935 262q-17 50-56 70-31-17-35-49 34-33 46-33 15 0 28.5 6t16.5 6zM3044 425v36q-31 58-79 54-11-23-33-67 1-1 33-21 20-13 34-13t27.5 5.5 17.5 5.5z" glyph-name="uniFB51" horiz-adv-x="4145" unicode="&#xfb51;"/><glyph arabic-form="isolated" d="M4048 1530q0-87-88-166-83-74-158-74-11 0-40 5t-42 5q-37 0-138-82-15 16-15 31 0 72 125 169 28 8 82 27 34 52 68 103 58 80 119 80 36 0 61.5-30.5t25.5-67.5zM3536 1529q0-48-146-131-133-77-167-77h-43q0 4-6 10t-6 21q0 30 56 65 43 26 87 53-21 35-67 35-28 0-100-71h-37v44q0 23 60 86 55 56 65.5 60t52.5 4q80 0 251-64v-35zM3905 246q0-152-65-185-17 0-35 24-14 147-71 548-55 375-55 380 0 87 76 154 18 0 33-23 117-775 117-898zM2973 1495q0-66-256-200-158-83-294-137 0 3-6.5 11.5t-6.5 23.5q0 60 72 101 72 35 145 69 34 19 322 162 8-5 16-9.5t8-20.5zM2297 1213q0-19-23-66h-35q-71 71-115 71-14 0-23-8-122-156-381-268l-57 13q32 52 150 146l198 156v26q-53 29-62.5 44.5t-9.5 70.5q0 47 35 113 47 86 114 86 79 0 95-119 2-70 4-139 38-27 77-55 33-26 33-71zM3413 333l-12-118q-13-77-72-119-46-34-152-57-81-19-117-19-83 0-166 44-90 47-104 111-37 4-119-37-103-51-153-63-69-10-211-41 39-46 89-129 4-14 4-79 0-79-33-138-44-77-131-77-111 0-186 96-67 85-84 215-8 11-31 18-32 9-35 11-13 22 9 61-48 0-149.5-1t-106.5-1q-76 0-101-48-110-215-221-290-104-71-293-71-128 0-224 43v36q23 23 50 23 13 0 43.5-5t43.5-5q121 0 249 67 143 74 237 204-24 27-81 33-69 5-90 16-116 58-116 156 0 24 56 127 55 100 70 109 25 14 59 14 76 0 123-68 32-64 65-128 39-70 94-70-35 0 276 23 53 4 78 30 13 12 31 60 21 59 32 80 18 30 97 143 25 39 50 79 49 67 91 67 44 0 79-78 28-66 28-117 0-53-34-150-24-34-68-100 10-6 51-6 237 0 526 185 22-6 35-37 7-24 14-49 16-41 82-68 52-21 92-21h74q39 0 92 19 68 23 68 58 0 5-23 116-28 129-42 242-15 88-41 266-2 15-21 60-16 42-16 58 0 23 37 100 41 85 65 85 35 0 46-42 4-31 7-63 24-10 79-40 2-8 2-17 0-31-34.5-90t-34.5-85q0-13 7-25zM3116-389q0-16-47.5-54t-64.5-38q-13 0-61.5 25.5t-61.5 25.5-56.5-30.5-56.5-30.5q-25 0-68.5 27.5t-43.5 49.5q0 34 43 73 39 34 59 34 10 0 52.5-20.5t55.5-20.5q12 0 50.5 36t51.5 36q41 0 97-47 51-44 51-66zM936 1147q0-14-13-32-19-25-21-30-65 23-105 62-179-154-224-184-93-64-217-93l-24 26q11 18 43 51 304 199 304 246 0 13-24 33-31 24-33 28-14 21-14 67 0 54 38 120 48 84 121 84 91 0 91-149 0-23-2-56.5t-2-39.5q0-10 1-13 26-28 51-57 30-34 30-63zM854 225q0-90-25-140.5t-73-61.5q-40-8-79-16-106-47-243-47-102 0-102 81 0 43 33 88 59-1 176 6 84 12 210 67v27q0 56-231 195-4 10-8 19-6 17-6 33 0 97 61 97 48 0 80-25 137-111 176-176 31-53 31-147zM3945 1480q-9 9-24 14-21-1-41-30-16-23-20-39 67 18 85 55zM2101 1403q0 6-5 25.5t-5 23.5q-5 0-18.5 5.5t-18.5 5.5l-12-36 23-24h36zM2277 394q0 46-41 46-26 0-76-89-41-72-50-104 7 6 101 59 66 36 66 88zM782 1368q-24 24-48 24-23-23-23-49 23-11 57-32zM2297-180q-26 58-193 108v-34q-1-23 42-66t69-43q55 0 82 35zM1396 177q-43 64-88 79l-23-24v-35q66-33 81-33t21 6.5 9 6.5z" glyph-name="uniFB52" horiz-adv-x="3915" unicode="&#xfb52;"/><glyph arabic-form="final" d="M6166 1429q-181-119-535-349h-47v64q-1 31 218 167 153 94 307 187h44l13-12v-57zM5563 1550q0-104-109-175-92-60-183-60-11 0-27 5t-29 5q-14 0-44-33-35-39-55-49-14 14-14 31 0 36 49 107 52 77 95 77 11 0 9.5-5t10.5-5q24 0 85 107.5t119 107.5q42 0 70-43 23-35 23-70zM4652 1693q0-62-219-177-164-88-259-119-14 14-14 30 0 68 53 98 231 128 414 199 8-4 16.5-9.5t8.5-21.5zM5430 260q0-113-79-154l-167 907q2 4 22 72 14 52 54 76 18 0 32-24 39-214 77-428 61-340 61-449zM6239 255q0-151-46-238-62-118-188-223-140-117-253-117-152 0-309 34-17 10-44 31 0 28 24 43 81 2 161 3 97 4 166 24 108 32 244.5 162.5t134.5 204.5q-99-52-116-52-76 0-130 53.5t-54 125.5q0 70 46 158 53 103 118 103 95 0 176-128 70-109 70-184zM4508 1243q0-35-31-94-33-63-64-77-32-5-91-27-73-48-106-48-31 0-61 34-26 29-26 48 0 45 66 133 7-7 24-44 13-28 28-28 14 0 43 46 46 75 48 77 27-14 31-31 6-29 13-41 38 5 53 49 23 70 25 73h37q0-10 5.5-33.5t5.5-36.5zM4486 802q4-6 4-16 0-32-27-68-31-38-63-38-40 0-127 62-5 29 28 74 35 48 69 48 30 0 116-62zM4017 1525q0-86-147-153-52-24-245-133-159-90-481-269-59-32-247-152-152-97-166-96h-55v43q0 3 23 55 22 49 98 101 69 41 137 82 57 34 482 262 154 86 310 172 195 104 277 123 14-14 14-35zM5000 296q0-47-21.5-118.5t-45.5-99.5q-15-19-104-46.5t-126-27.5q-68 0-132 27-76 32-100 86-75-42-97-53-62-30-106-33-25-11-72-24-250-11-745-47-33-62-103-181h-25q-20 11-20 41 0 16 9 63t9 74l-106 44q-88 38-125 95-45-31-88-63-51-33-95-46-220-64-438-64h-166q-33 0-215 51-106-187-203-272-110-97-245-97h-95q-74 0-211 96 22 47 52 47 12 0 66-15t66-15q117 0 225 60 120 67 178 182 0 1 27 24 21 18 21 41 0 3-48 84-14 23-14 75 0 51 56 107 35-40 107-112 52-43 191-70 117-23 220-23 11 0 75.5 10t78.5 10q83 0 196 28 140 33 194 86 21 35 73 111h46q1-52 5-146 22-29 45-35 84-23 168-23 49 0 306.5 179t373.5 179q48 0 124-43 86-50 86-100 0-41-29-110-32-76-63-91 4-4 41-4 21 0 86 18 76 20 121 46 30 16 124 109 29 0 44-22 25-120 137-120h67q42 0 108 47-45 228-117 694-2 13-25 56.5t-23 56.5q0 29 37 108t59 91h35q13-25 21-114 4-52 57-52 11 0 26 3v-57q0-10-30-68.5t-30-73.5q0-13 51-281.5t51-281.5zM2287 1356q0-53-254-225-150-101-295-185-15 15-15 51 0 62 138 153 81 48 162 94 58 41 116 81 79 54 123 61 8-5 16.5-10t8.5-20zM2624 373q0-12-5.5-43t-5.5-48q-6 0-24.5-5.5t-24.5-5.5q-18 71-66 217-33 33-65 66-64 66-64 90 0 18 20 47.5t35 29.5q45 0 113-84 59-73 73-145 14-77 14-119zM904 567q0-59-55-112-24 11-33 83-14 112-18 125-10 40-72 128-57 83-57 94 0 37 44 81 88-21 143-159 48-118 48-240zM1559 628q0-28-19-66-23-46-52-46-12 0-50 35.5t-47 35.5q-42 0-125-67-75-60-115-114-32-46-32-89 13-14 48-34 71-23 137-23 10 0 34 5t37 5q123 0 123-133 0-98-46-141-50-47-100-70-314-147-524-147-149 0-248 71-116 81-116 231 0 187 167 352 38 0 38-30 0-12-46.5-114.5t-46.5-115.5q0-230 318-230 53 0 249 53 87 24 212 98 5 33-31 33-13 0-36-5.5t-36-5.5q-266 0-266 159 0 81 89 198 15 37 69 113 38 38 121 97 110 79 157 79 37 0 85-41 52-45 52-93zM5460 1515q-10 10-25 14-33-13-50-70 59 24 75 56zM6053 312v36q-25 55-55 55-46 0-46-68 34-34 56-34 14 0 27.5 5.5t17.5 5.5zM4097 241v37q-86 43-132 43-50 0-160-56-37-18-167-126h55q40-3 279 52 42 20 125 50z" glyph-name="uniFB53" horiz-adv-x="6239" unicode="&#xfb53;"/><glyph arabic-form="initial" d="M2224 1563q0-48-106-102-66-30-132-59l-289-161q-14 12-24 12v77q14 18 52 50 392 220 444 218h44q0-4 5.5-12t5.5-23zM2081 1087q0-43-48-76-37-26-60-26-74 0-117 52-1 5-1 12 0 32 37.5 76t65.5 44q38 0 83-36 40-32 40-46zM1528 1337q0-3-36-53-58-82-213-149-3-1-36-22-23-15-39-15h-32q-23 23-23 35 0 16 175 143-26 16-67 16-49 0-71-29-27-35-53-42-14 14-14 35 0 67 66 115 60 44 123 44 77 0 186-25 12-5 34-19v-34zM955 1185q0-11-5.5-35t-6.5-41q-3 0-14-5.5t-26-5.5q-9 0-38 20.5t-43 20.5l-146-108q-158-116-271-149l-23 24q0 30 23 43 69 41 172 115 142 103 142 136 0 12-46 61t-46 62q0 52 57 129 63 86 128 86 54 0 76-45 14-29 22-103 2-16-8-51-14-50-17-62 7-15 42-42 28-23 28-50zM2388 247q0-18-28-54-30-38-57-45-78-1-226-6-57-17-163-45-132-37-264-75-194-50-301-50-11 0-33 5t-33 5q-35 0-39-27-5-54-9-108-9-82-40-119-76-92-209-146-122-51-241-51-142 0-248 67-126 80-126 220 0 84 51 173 55 95 133 123v-57q0-13-30.5-86.5t-30.5-85.5q0-94 102-149 78-41 154-41 113 0 229 43 34 13 92 54 68 49 68 73 0 30-24 110-10 32-52 109-37 69-37 81 0 37 44 102 4 2 10 2 28 0 70-56 58-78 68-86 24-1 82-7 56-5 70-5 110 0 302 57-59 55-314 56h-73q-13 13-13 30 0 37 72 89 56 40 85 50 61 18 174 58 67 28 193 101 67 71 134 141 108 114 146 114 65 0 107-113 31-82 31-138 0-70-45-118-33 14-59.5 89.5t-73.5 95.5q-174-174-293-281 104-50 303-57 309-10 330-12 0-3 6-9t6-21zM863 427q0-44-44-74-33-24-59-24-42 0-79 31-33 27-33 57 0 33 25 64 29 33 67 33 37 0 80-31.5t43-55.5zM822 1371q-35 33-59 33l-23-24q18-36 68-57z" glyph-name="uniFB54" horiz-adv-x="2383" unicode="&#xfb54;"/><glyph arabic-form="medial" d="M3214 1746q0-53-53-84-149-83-441-248h-47v64q-1 36 197 141l308 162q36 0 36-35zM3194 1193q0-35-71.5-63t-71.5-86l113-835q-9-46-18-93-14-55-62-74-110 626-143 904-4 35 18 102-10 6-21 6t-40.5-14.5-49.5-14.5q-6 10-15 63-3 2-45 42-24 22-24 37 0 30 78 120 72 82 89 91 29 15 48 15 36 0 64-25t28-57q0-22-23-47t-43-25q-12 0-36 15.5t-36 15.5q-9 0-36-27 8-37 31-44 4-1 56-1 12 0 62 6 69 8 136 13 12 0 12-24zM2702 1203q0-51-145-125-127-65-151-65t-48 11l-14 12v38q12 8 123 68-21 25-56 25-16 0-93-51-15 14-15 36 0 56 55 98 49 40 104 40 12 0 94-18 92-19 135-25 0-3 5.5-16.5t5.5-27.5zM2201 1510q0-54-174-158-88-49-176-97t-258-159h-36q0 4-5.5 12.5t-5.5 22.5q0 57 78 111 70 43 139 84 74 51 204 115 196 97 209 105 25-25 25-36zM2252 701q0-32-44-61-36-26-59-26-13 0-122 54v32q0 44 102 99 40 0 83-38 40-34 40-60zM2754-251q-9-19-47-55-45-42-66-42-30 0-70 24-42 25-42 53 0 27 34.5 67.5t56.5 40.5q19 0 75-37t59-51zM1945 976q0-47-108-106-59-28-117-56 133-77 133-292 0-148-80-173-13 85-46 249-28 34-66 102-1 6-1 14 0 17 11 44 17 38 19 43-198 28-216 28-13 0-41-33-32-38-45-46-9 0-36 17 26 60 53 121 43 84 79 84 13 0 79.5-20.5t79.5-20.5q71 0 162 33 36 26 103 69h37v-57zM1188 1213q0-42-36-77-8 4-53 25-35 16-50 16 4 0-139-122.5t-170-122.5h-63v38q152 115 265 244-25 24-81 77-3 7-3 17 0 63 50 146 57 95 127 95 13 0 27-4 41-54 44-115 1-62 1-123 24-18 47-36 34-27 34-58zM655 1331q0-68-53-130-56-65-121-65-9 0-81 31-2 6-2 18 0 68 44 159 53 110 121 110 42 0 69-42 23-36 23-81zM1320 652q0-9-16-30t-28-26q-24-9-130-63-84-41-98-41h-54l-14 54q-12 27-48 49-2 8-2 17 0 64 64.5 140.5t121.5 76.5q36 0 61-33 21-26 21-49t-41-66q4-5 18-8t19-8q19 10 114 10 3-8 12-23zM2723 246q0-24-14-68-25-76-62-122-30-36-88-36h-87q-110 0-235 113-28-34-91-79-151-51-359-63-274-16-326-24-226-407-530-407-36 0-294 64-16 12-43 45 17 6 42 20 118-16 188-16 150 0 288 82 133 78 219 209-16 16-31 16-12 0-17.5-5.5t-18.5-5.5q-92 0-175 33-106 44-106 121 0 56 72 159 75 107 127 107 78 0 144-106 76-123 84-127 44-23 197-23-25 0 343 37 55 4 111 9 70 10 111 37 6 4 42 81 35 72 75 92 23-21 25-65 1-36 2-71 19-21 97-47 69-22 90-22 57 0 98 27-52 155-52 158 0 13 18 54 22 50 25 57h37q27-30 59-107 35-82 35-127zM645 256q-1-51-12-150-6-32-42-65-9-1-26.5 10t-19.5 25q-105 810-105 871 0 43 28 97 31 60 63 60zM1012 1352v37q-20 22-49 22 20-59 49-59zM552 1282l-12 48q-47-23-47-59zM1116 667q-12 15-59 38 0-19 21-38h38zM1217 156q-12 37-56 59-24-24-24-39 42-20 80-20z" glyph-name="uniFB55" horiz-adv-x="3182" unicode="&#xfb55;"/><glyph arabic-form="isolated" d="M2019 1398q9-15 9-35 0-95-172-228l113-843q-6-51-13-102-12-62-66-81l-116 828q0 38 18 102 21 78 25 105-57-6-159-32h-36v45q-1 17 30.5 52t63.5 52q21 1 61 6 75 109 87 123 36 40 85 40 37 0 70-32zM1406 1470q0-39-44-59-112-49-302-114-180-62-202-62-32 0-66 33 0 8 14 44 103 35 306 109 233 90 248 90 46 0 46-41zM1324 1153q0-59-25-100-28-43-132-87-90-39-119-39-82 0-82 77 0 26 29 81 24 43 36 58 16-13 26-13v-63l19-17q40 8 54 62 14 59 46 72 11-26 41-82 14 14 37 52.5t44 59.5q26-25 26-61zM1610 257q0-52-16-131-21-97-51-116-35-24-101-24-87 0-129 23-1 1-97 79-66-54-131-108-50-35-124-35-69 0-122 44-59 48-71 133-7 14-23 38-22-21-59-49-82-44-155-44h-62q-22 0-52 20-35 22-35 47 0 101 161 222 98 64 194 129 13 49 26 99 21 68 56 87 14-40 14-107 0-136 20-251 36-205 123-205 85 0 140 49t55 121q0 12-26 178.5t-26 179.5q0 83 44 137 26 0 34-13 30-128 72-349 17-128 50-183 46-79 143-79 46 0 46 47 0 10-34 114-36 115-45 161-33 175-33 201 0 42 43 132h37q16-70 83-330 51-203 51-217zM883-149q-24-76-63-97-43-25-424-188-1 3-20 16-14 11-14 25 0 40 53 77 22 17 200 95 188 84 218 84 14 0 30.5-6t19.5-6zM1910 1298l-10 11-26-24 10-12zM751 292q0 14-6.5 32.5t-6.5 28.5q-81-27-202-107l159-15q56 28 56 61z" glyph-name="uniFB56" horiz-adv-x="1985" unicode="&#xfb56;"/><glyph arabic-form="final" d="M5083 1378q0-75-289-218-69-42-216-129h-45q-13 0-13 24 0 64 87 114 60 29 121 57 103 61 308 182h34q13-13 13-30zM4428 1762q0-56-99-112-54-26-109-50-158-95-310-170-14 13-14 35 0 59 25 76 82 56 227 131 174 90 233 125h34q13-13 13-35zM4407 1230q-8-41-66-68-72-33-85-47-1-24-13-75l123-820q-5-44-10-89-8-64-44-94-39 3-47 54-1 42-2 83-1 12-2 20-15 104-52 307-57 267-66 581-4 0-19-11-18-15-27-20h-36q0 23-16 80t-16 67q0 42 66 127 73 94 129 94 24 0 49-27 22-24 22-40 0-27-16.5-52t-34.5-25q-15 0-36.5 10.5t-35.5 10.5q-15 0-26-14-7-11-15-21 30-26 82-26-11 0 170 20zM5124 180q0-15-38-140-29-93-79-164-66-97-180-155-99-52-184-52-11 0-103 10-105 10-138 13-28 15-76 41l12 58q30-10 116-10 430 0 558 353 4 6-6 15-74-61-117-61-73 0-123 76-41 60-41 108 0 52 44 149 54 117 115 117 120 0 189-149 51-109 51-209zM2984 1470q0-46-82-97-57-30-115-60-98-49-288-150-15 12-25 12v88q196 108 242 130 132 68 244 108l16-10t8-21zM2902 1061q0-19-24-99-11-35-59-72-28-9-83-37-73-49-110-49-31 0-56.5 20t-25.5 47q0 22 25 71.5t42 56.5q23-12 23-53 4 0 11.5-4t21.5-4q21 0 45 54 31 69 40 79 30 0 55-52 20 8 34 53 12 37 48 40 13-14 13-51zM3917-111q0-74-529-302-10 6-21 12-14 8-14 24 0 56 225 167 145 67 291 134h34q14-13 14-35zM2452 850q0-87-128-149-103-50-184-50-12 0-69.5 10.5t-69.5 10.5q-13 0-46-32-37-35-52-40-14 14-14 41 0 30 39 99 43 75 73 75 13 0 62-20.5t61-20.5h88q57 0 151 53 17 21 51 59 38 0 38-36zM1878 1239q0-19-23-65h-45q-40 51-75 51-13 0-51-40-51-55-56-59-56-46-151-113-121-86-147-85h-53q-12 1-12 25 0 14 137 120 174 135 221 178-28 32-55 63.5t-27 74.5q0 36 46 117 55 97 113 97 61 0 81-119 4-64 8-130l55-55q34-33 34-60zM2308 390q0-20-14-82-17-66-29-86h-37q3 120-15 166-58 150-58 166 0 66 41 66 75 0 112-230zM4029 247q0-118-221-118-10 0-70 5t-73 5q-46 0-304.5-71.5t-406.5-71.5q-102 0-123 6-52 14-128 86-86-88-335-117-196-20-391-40-23-4-59-62-27-42-54-86-87-115-213-203-77-55-158-55h-79q-42 0-239 54l-33 33q37 36 76 36 13 0 56.5-10t56.5-10q112 0 277 96 168 98 210 195-25 27-106.5 36t-105.5 36q-65 71-65 107 0 67 60 172 66 115 129 115 104 0 151-91 30-88 60-178 27-18 86-18 130 0 471 54 63 10 69 11 49 11 72 29 19 15 72 120h46q20-59 25-114 70-49 209-49h84q27 0 155.5 34t142.5 44q-24 31-75.5 58.5t-83.5 27.5q-9 0-81-16-80-18-125-24-13 13-13 30 0 60 103 136 94 69 137 69 12 0 106-53 118-68 163-89 53-24 192-52 153-31 251-31l68 9q14-13 14-45zM2800-336q0-19-30-58.5t-46-39.5q-40 0-84.5 33.5t-44.5 58.5q0 16 40 59t48 43q33 0 74-30 43-33 43-66zM1806 561q-49-30-312-146l-24 27q20 18 20 45 0 13-30.5 51.5t-30.5 51.5q0 38 70.5 121.5t107.5 83.5q27 0 62.5-25.5t35.5-46.5q0-27-33-51-27-21-39-21-9 0-36 10-23 7-37 2l-9-35q34-18 87-18-18 0 47-5 45-3 121 4v-48zM1111 1107q0-50-57-87-49 30-66 30 7 0-156-128-174-139-322-179l-23 26q0 1 188 144 124 94 190 173-6 8-57 64-35 38-35 59 0 49 49 130 55 91 109 91 79 0 97-106 7-67 13-134 7-13 40-43 30-26 30-40zM1111 226q0-22-14-74-16-60-31-81t-91.5-58-93.5-37q-169 0-169 138 0 42 12 93 21 41 56 123 6 44 13 86 20 81 67 81 78 0 166-104 85-99 85-167zM640 180q0-99-64-171-66-74-162-74-36 0-79 23v19q56 17 111 34 77 28 112 91-35 15-71 31-41 18-41 52 0 30 25 85 29 63 61 63 47 0 82-72 26-55 26-81zM4949 274v57q-22 17-66 43-28-28-46-66 23-46 67-46 15 0 28 6t17 6zM1693 1410v37q-11 12-37 12l-12-39q6 0 24.5-5t24.5-5zM958 1250q-23 46-48 46l-24-13v-35q43-22 59-22 0 9 13 24zM1806 120q-23 49-86 111-42-40-46-79 5-2 28-20 16-13 30-12h74zM987 183q-2 35-49 76-39 35-70 43-44-66-44-101 0-52 72-52 41 0 91 34z" glyph-name="uniFB57" horiz-adv-x="5122" unicode="&#xfb57;"/><glyph arabic-form="medial" d="M1949 1405q0-12-5-30t-5-29q-2-1-3-3-10-10-28-10-14 0-44 20.5t-43 20.5q-12 0-37-40-35-49-56-69-172-156-337-208l-45 10v40q158 102 190 125 103 76 177 168-25 24-81 78-2 9-2 23 0 68 44 143 52 89 121 89 67 0 81-111 2-64 3-128 70-46 70-89zM2112 1065q-9-121-86-121-16 0-56 15.5t-52 15.5q-13 0-59-41t-59-41q-14 0-114 53-3 14-3 29t34 58.5 48 43.5q12 0 53-15.5t54-15.5 59 41 59 41q35 0 122-63zM976 1460q0-45-121-124-104-68-129-72-70-13-72-13-30 0-56 13 2 23 74 68 77 48 89 76-11 7-56 7h-47q-11-5-67-58-11-3-21-3-2 1-3 3-10 9-10 27 0 87 74 131 58 33 140 33 75 0 205-43v-45zM2287 350q0-128-46-193-9-12-120-76-18-11-24-24-365-65-405-65h-310q-235 0-358 184l-8-168q-6-100-45-166-51-90-172-154-101-55-155-55h-46q-140 0-241 55-128 68-128 202 0 64 42 161 51 120 128 166 24-25 24-46 0-13-35.5-105t-35.5-105q0-153 246-153h95q49 0 122 43 62 36 87 77 14 25 14 48-1 55-1 46l-133 967q-2 6-2 15 0 72 45 123 30 3 45-53 8-47 17-93 21-104 71-307 59-205 184-418 64-111 505-111 113 0 299 42 198 44 238 87 0 5-4.5 32.5t-4.5 44.5q-3 0-7.5 4.5t-19.5 4.5q-75-81-132-81-80 0-123 61-36 51-36 123 0 92 46 165 51 81 128 81 89 0 178-154 78-135 78-205zM1793 1598l-58-11q0-31 57-59 18 36 1 70zM2071 464v37q-42 43-68 43-32-54-11-80h79z" glyph-name="uniFB59" horiz-adv-x="2260" unicode="&#xfb59;"/><glyph arabic-form="isolated" d="M2082 1552q-6-16-15-43-81-69-218-147-191-108-211-121h-35q-13 13-13 35 0 57 25 72 361 231 412 231h32zM1928 975q0-26-39-69.5t-53-43.5q-33 0-90 43-54 41-54 59 0 35 36 71 33 32 57 32 38 0 90.5-32.5t52.5-59.5zM986 1349q-40-97-212-179-216-103-272-154h-45q-13 13-13 35 0 59 199 167 107 53 212 106 40 30 107 50zM2113 258q0-84 0-75-6-51-46-98-43-47-176-83-121-30-219-30-97 0-150 19-75 25-142 103-86-72-194-72-94 0-110-12-21-57-43-114-37-99-93-99-36 0-83 35-52 37-62 82-19 78-3 174-6 6-31 6-49 0-140.5-40.5t-103.5-69.5-12-84l51-502q0-63-9-91-11-30-23-60-6-1-23-12-40 16-45 66l-53 564q0 68 47 174 48 112 99 143 45 28 226 79 7 1 83 68 51-43 104-86 68-57 152-57 12 0 32.5-5t33.5-5q175 0 175 76l-72 779q0 65 54 137 26 0 34-12 9-21 21-63 14-212 57-635 8-70 31-204 10-45 62-83 49-36 95-36h82q32 0 134 25 116 28 158 53 0 96-37 96-14 0-35-23-29-32-34-35-32-24-84-24-53 0-100 74-38 64-38 100 0 71 59 167 63 100 114 100 117 0 195-167 62-132 62-243zM1785-162q0-92-539-296-25 24-25 46 0 47 226 153 173 81 313 128 9-4 17-9.5t8-21.5zM1896 424q0 41-55 69l-25-24v-45q16-8 40-8 26 0 40 8z" glyph-name="uniFB5A" horiz-adv-x="2117" unicode="&#xfb5a;"/><glyph arabic-form="final" d="M4782 1235q0-24-16.5-48t-34.5-24q-13 0-61.5 31t-61.5 31q4 0-170-138t-204-138h-75v47q117 81 347 255v29q-34 27-69 55-23 23-23 54 0 58 64 134 68 80 130 80 82 0 82-152 0-31-3-69-3-19-5-38 31-25 61-50 39-33 39-59zM4219 1537q0-46-26-66-75-42-222-127-133-79-270-140-8 5-16.5 10t-8.5 21q0 60 229 190l256 136h45q13 0 13-24zM3421 1516q0-24-31.5-83t-53.5-72q-37-16-113-48-19-8-57-36-16-11-63-11-92 0-92 82 0 98 77 142 14-13 16-56 1-27 27-46 29-4 56 55 37 82 44 88 15-10 33-38 21-35 29-43 21 20 43 60 27 48 37 62 35-17 48-56zM4741-260q0-30-53-69-46-33-60-33-10 0-36.5 10t-39.5 10-56.5-30.5-56.5-30.5q-29 0-72 32-46 34-46 60t33.5 69 54.5 43q12 0 50.5-20.5t51.5-20.5 53.5 36.5 54.5 36.5q34 0 81-42 41-37 41-51zM3318 1070q4-39-25-84-30-48-67-48-32 0-80 36-43 33-43 46 0 34 38 69 35 33 64 33 28 0 113-52zM4731 247q0-145-104-219-88-63-218-63-34 0-145 24-24 5-66 35-52 37-65 43-58-50-171-89-123-43-229-43-177 0-307 214-48-77-227-129-151-44-270-44-184 0-184 117 0 24 26 64 28 44 50 44-6 0 37.5-26t142.5-26q68 0 219 34 18 4 80 44 80 51 80 65 0 11-24 85-27 85-35 124-34 166-34 226 0 66 44 128 26 0 44-43 15-35 27-118 13-86 21-107 30-101 59-202 40-129 95-192 72-85 192-85 50 0 133 21 87 23 123 48-9 47-80 49-74 3-84 30 36 82 111.5 141t149.5 59q75 0 161-43 100-51 100-121 0-80-52-109 0-6 2-15 73-39 111-39 59 0 116 21 68 25 68 66 0 11-66 104t-66 106q0 32 18 70 20 42 43 42 14 0 39-26l34-36q39-37 69-105 32-70 32-124zM2540 1004q0-21-20-43.5t-36-22.5q-13 0-31 10t-31 10l-7-9q-39-43-126-121-47-33-131.5-74t-103.5-41q-15 0-28.5 5.5t-16.5 5.5v37q107 71 316 234-17 17-47 46-24 25-24 81t55.5 113 124.5 71q37-33 39-103-2-57-2-115 69-75 69-84zM3574-208q0-62-141-132-79-33-159-67-78-39-237-109-15 12-25 12v67q23 37 90 69 58 24 117 49 98 50 288 141h54q13-13 13-30zM1383 1501q0-62-46-62-12 0-56 26t-56 26l-145-111q-155-118-267-145-5 5-17 12.5t-17 12.5q37 46 156 126 118 78 172 151-72 88-72 107 0 48 46 116 52 78 108 78 92 0 92-151 0-42-4-57l66-60q40-41 40-69zM2376-240q0-36-41-77-35-35-51-35-32 0-76 33-47 34-47 65 0 28 25 64 29 43 63 43 36 0 81.5-33.5t45.5-59.5zM2550 298q0-194-127-258-87-44-308-44-11 0-84 10t-85 10q-78 0-110 24-105 100-307 270-52 32-159 96-3-25-3-65v-49q-1-155-69-190-38-21-148-45-135-29-165-39 5-117-68-223-35-14-36-14-87 0-133 107-34 77-34 164 0 24 4 30-6 6-31 6-19 0-81-27-66-28-106-58-14-10-23-41-8-25-15-48l92-696q2-69-12-110-32-19-69 0-23 118-60 350-33 287-33 400 0 178 106 300 31 35 101 62 99 36 112 44 23 29 75 80 34-35 105-90 79-43 187-43 32 0 104 20t101 38q2 4 2 10 0 59-67 149t-300 306q-34 33-34 102 0 61 57 160 67 116 150 153 114 54 338 153 683 281 720 280h53q0-4 6-12.5t6-22.5q0-19-13-50-16-35-35-45-31-16-641-262-539-218-539-283 0-15 100-96.5t174-127.5q296-181 615-461 19-16 100-36 70-16 148-16h141q87 0 187 48 1 6 1 12 0 34-57.5 113.5t-57.5 107.5q0 29 23 97 3 0 11 5.5t22 5.5q63 0 122-126 47-100 47-135zM4596 1389q0 24-5 46t-5 24l-49-11q0-30 59-59zM2390 1124v38h-18v-38h18z" glyph-name="uniFB5B" horiz-adv-x="4733" unicode="&#xfb5b;"/><glyph arabic-form="initial" d="M4604 1484q0-32-34-67-63 16-124 62-65-63-202-172-197-127-239-125h-75v38q170 109 220 144 119 84 189 161-12 31-51 49-31 13-31 58 0 49 53 139 63 107 131 107 31 0 57-37 30-45 30-106 0-45-23-129 8-20 58-55 41-31 41-67zM4441 1057q-5-26-31-71-34-60-66-60-13 0-97 52 0 62 31 100 27 32 61 32 36 0 60-18 21-18 42-35zM5055 229q0-43-15-106-18-73-42-94-48-45-132-45h-57q-62 0-136 48-83 54-117 137-5 0-15-4-145-181-448-181-164 0-164 91 0 30 19 69 22 44 48 44 12 0 76.5-20.5t76.5-20.5q83 0 198 39 155 52 155 135 0 8-51 194.5t-51 199.5q0 14 18 60 22 54 41 58 19-38 59-115 40-151 79-303 87-258 238-258 52 0 108 29v26q0 27-79 112-3 13-3 38 0 11 5.5 47t5.5 54q4 0 14.5 6t25.5 6q72 0 143-246zM5045-272q0-27-27-70t-50-43q-41 0-92 36-56 37-56 77 0 23 26 60 30 42 61 42 32 0 85-38.5t53-63.5zM3632 1315q0-52-66-52-41 0-102 41-106-108-181.5-159.5t-181-110-124.5-58.5q-15 0-25.5 6t-14.5 6v38q245 146 419 325-93 114-93 133 0 45 38 122 48 97 111 97 37 0 61-25 47-50 47-149 0-40-8-85l74-70q46-44 46-59zM5239-421q0-48-64-83-128-58-390-177h-34q-13 13-13 40 0 57 36 78 88 51 243 116 146 62 167 62h42q13-13 13-36zM3529 945q2-34-26-76-30-46-65-46t-76 24q-47 27-47 58t39 68q37 35 58 35 30 0 117-63zM3755 326q0-108-25-165-19-45-81-73-124-54-191-54-12 0-10 5.5t-10 5.5q-58 0-80-38-29-70-100-195-72-95-133-139.5t-172-84.5q-37-13-114-13-8 0-52 6-137 20-165 25-102 21-116 46 26 45 61 45 11 0 32.5-5t34.5-5q180 0 341 79 176 87 269 241-110 23-219 47-79 27-79 139 0 68 46 160 56 111 128 111 75 0 145-133t121-133q49 0 239 53 18 14 18 34 0 13-67 123.5t-67 122.5q0 84 57 108 74-65 130-154 59-94 59-159zM1360 1458q0-19-17-45.5t-35-26.5q-13 0-48.5 20.5t-49.5 20.5q-7 0-14-11-1-1-3-2-314-315-433-315-14 0-27.5 6t-17.5 6v37q12 10 195 143 143 104 193 171-33 29-66 57-36 33-36 72 0 65 56 148 59 87 112 87 79 0 87-120 1-69 3-138 13-19 64-55 37-26 37-55zM2311-232q0-31-20-75-27-57-66-57-36 0-138 73 0 42 23 84 26 48 63 48 36 0 138-73zM2608 260q0-46-21-108-25-69-54-83-79-40-144-52-241-44-344-44-146 0-280 69-84 42-224 152-148 116-226 159-1-24 10-74.5t11-77.5q0-80-32-133-34-56-174-91-38-4-78-6-62-7-91-37-12-53-23-106-27-100-70-100-79 0-136 90-51 79-51 164 0 19 3 34-3 0-12.5 4.5t-23.5 4.5q-50 0-120-47-80-55-80-117l92-578q-6-94-57-118-12 11-32 34-95 507-95 565 0 243 114 357 10 10 145 59 14 5 60 44 43 36 55 36 11 0 54-36 52-44 71-54 60-33 161-33 147 0 211 57-6 94-147 273-74 67-146 135-86 80-86 165 0 103 95 204 74 78 231 148 125 52 249 106 297 138 741 304 25-24 25-41 0-19-22-58-23-42-43-51-358-151-717-303-437-195-437-263 0-22 94-86 49-31 99-63 94-73 286-218 97-80 307-225 53-31 167-58 108-26 173-26 33 0 312 43 44 8 89 35-5 61-50 110-44 47-44 109 0 57 24 92h32q63 0 112-125 37-95 37-141zM2485-457q0-16-15.5-44t-27.5-34q-107-52-286-121-172-67-193-67-14 0-25.5 6t-14.5 6v33q-1 17 24 45t50 40q378 168 413 168h52q8-5 15.5-10.5t7.5-21.5zM4441 1700q-5 5-18 17t-18 17q-13-6-35-24v-35q23-11 57-33zM3413 1479q0 63-9 81-38 0-38-26 0-14 21-32 25-23 26-23zM3160 210q-15 45-65 70l-26-12v-35q12-7 34-23h57zM1174 1613q-10 21-10 58h-38l-11-47z" glyph-name="uniFB5C" horiz-adv-x="5062" unicode="&#xfb5c;"/><glyph arabic-form="isolated" d="M1691 1484q0-56-101-123-63-37-127-74-67-39-206-129h-35q-12 13-12 40 0 65 64 99 56 28 111 55 83 51 247 163h45q14-13 14-31zM1178 1443q1-135-311-255h-33q-13 13-13 30 0 25 57 67 74 55 75 57-5 10-46 10-45 0-69-19-45-35-86-53-13 1-13 25 0 63 74 123 71 56 135 56 74 0 230-41zM1618 246q0-66-56-194-153-62-215-62-31 0-161 52-2-13-10-160-6-105-33-155-37-68-141-123-44-22-136-56-110-39-154-39-170 0-278 95-105 92-105 233 0 153 136 285h35q13-13 13-35 0-12-36-95.5t-36-93.5q0-55 71.5-130t123.5-75q11 0 50-5t53-5q60 0 181 53 150 65 156 142l-153 1012q0 134 56 175l18-13q26-125 86-370 34-154 69-309 70-209 216-209 14 0 64 12 65 16 85 35-17 42-35 68-24 22-64 61-4 7-4 54 0 7 33 107h32q55 0 103-124 36-98 36-131zM1598-261q0-30-31-72-34-46-66-46-28 0-117 62-2 8-2 16 0 34 40 78 37 39 54 39 21 0 71.5-29.5t50.5-47.5z" glyph-name="uniFB5E" horiz-adv-x="1635" unicode="&#xfb5e;"/><glyph arabic-form="final" d="M2597 1803q0-56-120-117-64-28-128-55-88-45-268-139h-36q0 3-6 11.5t-6 22.5q0 62 119 122 71 31 140 60 44 21 290 130 15-14 15-35zM2577 1260q0-38-74-69-88-37-90-40l143-970q10-74-33-153-6-1-23-12-13 7-33 24-20 150-62 452-2 14-48 252-31 163-31 255 0 69 15 116 9 7-15 7-14 0-51-17-47-20-54-23-8 32-2 58 9 36 9 38 0 11-36 45t-36 48q0 38 91.5 118.5t129.5 80.5q32 0 62-44 25-35 25-48 0-25-23.5-48t-43.5-23q-22 0-53 31h-27l-17-17q18-46 82-46 67 0 181 10 14-1 14-25zM2156 728q0-33-42-72-39-36-60-36-28 0-112 53-2 41 27 84 30 47 70 47 37 0 79-30 38-28 38-46zM1634 1352q0-28-22-52.5t-39-24.5q-11 0-45 16t-47 16-55-43q-53-54-70-66-178-133-362-199-14 12-24 12v37q27 23 189 132 134 91 199 163-10 16-54 56-28 25-28 61 0 56 54 133 58 82 115 82 40 0 65-43.5t25-104.5q0-43-14-81 36-23 73-47 40-28 40-47zM1706 687q0-39-36-70-32-27-61-27-11 0-47.5 15t-49.5 15q-11 0-58-41t-60-41q-17 0-118 76 50 119 97 119 13 0 51.5-20.5t51.5-20.5 51.5 46 50.5 46q27 0 75-33 53-36 53-64zM2146 226q0-44-14-74-17-36-34-71-22-42-46-61-17-14-95-14-141 0-225 82-150-133-420-133-11 0-57.5 5t-59.5 5q-14 0-60-41t-58-41q-14 0-129 26t-128 26q-9 0-73-68-69-75-109-93-68-32-200-61-111-24-141-24h-42l-23 24q0 29 23 43 133 50 287 123 51 21 103 41 55 29 68 84 6 25 2 96-4 63 11.5 98.5t73.5 91.5q67 64 113 64 3 0 44-15 16-30 54-89 31-41 129-98 39-23 198-23 120 0 239 23 56 10 69 28 22 31 44 90 30 75 39 94h46q18-31 18-70 0-16-4-43t-4-36q0-35 50-35h161q19 19 19 44 0 15-11.5 51.5t-11.5 57.5q0 78 55 123 19 0 34-23 65-166 65-207zM1450 1507q-34 35-48 35l-23-26q17-34 60-34 0 10 11 25zM927 99q-11 35-42 101h-36q-23-23-23-45 0-20 19-38.5t38-17.5h44z" glyph-name="uniFB5F" horiz-adv-x="2556" unicode="&#xfb5f;"/><glyph arabic-form="initial" d="M2422 1450q0-34-8-47-10-16-56-42-134-73-401-228h-36q0 4-5.5 12t-5.5 23q0 53 203 178 125 72 251 144h45q13-13 13-40zM1807 1433q0-26-246-180-235-148-353-203-14 15-14 46 0 55 42 83 138 89 322 197 195 115 214 115 15 0 23-6t12-6v-46zM1643 872q-19-36-39-72-15-26-52-26-21 0-69 29-54 33-54 58 0 20 39 69t58 49q11 0 117-107zM1797 732q-3-41-27-77-28-45-70-45-11 0-45 10.5t-47 10.5-54-36-54-36q-25 0-72 28-50 31-61 59 77 108 103 108 11 0 46-20.5t45-20.5q14 0 55 45.5t54 45.5q25 0 127-72zM1091 1204q0-36-24-61-25 5-77 24-45 17-58 17 3 0-160-149t-188-149q-28 0-46 37 31 35 169 168 107 103 107 118 0 24-91 89-7 59 45 156 59 108 128 108 95 0 95-249l58-38q42-28 42-71zM2350-336q0-23-46-62-44-36-56-36-36 0-74.5 29t-38.5 53q0 22 37 67t60 45q29 0 73-32 45-36 45-64zM712 1219q0-16-12-43-16-33-34-33-13 0-36 10t-36 10q-11 0-52-48-51-57-88-82-62-37-186-115h-34q-7 13-23 35 39 40 133.5 124.5t142.5 131.5q-9 12-69 68-23 21-23 55 0 49 44 125 54 95 125 95 72 0 86-117 1-71 3-141 20-18 41-34 18-16 18-41zM2453 216q0-123-47-165-25-23-87-40-51-15-78-15h-79q-65 0-115 13-14 3-48 27-31 21-43 21-10 0-41-41-36-46-59-57-25-14-95-14-12 0-68.5 10t-69.5 10q-12 0-127.5-20.5t-128.5-20.5q-82 0-145 45-37 28-77 84-32 45-44 45 12 0-260-86-17-5-45-34-5-27-16-80-16-66-72-165-37-65-121-129-81-60-145-76-52-13-108-13-75 0-191 39-147 48-146 113 3 0 11 6t23 6q13 0 97.5-25.5t96.5-25.5q13 0 38 8t34 8q100 4 215 84 121 81 166 182-1 8-14 36-11 27-11 42 0 51 21 97 12 26 67 55 47 25 77 32 125 40 372 111 23-25 23-62 0-53 3-64 84-69 192-69 132 0 176 32 28 20 61 74 38 62 54 78 42-21 42-61 0-13-5-36t-5-32q0-35 56-35 86 0 110 66 42 112 68 139h35q7-11 12-56 6-42 22-58 30-29 153-29 82 0 154 27-15 110-65 180l-90 114q-40 51-40 78 0 22 18 76 18 50 26 57 17 0 42-15 57-52 135-207 86-170 86-264zM905 1348v47q-31 34-46 34-23-23-23-48 32-33 69-33zM568 1396l-59 11q0-5-5.5-18.5t-5.5-17.5q23-12 57-34z" glyph-name="uniFB60" horiz-adv-x="2457" unicode="&#xfb60;"/><glyph arabic-form="medial" d="M2677 1176q0-84-70-145-66-58-149-64-14-1-51.5-19t-51.5-18q-77 0-77 71 0 36 25 84 28 51 64 69 3-5 3-84l18-18q33-4 62 52 41 84 48 92 43-30 36-66 17-17 34-17 15 21 36 67t36 67q37-19 37-71zM1910 1544q0-45-37-71-57-40-149-89-77-39-155-79-83-45-271-129 0 4-6 17.5t-6 27.5q0 50 43 73 174 89 523 281h45q13-14 13-31zM1817 1022q0-50-39-117-36-60-66-74-32-9-92-28-13-4-49-28-31-20-45-20-32 0-59.5 26t-27.5 51q0 31 23 90.5t41 78.5q24 0 48-25-22-45-21-69-8-8 16-8t50 55q32 68 42 78 24-15 36-51 9-31 26-31 15 0 20 5.5t7 6.5q8 29 16 59 9 37 39 62 35-32 35-61zM2852-68q0-51-135-117-77-33-155-66-126-52-195-98h-45q-13 13-13 30 0 66 102 115 79 30 157 61 77 35 226 110h45q13-13 13-35zM947 1293q0-75-157-163-138-77-191-77-16 0-40 23 0 36 56 69l108 58q-1 8-25.5 21t-37.5 13q-31 0-66-29-31-27-61-53-16 15-16 30 0 67 62 117 58 47 122 47 122 0 234-32 12-1 12-24zM2729 243q0-64-26-109-31-55-87-55-52 0-130 24-83 26-131 58-100-122-333-122-11 0-32 5t-34 5q-54 0-70-40.5t-99-40.5h-98q-82 0-166 53-15 25-49 69-120-61-194-61 16 0-100 21-12-25-15-58-6-54-13-108-12-66-46-109-79-101-274-173-64-23-197-23-134 0-235 73-118 88-118 239 0 119 136 270h37q0-4 5.5-12.5t5.5-22.5q0-13-30.5-82t-30.5-81q0-106 100-169 81-52 171-52h61q77 0 192 62 131 70 131 143 0 43-24 116-9 27-51 96-38 61-38 74 0 47 44 112h46q70-119 95-142 47-42 154-42 111 0 189 62 25 20 102 113 50 61 98 61 9 0 113-97.5t173-97.5h102q132 0 218 44 6 3 128 165 113 150 172 150 41 0 99-156 49-135 49-162zM763 555l-19-31q-42-65-84-65-11 0-111 62 0 35 19 83 24 60 56 60 33 0 86-46 47-41 53-63zM2575 288q-21 58-57 78-11-11-26.5-32.5t-18.5-23.5q70-36 77-36 23 0 25 14zM1694 152q-44 70-77 91-24-24-24-47 44-44 67-44h34z" glyph-name="uniFB61" horiz-adv-x="2739" unicode="&#xfb61;"/><glyph arabic-form="isolated" d="M2258 1532q-3-18-26-54-74-73-236-162-185-101-243-146h-34q-24 20-24 51 0 42 120 111l128 64q96 59 290 162zM1665 1692q0-55-44-91-45-20-133-67-316-201-332-200h-54v44q-1 44 123 115 72 39 145 77 126 88 215 137 22 3 65 15 15-15 15-30zM2033 775q0-19-42.5-63t-54.5-44q-30 0-74 32t-44 50q0 23 35.5 67.5t61.5 44.5q17 0 63-28 55-33 55-59zM947 1552q2-47-42-73-79-40-226-118-137-78-277-172-5 0-18.5 6t-18.5 6v43q0 47 219 175 153 84 306 169h57v-36zM2636 231q2-50-73-93-42-23-131-23-11 0-42 5t-45 5q-68 0-259.5-71.5t-338.5-71.5q-105 0-164 25-94 41-160 158-16-12-102-56-67-34-95-75-17-79-78-224-69-95-250-161-157-56-278-56h-77q-15 0-42 17-129 20-217 110-84 88-84 190 0 196 167 347h38v-37q0-12-33-67-38-65-47-87-12-31-12-79 0-18 43-100 31-59 145-93 89-27 165-27 105 0 152 12 152 40 275 133 19 14 19 39 0 61-72 61-11 0-37-5t-40-5q-190 0-190 138 0 66 61 177 68 125 134 125 82 0 156-156 18-25 57-80 66 0 134 33 88 42 83 111l-92 690q-3 39 12 83 17 52 46 66 66-114 81-312 21-257 62-418 10-81 21-163 38-140 151-140 27 0 73 68 66 101 91 129 64 69 134 69 15 0 216-80 111-44 245-61 68-2 198-15v-35zM1009 775q0-38-44-76-36-31-48-31t-39 15-38 15q-12 0-50.5-30.5t-52.5-30.5q-32 0-69.5 29.5t-37.5 51.5q0 28 39 68 35 35 43 35 13 0 51.5-20.5t50.5-20.5q14 0 49.5 36t48.5 36q27 0 64-34 33-31 33-43zM2053 202q-90 45-117 45-47 0-71-18l-56-56v-37h35q57 12 114 25 71 17 95 41zM999 189q-18 54-67 79-36-35-36-51 0-15 6-20.5t6-8.5q87 0 91 1z" glyph-name="uniFB62" horiz-adv-x="2637" unicode="&#xfb62;"/><glyph arabic-form="initial" d="M2838 1525q0-45-196-159l-248-136h-47v43q-1 43 32 63 80 48 444 230 15-14 15-41zM2326 1454q0-65-137-145-121-70-167-70h-31q-24 24-24 36 0 20 67 59 38 22 77 43l-3 3q-11 13-43 13-8 0-148-82v64q-1 40 75 91 61 42 82 45 10 5 32 5-19 0 209-33 0-4 5.5-9t5.5-20zM2111 860q0-17-37.5-54.5t-54.5-37.5q-33 0-134 75 49 120 98 120 24 0 75-37 53-40 53-66zM2940-343q0-28-43-64-39-33-59-33-11 0-49.5 15.5t-52.5 15.5q-13 0-54-31t-54-31q-28 0-74 21-54 24-54 51 0 26 42.5 69.5t59.5 43.5q13 0 51-15.5t52-15.5q11 0 52.5 36t54.5 36q24 0 74-34 54-36 54-64zM1199 1261q-8-10-17-19-13-13-28-13-13 0-46.5 15t-46.5 15q-11 0-76-63-77-75-109-97-53-37-213-126h-34l-23 25q39 54 155 142 147 112 182 145-7 17-47 63-35 41-35 54 0 46 42 123 49 93 107 93 67 0 82-104 3-57 7-113 18-24 100-82v-58zM1404 897q-44-98-102-98-34 0-68 23t-34 48q0 35 32 68.5t59 33.5q36 0 113-75zM2838 220q0-92-13-127-21-57-93-84-77-29-160-29h-108q-13 0-110.5 40.5t-109.5 40.5q-10 0-98-29-97-32-142-39-194-33-287-33-14 0-164.5 35t-163.5 35q-35 0-127-17-121-23-178-57-16-10-33-63-23-69-30-84-93-176-190.5-248.5t-240.5-72.5q-165 0-271 87 1 1 16 22 11 14 25 14 13 0 69-10t69-10q156 0 317 138 153 132 150 235-34 23-68 47-25 19-25 60 0 30 22.5 56t48.5 26q13 0 64.5-10t64.5-10q139 0 196 49-4 34-4 110 5 44 31 114 12 34 67 98 59 69 97 86 11 4 37 4 77 0 127-105 37-79 37-136 0-43-17-79-27-49-54-96 0-23 37-32 95-23 157-23 148 0 318 68-16 27-110 24-24 24-24 46 0 15 11.5 28t12.5 15q99 147 212 147 62 0 161-37 126-48 126-112 0-22-52-124 0-9 17-22 25-1 87.5-12t75.5-11q33 0 128 48 6 38-86 200-1 3-46 68-32 46-32 63 0 11 18 52 23 50 26 60 96-48 157-178 55-114 55-226zM1834-426q-87-86-261-156-143-56-287-114-25 25-25 36 0 56 36 72 496 230 501 230 15 0 23.5-6t12.5-6v-56zM1001 1435q11 32-23 49-15-29 10-49h13zM1548 323q0 17-27 54-31 42-60 42-26 0-62-41t-36-61q0-16 32.5-49t54.5-33q18 0 58 34.5t40 53.5z" glyph-name="uniFB64" horiz-adv-x="2854" unicode="&#xfb64;"/><glyph arabic-form="medial" d="M1883 1457q0-38-228-150-163-80-338-190h-47v77q6 12 22 30 183 97 567 281 13-12 24-12v-36zM2579-108q1-69-507-270-8 4-16 9.5t-8 20.5q0 58 105 111 77 33 154 65 77 41 236 110h36v-46zM2426 302q-21-132-66-185-21-24-84-39-50-10-100-21-104-27-144-27-10 0-26 5.5t-30 5.5q-47 0-75.5-36t-83.5-36q-89 0-170 34-58 25-108 65-43 34-39 34-13 0-49-18-41-23-52-27-66-20-193-50-14-84-64-250-13-10-35-31-29-67-186-129-145-58-245-58-145 0-247 67-122 80-122 231 0 72 44 164 49 100 113 142 37 0 37-20 0-7-41-92t-41-123q0-194 266-194 123 0 239 38 161 54 161 156 0 117-51 205t-51 122q0 52 33 103h36q26-25 66-105 16-35 78-59 50-21 83-21 48 0 107 13 48 10 137 104 103 109 126.5 124t88.5 15q76-130 166-174 64-30 185-30 88 0 197 22 3 2 28 24-7 91-40 287-54 314-57 326-1 16-25 75-21 56-21 69 0 34 54 157 14 19 42 33 22-9 26-52l2-54q8-20 44-39 23-10 46-21-18-93-61-173zM767 506q0-20-29-62-31-45-53-45-36 0-89.5 39t-53.5 58q0 23 34.5 65.5t58.5 42.5q23 0 77.5-39.5t54.5-58.5zM1719 171q-18 43-66 105-38-37-35-58 38-39 101-47z" glyph-name="uniFB65" horiz-adv-x="2436" unicode="&#xfb65;"/><glyph arabic-form="isolated" d="M2884 1366q0-57-101-114-59-27-117-54-77-39-236-129h-34q-13 13-13 46 0 43 15 55 28 25 90 53l92 42q74 40 280 131 8-4 16-9.5t8-20.5zM2279 1477q0-60-35-88-81-62-301-172-259-130-352-188h-46q0 3-6 11.5t-6 22.5q0 63 33 83 138 81 461 222 13 6 114 70 80 50 115 50 14-11 23-11zM2035 797q0-28-44-65-38-32-48-32-35 0-81 50-42 45-42 63 0 32 32.5 67t59.5 35q35 0 79-43t44-75zM2208 645q-15-33-51.5-70.5t-55.5-37.5q-15 0-58.5 20.5t-53.5 20.5q-13 0-62-31t-61-31q-34 0-75 26-43 27-43 56 0 30 44 69 39 33 53 33 11 0 53-20.5t55-20.5 54 36 53 36q65 0 148-86zM2946 250q0-144-58-202-53-54-178-54-74 0-119 13-20 5-64 33-39 26-52 26 4 0-77.5-56.5t-112.5-56.5q-10 0-69 10t-74 10q-12 0-107-15t-108-15q-14 0-93 15t-91 15q-16 0-39-17-58-13-181-13-195 0-257 59-71 68-99 313-5 41-17 370-3 80-30 255-2 9-15 43-12 30-12 45 0 21 23 58 28 44 54 44 66 0 79-281 9-205 51-614 6-32 39-68 37-39 77-48 102-23 143-23 117 0 171 33 18 10 54 64 33 48 61 57 23-11 23-44 0-10-5-47-4-34-3-55 13-8 57-8 102 0 161 33 24 13 57 79 30 62 68 72 41-12 41-55 0-33-25-82 28-27 61-27 89 0 118 54 30 64 60 129 10 13 53 33 23-15 23-53-1-45 14-62 17-20 81-40 60-20 97-20 61 0 118 29v26q0 19-62 142-58 115-64 123-21 25-130 101-2 13-2 26 0 81 76 168 18 0 43-15 58-53 146-229 95-187 95-278zM1554 1463q0-93-180-164-141-56-230-56-11 0-69 20.5t-69 20.5q-15 0-67-55-62-67-77-78-9 4-17 9.5t-8 20.5q0 43 80 139.5t114 96.5q13 0 79.5-20.5t79.5-20.5q107 0 202 43 48 29 147 79 15-14 15-35zM3038-313q0-17-34.5-60t-52.5-43q-13 0-51.5 20.5t-50.5 20.5-54.5-35.5-58.5-35.5q-33 0-72 40-35 35-35 52 0 42 45 76 37 26 57 26 11 0 41.5-20.5t45.5-20.5q13 0 54 36t53 36q29 0 71-34t42-58zM867 818q0-9-32-77h-53q-11 0-21 10.5t-26 10.5q-13 0-50-33-45-39-55-46-109-66-312-146-5 4-17 17t-17 18q38 43 200 136 138 79 138 110 0 9-31 61.5t-31 66.5q0 59 54 130 57 75 110 75 21 0 56-28 39-29 42-59 4-31-6-81l-18-80q69-53 69-85zM1031 137q0-58-237-126-64-44-190-119-1 7-1 13 0 17 10.5 46t10.5 45q0 6-2 11-40 31-81 62-42 37-42 68 0 53 113 161 111 105 153 105 43 0 71-32 41-47 52-54-18-35-36-71-25-48-56-48-13 0-46 26t-47 26q-12 0-50-37 37-66 143-66 7 0 93.5 10t128.5 10q2-1 2-2 11-9 11-28zM722 947q0 47-23 70-36-35-36-37 32-33 59-33z" glyph-name="uniFB66" horiz-adv-x="2954" unicode="&#xfb66;"/><glyph arabic-form="final" d="M4724 1370q1-31-101-100-58-35-115-72-114-69-340-211h-34q-14 13-14 35 0 57 219 191 170 102 338 203h47v-46zM3844 1140q0-26-16-48.5t-30-22.5q-13 0-66.5 25.5t-66.5 25.5q8 0-185.5-138t-244.5-138q-21 0-46 25 38 44 165 130 131 91 194 158-8 14-49 68-33 45-33 59 0 65 51 137 55 78 118 78 36 0 54-15 52-45 52-127 0-21-3.5-57.5t-2.5-50.5q9-20 63-46 46-21 46-63zM4766 214q0-135-133-319-149-208-308-208-158 0-335 32l-22 23v36q5 1 117 1 163 0 281 72 124 74 264 264 16 21 16 53-73-52-110-52-74 0-126 67-44 55-44 108 0 47 50 137 59 109 120 109 63 0 108-47 24-25 87-124 35-56 35-152zM3282 1499q0-51-27-71-413-298-451-298h-53q-13 2-13 26 0 18 17 52 18 39 37 50 150 90 442 271h34q14-13 14-30zM2503 1534q0-91-46-146-30-36-77-55l-64-22q-4-1-45-32-34-26-49-26h-41q-27 0-52 23.5t-25 43.5q0 62 75 178 44-6 44-35 0-6-3-22.5t-3-24.5q0-6 1-12 8-7 14-7 15 0 32 28 13 35 47 113h47q0-33 19-70 39 13 52 49 7 31 15 63h36q23-23 23-46zM2411 1049q0-45-34-72-26-21-53-21-38 0-107 43 2 47 22 88 25 53 64 53 34 0 73-37 35-34 35-54zM3885-315q-7-36-34-74-32-47-63-47-12 0-48.5 15.5t-48.5 15.5q-11 0-53-36t-55-36q-21 0-74.5 37t-53.5 55 44 61q42 42 54 42 13 0 52-20.5t50-20.5q10 0 38 35.5t74 35.5q30 0 118-63zM3896 296q0-282-348-282-126 0-193 41t-89 41q2 0-70-28-191-74-309-74-252 0-348 204-90-94-151-129-40-23-137-51-88-24-111-24-12 0-44-5t-43-5q-195 0-195 102 0 36 24 70 21 32 37 32 13 0 35.5-13.5t31.5-14.5q19-3 103-3 96 0 222 36 182 49 182 139 0 9-46 200t-46 214q0 51 33 117h36q22-22 29-33 44-207 119-492 20-74 124-132 89-49 155-49 122 0 251 68-20 38-161 36l-1 1q-12 11-12 29 0 64 96 148 65 57 176 57 66 0 148-41 92-47 92-103 0-26-22.5-74.5t-39.5-54.5q30-45 144-45 226 0 226 72 0 17-141 206-13 19-13 54 0 31 22.5 64.5t43.5 33.5q64 0 133-146 57-123 57-166zM1306 1094q0-71-47-77-13 5-58 35-40 27-54 27-11 0-76-61-77-73-116-100-64-41-260-115-5 5-17.5 12.5t-17.5 12.5q47 46 221 167 138 96 138 125 0 12-28 34-33 26-41 40-13 24-13 64 0 82 44 136 23 28 66.5 56.5t63.5 28.5q105 0 105-131 0-86-23-130 36-28 74.5-56t38.5-68zM2615-155q1-40-252-159-241-114-255-111h-54q0 4-6 10t-6 20q0 74 55 98 453 198 464 198h54v-56zM1705 352q0-47-20-112-26-82-66-100-250-112-595-129-17-1-61-9t-57-8h-133q-71 0-169 40-85 33-123 66-56 46-56 170 0 43 36 113 42 80 91 102 37 0 37-30 0-13-20.5-67t-20.5-67q0-164 394-164 137 0 359 46 232 48 291 94-10 25-80 110-64 77-64 94 33 107 67 107 40 0 108-87 54-69 77-120 5-10 5-49zM1224-200q0-40-40-69-33-24-58-24-31 0-75 24-53 28-53 64 0 25 34 66t58 41q40 0 89-46 45-42 45-56zM4571 304q-18 54-47 69l-23-24v-46q36-18 70 1zM1130 1254v58q-12 11-34 33-23-13-57-46 13-26 91-45zM3646 1271v57q-11 11-33 34-23-14-57-46 12-27 90-45z" glyph-name="uniFB67" horiz-adv-x="4758" unicode="&#xfb67;"/><glyph arabic-form="initial" d="M1990 1343q1-54-117-126-65-32-130-65-123-71-369-212h-35q-24 24-24 36 0 28 36 68 28 32 50 45 508 291 535 291h54v-37zM1981 238q0-148-102-148-13 0-138.5 35.5t-138.5 35.5q-12 0-34-26-29-34-40-42-54-38-173-47-8-24-33-177-22-139-225-224-159-66-303-66-141 0-247 74-122 86-122 233 0 55 51 161 53 113 97 123h45q-16-69-48-135-22-46-22-83 0-200 282-200 132 0 250 42 164 57 164 169 0 68-109 232-14 20-14 54 0 22 19.5 59.5t37.5 37.5q12 0 49-46 43-55 57-65 27-22 104-22 145 0 228 151 52 94 162 172 22 15 49 15 89 0 154-313zM866 484q0-37-27-67t-61-30q-47 0-83 34-34 32-34 68 0 9 64 102 47-7 92-38 49-34 49-69zM1817 297q-35 69-51 69-25 0-51-47 33-22 102-22z" glyph-name="uniFB68" horiz-adv-x="1982" unicode="&#xfb68;"/><glyph arabic-form="medial" d="M2967 1431q1-30-124-100-77-41-154-81-74-47-237-140h-34q-13 2-13 25 0 9 23 54 26 50 41 59 160 85 474 251 14-12 24-12v-56zM2180 1504q0-50-123-124-3-3-167-89-88-50-269-151-2 3-21 16-14 11-14 25 0 77 105 129 207 101 431 229h44q14-13 14-35zM2006 885q0-44-41-72-31-21-57-21-35 0-72 35-35 32-35 58 0 22 24 58 28 44 63 44 42 0 82-42 36-37 36-60zM1658 1550q0-107-228-182-166-53-248-53-38 0-98.5 15l-60.5 15q-13 0-47-45-42-53-60-67-15 11-25 11v44q-1 27 63.5 113.5t88.5 86.5q2 0 52.5-25t111.5-25q79 0 202.5 43.5t200.5 98.5h34q14-13 14-30zM2180 715q0-39-48-71-39-26-60-26-11 0-42.5 15.5t-44.5 15.5-61.5-35.5-61.5-35.5q-28 0-68 24-44 27-44 52t39 66.5 58 41.5q11 0 45-15.5t47-15.5q23 0 52 36t71 36q31 0 74.5-33t43.5-55zM2968 245q0-92-55-177-36-54-236-54-13 0-15.5-5t-15.5-5q-41 0-100 31l-59 31q-9 0-54-35-48-37-73-44-9-3-72-3-14 0-59.5 10t-58.5 10q-14 0-116-30.5t-115-30.5q-11 0-97 20.5t-98 20.5-137.5-25.5-138.5-25.5q-75 0-151.5 65t-86.5 144q-19 231-57 655-5 36-32 125-26 85-26 95 0 51 54 123h36q56-106 73-290 4-43 13-318 1-13 13-52t12-61q-2-313 225-313h49q69 0 183 64 7 4 83 80 38-12 38-48 0-11-3-32t-3-30q0-44 67-44 27 0 86 16 74 20 110 47 19 15 45 56 29 46 49 65 45-8 45-50 0-12-5-35.5t-5-31.5q0-5 2-8 18-18 36-18 65 0 110 48 29 30 82 125h47q4-99 38-120 19-12 112-12 94 0 149 37-45 226-183 318-26 8-81 40-1 11-7 46-6 31-6 45 0 40 24 89.5t47 49.5 104-105q171-218 200-360 14-69 14-93zM2978-293q0-31-43-69-40-33-59-33-13 0-43.5 15.5t-43.5 15.5q-12 0-53-36t-54-36q-32 0-77.5 34.5t-45.5 62.5q0 32 33 65t64 33q11 0 51-20.5t56-20.5q11 0 42.5 35.5t55.5 35.5q32 0 77-36 40-33 40-46zM920 811q0-50-33-100h-31q-14-1-52.5 25t-51.5 26q-295-205-374-205-26 0-41 15 28 45 133 120 132 96 154 117-22 20-59 68-3 12-3 43 0 53 40 128 49 92 113 92 50 0 77.5-36.5t27.5-88.5q0-20-5-61t-5-62q37-24 110-81zM1134 129q-23-31-74-71-118-35-183-75-62-45-124-91h-36q-4 36 2.5 45.5t6.5 12.5v37q-41 18-82 35-61 30-61 69 0 58 111 166 108 105 155 105 27 0 69.5-32t42.5-55-29-64q-32-43-58-43-11 0-51 20.5t-51 20.5q-9 0-36-28 0-11 29-32 53-22 104-22 13 0 108 25.5t107 25.5q15 0 31-6t19-6v-37zM714 936q3 9 3 18 0 26-38 54-4-6-11.5-19t-13.5-17q38-38 60-36z" glyph-name="uniFB69" horiz-adv-x="2969" unicode="&#xfb69;"/><glyph arabic-form="final" d="M2695 1285q0-64-219-213-184-126-228-141-7 5-15 10.5t-8 21.5q0 63 176 175 3 2 147 105 96 68 133 78 14-14 14-36zM1436 1561q0-34-78-83-89-58-484-212l-22 13q12 31 23 61 19 44 52 58 433 199 444 199h53q0-4 6-12.5t6-23.5zM2797 174q0-125-101-282-106-163-240-227-71-33-196-33-12 0-94 5t-95 5q-37 0-102 44v36q10 2 183 2 13 0 30.5 8t25.5 9q134 6 284 136 147 125 204 270l-16 17q-58-72-133-72-64 0-109 58-40 51-40 101 0 73 38 161 47 110 115 110 65 0 154-121 73-99 78-129 14-73 14-98zM1344 1275q0-163-168-203-10-3-55-23-35-15-64-15-82 0-82 72 0 60 75 152h37q2-40-9-74 5-7 20-7 21 0 44 50 27 58 31 62h36q10-25 29-71 21 6 35 57t57 66q14-29 14-66zM2020-56q0-50-44-74-127-69-299-152-178-86-196-86h-63q-13 1-13 25 0 61 199 154 117 49 234 99 56 31 157 70 25-25 25-36zM1681 200q0-87-41-149-47-71-127-71-43 0-118 24-91 30-118 67-71-67-106-88-56-34-129-34-81 0-121 45-22 26-37 84-11 45-27 45-11 0-45-36-40-44-54-53-37-24-101-24-54 0-108 13-16 4-55 40-3 69 71 146 43 45 149 122 95 70 115 97 9 12 21 67 13 62 35 108h37q12-141 56-423 4-18 37-43t47-25q44 0 99 28 70 36 70 90 0 13-35.5 215t-35.5 215q0 99 55 118 22 0 43-34l71-400q4-29 8-59 9-41 28-61 67-71 153-71 51 0 51 31 0 9-24 60-27 59-35 87-24 84-55 230-29 139-29 161 0 28 16 64 17 41 39 53h35q13-45 76-311 4-18 53-162 36-108 36-166zM995-167q0-38-15-56-41-49-151-98-119-54-361-150-15 12-24 12v34q-2 44 32 63 61 34 485 219 4-5 16.5-12t17.5-12zM2603 279q-20 61-57 79-46-46-45-58 9-10 12-22 54-18 90 1zM852 271q0 26-37 26-53-35-136-110l23-6.5t54-6.5q96 30 96 97z" glyph-name="uniFB6B" horiz-adv-x="2783" unicode="&#xfb6b;"/><glyph arabic-form="initial" d="M2866 1200q0-24-23-71h-32q-13-1-49.5 25t-49.5 26q-5 0-128-106-134-115-277-151l-14 13v37q108 80 307 253-24 24-68 78-14 20-14 54 0 51 56 136 63 95 123 95 84 0 84-151 0-70-11-109 7-13 57-64 39-41 39-65zM2221 1492q0-68-147-150-129-71-175-71t-46 36q0 27 60 62 76 44 83 51-20 26-47 26-5 0-50-24-48-25-60-37h-47q0 4-5.5 9.5t-5.5 20.5q0 24 49 77 47 49 77 62 10 4 69 4-27 0 209-24 36-4 36-42zM1453 1353q0-28-16-49.5t-35-21.5q-13 0-43.5 15t-43.5 15q-10 0-18-2-123-159-412-284l-46 14q31 49 160 140 143 100 198 168-92 91-92 118 0 59 43 131 52 84 121 84 84 0 98-97 10-61-4-130 29-21 86-72 4-12 4-29zM2896 222q0-48-24-95-29-53-67-53-54 0-270 72-75-154-283-154-47 0-83 15l-86 36q-26-16-39-108-12-99-60-143-27-25-90-25-199 0-273 307-97-92-324-155-213-60-402-60-158 0-283 56-183 81-183 250 0 34 23 98 25 69 52 106 45 57 99 62v-57q0-13-25.5-66t-25.5-66q0-110 151-178 114-52 213-52 122 0 363 55 317 72 317 171l-71 655q0 56 44 142 50 0 54-34 25-236 82-676 28-178 32-194 50-180 151-180 13 0 13-5t13-5q35 0 40 23 1 0 1 43l-143 942q11 38 42 117h48q0-59 14-94 18-45 56-297 36-238 91-351 82-168 235-168 91 0 150 42 22 35 63 99 72 111 162 201 25 25 87 25 6-5 19-15 3-6 76-149 41-80 41-137zM1310 447q0-41-52-112-49-66-84-84-27-13-95-13-45 0-127 56 26 14 111 26 69 10 104 47 0 10-18 20-56 13-111 25-45 20-45 87 0 56 67 158 74 113 142 113 19 0 38-19t19-37q0-29-32.5-63.5t-49.5-34.5q-13 0-15.5 5.5t-15.5 5.5q-16 0-26-15-8-12-15-23 8-48 109-61 96-10 96-81zM2691 1365v57q-22 23-47 23l-13-12v-37q34-31 60-31zM2732 270v35q-21 45-46 45-35-17-35-46 0-34 81-34zM1289 1513q-34 34-58 34l-24-25 34-34h37q0 9 11 25z" glyph-name="uniFB6C" horiz-adv-x="2898" unicode="&#xfb6c;"/><glyph arabic-form="medial" d="M6073 1569q0-90-105-181-98-85-177-85-12 0-41.5 10t-40.5 10q-14 0-39-28-48-50-51-53h-47q14 88 53 137 21 23 92 62 16 2 40 7 46 65 91 130 62 83 132 83 93 0 93-92zM5950 247q0-180-45-204-24 0-35 14-27 176-77 503-14 86-54 294-35 181-35 192 0 48 64 132h37q24-177 86-525 59-270 59-406zM5027 1439q1-17-23.5-52.5t-49.5-50.5q-22-13-464-242-345-178-561-334h-35q-13 13-13 35 0 77 143 172 88 50 178 101 212 136 433 247l368 182q15-12 24-12v-46zM4864 826q0-166-208-224-18-5-65-28-39-19-54-19-72 0-72 72 0 40 39 106 40 70 67 66 0 1-4-94l18-18q32 3 51 49 32 77 37 84h36q10-28 37-70 20 45 71 142 47-24 47-66zM3737 1347q1-29-658-402h-36q0 4-5.5 12t-5.5 23q0 54 43 82 84 55 420 246 138 78 218 107 14-12 24-12v-56zM5489 258q-13-144-91-189-45-26-154-26-76 0-101 5-71 16-129 77-32-50-92.5-81.5t-113.5-31.5q-12 0-59.5 15.5t-57.5 15.5q-13 0-95-25.5t-95-25.5q-12 0-103 25.5t-102 25.5q-12 0-46-15-44-20-55-23-73-23-201-23-11 0-114.5 10t-115.5 10-67-20.5-66-20.5q-56 0-144 29-109 34-154 84-126-104-310-119-156-9-311-17l-108-168q-78-114-158-164-30-18-90.5-41t-77.5-23h-110q-74 0-262 64 0 44 45 48 77-2 226 3 27 3 80 20 78 26 167 87 115 78 157 162-10 25-80 39-94 17-123 31-63 31-63 103 0 62 43 162 57 130 136 130 68 0 136-115 46-81 91-161h254q181 0 295 63 17 10 54 58 45 57 60 72 98 94 157 94 6 0 10-1 16-15 70-94 110-162 399-162 109 0 116 2 53 6 148 51 14 7 51 68 7 8 41 43 48-3 48-48 0-19-10.5-55t-10.5-43q42-28 108-28 144 0 244 184h34q22-12 22-40 0-5-18-77 14-26 41-26 75 0 125 42 14 12 24 41l17 47q3 4 52 54 29 0 44-24-1-12-1-23 0-107 143-107 9 0 53.5 5t67.5 5q17 16 17 47 0 13-54 337-15 114-52 338-2 12-25 57-22 43-22 56 0 27 36 106 38 82 60 94 34-6 43-55 3-36 6-71 11-27 37-31.5t53-8.5v-76q0-13-32-55-35-45-40-62zM3011 458q0-112-34-139-34 1-48 75-6 52-13 103-12 39-68 126-52 79-52 91 0 77 61 77 41 0 91-84 43-69 49-105 14-79 14-144zM2601 1275q1-19-134-109-225-148-412-262-9-2-22.5 12.5t-13.5 32.5q0 58 35 82 117 81 300.5 191.5t202.5 109.5h44v-57zM2162 437q0-35-22-112-28-96-62-118-5 78-9 156-7 92-44 153-4 7-47 64-32 40-32 57 0 18 17 48 18 33 35 33 61 0 116-124 48-105 48-157zM1373 795q0-29-35.5-63t-61.5-34q-11 0-47.5 20.5t-49.5 20.5q-11 0-58-41t-60-41q-39 0-83.5 33t-44.5 54q0 38 27.5 67.5t59.5 29.5q11 0 47.5-10t49.5-10q36 0 60.5 41t47.5 41q19 0 83.5-45t64.5-63zM1865 268q0-114-46-182-21-30-103-68t-132-40q-50-14-133-34-207-34-411-34-537 0-537 241 0 63 35 132 41 80 106 107 3-44-7-84-11-45-11-68 0-109 223-153 114-22 243-22 128 0 352 42 239 44 308 88-5 52-65 122-58 66-58 102 0 34 16 64 18 33 46 33 60 0 123-116 51-96 51-130zM1466-166q-16-46-18-51-14-31-37-44-145-86-452-207h-34q-12 2-12 25 0 75 128 135 85 33 171 67 127 71 229 100zM5960 1512q0 24-14 26-32-28-40-71 54 22 54 45zM3501 176v37q-9 20-33 45-36-18-36-49zM2530 149q-45 67-67 78l-24-12v-46q60-40 91-20z" glyph-name="uniFB6D" horiz-adv-x="5944" unicode="&#xfb6d;"/><glyph arabic-form="isolated" d="M4995 1350q-187-158-537-300-15 15-15 36 0 61 34 82 113 74 472 239h46v-57zM4382 1496q0-102-95-176-82-65-161-65-11 0-36 5.5t-36 5.5q-13 0-41-24-41-34-47-38-14 15-14 41 0 53 52 117 26 31 103 38 18 43 61 107 65 96 116 96 43 0 70.5-32t27.5-75zM3870 1562q0-48-115-114-103-60-137-59h-83q-5 9-14 24 7 10 104 84-12 24-52 24-14 0-47-22-38-24-50-29-8 2-26 14 69 160 174 160 48 0 235-53 0-3 5.5-8.5t5.5-20.5zM4238 292l-20-108q-17-71-69-96l-125 936q-3 7-3 16 0 51 57 132h36zM5027 226q0-137-107-289-174-248-466-248-35 0-244 53-1 6-13 23 18 36 52 36 12 0 58.5-4.5t58.5-4.5q113 0 254 77 182 100 294 276l-6 46q-77-72-117-72-62 0-106 62-37 53-37 107 0 70 40 158 51 113 129 113 75 0 149-154 61-128 61-179zM2969 1828q0-9-15-49-16-11-203-118-60-34-288-160h-34q-13 14-13 31 0 66 122 132 78 37 157 74 72 40 216 121h44q14-13 14-31zM2989 1321q0-44-43-63-240-105-281-105h-42q-1 27-5 74-48 45-48 74 0 46 74 126 78 84 135 84 22 0 54.5-26.5t32.5-50.5q0-17-25.5-47t-40.5-30q-9 0-71 32-8-5-27-17v-20q41-36 77-36 46 0 197 31 13-2 13-26zM3685 1037q-10-40-46-106l-32-19q-24-14-24-30v-258q0-13-41-132.5t-41-131.5q0 9 12-40 60-87 60-196 0-87-44-105-81-32-239-56-120-18-163-18-127 0-127 81 0 40 26 67 23 26 51 26 12 0 19.5-5.5t21.5-5.5q52 0 142 89 88 86 88 127 0 68-192 277-187 203-233 203-10 0-37-15t-45-15q-86 0-141 71-49 63-49 144 0 92 87 92 138 0 375-241 158-161 304-363 18 0 30 18 30 103 30 182 0 66-7.5 199t-7.5 200q0 22 83 158h36q3-44 15-126 5-19 36-36 43-24 53-35zM2416 1242q4-62-145-156-141-87-209-87h-53l-12 13v37q64 34 194 111-6 24-47 24-23 0-167-72v45q-1 15 36.5 66.5t66 67.5 116.5 16q129 0 220-65zM2549 216q0-54-59-196-129-310-422-310-23 0-138 28-111 28-127 36 0 48 45 48 13 0 59-5t59-5q60 0 86 3 103 9 254 148t151 222q0 31-33 79-14 19-85 81-46 41-46 86 0 46 34 97 100-28 166-136 56-93 56-176zM1310 795q0-35-36-61-29-21-50-21-40 0-128 62-6 26 25 74t56 48q48 0 90.5-35t42.5-67zM1904 513q0-223-357-321-236-66-434-56-5-13-34-125-21-83-50-125-47-68-199-134-150-63-252-63-153 0-248 75-105 82-105 232 0 56 77 175 79 123 127 130v-45q0-14-46-102.5t-46-101.5q0-99 94-155 75-44 168-44 113 0 236 45 158 57 158 149 0 101-61.5 196t-61.5 106q0 24 22 64 24 43 45 43 20 0 72-66t97-66q41 0 249.5 179t267.5 179q72 0 163-41 118-51 118-128zM1618-183q0-57-64-94-102-58-266-134-159-73-179-73h-44q0 4-5.5 9.5t-5.5 20.5q0 16 15 43t29 35q149 68 452 218h55q13-1 13-25zM4278 1430v29l-46 11q-12-12-45-81h37q17 8 54 41zM4842 316v45q-34 34-58 34-23-24-23-46 0-46 46-46 22 0 35 13zM1750 428v36q-134 54-173 54-42 0-150-85t-116-118h85q21-1 114 20 99 22 155 43 49 17 85 50z" glyph-name="uniFB6E" horiz-adv-x="5036" unicode="&#xfb6e;"/><glyph arabic-form="final" d="M2133 1394q-27-73-205-167-289-152-311-166h-34q-14 13-14 46 0 47 27 62 158 79 469 250h44zM1303 1412q0-32-234-173-170-102-336-188 0 3-6.5 16.5t-6.5 28.5q0 57 25 73 240 147 533 301 15-12 25-12v-46zM2143 257q0-159-85-306-96-168-256-228-34-13-145-13-123 0-302 64 26 48 51 48 13 0 59-10.5t59-10.5q12 0 37 9t35 9q117-2 273 121.5t172 233.5q4 7-5 16-63-71-103-71-78 0-123 74-36 60-36 135 0 46 35 125 46 106 114 106 99 0 167-126 53-99 53-176zM1293 185q0-11-23-51-26-44-30-56h-83q11 1-235 62-20-82-128-129-83-35-161-35-51 0-106 26-72 33-81 91-35 212-82 601-43 347-43 377 0 46 43 132h36q53-99 67-393 9-204 41-347 14-112 28-223 27-101 154-101 100 0 162 71 48 73 97 148 121 180 201 180 51 0 68-65 75-300 75-288zM1978 304v47q-52 54-78 54-33-34-33-45 0-18 23-41 25-27 54-27 14 0 22.5 6t11.5 6zM1129 274q-22 83-22 79h-36q-36-34-32-58 61-21 90-21z" glyph-name="uniFB6F" horiz-adv-x="2156" unicode="&#xfb6f;"/><glyph arabic-form="initial" d="M3814 1488q0-32-180-147-165-105-277-153-14 14-14 41 0 69 82 114 63 30 125 61 80 62 238 142 15-12 26-12v-46zM3394 1420q0-45-102-131-107-91-180-91h-42l-13 13v47q44 22 143 94-20 20-77 20-1 0-124-61-14 14-14 30 0 67 77 110 59 33 107 33 66 0 138-23 66-20 87-41zM2893 1484q0-58-216-183-196-113-282-134-14 14-14 41 0 56 157 140 81 39 162 77 80 49 135 90h45q13-13 13-31zM2718 742q0-27-43-64-41-33-59-33-37 0-76 33-36 31-36 49 0 33 35 67.5t62 34.5q21 0 69-34.5t48-52.5zM3712-271q0-25-37-64-38-44-71-44-31 0-74 30t-43 58q0 23 32 64 35 43 65 43 23 0 75.5-33t52.5-54zM2269 1188q0-15-23-62h-63q-13 0-31.5 15.5t-31.5 15.5q-7 0-109-89-107-92-343-178-5 6-17 13.5t-17 12.5q51 50 187 131 121 72 191 156-7 11-55 61-36 37-36 52 0 21 36 94t48 80q76 46 105 46 45 0 82-43 22-26 22-75 0-52-25-131 25-25 50-51 30-31 30-48zM3374-353q0-32-33.5-64.5t-63.5-32.5-112 41q-23-23-45-46-28-26-58-26-23 0-63 26-45 29-45 56 0 37 45 73 36 29 47 29 12 0 50.5-20.5t52.5-20.5q9 0 51.5 41t56.5 41q24 0 70.5-40t46.5-57zM3661 287q0-64-66-203-25-54-165-54-88 0-107 7-40 14-139 96-2-1-87-67-60-46-117-46-11 0-24.5-5t-26.5-5q-77 0-122 52-73 85-83 91-33-30-101-78-109-55-165-55-152 0-200-17 16-21 47-66 45-79 45-167 0-72-44-132-49-68-125-68-22 0-77 19-62 22-90 47-54 47-101 183 3 27-6 71-23 30-67 87-9 3-53 3-13 0-94.5-5.5t-94.5-5.5-133 15.5-133 15.5q-24 0-44-30.5t-70-30.5q-209 0-306 112-87-102-277-102-246 0-291 307l-28 454q-4 67-17 206-5 31-28 115-20 77-20 90 0 28 54 107h36q50-83 71-281 14-174 30-347 7-113 15-226 9-128 48-186 52-76 176-76 151 0 208 110 23 43 85 97 68 59 107 59 33 0 60-25 35-46 112-126 20-19 80-51 130-43 311-43 196 0 259 32 13 8 59 118 58 135 98 197 66 103 132 103 45 0 79-78 28-65 28-116 0-50-41-144-38-89-61-107 9-5 56-5 63 0 216 38 149 37 170 55 46 55 146 143 15-13 24-13 0-55-18-100 79-63 106-74 20-8 83-8 40 0 100 19 79 25 79 63 0 13-25.5 154t-25.5 153q0 55 32 121 8 1 25 12 35-63 57-184 16-89 31-178 18-68 80-107 51-33 108-33 107 0 107 47 0 12-46 79t-46 79q0 40 19.5 81.5t41.5 41.5q48 0 100-115 44-95 44-120zM1275 1393q0-67-207-167-119-66-360-191h-34q-13 13-13 40 0 51 43 78 120 73 308 171.5t208 98.5h42q13-14 13-30zM2113 1321v48q-6 11-21 33h-35q-2-1-3-2-11-8-11-23 0-38 70-56zM2197 323q0 31-46 76-36-25-78-89-45-70-43-104 51 24 101 50 66 36 66 67zM2238-198q-31 37-105 58-49 14-99 27v-34q-1-29 54-65 53-33 88-33 13 0 34 13 24 15 28 34zM1101 144q-44 89-67 112-12-7-35-22v-48q48-43 68-42h34z" glyph-name="uniFB70" horiz-adv-x="3647" unicode="&#xfb70;"/><glyph arabic-form="isolated" d="M3465 1443q0-68-187-176-128-70-255-140-64-44-114-68h-36q0 4-5.5 10t-5.5 21q0 68 192 177 115 60 229 121 110 78 168 90 14-14 14-35zM2135 1693q0-47-101-112-58-33-117-65-208-120-339-191h-35q-13 14-13 36 0 67 127 119 5 3 173 92 99 56 290 152 15-14 15-31zM3486 224q0-154-107-301-112-155-276-203-9-2-139-2-199 0-286 43v47q10 2 209 2 51 0 131 33 120 49 233 141 146 118 135 215-13-6-62-37-40-25-53-25-80 0-130 64-44 56-44 126 0 48 44 144 52 116 110 116 105 0 177-153 58-120 58-210zM2676-48q0-48-36-77-12-10-141-48-72-21-173-88h-47q0 8 4.5 40t4.5 46q0 13-25.5 56.5t-25.5 56.5q0 42 88 128t86 122l-133 838q-2 11-2 26 0 103 56 150 7 0 33-17 38-178 103-561 31-223 31-328 0-17-15-78-15-57-12-84 2-18 26.5-47.5t24.5-41.5q0-29-21.5-50.5t-49.5-21.5q-13 0-39.5 15.5t-35.5 15.5q-17-17-17-25 0-58 97-46 6 0 88.5 9.5t130.5 9.5zM1612 992q0-57-133-147-126-83-180-83h-52l-13 12v38q51 28 153 99-11 15-57 15-36 0-49-8-6-5-71-64-5 0-18.5 5.5t-18.5 5.5v34q-1 17 33 61t61 63q36 26 131 26 12 0 202-32 12-1 12-25zM2800-339q0-16-15-43-18-30-39-40-100-47-473-147-15 12-25 12v33q-1 17 19.5 43.5t34.5 30.5q52 16 251 83 157 54 172 54h63q12-2 12-26zM2022 311q0-266-194-266-87 0-137 30.5t-58 30.5q-13 0-44-27-38-34-51-41-33-18-174-37-130-17-202-17-147 0-199 32-68 41-136 204-36-46-118-111-31-13-151-13-75 0-98 6-66 14-66 71 0 43 71 132 66 82 106 104 21 12 112 58 4 2 76 56 4 24 4 48 0 28-5.5 70.5t-5.5 57.5q0 54 47 83 31-29 62-105 29-154 57-308 59-222 223-222h87q146 0 265 33 29 8 99 51 65 39 77 39 7 0 75-30.5t98-30.5q11 0 37 4t41 4v77q-19 65-66 339-5 43-61 317-2 10-26 43-21 29-21 60 0 80 74 209h45q16-14 16-64v-71q23-20 49-28 41-12 60-21 6-45-32-111-39-68-39-77 0-13 51.5-289.5t51.5-289.5zM1787-267q0-22-33-63-34-45-60-45-12 0-58.5 26t-59.5 26q-12 0-43-36t-59-36q-30 0-72 30-45 33-45 62 0 34 36 70 33 33 55 33 14 0 57-26t56-26 51.5 41 51.5 41q33 0 79-41 44-38 44-56zM936-82q0-53-53-85-98-57-270-134-163-74-184-73h-53q-13 2-13 26 0 10 23.5 50t31.5 42q197 71 472 198h34q12 0 12-24zM3310 333q2 18-19.5 44.5t-46.5 36.5q-34-36-34-57 0-15 5.5-23t5.5-11q38 0 64 5t25 5zM803 312q0 65-13 91-81-35-222-129 54-14 87-14 63 0 148 52z" glyph-name="uniFB72" horiz-adv-x="3484" unicode="&#xfb72;"/><glyph arabic-form="final" d="M4575 1509q0-93-128-185-113-81-184-81-13 0-21 5t-20 5q-14 0-42-23-46-36-49-38h-35q-12 2-12 25 0 39 165 171 27 21 76 88 54 76 79 101t64 25q38 0 74-37 33-31 33-56zM4043 1514q0-70-146-146-123-64-166-64-15 0-23.5 6t-12.5 6v47q46 25 143 95-22 21-57 21l-123-62q-15 14-15 31 0 68 74 109 56 34 110 34 58 0 126-17 90-23 90-60zM4442 235q0-51-42-178-8 0-26-12l-167 998q0 10 53 117h37zM3459 1431q0-78-598-351h-36q0 4-5.5 12t-5.5 23q0 53 34 72 136 79 336.5 180t219.5 100h55v-36zM3961 296q-10-271-343-271-12 0-59 10t-59 10-26-20q-16-23-28-28-27-13-84-13-105 0-237 23-17 3-62 69-32-21-109-59-63-23-135-23-139 0-755-34-1-1-33-95-23-69-62-76-19 10-19 77v90q-16 17-90 51-68 31-106 79-103-122-281-122-191 0-282 86-84 80-121 274-6 14-21 38-14-15-73-63-45-38-64-77-22-81-78-235-25-51-82-119-66-79-111-96-118-44-187-44h-76q-24 0-109 29-88 31-106 46 3 48 40 48 13 0 59-15.5t59-15.5q152 0 306 125 153 121 181 258-72 44-72 108 0 92 61 92 10 0 24-5t28-5q73 0 140 100 18 47 56 135h36q22-23 29-32 27-55 44-168.5t42-161.5q41-80 140-116 35-13 167-13 44 0 119 27 25 5 63 32 13 32 47 94h35q18-25 25-104 171-59 198-59h51q51 0 269 189t310 189q53 0 121-22 73-27 103-61 4-15 4-31 0-58-39-143-28-57-57-115 6-6 21-6 28 0 107 17 97 21 141 46 11 6 92 116 72 97 115 97 14 0 95-61 114-88 134-101 35-24 89-30 124-13 149-13 163 0 163 72 0-9-75 432-8 89-41 247-2 6-23 48-15 29-15 46 0 33 27 106 31 86 60 94h35q12-20 17-71t17-68q21-29 78-24 2-8 2-17 0-48-72-164zM1002 1180q-8-31-16-63-10-27-41-27-10 0-52 20t-55 20q2 0-128-103-141-112-214-152h-45q-3 9-12 24 46 53 136 132 111 96 151 136-11 17-40 37-47 32-48.5 33t-8.5 18q-6 15-6 29 0 67 54 137 59 78 131 78 89 0 89-115 0-32-8-73l-8-40q45-36 121-91zM2476-190q0-45-36-68-104-65-286-154-176-85-196-85h-54q0 4-6 10t-6 21q0 64 45 87 115 62 282 139 173 81 192 81h42q8-5 15.5-10.5t7.5-20.5zM1278-375q0-25-43-59-39-32-54-32-13 0-61.5 20.5t-61.5 20.5-48.5-31-48.5-31q-39 0-70.5 25.5t-31.5 56.5q0 33 45 70 41 32 62 32 11 0 43-20.5t44-20.5q13 0 51.5 36t50.5 36q32 0 79-41 44-40 44-62zM4452 1430l-13 48q-80-24-87-91 15 6 49.5 22t50.5 21zM3274 169q-29 91-76 91-15 0-23-6t-12-6v-46q17-18 33-33h78zM2711 299q-24 5-86 25-54 18-67 18-58 0-152-74-88-68-124-130h45q21 0 138 32 124 33 192 62 18 7 36 30t18 37zM806 1316q0 5-5.5 24t-5.5 24q-4 0-17.5 5.5t-18.5 5.5l-23-28q0-3 5.5-14.5t5.5-16.5h59z" glyph-name="uniFB73" horiz-adv-x="4449" unicode="&#xfb73;"/><glyph arabic-form="medial" d="M3226 1476q1-42-190-145-122-65-235-114-36 13-36 50 0 17 31 47 29 29 55 41 336 169 339 169 15 0 23.5-6.5t12.5-6.5v-35zM2244 1820q0-54-54-88-92-61-245-141-149-78-168-78h-53q-13 14-13 31t15 44 29 33q270 132 441 229h36q0-4 6-9.5t6-20.5zM2929 1006q0-42-62-103-54-53-165-91-103-36-182-36-12 0-64.5 10t-63.5 10q-38 0-110-100h-48v32q0 26 65 117 69 95 103 95 13 0 72-20.5t72-20.5q82 0 178 37 99 37 158 95h35q12-1 12-25zM2233 1335q-30-64-54-75-9-4-125-32-97-24-152-62h-46q0 10 4.5 36t4.5 40q0 12-20.5 38t-20.5 39q0 44 75 119t124 75q36 0 65-30 23-26 23-41 0-39-52-87 16-13 79-3t95-17zM2704 484q0-106-53-178h-38q1 10 6 33 4 21 4 33 0 74-14.5 121.5t-64.5 107.5q-44 54-44 63 0 19 19 48 22 33 47 33 65 0 108-123 30-90 30-138zM3165 305q0-40-24-110-29-80-61-92-252-95-621-95-193 0-282 39-156 69-163 273-13 92-34 276-8 129-37 379-3 15-26 51-22 33-22 47 0 23 40 69 38 43 47 43 30 0 52-59 15-43 18-78 12-180 24-361 18-209 47-355 32-160 357-160h177q23 0 397 79 0 4 4.5 9t4.5 19q0 9-61.5 94t-61.5 106q0 2 33 102h45q147-103 147-276zM1537 1602q0-32-42-84t-84-74q-142-74-217-74-15 0-23 5.5t-11 5.5v37q54 34 162 101-21 25-51 25-13 0-54-27-46-29-66-34-13 1-13 25 0 26 44 86t72 69q14 4 58 4 59 0 135-25 68-21 90-40zM3195-201q0-44-43-75-34-23-59-23-14 0-44.5 20.5t-42.5 20.5q-10 0-40.5-30.5t-51.5-30.5q-36 0-77 26t-41 51q0 29 43 73t65 44q10 0 40.5-20.5t46.5-20.5q13 0 49 31t48 31q24 0 64-32 43-35 43-65zM902 1661q0-49-193-158-125-66-251-133-9-1-23 12t-14 29q0 51 104 113 62 31 124 63 68 34 206 110h34q13-14 13-36zM1772 305q0-51-31-115-38-79-96-79-13 0-131 25t-131 25q-37 0-129-35.5t-178-35.5q-79 0-106 7-42 11-142 65 5-98-12-293-12-55-99-143-28-27-148-71-126-46-189-46-65 0-168 33.5t-125 60.5q-14 18-43 89-32 81-32 119 0 87 38 151 38 62 76 123 25-11 70-20-72-165-72-167 0-215 303-215 72 0 180 48 128 56 132 126l-144 1042q-3 9-3 21 0 25 57 154h37q14-168 55-361 34-118 82-349 9-77 96-146 81-64 147-64h57q36 0 42 37 0 47 17 143 6 18 34 70 24 43 24 57 0 7-28 44 0 9-6 41-7 29-7 43 0 107 67 107 55 0 249-136 149-105 201-151 14-13 35-90.5t21-113.5zM2028 1352l-34 37h-36q16-37 70-37zM1668 285v48q-67 68-139 104 0 3-5.5-31.5t-5.5-77.5q44-9 150-43zM1414 363v61q0 18-31 43-28 22-41 22-16 0-43.5-35t-27.5-53v-37q71-27 143-1z" glyph-name="uniFB75" horiz-adv-x="3533" unicode="&#xfb75;"/><glyph arabic-form="isolated" d="M4857 1493q0-80-105-161-96-75-167-75-10 0-34.5 10.5t-36.5 10.5q-15 0-51-29-46-35-63-43-14 15-14 41 0 38 49 92 39 42 66 57 19 10 72 16l78 116q58 78 104 78 39 0 73-45 29-39 29-68zM4412 1430q0-41-114-116-107-69-138-69h-52q-24 24-24 35 0 22 93 83-15 15-32 15-23 0-74-50h-57q9 73 64 131 51 52 94 52-9 0 206-35 34-21 34-46zM4785 413q0-87-24-176-10-36-69-164-55 22-77 33 70 103 78 189l-113 706q8 39 54 133h36q6-12 19-34 96-627 96-687zM2692 1547q0-57-63-90-66-36-133-72-109-60-320-191h-34q-13 14-13 31 0 19 18 55 18 41 35 52 76 52 220 126 170 87 232 125h45q13-14 13-36zM4371 303q0-110-94-211-7-8-133-40-139-36-199-36h-39q-160 0-337 130l-348 270q-3-15-3-33 0-19 6-65t6-71q0-95-79-155-32-25-156-46-111-20-180-20-89 0-130 13-29 10-85 57-50 43-62 43-8 0-59-43-54-47-87-57-78-22-223-39-116-14-153-14-116 0-171 23-21 9-70 52-43 37-56 37-12 0-38-22-28-24-37-26-136-36-271-72-171-43-278-43h-103q-179 0-335 70-207 93-207 267 0 41 54 151 31 63 95 85 15-15 15-31 0-13-20.5-69.5t-20.5-68.5q0-123 183-190 137-51 287-51 123 0 445 78 45 10 89 20 60 15 94 37 13 9 38 56 31 58 44 75 7 0 33-16 9-22 3-69-9-65-9-63 0-67 221-67h102q35 0 131 16 128 20 195 48 27 11 77 66 42 45 78 45 12 0 45-34 43-44 61-57 44-32 135-32h97q78 0 192 42 12 9 29 26-18 109-208 322l-130 138q-51 60-51 116 0 125 98 222 74 74 222 147 117 54 235 108 150 76 401 185 249 106 268 106h65v-47q0-24-25-63-27-42-141-92-185-80-635-286-94-41-188-83-178-88-178-140 0-21 163-152 139-112 278-223 76-49 230-167 106-95 177-128 86-42 207-42-22 0 290 43 14 8 37 24-8 139-95 603-4 16-22 69-16 47-16 60 0 35 37.5 104.5t61.5 79.5q29-38 36-105 15-15 43-28 37-16 47-22-6-33-34-110-27-72-27-83 0-12 41-261t41-261zM2579 610q0-44-47-77-37-25-60-25-38 0-108 43 5 21 21 67.5t20 67.5q-81 73-81 93 0 27 34 67t57 40q25 0 78-36 51-36 56-50-4-13-62-94v-28q28-15 58-32 34-20 34-36zM3562-60q0-55-33-74-107-59-289-140-176-78-196-78h-53q-12 2-12 26 0 62 104 113 88 34 175 69 99 44 290 120 14-15 14-36zM2129 574q0-110-57-159-23 22-29 94.5t-20 103.5q-15 34-81 114-59 70-59 82 0 19 13 45 17 32 43 32 18 0 60.5-32.5t62.5-61.5q67-90 67-218zM1238-290q0-45-82-103-48 0-89 30-44 31-44 73 0 31 32 68 30 34 50 34 32 0 82.5-39.5t50.5-62.5zM1503-399q1-28-36-52-59-38-277-135-210-93-225-93h-62q-13 13-13 36 0 17 14.5 41.5t29.5 30.5q284 114 545 229 14-11 24-11v-46zM4744 1447q-25 25-27 25-34-17-54-60h37q17 13 44 35z" glyph-name="uniFB76" horiz-adv-x="4551" unicode="&#xfb76;"/><glyph arabic-form="final" d="M1393 1653q0-51-231-176-177-96-257-125-14 14-14 46 0 46 86 98l142 72q72 42 216 121h35q23-24 23-36zM1331 1157q0-31-42-70-38-33-50-33-10 0-36.5 15.5t-40.5 15.5q-12 0-56-36t-56-36q-44 0-117 54 3 42 24 77 28 44 73 44 11 0 37.5-10.5t38.5-10.5q20 0 48 36t70 36q24 0 65.5-30.5t41.5-51.5zM871 1536q0-74-151-157-106-58-183-79-14 12-23 12v36q55 41 163 122-13 14-57 14-45 0-83-41-43-47-95-60v44q0-4 12 44 105 147 217 147 24 0 176-35 24-15 24-47zM1526 261q0-132-119-204-92-57-199-57-182 0-248 146-7 11-24 28-6 0-16-3-46-69-196-128-137-53-232-53-184 0-184 117 0 86 57 108 58-51 153-51 116 0 218 33 134 45 155 131l-82 389q24 59 46 82 56-61 89-207 50-225 56-243 44-129 134-173 4-2 80-2 210 0 210 92 0 25-26 51-27-15-76-56-19-15-62-15-51 0-102.5 54t-51.5 104q0 64 47 159 55 113 122 113 90 0 161-125 22-24 55-84 35-113 35-206zM1311 432v46q-34 33-58 33-34-33-34-46 0-23 11-23 50-25 81-10z" glyph-name="uniFB77" horiz-adv-x="1536" unicode="&#xfb77;"/><glyph arabic-form="initial" d="M3116 1277q0-29-278-191-205-119-341-181-15 12-24 12v32q-1 31 23 64 552 321 566 321h54v-57zM2573 1493q1-23-46-72-70-73-189-118-104-40-189-40-12 0-74.5 15.5t-73.5 15.5q-13 0-54-33-52-44-78-58v64q-1 20 59 95.5t83 75.5q13 0 40.5-18.5t36.5-20.5q75-13 92-13 71 0 182 44 120 48 186 109 15-11 25-11v-35zM3332 229q0-27-75-119-17-4-74-4-13 0-59 5t-58 5q-30 0-229-68-216-75-365-75-76 0-109 10-57 17-103 74-31 39-59 258-10 125-41 369-6 43-39 199-29 136-29 150 0 44 55 117 49-15 66-99 8-65 15-130 20-115 52-389 12-179 51-307 6-22 31-45t43-23q15 0 53 64 50 85 81 118 58 64 122 64 33 0 150-48 131-55 158-62 67-15 174-23 87-5 176-10 13-13 13-31zM2912-195q0-29-36-63.5t-56-34.5q-31 0-70 24-43 26-43 53 0 26 24 62 27 46 63 46 30 0 74-31t44-56zM1970 885q0-54-66-93-56-27-111-54-66-38-246-150h-36q0 4-6 17.5t-6 27.5q0 53 190 165 117 63 234 127h34q13-13 13-40zM1008 1463q0-42-35-77-9 3-54 25-35 16-50 16 9 0-110-97-130-107-249-149l-14 13v47q83 62 266 212-14 21-71 56-42 26-42 66 0 48 50 122 59 88 124 88 98 0 98-165 0-32-3-43 90-98 90-114zM2072 214q-34-52-137-86-109-36-193-143h-36q-2 35-6 104-3 4-48 49-30 30-30 46 0 52 85 146t135 94q30 0 96-41 5-12 5-25 0-35-31-71.5t-55-36.5q-10 0-37 6t-55 6q24-43 87-43 12 0 83 11 84 12 111 16 8-6 26-32zM1612 1488q0-18-18-52t-36-47q-115-79-358-195-449-211-449-284 0-20 68-64 47-29 94-59 361-249 361-491 0-151-62-206.5t-260-82.5q-65-1-203-6-12-19-27-112-13-83-55-120-11-1-20-1-75 0-133 95-53 88-53 177 0 21 4 39-6 7-21 7-45 0-113.5-37t-78.5-62q-2-5-2-105l71-651q0-87-36-128-36 43-48 133-7 64-15 127-13 35-31 113-34 288-34 411 0 86 14 114 44 95 45 96 38 64 108 107 42 16 123 47 12 5 41 35 24 25 38 25 11 0 64-41 60-47 87-59 98-43 141-43h102q117 0 262 78-10 82-121 210-104 122-194 169-44 7-122 27-62 25-84 56t-22 95q0 72 1 80 8 49 53 132 48 87 297 220 369 197 597 304 25-24 25-51zM526 803q0-58-136-146-124-80-157-79h-64v38q46 37 143 112 6 23-37 23-24 0-100-51-10 0-24 12.5t-14 28.5q0 18 28.5 59t55.5 59q23 15 95 15 70 0 199-43 0-3 5.5-8t5.5-20zM2727 188q-98 62-123 62-17 0-58-31-44-33-44-56 0-24 13-25h84q46-1 128 50zM832 1602q0 6-10 25t-10 24h-38l-11-38q2 0 23.5-5.5t45.5-5.5z" glyph-name="uniFB78" horiz-adv-x="3340" unicode="&#xfb78;"/><glyph arabic-form="medial" d="M3939 1332q0-38-197-173-172-118-279-170-15 11-25 11v64q-1 47 454 303h34q13-13 13-35zM2986 1117q0-12-5.5-35.5t-5.5-40.5q-3 0-11.5-5.5t-22.5-5.5q-13 0-55 27-46 29-67 34-101-143-338-255l-46 10v59q77 53 154 104 90 62 142 129-8 10-58 60-34 35-34 57 0 61 74 144t125 83q8 0 13-3 22-18 43-67.5t17-70.5q-22-111-14-130 6-15 50-47 39-29 39-47zM3949 251q0-130-75-257-82-138-224-220-59-34-193-34-55 0-129 19-91 23-126 59 39 24 149 28 128 6 171.5 19t179.5 126q155 128 155 194 0 12-66.5 96.5t-66.5 97.5q0 22 23.5 65t37.5 43q58 0 117-113 47-93 47-123zM1563 1398q0-28-22-46-18-15-33-15-13 0-49 20.5t-49 20.5q11 0-103-89-130-100-272-157-24 25-24 41 0 25 79 81 48 32 97 64 59 44 121 107-30 32-59 64-23 27-23 58 0 59 60 132 63 77 119 77 81 0 81-131 0-34-6.5-80.5t-6.5-47.5q28-27 56-53 34-33 34-46zM3325 292q0-22-21-79-24-67-52-100-21-25-112-25-13 0-92 15.5t-92 15.5q1 0-95-39-60-23-135-23-13 0-82.5 15.5t-81.5 15.5q-20 0-114-25-114-29-160-60-12-7-45-73-37-76-59-106-138-184-255-214-90-23-157-23h-74q-26 0-97 17-89 23-109 50 35 35 71 35 11 0 37.5-5t39.5-5q131 0 278.5 81.5t229.5 200.5q-13 32-62 33-38-3-77-6-77 3-122 62-37 47-37 99 0 66 65 164 68 102 124 102 71 0 141.5-127.5t84.5-127.5q24 0 105 19 94 21 139 44 25 13 51 58 36 66 41 72h36q12-23 12-49 0-14-4.5-37.5t-4.5-32.5q0-20 16-34 135-24 221 33 33 23 64 89 41 89 59 114 44-3 44-51 0-20-8.5-54.5t-8.5-41.5q19-27 103-27 62 0 78 17 1 18-8 66.5t-9 75.5q0 66 44 107 26 0 34-13 56-164 56-223zM1021 1557q0-67-121-137-74-38-147-76-65-50-168-89-14 15-14 36 0 57 58 100 64 37 128 75 68 37 207 116h45q12-1 12-25zM1502 303q-32-174-88-240-59-67-183-67-12 0-106 35.5t-104 35.5q-14 0-45-23-45-32-50-35-77-44-212-44-159 0-225 76-74 88-93 257l-20 286q-61 508-61 477 0 60 66 123 37-18 42-56 55-433 55-399v-269q0-12 8.5-36t8.5-34q5-261 249-261 135 0 207.5 51t99.5 51q17 0 102.5-30.5t133.5-30.5q73 0 113 36-34 236-100 706-2 16-23 69-21 51-21 64 0 27 31 94 33 75 62 75 34 0 40-42 7-56 12-62 17-22 60-41-4-20-25-94-16-58-16-94zM1000 537q1-3 1-8 0-30-33-72t-60-42q-29 0-79 30-54 32-54 57 0 26 34 67t58 41q32 0 133-73zM2823 1312q-10 11-13 24h-35q-23-22-23-37 33-33 58-33zM1399 1553v58q-12 13-37 13-23-23-23-49 43-22 60-22zM2075 161v36q-2 3-43 44h-36q-26-53-9-71 15 0 43.5-4.5t44.5-4.5z" glyph-name="uniFB79" horiz-adv-x="3937" unicode="&#xfb79;"/><glyph arabic-form="isolated" d="M2653 1121q0-20-23-66-3 0-8.5-5.5t-19.5-5.5q-16 0-46 23-26 19-51 39-209-201-432-266-14 1-14 25 0 23 54 62 67 46 135 93 128 95 128 127 0 9-40.5 59.5t-40.5 68.5q0 42 58 116 64 84 126 84 89 0 89-163 0-26-2.5-56.5t-2.5-29.5q90-66 90-105zM2141 1387q0-58-138-151-71-41-140-82-58-34-176-119h-45q-13 13-13 35 0 63 103 124 78 44 155 87 72 53 207 131h35q12-1 12-25zM1558 1249q0-27-25.5-93t-42.5-78q-52-34-141-70-83-36-104-36-35 0-61 27t-26 60q0 29 26 85 28 60 53 74 6-36 32-113h26q22 0 44 56 14 41 17 65 5 6 22 22 21-9 38-46 16-35 24-35 32 0 44 58 12 64 49 75 25-25 25-51zM2807-312q0-32-43-62-38-25-65-25-13 0-43.5 15.5t-43.5 15.5q-10 0-49.5-36t-52.5-36q-37 0-81 37-42 34-42 60 0 18 36 58t56 40q31 0 108-52 11 8 48 49 31 33 44 33 22 0 75-39t53-58zM964 1182q0-66-36-66-12 0-43 20t-44 19h-13q-42-46-122-118-194-137-230-135h-64q17 58 133 146 96 73 194 146-6 6-62 65-41 44-41 62 0 43 55 123 60 91 119 91 51 0 68-44 3-10 10-150 2-31 7-55 23-24 64-70 5-13 5-34zM2622 205q0-44-33.5-110t-60.5-82q-57-33-136-33-32 0-115.5 40.5t-84.5 40.5q-13 0-63-28-66-37-73-40-72-33-196-33-87 0-155 22-18 13-53 35-82 49-115 148-47 142-67 173-26-18-136-110-2-20-2-45 0-21 2-64.5t2-66.5q0-147-88-222-41-36-145-87-122-60-186-60-10 0-72.5-5t-75.5-5q-77 0-169 44-113 56-145 143-34 92-34 120 0 59 96 232 22 40 72 63h37v-36q0-13-41-99.5t-41-98.5q0-91 97-154 81-50 154-50 136 0 278 44 178 56 178 144 0 48-55 204-4 12-34 71-24 49-24 63 0 33 44 97 7 0 25-4 45-41 64-47-1 1 36 1 50 0 88.5 33.5t103.5 138.5q30 0 44-22 9-14 50-188 32-134 117-197 71-52 190-52h93q12 0 117.5 56t117.5 56q-3 0 83-46t138-46q30 0 61 18v47q0 13-26 57.5t-26 56.5q0 27 55 107 46-17 80-94 29-70 29-130zM2131-405q-80-107-103-107-28 0-80 34t-52 53q0 20 38.5 64t63.5 44q23 0 75.5-33t57.5-55zM913 609q0-20-31-63-33-45-51-45-33 0-122 63-5 39 28 85.5t63 46.5q26 0 69.5-33.5t43.5-53.5zM1579-414q0-22-33-63-36-45-65-45-11 0-40 15.5t-42 15.5q-14 0-36-22-16-18-33-36-13-3-33-3-38 0-65 22-32 27-63 54 24 34 47 69 29 39 45 39 13 0 54-15.5t53-15.5q13 0 51.5 30.5t50.5 30.5q27 0 68-27t41-49zM1742-584q0-16-15.5-44t-28.5-34q-96-50-264-116-158-61-180-61h-42q-13 14-13 36 0 57 54 83 104 47 259.5 107.5t174.5 60.5h42q13-14 13-32zM2479 1283q-21 43-21 56-9 0-24.5-14t-15.5-22l35-33q10 9 26 13zM798 1402q-17-4-32.5-22t-15.5-28q24 0 45-21 3 5 3 71z" glyph-name="uniFB7A" horiz-adv-x="2619" unicode="&#xfb7a;"/><glyph arabic-form="final" d="M2623 1581q0-78-228-208-39-22-270-151-14 15-14 31 0 74 127 147 81 40 162 79 128 92 208 132 15-14 15-30zM1250 1448q0-37-23-62h-31q-14 0-42.5 20.5t-41.5 20.5q-12 0-64-47-65-58-87-73-77-42-237-136h-44l-13 13v37q84 56 166 113 107 75 172 150-72 80-72 118 0 56 40 128 48 86 114 86 109 0 109-128 0-19-13.5-64t-12.5-67q58-39 62-42 18-22 18-67zM708 1493q0-28-65-103-58-66-71-73-43-19-155-64h-34q-13 13-13 31 0 23 67 71 38 25 77 49 0 23-77 23-14 0-64-18-63-22-74-25l-21 11q43 155 215 155 12 0 203-32 12-1 12-25zM2623 250q0-21-23-82-27-68-53.5-97t-92.5-50q-54-17-82-17-13 0-85-5t-85-5q-151 0-191 23-127 76-548 398 16-105-1-243-8-59-121.5-103t-172.5-44q-9 0-48 4.5t-54 4.5q-71 0-93-14-18-13-18-47 0-4 1-13v-14q0-84-56-156-5-1-11-1-43 0-101 35-64 36-77 81-6 20-32 171-104-15-147-29-98-34-111-99l82-532v-197l-24-23q-27 0-45 23-95 533-95 642 0 90 34 200 30 100 195 164 38 8 113 27 18 6 50 68h46q57-78 129-104 49-18 145-18 162 0 323 58 5 95-109 216-107 99-215 198-117 113-117 189 0 13 8 28.5t9 23.5q22 163 211 265 143 59 287 120 260 129 564 263h36v-46q1-19-19-53-22-39-44-50-212-112-420-205-136-58-273-115-256-119-256-175 0-37 196-163 271-174 303-200 123-97 247-194 155-119 254-178 55-33 213-33 11 0 45 5t47 5q171 0 179 103l-123 823q-1 3-1 9 0 28 25 81.5t52 79.5q31-7 40-67.5t78-76.5v-18q0-29-25-72.5t-25-108.5zM1107 1626q-7 50-45 50-11 0-25-6 0-11 57-68 0 9 13 24z" glyph-name="uniFB7B" horiz-adv-x="2633" unicode="&#xfb7b;"/><glyph arabic-form="initial" d="M1957 1360q0-50-121-127-64-36-127-71-71-46-196-119h-45q-13 13-13 30 0 55 138 137 75 40 151 79 55 39 165 101h35q13-14 13-30zM1270 1467q0-75-537-394-15 15-15 41 0-23 13 66 170 105 502 322 37 0 37-35zM2253 346q0-116-346-237-290-101-396-101-210 0-288 134-26-8-31-63-9-79-13-94 63-16 127-33 98-32 98-102 0-164-289-277-222-87-371-87-164 0-280 77-135 91-135 256 0 76 2 84 95 228 191 226v-45q1-14-45-82t-46-80q0-152 136-221 99-51 238-51 93 0 237 47 128 43 188 84 0 8-17 20-229 37-229 74 0 22 50 81 30 35 59 70 24 35 24 151 0 115-25 255-98 572-98 544 0 28 67 118 31-39 72-230 32-155 99-440 19-70 72-144 71-98 147-99h87q-42 97-42 129 0 114 106 228.5t216 114.5q55 0 158-37 127-47 134-102-12-25-41-25-11 0-75.5 20.5t-77.5 20.5q-46 0-167-46-140-53-140-102 0-48 69-110 67-59 110-59 52 0 217 73 149 65 180 90h55q13-13 13-30zM851 295q0-65-78-184-7 64-14 129-8 78-34 119-31 38-62 78-37 48-37 77 0 23 19.5 45.5t36.5 22.5q64 0 122-136 47-108 47-151z" glyph-name="uniFB7C" horiz-adv-x="2261" unicode="&#xfb7c;"/><glyph arabic-form="medial" d="M2836 1638q0-43-175-145-135-75-269-150h-57q9 43 35 100 71 50 201 121 161 86 208 115h44q13-14 13-41zM2303 1625q-27-86-52-116-14-17-134-82-124-65-147-65h-54v38q74 48 203 142-21 24-61 24-14 0-63-33-63-42-76-49-15 15-15 32 0 48 63.5 110.5t121.5 62.5q46 0 122.5-23t91.5-41zM2641 1032q0-28-30-78-33-53-56-53-39 0-85 37-44 35-44 55 0 33 40 70 36 32 58 32 29 0 117-63zM1801 1642q1-49-205-172-157-94-219-118-15 11-25 11v44q0 15 21 41 19 25 33 32 49 26 202 121 125 78 139 78h54v-37zM2129 1094q0-40-18-81-23-50-58-50-12 0-51.5 20.5t-51.5 20.5q-8 0-46.5-36.5t-55.5-36.5q-41 0-107 64-3 31 29 76t57 45q12 0 48.5-15.5t49.5-15.5 51 31 51 31q18 0 102-53zM2847 297q0-125-36-163-141-144-481-144-296 0-348 352 0 1-23 47-68-53-81-64-45-40-64-77-5-11-30-105-21-84-58-141-89-135-191-186-83-41-214-41t-276 76q16 36 51 36 12 0 84-4.5t85-4.5q140 0 276 106 139 109 179 256-26 21-52 41-19 18-19 42 0 33 43 92 51 7 104 18 62 12 101 100 57 126 62 131h45q52-178 103-358 61-153 264-153 109 0 244 34 14 3 140 75 2 44-27 86-36-29-73-59-32-23-75-23-72 0-118 64-36 51-36 100 0 57 50 149 59 107 125 107 97 0 178-164 68-137 68-225zM1024 967q0-30-41-60-36-26-57-26-11 0-35.5 10t-35.5 10-46.5-36-55.5-36q-24 0-63 27-45 30-45 60t29.5 63.5 52.5 33.5q11 0 45-15t47-15 48.5 41 49.5 41q18 0 62.5-37.5t44.5-60.5zM1126 338q0-14-7-40-9-30-11-37-11-76-36.5-114t-90-67-116.5-29q-66 0-104 42-34 36-34 91 0 12 45 151 54 165 71 225 25 34 42 34 24 0 106-59 80-57 90-77 45-88 45-120zM962-77q0-52-154-141-108-62-178-89-15 12-25 12v43q-1 51 159 134 107 55 174 78 24-25 24-37zM799-332q0-57-27-74-76-49-209-114-130-63-149-63h-42q-24 24-24 35 0 56 54 83 113 53 339 168h44q14-13 14-35zM2630 452q0 42-55 70-38-37-36-58 33-30 91-12zM1024 280q-15 54-139 119-55-74-55-117 0-24 23.5-45.5t47.5-21.5q52 20 123 65z" glyph-name="uniFB7D" horiz-adv-x="2863" unicode="&#xfb7d;"/><glyph arabic-form="isolated" d="M1761 1218q0-160-219-219-10-2-55-27-40-20-58-20-77 0-77 92 0 61 67 113 24-24 24-63 3 0 5-4.5t17-4.5q34 0 64 65 32 71 54 79 14-12 24-12v-53q18-17 26-17 23 0 80 111h37q0-4 5.5-14.5t5.5-25.5zM871 1341q0-57-199-184-128-77-255-153h-34q-9 4-16.5 9t-7.5 21q0 55 122 128l146 78q162 117 230 131 14-14 14-30zM758 551q0-38-20-75-24-46-61-46-31 0-81 25-53 28-53 51 0 31 33 74.5t60 43.5q20 0 122-73zM1782-209q0-24-14-54-11-21-241.5-130t-261.5-109q-15 0-23 6.5t-12 6.5v32q0 53 218 152 281 128 286 131h35q13-13 13-35zM1813 225q0-91-23-127.5t-80-36.5q-70 0-191 44-8 3-39 27-27 21-41 21t-51-47q-22-27-79-52-54-24-85-24-30 0-40 11-31-43-46-135-15-87-58-139-59-74-192-132-122-55-211-55h-77q-74 0-178 57-99 54-112 91-43 131-43 191 0 37 69 151.5t99 123.5q37 0 37-20 0-11-71-131-22-38-22-88 0-81 76-147 74-64 154-64h93q74 0 184 44 122 49 166 108 13 18 13 89 0 72-19 120-1 1-60 113-13 25-13 48 0 57 56 112 12-7 89-104 64-80 152-80 77 0 149 83l112 152q63 83 118 83 59 0 116-134 48-111 48-153zM1659 270q-26 63-67 78-46-46-45-60 66-32 82-32t30 14z" glyph-name="uniFB7E" horiz-adv-x="1804" unicode="&#xfb7e;"/><glyph arabic-form="final" d="M3961 1493q0-63-62-133-60-66-135-94-48-2-144-17-10-2-32-19.5t-33-17.5q-1 2-2 3-11 11-11 33 0 26 28.5 73t55.5 61q18 2 51 16 18 14 61 95 36 69 94 94 11 4 38 4 42 0 68-34 23-28 23-64zM3797 342q-9-39-15-121t-16-122q-5-6-17.5-12t-17.5-12q-12 18-33 45-2 223-59 480-56 253-56 376 0 158 89 184zM2968 1463q0-21-16-52-19-35-40-35-11 0-55 31t-57 31q-1 0-172-123t-178-122h-64v37q7 6 161 121 101 74 155 142-51 50-56 57-15 21-15 56 0 54 50 123 55 77 114 77 89 0 89-114 0-35-9-86-7-45-7-48 100-74 100-95zM2938 1151q0-107-74-161-38-9-113-37-56-27-85-27-76 0-76 82 0 68 43 122h36q5-27 29-72 31 18 46 68 16 58 33 75h36q5-32 19-92 15 17 28 53 15 41 30 60 33-5 42-21 6-12 6-50zM3358 321q-15-64-30-127-21-83-75-115-24-14-88-26-74-14-97-22-30-11-50-62-17-42-33-85-47-87-80-133-64-89-134-122-80-39-104-45-34-9-113-9-179 0-271 81 38 31 76 31 13 0 44-5t44-5q82 0 156 23 48 14 177 116 158 124 158 198 0 10-46 65t-46 68q0 30 15 59 19 33 46 33-12 0 47-20.5t142-20.5q159 0 159 82 0 30-45 261-19 123-61 368-3 15-26 49-22 31-22 44 0 34 44 122t73 108q32-6 32-60-1-106-3-86 20-21 46-31 37-15 43-19-19-58-60-177zM2098 1161q0-37-45-82-13 4-46 29-31 22-42 22-1 0-126-100-136-109-280-145l-24 26q97 79 318 256-17 27-65 81-28 32-28 67 0 33 60 119 67 95 120 95 30 0 71-42 42-45 42-85 0-16-12.5-60.5t-12.5-67.5q0-8 1-15 2-11 35.5-47.5t33.5-50.5zM2375 311q0-236-159-236-107 0-205 62-17-24-59-58-129-54-171-54-10 0-65 10t-68 10-85-15.5-83.5-15.5-40.5-5-42-5q-146 0-234 82 1-102-21-293-25-97-181-169-132-60-235-60h-102q-49 0-134 51-92 55-109 106-34 104-34 150 0 56 86 192 16 26 82 53-7-25-34-108-21-66-21-80 0-104 100-159 75-41 171-41 80 0 167 25 111 31 143 85 23 40 23 166l-103 957q0 20 26 67 27 52 53 71 23-54 30-141 4-64 7-128 33-319 82-471 15-47 73-111 69-74 124-78 41-2 62-2 192 0 232 142h47q18-63 2-145-9-8 15-8 13 0 183 44 50 13 75 56 23 58 77 166h47q9-27 2-64-10-49-10-53 0-16 24-36t44-20h99l17 16q-41 82-41 127 0 17 23.5 56t43.5 56q18-15 49-95 28-77 28-99zM1288-407q-4-31-24-78-51-51-152-98-104-49-310-129-9 5-17 10t-8 20q0 62 124 120l146 56q67 38 195 99h46zM3847 1457h-47q-12-23-33-59h38q42 40 42 59zM2805 1620q-22 52-50 52l-11-37q47-24 61-15zM1963 1305q0 17-31 80h-35q-24-22-24-37 44-44 58-43h32z" glyph-name="uniFB7F" horiz-adv-x="3808" unicode="&#xfb7f;"/><glyph arabic-form="initial" d="M1637 1756q0-18-21-55-22-38-43-49-144-73-431-228h-35q-13 13-13 40 0 45 26 61 153 81 459 256h45q13-2 13-25zM1646 1226q-21-54-85-83-55-22-109-44l113-925q0-108-43-173h-37l-124 930q0 24 12 73 16 62 20 83-12 2-46-33h-43q-12 0-13 27-2 31-6 38t-41 52q-27 32-27 47 0 39 94.5 117t135.5 78q17 0 47-32.5t30-49.5q0-29-26-57-24-25-40-25-22 0-53 31h-27l-17-18q15-44 72-44-1 0 66 4t147 4zM839 676q0-25-40-69t-53-44q-35 0-79 33.5t-44 58.5q0 26 32 69.5t55 43.5q21 0 75-37t54-55zM1228 153q0-68-37-144-46-95-129-149-136-85-326-85-145 0-239 71-99 77-99 205 0 131 106 255h37q-30-152-30-168 0-199 281-199 102 0 176 32 47 20 158 97 6 62-58 203l-65 144q0 7 32 106h46q53-58 100-176t47-192z" glyph-name="uniFB80" horiz-adv-x="1567" unicode="&#xfb80;"/><glyph arabic-form="medial" d="M3705 1758q-13-53-16-63-12-33-31-45-146-84-437-259h-45q-13 13-13 30 0 31 35 76 126 68 450 261h57zM3613 1026q0-18-41.5-57t-65.5-39q-12 0-48 15t-50 15q-10 0-52-35.5t-65-35.5-70.5 35-47.5 52q0 23 34 65t58 42q12 0 49-20.5t49-20.5q13 0 58.5 36t59.5 36q26 0 79-37t53-51zM2887 1472q0-38-35-71-8 2-51 24-32 16-47 14h-12q-40-47-124-127-203-147-239-146h-54v48q46 25 163 115 153 115 153 154 0 13-27.5 36.5t-53.5 46.5q-4 36 2 97 12 37 44 82 41 59 79 71 12 4 28 4 92 0 92-158 0-56-8-72 10-25 53-60 37-30 37-58zM2918 955q0-32-32-64.5t-66-32.5q-13 0-38.5 10t-38.5 10-59-30.5-59-30.5q-30 0-65 33-31 31-31 49 0 38 42 73 35 29 49 29 13 0 44-20.5t43-20.5q13 0 59 41t59 41q26 0 59.5-31t33.5-56zM1812 1354q0-18-16-46-16-30-31-30-12 0-53 25.5t-54 25.5q-4 0-148-120-156-133-268-177-14 14-14 31 0 22 146 156 86 79 172 156-6 10-43 59-30 39-30 54 0 46 50 132 55 98 109 98 91 0 91-137 0-34-6-79-6-41-6-43 17-20 69-49 32-18 32-56zM3644 284q0-10-34-149-16-60-61-73-188-54-314-54-118 0-218 21-71 15-130 40-50 21-46 21-26 0-127-25-127-32-198-70-19-10-59-85-48-90-87-132-110-119-234-176-51-23-151-23-104 0-285 95 15 37 50 37 13 0 69.5-10t68.5-10q122 0 257 72 153 81 220 210l-9 9q-61 5-121 10-82 9-114 70-13 26-13 64 0 79 57 169 64 102 143 102 45 0 108-101 32-58 63-116 14-19 30-19h43q38 0 96.5 20.5t70.5 38.5q-5 37-6 111 6 56 34 115 89 197 217 197 65 0 108-106 29-75 29-119 0-46-61-180v-28q64-38 184-38 71 0 165 16 114 21 154 52 1 9 1 18 0 66-72.5 148t-72.5 119q0 16 54 97 83-25 140-135 51-100 51-203zM716 1375q0-72-54-142-59-78-136-78-35 0-66 26.5t-31 60.5q0 48 58 157 65 125 121 125 50 0 82-52 26-44 26-97zM1801 279q-2-146-73-216-19-19-120-39-107-22-147-49-16-12-64-92-79-132-82-136-40-62-156.5-125.5t-191.5-63.5q6 0-277 54-25 4-46 42 0 47 36 47 13 0 61.5-15.5t61.5-15.5q132 0 264 62 153 69 253 201 0 21-16 31-89-6-166 19-104 35-104 117 0 75 53 172 64 115 146 115 75 0 133-123t82-123q52 0 141 24 87 23 111 43-29 200-86 593-5 30-32 107-27 71-27 83 0 59 86 184 34-6 43-54 3-36 7-71l50-30q30-18 30-35 0-13-22-72-25-66-30-91zM716 229q0-166-79-200l-136 900q-2 69 65 143 25 0 33-13 15-114 48-328 69-388 69-502zM2710 1626v39l-47 11q0-27 47-50zM2999 338q1 26-23 80-27 61-53 61-33 0-72-53-36-49-36-75 0-19 29-48t48-29q44 0 107 64zM1637 1515v39q0 16-6 20-3 1-6 0h-37l-11-37q44-22 60-22zM2312 163q0 7-32 70h-36l-11-59 24-5.5t55-5.5zM623 1321q0 46-46 69-46-45-46-71 0-17 14-30h35q17 11 43 32zM1269 155q-45 68-79 68-34-34-34-46 0-24 12-25 47-15 101 3z" glyph-name="uniFB81" horiz-adv-x="3648" unicode="&#xfb81;"/><glyph arabic-form="isolated" d="M1195 1478q1-38-197-171-252-171-276-190h-45q-13 13-13 40 0 54 175 168 93 55 185 109 47 36 135 111h36v-67zM1381 205q0-134-103-134-70 0-128 13-21 5-70 28-44 21-57 21t-37-36q-30-43-41-53-79-64-209-64-195 0-212 126-28 203-69 576-37 341-37 367 0 81 54 149 26 0 34-13 50-197 73-566 10-179 30-275 2-10 2-21 0-9-2.5-26.5t-2.5-27.5q0-37 29-76 25-37 58-46 17-4 73-4 104 0 157 33 59 85 118 171 122 165 176 165 52 0 113-147 51-123 51-160zM1195 327h-46q-24-22-24-35 0-17 26-24 39-10 42-12 2 5 2 71z" glyph-name="uniFB82" horiz-adv-x="1387" unicode="&#xfb82;"/><glyph arabic-form="final" d="M2774 1381q0-60-106-130-71-41-142-83-76-56-404-232-13 1-13 25 0 73 35 97 101 68 287 174 215 124 295 174h36q12-1 12-25zM2220 1534q1-34-80-97-67-53-107-68-36-15-127-35-89-19-110-19-12 0-89 20.5t-90 20.5q-14 0-95-112h-37v54q-1 19 57 107 61 94 90 94 14 0 41-15 37-22 43-24 55-22 127-22 91 0 207 53 32 15 133 88h37v-45zM2948 223q0-36-63-82-19-14-54-14-14 0-75 5t-75 5q-12 0-309-82t-310-82q-156 0-225 102-68 99-71 323 0 139-39 424-38 282-38 272 0 41 43 127h37q29-72 47-287 26-306 32-351 13-116 25-232 24-151 88-184h37q27 98 111 176 87 81 178 81 40 0 138-40 126-51 161-60 127-36 362-55v-46zM2590-195q0-30-32.5-64t-59.5-34q-39 0-81 29t-42 53q0 26 33 69.5t49 43.5q25 0 79-38.5t54-58.5zM1013 1561q0-41-191-169-147-95-294-189h-35q-13 0-13 24 0 69 54 103 117 76 235 152 141 86 230 119 14-14 14-40zM1525 1002q0-53-206-184-109-64-218-127h-44q-13 13-13 35 0 57 83 104 62 33 123 66 138 112 262 141 0-3 6.5-11.5t6.5-23.5zM1637 202q0-34-103-77-67-27-135-53-27-14-92-76h-37q8 19 8 35 0 42-81.5 77t-81.5 76q0 34 105 154 111 126 166 126 32 0 65-26.5t33-49.5q0-33-37-78-34-40-50-40-13 0-37 17-34 23-36 24-4 1-45-37-1-30 56-50 45-15 82-15 13 0 72.5 20t72.5 20h75v-47zM767 777q0-22-34-63-34-45-58-45-56 0-122 63-3 10-3 21 0 40 40 78 37 33 65 33 29 0 69-27 43-29 43-60zM890 255q0-33-32-117-36-90-63-100-126-44-248-44-140 0-198 77-43 58-50 184l-6 214q-6 139-31 420-5 33-28 134-20 92-20 102 0 63 66 97 8 0 24-15.5t19-29.5q51-263 58-645 3-210 51-326 19-49 141-49t205 49q7 44-52 115-61 75-61 98 0 7 32 107h33q25 0 68.5-45.5t56.5-80.5q35-90 35-145zM2374 207q-31 53-142 53-54 0-96-24-50-28-58-75 27-14 56-14 53 0 139 24 78 22 101 36z" glyph-name="uniFB83" horiz-adv-x="2954" unicode="&#xfb83;"/><glyph arabic-form="isolated" d="M771 1430q0-65-63-93-29-13-123-27-75-12-91-34 2-23 55-213 47-177 47-242 0-42-22-121h-38q-17 91-73 304-51 191-51 201 0 71 55 157 18 27 60 49 35 18 69 36-7 4-25 19-16-11-49-40h-38v44q0 32 39.5 75t67.5 43q50 0 76-25 104-106 104-133zM832 560q0-28-34-64-31-33-43-33-32 0-73 20-55 25-55 67 0 28 26 66 27 41 56 41 32 0 79-41 44-38 44-56zM1906-344q-222-123-505-247h-34q-13 13-13 35 0 13 6.5 29.5t7.5 24.5q173 83 524 228l14-13v-57zM1804 273q0-40-30-95-35-63-72-63-13 0-123 35.5t-123 35.5q-15 0-93-78-21-20-66-38-56-22-74-35 5-37 5-73 0-208-168-315-135-85-330-85-233 0-325 125-44 60-44 137 0 160 177 330h37q-5-11-62-134-40-83-40-100 0-108 108-162 84-43 204-43 57 0 182 41 162 54 162 118 0 135-100 284-13 21-13 54 0 91 57 107 42-27 80-81 22-32 78-32 97 0 179 91 9 9 122 167 66 91 118 91 53 0 109-136 45-113 45-146zM1641 323q-30 57-59 57l-23-23v-36q77 0 82 2z" glyph-name="uniFB84" horiz-adv-x="1807" unicode="&#xfb84;"/><glyph arabic-form="final" d="M2944 1485q0-12-21-47-21-39-37-47-157-78-468-238h-35q-13 14-13 31 0 64 108 119 76 33 151 67 175 100 301 151 14-14 14-36zM2063 938q0-37-42-67-35-26-55-26-24 0-64 27-44 28-44 50 0 23 35 63 36 45 63 45 30 0 71-42 36-38 36-50zM2238 727q0-15-68-93-9-3-30-3-13 0-51 20.5t-51 20.5q-6 0-44.5-36t-68.5-36q-35 0-76 32t-41 54q0 20 34 64.5t52 44.5q10 0 113-52 35 34 62 72 7 10 35 10 30 0 82-37.5t52-60.5zM2913-311q0-32-41-69-35-33-51-33-32 0-79 36-44 33-44 46 0 32 43 69 39 33 54 33 41 0 81-32 37-29 37-50zM2995 247q0-28-27-105-29-81-47-92-58-34-116-34h-102q-52 0-105 20-64 24-82 63-12 1-48-50-45-63-128-63-13 0-44 15t-43 15q-13 0-100-25.5t-100-25.5q-12 0-85.5 15.5t-82.5 15.5q-14 0-134-30.5t-133-30.5q-107 0-207 43-51 23-71 72-2 2-92 305-86-65-115-111-14-24-25-80-12-62-21-84-74-151-179-247-114-103-227-103-61 0-176 26-130 27-161 58 0 7-11 25 19 3 184 3 321 0 513 355v26q-103 19-103 115 0 28 23 52.5t49 24.5q11 0 32-4.5t34-4.5q79 0 118 70 43 82 85 164 26 0 33-12 51-117 69-278 16-147 87-200 55-42 176-42 171 0 217 43 13 12 73 100h36q16-66 2-126 27-17 82-17 95 0 144 43 25 23 94 131h36q1-2 2-4.5t1-92.5q0-36 45-36 62 0 90 48 58 100 82 126h46q1-31 4-85 23-19 80-39 54-19 83-19h71q72 0 72 46 0 36-60 141-57 100-82 117-39 24-79 47-35 26-35 79 0 36 18 79 23 54 59 54 89 0 257-363 1-17 13-71 11-51 11-62zM2350-224q0-25-43-84l-445-167h-52q-13 2-13 26 0 64 44 82 416 169 454 168h43q12-1 12-25zM1480-325q-6-19-39-58-36-41-54-41-12 0-58.5 20.5t-58.5 20.5q-13 0-59-41t-59-41q-28 0-66 31-36 27-36 41 0 29 43 68 39 35 49 35 12 0 55-20.5t53-20.5q12 0 56 45.5t56 45.5q32 0 118-85zM926-409q1-34-97-80-50-20-100-41-40-19-166-68-15 12-24 12v34q-1 17 34 62 285 128 318 128 15 0 23.5-6t11.5-6v-35zM753-643q0-55-44-74-291-127-351-125h-65v44q-1 28 42 52 20 11 165 58 80 30 241 79 0-3 6-11.5t6-22.5z" glyph-name="uniFB85" horiz-adv-x="3009" unicode="&#xfb85;"/><glyph arabic-form="isolated" d="M2192 1554q0-51-198-175l-256-152h-36v65q-1 51 195 141 36 26 281 162 14-15 14-41zM1414 1666q0-71-248-197-150-76-308-171h-45q-13 2-13 26 0 39 25 71 114 70 337 182 78 45 238 130 14-14 14-41zM2192 289q0-190-166-379-172-199-360-199-55 0-290 53-3 9-13 25 52 35 98 35 12 0 42.5-5t44.5-5q322 0 553 394l-9 36q-18-7-51-39-24-23-74-23-61 0-110 56-43 50-43 98 0 54 36 140 49 115 123 115 82 0 156-125 63-107 63-177zM1363 1058q0-18-22-54.5t-42-49.5q-19-6-56-32-14-236-48-367-5-22-33-102-24-67-24-82 0-12 26-122.5t26-122.5q0-65-15-95-11-20-103-36-205-38-287-38-148 0-148 87 0 31 23 64t48 33q13 0 33.5-5t32.5-5q50 0 135.5 89.5t85.5 140.5q0 58-190 275-195 222-266 222-10 0-45.5-15.5t-51.5-15.5q-89 0-135 69-39 56-39 136 0 123 71 123 57 0 231-124 126-91 177-137 94-86 202-212 31-55 114-172 23 11 30 47 15 74 52 409-11 51-14 164 3 28 37 82 40 62 78 76 21-14 23-67 2-64 4-69 12-26 67-53 23-14 23-41zM2008 369q-20 40-57 59-21-36-1-72zM1086 163v47q-22 23-38 23-5-11-21-40t-22-39q25 0 52 4.5t29 4.5z" glyph-name="uniFB86" horiz-adv-x="2196" unicode="&#xfb86;"/><glyph arabic-form="final" d="M2446 1567q-88-89-246-174-110-52-220-105-15 15-15 31 0 64 124 135 73 35 145 71 63 41 188 111 13-12 24-12v-57zM2262 857q1-44-23-85-26-47-63-47-108 0-108 76 0 28 23 64 27 44 64 44 22 0 107-52zM1822 1037q0-35-64-94 1-3-23-3-73 0-128 54-1 19 29 76 34 65 63 65 30 0 76.5-40t46.5-58zM2416 233q0-121-58-192-59-73-167-73-101 0-166 48t-129 167q-7 0-21-18-20-78-191-133-137-44-231-44h-66q-25 0-63 22l-64 40q-2 41 12 90 17 62 49 62 13 0 29-11 21-15 29-17 71-22 141-22 38 0 155 41 115 41 139 62 28 25 28 64l-82 380q0 59 34 128 24 0 44-33 43-157 85-315 44-160 136-299 9-5 27-16 72-23 120-23 118 0 118 52 0 10-45 62-52 59-65 83.5t-13 58.5q0 27 22.5 59.5t39.5 32.5q65 0 116-125 37-93 37-131zM2087-274q2-41-42-62-99-49-260-110-153-57-174-56h-44v44q-1 12 11 28.5t12 22.5q43 17 265 110 164 70 178 69h54v-46zM1146 361q0-82-34-155-18-37-95-63-79-26-94-50-25-65-68-174-33-82-121-169-96-96-175-107-89-14-129-14-83 0-252 34-36 7-85 52 3 48 40 48 13 0 87-20.5t87-20.5q141 0 281 94 147 98 241 268-7 8-65 59-27 23-27 54 0 6 17 50 19 49 28 58 91-31 113-31 28 0 149 49v37q0 6-109 153-4 12-4 38 0 27 14 59 16 43 43 43 29 0 87-90 54-83 57-109 14-97 14-93zM1259-437q0-20-31-56-35-41-66-41-11 0-55 20.5t-58 20.5q-13 0-51.5-36t-50.5-36q-23 0-64 31-43 32-43 56 0 23 46 62 41 36 56 36 11 0 45-16t47-16 54 31 53 31q34 0 77-37 41-34 41-50zM542-443q-22-90-54-109-67-38-186-88-114-48-135-48h-42q-13 14-13 31 0 56 23 71 72 47 202 98 116 46 140 45h65zM307-724q0-50-54-83-70-43-205-93-122-44-147-43h-41q-14 13-14 40 0 52 34 68 309 138 351 137h63q13-2 13-26z" glyph-name="uniFB87" horiz-adv-x="2402" unicode="&#xfb87;"/><glyph arabic-form="final" d="M2377 1645q0-61-35-88-87-64-247-153-152-85-173-84h-65v54q0 28 97 80 59 30 120 61 93 55 279 141 14-11 24-11zM2204 1017q-15-44-51.5-76t-65.5-32q-52 0-128 53 7 35 27 78 29 63 60 63 17 0 83-36.5t75-49.5zM1774 1631q0-44-26-66-55-44-152-95-82-41-162-83-117-64-249-130-15 14-15 36 0 46 26 65 44 36 274 157 130 69 247 141h45q12-1 12-25zM1621 904q0-35-43-73-38-35-64-35-12 0-44 20.5t-44 20.5q-7 0-38.5-41t-73.5-41q-34 0-78.5 33t-44.5 60 44 66q41 36 58 36 12 0 46.5-20.5t46.5-20.5 53 46 54 46q25 0 76.5-41.5t51.5-55.5zM976 1406q0-52-153-154-145-97-192-96h-54v47q59 43 174 131-14 15-47 15-25 0-82-36l-72-46q-24 25-24 36 0 35 72 105 75 75 127 75 10 0 87-15 86-16 128-20 36-4 36-42zM2420 295q0-84-6-107-16-62-88-135-14-14-115-38-46-18-144-45-76-13-180-13-105 0-241 36t-122 36q-13 0-24-11-16-13-26-17-53-20-154-43-91-21-114-21-176 0-317 245-118-194-456-194-91 0-120 7-74 15-74 75 0-9 33 121 3 0 8.5 5.5t19.5 5.5q12 0 28-15 20-19 31-23 28-12 69-12 82 0 223 32 202 49 202 126 0 9-46 177t-46 181q0 50 43 158h38q0-35 13-85 41-127 107-358 65-272 275-272 33 0 76 11 53 15 58 35-3 66 7 195 14 65 100 155 90 95 153 95 60 0 103-125 30-91 30-136 0-81-51-166 0-8 18-22 90-22 172-22h102q47 0 172 31 161 40 161 87 0 21-37 76-101-82-132-82-159 0-159 180 0 71 34 156 45 115 119 115 46 0 107-55 53-48 74-91 59-124 67.5-151.5t8.5-101.5zM2213 429v48q-28 16-77 42-23-47-23-55 0-17 21-31.5t40-14.5q15 0 25.5 5.5t13.5 5.5zM1662 310q0 15-28 64-30 54-49 54-30 0-75-54-43-50-43-69 0-17 34-49.5t59-32.5q19 0 60.5 34.5t41.5 52.5z" glyph-name="uniFB89" horiz-adv-x="2422" unicode="&#xfb89;"/><glyph arabic-form="isolated" d="M3424 1490q9-89-176-177-71-33-272-147-169-95-182-95h-42l-23 25q3 26 25 66 80 53 211 120 198 102 217 112 175 96 188 96h54zM2882 1546q0-53-175-138-147-71-197-78-18-3-88-3-13 0-80 10.5t-79 10.5q-39 0-60-42-27-53-63-71-15 11-24 11v43q-1 29 62 113 67 89 101 89 12 0 86-20.5t87-20.5q73 0 196 47 120 48 197 105h37v-56zM3814 265q0-40-53-81-31-24-75-24-13 0-56.5 5t-55.5 5q-59 0-285-82-240-86-267-89-86-13-190-13-227 0-295 146-16 36-68 370-20 129-51 369-3 35-26 121-22 82-22 94 0 40 65 127 17 0 43-15 32-117 71-487 33-312 100-462 15-36 70-64 52-26 95-26 76 139 127 195 75 82 167 82 13 0 220-56t220-56q-16 0 103-5 95-4 139 0 7-4 24-19v-35zM3322-178q0-37-43-73-37-29-53-29-32 0-73 24-45 27-45 57 0 36 33 69.5t64 33.5q32 0 77-36 40-33 40-46zM2238 866q0-59-54-89-140-68-412-207h-36v64q0 39 169 122 243 121 274 140h46q13-13 13-30zM1173 1542q0-21-17.5-46.5t-34.5-25.5q-10 0-39 20.5t-43 20.5-138-91q-158-115-203-145l-58 14q35 69 123 136 130 100 154 123-4 22-45 46-38 21-38 71 0 57 54 132 59 82 121 82 89 0 89-147 0-111-6-90 5-7 52-45 29-24 29-55zM2380 184q0-17-32-41-22-27-91-41-91-18-115-27-86-38-185-119h-36q0 35 19 96l-70 44q-42 27-42 53 0 67 113 178 110 109 168 109 27 0 70-26 48-31 48-61 0-29-39.5-73.5t-57.5-44.5q-10 0-39 26t-48 26q-25 0-62-38 17-55 134-55 12 0 69 15t70 15h126v-36zM1920 1593q0-21-18-60-22-46-46-60-97-53-413-186-310-131-468-220-33-18-69-72 199-153 346-345 176-231 176-403 0-38-55-136-16-28-50-41-150-54-278-54-5 0-41 1-29 1-48 0-16-86-62-255-93-7-151 71-52 70-52 166 0 39 11 72-15 17-46 17-85 0-154-42-77-46-77-111 0-13 46-312.5t46-312.5q0-71-33-132h-37q-16 45-39 137-23 120-50 346-25 201-25 228 0 11 11 70 10 61 12 83 3 56 95 124 77 58 132 72 37 3 100 26 3 1 26 33 18 27 34 27 11 0 64-47 60-52 86-64 48-23 146-23h93q67 0 184 59v27q-21 35-58 102-39 80-174 234-7 19-41 46-143 44-181 66-89 52-89 147 0 69 22 119 2 4 63 119 35 66 148 130 90 46 179 94 56 24 165 71 59 26 184 82 142 66 339 137h35q0-4 6-10t6-20zM3199 215q-21 22-21 35-23 0-67 11t-55 11q-45 0-88-31-47-35-53-90 96 14 284 64zM997 1687v36l-24 24q-26-26-26-38 23-22 50-22z" glyph-name="uniFB8A" horiz-adv-x="3807" unicode="&#xfb8a;"/><glyph arabic-form="final" d="M2806 1601q0-40-238-161-99-55-300-160-15 14-15 41 0 53 25 70 104 71 282 166 171 91 191 90h55v-46zM1977 906q-66-97-107-97-30 0-72 27-46 28-46 54 0 33 44 70 39 33 58 33 65 0 123-87zM2120 747q0-36-51-77-44-35-56-35-9 0-111 51-66-82-109-82-28 0-113 52 0 48 32.5 90t64.5 42q17 0 58-20.5t50-20.5 43.5 41 68.5 41q33 0 80-33 43-32 43-49zM2888-353q0-38-44-65-36-22-63-22-26 0-67 25.5t-41 41.5q0 26 45 73 41 44 58 44 28 0 70-37t42-60zM933 1075q0-13-14-31l-20-30q-21 5-63 35-39 26-52 26-15 0-137-99-177-143-209-167h-35q-13 13-13 31 0 35 112 129 137 116 164 152-21 28-73 68-29 23-29 60 0 53 64.5 129t114.5 76q94 0 94-149 0-10-4-34-5-30-7-46 8-12 66-85 41-50 41-65zM2908 241q0-143-55-206-31-35-205-35-167 0-237 61-24-28-88-78-60-34-136-34-12 0-59 20.5t-59 20.5q-13 0-94.5-20.5t-94.5-20.5q-12 0-90 10t-89 10q-13 0-39-12-29-14-37-15-194-34-283-34-133 0-201 62-51 46-86 157-34 106-67 211-48-36-125-121-22-35-46-110-30-96-43-125-13-15-34-40-42-117-172-178-107-50-234-50-34 0-219 53-2 9 9 26t25 19q93 5 254 37 111 43 215 138 111 102 141 201-82 71-82 104 0 24 16 63 19 44 40 44 13 0 31-10.5t30-10.5q78 0 130 83 42 81 83 162h36q30-74 70-267 30-143 76-197 65-77 215-77 124 0 138 1 94 9 151 51 19 39 84 112 35-21 35-74 0-39-19-74 17-16 56-16 86 0 182 43 26 12 65 54 35 38 70 77 25-16 25-41 0-14-10-43t-10-43q17-17 47-17 47 0 94.5 21.5t60.5 47.5q40 77 78 116h36q0-27 1-76 13-16 48-34 21-3 86-14 52-9 67-9 8 0 48 9.5t61 9.5q0 3 4 7.5t4 19.5q0 17-42.5 92.5t-82.5 129.5q-8 10-48.5 25t-58.5 36q-14 17-14 60 0 33 24 91.5t43 72.5q82-38 183-210 98-169 98-266zM2151-209q0-60-54-85-116-51-318-122-189-65-212-65-41 0-41 26 0 75 45 93 123 50 321.5 119t217.5 69q41 0 41-35zM543 1152q0-29-19.5-53t-35.5-24q-13 0-21 5t-20 5q-14 0-45-32-54-55-54-56-41-37-217-137h-36q-12 2-12 26 0 12 216 200 19 17 19 40 0 13-41 61.5t-41 61.5q0 48 50 125 59 90 125 90 78 0 78-160 0-25-2.5-53.5t-2.5-24.5q59-68 59-74zM1178-363q0-31-41-64.5t-66-33.5q-13 0-54 15.5t-53 15.5q-10 0-52.5-41t-55.5-41q-27 0-72.5 34.5t-45.5 52.5q0 21 34 64.5t53 43.5q10 0 112-51 8 6 54 63 25 29 59 29 22 0 75-36t53-51zM747 1261q0 18-5 36.5t-5 22.5h-36l-24-25q17-34 70-34zM398 1271q0 36-23 60l-25-13v-37q6 0 24.5-5t23.5-5z" glyph-name="uniFB8B" horiz-adv-x="2932" unicode="&#xfb8b;"/></font>
</defs>
</svg>
