<svg xmlns="http://www.w3.org/2000/svg"><defs><font horiz-adv-x="992"><font-face ascent="1638" bbox="-100 -969 6190 2281.01" cap-height="1457" descent="-410" panose-1="2 0 4 0 0 0 0 0 0 0" underline-position="-250" underline-thickness="100" unicode-range="U+000D-FEFC" units-per-em="2048" x-height="1405"/><missing-glyph d="M142 226v1362h700v-1362h-700zM284 368h416v1079h-416v-1079z"/><glyph arabic-form="isolated" d="M2814 1273q0-26-219-134-214-105-237-104h-43q-12 0-12 24 0 45 96 92 71 29 142 59 77 34 226 110h47v-47zM1934 1571q0-42-177-123-234-109-246-117h-35q-13 2-13 26 0 49 44 72 123 53 370 168h45q12-2 12-26zM2517 889q-27-101-146-166-103-58-207-58-9 0-64 15.5t-68 15.5-44-22q-36-24-50-29-14 14-14 36 0 31 42.5 84.5t65.5 53.5q12 0 83.5-20.5t85.5-20.5q44 0 140 35 109 39 128 76h48zM1862 1164q-11-39-73-64-46-15-94-28-35-23-116-58-4 28-17 74-3 6-27 30-21 19-21 34 0 37 64 103t100 66q26 0 56-36 26-32 26-46 0-41-67-51-20 0-41 20-15-16-15-23 33-27 114-18 87 8 111-3zM2681 246q0-55-14-119-20-79-50-93-49-23-247-47-133-18-267-18-152 0-156 1-90 10-142 64-34 36-59 164-16 79-21 155-10 87-30 256-6 55-28 180-19 110-19 122 0 47 43 112 9 0 26-15.5t19-29.5q10-62 71-491l10-144q8-103 37-151 25-43 134-69 86-21 156-21 149 0 446 59 0 4 4.5 11t4.5 22q0 11-45.5 81t-45.5 83q0 11 11 40.5t11 40.5h47q74-78 90-111 14-26 14-82zM2272 424q0-87-53-177h-38q3 120-5 156-4 21-32 79-25 52-25 65 0 10 32 76h36q85-109 85-199zM1320 1357q0-33-34-67-8 0-34 10.5t-39 10.5q-12 0-319-185-5 5-17.5 13t-17.5 13q23 22 147 128 98 85 98 97 0 11-20.5 43t-20.5 49q0 50 47 117 49 72 97 72 72 0 72-122 0-29-5-69-3-34-3-37 49-56 49-73zM2733-256q0-29-34-57-29-25-48-25-13 0-48.5 20.5t-48.5 20.5q-12 0-46-25.5t-47-25.5q-30 0-117 65 2 30 27 66 29 43 60 43 11 0 47.5-20.5t49.5-20.5q12 0 44 30.5t43 30.5q39 0 80-40 38-37 38-62zM1361 1075q0-87-82-150-71-55-143-55-73 0-73 72 0 48 35 81 33 0 54-41 12 8 68 92 25 0 45-40 25 30 70 82 26-26 26-41zM890 1443q0-27-164-126-150-91-242-129-14 14-14 30 0 89 362 266h46q0-5 6-15.5t6-25.5zM1473 205q0-20-55-103-10 6-70 44-44 28-59 28-48 0-145-32-89-29-102-42-61-58-61-153 0-29 5-75 8-57 9-71 0-4 10-40 8-28 4-44-16-46-31-70-28-48-73-67-57 38-91 149-29 99-29 209 0 30 2 55-16 17-25 17-10 0-62.5-10t-65.5-10q-125 0-201 83-22 24-30 83-4 42-9 83-26 162-26 300v253q0 11-20.5 67t-20.5 68q0 29 43 117 9 0 27-4 41-65 46-197 9-191 9-193 7-41 7-107 0-24-1.5-73t-1.5-73q0-201 93-252 41-22 116-22 81 0 135 32 23 14 51 59 33 53 53 73 19-3 47-15-4-27-14-74-23-46-68-142l9-98 18 29q95 310 413 310 164 0 164-92zM1586-343q0-24-20-53-24-34-57-34-12 0-50.5 20.5t-51.5 20.5q-11 0-44-25.5t-48-25.5q-7 0-107 63-3 32 26.5 76.5t54.5 44.5q11 0 50-25.5t52-25.5q12 0 44 31t44 31q23 0 66-44 41-41 41-54zM1207 1500q-17 34-39 34l-12-36q5-5 17.5-12t18.5-11q9 9 15 25z" glyph-name="uniFB52" horiz-adv-x="2686" unicode="&#xfb52;"/><glyph arabic-form="final" d="M2802 1275q0-74-85-149-79-72-141-72-11 0-33 10.5t-33 10.5q-15 0-46-22-36-24-49-29-5 19 23 71 27 50 48 67 23 7 68 27 10 6 73 90 55 73 88 73 19 0 51-23 36-26 36-54zM2340 1749q-8-23-24-68-58-58-206-119-124-49-246-98-15 15-15 36 0 48 170 128 132 60 264 121h57zM2290 1409q-22-106-45-157-11-22-50-41-132-64-192-64-62 0-62 76 0 47 62 129 23-30 20-76 7-6 26-6 34 0 46 40 19 65 24 72 15-5 33-13 2-15 15-50-9-8 15-8 27 0 39 39l10 60q18 23 35 23zM2689 169q0-104-45-148h-36l-93 833q0 31 45 98 49-26 53-66 76-663 76-717zM1778 911q0-27-23.5-59.5t-43.5-32.5q-41 0-107 63 0 23 23 69 27 53 53 53 30 0 64-33t34-60zM2269 143q0-82-41-153-47-82-118-82-78 0-147 65-63 59-90 140-14-8-32-38t-35-41q-72-47-196-72-13-2-99-2-127 0-183 42-3 67 11 109 8 2 17 2 27 0 93.5-15.5t87.5-15.5q52 0 160 34 142 45 142 104 0 10-26 136.5t-26 139.5q0 50 35 108 15-5 33-13 34-159 68-319 63-211 208-211 33 0 39.5 7t6.5 39q0-37-38 245-13 130-48 389-2 13-20 48-17 32-17 45 0 25 30 90 33 73 58 79 21-21 27-46-2-10-2-41 0-33 13-38 39-16 69-41-5-20-35-77-27-51-27-64t41-276.5 41-276.5zM958 1428q0-46-122-115-68-33-136-67-138-78-250-120-13 14-13 31 0 45 100 105 58 31 117 60 138 75 290 142 14-15 14-36zM2033-262q0-15-26-39.5t-48-33.5q-36-13-194-82-123-54-137-53h-45v34q0 14 16 36t28 28q129 53 381 157 15-11 25-11v-36zM672 609q0-17-23-54-27-43-54-43-25 0-66.5 35t-41.5 52 28.5 57 43.5 40q24 0 68.5-36.5t44.5-50.5zM1266 383q0-27-22-92-23-72-42-83-24-14-177-47-8-35-13-85-11-112-48-166-33-48-159-93-118-42-195-42-13 0-35 8-25 8-32 9-240 32-240 249 0 54 17 101 29 72 57 144h34q14 1 17-22 1-21-6-36-37-73-37-131 0-96 113-144 79-34 169-34 66 0 163 41 119 51 119 117 0 10-36.5 117.5t-36.5 122.5q0 35 23 81h36q23-25 46-51 27-30 40-30h59q73 0 73 41 0 10-48 65-3 12-3 42 0 18 23 87h43q17 1 52-42 46-58 46-127zM1327-379q0-24-33-58t-54-34q-11 0-48.5 25.5t-48.5 25.5q-13 0-49-30.5t-49-30.5q-1 0-86 53 3 38 21 75 23 46 55 46 12 0 39.5-15.5t37.5-15.5q13 0 46 31t46 31q30 0 78-43 45-41 45-60zM2708 1226q-9 0-24 13-28-14-40-60 51 19 64 47z" glyph-name="uniFB53" horiz-adv-x="2704" unicode="&#xfb53;"/><glyph arabic-form="initial" d="M3171 1268q0-29-25-62-128-74-378-219h-34q-13 2-13 26 0 54 197 169 151 88 239 122 14-15 14-36zM3273 152q0-41-46-73-30-20-144-39-107-17-163-67-2 22-18 63-100 83-100 101 0 52 106 141 100 84 140 84 33 0 64-33 29-31 29-59 0-19-31-55.5t-51-36.5q-14 0-47 22-38 25-50 29-6 3-16-6 9-33 53-56 39-20 70-20 10 0 58.5 15.5t60.5 15.5h73q12-2 12-26zM2269 1235q-244-138-496-248-14 14-14 30 0 48 33 68 101 60 263 141 160 78 180 78 14 0 22.5-5.5t11.5-5.5v-58zM2608 178q0-101-43-182h-37l-84 822q0 154 57 179 25-12 32-56 24-164 52-468 23-261 23-295zM1513 1099q0-18-17-39.5t-35-21.5q-12 0-50.5 26t-51.5 26q-11 0-50-50-46-57-65-70-48-34-144-84-119-63-158-63-18 0-34 16 6 4 181 124 115 81 188 162-82 101-82 123 0 39 44 104 50 75 100 75 81 0 81-114 0-53-13-85 10-18 62-70 44-45 44-59zM1533 641q-57-54-81-54-33 0-70 41-33 36-33 52 0 29 44 63 37 29 48 29 7 0 92-53v-78zM632 1222q0-49-56-111t-103-62q-35 0-86 32-2 64 28 152 43 123 120 123 46 0 74-54 23-42 23-80zM2240 157q0-43-26-89-30-54-72-54-61 0-160.5 41t-89.5 41q-13 0-37-24-27-29-38-34-67-34-135-34-124 0-195 92-35-43-114-68-100-32-108-37-17-10-39-55-32-66-35-72-26-43-114-132-28-29-98-70-79-47-116-47-57 0-164 25-122 28-158 59 0 7-11 24 25 25 41 25 9 0 81.5-15t87.5-15q104 0 209 58 122 68 195 191-75 16-151 33-85 29-85 122 0 59 41 136 48 94 113 94 57 0 114-98l68-128q207 3 241 141 10 16 31 43h37q-10-26-10-49 0-59 65-96 51-28 99-28 94 0 170 72 56 66 112 133 61 72 118 72 47 0 94-126 39-101 39-131zM612 244q0-75-25-165-9-17-28-44-8 0-26-10l-96 808q0 57 65 143 8 0 20.5-15.5t14.5-29.5q9-132 43-418 32-263 32-269zM1334 1289q-7 14-35 14 0-25 25-50 10 19 10 36zM2105 179q-5 57-64 91-39-17-57-58 4-2 27-21 16-12 30-12h64zM540 1219q-24 24-48 24-34-35-34-57 0-24 13-24h57zM1103 129q-17 29-43 79h-47q-25-44-10-70 27-9 100-9z" glyph-name="uniFB54" horiz-adv-x="3255" unicode="&#xfb54;"/><glyph arabic-form="medial" d="M1278 1461q0-39-172-146-125-78-251-155h-46q-4 62 34.5 90.5t419.5 246.5q15-15 15-36zM1247 876q0-21-38-55-50-46-51-48-4-58-11-173-1-18-26-154-6-27-33-94-25-61-25-73 0-14 19-59 24-56 28-68.5t4-62.5q0-46-4-58-6-19-39-67-190-23-321-23-59 0-127 32-2 81 23 131 100-20 104-20 37 0 111 78 69 74 69 96 0 68-182 259.5t-248 191.5q-12 0-28-5.5t-29-5.5q-53 0-100.5 44t-47.5 94q0 29 13 76 17 63 44 63 87 0 304-198 179-164 218-225 12-19 115-172 15 0 20 8 40 104 46 284 9 285 10 298 7 60 84 138 20-18 16-55-5-44 2-61 17-40 80-61v-55zM1020 106q0 26-23 50-39-18-56-48 0-1 2-1.5t77-.5z" glyph-name="uniFB55" horiz-adv-x="1258" unicode="&#xfb55;"/><glyph arabic-form="isolated" d="M3848 1328q0-44-185-163-124-80-221-129-14 14-14 31 0 53 107 122l130 74q43 26 134 89h36q13 0 13-24zM3294 1460q0-35-202-138l-272-132h-36q-12 1-12 25 0 51 201 154l296 138q14-12 25-12v-35zM3704 591q0-31-34-60-31-27-53-27-31 0-66 29-31 27-31 42 0 11 51 88-6 10-37 46-25 27-25 41 0 18 35 60t52 42q16 0 40-18 32-22 36-25-4-59-22-85t-18-42q0-9 36-43.5t36-47.5zM3233 1112q0-63-46-115-18-20-62-39-34-13-69-27-56-28-63-28-31 0-51 33-16 25-16 39 0 45 44 112 9-4 45-62 27 0 45 38 24 54 34 65 27-13 44-52 25 18 46 82 49 0 49-46zM3346 596q0-35-44-67-35-25-48-25t-54 25.5-54 25.5q-12 0-46.5-36t-45.5-36q-21 0-64 31.5t-43 50.5q0 26 33 59t53 33q13 0 49-16 43-20 62-25 49 72 79 72 28 0 75.5-36.5t47.5-55.5zM2332 764q0-30-43-61-36-26-49-26-27 0-58 23-34 26-34 54 0 23 21 54 24 33 50 33 28 0 70.5-29.5t42.5-47.5zM1779 1292q0-26-34-62-34 12-94 52-36-39-109-109-169-138-233-125v46q145 110 245 224-25 25-69 80-3 11-3 27 0 45 36 108 44 77 102 77 77 0 77-91 0-20-5-64-4-39-3-53 90-69 90-110zM3786 181q0-199-169-199-98 0-183.5 40.5t-77.5 40.5q-11 0-55-24-48-28-72-34-177-44-370-44-109 0-145 74-2 6 0 64 2 49-20 67-96 3-171-24-13-5-223-108-126-62-254-62-190 0-274 174-1-1-48.5-59.5t-180.5-95.5q-109-30-194-30-133 0-133 77 0 30 34 87 91-31 104-31 90 0 211 35 173 49 173 134 0 11-36 171.5t-36 171.5q0 32 46 123 39-40 52-112l18-128q19-88 30-127 22-81 51-138 26-51 87-86l-2-1q-2-1 1-1.5t15-.5q25 0 53 67 37 90 62 122 53 67 140 67 1 0 144.5-41t250.5-41q111 0 257 20 14-14 14-41 0-104-104-120 3-34 58-56 44-18 87-18 80 0 301 44 24 5 87 37 59 31 73 31 13 0 100.5-40.5t99.5-41.5h99q0 3 4 12.5t4 24.5q0 4-20.5 47.5t-20.5 74.5q0 41 45 108 39-19 63-75 25-58 25-135zM1718 959q0-22-26.5-54.5t-50.5-32.5q-35 0-61 25t-26 52q0 23 26.5 60t44.5 37q25 0 59-33t34-54zM2619-110q0-46-44-69-99-52-240-114-144-63-162-62h-45v44q-1 38 194 121 223 97 239 110h45q13-13 13-30zM612 1333q0-52-40-118-47-76-103-76-48 0-91 41-2 5-2 11 0 66 31 147 41 108 107 108 98 0 98-113zM591 242q-5-52-12-104-13-71-56-95l-116 865q-5 101 58 159zM1155 335q0-106-55-218-57-118-152-193t-259-75q-8 0-86.5 11t-110.5 12q-16 11-44 44 17 23 59 23 16 0 45.5-4t38.5-4q130 0 270 88 158 101 212 254 3 6-6 15-57-41-102-41-17 0-55 22.5t-49 41.5q-13 22-13 90 0 52 27 120 38 95 101 95 83 0 138-127 41-93 41-154zM1624 1437v36q-21 24-36 24l-24-27q34-33 60-33zM2322 193q-139 54-154 54-32 0-68-25-45-30-45-77 0-16 13-30h64q-9 0 146 44 17 11 44 34zM518 1332q-22 0-34 11-36-34-36-56 0-23 13-35h46q25 46 11 80zM1021 403q-18 55-33 69h-46q-12-3-12-26v-22q35-33 55-33 15 0 23.5 6t12.5 6z" glyph-name="uniFB56" horiz-adv-x="3783" unicode="&#xfb56;"/><glyph arabic-form="final" d="M2929 1303q0-68-80-132-73-57-130-57-11 0-39.5 10.5t-41.5 10.5q-2 0-64-32-13 2-13 26 0 27 45 72 27 11 80 38 10 5 73 88 55 74 83 74 27 0 57-34.5t30-63.5zM2571 1380q0-101-230-184l-77 13q32 36 123 105-5 5-46 5 7 0-115-41-14 2-14 25 0 17 31 56 29 38 54 57 19 15 90 15 65 0 171-21 13-12 13-30zM2950 193q0-74-33-153h-37l-125 853q-14 72 44 148 20 0 34-23 117-721 117-825zM2223 1042q0-35-157-142-131-89-236-144h-35q-5 69 23 90 58 47 171 113 146 85 186 113h37q0-4 5.5-9.5t5.5-20.5zM1793 960q0-13-6-26.5t-6-23.5q-3 0-13.5-5.5t-25.5-5.5q-12 0-31.5 15.5t-29.5 15.5q-2 0-137-108-143-114-218-138-14 14-14 30 0 10 276 252-18 29-61 74-10 12-10 59 0 37 36 104 46 85 107 85 80 0 80-88 0-28-9-75.5t-9-56.5q0-5 1-8 70-76 70-100zM2520 300q-10-167-78-234-61-58-194-58-64 0-123.5 35.5t-106.5 35.5q-71 0-126-23-44-20-48-22-28-14-39-33-25-44-25-103 0-38 17-128 16-82 12-125-1-30-46-70-41-37-62-37-39 0-87 132-40 109-44 159-2 25 3 82 6 66 6 89 7 8-16 8-96 0-203-34-24-7-53-75-26-63-124-163-115-116-189-116h-107q-51 0-121 18-87 23-120 58 7 13 22 33 93-28 157-28 95 0 227 80 137 82 178 170-34 22-116 26-17 1-34 4-86 17-86 119 0 43 54 141 63 115 126 115 27 0 96-122.5t108-122.5q46 0 163 23 75 14 120 59 23 23 51 71 33 58 42 71 39 0 39-45 0-13-66.5-156t-66.5-156q0-35 15-72 39 133 164 227 119 90 241 90 32 0 98-41t137-41q3 0 114 47-7 44-77 643-1 15-14 49-13 31-13 44 0 63 77 179 13-16 10-49-2-37 8-55 14-29 89-71 0-29-29-87-30-60-32-86zM2284-289q0-39-27-67-24-24-54-24-14 0-47 20.5t-46 20.5q-11 0-47.5-31t-49.5-31q-19 0-48 28.5t-29 48.5q0 16 24 53 27 44 53 44 21 0 82-41 92 61 97 61 38 0 67-33 25-27 25-49zM881 1239q-166-107-527-320-15 15-15 41 0 53 213 182 146 83 292 165h37v-68zM789 161q0-108-24-150-12-20-102-47-125-37-211-37-123 0-123 76 0 30 34 86 91-30 99-30 25 0 125 27t121 41q-2 47-46 95-48 45-95 90-15 7-41 16-23 16-23 54 0 87 72 87 87 0 157-131 57-106 57-177zM2837 1273q-14 15-37 15-36-37-45-58 14-13 38-13 31 31 44 56zM1670 1118q-21 43-36 58-35-36-35-39 10-9 11-22 36-18 60 3zM1178 122q-18 57-56 55-25-6-25-33 12-6 33-22h48z" glyph-name="uniFB57" horiz-adv-x="2938" unicode="&#xfb57;"/><glyph arabic-form="initial" d="M5069 1398q0-40-26-60-70-53-201-128-170-99-217-129h-34q-13 13-13 31 0 42 168 147 143 85 285 170 38 0 38-31zM4526 1342q0-78-76.5-149t-153.5-71q-11 0-21 5t-25 5q-10 0-32.5-16t-38.5-17l-21 11q13 57 79 104 82 59 82 60 25 48 51 97 35 59 90 59 28 0 49-36 17-29 17-52zM4465 206q0-134-68-159l-18 14q-3 87-20 267-15 100-59 346-40 216-40 228 0 11 26 63 27 56 43 65 36-88 50-168 25-141 57-399 29-230 29-257zM3726 1530q0-42-13-58-41-48-162-107-81-40-235-134-52-33-159-78-13 1-13 25 0 54 227 186 160 89 319 178 5 0 18.5-6t17.5-6zM5018 129q0-174-133-314-129-136-277-136-12 0-64 10t-64 10q-88 0-128 41 21 31 41 31 13 0 41-5.5t41-5.5q109 0 198 44 69 33 161 128 102 104 102 164 0 18-5 23-51-52-98-52-58 0-99 65-33 52-33 94 0 53 29 125 38 95 98 95 100 0 154-147 36-98 36-170zM3636 1132q0-73-36-118-16-20-68-42-59-25-62-27-68-48-90-48-19 0-40 26t-21 45q0 36 60 134 9-26 38-83 33 17 45 68 15 57 36 76 11-15 22-46.5t21-46.5q25 2 34 43 13 57 34 81l18-12q9-8 9-50zM3646 656q0-36-33-64-28-23-49-23-25 0-58.5 26t-33.5 46q0 16 34.5 59t52.5 43q32 0 62-37 25-32 25-50zM2898 1327q0-53-33-69-91-43-296-163-134-78-268-157h-35q-12 2-12 25 0 58 249 203 174 96 348 191h34q13-14 13-30zM4056 319q0-96-5-105-55-120-59-126-39-62-100-62-60 0-122 51.5t-78 51.5q-13 0-42-27-35-34-48-41-54-31-134-42-129-18-335-28-186-10-372-19-26-15-48-72-18-47-58-46-1 42-5 124-147 62-165 115-2 5-17 5-12 0-40-23-34-30-44-35-63-31-114-41-62-13-165-13-166 0-254 11-95-225-180-297t-257-72q-34 0-109 24-81 27-96 49 23 9 148 9 3 0 101 37 92 33 173 87 29 19 83 89 58 75 58 103 0 13-22 39-24 28-26.5 37.5t-2.5 46.5q0 22 23 92 36-30 117-80 105-42 239-42 71 0 175 21 114 24 144 52 3 3 42 70 29 53 56 50 2-38 4-104 39-36 109-64 65-25 104-25 31 0 220.5 168.5t255.5 168.5q62 0 127-37 73-41 73-95 0-13-28-82-36-85-44-107 7-6 42-6 74 0 177 33 29 9 105 57 69 43 81 43l70.5-46t113.5-46q47 0 47 51 0-28-66 475-5 35-27 122-20 79-20 89 0 50 74 174 20 0 34-24-2-35 16-101 25-11 70-42-4-10-38-85-23-50-23-66 0-12 31-222t31-222zM1895 1286q0-41-177-164-134-91-266-183h-37v43q-1 44 195 176 161 109 260 158 8-4 16.5-9t8.5-21zM2222 559q0-52-43-132h-37q-1 43-1 87-7 57-44 109-6 7-65 63-14 14-14 52 0 57 46 57 66 0 117-105 41-84 41-131zM984 912q0-87-131-149-106-50-186-50-12 0-61 20.5t-62 20.5q-28 0-47-28-33-48-38-53h-38v43q0 29 55.5 95t77.5 66q13 0 87-26t87-26q65 0 140 49 50 37 101 74 15-15 15-36zM810 421q0-105-56-179l-19 13q9 110-11 185-4 15-32 75-25 54-25 69 0 43 34 77 53-16 85-106 24-69 24-134zM1384 574q0-46-34-96h-47q-30 60-69 60-54 0-140-98-79-92-79-127 0-75 123-89 69-4 140-7 65-30 65-103 0-160-245-269-190-85-335-85-112 0-212 68-120 80-120 209 0 49 38 132 41 92 84 102v-47q1-8-19.5-41.5t-20.5-48.5q0-123 110-185 80-45 176-45 109 0 252 56 137 52 179 102-14 19-138 22-35 0-53 7-126 43-126 140 0 94 107 260 124 191 251 191 48 0 81-36 32-32 32-72zM4434 1280l-13 36q-38-9-57-59 58 0 70 23zM4884 222v37q-22 17-55 44-24-12-47-57 36-35 57-35 14 0 27.5 5.5t17.5 5.5zM3287 233v37q-87 43-122 43-33 0-110-61-72-55-105-100 3 0 17-6.5t29-6.5q95 0 196 44 47 20 95 50z" glyph-name="uniFB58" horiz-adv-x="5022" unicode="&#xfb58;"/><glyph arabic-form="medial" d="M2664 1601q0-30-181-140-116-70-231-140h-48v34q0 55 196 170 120 69 239 123 14-11 25-11v-36zM2623 1135q-3-33-90-73-74-35-149-68h-46q-9 40-32 73-21 27-21 44 0 33 68 106t107 73q25 0 50-24 21-20 21-37 0-62-62-62-11 0-27.5 5.5t-26.5 5.5q-5-6-8.5-13.5t-8.5-12.5q31-26 71-26l68 8q55 6 86 1zM2603 246q0-176-58-215l-137 849q0 46 43 133 27 0 35-13 83-302 99-534 18-254 18-220zM2162 925q-18-25-97-86-91-71-124-71h-32l-23 25q31 35 93 111-3 0-19 3.5t-28 3.5q-15 0-95-53l-22 11q1 3 12 49 8 15 54 57 54 49 82 49 38 0 199-53v-46zM1332 1212q1-22-106-90-75-47-121-71-74-43-221-108v68q140 88 412 247h36v-46zM2275 246q0-62-53-188-43-102-74-148-100-145-359-145-77 0-189 33 6 35 94 47 73 7 145 15 65 12 177 98 127 95 177 192 0 18-15 34-73-51-107-51-50 0-91 64-32 52-32 79 0 63 39 146 47 100 109 100 81 0 138-126 41-95 41-150zM1067 1321q0-72-167-145-139-60-186-60-57 0-73 2-11 3-56 22-41 17-55 17t-59-45q-54-53-78-68v45q-1 23 72 102t95 79q11 0 76-26t78-26q52 0 155 42 105 43 160 91 38 0 38-30zM1620 261q0-89-43-170-55-101-146-101-12 0-91.5 35.5t-93.5 35.5q-11 0-46-25-40-28-54-34-94-33-166-33-47 0-98 21-63 25-78 64-47 124-79 565-3 42-25 157-22 110-22 119t10.5 43.5 10.5 62.5q9 3 24 12 57-12 70-158 18-202 35-307-4-16-4-50 12-43 17-170 4-107 31-150 39-66 149-66 98 0 171 44 5 2 42 35 27 24 48 24-2 0 79.5-41t105.5-41q19 0 40 16t21 35q0 33-35 209-16 157-51 410-2 11-20 51-17 36-17 52 0 39 34 125 7 20 55 44 11-45 23-90 16-48 82-75 0-46-24-99-14-15-35-41-2-3-2-48 0-13 41-230.5t41-230.5zM1774-327q0-51-102-100-59-24-117-47-87-44-258-119-15 11-24 11v34q-1 36 132 97 78 32 157 65 63 34 187 89 9-5 17-10t8-20zM575 763q0-48-163-138-130-70-201-93-14 14-14 31 0 51 228 166 13 7 93 58h45q12-1 12-24zM1292-199q0-35-32-63-30-24-55-24-14 0-38 11-33 17-43 20-48-52-73-52-23 0-54 21-32 22-32 46 0 19 34 52.5t52 33.5q11 0 37.5-10t39.5-10q14 0 39 26t38 26q21 0 54-30.5t33-46.5zM657 151q-29-65-64-86-37-10-113-38-26-12-113-97h-36q-1 30 22 86-4 33-41 42-46 13-63 36-3 17 2 56 12 43 99.5 131t117.5 88q28 0 48-25 19-24 19-52 0-47-67-108-16 11-53 41h-37l-17-16q65-66 107-66-6 0 81 8 71 6 108 0zM2131 300v34q-11 17-33 44h-46q0-4-6.5-15t-6.5-25q0-19 18.5-35t38.5-16q22 0 35 13z" glyph-name="uniFB59" horiz-adv-x="2591" unicode="&#xfb59;"/><glyph arabic-form="final" d="M3128 1160q0-65-362-261h-47v45q0 29 166 128 98 57 195 113h36q12-1 12-25zM2728 1096q-160-160-314-187-13 2-13 26 0 22 58 62 77 52 86 61-13 15-51 15-35 0-59-22-53-48-71-60-13 2-13 26 0 18 54 95 59 84 94 84 78 0 229-43v-57zM2074 1102q0-10-6-39t-6-40q-3 0-11-5.5t-23-5.5q-12 0-51 25.5t-52 25.5q-12 0-66-54-67-66-94-87-63-32-187-105l-46 11v29q59 48 165 129 131 91 131 117 0 14-25.5 54.5t-25.5 53.5q0 42 44 114 51 86 109 86 21 0 46-16 32-40 32-110 0-52-20-95 5-12 86-88zM3026-207q0-33-43-64-35-28-49-28-20 0-60 27-43 28-43 45 0 40 77 113 36-20 72-39 46-25 46-54zM1859 612q0-30-23-60-25-32-54-32-27 0-64 44-33 39-33 53 0 19 18 54 24 43 54 43 48 0 79-44 23-33 23-58zM1397 962q-3 0-14-6t-26-6q-12 0-46.5 20.5t-45.5 20.5-67-59q-68-69-99-92-151-104-232-104-6 0-11 1 0 31 22 45 78 57 156 113 118 91 118 122 0 6-30.5 38t-30.5 69q0 50 55 127.5t99 77.5q71 0 71-112 0-109-8-96 32-27 89-82v-77zM3077 270q0-29-15-74-16-53-24-71-22-50-55-73-79-54-188-54-56 0-124.5 36t-69.5 36q-13 0-133.5-41t-132.5-41l-650 10q-96 0-105-30-18-58-77-92-2 25 18 117-45 28-131 94-8 3-38 3-43 0-117-33-85-40-112-87-23-41-23-96 0-37 14.5-109t14.5-102q0-10-1-19-4-30-38-59-32-24-64-47h-35q-105 204-105 348 0 81 31 148v29q-7 7-36 7-12 0-84-6-80-7-108-8-14-18-43-110-25-79-62-101-46 20-89.5 82t-46.5 107q0 8 7.5 34.5t7.5 40.5q0 21-13 33-113-20-149-47-50-37-50-132 0-13 20.5-212.5t20.5-212.5q0-167-69-184l-54 552q0 120 11 156 19 72 104 156 19 20 78 33 86 21 97 26 19 20 54 48 4-3 24.5-9.5t29.5-15.5q18-27 60-65 100-42 218-42 63 0 142 42 81 44 95 89h59v-56q0-21-81.5-131.5t-81.5-179.5q0-39 16-71 17 21 32 65 22 63 27 74 31 69 167 141 126 67 193 67 43 0 103.5-51t91.5-51q5 0 58 36 64 44 261 199 91 72 152 72 72 0 131-33 68-38 68-95 0-68-81-193 10-6 66-6 72 0 233 40l18 17q-17 39-112 36v33q-1 19 30.5 62t63.5 63q58 35 140 35 46 0 104-39 66-44 66-94 0-36-37-69v-36q36-18 62-18t87 20q58 19 67 27 6 45-58.5 135.5t-64.5 94.5q0 17 14 59 19 53 42 53 59 0 115-127 44-102 44-133zM742 1035q0-69-270-177-18 0-35.5 6.5t-20.5 6.5q9 21 49 50 65 49 73 55-20 36-56 36-17 0-57-23l-66-39q-8 2-25 14 19 65 85 114 61 46 114 46 22 0 209-53v-36zM1919 1286q-15 0-32-14t-17-22q32-33 48-33 1 2 1 69zM1243 1135v47q-11 12-38 12l-10-48q5 0 24-5.5t24-5.5zM2165 250q-89 45-142 45-115 0-215-152h85q77-5 177 31 60 23 95 76z" glyph-name="uniFB5B" horiz-adv-x="3077" unicode="&#xfb5b;"/><glyph arabic-form="initial" d="M2988 1525q0-41-121-105-64-28-127-58-47-23-134-77h-47v57q42 49 166 110 183 88 216 108h34q13-13 13-35zM2946 1097q-9-30-56-53-39-17-76-33 0-11 12.5-38.5t14.5-41.5q86-563 86-692 0-90-34-163-5 0-17-5t-17-5q-17 10-22 55-38 239-95 758 0 13 11 45 14 38 16 49 9 24-6 24 12 0-89-21-16 18-7 56-2 3-29 30-18 17-18 32 0 40 63 104.5t105 64.5q22 0 77-55-32-68-66-68-11 0-30 11t-30 11l-17-18q16-27 87-45 125 0 137-2zM2547 940q0-18-47-64.5t-88-69.5q-46-11-147-44-5 5-17.5 12.5t-17.5 11.5q24 32 133 109-20 20-61 20-15 0-54-16-51-22-58-24v33q-1 34 73 84 38 25 90 25 64 0 194-42v-35zM1677 1320q0-33-31-59-12-10-83-52-116-70-343-192-14 2-14 26 0 54 72 98 57 31 115 62 78 45 237 141h35q12-1 12-24zM2650 178q0-162-143-304-137-136-277-136-11 0-56 10.5t-56 10.5q-65 0-132 33v36q7 2 137 2 255 0 435 272 0 18-6 25-12-3-42-19-25-12-39-12-138 0-138 159 0 57 37 135 46 95 106 95 74 0 130-146 44-111 44-161zM1279 1340q0 2-36-61-25-44-118-74-77-24-139-24-11 0-47 5.5t-50 5.5q-13 0-50-16-45-19-71-24 1 28 49 92 53 71 87 71 13 0 72-15.5t72-15.5q40 0 96 22 67 25 75 59h46q14-1 14-25zM1923 291q0-107-47-182-54-84-147-84-106 0-180 71-18-23-62-58-131-65-188-65h-47q-87 0-169.5 65.5t-88.5 134.5q-54 647-54 799 0 42 44 106 9 0 29-14 22-16 26-29 10-40 21-258 2-130 19-368 5-47 9-94 9-68 28-109 13-25 83-57.5t115-32.5q46 0 132 33 27 12 49 38 15 41 63 123h37q-5-61 10-110 86-22 159-22 48 0 67 46l-102 697q22 113 87 178 7-6 20-16 0-36 18-109 6-14 31-28 31-17 38-24-19-43-37-86-24-56-24-85 0-12 30.5-230t30.5-230zM2169-344q0-42-34-58-313-148-372-146h-64q14 79 96 112 55 16 110 33 65 27 207 90h44q13-13 13-31zM684 753q-4 0-15-6t-25-6q-16 0-46 31-91-89-170-133-69-36-137-72-15 12-25 12v37q86 61 244 193-8 16-40 55-21 26-21 56 0 48 51 115 57 75 113 75 31 0 53-28 19-25 18-58v-271zM1627-257q0-18-37-57.5t-56-39.5q-13 0-48.5 25.5t-48.5 25.5-51.5-30.5-51.5-30.5q-21 0-54 26.5t-33 50.5q0 20 27 58.5t45 38.5q11 0 50.5-20.5t52.5-20.5q8 0 45.5 36t51.5 36q19 0 63.5-42.5t44.5-55.5zM869 157q0-16-21-43t-37-35q-64-16-127-32-108-28-167-83h-36q0 10 4.5 37t4.5 38q-36 25-71 49-52 37-52 64 0 53 105.5 157.5t160.5 104.5q33 0 63-31t30-67q0-28-33-65-30-32-40-32-13 0-42 22-48 35-54 39-3-3-19.5-14.5t-27.5-23.5q3-74 139-74-22 0 208 19 0-3 6-9t6-21zM2507 263q-12 24-33 67h-37q0-2-6-20.5t-6-36.5q32-17 82-10zM601 927l-11 69q-34-16-49-46l23-23h37z" glyph-name="uniFB5C" horiz-adv-x="2938" unicode="&#xfb5c;"/><glyph arabic-form="final" d="M2320 1350q0-50-24-70-88-59-226-129-117-58-233-116h-35q-13 13-13 30 0 46 217 156 145 70 290 141 15-12 24-12zM1646 1290q0-38-43-69-21-14-276-149-68-40-207-119h-34q-13 1-13 24 0 77 300 212 93 49 259 132 14-15 14-31zM2322 215q0-195-142-343t-323-148q-77 0-231 44 17 32 87 35 111 5 112 5 57 13 101 30 83 34 189 138 112 109 125 182 5 7-5 16-44-51-97-51-77 0-121 62-33 48-33 102 0 48 45 140 7 23 31 63 22 22 63 22 119 0 195-208 4-12 4-89zM674 563q0-26-30-59t-47-33q-30 0-63.5 26t-33.5 45q0 22 24 67.5t42 45.5q22 0 65-34t43-58zM1646 225q0-43-21-81-25-42-61-42-37 0-149 23-21 4-67 33-43 26-55 26-14 0-35-23l-33-35q-21-17-134-38-23-26-37.5-109t-36.5-110q-143-166-384-166-131 0-222 57-106 65-106 179 0 138 95 234h48q-5-27-28-90-22-59-22-73 0-83 109-130 80-34 157-34 101 0 189 35 118 46 118 129 0 47-14 85-10 27-52 91-36 56-36 70 0 29 25 65.5t41 36.5q13 0 38-33 36-46 40-51 33-32 59-38 4-1 52-1 96 0 207.5 138.5t161.5 138.5q48 0 105-138 48-117 48-149zM2178 288q-3 29-21.5 55t-39.5 26q-16 0-40-24v-35q34-34 61-34 14 0 25 6t15 6zM1493 290q-14 28-21 38-14 20-37 30-34-34-34-48l66-34q24 0 26 14z" glyph-name="uniFB5F" horiz-adv-x="2310" unicode="&#xfb5f;"/><glyph arabic-form="initial" d="M3307 1276q0-46-210-162-198-109-227-108h-44v34q-1 35 176 121 141 69 257 141h35q13-2 13-26zM2795 1256q0-47-199-172-102-60-204-119h-36q-12 1-12 25 0 50 175 154 223 133 227 137h36q13-1 13-25zM2691 636q4-13 4-23 0-39-40-62-30-17-60-17-12 0-40.5 10.5t-41.5 10.5q-10 0-41.5-31t-50.5-31-87 43q3 37 22 75 22 46 54 46 12 0 46-15t47-15q11 0 40.5 35.5t41.5 35.5q6 0 106-62zM2251 1221q0-38-81-94-52-32-105-64-85-52-260-140-14 2-14 26 0 48 22 65 62 49 278 157 20 10 113 80h34q13-14 13-30zM1658 1695q0-80-446-270-15 14-15 41 0 45 94 98 52 24 104 47 17 9 216 120h47v-36zM1597 1374q0-74-36-112-40-41-130-89-83-45-106-45-30 0-53 23t-23 54q0 6 24 50 28 49 43 57 11-11 21-36t21-36q32 8 47 52 22 68 32 82 17-12 53-62 37 13 44.5 46.5t13.5 66.5q7 0 25-5 24-14 24-46zM3143-335q0-40-27-68-24-25-50-25-13 0-38.5 15.5t-38.5 15.5-51.5-36-51.5-36q-26 0-91 66 9 36 53 93 1 1 10 9 8 7 23 7 11 0 37.5-16t39.5-16q22 0 52 31t46 31q34 0 60.5-22.5t26.5-48.5zM3071 247q0-214-154-214-86 0-140 35.5t-69 35.5q-18 0-122-36-117-41-194-79-15-8-73-147-44-106-170-173-102-56-184-56 14 0-189 24-29 2-56 42 12 30 52 30 18 0 50-7t40-7q13 0 36 8t31 9q73 5 181 75 122 79 173 179-27 26-71 28-39 1-78 1-50 5-82 54-26 41-26 81 0 59 47 143 54 97 117 97 71 0 117-83 37-72 75-142 66 0 191 34 22 5 91 39 61 29 74 29t88-30.5 87-30.5h50q8 3 22 16-2 17-15 68-12 45-12 59 0 63 34 113h36q43-82 43-195zM1218 764q0 2-34-65-18 4-50 19-25 11-39 11-11 0-58-52-58-63-77-77-26-20-178-96-5 5-17.5 12.5t-17.5 12.5q86 72 256 226-16 26-59 67-23 23-23 60 0 41 42 117 50 88 101 88 59 0 68-90 2-66 5-133 0-3 1-5 6-11 45-48 35-32 35-47zM1740 202q0-69-33-145-40-85-90-85-13 0-138 30.5t-138 30.5q-9 0-73-20-72-22-105-28-51-11-265-16-21-60-83-181-41 4-97 54-59 52-61 94-1 48 6 79.5t7 27.5q0 9-23 31-105 4-228-98l61-542q0-45-22-168-5 0-18.5-5t-18.5-5q-27 140-57 396-27 222-27 253 0 63 32 130 40 89 115 126 31 17 185 59 2 0 20.5 19t31.5 19q12 0 54-40 51-48 72-61 70-42 186-42 10 0 59 6t67 6q29 36 49 113 22 89 43.5 127.5t93.5 110.5q28 17 88 52 2 98-24 296-2 9-15 55-13 43-13 58 0 24 29 92 33 76 59 77 23-10 25-48 1-29 2-57 22-13 46-26.5t24-32.5q0-13-25.5-77t-25.5-76q0-254 58-344 12-19 108-82 59-37 59-163zM2230 147q-10 24-42 69h-36l-13-30q0-18 24-39h67zM1062 883q0 60-11 80-14 0-48-34 15-28 59-46zM1658 148q2 26-33 63l-62 56h-47q0-3-10.5-17.5t-10.5-29.5v-63q23-5 73-20 40-12 54-12 12 0 36 23zM1433 258q0 12-16 39-19 32-40 32-25 0-55-23-32-26-32-59 0-19 26-40t45-21q27 0 49.5 22.5t22.5 49.5z" glyph-name="uniFB60" horiz-adv-x="3067" unicode="&#xfb60;"/><glyph arabic-form="medial" d="M2773 891q0-64-24-105-14-22-112.5-78.5t-123.5-56.5q-31 0-76 43-4 43 14 94 23 61 65 88v-95q8-7 22-7 41 0 74 121h38v-63l18-18q27 13 44 53 11 29 23 60 38 0 38-36zM1320 1327q0-61-36-61-11 0-42.5 20.5t-44.5 20.5q-77-66-126-105-138-109-206-131l-57 14q98 83 287 258-4 7-46 50-36 37-36 51 0 54 46 128 52 82 107 82 71 0 71-112 0-27-4-71-4-38-3-45 25-14 64-43 26-26 26-56zM2016 467q0-26-33-59.5t-54-33.5q-27 0-64 25t-53 52q4 6 38 66 25 42 38 42 38 0 83-32.5t45-59.5zM2773-184q0-38-179-128-116-54-233-109-41-11-123-43h-36q-12 2-12 25 0 43 36 62 168 74 501 229h46v-36zM2764 180q0-62-41-110-37-44-77-44-17 0-119.5 41t-101.5 41q-10 0-55-48-50-53-70-61-33-13-100-13-83 0-179 81-23-19-59-47-102-55-177-55-117 0-271 128-263 217-300 241-6-65-12-131-9-89-41-121-34-34-137-51-120-20-163-42 7-68-8-130-20-88-76-88-65 0-113 68-44 63-44 134 0 34 14 58-13 16-57 16-47 0-114-32-75-36-75-75l52-589q0-115-59-143-75 373-75 629 0 203 135 297 25 18 82 33 71 20 84 26 8 3 29 27 19 22 34 22 13 0 87-41t86-41h77q47 0 117 19.5t88 36.5q-24 135-155 276-121 131-121 200 0 108 96 210 46 47 174 104l214 88q89 36 257 102 178 66 542 188 20 8 38-10-17-38-36-107-230-84-428-163-236-89-472-177-272-112-304-188 213-190 715-598 13-10 87-22 66-11 90-11 82 0 145 51.5t80 51.5q24 0 79.5-41t120.5-41q87 0 164 79 21 22 112 148 57 80 97 80 17 0 44-21t34-44q5-17 40-108 26-68 26-83zM726 784q0-25-49-79-44-50-66-61-114-54-141-54-26 0-41 15 15 20 56 61t57 61q-4 6-46 6-56 0-144-72-15 16-15 31 0 59 85 110 72 43 115 43-17 0 178-32 0-3 5.5-8.5t5.5-20.5zM2606 190q14 57-10 82h-34q-20-11-12-59 23-7 56-23zM1154 1531q-48-24-48-47 22-23 47-23 1 0 1 70z" glyph-name="uniFB61" horiz-adv-x="2760" unicode="&#xfb61;"/><glyph arabic-form="isolated" d="M2544 1443q0-50-64-88-62-32-123-64-77-44-237-139h-37v33q0 36 185 146 167 99 262 137 14-2 14-25zM2298 874q0-31-34-59-28-23-43-23-17 0-97 43 0 38 17 79 22 53 54 53 35 0 69-33t34-60zM1672 1604q-139-110-445-269-8 4-16.5 9.5t-8.5 21.5q0 49 177 153l246 142h47v-57zM2482 291q0-52-27.5-133t-49.5-101q-79-73-261-73-212 0-239 219-17 107-41 307-3 33-17 359-1 20-21 85t-20 79q0 21 44 86h37q28-75 39-235 14-219 19-260l32-322q39-175 203-175 70 0 133 19 87 27 87 78 0 35-25 56-58-61-118-61-68 0-110 64-34 52-34 105 0 72 50 149 54 81 114 81 72 0 144-145 61-125 61-182zM1581 1248q0-61-46-136-19-31-121-77-106-48-109-48-31 0-56.5 24t-25.5 47q0 22 29 71 27 44 38 52 17-29 14-74 7-8 26-8 43 0 60 48 33 88 37 96 20-26 20-65 18-17 27-17 27 0 51 61 27 70 31 72 25-25 25-46zM1540 726q0-30-33-66-28-32-38-32-28 0-113 53 0 26 23 75 24 57 49 57 39 0 78-33 34-30 34-54zM1028 1043q0-13-8-27-12-21-14-29h-33q-13 0-49.5 31t-48.5 31q-8 0-40-36-40-42-54-54-126-90-258-156-24 0-37 13 0 29 22 43l152 112q133 99 133 119 0 10-41 49.5t-41 52.5q0 57 47 132 50 83 106 83 79 0 79-145 0-110-5-104 9-13 57-55 33-29 33-60zM2102-269q-27-24-136.5-53.5t-162.5-71.5h-48v159q32 55 82 109 65 69 108 69 21 0 55-33v-68q-35-32-61-32-14 0-55 20-16-15-16-25 0-46 66-46 18 0 42 6t42 6q32 0 84-13v-27zM2246-348q0-46-42-74-52-22-155-68-89-40-269-120-15 15-15 31 0 41 26 57 56 33 442 199 13-2 13-25zM1663 250q0-168-105-222-66-34-233-34-86 0-140 36-51 34-112 128-19-20-68-59-73-44-151-44-42 0-100 17-74 22-74 55 0 27 55 110 37 56 144 120 111 67 126 85 9 12 9 99 0 31 49 128l18-13q34-187 67-374 42-135 244-135 126 0 189 38-8 26-48 115-34 74-34 88 0 18 13 54 16 43 33 43 49 0 88-115 30-87 30-120zM609 163q0-98-64-166-62-64-141-64-57 0-92 23 7 28 74 46 82 21 131 80-3 29-33 33-39 5-59 33-3 4-3 17 0 46 23 100 27 67 66 67 75 0 98-169zM2307 384v35q-21 45-50 45-17 0-41-23 2-21 22-44.5t34-23.5q15 0 23 5.5t12 5.5zM863 1213v57l-23 24q-36-18-36-49 63-32 59-32zM1048 251q0 44-13 70-121-60-181-97 27-26 56-26 26 0 138 53z" glyph-name="uniFB62" horiz-adv-x="2467" unicode="&#xfb62;"/><glyph arabic-form="final" d="M1879 1106q0-69-142-134-80-30-161-61l-25 26q19 20 133 112-13 16-51 16-36 0-61-22-42-37-68-50-14 15-14 31 0 41 74 99 69 54 99 54 9 0 204-33 0-3 6-13t6-25zM1387 957q0-31-34-67-13 5-52 30-33 22-47 22-13 0-55-47-53-57-74-73-189-137-236-136h-43v38q3 3 182 125 107 73 134 148-30 22-61 44-21 17-21 65 0 53 43 118 51 76 116 76 74 0 74-89 0-30-9-87-9-51-7-62 4-5 57-45 33-27 33-60zM1674 506q0-30-26.5-63t-45.5-33q-35 0-122 62-2 33 26 76 30 46 61 46 40 0 76-34 31-31 31-54zM2410-275q-119-57-361-174h-35q-12 1-12 24 0 60 190 143l204 78 14-13v-58zM752 1049q0-60-144-135-124-64-158-64-31 0-45 13 0 21 56 59 84 54 87 57-10 25-41 25-33 0-72-27.5t-78-54.5q-14 14-14 30 0 20 55 80 51 57 61 59 53 15 89 15 2 0 192-32 12-1 12-25zM2401 205q0-42-28-101-31-63-59-63-58 0-266 92-23-39-90-109-60-44-146-44-88 0-153.5 45.5t-91.5 45.5q-70 0-204-64-41-20-66-85-13-35-13-82 0-36 10.5-105.5t10.5-99.5q0-65-36-101-6-6-32.5-30.5t-36.5-35.5q-8 1-26 3-97 129-97 344 0 127 34 189-2 3-5 12-1 4-15 4-8 0-119-10-119-11-171-13-23-27-41-111.5t-42-110.5q-49 7-106 77-54 68-51 112 4 23 9 45 2 24-18 43-155-18-201-49-59-39-59-151 0-13 20.5-212.5t20.5-212.5q0-113-69-163l-54 527q0 28 12 133 6 43 47 110 49 82 107 115 18 10 176 48 11 3 30 28 27 36 32 41 35-37 115-90 89-33 228-33 95 0 158 13 61 12 137 88 11 21 36 61 16 6 43 23 15-16 15-31 0-79-79-173-85-99-94-180l8-68q7 0 19 19 28 131 176 230 134 90 257 90 34 0 79-41t110-41q177 0 244 150 24 55 142 172 16 16 49 16 60 0 107-125 37-97 37-141zM2266 215v36q-6 23-28.5 44.5t-38.5 21.5l-33-34v-35q42-19 100-33zM1244 1119q0 10-6 33.5t-6 33.5q-63-20-68-20v-37q43-23 54-34z" glyph-name="uniFB63" horiz-adv-x="2402" unicode="&#xfb63;"/><glyph arabic-form="medial" d="M931 1501q0-55-245-174-195-95-316-133-13 1-13 25 0 51 119 111l140 60q99 50 300 141 15-14 15-30zM1422 283q0-89-24-191-5-16-11-26-15-20-44-28l-95 782q0 82 45 148 39-16 50-92 5-64 9-127zM849 1127q0-41-50-101-45-54-77-65-27-1-81-16-67-38-84-38-77 0-77 61 0 16 20 61t37 62q12-28 52-82 36 5 56 64 28 83 32 89 33-4 34.5-31t2.5-52q-7-8 17-8 29 0 52 53 14 35 29 70 37-19 37-67zM746 615q0-31-23-64t-43-33q-24 0-63 25-45 30-45 57 0 18 29.5 60t47.5 42q28 0 61-26 36-30 36-61zM1504-213q-27-31-76-64-35 0-112-17-6-3-55-28-36-19-50-19h-44q0 9 4.5 31.5t4.5 34.5q0 13-20.5 38.5t-20.5 37.5q0 50 77 109 71 55 108 55 32 0 55-32 16-24 16-39 0-17-21-34.5t-40-17.5q-13 0-18.5 10.5t-18.5 11.5h-38l-18-18q0-11 28-31 8 0 35.5-11.5t39.5-11.5q49 0 130 20 5-6 17-13t17-12zM1094 190q0-58-20-146-22-93-47-116-110-100-222.5-123.5t-186.5-23.5q-105 0-192 64-100 74-100 187 0 19 24 91 26 80 52 127t74 74q14-15 14-36 0-14-35.5-95.5t-35.5-94.5q0-55 79-112 71-51 116-51h90q105 0 200 45 108 52 108 128 0 48-13 96-10 34-47 126-32 77-32 91 0 18 23 86h47q104-160 104-317zM1554-400q-120-80-466-198-14 14-14 31 0 49 72 82 48 16 95 33 87 35 267 109h46v-57z" glyph-name="uniFB65" horiz-adv-x="1431" unicode="&#xfb65;"/><glyph arabic-form="isolated" d="M1896 1352q0-56-54-122-51-62-103-81-30-10-93-15-70-6-92-12-26-23-73-57-8 2-25 15 24 40 48 81 53 78 90 78 13 0 13-5t13-5q15 0 75.5 102.5t118.5 102.5q35 0 61-34 21-27 21-48zM1292 1387q0-37-33-53-116-54-315-124-181-63-205-63-28 0-51 23v47l552 206q52 0 52-36zM1753 148q0-42-68-128l-106 830q0 42 16 95 21 64 52 68 25-22 30-65 76-730 76-800zM1210 1100q0-23-24-73-26-52-49-71-41-17-114-48-86-38-115-38-66 0-66 72 0 77 62 123 25-34 9-66l28-27q44 4 59 50 24 77 28 82h38v-53q18-17 26-17 32 0 48 50 20 68 33 83 37-18 37-67zM708 886q-6-32-36-86-79-66-346-185h-57q2 35 25 81 122 61 367 205 18-2 47-15zM1436 184q0-21-23-92.5t-34-87.5q-30-24-82-24-51 0-114 28-74 34-103 85-18-9-52-52-35-45-56-58-40-23-121-23-72 0-103 27-18 15-37 65-21 53-49 81-85-92-179-92-66 0-163 52 4 96 114 186 59 48 195 122 24 13 47 59 28 57 42 72 24-15 28-55 6-117 11-232 26-143 135-143 45 0 89 22 56 28 61 76 2 13 2 29 0 35-13 131t-13 147q0 117 55 179 24-47 24-226 0-23 16-100 18-92 37-138 27-59 166-99 27 26 27 36 0 11-24 71-27 71-35 102-33 133-33 195 0 82 58 149 127-508 127-492zM667 215v79l-15 13q-48-23-95-46-59-32-73-64-7 0 24-6.5t94-6.5q22 12 65 31zM1805 1289v28q-13 12-37 12-38-35-47-81 32 11 84 41z" glyph-name="uniFB66" horiz-adv-x="1731" unicode="&#xfb66;"/><glyph arabic-form="final" d="M1158 1427q0-42-118-111-66-32-132-66-27-15-289-160-14 14-14 35 0 48 102 110 67 36 135 71 188 111 301 162 15-15 15-41zM1065 833q0-27-89-129-3-131-37-327-5-24-37-83-31-56-31-65 0-13 30.5-107.5t30.5-107.5q0-50-2-57-9-32-53-42-102-23-288-23-108 0-138 33 8 39 16 77 15 53 40 53 11 0 26.5-5t30.5-5q40 0 108 70 65 65 65 94 0 34-159 216.5t-194 182.5q-11 0-32-10.5t-34-10.5q-83 0-130 85-34 60-34 110 0 123 57 123 85 0 330-251 89-90 265-333 16 0 21 8 45 95 45 300v67 63q0 208 64 258h36q0-12 3-104 90-64 90-80zM828 67q0 26-23 49-23-23-57-58z" glyph-name="uniFB67" horiz-adv-x="1077" unicode="&#xfb67;"/><glyph arabic-form="initial" d="M3628 1255q0-39-236-172-146-78-291-156-15 12-26 12v43q0 31 213 148 146 78 292 155h34q14-13 14-30zM3054 1189q0-77-144-149-122-61-184-61-36 0-50 14 8 35 74 63 84 34 110 61-13 15-52 15-41 0-71-26-51-44-91-65v54q-1 14 30 53 30 35 53 51 49 36 125 36 59 0 188-22 12-1 12-24zM3659-331q0-30-27-66.5t-45-36.5q-11 0-48.5 20.5t-54.5 20.5q-13 0-43.5-36t-43.5-36q-15 0-117 74 0 28 21 74 24 57 55 57 11 0 57.5-30.5t60.5-30.5q13 0 41 36t41 36q31 0 68-34 35-30 35-48zM3679 247q0-40-30-104-33-73-66-83-231-74-308-74-4 0-95-5t-139-5l-18-16q42-80 42-127 0-79-48-142t-111-63q-135 0-207 167-19 44-27 122-18 5-54 22-2 7-2 39-48 0-145-11.5t-103-11.5q-51 0-142 18-96 19-122 37-30 21-62 67-50 74-58 83-111-174-389-174-159 0-159 76 0 31 45 98 55-31 140-31 86 0 187 32 140 46 140 127 0 11-35.5 135t-35.5 136q0 16 21.5 69.5t34.5 63.5q10-10 32-44l74-286q43-135 111-193 82-71 239-71 109 0 269 54l84 190q87 186 174 186 43 0 73-64 24-52 24-99 0-90-45-182-19-15-57-49 12-26 42-26h121q166 0 343 34 36 6 160 56v26q0 12-56.5 80t-56.5 81q0 27 22 68 24 44 44 44 48 0 95-90 25-59 49-118 5-10 5-42zM1999-128q-2-34-26-80-96-59-479-225h-36v57q11 17 32 40 267 114 462 208h47zM1334 625q0-18-22-86-4 0-11.5-5.5t-22.5-5.5q-7 0-38.5 36t-68.5 36q-63 0-154.5-88t-91.5-138q0-73 130-97 145-28 152-38 15-24 15-79 0-89-36-141-38-58-213-128-195-79-345-79-126 0-222 75-106 81-106 206 0 88 116 281h36q12-1 12-25 0-13-31-89.5t-31-89.5q0-109 111-170 82-45 166-45 223 0 441 151 0 9-18 19-142 18-168 26-111 37-111 137 0 96 115 268 132 198 263 198 62 0 100-46 33-39 33-83zM2921 283v9q0 24-16 51-19 31-42 31-105-103-105-158 0-23 13-25 46 18 150 92zM2962-182q-13 18-63 56-55 40-77 40h-43q2-20 33-68 37-54 64-54h74q0 10 12 26z" glyph-name="uniFB68" horiz-adv-x="3675" unicode="&#xfb68;"/><glyph arabic-form="medial" d="M2744 1279q0-21-45-105-25-48-104-80-64-25-111-25-12 0-39 5t-38 5q-16 0-54-23-61-36-66-39-14 2-14 26 0 33 65 92 62 57 94 57 13 0 15.5-5.5t15.5-5.5q17 0 82 92.5t117 92.5q20 0 51-33.5t31-53.5zM2253 1266q-30-31-121-77-94-49-135-49-33 0-51 37 43 43 103 73-10 24-41 24-26 0-68.5-25t-75.5-24q86 161 179 161 15 0 88-24 99-33 122-39v-57zM2611 193q0-59-43-187h-38q4 66-25 268-13 91-53 320-35 197-35 209 0 92 54 173 19 0 34-23zM1669 1335q0-45-189-148-171-93-308-138-15 14-15 30 0 43 222 158 159 82 276 129 14-15 14-31zM1701 756q0-34-26.5-65.5t-50.5-31.5q-5 0-82 51-9-5-49-43-29-28-44-28-21 0-64 33.5t-43 48.5q0 30 43 69 39 33 49 33 11 0 37-20.5t39-20.5q14 0 49.5 41t48.5 41q35 0 66-42 27-36 27-66zM1148 1243q0-42-105-116-99-69-127-67h-85q1 3 122 127-4 5-41 5-43 0-63-17-46-38-77-55-14 1-14 25 0 56 83 116 76 54 122 54 14 0 77-18 75-22 96-26 0-3 6-8.5t6-19.5zM2171 806q0-12-36-63t-36-63q0-13 31-210t31-210q0-34-46-203-67-56-139-69-25-4-122-4-124 0-231 23-8 1-31 15-18 12-30 12-159 0-233-53-18-13-67-100-55-99-89-139-28-18-79-58-73-63-127-76-15-3-101-3-82 0-103 4-69 13-168 70-4 39 36 39 12 0 71-15.5t72-15.5q89 0 217 71 145 79 207 190-8 16-27 20-14 3-39 0-30-4-36-4-48 0-94 43-49 45-49 95 0 60 57 145 63 95 127 95 50 0 90-82 52-106 71-123 131 0 153 27-3 11-3 25 0 90 65 198 71 118 152 118 74 0 113-136 11-37 0-125 0-6-15-30.5t-15-39.5q0-21 21-37 17 2 38 2 20 0 58-2.5t57-2.5q86 0 147 50-25 189-76 572 0 4-14 34-12 27-12 43 0 45 37 111 36 63 61 73 3-3 11-83 5-60 49-60 31 0 46-13v-55zM645 1258q0-45-32-64-432-238-465-237h-54q-4 65 35 91 88 58 470 235h34q12-1 12-25zM716 300q9-25-8-85-18-68-57-68-13 0-15.5 5t-15.5 5q-34 0-161-30-149-36-159-68-3-8-3-59l62-523q0-83-46-118l-19 13q-21 107-57 353-31 230-31 254 0 73 64 186 25 26 54 71 31 109 37 124 44 104 116 104 41 0 117-62 119-99 122-102zM2642 1239q-14 14-37 14-23-18-30-27-10-16-12-44 20 9 39 18 26 12 40 39zM1690 265q0 22-66 87-28-22-77-52v-59q35-32 61-32 21 0 51.5 19t30.5 37zM1146 117v48l-45 44q-35-36-35-46 0-26 80-46zM460 283q0 5-23 27-7 0-21.5-15.5t-14.5-23.5z" glyph-name="uniFB69" horiz-adv-x="2601" unicode="&#xfb69;"/><glyph arabic-form="isolated" d="M4657 1348q0-19-36-77-41-65-78-94-17-13-69-29t-72-16q-12 0-31 5.5t-31 5.5q-15 0-54-23-62-35-68-38v34q-1 36 94 114 28 6 71 26 16 17 52.5 70.5t59.5 76.5q26 27 76 27 86 0 86-82zM3828 1685q0-52-95-108-61-30-122-59-88-44-257-139h-46q-12 1-12 24 0 61 124 126 73 33 145 66 132 71 249 120 14-14 14-30zM4525 272q0-33-15-116-16-92-29-108h-37q-36 366-67 566-4 27-27 132-20 92-20 104 0 18 27 86 25 64 37 82h37zM3777 1357q0-29-28-89t-46-71q-21-12-103-38-12-3-51-27-34-20-48-20-62 0-62 66 0 18 21 61 26 55 57 77 6-25 21-72 33 13 42 49 13 49 26 64 36 0 43-23 11-38 20-48 20 35 70 112 38 0 38-41zM3665 692q0-36-34-66-28-26-48-26-33 0-81 44-42 38-42 48 0 18 34.5 65t52.5 47q30 0 74-43t44-69zM2989 533q0-119-49-137-12 59-47 177-4 12-44 71-34 52-34 69 0 11 6 30.5t6 29.5q3 0 8.5 5.5t20.5 5.5q52 0 97-114 36-92 36-137zM4115 283q0-27-4-38-34-104-73-152-30-39-132-64-137-33-267-33l-666-31q-127 0-194 29t-165 125q-30-31-90-69-37-11-205-27-14-13-49-44-7-3-54-3-83 0-145 13-20 4-77 32-52 26-64 26 3 0-65.5-35.5t-139.5-35.5q-268 0-276 404-5 7-22 26-50-37-145-110 3-34 3-66 0-208-159-303-122-74-318-74-124 0-212 56-105 67-105 189 0 62 64 212 11 27 63 75 37-17 37-52 0-45-60-109-2-8-2-39 0-179 267-179 88 0 182 30 107 34 155 88-6 54-45 171-37 112-37 120 0 34 23 102 3 0 11 5.5t23 5.5q12 0 37-22 27-23 36-26t39-3q99 0 171 153h37q20-33 37-179 17-150 54-217 58-105 193-105 84 0 144 59 9 9 82 108 42 58 86 58 9 0 124-92t224-92q164 0 164 108l-62 562q0 51 34 117h37q23-92 44-252 29-228 35-263 1-59 16-184 17-18 45-53 60-86 240-86 205 0 205 214 0-3-18 118-8 145-37 409-3 12-21 48-16 32-16 45 0 22 37 90 39 73 61 78 1 0 22-74 16-57 84-71v-45q0-13-30.5-68.5t-30.5-67.5q0-13 15-151t15-150v-164l16-17q168 164 287 164 51 0 125-44 84-50 84-105 0-13-29-81-36-83-43-101 7-7 27-7 36 0 141 28 98 26 112 35 18 13 18 45 0 123-76 552-3 16-21 70-16 49-16 63 0 48 11 71 3 6 64 109 25-11 44-90 17-72 75-76v-35q1-12-25-65.5t-26-66.5q0-3 17-29-5-27 10-145 45-352 45-322zM2999-183q0-52-54-74-187-74-384-135 0 3-6 12t-6 23q0 42 43 63 303 137 352 136h43q12-1 12-25zM1177 1357q0-51-106-95-51-22-174-82-203-100-330-181-25 25-25 36 0 64 243 186l344 166h36q0-3 6-9t6-21zM921 682q0-32-37-64-32-28-51-28-24 0-64 24-43 25-43 47 0 26 33.5 69.5t53.5 43.5q25 0 66.5-34t41.5-58zM1607-275q0-25-40-63-38-34-53-34-11 0-53.5 25.5t-53.5 25.5q-12 0-50.5-31t-52.5-31q-31 0-61 37-25 30-25 45 0 38 36 67 29 26 50 26 39 0 92-41 79 82 98 82 25 0 69-44.5t44-63.5zM4544 1278v35q-12 13-36 13-42-41-55-69 50 0 91 21zM3655 247l-72 56q-31 21-72 21-98 0-245-173h85q66-4 177 32 77 25 127 64zM2374-235v45q-10 0-25 12-476-158-476-225 0-17 14-31 94 32 269 89 218 67 218 110z" glyph-name="uniFB6A" horiz-adv-x="4539" unicode="&#xfb6a;"/><glyph arabic-form="initial" d="M2813 1582q0-60-202-170-168-91-214-101-14 14-14 30 0 70 187 156 79 40 229 110 14-1 14-25zM2361 1560q1-19-155-114-123-76-217-125h-45v47q42 67 185 129 6 2 186 119h46v-56zM2628 971q-15-121-82-121-19 0-69 30-53 32-53 51 0 24 36 68.5t61 44.5q30 0 107-73zM2229 927q0-27-41-64-36-34-46-34-13 0-46.5 20.5t-45.5 20.5q-11 0-42.5-25.5t-44.5-25.5q-29 0-57 35-25 30-25 41 0 29 34 65 31 33 48 33 11 0 36-15t35-15q16 0 37.5 25t49.5 25q31 0 67-26 41-29 41-60zM1840 1530q0-34-196-141-243-133-289-170h-46q0 4-6 12t-6 23q0 48 44 72 420 240 458 240 41 0 41-36zM2731 251q0-282-312-282-155 0-220 60-69 66-106 261-10 15-23 27-68-93-116-120-51-220-142-313-87-88-244-88-73 0-250 42v48q16 6 59 0 55-8 59-8 118 0 249 80 153 93 186 231-71 56-77 65-5 7-5 43 0 81 46 81 13 0 41-10t40-10q68 0 103 58 17 29 59 157 26 0 33-13 26-46 60-220 26-129 107-185 46-32 146-32 62 0 131 20 81 23 94 58v28l-17 17q-72-52-101-52-71 0-109 54-30 42-30 100 0 57 41 141 49 105 113 105 88 0 144-157 41-113 41-186zM1420 645q0-58-56-113-76 82-92 82-53 0-141.5-73.5t-88.5-125.5q0-70 100-85 78-2 155-6h7q65-21 65-99 0-13-24-77-27-78-32-92-109-83-275-133-153-45-288-45-128 0-217 74-96 78-96 201 0 166 126 287 38 0 38-25 0-12-41-85t-41-84q0-112 113-177 86-49 174-49 79 0 270 54 71 20 170 87 0 2-27 20-55 13-75 13-13 0-15.5-5t-15.5-5q-58 0-114 44-60 46-60 105 0 136 140 289 134 146 234 146 37 0 75-58 32-47 32-65zM2577 373q-13 40-67 67-25-25-25-48 34-34 57-34 21 0 35 15z" glyph-name="uniFB6C" horiz-adv-x="3108" unicode="&#xfb6c;"/><glyph arabic-form="medial" d="M2973 1427q0-49-43-117-50-81-114-95-47-3-144-17-18-4-46-27-33-29-41-33l-22 11q12 43 65 118 37 27 107 87l70 94q49 61 96 61 33 0 55-34 17-25 17-48zM2511 1795q0-55-24.5-79.5t-151.5-86.5q-119-60-352-161-14 15-14 36 0 56 34 72 19 10 472 219h36zM2399 1443q0-31-16-87-17-59-30-69-49-33-127-69.5t-98-36.5q-28 0-50 34-16 26-16 38 0 37 42 121 7 6 25 22 17-30 14-75 17-17 26-17 35 0 51 64 9 39 18 79h37q6-33 29-92 34 9 44 73.5t37 69.5q14-14 14-55zM2819 260q0 14-14-118-14-26-39-75l-27-11-114 870q19 86 54 132 19 0 33-23 6-43 67-457 40-277 40-318zM1867 926q0-34-23-67-25-36-59-36-33 0-60 33-22 27-22 39 0 29 25 69 26 44 52 44 33 0 62-37 25-30 25-45zM2409 919q0-13-40.5-63.5t-40.5-63.5l71-588q0-74-45-206-5-16-57-35.5t-82-19.5q-59 0-129 44-81 50-110 123-5 14-31 47-38-89-170-137-98-36-195-36-153 0-153 107 0 15 22 87h33q12 0 38.5-18t36.5-20.5 80-2.5q55 0 150 28 132 37 132 95 0 13-31 156.5t-31 155.5q0 61 33 128 14 0 34-34 10-66 62-277 38-157 77-212 56-81 177-81 42 0 45 1 27 9 23 55l-113 774q18 127 86 184 23-21 28-55 8-65 10-70 28-9 90-31v-35zM1089 1570q0-45-64-78-402-209-444-207h-54v44q-1 29 42 53 418 220 465 219h42q13-13 13-31zM2092-236q0-49-185-130-265-116-289-130h-37v57q52 61 224 131l272 108q15-15 15-36zM781 726q0-32-26.5-65t-49.5-33-107 53q-4 38 17 82 23 50 59 50 41 0 76-35 31-30 31-52zM1427 490q0-89 2-71-4-31-37-85-18-28-96-53-87-27-113-49 0-94-37-194-31-85-161-145-114-52-224-52-174 0-253 55-37 24-71 93-34 66-34 107 0 57 48 162t90 135q15-15 15-36 0-10-30.5-82.5t-30.5-86.5q0-194 286-194 200 0 308 108 4 77-4 100-11 36-57 128-42 81-42 94 0 36 45 101 18 0 42-15 57-71 60-73 27-23 89-23 58 0 113 37-5 20-30 63-21 40-21 53 0 3 32 101h47l50-72q14-22 14-106zM1396-293q0-37-36-67-30-25-51-25-39 0-93 51-18-8-59-43-34-28-48-28-32 0-68 34-34 31-34 53 0 29 28 63t54 34q17 0 96-51 82 82 93 82 29 0 73.5-40.5t44.5-62.5zM2891 1370l-24 26h-34q-25-25-44-68 8-3 16-3 19 0 86 45z" glyph-name="uniFB6D" horiz-adv-x="2812" unicode="&#xfb6d;"/><glyph arabic-form="isolated" d="M928 1033q0-33-30.5-65t-55.5-32q-27 0-62.5 33t-35.5 53q34 108 71 108 26 0 71-43 42-41 42-54zM1286 147q0-13-7-29-9-19-11-28-1-21-17-63-72-113-273-182-163-56-300-56-43 0-114 13-77 14-163.5 110t-86.5 163q0 53 115 317h36q13-13 13-30 0-10-31-90t-31-94q0-126 134-190 92-45 185-45h75q61 0 214 53 55 20 130 75-30 38-135 47-118 10-152 32v32q0 34 43 73 66 38 132 78 89 52 91 114l-26 28q-48-51-92-51-61 0-101 41-37 39-37 92 0 52 37 141 46 115 112 115 81 0 142-146 47-112 47-171 0-88-82-230 24-19 107-48 46-16 46-71zM1450-248q0-34-456-205h-55v41q-1 56 341 163 13 4 68 28 45 20 58 20h44v-47zM1061 591q-3 17-27.5 44t-39.5 34q-25-24-25-46 0-45 57-45 21 0 35 13z" glyph-name="uniFB6E" horiz-adv-x="1287" unicode="&#xfb6e;"/><glyph arabic-form="final" d="M3830 1366q-22-45-21-64-13-14-30-14-10 0-87 51-41-41-120-109-82-54-208-127-15 14-25 14 42 51 131 132t125 127q-3 9-28 23-28 17-41 35t-13 54q0 50 44 118 51 82 115 82 32 0 45-13 26-37 27-110 0 41-4-116 40-29 90-83zM3789 919q0-27-31.5-54.5t-49.5-27.5q-36 0-97 41-69-71-83-71-29 0-97 42-4 41 12 78 19 44 60 44 14 0 44-15.5t43-15.5q12 0 45.5 36t40.5 36q35 0 76-41 37-36 37-52zM3277 1293q0-31-45-76-10 3-59 29-40 21-54 21-9 0-27-19-24-35-165.5-130.5t-167.5-94.5h-54q14 36 169 148 147 108 147 132 0 10-35.5 51.5t-35.5 56.5q0 42 54 119 60 85 115 85 72 0 72-94 0-30-9-81-7-45-5-52 4-5 60-49 40-31 40-46zM3820 249q0-156-89-215-69-46-223-46-14 0-38.5-.5t-35.5-.5q-69 0-108 28-51 37-96 146-76-76-130-99-45-6-123-27-33-13-51.5-82.5t-103.5-167.5q-95-110-174-122-85-13-154-13-125 0-209 43 0 25 32 45 13 4 28 4 12 0 40.5-5t41.5-5q123 0 263 97 113 80 167 163-15 10-92 21-86 12-122 27-62 26-62 76 0 64 50 158 61 113 134 113 43 0 113-108l68-118q69 11 138 23 69 19 118 98 3 5 3 54l-61 553q0 96 35 112 8 0 24.5-16t18.5-29q19-210 58-553 11-25 41-174 15-98 192-98h97q27 0 79 25 60 28 60 57 0 34-28 61-21-18-57-47-33-25-79-25-52 0-100 54-44 49-44 80 0 33 45 129 45 100 71 112 30 14 58 14 91 0 154-138 51-111 51-204zM2120-262q0-18-32.5-53t-49.5-35q-32 0-69 34-33 31-33 48 0 21 23 59 27 43 54 43 25 0 66-36t41-60zM2438-488q0-37-47-73-54-42-194-91-108-39-216-77-14 15-14 41 0 11 14 46 105 42 276 110 58 29 168 69 13-1 13-25zM2263 270q0-127-72-187-55-47-172-66l-200-26q-28-5-101-3-4-2-15-15 27-47 27-133 0-89-34-149-41-71-118-71-115 0-222 197-6 34-27 102-5 4-56 11-5 24-30 69-36-4-304-15-22-16-35-54 4-15 4-40-20-50-49-137h-56q-110 72-110 236 0 29 4 54-7 6-25 6-63 0-145-25-106-33-106-82l51-517q0-32-19-90.5t-34-72.5q-28 88-55 294-25 195-25 309 0 68 35 146 40 86 100 126 65 42 146 51 28 2 71 7 17 2 62 69 37-33 116-101 16-13 80-29 49-14 158-14 8 0 88 7t110 7q15 10 24 25 31 84 109 246 25 41 71.5 83t68.5 42q42 0 71-75 21-54 21-83 0-51-35-135-25-59-57-93 0-33 31-33 161 0 495 53 3 1 78 45-6 41-64.5 114.5t-58.5 78.5q0 26 16 63 18 45 40 45 62 0 111-105 37-84 37-135zM1792-519q0-51-43-74-150-77-411-176h-36q0 4-5.5 10t-5.5 20q0 49 192 132 131 57 263 114h34q12-2 12-26zM3676 1493v48q-7 11-23 33h-35q-23-23-23-48 31-28 81-33zM3101 1411v91q-48-24-59-46 24-17 59-45zM3655 357v36q-25 40-77 66-34-35-34-52t22-39 39-22q13 0 29.5 5.5t20.5 5.5zM2774 174q-7 23-29.5 46t-37.5 23q-23-23-23-47 34-35 56-35 15 0 23 6.5t11 6.5zM1588 300q0 15-13 34-10 16-20 31h-36q-1-1-60-95-38-59-38-97l102 48q65 37 65 79zM1649-181q-18 23-94 67-74 41-86 40h-34v-34q-1-25 63-73 62-46 90-46 40 0 61 46z" glyph-name="uniFB6F" horiz-adv-x="3812" unicode="&#xfb6f;"/><glyph arabic-form="initial" d="M3072 1394q0-40-269-171-99-49-303-139v44q0 39 179 130 116 57 232 113 42 25 124 69h37v-46zM2960 1017q0-32-25-85-23-47-80-81-25-4-83-17-14-4-52-28-33-20-47-20-36 0-71 32 2 72 2 74 9 53 43 79 8-4 18-44 20-28 34-28 43 0 63 61 26 80 40 93 10-16 21-47t21-46q38 5 53 56 17 56 39 67 24-48 24-66zM2365 1322q2-39-98-92-143-68-429-218-14 14-14 41 0 54 122 119 73 34 146 67 77 45 226 130h47v-47zM1383 1201q0-20-24-66-17 5-52 18-28 12-42 12-13 0-38-31-34-44-40-49-53-49-142-104-73-45-147-91h-37q31 36 307 311-20 29-60 56-22 15-22 56 0 46 44 112 51 78 110 78 73 0 73-111 0-44-10-87 7-11 46-54 34-37 34-50zM2939 193q0-144-118-144-66 0-139 31t-86 31q-12 0-35-27-29-32-44-42-63-40-247-68-13-8-25-24-79-210-164-282-81-69-243-69-184 0-230 62 18 9 113 9 130 0 265 87 150 95 176 225-114 68-114 113 0 30 45 97 26-8 104-43 64-29 78-29h48q24 0 87 16 75 17 112 38 19 10 45 48 19 30 38 61 132 176 191 176 46 0 98-126 45-107 45-140zM1045 1201q0-66-36-66-13 0-36 15t-36 15-60-54q-64-71-79-85-20-18-197-107l-47 14q15 25 153 127 123 91 123 136 0 12-22 31-35 31-36 33-3 12-3 43 0 45 36 114 43 86 97 86 23 0 56-30 30-29 32-46-4-51-4-152 59-68 59-74zM1373 637q0-23-32.5-65t-49.5-42q-24 0-68.5 35.5t-44.5 51.5q0 20 33.5 64t48.5 44q23 0 70-40 43-38 43-48zM1762 336q0-12-12-45-14-38-16-53-26-157-304-207-31-6-275-15-10-25-41.5-145t-199.5-201q-145-71-283-71-89 0-190 61-123 73-123 180 0 59 48 169 38 90 78 151h37q-70-191-70-223 0-77 109-141 94-54 162-54 71 0 199 46 164 57 164 134 0 56-23 110-69 154-69 165 0 43 44 108-3 0 36-15 26-40 53.5-79t66.5-39q16 0 174 153.5t235 153.5q61 0 128-43 72-47 72-100zM2796 227q-34 68-52 68-33 0-50-37 10-10 12-24 63-21 90-7zM1239 1320v46q-13 14-37 14l-24-25q18-35 61-35zM932 1311q0 36-33 69h-35q-23-23-23-49 16-10 31-20 19-13 35-13 24 0 25 13zM1649 259q-18 25-65 47-45 19-78 19-72 0-194-151h126q38-2 122 36 75 33 89 49z" glyph-name="uniFB70" horiz-adv-x="2926" unicode="&#xfb70;"/><glyph arabic-form="medial" d="M6066 1272q3-69-34-101-103 51-134 51-12 0-57-46-55-55-84-73-182-116-381-185-11 3-36 12 34 28 230 148 150 93 220 181-9 27-44 49-27 18-27 63 0 48 47 113 53 77 117 77 70 0 70-117 0-26-4-64-3-33-3-37 40-20 120-71zM5391 1350q0-65-101-111-69-26-137-50-41-22-411-191h-46v33q-1 50 204 145l218 90q89 39 260 109 13-1 13-25zM6190-328q0-30-32-59t-55-29q-11 0-43.5 20.5t-44.5 20.5q-34 0-105-71-28 7-118 72-6 18 35 67.5t61 54.5l92-61q7 5 53 48 36 34 50 34 18 0 62-36 45-39 45-61zM4654 562q0-82-42-128-5 12-34 137-15 67-70 120-25 24-55 42-1 1-7.5 12.5t-6.5 26.5q0 19 16.5 40t34.5 21q30 0 79-47 45-42 60-79 25-57 25-145zM6118 255q0-59-3-68.5t-50-107.5q-165-34-193-34-54 0-117.5 30.5t-66.5 30.5q-12 0-39-28-30-33-46-40-53-24-114-24-12 0-41.5 10t-40.5 10q-13 0-79.5-15t-79.5-15q-63 0-129 13-3 0-19.5 14t-31.5 14q-9 0-93-21-91-23-131-28-118-12-308-12-132 0-150 2-64 5-216 39-94-209-187-289t-240-80q-148 0-246 68 103 14 148 14 77 0 183 44 31 12 139 108 124 110 124 155 0 11-43 56-48 50-57 70-2-1-2 22 0 31 45 98 55-48 166-111 138-38 196-46 54-7 201-7 166 0 149-1 106 6 301 44 24 5 83 51t74 49q17-17 12-49-9-56-9-43 0-56 77-31 92 0 130 23 19 11 36 41 24 43 26 47 17 21 45 21 3-5 3-81 0-27 18-31-4 1 29 1 50 0 76 40l64 112h37q0-10-5-36.5t-5-37.5q92-58 150-58-29 0 149 19 0 4 5 6t5 16q0 17-31 85-33 73-65 123-29 45-74 59-15 23-15 66 0 57 45 118 97-68 157-196 54-117 54-229zM3384 1098q0-64-12-100-3 0-11-5.5t-23-5.5q-12 0-66 41t-66 41q-9 0-42-44-39-49-48-55-220-158-341-167-15 13-25 13 35 47 174 127 136 79 194 162-17 34-56 66-26 23-26 62 0 43 47 117 55 88 117 88 33 0 61-41 27-37 27-67 0-46-14-142 30-33 110-90zM4162-416q0-67-187-126-142-44-259-88-14 14-14 30 0 70 321 166 42 20 125 49 14-13 14-31zM3732 291q0-90-172-166-119-54-210-67-21-3-235-10-143-5-225-47-8-5-54-89-52-98-108-159-34-38-114-83-37-9-103-27-54-18-109-18-205 0-266 73 23 9 143 9 133 0 274 76.5t227 197.5q0 9-17 20-128 15-149 20-100 31-100 111 0 64 54 167 61 115 120 115 54 0 124.5-133.5t111.5-133.5q101 0 154 38-30 93-18 123 109 290 268 290 54 0 138-33 96-37 123-85-21-46-46-46-13 0-59 20.5t-59 20.5q-59 0-146-32-110-39-110-96 0-58 69-106 61-43 105-43 66 0 192 44 109 39 183 79 14-15 14-30zM1931 1340q0-15-22-53-23-41-43-52-301-151-603-303-395-199-647-364h-35q-12 1-12 24 0 76 149 170 95 52 191 104 162 91 441 225 160 77 533 274h36q12-1 12-25zM1501 531q0-19-34-53t-54-34q-25 0-127 73-3 32 26 74 30 48 66 48 33 0 78-43t45-65zM2289 296q0-67-53.5-163.5t-112.5-134.5q-117-78-431-151-295-68-468-68-220 0-434 43-246 49-353 135-146 118-206 308l12 65q25 0 45-32 85-182 423-290 274-85 544-85 95 0 362 43 62 13 195 41 39 18 112 44 66 16 151 58 122 59 122 110 0 13-51 95t-51 95 18 51q22 46 24 55h46q106-93 106-219zM5882 1367v47q-12 11-35 34l-25-14v-45q43-22 60-22zM3210 1224v56q0 21-46 45-38-37-35-59 42-42 81-42zM2718 158v37q-42 65-78 65-33-34-33-69 65-33 67-33h44z" glyph-name="uniFB71" horiz-adv-x="6129" unicode="&#xfb71;"/><glyph arabic-form="isolated" d="M1829 890q0-31-32.5-64.5t-49.5-33.5q-30 0-67 30-35 28-35 42 0 19 29 59 33 44 57 44 28 0 63-27t35-50zM784 951q0-61-142-135-99-53-149-65l-56 12q3 26 59 59 81 49 104 68-12 36-77 36-71 0-120-81h-38q59 183 194 183 53 0 130-20 95-25 95-57zM2310-492q0-42-189-140-128-60-255-120h-47v44q-1 33 176 119 260 128 267 132h35q13-13 13-35zM1695-380q-55-86-97-86-12 0-43 15t-44 15q-8 0-46-31t-56-31q-8 0-91 53-1 6-1 13 0 41 32 72 27 26 50 26 11 0 43-15t44-15 48 35.5 49 35.5q48 0 112-87zM2064 239q0-53-45-160-13-31-108.5-73t-153.5-42q-111 0-183.5 40.5t-87.5 40.5q-51 0-182-64-54-26-78-67-42-71-26-201 12-97 10-104-5-19-90-136h-48q-73 127-73 179v254q0-8 31 85 6 23-31 23-12 0-79-10t-80-10q-10 0-42 7-44 8-88 14-12-52-24-105-29-100-65-100-28 0-78 46t-53 81q-6 66 8 122-15 16-52 16-106 0-195-76 7-96 30-308 22-197 22-203 0-163-69-179l-75 572q-7 161 115 271 46 42 119 57 101 20 108 22 16 20 52 60 45-40 147-111 78-43 197-43 242 0 309 142h48q0-60-81-177.5t-81-163.5q0-28 16-77 7 6 52 80 38 61 49 75 34 49 69 75 27 21 117 57 97 40 137 40 11 0 63-27 56-27 76-32 62-13 127-13 42 0 105 23 79 28 79 65 0 20-15 52-15 35-31 35-13 0-64-36t-64-36q-56 0-91 42-31 40-31 96 0 65 33 144 46 107 120 107 95 0 168-166 57-132 57-203zM1480-626q0-40-202-132-147-64-295-129-13 13-24 13v32q0 41 109 93 59 25 119 49 82 34 246 110h47v-36zM1869 420q-44 44-58 44-34-34-34-50 0-15 6-26t6-14h68z" glyph-name="uniFB72" horiz-adv-x="2212" unicode="&#xfb72;"/><glyph arabic-form="final" d="M3528 1419q0-20-413-279h-36v63q-1 23 402 272h47v-56zM2955 1348q0-21-20-43.5t-37-22.5q-12 0-50.5 25.5t-51.5 25.5q1 0-133-101-146-111-245-155l-46 11v29l172 130q96 74 145 133-4 11-27 26-29 19-33 23-22 22-22 63 0 42 46 118 56 91 123 91 83 0 83-95 0-28-9-87-8-51-6-66 35-23 70-47 41-28 41-58zM2996 877q0-35-36-64-30-22-46-22-13 0-54 25t-53 25q-11 0-47-35.5t-51-35.5q-31 0-69 43-33 37-33 49 0 32 33 69 31 33 49 33 12 0 57.5-25.5t54.5-25.5q13 0 46 36t46 36q32 0 68-42 35-40 35-66zM1972 1256q0-12-6-28.5t-6-26.5q-3 0-11-6t-23-6q-13 0-61.5 36.5t-61.5 36.5q-1 0-100-76-116-88-205-139h-45q-14 13-14 30 0 13 100 96 130 110 167 146-1 11-24 28-35 26-37 28-4 16-4 35 0 73 51 146t111 73q87 0 87-91 0-45-41-148 37-32 75-63 48-42 48-71zM3518-320q0-18-38.5-57.5t-58.5-39.5q-9 0-102 61-108-72-113-72-36 0-79 34-39 30-39 48 0 32 39 70 34 32 48 32 11 0 60.5-25t62.5-25q12 0 48.5 41t48.5 41q26 0 75-48 48-44 48-60zM3467 263q0-92-46-157-66-94-297-94-73 0-145 13-12 2-55 25.5t-56 23.5q-11 0-29-12-20-13-31-16-82-26-216-47-29-5-50-52-16-37-32-75-15-29-42-72-95-121-173-162-69-35-180-35-23 0-244 22 0 5-5.5 24t-5.5 24q9 1 123 1 264 0 471 291-16 12-92 21-81 10-117 29-58 31-58 100 0 64 44 151 53 104 120 104t126-87q37-63 76-128 49 1 98 1 63 9 92 46-4 17-4 36 0 109 67 222 72 126 159 126 56 0 93-77 30-63 30-128 0-9-51-188 8-4 27-14 24 0 86-7t71-7q34 0 85 24 47 22 68 44-9 19-62 108-40 66-40 81 0 21 17 65 19 47 35 47 53 0 102-124 41-103 41-147zM907 1420q0-44-53-74-149-78-453-247h-45v68q135 112 504 288h35q0-4 6-12.5t6-22.5zM1921 257q-4-37-15-98-15-53-23-72-18-44-40-61-27-21-112-37-82-16-116-47-22-54-78-153-90-115-162-153-78-43-212-43-125 0-234 43v37q6 1 121 1 127 0 267 79 145 82 194 191-62 17-117 17-128 0-128 113 0 67 43 150 56 105 135 105 53 0 112.5-107t92.5-107q35 0 97 19 64 20 73 36-27 211-86 625-3 13-21 55-16 38-16 53 0 24 29 77 29 49 57 76 31-14 31.5-39t1.5-50q3-13 15.5-25.5t41.5-20.5q34-11 47-18 5-11 5-22 0-34-37-90-47-71-48-73zM723 682q0-35-33-68-29-28-49-28-27 0-70 27t-43 49q0 29 25 66 27 42 57 42 27 0 70-32.5t43-55.5zM1050 145q0-123-45-191-55-85-193-133-96-33-171-33-127 0-217 54-111 67-111 196 0 51 37 154 41 117 82 127 14-12 24-12v-46q0-12-25-73t-25-73q0-174 266-174 83 0 173 35 114 42 114 108 0 22-23 95-25 82-53 133-2 4-33 41-25 30-25 43 0 41 66 128 57-36 109-165 50-125 50-214zM2780 1497v58q-23 24-36 24-35-18-35-48l34-34h37zM2996 340q0 37-55 92-30-10-64-35-45-33-45-68 0-24 25.5-47.5t51.5-23.5q22 0 54.5 29t32.5 53zM1807 1426v67q-22 24-37 24-11-6-33-24v-45q43-22 70-22zM2391 153q-23 58-56 74-13-7-35-21v-38l13-12q5 0 37-3 26-1 41 0zM1449 116q-29 59-57 59-23-22-23-49z" glyph-name="uniFB73" horiz-adv-x="3460" unicode="&#xfb73;"/><glyph arabic-form="initial" d="M2967 1488q1-32-209-144-146-77-257-126-25 25-25 36 0 47 83 92 62 29 125 58 77 40 236 130h47v-46zM2886 1049q0-23-35-60t-58-37q-31 0-68 33-34 31-34 44 0 16 26 53 31 44 62 44 21 0 64-30t43-47zM2363 1355q0-48-148-127-133-71-165-70h-44v37q17 16 174 111-28 25-52 25-54 0-136-81h-47q5 32 23 79 50 64 122 100 9 5 74 5 1 0 76-11 69-9 106-6l17 13v-75zM2405 783q0-28-38-60-32-27-50-27-30 0-63 29t-33 48 35.5 53 56.5 34q43 0 71-31 21-25 21-46zM1698 1418q0-45-231-165-148-74-296-147-15 15-15 30 0 57 101 114 64 31 127 62 87 45 267 141h34q13-13 13-35zM1606 824q0-23-29-64-32-43-58-43-23 0-63 33-45 36-45 63 0 26 35 62t58 36q20 0 61-34t41-53zM1770 629q-78-97-113-97-26 0-87 62-109-82-123-82-9 0-107 65 39 119 92 119 11 0 52.5-25.5t54.5-25.5q11 0 52 41t56 41q50 0 123-98zM3111 215q0-45-47-87-40-36-66-36-20 0-47 17-58 14-234 14-11 0-77-26-71-27-96-33-82-12-225-47-126-48-283-48-78 0-88 4-21 5-67 43-42 35-55 35t-32-20q-24-24-31-28-26-13-95-13-13 0-59 10t-59 10-89.5-15-90.5-15q-89 0-145 36-28 20-65 69-28 38-51 38-12 0-61-43-54-47-67-80 50-45 210-64 118-14 118-110 0-61-47-125-52-72-141-107-75-31-224-60-125-25-156-25-120 0-239 64-156 84-156 228 0 50 45 155 45 110 91 165h48q-10-30-54-128-37-83-37-95 0-125 147-191 100-45 201-45 58 0 207 41 160 44 182 77-14 14-28 22-76 7-152 13-138 22-138 108 0 68 109 197 113 136 183 136 4 0 102.5-66.5t204.5-66.5q82 0 109 29 66 68 88 83 1-31 3-95 17-17 36-17 62 0 94 42 29 50 57 100h38q0-9-5-50-4-36-3-54 56-39 114-47 13-2 99-2 126 0 328 69-12 19-82 50-79 35-138 35-12 0-38.5-5t-35.5-5q-13 2-13 26 0 103 341 212 100 32 224 132 53 52 107 105 66 61 113 57 34-31 60-98 25-63 25-107 0-87-67-143-18 50-35 100-31 84-72 84-14 0-52-44-63-72-66-75-35-35-106-79-101-63-114-72 121-60 310-80 161-15 322-29 13-13 13-30zM960 869q-13-105-158-176-120-58-230-58-12 0-59 10t-58 10q-13 0-45-31-50-46-69-61-15 1-15 25 0 23 56 105 56 85 78 85 12 0 71-15.5t72-15.5q178 0 310 122h47zM787 348q0-78-35-161-14-22-40-22-2 58-3 115-3 71-18 112-6 20-44 77-34 51-34 63 0 23 13 50 16 32 38 32 58 0 97-131 26-92 26-135z" glyph-name="uniFB74" horiz-adv-x="3120" unicode="&#xfb74;"/><glyph arabic-form="medial" d="M1365 1530q0-51-54-83-319-189-372-187h-55v44q0 30 163 114 270 137 271 138h35q12-2 12-26zM1364 1082q-5-12-14-27t-11-17q-68-30-267-96-65 98-65 133 0 47 70 112 67 62 104 62 24 0 58-20.5t34-40.5q0-19-20.5-45.5t-41.5-26.5q-13 0-36 12-28 15-47 20 0-8-19-27 55-36 102-36 15 0 25.5 8.5t27.5 8.5q29 0 100-20zM1324 159q0-86-42-157-8-1-26-11l-126 822q0 57 53 149 39 0 45-35 30-164 65-470 31-265 31-298zM639 614q0-21-33-61.5t-49-40.5q-36 0-103 63 0 25 30 78t46 53q31 0 72-41 37-37 37-51zM987 143q0-79-5-102-14-69-72-139-51-60-176-96-105-31-204-31-120 0-201 54-100 67-100 201 0 67 42 157 45 96 96 120 15-15 15-41 0-13-30.5-87t-30.5-87q0-81 87-132 69-41 128-41 112 0 221 34 148 47 148 129 0 56-25 115-8 21-53 115-35 72-35 87 0 34 43 102 19 0 44-15 108-151 108-343z" glyph-name="uniFB75" horiz-adv-x="1318" unicode="&#xfb75;"/><glyph arabic-form="isolated" d="M3666 1346l-24-23q-8 2-49 24-32 17-50 17-14 0-22-3-41-45-123-117-52-36-136.5-81t-103.5-44h-63q0 18 2 27 77 52 155 104 103 71 169 141v27q-51 27-64 51-8 13-8 48 0 59 40 118 46 66 109 66 77 0 77-103 0-34-9-67 0-3 4-19 5-19 6-28 30-16 90-62v-76zM3666 908q0-17-36.5-57t-54.5-40q-12 0-44.5 20.5t-42.5 20.5q-13 0-46.5-30.5t-46.5-30.5q-17 0-117 74 10 43 37.5 76.5t54.5 33.5q11 0 46-20.5t46-20.5q13 0 48.5 30.5t48.5 30.5q22 0 64.5-33t42.5-54zM1783 1312q0-52-120-115-70-31-139-62-130-63-237-129h-34q-13 13-13 30 0 66 259 186 82 41 269 131 15-14 15-41zM3083-176q0-53-44-74-388-189-434-187h-54v44q0 36 122 91 63 26 127 50 155 71 271 110 0-3 6-11.5t6-22.5zM3728 304q0-20-22-88-24-70-35-80-90-77-258-106-115-19-232-38l-512 10q-14 0-59-52-58-65-77-81 4 48 4 135-168 90-176 90-9 0-40-22-34-24-48-29-64-21-142-21-72 0-113 19-54 25-118 104-27-34-99-98-50-35-100-35-21 0-93.5 36t-75.5 36q-13 0-102.5-46t-101.5-46h-150q-226 0-353 133-78-77-136-98-39-15-119-15-77 0-88 3-50 11-98 71-57 69-69 259-13 133-31 399-2 47-20 149-17 99-17 107 0 45 54 117h36q35-87 44-381 11-330 32-431 6-26 51-78 48-55 75-59 19-3 66-3 94 0 146 33 32 35 105 101 41-38 126-101 15-9 102-34 97-29 130-29 50 0 133 17 96 21 130 46 19 13 37 54 24 50 36 67h36q17-47 4-115 91-48 121-48 33 0 91 27 69 33 69 70 0 22-12 94t-12 113q0 72 32 115 39-16 59-92 10-64 21-127 35-191 223-191 71 0 131 36.5t89 36.5q13 0 128.5-46.5t127.5-46.5q15 0 101 96 110 123 174 178 112 95 191 95 74 0 133-33 72-39 72-105 0-37-27-110-23-57-45-114 6-7 31-7 74 0 204 39 123 37 144 60-9 37-62 129-51 86-51 95 0 42 44 107 8 0 46-15 49-44 84-125 31-75 31-131zM1005 1394q0-53-64-88-228-127-414-198-14 14-14 31 0 56 103 110 63 27 125 55 99 65 249 121 15-14 15-31zM2264-249q0-27-34-63-30-34-48-34-14 0-51 22-43 25-56 30-68-73-93-73-40 0-107 65 40 120 97 120 12 0 47-25.5t45-25.5q11 0 46 35.5t51 35.5q28 0 67-37 36-33 36-50zM841 611q0-33-38-62-31-25-49-25-23 0-65.5 30t-42.5 46q43 109 88 109 36 0 73-41 34-36 34-57zM1588-264q0-31-34-62-30-30-53-30-21 0-64 31t-43 51q0 18 29 58 30 44 53 44 39 0 79-43 33-37 33-49zM3502 1529q0 5-5.5 24t-5.5 25h-37q-14-26 11-49h37zM3226 306q-136 54-163 54-52 0-137-73-80-71-108-131h115q32 0 151 57 124 60 142 93z" glyph-name="uniFB76" horiz-adv-x="3720" unicode="&#xfb76;"/><glyph arabic-form="final" d="M2684 1329q0-42-125-123-96-62-154-85-8-4-113-63-79-45-116-45-13 0-23 6-4 58 86 115 70 37 142 74 84 54 257 151h34q12-13 12-30zM2214 1411q0-98-207-175-161-60-238-60-12 0-85.5 25t-83.5 25q-11 0-53-42-55-54-77-70-14 2-14 26 0 22 67 114 69 95 97 95 12 0 49-24 45-29 60-35 6-2 65-2 103 0 212 43.5t170 109.5q38 0 38-30zM2695 243q0-98-36-182-219-73-369-73-38 0-106 41-10 91 44 132 82-20 135-20 188 0 251 58 7 38-112 166-13 13-101 56-34 16-34 48 0-8 33 91 3 0 11 5.5t23 5.5q32 0 110-52 69-46 75-57 29-52 57-106 19-42 19-113zM1978 264q0-53-42-203h-38l-104 879q0 25 54 132 26 0 34-13 15-108 48-390 7-70 29-242 19-151 19-163zM1311 1348q1-4 1-9 0-32-49-81-40-40-76-60-191-101-297-176h-46q-5 70 23 90 76 57 203 128 108 60 217 120 15-12 24-12zM718 1279q-4 0-12-6t-23-6q-14 0-37 18-28 19-43 23-35-47-111-129-51-42-136-89t-104-46h-55q35 53 152 138 134 98 175 143-5 14-34 34-40 26-58 43 0 59 29 130 41 104 115 104 47 0 64-66-3-41 0-122 1-14 78-91v-78zM360 1334q0-32-33-66-8 0-34 10t-40 10q-12 0-50-45-47-57-70-74-27-21-175-96l-58 14q93 77 276 236-92 50-92 93 0 32 43 113 52 97 101 97 56 0 68-96 3-61 5-122 59-68 59-74zM636 867q0-38-21-76-25-46-65-46-11 0-47.5 15.5t-49.5 15.5-41-25.5-41-25.5q-41 0-79 37-34 31-34 50 0 28 34 65 29 32 43 32 11 0 47.5-20.5t49.5-20.5q12 0 47 36t45 36q16 0 54-30 58-42 58-43zM1764-385q-45-60-151-91l-174-48q-1 22-6 62-49 38-49 82 0 48 64 105.5t116 57.5q45 0 77-35-12-28-54-87-23-2-56 31h-27q-3-9-17-27 28-36 118-36 55 0 134 11zM1641 270q0 9-46-158-53-35-284-76-87-209-176-297-100-99-252-99 33 0-220 23-28 2-67 51 40 8 221 8 19 0 109 42 97 46 143 82 82 66 152 188-11 22-67 49-46 21-46 64 0 15 19 53t37 54q108-61 159-61 36 0 121 20 81 19 94 28v27q0 5-36 64.5t-36 74.5q0 4 33 102 50 8 99-94 43-88 43-145zM1887-477q-16-32-55-75-128-52-390-165h-36v33q-1 50 196 133l260 98zM729 259q0-107-61-181-66-80-169-80-44 0-85 36-43 36-43 82 0 53 33 131 23 53 45 105 2 45 5 90 9 78 50 78 42 0 127-74 77-68 84-94 14-47 14-93zM575 1475q-18 38-37 38l-24-25 24-26zM227 1479q-21 22-39 22l12-59q27 14 27 37zM627 208q0 35-109 117-4-12-31-55-24-38-24-52 0-26 23.5-46t53.5-20q27 0 54 13 33 18 33 43z" glyph-name="uniFB77" horiz-adv-x="2682" unicode="&#xfb77;"/><glyph arabic-form="medial" d="M2970 1448q-12 0-8-26 4-29-3-35-86-61-438-236h-36q-12 2-12 25 0 57 44 83 68 41 203 101 150 67 208 97zM2872 899q0-36-31-68-28-28-51-28-24 0-68 35t-44 52q0 14 37.5 55.5t55.5 41.5q41 0 73-33 28-28 28-55zM2381 1386q0-40-231-168-167-91-296-149-15 12-25 12v32q-1 49 208 154 271 138 286 149h46q0-4 6-9.5t6-20.5zM1674 1247q0-47-516-300h-36v54q0 33 215 144l290 148h47v-46zM3179 291q0-80-3-93-3-15-42-89-17-34-155-80-135-45-204-45-89 0-186 23-29 7-101 45-66 34-76 34 5 0-135.5-41t-176.5-41q-196 0-278 113-12-6-74-60-47-43-89-43-11 0-66 26t-67 26q-13 0-82-20.5t-82-20.5q-87 0-160 36-47 24-99 70-43 37-53 37-24 0-63-38t-39-60q0-36 77-59 59-17 112-17 13 0 15.5 5t15.5 5q35 0 62-32 25-30 25-65 0-174-254-262-173-61-351-61-419 0-419 298 0 147 156 337 38 0 38-26 0-10-51-107.5t-51-112.5q0-135 141-199 96-46 213-46 102 0 220 27 139 32 205 83 6 23-31 23-13 0-18-5t-18-5q-50 0-126 40-84 44-84 88 0 67 97 194 107 138 195 138 26 0 60-35l55-56q69-52 187-52 80 0 93 11 26 23 61 71 38 54 55 71 15-11 24-11 0-13-9.5-56t-9.5-56q0-36 67-30 51 0 79 42l72 120h48q-1-9-1-18 0-155 232-155 83 0 190 39-12 60-120 44-14 13-14 30 0 63 95 123 80 51 121 51 71 0 151-30 104-41 104-108 0-38-72-104 27-65 200-65 65 0 172 24 140 32 140 78 0 38-36 72-30-10-57-36-16-15-65-15-57 0-100 46-38 43-38 92 0 62 43 153 53 108 121 108t145-140q52-95 66-150 3-16 3-78zM2994 424v37l-42 44h-36q0-1-2-2-11-9-11-28 0-18 34-51h57z" glyph-name="uniFB79" horiz-adv-x="3191" unicode="&#xfb79;"/><glyph arabic-form="isolated" d="M2010 1353q0-53-48-127-51-78-110-95-31-10-194-27-19-9-67-26v34q-1 39 62 103 14 15 83 18l72 108q60 84 110 84 25 0 58.5-24.5t33.5-47.5zM1426 1375q-598-216-604-216-14 0-51 32v48q3 3 44 28 503 179 560 179 26 0 51-22v-49zM1866 258q0-179-68-204l-126 843q-8 67 54 149 40-11 75-240 65-426 65-548zM1283 1133q0-48-41-113-47-76-102-76-13 0-13 5v0q-1 5-13 5 2 0-44.5-30.5t-83.5-30.5q-71 0-71 61 0 45 45 113 12-9 35-39 18-23 32-23 20 0 37 28 14 46 48 136 34-14 35-43 1-26 2-51 8-8 21-8 32 0 48 47 21 61 40 75 25-25 25-56zM710 1010q0-19-23-65h-32q-16-1-33 16-24 21-29 24-165-185-328-246l-46 11v39q125 82 140 92 94 68 146 131-3 10-26 25-30 20-34 24-22 21-22 67 0 59 39 131 46 84 104 84 76 0 76-132 0 1-8-97 27-29 54-57 22-23 22-47zM1539 176q0-204-159-204-52 0-145 33-16 6-45 37-38 39-55 52-71-88-107-113-44-30-113-30-84 0-118 37-23 25-74 147-29-14-103-68-34-24-110-24-54 0-103 15-66 21-66 62 0 72 179 204l186 136q7 32 14 63 12 42 41 63 27-32 30-92 5-88 6-97l28-182q31-121 115-121h46q37 0 83 47 36 37 46 62 4 10 4 24 0 13-20.5 161.5t-20.5 161.5q0 64 32 146 8 1 26 12 28-167 88-495 4-23 61-55.5t86-32.5h59l17 17q-20 51-58 195-44 170-44 233 0 40 25 90 23 43 43 58 126-536 126-542zM1907 1273v28q-14 11-37 11-39-35-48-80 32 11 85 41zM576 1153q-7 23-34 68-29-13-33-38-4-20 8-34 40-19 59 4zM720 263q0 15-6.5 33.5t-6.5 22.5q-87-30-202-107 22-21 22-25h94q16-1 55 25 44 28 44 51z" glyph-name="uniFB7A" horiz-adv-x="1874" unicode="&#xfb7a;"/><glyph arabic-form="final" d="M1438 1638q0-42-211-157-179-97-297-140-14 15-14 31 0 52 209 163 260 139 265 143h36q0-4 6-15t6-25zM1427 1185q-25-63-134-94-161-46-179-56-2 16-38.5 70.5t-36.5 66.5q0 30 66 103 71 77 113 77 20 0 51-23 36-26 36-54 0-39-56-67-22 16-63 41h-26q0-3-4.5-17.5t-4.5-27.5q59-37 93-37 6 0 183 18zM1387 194q0-88-42-172-8-1-26-11l-127 879q-4 99 55 164 12 0 34-33 27-169 68-496 38-302 38-331zM752 670q0-20-33.5-63.5t-48.5-43.5q-17 0-59.5 34.5t-42.5 52.5q0 20 33.5 64t48.5 44q29 0 67-38 35-34 35-50zM1059 174q0-184-166-278-125-70-289-70-11 0-50 5.5t-52 5.5q-47 0-108 64-53 54-59 83-3 12-3 62 0 58 30 143 33 94 76 137h37q-50-154-50-188 0-81 77-130 62-39 132-39 75 0 190 35 154 48 154 119 0 30-25 106-10 32-52 107-37 66-37 79 0 45 55 117 30 0 44-23 60-128 73-167 23-71 23-168z" glyph-name="uniFB7B" horiz-adv-x="1387" unicode="&#xfb7b;"/><glyph arabic-form="initial" d="M1740 1699q0-49-36-85-45-47-100-63-186-54-218-54h-36v23q14 13 196 117-10 24-61 24-32 0-132-61v47q120 126 157 126 57 0 230-74zM2160 1255q0-24-170-124-247-146-263-156-5 0-18.5 5.5t-18.5 5.5v33q-1 44 53 74 20 10 222 129 135 80 151 80h44v-47zM1698 1239q0-45-20-56t-136-38q-45-24-135-68-7 6-18 64-68 60-68 89 0 45 84 107 78 57 110 57 24 0 49-13 33-16 33-43 0-26-26-48-22-19-35-19-12 0-38.5 16t-36.5 16l-28-28q6-45 118-45 67 0 147 9zM2048 206q0-129-90-175-57-29-182-29-83 0-100 5-67 17-86 91-45 172-84 517-32 275-32 334 0 31 44 117h36q41-185 53-294 8-96 17-191 10-77 30-246 5-47 10-93 16-65 73-84 7-2 80-2 107 0 128 27v28q0 27-89 122-3 12-3 32 0 98 62 98 65 0 106-126 27-86 27-131zM1198 903q0-31-33-68-32-35-49-35-13 0-48.5 26t-48.5 26q-14 0-43.5-36t-43.5-36q-29 0-68 40-35 36-35 47 0 33 37 62 30 25 50 25 11 0 38.5-15.5t43.5-15.5q13 0 51.5 36t51.5 36q19 0 58-36.5t39-55.5zM798 1403q-4-32-26-79-83-61-215-135-112-61-223-122h-36v45q-1 33 133 109 77 42 155 83 57 35 165 99h47zM2079-244q0-24-33.5-57.5t-54.5-33.5q-12 0-48 20.5t-49 20.5-51.5-31-50.5-31q-34 0-68 25t-34 52q0 28 32 64 32 33 50 33 12 0 53-20.5t54-20.5q12 0 48 36t49 36q34 0 68.5-32.5t34.5-60.5zM1341 58q0-62-45-145-36-67-252-135-194-63-296-63 3 0-89 18-301 55-301 279 0 44 48 142 43 88 70 120 27 13 45 13v-46q0-12-30-73.5t-30-73.5q0-118 134-180 98-45 209-45 157 0 394 109-24 44-121 60-110 17-155 59 6 58 99 98 122 52 157 89 3 42-14 69t-85 105q-55 62-55 76 0 33 43 103h32q27 0 91-88 59-82 65-111 5-19 5-62 0-77-20-111-34-56-42-83 7-10 83-48 60-29 60-76zM1423-315q0-47-150-120-86-42-160-67-48-24-147-59-14 14-14 31 0 47 36 67 137 77 421 178 14-14 14-30z" glyph-name="uniFB7C" horiz-adv-x="2045" unicode="&#xfb7c;"/><glyph arabic-form="medial" d="M3272 1370q0-76-84-155.5t-152-79.5q-10 0-34.5 4.5t-37.5 4.5q-22 0-65-38-8 1-37 16 11 34 44.5 76.5t61.5 54.5q14 2 40 6 43 64 87 128.5t104 64.5q73 0 73-82zM2841 1378q-9-34-42-87-46-35-135-76-85-39-105-39h-65q4 36 73 69 85 41 101 58-25 36-77 36-29 0-112-60h-36q6 39 71 99 67 64 113 64 60 0 214-64zM3579 233q0-106-46-191-34-64-221-64-162 0-181 85-43 190-98 546-48 313-48 346 0 61 57 117 40-89 74-272 24-142 49-284-2-32 0-92 14-72 37-235 8-14 26-36 78-33 100-33 41 0 141 21 7 7 7 26 0 11-41 75.5t-41 77.5q0-2 33 97h57q23-23 49-63 46-70 46-121zM2258 1421q0-42-210-168-199-119-226-118h-45v48q66 61 208 140 186 102 226 129h34q13-14 13-31zM3548-237q0-30-32-61.5t-55-31.5q-29 0-72 32-46 34-46 61 0 37 30 70 28 32 52 32 37 0 83-46 40-41 40-56zM3752-387q0-26-62-57-36-16-73-31-12-8-103-42-105-44-322-129 0 3-6.5 12t-6.5 23q0 45 37 63 167 77 511 218 15-11 25-11v-46zM2217 812q0-26-33.5-62t-63.5-36q-40 0-76 36-32 31-32 46 0 20 26 58 28 45 56 45 18 0 70.5-34t52.5-53zM1653 1307q-5-62-145-146-129-78-187-78-16 0-66 25 61 36 194 122-70 27-82 27-15 0-65-27-68-38-81-44-1 4-1 10 0 47 65 106 62 58 108 58 38 0 260-53zM1808 658q0-23-36-60t-57-37q-12 0-45.5 20.5t-46.5 20.5-51.5-20.5-50.5-20.5q-34 0-68.5 25t-34.5 51q0 31 33 66 31 32 49 32 11 0 49.5-20.5t53.5-20.5q10 0 46 30.5t50 30.5q25 0 67-39.5t42-57.5zM2739 300q-2-183-71-252-62-60-216-60-11 0-130.5 20.5t-130.5 20.5q-12 0-130-30.5t-131-30.5q-164 0-222 111-163-111-510-111-156 0-162 148-2 24 7.5 60.5t9.5 48.5q0 24-20 39-313-62-429-171-118-111-118-351 0-368 538-368 36 0 505 29 0-28-11-37-144-45-421-122-11-4-175-4-9 0-75-1-49-2-79 0-43 3-74 14-78 31-118 53-77 42-107 91-95 156-95 248 0 176 61 333 74 186 216 282-20 35-62 35-45 0-100.5-40.5t-72.5-40.5q-12 0-22 7 31 96 96 159 69 68 150 68 10 0 65.5-13t83.5-15q190-13 256-13-25 0 186 30 13-13 13-30 0-57-52-108-26-11-68-43-1-1-7-9.5t-6-23.5q0-80 73-98 15-5 96-5 13 0 136 10.5t135 10.5q67 0 103 60 50 81 89 104 4-39 15-107 9-37 87-60 59-18 111-18 23 0 65 11 47 12 49 25-4 7-4 22 0 78 69 187 81 124 169 124 56 0 95-64 33-52 33-100 0-52-41-158 43-26 82-26 184 0 184 61 0 11-20 92-23 89-28 128-19 135-58 369-2 11-21 45-16 31-16 53 0 35 25 88 29 60 62 76 21-14 23-46 2-44 4-50 9-21 33-34.5t47-25.5q0-52-41-143zM1295-168q-11-37-43-86-255-147-445-198-14 2-14 26 0 56 34 76 134 61 401 195zM3178 1289v49h-47q-39-38-54-78 12-5 24-5 21 0 48 17t29 17zM2329 264q0 24-18.5 53t-42.5 29q-23 0-57.5-36t-34.5-51q0-18 24.5-37.5t51.5-19.5q16 0 44 18 33 21 33 44z" glyph-name="uniFB7D" horiz-adv-x="3583" unicode="&#xfb7d;"/><glyph arabic-form="isolated" d="M1298 1635q0-44-122-109-68-32-137-64-67-34-134-69-77-38-117-38-19 0-33 7 5 24 34 63 46 27 484 245 25-24 25-35zM1215 1120q-95-37-283-114-4 16-25 79-19 51-19 64 0 50 52 109 54 65 112 65 31 0 59-34 23-27 23-43 0-17-21.5-41.5t-40.5-24.5q-13 0-34 16-26 21-39 25 0-8-18-27 45-45 91-45 26 0 54.5 9t39.5 9q22 0 49-20v-27zM786 1091q0-36-104-96-68-36-136-71h-45q-12 1-12 25 0 26 113 94 2 15-7 20-9 4-34 4-40 0-61-18-35-27-68-54-14 2-14 26 0 50 64 105 61 54 109 54 86 0 195-54v-35zM1195 237q-7-42-15-85-10-46-39-77h-36l-104 797q11 44 21 87 16 45 58 66zM878 171q0-62-80-207-26-50-89-141-68-78-120-104-48-24-187-24-171 0-230 67 7 7 25 21 33-6 118-6 118 0 249 87 145 96 202 235 3 6-6 16-39-31-82-31-69 0-113.5 46t-44.5 112q0 63 48 157 58 115 131 115 36 0 96-94 56-85 59-115 1-17 14-72 10-50 10-62zM724 261q0 26-21 52.5t-39 26.5-41-24v-34q33-35 61-35 26 0 40 14z" glyph-name="uniFB7E" horiz-adv-x="1170" unicode="&#xfb7e;"/><glyph arabic-form="final" d="M1791 1602q0-47-27-64-147-72-448-226h-36v43q-1 50 496 283 15-14 15-36zM1760 1117q-97-47-314-134-10 16-1 66 0 9-21.5 38.5t-21.5 43.5q0 46 76 119 73 71 108 71 21 0 57-29.5t36-47.5q0-23-33-47-27-20-39-20-13 0-34 17-27 22-32 24l-37-36q22-21 38-33 8 0 27-6.5t33-6.5q2 0 145 21l13-13v-27zM1720 225q0-46-22-150l-24-24q-40 16-44 55-15 135-58 454-37 279-37 290 0 54 43 163h38zM1217 1079q0-53-229-168l-118 14q56 38 174 115-9 25-52 25-15 0-65-28-74-42-77-43v44q0 37 84 91 75 48 94 48 28 0 189-53v-45zM1392 205q0-134-108-134-61 0-113 13-21 5-67 28-42 21-55 21-11 0-67-36-64-39-95-49-37-13-46-62-14-70-17-76l-88-154q-79-110-168-122-98-13-113-13-60 0-227 54-21 16-64 41v35q13 14 45 14 13 0 92.5-20.5t91.5-20.5q90 0 217 90 142 99 168 210-26 15-82 50 0 25 2 69 3 51 32 82 92-31 89-31 128 0 210 77 34 33 102 144 47 77 91 77 27 0 51-23 15-13 66-124 53-116 53-140zM849-445q0-58-173-148-136-73-182-82-14 14-14 30 0 51 117 115 67 31 132 61 51 27 72 49h36q12-1 12-25zM643-687q-3-33-25-79-57-41-149-84-79-36-157-71-28 2-67 15 5 26 25 62 53 33 158 79 122 53 169 78h46zM1237 247q-21 63-56 81-12-7-34-24v-35q25-5 90-22z" glyph-name="uniFB7F" horiz-adv-x="1807" unicode="&#xfb7f;"/><glyph arabic-form="initial" d="M1640 1144q0-4-45-136-13-21-39-41-30-16-135-47-6-2-35-21-25-17-43-17-72 0-72 87 0 68 78 149 16-28 4-96 17-17 26-17 24 0 81 112 9-4 54-71 34 8 54 62 21 58 47 72 25-26 25-36zM923 1271q0-89-144-149-110-45-183-45-15 0-26 6t-14 6v37q56 18 163 78-47 26-72 26-16 0-47-22-25-19-50-39-8 2-26 15 80 149 175 149-8 0 212-31 12-13 12-31zM688 529q0-25-35.5-61t-51.5-36q-6 0-106 62-5 25 23 80 31 63 63 63 18 0 62.5-44.5t44.5-63.5zM1691-258l-32-73q-65-22-248-95-153-63-166-62h-54q17 89 63 108 358 147 383 146h42q12-1 12-24zM1650 222q0-51-27-98-33-61-90-61-14 0-116 31t-115 31q-12 0-50-32-45-37-65-47-45-11-129-42-6-59-13-120-8-74-45-115-47-54-174-109-132-57-225-57-119 0-224 64-129 79-129 212 0 54 48 140 47 83 82 106 0-4 6.5-12.5t6.5-23.5q0-12-20.5-64t-20.5-69q0-56 45-109 48-57 125-78 47-13 158-13 51 0 162 55 91 45 115 64 5 100-15 161-6 19-38 79-30 52-30 66 0 8 24 60.5t33 57.5q21-12 73-80 41-54 91-54 101 0 181 80 29 29 111 148 55 80 97 80 63 0 121-116 47-95 47-135zM1487 252q-19 37-59 57-23-48-10-61 65 0 69 4z" glyph-name="uniFB80" horiz-adv-x="1644" unicode="&#xfb80;"/><glyph arabic-form="medial" d="M2412 709q0-35-28-66t-54-31q-43 0-80 34-32 31-32 59 0 19 27 58 32 44 59 44 24 0 64-32 44-35 44-66zM3220-173q-80-64-232-127-127-51-254-101-15 15-15 36 0 54 123 110 68 25 137 51 66 31 205 89h36v-58zM3353 227q1-56-115-120-107-59-226-87-102-20-205-39-44 1-144-3-15-2-123.5 21t-122.5 40q-13 0-55-33-49-38-66-46-51-23-119-23-95 0-149 37-64 45-134 178-22-23-57-55-50-38-136-86-130-33-221-33-105 0-153 52-2 31 10 81 14 61 36 61 12 0 84-20.5t85-20.5q80 0 188 34 139 45 139 109 0 13-30.5 166.5t-30.5 166.5q0 102 44 148 12 0 33-32 18-35 44-219.5t72-270.5q70-133 212-133 63 0 75 3 30 8 60 46 16 33 33 65 30 53 59 60 0-42 14-124 56-20 139-40h128q6 19-2 54-10 42-10 49 0 79 90 208 98 140 181 140 60 0 139-45 87-48 102-104-15-35-52-35-12 0-73.5 25.5t-74.5 25.5q-51 0-81-27-66-60-119-93 13-62 75-111 58-45 110-45 13 0 146.5 56t146.5 55h54v-36zM1941-203q0-30-61-59-38-14-74-30-101-52-322-139-14 14-14 35 0 57 34 73 366 178 382 177h55v-57zM1173 274q0-102-74-186-78-90-187-90-42 0-75 34.5t-33 78.5q0 12 41 145 45 151 54 188 14 56 33 56h30q5 0 64-25 54-22 102-92 45-66 45-109zM763 25q-54-47-255-47-277 0-277 76 0 50 63 102 6 5 94 39 28 10 91 62 58 48 70 48 23 0 39-39 12-28 12-43 0-29-24-71-30 12-55 61-23-20-66-58-2-1-104-48-9-1-28-14 0-16 7-22 140-13 433-46zM1173-176q0-100-372-228-14-5-67-34-44-24-59-24h-53q8 80 125 135 92 36 184 71 77 42 228 111 14-14 14-31zM1060 195v35q-48 65-109 85-54-82-54-92 0-62 66-62 50 0 97 34z" glyph-name="uniFB81" horiz-adv-x="3351" unicode="&#xfb81;"/><glyph arabic-form="isolated" d="M5124 1463q0-42-171-140-111-61-221-120h-35q-13 13-13 30 0 37 162 138l210 126h57q0-3 5.5-11t5.5-23zM4971 885q0-17-35-49.5t-52-32.5q-28 0-73 34t-45 53q0 22 38.5 59.5t59.5 37.5q35 0 71-34t36-68zM4489 1200q0-11-5-39t-5-38q-1-2-3-2-9-11-28-11-10 0-36.5 15t-39.5 15q-12 0-67-50-66-62-94-79-99-48-299-147l-67 14q107 70 213 139 149 95 217 170-17 16-48 47-14 14-14 60 0 35 40 110 50 95 108 95 73 0 73-114 0-35-7-82l-7-43q27-21 69-60zM3886 1197q0-19-37-68-38-51-68-67-41-22-227-75-31 0-54 6l-23 6q28 47 96 72 73 28 98 54-14 15-72 15-49 0-77-20-43-30-76-40v47q66 75 86 91 43 35 98 35-10 0 243-32 13 0 13-24zM4735-257q0-28-42.5-62.5t-64.5-34.5q-11 0-48 20.5t-50 20.5q-10 0-44-31t-48-31q-28 0-75 39t-47 59q0 17 36.5 57t54.5 40q13 0 54-25.5t54-25.5q11 0 44.5 36t47.5 36q21 0 74.5-39.5t53.5-58.5zM5196 260q0-167-156-233-18-7-144-16-27-17-38-17-134 0-222 33-12 5-48 43-33 36-47 36-7 0-80-35-83-39-139-54-125-33-375-33-11 0-68 5t-70 5q-6 0-129-10-130-11-196-13-20-37-72-119h-37q0 17 4 58 5 45 6 68-25 11-104 60-62 37-76 37-11 0-58-30-52-33-74-38-139-34-257-34-59 0-145 30-109 37-143 93-30-36-110-89-100-34-253-34-114 0-156 23-59 30-59 126 0 34 7 80-2 4-14 18-177 9-304-25-87-36-266-96-1-1-83-8-60-5-89-28-13-11-51-91-41-89-64-119-80-104-193-163-65-34-161-34-94 0-200 23-67 15-107 54l13 25q26 0 91-5t75-5q119 0 250 72 146 80 227 209l-9 10q-60-2-183 19-75 26-75 110 0 83 46 167 53 99 128 99 66 0 125.5-112.5t84.5-112.5q27 0 285 63 14 7 38 25-5 21-74 59-65 37-80 37-13 0-80-25.5t-80-25.5h-33q-2 8-2 15 0 69 95 133 86 56 146 56 58 0 103-27 41-26 83-52 217-105 408-105 55 0 134 10 9-4 16.5-9.5t7.5-20.5q0-57-55-93-45-23-88-47 24-45 38-53 60-33 121-33 169 0 254 44 42 39 125 110 45-46 135-110 76-33 172-33 108 0 214 23 34 7 70 29 27 18 52 62 35 63 40 69h37q0-10-4.5-36.5t-4.5-39.5q0-45 110-80 84-27 120-27 44 0 235.5 168.5t287.5 168.5q41 0 124-30 106-39 106-87 0-53-92-214 6-6 36-6 34 0 120 17 114 24 175 57 13 7 44 54 35 53 48 66 46-6 46-35 0-8-5.5-27t-5.5-27 4-15q65-47 121-57 15-3 103-3 206 0 257 48 2 53-27 96-13-26-64-45-41-17-64-17-41 0-92 47.5t-51 86.5q0 60 50 159 60 117 130 117 92 0 158-173 51-133 51-216zM1572 1145q0-19-23-65h-36q-20 16-59 50-127-121-188-169-121-94-203-107l-23 26q156 125 317 286l-62 44q-20 16-20 64 0 49 43 116 51 78 111 78 44 0 69-62 22-58 9-99-15-43-15-47 28-28 56-55 24-26 24-60zM2626-272q0-18-34-60.5t-52-42.5q-22 0-74 35-55 35-55 53 0 22 33 62 35 45 64 45 31 0 74.5-34.5t43.5-57.5zM2840-423q-203-123-540-216v43q-2 38 32 53 396 180 454 178h54v-58zM569 1304q0-62-54-127-56-67-116-67-39 0-86 43 0 64 30 147 42 117 113 117 42 0 79-42 34-37 34-71zM537 204q0-108-22-169-5 0-18.5-5t-18.5-5l-104 844q0 50 44 138 36-7 49-76 6-56 11-113 59-490 59-614zM4365 1294q0 18-5 43t-5 28l-48-12q0-29 58-59zM5022 428q-6 23-40 42-27 17-39 15l-23-24v-35q47-23 61-23 17 0 41 25zM4110 267q-61 44-132 44-99 0-266-173h96q22 0 123 27 108 31 157 57 22 17 22 45zM1439 1312q-34 33-49 33-23-24-23-38 34-33 58-33 14 13 14 38zM475 1245v37q-3 0-14 6t-26 6q-17 0-40-23v-37h51q25-1 29 11zM1018 212q-39 60-76 79l-24-13v-46q66-34 75-34 24 0 25 14z" glyph-name="uniFB82" horiz-adv-x="5200" unicode="&#xfb82;"/><glyph arabic-form="final" d="M1672 1365q0-79-166-153-34-27-103-74-41-22-123-75h-47q0 4-6 12.5t-6 23.5q0 32 199 159 143 92 237 142 15-14 15-35zM1098 1426q0-44-75-96-56-33-111-66-114-75-341-211-5 5-17.5 12t-17.5 12q5 26 25 63 111 79 523 322 14-14 14-36zM1826 311q-30-135-236-216-167-66-338-66-235 0-291 143-26-67-26-148 22-24 154-50 102-20 102-99 0-33-47-105-42-64-62-75-30-10-88-38-184-119-443-119-138 0-237 81-106 85-106 215 0 68 60 198 63 138 111 139 13-13 13-30 0-12-41-117t-41-118q0-114 105-171 83-44 208-44 222 0 415 119-10 30-99 44-105 16-147 54 0 36 3 46 25 46 65 143 24 82 24 173l-41 567q0 71 10 104 12 40 57 101 35-75 52-260 13-144 51-327 24-116 31-137 41-116 113-116h36q-3 18-3 37 0 132 97 262.5t201 130.5q39 0 130-54t95-84q-20-42-56-46-13 0-66.5 20.5t-66.5 20.5q-60 0-136-46-85-50-85-102 0-40 70-98 62-50 84-50 62 0 190 63 114 56 120 69 29-6 59-14zM649 310q0-2-5-44-4-31 1-49-17-23-53-65-19 22-23 70-1 39-1 78 0 24-5 39-15 47-58 100-30 31-59 63 0 2-6.5 10t-6.5 23q0 7 23.5 39t33.5 38q159-106 159-302z" glyph-name="uniFB83" horiz-adv-x="1826" unicode="&#xfb83;"/><glyph arabic-form="isolated" d="M1337 1206q1-25-210-155-201-125-297-166-14 14-14 30 0 55 70 101 59 33 117 65 111 70 298 182 5 0 17.5-5.5t18.5-5.5v-46zM928 1448q0-93-183-172-149-64-221-64-11 0-63 10.5t-65 10.5q-22 0-65.5-56t-76.5-50q1 28 60 123 65 106 102 106 13 0 74.5-15.5t74.5-15.5q64 0 167 46 111 49 159 107 37 0 37-30zM1379 147q0-29-44-132h-124q-30-1-174 71-75-84-124-103-26-10-113-10-5 0-23.5-.5t-30.5-.5q-133 0-173 138-15 51-27 223-11 145-21 290-9 104-34 240-23 125-23 129 0 30 43 117 31 0 44-23 5-18 52-267-2-15-4-52 18-148 45-451 5-86 61-144 52-56 117-56 100 0 146 33 49 76 99 152 99 143 155 143 58 0 111-145 42-115 42-152zM1224 189v36q-16 22-43 65-24-11-58-33v-36q31-15 101-32z" glyph-name="uniFB84" horiz-adv-x="1381" unicode="&#xfb84;"/><glyph arabic-form="final" d="M3031 1665q-2-76-145-158-102-54-308-167h-36q0 3-5.5 11.5t-5.5 23.5q0 41 192 152 126 70 252 138h56zM3000 1163q0-36-35-56-40-12-120-38-40-14-146-78-31 39 6 67-72 72-72 91 0 41 95 118 90 72 120 72 49 0 72-77 0-17-21.5-41.5t-39.5-24.5q-14 0-34.5 15t-32.5 15q-16 0-46-27 11-44 87-44-3 0 74 7 63 7 93 1zM2981 223q0-107-32-203-8 0-26-12l-126 855q12 55 53 137h38zM2500 1130q-12-53-75-90l-92-42q-64-44-195-117-101-43-105-43h-54v34q-1 46 121 104 69 29 137 58 78 41 238 121zM1702 1313q0-36-35-66-13 4-54 29-36 22-50 22-8 0-65-52-75-70-148-119-114-77-249-125-13 18-10 28 30 25 210 152 109 77 165 162-1 3-43 57-28 38-28 56 0 44 39 114 48 85 109 85 36 0 42-2 26-13 41-73 6-27-14-164 19-25 62-57 28-21 28-47zM1722 1026q0-77-41-139-46-69-127-84-14-3-67-36-49-32-67-32-31 0-51 33-15 26-15 49 0 51 67 164l4-106q5-5 13-8.5t14-8.5q43 17 60 75 20 70 41 89 32-17 32-35 0-6-4-16.5t-4-16.5q0-18 28-35 39 8 54 69 17 70 38 85 25-25 25-47zM2674 218q0-84-30-142-35-68-98-68-11 0-89 20.5t-90 20.5q-11 0-57-31-50-33-70-37-56-13-119-13-97 0-191 143-73-11-145-23-77-16-122-57-18-272-213-408-20-14-101-30-73-14-98-14-49 0-254 63 0 5-5.5 18.5t-5.5 18.5q21 6 85 0 79-9 78-9 98 0 206 58 104 55 166 135 58 75 58 84 0 13-20.5 53.5t-20.5 53.5q0 74 35 102 46 38 102 53 246 65 258 65h54q13-154 211-154 104 0 140 87 46 108 86 129 16-17 16-43 0-13-6-41.5t-6-42.5q65-48 114-48 20 0 36 27 0 14-5 56-5 35-5 57 0 58 27 105h37q42-128 42-188zM616 1303q0-77-43-142-52-78-136-78-28 0-52.5 23t-24.5 49q0 37 42 126 40 86 63 104 32 26 65 26 40 0 66-44 20-33 20-64zM585 223q0-180-43-235-18 0-35 23-18 218-48 503-5 46-33 186-25 131-25 142 0 28 18 70 20 50 49 69l17-14q27-90 45-206 18-112 39-324 16-182 16-214zM1179 218q0-176-135-340-137-167-289-167-12 0-33-5t-34-5q-58 0-203 53l-11 27q9 2 132 2 141 0 297 117 153 114 195 244 8 8-15 8-11 0-44-20.5t-49-20.5q-61 0-104.5 43.5t-43.5 104.5q0 47 39 147 50 124 109 124 77 0 138-131 51-109 51-181zM1558 1487q-28 56-58 56-5-5-12-17.5t-11-17.5q45-46 68-56 0 23 13 35zM534 1247q0 15-5.5 25.5t-5.5 14.5h-47q-27-28-44-66 5-6 17.5-13t16.5-12q68 13 68 51zM1036 299q-44 66-67 78-36-18-36-46 0-15 16-34 19-23 46-23 16 0 41 25z" glyph-name="uniFB85" horiz-adv-x="2981" unicode="&#xfb85;"/><glyph arabic-form="isolated" d="M1028 1117q0-27-32.5-62t-49.5-35q-28 0-69 24-44 28-44 52 0 27 32.5 67.5t55.5 40.5q21 0 62-30 45-32 45-57zM1335 155q0-94-56-174-41-61-213-131-189-79-350-79-91 0-191 62-114 71-129 167-13 84-13 73 0 16 28 84 31 72 58 113 39 60 87 72v-56q0-12-35.5-71t-35.5-71q0-119 121-179 83-41 176-41 154 0 352 84 20 9 68 54-37 28-131 48-71 15-143 30-13 12-13 30 0 42 25 70 17 19 154 84 108 51 108 117 0 31-26 56-33-28-67-55-19-16-55-16-59 0-102 52-37 45-37 91 0 54 40 151 51 125 119 125 75 0 152-143 68-126 68-194 0-107-102-251 8-6 88-42 55-23 55-60zM782 758q-31-86-147-137-93-42-180-42-12 0-64.5 10.5t-63.5 10.5q-25 0-33-23-12-38-47-68h-37v43q-1 21 56.5 101t75.5 80q13 0 41-15 36-19 48-24 7-2 60-2 119 0 278 112zM1438-213q0-50-44-74-381-209-434-207h-44v33q0 45 206 144l268 128h36q12-1 12-24zM1110 604q-11 45-67 78-25-25-25-41 0-18 21.5-34.5t39.5-16.5q17 0 31 14z" glyph-name="uniFB86" horiz-adv-x="1315" unicode="&#xfb86;"/><glyph arabic-form="final" d="M4020 1539q0-42-44-68-97-58-250.5-133t-173.5-74h-44v44q0 34 140 100 95 41 190 83 60 35 168 79 14-14 14-31zM4004 1071q-18-16-85-53-53-29-53-42l92-778q0-110-61-184l-16 14q-40 281-107 840-2 14 20 81-15 8-79-13-8 18-55 72-40 47-40 61 0 61 83 130 77 64 122 64 19 0 45.5-26t26.5-45q0-30-44-71-10 0-40.5 20t-44.5 20q-15 0-46-28 0-26 27-31 74-12 112-12-17 0 136 18 0-4 5-18t2-19zM3467 751q0-18-34.5-60t-53.5-42q-20 0-63.5 39.5t-43.5 57.5q0 21 34.5 64.5t52.5 43.5q19 0 63.5-41.5t44.5-61.5zM3108 1217q0-43-46-66-20 11-39 24-27 17-43 17-7 0-88-73-90-81-135-105-6-3-104-68l-56 13q23 37 139.5 128t146.5 140q-4 8-43 52-29 33-29 46 0 43 54 123 61 91 120 91 71 0 71-95 0-33-9-80.5t-9-51.5q70-78 70-95zM3026 792q0-24-37.5-68t-54.5-44q-19 0-66 32t-47 50q0 32 44 69 39 33 59 33 36 0 70-27 32-24 32-45zM3590 244q0-45-31-122-31-81-58-94-42-21-126-39-71-16-98-16-11 0-71 20.5t-73 20.5q-10 0-19.5-5t-26.5-5q-12 0-60.5 15t-61.5 15q-14 0-29-7-19-9-26-10-158-33-226-33-96 0-130 7-73 16-129 75-12 0-25-18-20-29-20-30-35-34-96-34-13 0-71.5 15t-72.5 15q-12 0-96.5-25t-97.5-25q-69 0-139.5 45.5t-105.5 45.5q-14 0-68-14-67-17-86-21-67-12-111-92-38-68-38-131 0-13 3-22 27-106 24-164-1-36-30-86-34-56-83-83-27 0-43 22-85 142-85 325 0 103 41 181v26q-3 0-7.5 4t-19.5 4q-6 0-69-17-66-18-104-21-53-2-161-6-21-69-83-211-38 2-91 34-59 37-77 82-9 23-7 78 4 107 4 95-6 7-31 7-47 0-127-34-74-32-96-55-2-10-2-64l51-584q0-124-69-153l-74 696q0 165 115 260 59 50 155 73 33 4 91 17 22 25 64 59 29-33 105-101 23-17 105-35 79-18 128-18 189 0 304 84 32 40 106 101 15-15 15-31 0-46-57-126-74-105-74-107-33-67-33-140 0-33 7-47 26 14 39 52 9 29 18 59 46 101 186 182 128 76 226 76 11 0 108.5-51.5t111.5-51.5q103 0 149 48 40 57 79 116h35q11-16 11-33 0-18-12-41-16-31-17-32 32-37 88-37t85 53q44 81 79 111 12-18 28-97 6-36 95-55 62-12 153-12 53 0 105 28 1 50 4 99 5 61 22 105 20 54 84 121 72 77 122 77t89-95q29-71 29-100 0-37-24-106-22-64-37-85 0-16 7-22 72-22 141-22 44 0 115.5 20t84.5 36q-10 37-53 133-39 85-39 98 0 45 45 112 64-43 104-135 36-80 36-147zM927 1022q0-24-80-81-69-47-87-54-78-22-238-74l-25 25q21 30 98 67 102 49 127 67-24 25-61 25-45 0-75-28-46-45-86-64-13 2-13 26 0 59 81 121 75 58 124 58 84 0 235-43v-45zM2544-457q-5-41-26-91-94-56-469-204h-34q-13 0-13 24 0 62 44 83 149 58 452 188h46zM1685-553q0-63-181-144-275-122-284-127h-36v54q0 37 186 118 237 104 267 123h36q12-1 12-24zM2985 1370q0 39-36 57-35-35-35-46 0-31 60-34 0 9 11 23zM3119 285q-40 108-82 108-34 0-61-43-21-36-21-59 0-30 18-55 19-27 48-27 19 0 58.5 28t39.5 48z" glyph-name="uniFB87" horiz-adv-x="3969" unicode="&#xfb87;"/><glyph arabic-form="isolated" d="M3455-301q2-51-42-72-67-34-206-99-93-44-279-130l-25 26q10 31 36 72 25 14 480 239h36v-36zM2842-294q0-31-26-65-28-38-61-38-25 0-102 51-68-71-98-71-25 0-68.5 36t-43.5 55q0 32 34 68 33 35 53 35 13 0 51-25.5t51-25.5 56.5 35.5 56.5 35.5q19 0 58-36.5t39-54.5zM5053 1326q1-32-180-140-218-129-243-150h-34q-13 13-13 31 0 54 32 77 129 74 391 229h47v-47zM4941 750q0-29-28-65-29-38-59-38-52 0-108 53 0 28 22 73 28 58 65 58 22 0 65-30t43-51zM4583 457q0-76-49-86-16 72-57 207-7 15-47 76-32 48-32 75 0 24 24 71 78-23 124-145 37-97 37-198zM4326-217q-4-27-26-67-65-45-179-105-153-79-187-100h-45q-13 14-13 31 0 46 33 67 130 64 383 199 5-5 17-12.5t17-12.5zM3332 298h-46q-45-44-44-59 70-21 109-32 0 50-19 91zM2248 1235q0-19-13-50-16-34-35-44-148-60-446-190-325-151-686-352-119-68-361-198-15 13-24 13 20 79 44 99 101 82 309 192 177 90 355 180 181 92 843 386 14-14 14-36zM3477 206q0-58-23-107-27-56-69-56-43 0-124 25-92 28-110 57-23 1-41-35-24-46-35-54-58-44-156-44t-141 54q-28 33-54 131-30 109-62 163-48-23-126-90-20-31-29-107.5t-28-107.5q-23-37-90-98.5t-113-84.5q-121-64-425-125.5t-489-61.5q-8 0-62.5 8t-80.5 8q-237 0-456 94-262 113-419 336 28 18 89-22 429-271 981-271 406 0 643 84 386 137 386 259 0 11-36 102.5t-36 101.5q0 22 14 58 17 40 32 40 13 0 59-26t59-26q54 0 93 48 17 20 63 105 20 0 34-22 28-52 44-174 15-119 41-162 44-71 160-71 48 0 90 22 63 77 125 155 128 151 169 151 58 0 96-124 27-88 27-133zM1614 314q0-27-34-62t-64-35q-20 0-63.5 31.5t-43.5 50.5q0 12 27 58 32 54 60 54 30 0 74-36.5t44-60.5zM5033 233q-14 209-113 209-22 0-43-43-18-38-18-65 0-13 39-73 45-69 53-90-16-33-165-57-124-20-224-20-105 0-156 32-79 51-107 133l-28 118q-25 114-79 320h-38q-32-131-32-127 0-11 35.5-155.5t35.5-156.5q0-80-113-123-85-31-183-31-13 0-70 15.5t-70 14.5h-42q-23-46-23-81 0-102 164-102 53 0 142 22 96 23 142 52 25 17 55 54t43 46q68-109 126.5-141.5t186.5-32.5q14 0 94.5 5t90.5 5q150 0 223 65 77 69 77 144 0 12-1.5 32.5t-1.5 30.5z" glyph-name="uniFB88" horiz-adv-x="5027" unicode="&#xfb88;"/><glyph arabic-form="isolated" d="M3468 1236q1-51-247-181-50-35-153-106-35-23-55-22h-44v43q-1 32 111 103 68 39 136 80 73 45 218 141 11-12 34-12v-46zM2896 1345q0-49-106-109-66-33-132-68-140-102-301-160-13 14-13 35 0 47 25 62 16 10 480 270h34q13-13 13-30zM2180 1253q0-61-57-61-13 0-46 25.5t-46 25.5q-10 0-56-47-59-60-74-72-31-25-227-137h-46q-3 10-12 26 113 92 328 276-32 32-63 64-19 22-19 58 0 56 47 123 52 77 117 77 87 0 87-93 0-33-11.5-89t-11.5-67q9-12 59-51 31-25 31-58zM3418 137q0-119-90-273-101-174-231-215-41-13-160-13-109 0-224 33 3 49 39 49 13 0 15.5-5.5t15.5-5.5q175 0 332 107 155 105 211 256l-16 16q-33-40-55-48-10-4-46-4-72 0-119 54-40 47-40 100 0 60 46 150 55 106 122 106 80 0 146-136 54-110 54-171zM2241 899q0-27-32.5-61.5t-54.5-34.5q-11 0-47.5 20.5t-49.5 20.5q-12 0-48.5-31t-49.5-31q-19 0-63 34.5t-44 52.5q0 31 36 66 33 32 56 32 14 0 53.5-20.5t48.5-20.5q12 0 46 35.5t47 35.5q27 0 66-43 36-40 36-55zM1207 1263q0-19-16.5-40t-34.5-21q-13 0-49 25.5t-49 25.5q-11 0-70-59-69-70-101-91-69-46-188-86-14 12-23 12 0 35 41 65 68 48 135 95 119 91 119 126 0 10-36 49.5t-36 57.5q0 69 67 146 64 74 113 74 37 0 64-43 23-37 23-70 0-13-20.5-69t-20.5-69q0-10 41-61.5t41-66.5zM2691-477q0-24-42-58t-60-34q-14 0-50.5 20.5t-46.5 20.5q-12 0-47.5-25.5t-50.5-25.5q-26 0-60 30-31 27-31 42 0 29 44 68 40 34 58 34 11 0 33.5-15.5t32.5-15.5q13 0 49 30.5t48 30.5q24 0 73.5-42.5t49.5-59.5zM2722 250q0-151-84-210-67-46-208-46-86 0-154 13-27 4-92 27-58 21-71 21-12 0-85-25.5t-84-25.5q-12 0-13 5v0q0 5-13 5-61 0-95-48-23-60-78-174-58-97-152-153-74-44-202-44-199 0-276 66l12 18q12 5 52 3 61-5 59-5 117 0 249 67 150 78 232 206 4 34-31 34-13 0-25.5-5.5t-25.5-5.5q-76 0-127 34-58 36-58 99 0 73 47 162 56 105 128 105 57 0 121-97 40-65 80-129 123-4 174 38-3 17-3 38 0 109 64 220 71 124 163 124 55 0 95-87 32-68 32-112 0-30-20-101-23-78-41-93 66-27 164-27 91 0 174 58-15 35-78 134-55 87-55 100 0 58 44 117 61-10 122-116 59-103 59-190zM1125 178q0-25-18-104-22-97-48-159-18-42-99.5-87t-99.5-54q-57-27-98-33-89-13-123-13-94 0-188 85.5t-94 175.5q0 81 125 280h38q-8-28-37-113-24-68-24-81 0-85 88-139 71-44 143-44 195 0 330 140 13 36 13 33l-123 871q14 91 75 184 20-8 36-85 13-70 83-81v-66q0-11-35.5-72.5t-35.5-74.5q0-10 24-136 27-139 33-176 35-233 35-251zM3264 213q-44 67-66 67-46 0-46-47 44-45 71-45 17 0 41 25zM2036 1420v34q-22 44-48 44-34-33-34-58 26-18 55-43zM1083 1439v57q-22 23-37 23-12-7-34-23v-35q34-34 46-34 24 0 25 12zM2251 327q0 20-21.5 53.5t-39.5 33.5q-19 0-59-34-44-38-44-69 0-20 26.5-46t45.5-26q13 0 49 26 43 32 43 62zM1657 152q-24 28-67 67-37-37-34-59 66-22 101-8z" glyph-name="uniFB8A" horiz-adv-x="3432" unicode="&#xfb8a;"/><glyph arabic-form="final" d="M2902 1504q7-19 7-40 0-60-41-123.5t-91-88.5q-29-15-90-18-77-5-95-9-19-4-42-24-36-30-41-34-15 15-15 31 0 18 35 74 35 53 49 64 23 3 61 17 10 7 78 104 55 79 110 79 41 0 75-32zM2401 1765q0-29-197-132-138-68-278-137h-46q14 86 106 140 71 33 142 65 111 63 248 132 15-12 25-12v-56zM2351 1448q0-18-31-81-32-68-53.5-83.5t-93.5-38.5q-14-4-53-27-32-20-46-20-36 0-81 41-2 6-2 15 0 36 23 85 26 54 61 73 14-44-1-75 16-16 31-16 32 0 48 53 8 33 17 67 11 7 32 23 13-25 32-82 24 18 49 57 38 62 41 66 27-26 27-57zM2750 292q0-194-80-220l-84 875q0 37 22 87 28 62 68 70zM1849 886q0-18-30-58t-47-40q-41 0-107 64 2 31 21 75 27 56 60 56 30 0 68-44 35-40 35-53zM2361 205q0-112-41-186-49-91-144-91-130 0-251 195-156-143-394-143-174 0-174 86 0 31 16 65 18 43 45 43 14 0 70-25.5t69-25.5q93 0 206 38 137 47 137 110 0 13-25.5 143.5t-25.5 143.5q0 63 32 147 21 0 35-22 32-176 63-352 63-239 218-239 44 0 47 1 26 9 35 50l-133 834q0 32 23 83 27 60 65 87 24-37 24-82 0-35 27-48.5t55-26.5v-54q0-14-25.5-64t-25.5-63zM957 1456q-15-39-19-48-16-29-37-43-80-50-217-114-213-99-223-104-15 14-15 35 0 47 25 62 135 81 295 150 38 21 75 41 51 28 83 28 18 0 33-7zM2053-204q0-53-33-69-348-167-403-166h-43q-12 1-12 25 0 56 54 83 133 53 400 168 37 0 37-41zM743 635q0-36-43-67-34-26-49-26-34 0-68.5 25.5t-34.5 51.5q0 36 33 68 29 30 49 30 43 0 80-31 33-28 33-51zM1368 481q0-90-46-162-28-43-99-65-41-11-84-22-29-15-31-57v-69q-14-102-52-164-41-67-204-129-98-38-212-38-124 0-206 54-101 67-101 201 0 150 106 287 37 0 37-30 0-13-25-77t-25-77q0-110 95-169 73-45 155-45 62 0 194 45 159 54 159 113 0 82-51 178t-51 119q0 18 17 54 19 41 39 53 26-30 85-80 20-12 69-12 21 0 64 12 47 12 54 23-5 27-30 87-21 55-21 67 0 47 33 97h46q85-134 85-194zM1377-297q0-29-36-67-33-35-45-35-11 0-50.5 25.5t-52.5 25.5q-12 0-50.5-30.5t-51.5-30.5q-31 0-69 39-34 33-34 43 0 28 41 67 35 35 47 35 25 0 102-51 6 5 50 44 32 28 47 28 30 0 68-44 34-37 34-49zM2821 1398q-25 25-48 25-53-53-53-71h46q19 9 55 46z" glyph-name="uniFB8B" horiz-adv-x="2759" unicode="&#xfb8b;"/><glyph arabic-form="isolated" d="M3425 1186q0-50-184-152-114-64-229-128h-57v43q0 41 95 95 51 23 101 47 126 63 237 131 37 0 37-36zM3495 136q-5-88-87-120-60-13-120-25-77-22-121-51-28-24-92-68-3 17 9.5 54.5t12.5 46.5q0 13-51 49t-51 53q0 38 98 159 102 128 153 128 22 0 65-34t43-58q0-29-48-68-41-34-50-34-6 0-83 52-5 0-45-38 5-30 58-54 49-22 86-22 10 0 68.5 15.5t70.5 14.5h84zM2443 1202q0-53-82-106-58-30-116-61-10-5-158-99-92-58-153-72-14 14-14 35 0 54 233 190 190 111 275 143 15-14 15-30zM2790 188q0-99-35-182-7-6-44-21l-85 879q0 78 68 143 14-37 31-107 65-617 65-712zM1736 1043q0-13-9-27-11-21-13-28h-47q-22 28-48 40-191-200-391-256l-25 26q17 14 189 154 118 97 118 111 0 36-70 78-1 7-1 16 0 70 39 146 50 94 125 94 87 0 87-108 0-53-23-132 0-1 41-59 28-40 28-55zM1603 562q0-32-41-67-34-31-52-31-36 0-79 35.5t-43 57.5q0 19 33 59 36 43 64 43 31 0 74.5-35.5t43.5-61.5zM1326 1171q0-96-165-158-122-46-208-46-12 0-56 4.5t-57 4.5q-16 0-50-40-28-37-57-72-21-3-21 21 0 34 60 129.5t78 95.5q12 0 63.5-15.5t64.5-15.5q180 0 310 123 38 0 38-31zM2412 163q0-70-58-118-51-41-111-41-138 0-206 71-24-21-68-58-83-53-146-53-33 0-124 23-15 4-56.5 46t-55.5 42q-10 0-50-29-42-33-61-39-55-2-152-36-17-13-55-78-30-51-60.5-101t-106.5-105q-68-50-117-69-35-13-155-13-145 0-231 45 22 42 57 47 11 0 47.5-5t49.5-5q88 0 240 87 160 90 200 172-14 7-124 26-75 12-118 65-24 29-24 65 0 62 64 153 70 97 136 97 44 0 109-100 38-63 77-126 72 0 150 24 17 5 82 39 56 30 73 30 27 0 101-51.5t144-51.5q96 0 217.5 159t192.5 159q49 0 139-271zM650 1248q0-55-37-131-46-97-117-118 50-175 69-344 44-402 44-462 0-151-68-198l-116 869q15 78 52 128-5 4-60 35-33 19-33 63 0 54 57 149 63 106 122 106 87 0 87-97zM1612 1184q-6 39-22 89h-35l-23-23v-35q64-33 80-31zM2257 169v46q-26 55-60 55-19 0-40.5-25.5t-21.5-42.5q34-34 47-33h75zM579 1187q-23 46-46 46-18 0-42-20.5t-24-37.5v-44q10 0 25-11l50 26q31 20 37 41zM1131 134q-23 58-56 75l-36-37q67-43 92-38z" glyph-name="uniFB8C" horiz-adv-x="3507" unicode="&#xfb8c;"/><glyph arabic-form="final" d="M3883 1607q0-30-117-98l-120-62q-86-49-261-130-14 1-14 25 0 44 26 65 36 32 244 136 65 40 196 110h46v-46zM3842 1120q0-9-15-48-58-19-275-113h-37q8 14 8 27 0 24-29.5 58t-29.5 47q0 48 77.5 126.5t116.5 78.5q21 0 57-29t36-48q0-27-27-53-23-23-35-23-11 0-35.5 20.5t-36.5 20.5q-13 0-17.5-4.5t-14.5-4.5q0-5-4.5-18t-4.5-17q30-28 159-28 1 0 41 8 32 6 66 0zM3228 1521q0-69-216-173-126-62-220-93-14 15-14 31 0 57 53 88 119 53 360 168 37 0 37-21zM3812 216q0-200-70-209l-94 818q0 93 44 163h36zM2942 932q0-78-146-154-124-65-187-65-11 0-75.5 20.5t-78.5 20.5-40-29q-32-35-43-43-14 1-14 25 0 35 44 102 41 62 74 88 71-61 143-61 176 0 285 132 38 0 38-36zM2399 1204q0-15-5.5-30.5t-5.5-18.5q-15-6-46 0-39 8-45 8-29 0-67-42-26-30-51-59-51-36-153-114l-47 14q33 46 215 228 1 7-3 17-26 28-51 55-17 20-17 50 0 45 40 114 48 85 108 85 48 0 62-45 7-20 1.5-82.5t5.5-90.5q6-16 35-36 24-16 24-53zM2747 502q0-59-43-187h-38q7 54-15 156-5 23-37 75-31 50-31 59t34 76h35q31-38 63-98.5t32-80.5zM1915 1479q8-28-3-63-10-30-21-37-214-137-458-267h-47v45q0 26 158 116 96 53 192 107 51 37 179 99zM2346 561q-30-21-114-47-75-22-123-68h-33q-12 0-14 18.5t-4 35.5q-79 60-79 79 0 35 77 115t108 80q24 0 58-26.5t34-45.5-23.5-40-43.5-21q-11 0-32 7-28 9-57 15 0-3-4.5-15t-4.5-30q44-28 83-28 12 0 38.5 9.5t38.5 9.5h95v-48zM3453 247q0-5-14-42 5-57-31-175-4-14-51-35-44-19-57-19t-136 35.5-135 35.5q-48 0-542-65-13-8-25-24-141-330-432-330-94 0-191 23-28 7-64 43 25 26 66 26 15 0 37-5t34-5q110 0 252 76 150 81 205 183-77 9-213 51-13 6-33.5 36.5t-20.5 46.5q0 58 54 165 65 127 136 127 76 0 150-208 7-20 36-49 27 0 90.5-4t98.5-4q119 0 185 41 11 8 39 79 41 102 78 173 2 61 3 122 10 106 77 106 35 0 193-142 147-131 166-161 45-70 45-101zM1365 1393q0-44-37-75-165-145-377-145-89 0-104 3-9 1-38 14.5t-43 13.5q-15 0-50-38-43-47-54-54-14 1-14 25 0 25 54 106 57 84 85 84 12 0 97-26t97-26q141 0 370 144 14-2 14-26zM1877 964q-14-40-46-106-19-10-55-31-5-108-26-305-7-41-44-152-34-102-34-113 0-13 25.5-113t25.5-112q0-22-17-70.5t-27-54.5q-186-24-309-24-169 0-169 62 0 34 44 122 91-30 105-30 25 0 94 63 60 56 82 88 13 20 13 43 0 38-177 274-180 238-217 238-12 0-31-5t-31-5q-148 0-148 220 0 23 16.5 45t40.5 22q120 0 375-320 211-263 240-335 10 9 21 27 49 197 30 612-1 36 78 168h36q1-1 2-3t1-78q0-38 31-66 35-30 71-61zM944 132q-31-43-95-93-48-2-153-26-51-34-154-98h-35q-4 29 18 95-102 77-102 104 0 51 107.5 161t163.5 110q25 0 65-28 42-30 42-54 0-25-40-69t-56-44q-11 0-42.5 30.5t-45.5 30.5q-13 0-32-14-24-21-29-24 1-33 59-61 47-23 79-23 6 0 104 19.5t146 19.5v-36zM1017-45q0-48-44-68-159-63-472-197h-46q17 61 24 74 11 21 39 33 436 189 444 189h42q13-13 13-31zM2265 1328v47q-12 12-38 12l-11-48q5 0 24.5-5.5t24.5-5.5zM3361 140v47q-62 78-140 136-11-49-33-139 67-46 108-44h65zM3116 245q0 26-13 58-16 41-39 41-40 0-92-99 49-24 77-24 46 0 67 24zM2304 140q2 34-7 52l-34 38h-37q0-2-5.5-21t-5.5-37q64-18 89-32zM1631 70q0 11-6 32.5t-6 25.5q-53-12-79-68 70 0 91 10z" glyph-name="uniFB8D" horiz-adv-x="3812" unicode="&#xfb8d;"/></font>
</defs>
</svg>
