<svg xmlns="http://www.w3.org/2000/svg"><defs><font horiz-adv-x="992"><font-face ascent="1638" bbox="-386 -969 8061 2297.03" cap-height="1695" descent="-410" panose-1="2 0 4 0 0 0 0 0 0 0" underline-position="-250" underline-thickness="100" unicode-range="U+000D-FEFC" units-per-em="2048" x-height="1397"/><missing-glyph d="M142 226v1362h700v-1362h-700zM284 368h416v1079h-416v-1079z"/><glyph arabic-form="final" d="M3308 1307q-4-27-26-69-55-49-188-113-111-52-221-103-15 14-15 41 0 47 33 67 85 50 213 114 131 64 150 63h54zM2602 1865q0-40-168-125-225-115-266-144h-35q-12 1-12 24 0 52 64 93 89 59 221 129t151 69h45v-46zM2008 1690q-41-43-104-90-77-56-118-56h-103l-23 25q9 32 67 53 67 25 86 49-65 36-77 36-13 0-39-10.5t-39-10.5q-15 0-28 10 16 56 53 78 77 46 115 46 12 0 210-84v-46zM2622 1294q-32-65-98-72-74-8-94-34-13-16-13-74l113-871-14-100q-11-73-40-104-8 0-21 15.5t-14 29.5q-15 180-58 532-17 93-35 187-23 126-23 207 0 98 32 148-26 15-79-3-19 32-7 86-3 4-35 36-23 23-23 42 0 43 91 120 88 74 124 74 30 0 63-33 29-29 29-49 0-23-33-49-28-22-39-22-17 0-68 51-18 0-45-27 41-62 113-62 18 0 56.5 5t57.5 5q21 0 37-4 6-5 12-17t11-17zM3268 100q0-254-309-498-83-64-296-64-156 0-302 23-28 4-76 52 24 57 77 57 12 0 122-10t123-10q149 0 317 107 180 114 241 265l-15 17q-59-61-108-61-63 0-102 64-31 50-31 94 0 42 46 135 59 116 123 116 76 0 139-126 51-104 51-161zM1393 1670q1-32-443-268h-37v67q44 56 194 132 236 118 249 126h37v-57zM1527 812q0-19-32.5-53t-54.5-34q-25 0-102 51-72-71-108-71-28 0-60 25t-32 51q0 30 32 63.5t54 33.5q12 0 40.5-15t41.5-15q14 0 50 30.5t48 30.5q37 0 79-30 44-33 44-67zM2111 264q0-148-46-221-21-32-143-56-98-19-154-19-177 0-319 33-14 3-56 27-38 21-51 21-27 0-122-47 13-8 119-57 44-21 44-80 0-100-196-222-38-12-114-37-85-31-170-63-116-36-216-36-189 0-304 84-126 92-126 264 0 73 31 135 28 57 116 171h37v-47q0-12-41-96t-41-96q0-112 111-193 94-68 187-68h71q118 0 265 49 132 43 217 100-40 37-148 58-122 23-169 51 17 72 146 128 178 78 208 100-8 18-8 44 0 101 89 228 91 132 173 132 50 0 87-65 31-53 31-89 0-50-22-120t-50-102q0-1 28-22 90-22 147-22 11 0 91 9 97 11 138 14 35 2 67 34-66 390-116 757-2 11-20 51-17 38-17 51 0 50 84 188h37q1-4 1-125 30-15 93-49-29-149-63-149zM749 382q0-73-23-107h-36q-7 49-27 136-22 65-73 121-46 49-46 55 0 27 22 52t45 25q30 0 78-61 42-54 46-77 14-101 14-144zM3104 166q-29 57-58 57-24-24-24-48 33-33 48-33 5 5 17 12t17 12zM1517 305q0 45-57 82-59-30-118-108 47-66 77-66 20 0 59 36.5t39 55.5z" glyph-name="uniFB51" horiz-adv-x="3255" unicode="&#xfb51;"/><glyph arabic-form="isolated" d="M1038 1140q7-10 7-23 0-32-31-70.5t-56-38.5q-29 0-65.5 32t-36.5 50q0 20 26 58 29 44 60 44 42 0 96-52zM1357 147q0-171-289-293-225-95-376-95-288 0-376 197-24 52-24 94 0 62 50 174 61 140 141 148l24-25q-1-2-67-112-46-76-46-124 0-42 112-147 15-14 101-34 79-18 115-18 113 0 263 54 143 51 229 117 0 9-18 19-92 9-299 27 0 3-5.5 16t-5.5 28q0 44 43 72 68 24 135 48 129 55 129 110 0 15-26 41-35-28-68.5-55t-69.5-27q-51 0-90 54-33 46-33 85 0 59 44 164 52 127 115 127 65 0 143-147 67-129 67-181 0-117-61-189 3-7 18-19 55 2 92-33 33-32 33-76zM1326-282q0-54-45-74l-90-32q-88-34-268-109h-35q-12 13-12 35 0 67 166 127l11 4q89 34 259 90 14-14 14-41zM1090 537v37q-42 44-69 44-23-48-22-58 34-34 56-34 14 0 22.5 5.5t12.5 5.5z" glyph-name="uniFB52" horiz-adv-x="1340" unicode="&#xfb52;"/><glyph arabic-form="final" d="M4090 1591q0-24-19-48-15-67-99-128-80-59-143-59-12 0-48 20.5t-50 20.5q-22 0-53-25t-69-24q59 106 115 146 7 5 93 17l78 98q53 64 108 64 87 0 87-82zM3660 1647q0-53-115-119-103-60-147-60h-93l-13 13v37q54 31 164 70v18q-24 26-62 26-8 0-47.5-4t-74.5-4q76 121 163 121 11 0 89-28 85-30 125-36 0-3 5.5-11t5.5-23zM3947 296q0-70-44-199h-36l-115 961q0 152 70 174 27-97 50-229 23-149 51-431 24-241 24-276zM2770 1908q0-58-95-106-59-28-164-81-139-74-262-150 0 4-6 12.5t-6 22.5q0 56 35 82 139 104 485 250 0-3 6.5-9t6.5-21zM2811 1299q0-34-34-53-28-16-82-24-74-11-83-14-39-8-77-17-46-13-68-40-8 19 2 106-58 60-58 78 0 45 83.5 119.5t126.5 74.5q19 0 53-29t34-48q0-26-22-51t-39-25q-27 0-69 41h-38l-7-7v-28q76-47 98-47 157 0 168-2 0-3 6-11t6-23zM3495 1031q1-11-28-44-43-47-51-60-16-22-20-130-4-115-26-219-21-86-42-171-2-11-20-46-16-31-16-45 0-13 35.5-107.5t35.5-106.5q0-6-36-114-285-55-379-55-55 0-74 8-33 14-33 63 0 102 52 102 11 0 30-5t31-5q48 0 128 79 77 77 77 116 0 35-182 270-186 242-234 242-9 0-23-5.5t-27-5.5q-36 0-90 30-59 33-67 67-15 66-12 188 25 22 51 22 63 0 195-120 86-78 144-148 53-54 147-174l156-244q8 0 20 19 62 128 62 436v68q0 114 6 179 1 26 32 83 33 62 63 86l14-116q12-78 81-80v-57zM2340 1090q0-43-126-108-111-56-137-56h-93l-24 23q4 36 60 50 71 18 94 44-33 36-87 36-15 0-136-40-4 34 65 98.5t107 64.5 151-40q126-43 126-72zM1489 823q0-37-24.5-69.5t-46.5-32.5q-26 0-69.5 34t-43.5 58q0 25 33 69t49 44q33 0 70-44 32-39 32-59zM2524 239q0-11-12-41-14-32-17-46-7-50-16-83-22-78-126-186-110-115-202-142-43-13-165-13-111 0-311 53 0 6-5 19t-5 19q10 1 204 1 100 0 109 3 75 30 149 61 50 20 102 61 25 19 105 103 97 104 97 130 0 14-51 74-87 100-89 103-3 12-3 28 0 23 23 91h32q49 1 118-103 63-95 63-132zM2012 480q0-34-56-156-44-97-251-163-167-55-292-55-38 0-142 21-19-26-55-140-43-134-211-205-127-54-263-54-141 0-238 67-110 75-110 205 0 149 116 269h37v-46q0-13-30-69t-30-68q0-102 96-158 81-46 189-46 207 0 381 138 2 97-25 150-7 14-50 87-29 49-29 64 0 26 23 59.5t39 33.5q6 0 62-56.5t107-56.5q31 0 58 22 91 79 269 209 116 66 185 66 49 0 125-31 95-38 95-87zM1580-284q0-55-24-78-26-27-141-67-99-39-290-109l-22 12q-13 8-13 24 0 57 212 143 148 60 254 87 14-12 24-12zM3986 1549h-47q-47-47-53-70h36q22 7 43 30.5t21 39.5zM3239 167h-37q-6-13-23-38h48q12 10 12 38zM1878 401q-109 43-148 43-97 0-251-162h117q11-1 106 28 128 38 153 46 23 16 23 45z" glyph-name="uniFB53" horiz-adv-x="3953" unicode="&#xfb53;"/><glyph arabic-form="initial" d="M5040 1448q-19-77-35-107-170-88-525-269 0 3-6 11.5t-6 23.5q0 58 25 75 88 62 246 139 209 102 254 127h47zM4335 1419q0-67-254-216-200-117-275-142-24 24-24 46 0 42 193 155l198 108q50 36 137 79 8-5 16.5-10t8.5-20zM5092 114q0-173-156.5-360.5t-304.5-187.5q-10 0-133 5t-138 5q-75 0-128 56 16 37 51 37 13 0 79.5-10.5t79.5-10.5q76 0 182 44 79 32 133.5 71.5t132.5 120.5q110 113 110 168 0 45-59 104-35 34-71 68-13 53-13 43 0 21 23 54t38 33q48 0 111-84 53-71 59-105 4-21 4-51zM3864 518q0 19-15-120-10-16-29-42h-37q5 90-26 176-9 27-51 85-37 52-37 65 0 61 51 61 65 0 110-105 34-78 34-120zM4458 221q0-205-177-406-182-208-383-208h-100q-46 0-155 13-26 3-86 64 18 18 59 22 28 3 77-1 58-6 68-6 171 0 367 143 191 140 209 267-59-42-95-42-39 0-91 46t-52 83q0 55 33 142 37 101 93 159 52 0 76-14 22-14 86-111 71-105 71-151zM3372-388q0-55-33-74-103-56-284-129-169-68-191-67h-43q-12 1-12 24 0 57 54 83 49 24 462 189h35q12-2 12-26zM2758 1245q0-19-21-56-21-39-43-54-39-25-111-50-58-19-115-38-117-47-399-174-478-216-659-300-341-158-549-267-41-21-109-21 13 34 26 67 24 54 68 80 213 125 598 295 450 197 508 227 137 70 373 164 309 124 385 157h35q13-13 13-30zM3525 426q0-20-21-92-24-77-44-110-27-44-98-44-13 0-43.5 10.5t-43.5 10.5-26 5-26 5q-10 0-28-19-21-24-30-29-79-44-172-44-92 0-174 76.5t-97 76.5q-23 0-53-25-46-41-86-63v-29q40-37 68-44 133-33 194-33 12 0 10 5t10 5q40 0 73.5-29t33.5-63q0-230-503-366-353-95-597-95-11 0-152.5-5t-154.5-5q-165 0-462 54-16 10-52 24-127 32-253 63-177 63-299 212-16 19-65 113-51 97-51 114v43h48q22-21 29-32 78-146 226-233 112-66 294-113 150-34 299-69 128-32 409-32 5 0 399 37 533 50 742 217l-214 38q-144 30-144 122 0 84 116.5 218.5t195.5 134.5q13 0 92-82t174-82q103 0 135 52l78 162h47q3-60-9-117 39-36 82-36 25 0 42 18 2 109 3 123 8 61 42 95 15-10 38-74 18-57 18-69zM4294 256q-45 67-69 67-34-34-34-48 14-12 77-44z" glyph-name="uniFB54" horiz-adv-x="5086" unicode="&#xfb54;"/><glyph arabic-form="medial" d="M1421 1894q0-57-224-175-145-71-291-142h-35q-13 13-13 30 0 63 44 88 413 230 454 228h54q0-3 5.5-8.5t5.5-20.5zM1514 1337q-53-97-176-97l135-979q-6-68-22-219-13 0-35-22-28 28-33 66-136 943-136 1004 0 50 41 132-5 7-25 7-38 0-121-61h-37q0 43 29 86-5 9-43 48-28 29-28 44 0 47 82 123.5t128 76.5q40 0 66-33 21-26 21-49 0-25-23-71h-53q-13 0-54 41h-27l-17-18q10-22 66-45 51-19 77-19l172 9q4-9 13-24zM776 737q0-22-19-59-22-43-47-43-35 0-76.5 35.5t-41.5 61.5q0 22 16 54 21 43 55 43 46 0 82-37 31-32 31-55zM1145 271q0-158-66-259-4-5-110-76-56-37-159-64-97-26-172-26-16 0-43 18-161 32-225 159-13 27-13 115 0 100 105 270h37q0-3 5.5-11.5t5.5-22.5-25.5-80-25.5-79q0-113 104-167 74-38 172-38 45 0 176 49 152 57 152 105 0 12-51 155.5t-51 156.5q0 46 34 97 49-18 103-154 47-114 47-148z" glyph-name="uniFB55" horiz-adv-x="1488" unicode="&#xfb55;"/><glyph arabic-form="isolated" d="M2886 1714q0-61-250-193-168-87-337-175h-44q-14 13-14 40 0 57 172 145 89 42 179 83 69 38 137 76 89 49 143 54 14-13 14-30zM2784 936q0-33-32.5-68t-54.5-35q-11 0-37.5 15.5t-39.5 15.5-48.5-36-48.5-36q-26 0-63 37-35 34-35 50 0 28 41 65 36 32 52 32 10 0 34-15t37-15 54 35.5 54 35.5q19 0 53-31.5t34-49.5zM1074 1565q0-45-27-63-168-99-499-299h-34q-13 13-13 40 0 58 121 137 63 35 127 69 124 74 300 162 25-24 25-46zM2927 321q0-56-55-171-23-48-182-75-116-20-213-20-12 0-53 5.5t-55 5.5q-13 0-36-23-25-23-34-26t-93-3q-213 0-269 92-6 0-16-3-81-78-109-92-16-7-72-7-54 0-99 13-12 3-45 27-29 22-41 22-15 0-112.5-56.5t-153.5-56.5h-57q-94 0-159 88-18 25-67 127l-91-80q-52-42-100-61-113-43-248-43-139 0-189 63 0 101 34 151 103-61 150-61 192 0 320 83 79 53 79 86 0 5-34 131-37 136-45 196-3 21-3 88 0 85 34 132h36q4-38 15-106 32-137 106-409 71-222 214-222 83 0 161 44 109 59 131 59 13 0 97.5-31t97.5-31q94 0 178 128.5t134 128.5q8 0 101-72 104-77 156.5-100t192.5-23q112 0 146 5 80 10 136 52-3 18-53 101.5t-50 92.5q0 29 13 62 16 46 43 46 55 0 113-127 46-102 46-130zM2528-200q0-54-34-69-271-120-472-187h-34q-13 13-13 35 0 57 119 107l130 44q87 40 257 110h34q13-13 13-40zM1709-313q0-31-31.5-61.5t-55.5-30.5q-11 0-39.5 15t-42.5 15q-13 0-59-30.5t-59-30.5q-17 0-59.5 35t-42.5 53q0 22 25 62 30 45 62 45 11 0 52.5-20.5t54.5-20.5 49 30.5 49 30.5q38 0 70-37 27-31 27-55zM2129 202q-58 57-80 57l-12-38q60-19 92-19z" glyph-name="uniFB56" horiz-adv-x="2936" unicode="&#xfb56;"/><glyph arabic-form="final" d="M4541-257q0-17-37-57t-56-40q-28 0-75.5 36t-47.5 56q0 25 45 60 41 32 58 32 24 0 70-40 43-37 43-47zM4776-421q0-65-75-94-297-115-451-166-10-2-23.5 11.5t-13.5 28.5q0 43 26 57 100 56 281 131 168 68 191 68h52q13-13 13-36zM1746 1320q0-13-8-28-12-20-15-28h-57q-52 61-105 61-10 0-53-54-50-62-71-78-66-51-155-100-47-12-136-44l-25 25q45 50 175 142 120 84 163 145-28 38-75 61-27 14-27 57 0 18 19 68t35 73q29 39 127 63 49-58 60-127 4-50 7-101 37-28 74-57 67-53 67-78zM4715 270q0-42-21-114t-35-86q-49-52-215-83-172-34-328-34-194 0-194 140 0 39 15 89-15 16-47 16l-1228-143h-234q-13 0-37-15t-36-15l-1168-11q-123 31-143 31-40 0-54-107.5t-79-107.5q-43 0-93 82-41 66-42 87-1 35-7 111-22 27-52 27-47 0-109-26-80-32-80-82l61-593q0-29-15-124 0-3-28-55-41 0-47 46-64 509-64 666 0 126 79 211 94 100 272 112 17 19 54 50 41-44 135-111 49-22 169-47 129-27 208-27l767 11q59 0 438 37 463 41 1374 139l57 25q-29 58-117 90-73 26-149 26l-1905-143q-128 0-258 22-192 32-192 96 0 54 117 191 98 116 131 136 44 24 123 68 36 31 103 76 421 209 458 209 14 0 25-5.5t15-5.5v-46q1-19-25-52-28-38-60-51-317-135-394-174-236-122-340-254 31-30 58-33 187-23 173-23l978 30q-44 0 731 88 124 14 344 14 117 0 217-46 131-61 131-168 0-52-49-136.5t-85-96.5q19-48 71-61 18-4 83-4 97 0 240 22 178 27 211 65-8 26-48 106-34 69-34 84 0 44 45 112 129-93 129-235zM1040 1417q0-60-127-127-110-58-146-56h-54q0 3-5.5 24.5t-5.5 34.5q35 23 112 69-20 24-51 24-32 0-46-8-35-26-71-53h-35q-12 1-12 25 0 39 73 104.5t122 65.5q52 0 222-56 24-15 24-47zM1520 1503q-2 3-25 41-7 4-21 1-25-7-25-34 48-23 71-8z" glyph-name="uniFB57" horiz-adv-x="4700" unicode="&#xfb57;"/><glyph arabic-form="initial" d="M3339 1421q0-52-134-129-77-39-155-79-82-44-247-140h-34q-13 13-13 35 0 61 35 83 129 80 534 270 14-13 14-40zM2734 1788q-6-31-13-63-9-33-29-45-140-63-421-196h-47q5 37 24 89 32 33 204 106 101 44 236 109h46zM2745 1262q0-46-34-64-45-22-136-48-98-27-140-46h-36q-1 26-5 74-37 40-37 64 0 52 73 131t116 79q31 0 64-25.5t33-51.5q0-18-41-80 31-8 131-8 12-1 12-25zM2674 161q0-46-16-97-19-68-54-75l-124 951q0 45 42 153 40 0 45-35 30-195 71-550 36-319 36-347zM2244 1100q-5-25-26-66-37-39-135-85-106-50-172-50-15 0-23 5.5t-11 5.5v58q45 19 141 69-27 26-56 26-5 0-104-20-13 1-13 24 0 46 74 86 63 32 99 32 56 0 119-30 53-27 107-55zM3350 161q0-134-95-297t-205-221q-104-55-258-55-238 0-293 57l14 18q157 11 329 41 118 20 300 201 79 77 115 179 3 7-6 16-20-7-39-38-15-23-62-23-68 0-108 75-31 55-31 99 0 57 30 104 41 69 56 119 58 33 68 33 37 0 105-93 57-78 65-106 15-50 15-109zM1722 1570q-26-81-64-104-161-90-484-270-15 12-25 12v43q-1 47 225 180l290 164h34zM2203 607q0-30-25-63.5t-47-33.5q-57 0-112 53 0 28 23 81 27 61 53 61 23 0 63-32 45-36 45-66zM1066 1588q0-35-116-104-60-33-122-66-47-29-136-89-25 23-25 56 0 89 374 262 14-13 25-13v-46zM841 1303q0-68-137-153-93-49-186-97-14 11-24 11v53q-1 20 69 69 60 42 86 53 59 35 177 100 15-14 15-36zM1292 587q0-67-32-147-8-1-24-12-27 14-29 66-5 66-11 80-15 33-76 111-54 68-54 81 0 36 46 82 29-12 75-36 51-35 80-110 25-61 25-115zM2336 177q0-30-23-64t-44-34q-12 0-68.5 31t-69.5 31q-70 0-171-40-111-45-145-101-24-40-29-99-4-39 5-107 9-74 9-106-1-27-51-92-53-67-94-89-44 18-81 230-25 143 11 258 9 29-4 54-284-51-356-51-10 0-70 5t-73 5q-31 0-38-2-32-51-78-148-144-311-428-311h-120q-72 0-209 45-7 5-33 32 16 37 51 37 13 0 82-10.5t82-10.5q100 0 177 33 93 40 210 139 145 124 145 212 0 8-46 59t-46 78q0 31 19.5 62t41.5 31q8 0 61-34 59-37 89-46 85-22 188-22 276 0 453 83 18 9 40 44 29 50 33 54 11 14 74 54 35-36 35-56 0-37-82-152-90-126-90-127-11-18-24-57v-40q-3 0 16-18 21 47 70 140 31 49 91 100 45 38 114 62 156 56 222 56 53 0 100-31 54-35 54-87zM523 208q-16-131-64-261-48 35-45 56 10 103 4 173-14 144-58 455-41 282-41 288 0 36 43 122h47zM2550 1290q-21 22-21 36h-39q17-25 34-31 13-2 26-5zM3196 228q-14 28-47 67-35-35-35-46 0-12 34-46 24 0 48 25z" glyph-name="uniFB58" horiz-adv-x="3344" unicode="&#xfb58;"/><glyph arabic-form="medial" d="M3524 1534q0-43-23-61-43-33-128-79-105-56-139-78-84-53-257-161h-34q-13 13-13 30 0 54 24 71 67 47 511 308h45q14-13 14-30zM2653 1267q0-10-5.5-29t-5.5-29q-2-1-2-2-9-11-28-11-13 0-51.5 25.5t-51.5 25.5q-11 0-52-51-48-61-72-79-50-37-145-78-87-38-109-38-26 0-41 15 25 55 138 124 128 80 179 143-7 14-63 51-49 32-49 51 0 58 39 126 49 84 119 84 38 0 52-23 11-19 48-195 1-2 60-51 40-32 40-59zM3533 229q0-116-24-177-37-90-134-203-116-136-224-175-64-24-166-24-44 0-174 24-122 23-137 30 3 48 40 48 13 0 44-5t43-5q405 0 630 395l-7 46-42-46q-24-26-53-26-68 0-110 73-34 56-34 106 0 70 41 148 48 92 113 92 80 0 144-135 50-108 50-166zM1803 1252q0-19-15.5-47.5t-30.5-28.5q-13 0-59 35.5t-59 35.5q-3 0-64-64-71-76-129-118-88-64-160-64-43 0-66 13 2 28 150 116 146 88 145 137v12q-26 36-62 56-18 9-18 60 0 43 39 116 46 84 93 84 105 0 105-208 5-6 81-58 50-35 50-77zM1024 1681q1-31-97-94-54-34-108-67-63-44-186-139h-47q0 3-6 11.5t-6 23.5q0 35 25 65t191.5 138.5 189.5 107.5h44v-46zM2848 284q0-18-22-76-23-63-45-95-29-43-108-43-12 0-73.5 15t-74.5 15q-12 0-42-30-33-33-48-39-38-13-64-13-12 0-107 20.5t-108 20.5q-12 0-59-25-53-28-73-33-82-23-196-23h-70q-42 0-109 42-65 40-78 70-158-112-209-112h-100q-160 0-213 104-45 142-91 284-32-78-91-222-76-183-267-269-63-28-328-92l-45 13v46q132 54 270 127 241 127 241 198 0-4-37 90-9 22-68 143-210 273-284 273-11 0-27-4.5t-29-4.5q-86 0-136 63-43 56-43 136 0 55 33 107h32q10 0 34-18 112-38 257-172 136-126 213-252 32-54 104-254 12 0 30 28 52 112 66 339l12 376q1 34 43 77 20-13 42-46 18-144 61-430l44-320q45-167 211-167 83 0 184 46t113 46q21 0 33-4 32-28 92-65 70-23 177-23 138 0 218 43 24 13 57 79 31 62 69 72 23-19 24-69 1-41-9-68 22-16 87-16 89 0 122 30 19 18 41 84 23 73 59 121 30 0 45-24 2-14-9-54-12-43-12-59 0-37 42-37h89l10 9q0 17-7 61t-7 58q0 108 49 108 55 0 85-185zM799 1363q1-49-169-146-127-73-205-103-24 25-24 41 0 12 6.5 31t6.5 27q119 74 360 208 15-12 25-12v-46zM1670-242q0-30-33-66-31-31-49-31-25 0-68.5 36t-43.5 55q0 26 34.5 69.5t51.5 43.5q37 0 74-43 34-39 34-64zM2432 1423v38h-19v-38h19zM3358 296v46l-35 35q-28-42-12-81h47zM1563 1423v38h-18v-38h18z" glyph-name="uniFB59" horiz-adv-x="3524" unicode="&#xfb59;"/><glyph arabic-form="isolated" d="M5551 1922q-17-82-89-127-54-25-108-49-46-26-318-160h-46q17 93 138 157 90 40 180 79 104 55 196 100h47zM5480 1565q0-118-63-161-37-25-115-52-71-23-93-23-77 0-77 82 0 22 24.5 60t45.5 40q0-28 29-70 29-1 50 59 24 69 52 84 26-42 22-69v-15q-6-7 17-7 29 0 44 56 16 62 51 76 13-27 13-60zM4425 1928q0-58-269-172-86-46-247-119h-35q0 78 34 101 116 75 493 226 24-25 24-36zM5091 1165q0-62-125-130-19-10-155-68-73-34-218-89-14 15-14 41 0 58 44 78 150 63 454 198 14-14 14-30zM4405 1575q0-67-57-132-23-27-131-56-101-27-88-27-72 0-72 71 0 57 56 113l15-14v-20.5-20.5q17-17 26-17 13 0 44 45 39 58 49 67 11-25 33-72h26q15 47 63 134 36-36 36-71zM5490 274q0-62-21-150-27-111-64-123-69-23-227-23-13 0-115.5 35.5t-114.5 35.5-44-21q-36-23-53-27-196-54-282-54-199 0-252 132-113-142-413-142-115 0-141 14-70 35-70 157 0 28 7 96l-1328-150-783-36q-5 0-198.5 6.5t-234.5 6.5q-11 0-41.5 9t-43.5 9h-78q-3-6-33-133-16-71-72-71-40 0-100 65-56 59-56 83 0 5-5 62-5 46-1 70-15 27-58 27-36 0-163-81-1-3-1-42l72-712q0-152-59-178l-105 777q-4 83 34 175 41 100 114 168 22 21 163 48 9 2 27 20.5t31 18.5 47-32q48-44 53-49 19-14 145-47 132-36 181-36h755q9 0 99 11 96 10 137 12 106 1 287 10 200 18 624 62 235 34 695 99l18 17q-65 107-287 107-10 0-110-14-119-16-171-21-161-23-512-65-459-44-861-44-537 0-537 117 0 19 46.5 101t89.5 139q73 94 173 160 87 58 195 110 92 49 183 98 181 94 220 94h63q13-2 13-26 0-17-29.5-63.5t-46.5-50.5q-190-42-541-266-172-109-223-184v-26q180-59 609-59 5 0 116 11 118 12 170 16 187 7 482 26 140 14 448 54 276 36 284 36 105 0 217-38 162-54 162-157 0-75-105-212-44 3-80-19 6-87 57-108 20-9 102-9h118q51 0 135 33 100 39 100 85l-102 952q0 10 18 49 21 45 38 58 78-25 83-312 3-135 19-319 17-188 19-285 2-128 60-201 38-49 163-49 158 0 266 68-8 20-60 44-44 20-58 20-12 0-27.5-5t-25.5-5l-3 3q-10 10-10 28 0 78 106 137 85 47 140 47 56 0 139-42 96-51 96-111 0-58-52-110 0-8 18-21 105-33 141-33 64 0 87 14 31 20 31 78l-72 707q0 10-31 82.5t-31 86.5q0 27 37 104 38 82 61 95 28-13 37-90 8-72 69-85-5-35-23-127-17-79-17-92zM1723 1324q0-21-23-76h-35q-96 71-117 71-12 0-58-44-55-52-77-66-39-24-139-60-96-35-115-35-25 0-51 26 41 45 165 104t174 113q5 25-62 64-3 13-3 28 0 65 55.5 136t100.5 71q55 0 69-101 3-58 5-116 111-89 111-115zM954 1267q0-49-53-78-192-106-219-105h-95q0 6-5 24.5t-5 24.5q48 23 163 89-31 35-72 35-12 0-38-16-34-22-38-24h-46q41 153 173 153 10 0 94-32 89-35 128-40 13-13 13-31zM1537 1484q0 5-5.5 24t-5.5 25h-37v-49h48z" glyph-name="uniFB5A" horiz-adv-x="5494" unicode="&#xfb5a;"/><glyph arabic-form="final" d="M4420 1606q0-64-177-127-93-45-278-129h-35q0 4-6 10t-6 20q0 63 83 105 53 21 105 40 181 86 300 121 14-14 14-40zM3835 1501q1-4 1-7 0-49-119-124-114-72-167-72-20 0-52 10t-44 10q-21 0-35-19v58q60 25 182 85-20 20-61 20-30 0-57.5-16t-37.5-16q-12 0-28 10 24 57 75.5 101t93.5 44q26 0 249-84zM4328 935q0-24-37-61t-56-37-95 52q-65-82-109-82-30 0-68 40-35 35-35 47 0 27 36 62t62 35q10 0 41-20.5t46-20.5q13 0 51.5 36t50.5 36q30 0 70-27 43-29 43-60zM3161 1590q0-63-208-162-94-44-279-140-8 5-16.5 10t-8.5 21q0 58 43 87 95 64 256 145 150 75 172 75 41 0 41-36zM3192 842q0-19-34-63t-54-44q-11 0-55 20.5t-57 20.5-54-41-53-41q-19 0-123 74 2 28 23 72 28 59 64 59 9 0 49-20.5t58-20.5q13 0 56.5 36t56.5 36q20 0 69-31 54-33 54-57zM2423 1308q0-61-50-61-14 0-59.5 25.5t-58.5 25.5q8 0-116-104t-201-104q-9 0-26-8.5t-31-8.5q-15 0-31 6t-19 6v36q35 32 157 89 109 50 159 114-16 25-64 66-28 24-28 72 0 39 46 110 55 84 113 84 68 0 76-101l2-116q17-21 83-63 48-30 48-68zM4297 320q0-67-46-97-96 72-133 72-50 0-151.5-52.5t-139.5-99.5q-50-64-45-252 0-13 11-54t11-67q0-12-2-23-6-35-50-86-36-41-73-82-42 12-64 64-59 132-59 299 0 4 7 60 5 44-1 68-35 0-114-15.5t-87-15.5q-103 0-185 26-37 12-182 77-79-134-238-134-167 0-233 157-9 14-23 28-36-45-113-120-120-95-353-95-85 0-106 9-47 20-47 98 0 67 46 97 102-51 138-51 72 0 212 46 187 62 187 148 0 22-68 260-23 80-23 175 0 44 13 85 17 23 35 23 11-21 60-188l86-332q69-187 209-187 77 0 167 87.5l90 87.5q-3 0 99.5-67t193.5-67h53q149 0 245 63 45 31 101 98 62 76 86 96 15-16 15-41 0-32-80-162-21-40-63-121l6-45q57 103 165.5 201t200.5 133 119 35q47 0 87-54 36-48 36-85zM1000 1529q0-62-53-95-109-65-284-153-171-85-191-84h-44v54q-1 15 10 28 7 6 14 14 461 261 473 260h63q12-1 12-24zM847 801q0-19-31-62-32-45-51-45-35 0-123 63-2 37 23 83 27 49 59 49 35 0 79-33t44-55zM1789 274q0-69-62-190-48-93-97-153-174-220-440-220-10 0-70.5 5.5t-73.5 5.5q18 0-177 33 0 5-5.5 23t-5.5 23q33 23 101 23 11 0 46.5-5t51.5-5q338 0 586 335 41 57 54 108l-16 17q-61-81-123-81-60 0-102 51-36 46-36 97 0 57 44 165 56 137 125 137 41 0 106-86 49-65 69-112 25-58 25-171zM1195 336q0-368-466-368-291 0-291 255 0 51 44 143 41 85 83 134 26-27 26-36 0-12-31-72t-31-72q0-98 76-152 66-48 165-48 56 0 180 35 163 46 163 104 0 31-24 79-7 16-73 134-46 84-46 99 0 46 44 112 72-27 130-154 51-113 51-193zM2219 1488q-26 51-48 40-23-6-23-33 66-33 57-33 11 12 14 26zM1615 407q0 21-20.5 41t-38.5 20q-34-67-34-66 0-22 14-35h55q24 24 24 40z" glyph-name="uniFB5B" horiz-adv-x="4292" unicode="&#xfb5b;"/><glyph arabic-form="final" d="M5444 1379q0-59-85-100-71-31-143-62-108-65-320-181-24 25-24 36 0 63 122 131 83 41 167 81 88 50 269 131 14-14 14-36zM4175 1461q0-88-117-165-101-66-165-66-11 0-48.5 16t-48.5 16q-14 0-43-17-36-19-48-24v34q-1 16 26.5 54.5t46.5 49.5q38 3 102 26 20 17 47 60 30 49 37 57 59 66 119 66 28 0 60-41.5t32-65.5zM5414 161q0-53-45-156-80-183-239-288-140-93-290-93-114 0-323 33-27 15-75 40v36q23 23 45 23 13 0 38-13t34-14q15-3 97-3 8 0 79 13t101 14q118 3 253 108 113 87 199 209 10 28 7 34-65-51-127-51-56 0-99 75-34 58-34 94 0 48 54 146 64 115 125 115 42 0 116-109 65-95 70-120 14-78 14-93zM4390 222q0-240-189-240-12 0-56-5t-57-5q-157 0-177 147-104 791-104 886 0 85 54 133 9 0 25.5-15.5t18.5-29.5q11-77 30-235 15-170 52-512 7-65 37-184 10-25 41-28-16 1 54 1 179 0 179 62 0 12-31 50-34 41-38 55-13 39-13 63 0 41 44 108 130-76 130-251zM3130 1511q1-45-217-154-118-54-235-109-108-59-121-59-41 0-41 46 0 54 54 83 101 48 308 143 75 36 227 107 14-12 25-12v-45zM3120 1103q0-19-44.5-91t-61.5-76q-27 1-81-6-16-4-73-28-48-20-62-20-18 0-42.5 33t-24.5 54q0-14 33 117 6 0 18.5 5.5t17.5 5.5q12-15 12-83 3 0 10-4.5t22-4.5q34 0 44 51 5 34 10 70 6 5 21 22h36q10-19 10-72 5 0 17.5-5t17.5-5q10 28 10 101 3 0 16 6.5t28 6.5q29 0 50-34 16-27 16-43zM4298-264q0-34-37-65-31-27-50-27-39 0-74 30-34 27-34 52 0 20 26 59 29 43 51 43 32 0 75-32.5t43-59.5zM4431-438q0-52-66-92-18-10-101-45-104-42-321-118-13 14-13 35 0 48 25 62 64 34 429 188h35q0-4 6-9.5t6-20.5zM3099 616q4-7 4-17 0-31-28-67-30-39-62-39-26 0-64 22-43 26-43 55 0 27 40.5 67t61.5 40q26 0 91-61zM2321 1320q0-17-13-45-14-32-29-41-209-126-295-126-37 0-71 34 12 39 69 61 70 27 94 54-4 14-46 14-31 0-134-50-14 14-14 30 0 50 72 104 68 50 112 50 34 0 132-32t123-53zM3530 233q-22-261-230-261-55 0-144.5 40.5t-81.5 40.5q-5 0-69-37-41-25-117-35-55-7-109-13-148-27-181-27-213 0-213 143 0 15 2 42.5t2 38.5q0 62-57 62 4 0-301-89-375-110-544-119-18-2-66.5-9.5t-60.5-7.5q-47 0-252 13-17 1-65.5 14.5t-62.5 13.5q-33 0-46-58-5-31-9-62-28-39-39-63h-32q-33-1-82 42-51 45-65 94-3 11-5 95 0 15-1 27-2 3-14 17-70-1-139-33-90-43-100-115l82-625q-6-58-33-177h-37l-94 751q0 63 34 144 42 104 153 173 49 13 133 48 9 5 41 68h35q46-48 124-120 43-29 172-56 180-37 255-37 194 0 425 47 223 47 318 103-5 9-60 44-63 41-99 41-13 0-75-17-72-20-90-23-14 13-14 30 0 65 95 129 80 55 120 55 12 0 99-46 99-53 133-64 88-33 296-82 64 1 194-7 19-1 37.5-19.5t18.5-32.5q0-6-64-94-20-1-82-7-54-6-82-6-8-7-8-31 0-82 174-82 130 0 240 29 69 19 145 55 62 28 76 28 10 0 84.5-35.5t146.5-35.5q64 0 87 26-9 105-86 675-3 20-26 81-21 56-21 68 0 38 54 161 16 12 41 33 44-17 30-126 8-14 52-44 37-26 37-40 0-18-27.5-80.5t-27.5-93.5q0-13 4-24zM2158-269q0-37-32-67.5t-65-30.5q-22 0-64.5 34.5t-42.5 58.5q0 21 27 59 29 43 55 43 31 0 76.5-36.5t45.5-60.5zM1206-335q0-63-142-129-89-34-179-70-51-23-154-68h-34q-13 14-13 41 0 11 14 46 249 124 461 210h34q13-13 13-30zM5239 239q3 20-22 49-21 26-35 31-24-23-24-69 37-21 81-11zM4061 1424h-67q-35-33-31-60 26 10 53 20 31 12 45 40z" glyph-name="uniFB5F" horiz-adv-x="5409" unicode="&#xfb5f;"/><glyph arabic-form="initial" d="M1693 1292q0-11-5-29.5t-5-28.5q-1-2-3-3-9-10-28-10-32 0-128 71-21-9-51-48-37-48-51-61-38-34-133-85-113-62-165-62h-52l-23 27q44 35 190 119 118 68 178 136-24 39-68 78-24 21-24 60 0 52 40 113 47 71 109 71 21 0 33-5 55-45 60-81 2-15-5-47-6-36-6-51 0-19 6-34 13-25 75-74 56-44 56-56zM986 1352q0-59-118-127-114-66-198-66-69 0-102 47 25 15 81.5 35.5t82.5 36.5q-24 45-72 45-6 0-129-61-15 13-15 30 0 33 75 89 71 54 105 54 32 0 290-83zM1467 1457q0 49-12 56-9 3-25 3l-12-38q6 0 25-10.5t24-10.5zM1876 218q1 4 1 9 0 34-65 92l-94 82q-25-100-24-142 73-53 138-53 15 0 28 6t16 6zM1622 309q0 15-20 65-23 52-36 58-26-12-51.5-51t-25.5-62q0-14 17-36 21-25 50-25 19 0 42.5 17.5t23.5 33.5zM1960 260q0-72-24-152-31-104-84-104-10 0-144 20.5t-147 20.5q-11 0-59-20-52-23-79-28-52-12-106.5-22.5t-175.5-10.5q10 0-74-4-66-4-104 0-9-9-38-118-25-94-66-94t-94 70q-42 56-51 87-21 69-3 174-5 7-41 7-72 0-126-36-58-39-58-97 0-12 46-337.5t46-338.5q0-55-26-110-6-6-33-22l-126 772q-3 68 36 146 50 102 152 152 47 9 133 36 18 27 54 60 50-48 145-141 15-7 41-17 63-47 192-47 89 0 109 3 62 8 98 45-5 66 39 175 34 86 69 172-6 53-6 73 0 116 70 116 13 0 133-95 180-143 198-156 41-30 72.5-85t31.5-94z" glyph-name="uniFB60" horiz-adv-x="1979" unicode="&#xfb60;"/><glyph arabic-form="medial" d="M4275 1426q0-17-23.5-50.5t-40.5-43.5q-341-197-362-197h-43q-13 13-13 35 0 60 249 181 57 35 165 100h55q13-1 13-25zM3813 903q0-51-272-158h-134l-23 25q8 27 85 54 98 34 130 59-50 36-92 36-12 0-43-11-40-15-57-19-13 1-13 25 0 45 64 85 55 33 95 33 35 0 260-84v-45zM2995 1447q0-47-27-63-10-7-281-179-174-111-190-111h-52l-23 24q3 27 24 67 114 80 502 297h34q13-13 13-35zM4203-314q0-35-23-65-25-33-59-33-13 0-39 18-32 19-47 24-23-24-47-49-28-23-61-23-31 0-56.5 23.5t-25.5 53.5q0 31 31.5 64t54.5 33q14 0 36-17 32-22 36-24 11 7 53 54 35 38 50 38 27 0 64-43 33-39 33-54zM2871 776q3-5 3-15 0-29-26-67-28-41-58-41-10 0-39.5 15.5t-42.5 15.5-51.5-41-50.5-41q-28 0-68 44-34 38-34 48 0 30 34 68 32 34 47 34 10 0 39-15t43-15q13 0 49 35.5t48 35.5q8 0 107-61zM2299 1278q0-14-5.5-36.5t-5.5-32.5q-2-1-2-2-10-11-28-11-12 0-44 20.5t-43 20.5-53-47q-54-58-88-83-52-38-151-82-109-49-172-54-13 1-13 25 0 21 152 121 104 69 207 137 0 30-39 49-53 26-63 38-8 74 58 155 64 79 121 79 79 0 79-209 3-3 55-45 35-30 35-43zM4131 264q0-22-34-49-23 4-51 4-169 0-275-71-139-91-139-308 0-58 10-133 5-35-32-88t-87-81q9 0-32 14-18 46-49 132-18 47-18 108 0 42 11 114.5t11 97.5v36q-295-42-430-42-99 0-160 13-22 5-66 36.5t-56 31.5l-79.5-61t-150.5-61q-80 0-157 70-72 66-106 155-193-214-424-214-143 0-143 111 0 22 14 55 17 38 32 38 13 0 61.5-26t61.5-26q70 0 199 50 164 61 164 140 0 13-35.5 176.5t-35.5 177.5q0 87 35 122 10-4 21-13 23-56 67-280 36-185 104-303 16-29 118-67 6-3 49-3 97 0 154.5 72t75.5 72q12 0 41-29 34-33 48-41 65-33 121-33 13 0 54-4.5t54-4.5q167 0 297 35 158 42 197 125 25 32 71 95h46q13-13 13-30t-110-223q-35-64-35-106 7 0 30 40 33 59 59 93 46 62 90 89 58 35 160 68 88 28 113 28 37 0 80-35.5t43-66.5zM794 1605q0-52-103-111l-136-66q-97-55-287-171h-34q-14 14-14 36 0 69 254 209 186 104 295 144 25-25 25-41zM1633 346q0-44-39-140-72-181-237-304-160-119-318-119-71 0-195 40-131 42-153 78 12 15 12 24 244-29 208-29 340 0 596 335 31 40 31 61 0 7-3 13-55-62-122-62-69 0-109 66-29 49-29 98 0 71 66 174t107 103q67 0 131-156 54-130 54-182zM569 914q0-23-27-65t-45-42q-46 0-113 63 0 25 25 75 27 56 51 56 23 0 64-29 45-32 45-58zM937 412q0-133-36-187-69-104-214-164-127-53-257-53-271 0-271 261 0 217 126 322 38 0 38-30 0-13-36-102.5t-36-102.5q0-105 82-156 60-39 138-39 192 0 374 140 7 71-24 150-24 61-74 136-35 53-35 86 0 62 33 113h36q156-217 156-374zM2123 1402q0 14-14 26t-23 12l-12-38h49zM1480 442q-19 38-58 58-28-29-45-67l23-25h46q11 12 34 34z" glyph-name="uniFB61" horiz-adv-x="4136" unicode="&#xfb61;"/><glyph arabic-form="final" d="M2642 1829q0-47-26-65-126-85-472-247-14 15-14 31 0 63 152 144 79 37 157 73 39 32 145 90h45q13-2 13-26zM2693 1358q0-16-19-42t-36-31q-67-14-194-48-32-19-95-48-23 20-23 40 0 12 29 58-11 20-24 39-17 27-17 43 0 20 3 33 36 40 122 130 25 26 59 26t60-28q22-24 22-49 0-72-57-87-16 11-52 42h-26q-3-12-3-22 0-23 22-30 16-6 48-4 49 4 43 4 122 0 126-1 12-1 12-25zM2027 1736q0-36-218-147-195-100-322-142 0 3-6 14t-6 26q0 16 18.5 42.5t35.5 34.5q441 219 443 219h55v-47zM2714 227q0-132-33-193l-26-11-166 1091q13 33 27 66 24 52 50 61 25-12 32-56 5-57 20-174 29-183 57-366 39-257 39-418zM2089 964q0-37-37-68-30-24-45-24-32 0-68 35-35 32-35 52 0 17 26 54 29 44 62 44 37 0 68-34 29-31 29-59zM1578 1185q0-52-184-141-173-75-345-151-10 6-21 12-14 8-14 23 0 54 105 106 67 28 133 56 163 77 301 130 25-24 25-35zM2366 294q0-88-15-125-33-83-143-113-233-64-308-64-11 0-76 10t-78 10q-55 0-70.5-30.5t-42.5-30.5h-76q-93 0-182 45-5 2-33 27-22 20-36 20-13 0-97-41t-98-41q-11 0-32.5 5.5t-33.5 5.5q-26 0-39-17-10-126-68-217-21-33-101-79-76-44-133-60-183-47-212-47-135 0-233 64-115 75-115 208 0 125 138 280 9-5 17.5-10t8.5-20q0-11-36-81t-36-83q0-105 113-163 79-41 153-41 226 0 400 139 5 101-14 151-3 7-42 95-26 60-26 74 0 21 20 60 21 43 36 43 22 0 44-41 12-27 24-53 12-16 27-27 55-32 136-32 73 0 70-1 31 6 106 53 37 53 73 107 68 96 104 96 9 0 156-132 43-36 121.5-59t198.5-23q53 0 186 30 162 36 162 72 0 26-37 82-23-14-80-65-31-28-72-28-45 0-87 44.5t-42 94.5q0 54 57 163 67 128 138 128 64 0 137-151 55-113 64-160 4-22 4-72zM636 381q0-42-33-69-28-24-60-24-35 0-78 27-45 27-45 55 0 33 40 70 36 33 53 33 32 0 79-40 44-36 44-52zM2181 435v34q-18 36-57 55-56-55-56-82 0-15 8.5-20.5t15.5-9.5h52q14-1 37 23zM1494 146q0 38-32 70h-35q-23-23-23-37 33-33 47-33h43z" glyph-name="uniFB63" horiz-adv-x="3285" unicode="&#xfb63;"/><glyph arabic-form="initial" d="M2923 1636q0-66-80-107-63-30-127-59-77-40-227-120h-34q-23 23-23 35 0 44 192 151 127 66 252 130h34q13-13 13-30zM2288 1476q1-35-145-114-32-16-105-36-67-18-87-18-15 0-30 5.5t-18 5.5l-13 12v38q61 24 184 88-22 26-57 26-21 0-123-52l-14 12v59q134 104 178 104 14 0 98-30 104-37 132-44v-56zM1695 1519q-22-44-33-87h-33q-12-1-38.5 19.5t-39.5 20.5q-73-68-131-112-146-114-234-123-7 5-15.5 10t-8.5 20q0 32 112 114 68 46 136 93 29 21 29 44 0 13-41 56.5t-41 56.5q0 53 64 125 67 74 125 74 61 0 61-109 0-20-2-52.5t-2-40.5q0-12 2-15 30-31 90-94zM2084 837q0-47-82-102-38 0-80.5 33t-42.5 59q0 30 33 66.5t59 36.5q23 0 69-41 44-39 44-52zM2821-303q0-33-36-63-30-25-46-25-20 0-97 52-96-93-108-93-21 0-76 34-57 36-57 54 0 19 36.5 63t60.5 44q13 0 54-20.5t54-20.5q11 0 50 41t52 41q24 0 68.5-43.5t44.5-63.5zM1019 1324q0-22-22-76-31-9-117 60-95-71-190-143-106-75-187-102h-35q-12 1-12 25 0 29 100 101 53 34 106 69 46 33 122 108-22 16-68 59-14 15-14 52 0 56 50 123 56 77 123 77 84 0 84-120 0-30-5.5-76.5t-5.5-53.5v-8q71-83 71-95zM2790 300q0-118-220-118-10 0-65 5.5t-68 5.5q-34 0-312-112.5t-389-112.5q-62 0-100 49-22 30-45 94-18 50-29 50-25 0-102-32-92-38-133-78-12-12-29-87-19-79-38-107-62-87-240-160-167-68-288-68-249 0-346 108-24 25-55 94-29 65-29 85 0 85 53 195 52 109 97 122 14-14 14-31 0-9-31-89.5t-31-94.5q0-225 349-225 61 0 118 3 30 1 174 62 169 70 169 120 0 61-67 61-12 0-36-5t-36-5q-64 0-114 35-54 38-54 92 0 79 56 170 64 102 143 102 28 0 100-101 38-57 77-115 44-8 142 26 116 40 116 103l-81 696q0 40 43 127 8 0 33-15 42-96 55-207 9-96 18-191 0-103 17-318 17-110 51-224 5-17 41-47.5t54-30.5q32 0 172 23 63 10 170 64-156 66-204 66-53 0-129-41-25 26-25 36 0 29 55.5 89t81.5 66q119 29 347 98 64 24 173 123 48 53 95 106 80 87 113 87 39 0 82-112 36-91 36-113 0-24-24-81-25-59-44-73-25 67-101 204-97-96-149-144-89-83-164-137 52-32 231-50 4 0 21.5-8.5t29.5-8.5q231 0 239-1 12 0 12-24zM1152 750q-17-29-34-59-31-48-53-48-9 0-101 30-79-82-98-82-24 0-70 45-43 41-43 53 0 18 33 62.5t48 44.5q10 0 42-20.5t45-20.5 49.5 36 48.5 36q16 0 67.5-28.5t65.5-48.5zM1519 1647q16 33-12 60-7 0-22-14.5t-15-22.5q22-23 49-23zM885 1484v36q-32 34-47 34-5-6-17-18t-17-18q46-46 56-46 24 0 25 12zM1100 210q-8 43-47 54-5-5-12-18t-12-17q26-27 71-19z" glyph-name="uniFB64" horiz-adv-x="2786" unicode="&#xfb64;"/><glyph arabic-form="medial" d="M2360 1787q-10-90-131-164-93-53-188-104-68-49-186-110h-34q-13 13-13 35 0 56 222 189 137 77 273 154h57zM1613 1628q0-29-218-161-153-91-307-181-9-1-23.5 13.5t-14.5 32.5q0 48 36 72 97 66 480 280h47v-56zM2996 1731q0-104-280-243-136-69-317-189l-272-150q-190-109-227-195 4-9 19-25 186-135 323-310 160-204 160-362 0-51-8-71-24-52-48-105-13-32-155-61-119-24-183-24-12 0-104.5 10t-105.5 10q-11 0-40-30.5t-42-30.5q-89 0-187 31-126 38-149 102-19-4-64-36-51-34-74-43-8-3-153-16-32-60-43-136-16-122-203-210-153-71-274-71-131 0-241 65-138 79-138 217 0 80 71.5 198t122.5 123v-67q0-13-14-27-20-19-24-25-12-19-27.5-71t-15.5-70q0-102 127-152 93-37 215-37 47 0 164 46 127 51 160 93 6 77-15 151-9 34-55 113-43 71-43 83 0 58 43 117 29 5 59-43 27-40 53-81 52-60 162-60 93 0 179 64 46 34 124 118 58 64 81 64 13 0 72-62 76-77 105-100 95-73 274-73 217 0 302 56-18 93-111 234-98 149-172 177-43 5-124 27-43 20-71 78-24 50-24 98 0 66 43 178 43 117 84 150 149 122 514 330 472 268 489 279h34q24-24 24-36zM641 436q0-28-31.5-70t-55.5-42q-17 0-57.5 36.5t-40.5 54.5q0 13 26 60 28 53 51 53 34 0 72-36 36-34 36-56zM1582 157q-19 48-56 85-21-22-34-22 0-18 5-37t5-22q95 0 80-4z" glyph-name="uniFB65" horiz-adv-x="2381" unicode="&#xfb65;"/><glyph arabic-form="isolated" d="M1280 2027q0-38-117-104-66-34-130-67-123-65-311-160-25 24-25 41 0 60 64 97 77 32 235 109 34 18 259 131 14-11 25-11v-36zM1229 1639q0-127-209-173-8-1-34-18.5t-44-17.5q-37 0-67 34-24 29-24 52 0 20 29 70.5t48 57.5q23-12 25-37-1-23-1-47-7-8 17-8 28 0 35 41 11 56 13 61 5 0 22.5 5.5t22.5 5.5q18-18 32-52h36q16 36 63 113l18-13q18-49 18-74zM1146 1121q3-40-32-88-42-56-46-71-15-113-47-337-7-45-38-149-30-96-30-107 0-7 35.5-112t35.5-133q0-105-43-124-96-45-325-45-11 0-50.5-5t-52.5-5q-47 0-77 42-25 35-25 75 0 20 23 67h42q14 0 19.5-10.5t17.5-10.5q90 0 177 90 80 83 80 146 0 43-182 274-188 238-243 238-10 0-24-5.5t-27-5.5q-169 0-169 210 0 28 22 98h43q7 0 45-29 95-40 250-192 145-141 218-253 41-65 135-192 29 13 41 68 50 241 50 459 0 10-11 66-9 46-2 79 3 17 81 146h37q2-5 2-91 0-35 7-47 12-18 63-46zM911 152q-23 90-23 79-46-46-58-79h81z" glyph-name="uniFB66" horiz-adv-x="1164" unicode="&#xfb66;"/><glyph arabic-form="final" d="M2840 1559q1-74-86-136-70-40-140-81l-299-180h-36q0 4-5.5 14.5t-5.5 25.5q0 49 43 77 437 282 465 280h64zM2257 1397q0-58-157-146-143-80-185-80-12 0-46 34v46q47 18 93 36 54 23 71 53-8 16-41 16-34 0-65-21-38-26-74-51-15 14-15 41 0 47 75 109 69 54 99 54 5 0 222-62 9-5 16-9.5t7-19.5zM1633 1333q0-39-34-89-22 4-69 18-37 12-50 12-26 0-33-3-99-145-382-284-36 27-36 46 0 12 80 70 47 35 96 69 95 82 152 138-16 29-56 72-26 29-26 55 0 51 53 121 57 74 105 74 82 0 82-86 0-23-7-65-6-38-5-48 7-34 54-54 58-27 76-46zM2073 781q0-30-32-63.5t-60-33.5q-33 0-81 30-51 31-51 62 0 19 27 59 32 43 59 43 31 0 86-40 52-39 52-57zM2974-163q0-30-32.5-63.5t-59.5-33.5q-46 0-118 72-91-92-118-92-24 0-63 35.5t-39 56.5q0 33 34 70 31 32 48 32 47 0 119-72 25 19 64 67 29 36 42 36 20 0 71.5-44.5t51.5-63.5zM927 1140q0-25-19.5-51t-32.5-26q-12 0-25 10t-25 10q-14 0-48-35-48-49-67-64-156-117-271-136-24 24-24 35 0 15 105 98 148 118 182 149-45 49-92 77-3 14-3 31 0 74 46 142 50 72 115 72 97 0 97-120 0-29-8-99 70-75 70-93zM2810 272q0-48-53-79-39-23-59-23-13 0-123 10t-123 10q-98 0-352-102t-278-102h-50q-159 0-218 225-16-3-45-30-51-48-52-48-37-16-102-49-34-18-55-88-15-54-29-109-40-116-265-205-137-54-299-54-136 0-242 64-132 80-132 222 0 77 51 183 63 131 151 154 0-4 6.5-12.5t6.5-22.5q0-10-111-187-2-8-2-33 0-93 103-160 84-55 153-55 70 0 260 34 28 4 140 62 132 69 132 109 0 61-66 61-11 0-30.5-5t-30.5-5q-62 0-117 39-63 46-63 114 0 55 63 152 67 104 122 104 48 0 103-83 87-130 88-132 60-4 136 25 103 40 103 113 0 12-11 71-13 71-17 103-8 93-27 287-4 39-27 130-21 84-21 95 0 112 58 128 11-11 32-11 14-108 46-362 15-87 44-266 16-103 32-207 50-188 157-188 56 0 155 33 90 29 132 56-11 25-126 52-94 23-115 23 6 0-75-19 0 3-6 9t-6 21q0 69 119 127 6 4 130 49 100 34 286 112 70 35 148 120 34 40 67 81 37 43 69 43 57 0 94-110 29-85 29-156 0-11-5.5-38t-5.5-42q-4 0-25-6t-34-6q-24 66-90 194-51-60-159-170-50-31-152-103 7-31 61-45 2 0 99-18 184-31 400-37 23-15 23-47zM1090 728q-36-110-107-110-11 0-27 5t-29 5q-16 0-47.5-41t-70.5-41q-31 0-64.5 22.5t-33.5 44.5q0 26 33 67t54 41q12 0 40.5-15.5t41.5-15.5 51.5 51 51.5 51q41 0 107-64zM1438 1460q-19 37-49 37 0-11 5-22.5t5-14.5h39zM782 1317q-5 0-18 6t-18 6q-34-34-34-39 23-10 67-33 3 3 3 60zM1120 213q-27 55-56 70l-24-24v-36q62-10 80-10z" glyph-name="uniFB67" horiz-adv-x="2811" unicode="&#xfb67;"/><glyph arabic-form="medial" d="M2431 1785q1-47-81-100-62-35-125-70-102-63-237-131-10 0-24 13t-14 28q0 49 129 122 246 140 295 174h57v-36zM2482 1348q-27-66-132-103-124-43-157-77h-47q3 16 3 29 0 38-27.5 66.5t-27.5 41.5q0 49 75.5 134.5t128.5 85.5q26 0 59.5-32.5t33.5-49.5q0-8-52-85 8-2 85-5 28-1 58-5zM1817 1670q-439-277-457-277h-54v55q-1 26 134 105 77 44 155 87 68 41 208 111l14-13v-68zM2483 256q0-79-54-184-18 0-36 24 2 142-37 451-11 87-46 307-32 194-32 205 0 25 54 158 40 0 45-34 29-202 70-569 36-330 36-358zM1888 972q4-11 4-26 0-37-22.5-71.5t-52.5-34.5q-57 0-112 52-3 33 24.5 77t56.5 44q36 0 102-41zM1090 1621q0-46-230-182-182-108-277-149-8 5-16.5 10t-8.5 21q0 64 89 116 69 34 139 70 102 63 279 162 14-12 25-12v-36zM2134 333q0-50-45-177-23-68-283-122-213-44-342-44-184 0-266 61-67 51-102 180-36 146-72 291-41-120-81-239-58-151-141-208-90-61-350-129-102-27-126-27h-64v37q21 22 33 30 70 17 243 94 235 107 235 171 0 7-55 193-9 30-107 153-112 140-161 140-10 0-25.5-5t-30.5-5q-86 0-135 74-39 58-39 126 0 107 52 107 61 0 232-144 156-131 172-166 28-39 72-113 45-91 83-284 106 61 122 467 13 65 36 197 6 1 22 12 23 0 45-34 10-79 36-215 28-97 77-367 24-142 81-184 67-50 271-50 169 0 351 44 108 25 181 75-8 33-37 97-6-4-63-54-44-39-59-39-52 0-103 42-55 45-55 101 0 44 59 160 66 127 109 127 45 0 120-94 110-139 110-279zM2329 1355q-5 2-32 27-21 20-36 20h-33q1-45 35-47h66zM1940 463q3 15-21 46-21 26-36 33-35-32-35-56 0-22 14-35 3 0 15.5-5.5t26.5-5.5q13 0 36 23z" glyph-name="uniFB69" horiz-adv-x="2490" unicode="&#xfb69;"/><glyph arabic-form="isolated" d="M7285 1546q0-82-237-180-90-72-230-131-14 15-14 31 0 75 85 118 108 60 349 192h34q13-13 13-30zM7254 969q2-42-27.5-81.5t-64.5-39.5q-11 0-43.5 20.5t-42.5 20.5q-14 0-57-41t-56-41q-29 0-73.5 31t-44.5 56q0 34 35 67 31 30 52 30 41 0 103-41 17 13 54 58 29 34 43 34 21 0 122-73zM6624 1602q0-82-278-208-90-71-230-130-14 15-14 30 0 76 85 119 128 74 390 219h34q13-13 13-30zM6654 1070q0-21-24-59-27-44-53-44-25 0-127 73-2 33 27 77.5t60 44.5q35 0 76-33.5t41-58.5zM7204 217q0-64-63-206-71-24-137-24-48 0-111 24-73 30-95 71-17 43-80 130-59-107-246-173-150-52-276-52-149 0-149 97 0 49 33 118 11 0 77-39 21-12 90-12 99 0 244 45 191 60 191 149 0 8-32 107-36 112-47 163-13 57-13 109 0 13 33 112 25 0 45-43 20-46 68-247 44-184 93-268 72-127 191-127 56 0 83 16 2 44-5 58-58 119-58 126 0 62 55 117 34-14 53-54 56-113 56-197zM3839 1747q0-82-279-208-89-71-229-130-15 14-15 30 0 75 85 119 129 74 390 219h35q13-13 13-30zM3798 1291q0-41-52-107-48-64-75-70-32-6-111-36-73-28-85-28-32 0-51 44-15 32-15 59 0 67 65 133 18-10 16-42-2-48-2-51 4 0 8.5-4.5t19.5-4.5q35 0 79 142h37q9-29 38-91 13 8 32 27 3 59 37 126 30 0 44-23 15-77 15-74zM5897 380q0-30-23-105-25-82-46-92-8-6-26-21-428-84-520-84l-1315-107-809 15q-33 0-92-119-75-151-154-222-131-120-338-120-197 0-270 65 0 48 40 48 13 0 66.5-10.5t66.5-10.5q58 0 106 13 140 36 244 112 49 36 121 121 82 99 82 143 0 13-39 51-49 48-61 64-3 13-3 44 0 46 34 96-3 0 36-14 72-90 240-115 86-13 310-13l629 15 979 97q12 0 132 20 142 22 184 28 67 4 133 9 89 7 150 32 0 6-4 16-78 62-138 79-38 11-125 11-13 0-520.5-56.5t-519.5-56.5h-316q-10 0-78-10.5t-81-10.5-159 5.5-158 5.5q-39 0-168 34-137 36-170 59-1 24 26 108 52 155 172 255 85 73 244 195 77 48 213 109 128 59 150 58h41q13-13 13-35 0-58-52-104-19-15-66-28-63-17-69-20-31-21-92-55-197-75-426-298-6-18-21-58 24-31 200-56 145-21 230-21l649 21 974 112q119 0 231-37 163-54 163-162zM3152 1163q0-14-5.5-25.5t-5.5-14.5q-3 0-14-5.5t-25-5.5q-12 0-47 20.5t-46 20.5q-10 0-83-66-87-79-123-105-41-27-117-57-72-28-92-27h-54v37q22 17 174 113 103 64 183 151-16 31-92 78-2 40 3 107 9 35 67 94 62 64 99 64 86 0 86-144 0-31-4-70l-4-34q100-108 100-131zM1658 1434q0-52-251-197-147-79-294-159-119-70-361-201-15 11-25 11v43q0-6 13 45 194 123 606 357 13 6 137 79 97 58 110 58h54q0-4 5.5-12.5t5.5-23.5zM2579 257q0-23-21-103-27-96-55-146-201-350-523-350 36 0-299 21l-23 25q21 42 56 47 11 0 23-5.5t24-5.5q10 0 45 8.5t51 8.5q204 0 405 149 192 143 207 286-23-23-77-60-6-3-48-3-63 0-101 55-32 48-32 114 0 53 35 145 50 126 123 126 81 0 152-136 58-112 58-176zM1258 497q0-20-23-59-27-43-54-43-25 0-127 73-1 33 27 76 30 46 60 46 35 0 76-33.5t41-59.5zM1996 283q0-101-56-172-111-141-392-218-220-60-433-60-280 0-451 53-275 86-387 319v46h34q11 0 48-36 47-46 58-54 129-93 275-132 162-43 418-43h128q60 0 248 43 167 39 196 50 36 16 113 61 109 63 109 91 0 13-61.5 113t-61.5 112q0 28 20 69 21 44 41 44 19 0 70-46 28-26 57-117 27-83 27-123zM2967 1407h-37l-33-34q29-30 68-46 1 2 1.5 3.5t.5 76.5zM2416 328q-18 52-68 78-45-46-45-67 0-47 56-47 40 0 57 36z" glyph-name="uniFB6A" horiz-adv-x="7209" unicode="&#xfb6a;"/><glyph arabic-form="initial" d="M2084 1352q0-57-203-176-167-93-335-187-5 5-17.5 12t-17.5 12q-3 50 24 77 19 18 193 116 62 34 308 182h35q13-13 13-36zM2176 237q0-8-9-54t-9-69q3-98-172.5-271.5t-275.5-173.5q-315 0-423 53v37q10 1 219 1 11 0 48.5 13.5t53.5 14.5q129 4 280.5 128.5t188.5 251.5v13q-80-62-116-62-123 0-123 164 0 50 40 142 49 113 109 113 65 0 132-132 57-114 57-169zM1234 303q0-104-43-183-41 0-46 44-85 731-85 707 0 24 23 147 41 0 55-23 12-38 31-123 65-468 65-569zM549 754q0-33-32.5-68t-60.5-35q-39 0-75.5 37t-36.5 71q0 19 19 54 24 43 57 43 21 0 75-42t54-60zM1347-81q0-43-44-63-60-21-119-41-94-34-148-73h-56q25 77 25 106 0 8-13 25.5t-13 30.5q0 39 56 108 62 76 113 76 19 0 52.5-24.5t33.5-42.5q0-19-41-80 18-10 141 4 13-2 13-26zM876 267q0-83-9-123-12-47-57-125-27-17-69-46-122-99-346-99-116 0-202 85-85 82-85 190 0 60 96 233 2 5 60 64 39 0 39-36 0-4-15-43-51-87-52-92-5-11-5-59 0-179 225-179 116 0 198 33 41 16 127 87 13 36 13 33 0 40-34 126-11 27-59 115-40 73-40 87 0-8 33 91h36q30-25 70-73 76-167 76-269zM1419-418q0-50-64-84-82-43-221-96-131-50-152-50h-52q-13 1-13 25 0 10 27.5 49.5t36.5 43.5q129 48 391 146h35q0-3 6-11.5t6-22.5zM2013 307q-29 57-59 57-23-23-23-48 36-36 58-33zM1143-49l-37 18-5-14 36-18z" glyph-name="uniFB6C" horiz-adv-x="2449" unicode="&#xfb6c;"/><glyph arabic-form="medial" d="M3371 1455q0-46-32-64-21-11-299-167-181-102-197-102h-52q-13 2-13 26 0 60 136 135 82 38 163 76 83 45 248 131h33q13-13 13-35zM3371 906q0-37-18-83-25-60-64-60-9 0-46 26t-50 26-54-30.5-54-30.5q-27 0-59.5 26t-32.5 45q0 34 39 65 34 28 48 28 11 0 43-10.5t44-10.5q18 0 52 35.5t45 35.5q7 0 107-62zM2645 1173q0-4-34-71-4 1-124 61-36-41-100-109-43-39-122-87-95-57-126-80h-55q-13 13-13 31 0 20 148 135 155 118 170 165-34 30-68 59.5t-34 49.5q0 55 53 122 59 72 120 72 83 0 83-113 0-26-5-70-5-38-4-45 14-21 70-57 41-28 41-63zM1907 1537q0-20-22-67h-43q-6 0-83 51-214-201-421-255-5 5-17 11.5t-17 11.5q0-2 14 32 160 94 334 228v26q-93 56-93 90 0 53 61 136 65 89 124 89 68 0 68-127 0-23-3-66-2-36-2-46 25-35 71-65 29-19 29-49zM1917 1187q0-39-36.5-82.5t-70.5-43.5q-12 0-14.5 5t-15.5 5-50-22q-45-30-62-36-10-4-37-4-72 0-72 98 0 28 36 102 5 3 32 15 11-15 21-45.5t20-46.5q28 19 49 75 18 48 32 48 27 0 54-72h26q10 46 40 133 5 0 24-5.5t24-5.5v-118zM3402 247q0-167-94-227-69-44-213-44-105 0-171 33-9 5-48 35-29 23-47 23-11 0-93-28-93-33-126-40-149-34-303-34-233 0-305 55-16 12-60 65-35 44-50 44-8 0-68-45-66-50-115-65-136-43-237-43-54 0-109 20-70 26-70 71 0 51 54 123 3 0 57-39 16-12 73-12 92 0 208 31 172 45 172 128 0 8-36 184t-36 190q0 53 45 143l18-13q30-111 103-452 21-100 108-168 35-28 109-48 59-15 88-15 13 0 105 5t104 5q26 0 139.5 28.5t132.5 39.5q-1 13-45.5 39t-62.5 26q-15 0-27-5t-15-5l-24 25q19 35 52 92 12 18 92 52.5t111 34.5q56 0 140-42 96-50 96-106 0-46-51-114v-27q76-38 138-38 36 0 96 18 64 19 73 37-10 32-58 117-44 77-44 89 0 25 54 107 58-26 99-98.5t41-151.5zM576 1516q0-69-47-136-54-73-126-73-93 0-93 91 0 54 47 140 53 96 107 96 112 0 112-118zM566 272q0-129-54-163-9 0-35 34-2 68-17 164l-130 815q0 46 44 132h37q21-73 47-223 31-180 43-231 2-37 8-111.5t33-249.5q24-156 24-167zM1201 292q0-22-14-86-16-74-32-105-201-402-517-402-65 0-172 30-110 30-155 62 20 31 35 31 12 0 88-10.5t87-10.5q181 0 361 141 162 127 227 283l-16 17q-87-62-107-62-54 0-96 53-37 47-37 91 0 37 39 140 50 126 100 126 74 0 148-137 61-113 61-161zM2460 1349q-11 13-11 38h-39v-38h50zM1732 1697v37q-2 1-58 1 0-18 21-38h37zM494 1464q-23 47-55 47-47 0-46-47v-34h68zM1026 356q-18 56-46 70-24-25-24-48l23-22h47z" glyph-name="uniFB6D" horiz-adv-x="3389" unicode="&#xfb6d;"/><glyph arabic-form="isolated" d="M2775 1318q1-49-166-118-144-60-176-60-21 0-56 36 13 28 76 63 81 45 87 50-30 36-71 36-13 0-54-27-45-29-66-34-13 1-13 25 0 27 67 86 73 63 122 63 94 0 250-85v-35zM3093 833q0-39-41-69-32-23-51-23-33 0-69 37-33 35-33 55 0 17 37.5 55t54.5 38q34 0 69-34 33-32 33-59zM1763 1504q0-56-27-74-96-61-263-152-207-112-267-148h-35q-13 2-13 26 0 69 54 102 91 58 250 140 198 100 253 131h36q12-1 12-25zM3350-195q0-58-220-158l-256-102h-36v64q0 45 228 121 107 36 236 100h35q13-2 13-25zM3237 245q0-84-73-217-172-55-214-55-61 0-180.5 46.5t-121.5 46.5q-11 0-79-26-76-28-104-33-211-43-395-43-140 0-211 13-17 2-66 21-44 16-56 16-11 0-41.5-25t-45.5-25q-43 0-160 23-27 5-94 38-62 30-74 30-11 0-43-36-40-44-51-52-64-44-126-44-77 0-157 55-31 21-56 66-22 42-43 83-71-93-296-93-33 0-95 24-75 28-75 58 0 123 386 386 3 11 4.5 88t46.5 120q68-168 92-376 17-139 84-196 17-13 68-37 54-26 72-26 81 0 143 86 46 78 93 158 51 84 107 84 8 0 99-84 102-95 163.5-128t181.5-57q93-18 130-18h158q13 0 39 17 129 13 136 14 97 14 147 48-17 44-47 45h-72l-24 25q32 76 84 122 38 36 95 43 113 14 138 14 67 0 131-39 74-47 74-114 0-30-51-107 12-10 60-28.5t68-18.5q58 0 131 23 7 5 28 24-16 46-68 160-45 98-45 111 0 36 44 101h35q126-143 126-311zM1005 1575q0-58-43-86-104-66-547-287-11 11-34 11v44q0 46 260 182 228 120 350 162 14-2 14-26zM903 961q0-26-42-63-38-34-56-34-11 0-44.5 15.5t-47.5 15.5q-13 0-54-36t-54-36q-46 0-101 53-3 34 25.5 77.5t61.5 43.5q12 0 42.5-15t43.5-15 51.5 41 51.5 41q18 0 69-34 54-35 54-54zM1515 159q-17 54-63 101-28-11-48-58 45-45 68-43h43zM820 242q-21 106-21 109h-36q-11-7-114-59-44-21-95-80 97-24 123-24 35 0 143 54z" glyph-name="uniFB6E" horiz-adv-x="3242" unicode="&#xfb6e;"/><glyph arabic-form="final" d="M1986 1633q3-9 3-21 0-47-35-115-33-63-71-95-40-33-117-40l-110-8q-16-4-46-29-42-35-49-39-14 2-14 26 0 13 30 70t46 72q27 10 80 38 7 5 76 110 54 83 112 83 13 0 95-52zM1383 1544q-18-22-72-39l-64-18q-367-150-401-150-14 0-24.5 5.5t-20.5 5.5q0 4-5.5 25t-5.5 34q60 48 177 90 296 106 330 105h75q0-4 5.5-25t5.5-33zM1885 237q0-42-23-123-26-86-46-97l-146 1104q-9 74 33 154 42 0 56-45 5-119 36-344 34-258 41-342 2-20 26-160 23-133 23-147zM1261 1219q0-97-54-134-37-27-135-49-15-3-57-26-38-21-51-21-39 0-66 24.5t-27 52.5q0 19 25 74 28 63 52 74 23-12 26-38 0-23-1-47 7-7 21-7 30 0 54 60 27 69 32 72h35q0-25 20-82 41 1 47 58 6 67 43 86 36-29 36-97zM1547 216q0-51-27-133-35-107-86-107-92 0-191 43-1 1-80 79-19-34-61-91-78-72-174-72-80 0-119 55-33 69-66 139-25-32-108.5-62t-147.5-30q-55 0-168 43v42l27 55q49 102 185 183 173 103 205 136 16 16 35 79 15 48 56 55 14-13 14-342 9-55 18-109 26-81 94-81 60 0 113 38 62 44 62 111 0 13-31 189.5t-31 188.5q0 44 45 138 40-54 59-143 13-79 25-158l18-138q17-85 66-132 44-42 100-43h59l18 17q-37 115-82 297-42 172-42 193 0 52 57 128 19-68 58-198 100-296 100-370zM830-224q0-56-33-74-78-39-474-197-25 24-25 41 0 80 280 166 80 45 239 100 13-14 13-36zM1873 1532l-10 14-68-44 10-15zM749 265v77l-15 12q-162-80-231-139 50-25 66-25 34 0 103.5 28.5t76.5 46.5z" glyph-name="uniFB6F" horiz-adv-x="1930" unicode="&#xfb6f;"/><glyph arabic-form="initial" d="M1342 1747q0-59-263-201-207-112-316-152-15 15-15 46 0 47 15 56 25 15 521 277h45q13-2 13-26zM1228 1117q-1-23-27-69-28-49-30-69-5-80-17-225-17-131-51-247-7-20-35-84-23-52-23-67 0-11 29-74 32-70 38-100 4-17 4-57 0-62 1-59-4-26-32-50-19-16-157-38-163-27-231-27-154 0-154 107 0 12 11 39t11 37q32 3 65-8 37-11 56-11 48 0 138 93 88 92 88 132 0 49-185 306-194 267-260 267-9 0-36.5-15.5t-40.5-15.5q-61 0-113 64-51 62-51 126 0 138 71 138 20 0 122-70 170-118 325-318 78-99 237-350 8 0 20 19 57 127 57 331 0 87-21 318-2 31 37 102 44 79 86 90l6-126q8-81 62-89zM1003 157q0 36-34 70-39-26-66-80 48 10 100 10z" glyph-name="uniFB70" horiz-adv-x="1235" unicode="&#xfb70;"/><glyph arabic-form="medial" d="M4527 1635q0-20-17-43t-34-23q-12 0-46 15t-47 15q-9 0-77-67-79-78-119-103-36-23-129-55-88-31-110-31-32 0-45 14 8 32 92 85 67 38 135 77 54 32 141 117-6 13-38 37-39 28-51 42-3 12-3 43 0 41 45 116 55 89 117 89 15 0 30-6 52-35 52-122 0-19-3-50-3-36-3-47 14-23 67-51 43-23 43-52zM4568 1174q0-26-33-61.5t-54-35.5q-11 0-48 15.5t-50 15.5q-12 0-50.5-36t-51.5-36q-36 0-76 40-36 35-36 52 0 22 36 69 34 44 46 44 9 0 43.5-26t47.5-26q14 0 60 41t58 41q19 0 63.5-42t44.5-55zM4004 1060q1-38-115-88-55-27-111-54-79-36-116-36-31 0-76 23v36q25 17 94 36 55 16 90 54-22 26-57 26-13 0-62-27-53-30-73-35-13 2-13 26 0 37 71.5 92.5t117.5 55.5q53 0 250-74v-35zM3145 1338q0-12-5.5-27.5t-5.5-25.5q-2-1-2-3-9-11-28-11-13 0-64 36t-64 36q-6 0-67-62-83-83-197-160-15-10-72.5-27t-74.5-16h-64v48q9 6 188 113 109 65 180 141-21 29-68 68-25 22-25 59 0 67 54 138 58 77 126 77 76 0 76-151 0-51-8-89 4-9 66-64 55-50 55-80zM4793 294q0-43-52-79-44-29-76-29-96 0-271 20l-829-204h-782q-28 0-66-81-42-89-71-102-11 51 28 188-27 10-80 40-24 33-79 88-15-19-58-58-39-26-131-49-95-24-136-49-17-11-54-80-41-78-61-100-161-176-242-216-61-31-214-31-142 0-262 23-27 10-84 31v37q29 0 98 .5t78 .5q405 0 600 320-142 44-160 53-85 44-85 134 0 52 56 154 65 117 128 117 45 0 116-116 43-76 86-151 146 0 220 43 14 8 71 63 51 48 65 48 4 0 71.5-72t153.5-72q54 0 275 172 107 87 215 173 63 24 134 24 53 0 116-30 74-35 74-82 0-30-44-126-46-102-78-135 9-5 66-5 157 0 497 100 0 8-18 19-164 44-203 44-37 0-103-18-7 6-25 20v23q0 25 55 83 46 48 148 78 74 21 149 41 145 59 213 103 41 33 124 92 30 31 60 61 64 60 96 60 49 0 83-96 24-70 24-103 0-63-44-149-32 14-54 89-25 83-50 106-116-96-343-273 11-21 68-32 170-36 337-62 74-1 237-13 13-13 13-35zM1394 1528q0-53-260-204-222-130-319-165-25 25-25 41 0 47 33 67 170 99 514 301h44q13-13 13-40zM902 1660q-13-104-184-184-151-71-286-71-12 0-83 15t-81 15q-11 0-118-102-15 15-15 36 0 45 52 115 55 74 101 74 13 0 95-20.5t94-20.5q68 0 224 68 111 48 154 75h47zM1517 212q0-57-27-137-35-103-85-103-13 0-138.5 25t-138.5 25q-12 0-98-23-102-29-132-35-59-13-185-13-101 0-168.5 67t-79.5 173q-11 133-37 399-14 110-53 359-35 220-35 231 0 47 54 101 19 0 33-23 48-168 89-595 8-113 15-226 13-142 46-234 8-21 47-49.5t70-36.5q10-2 86-2 118 0 150 28 15 72 47 234 17 19 45 72 1 3 4 102 2 67 24 101 31 16 52 16 31 0 137-102l144-106q106-82 120-145.5t14-102.5zM4342 1774q0 6-5.5 25t-5.5 24h-38v-38q3 0 17-5.5t32-5.5zM2960 1507v48l-23 24h-35q-23-24-23-38 34-34 47-34h34zM3452 337q-137 33-133 33-65 0-153-73-72-64-144-129h45q34-3 269 72 60 20 116 97zM2018 156q-37 77-66 91-35-14-35-58 33-33 57-33h44zM1434 136v47q-69 87-150 136-23-100-23-131 41-23 173-52zM1179 263q0 97-51 97-25 0-58.5-35t-33.5-67q0-61 87-61 56 0 56 66z" glyph-name="uniFB71" horiz-adv-x="4803" unicode="&#xfb71;"/><glyph arabic-form="final" d="M2850 184q0 9-33-152-35-4-47 33-19 62-29 174-12 138-18 175-119 663-119 697 0 88 43 147h37zM3022-206q0-16-11-42-12-29-25-35-58-29-173-68-137-47-188-68v55q0 9 20 30t20 37q0 13-20.5 38.5t-20.5 38.5q0 18 43 80.5t72 83.5q20 16 59 16 38 0 67-34 26-28 26-48 0-25-52-76 47-1 130-5 26 0 53-3zM3146-395q0-29-147-95-112-49-194-76-64-29-189-77 0 3-6 8.5t-6 20.5q0 49 43 77 49 31 238 111 187 78 206 78h55v-47zM2193 1482q-8-31-17-62-14-43-39-58-121-69-338-168-280-126-355-163-190-95-358-174-174-82-287-143-2-2-204-128-127-80-199-94-14 13-14 35 0 60 162 162 89 51 178 101 21 17 62 45 678 341 1385 660 15-13 24-13zM1631 870q0-41-25-88-30-59-80-83-32-5-92-26-100-59-125-59-77 0-77 97 0 12 11 53t11 63q2 0 20.5 6t36.5 6q21-38 3-76 16-16 31-16 1 0 47 29 7 46 25 102 5 5 17.5 11t18.5 12q10-31 42-92h27q20 20 23 81 4 50 52 72 34-52 34-92zM1580 404q0-23-30-63-32-44-57-44-32 0-64.5 32.5t-32.5 59.5q0 21 23 59 28 44 54 44 19 0 63-34t44-54zM2481 292q0-310-528-450-327-87-687-87h-274q-13 0-46 7-38 8-48 9-427 48-584 241-69 85-126 219 14 15 30 15 9 0 107-81 107-88 156-112 298-145 721-145h136q166 0 451 43 54 18 154 45 202 39 356 133 100 59 100 86 0 13-61.5 117.5t-61.5 118.5q0 1 33 101h33q50 1 100-125 39-102 39-135z" glyph-name="uniFB73" horiz-adv-x="2842" unicode="&#xfb73;"/><glyph arabic-form="initial" d="M1991 1511q0-107-115-183-95-62-177-62-10 0-48 15t-49 15q-12 0-45-39-39-45-53-53-25 25-25 35 0 56 65 116 57 54 89 54 11 0 26-5.5t25-5.5q19 0 89.5 102.5t141.5 102.5q35 0 57-33 19-28 19-59zM1356 1476q0-26-23-44-24-7-306-103-189-63-208-63-21 0-45 22v48q64 35 218 99 245 86 313 86 29 0 51-45zM1899 242q0-147-44-194-10 0-35 33-14 213-37 360-99 631-99 614 0 85 56 159 44-30 49-188 4-15 14-41 25-163 51-297 45-228 45-446zM1264 1214q0-94-36-131-41-43-134-82-79-33-106-33-26 0-71 43-7 124 77 183 6-27 31-82 24 14 43 66.5t38 66.5q18-18 43-93 36 12 45 66 10 58 46 78 24-25 24-82zM763 1096q0-65-216-172-139-68-231-99l-16 10t-8 21q0 62 106 116l142 60q75 44 209 100 14-14 14-36zM1572 216q0-79-24-139-33-81-99-81-126 0-203 44-14 25-47 58-121-163-242-163-65 0-112 56-29 34-57 102-23 56-31 56-10 0-28-19-21-24-31-28-78-45-176-45-39 0-101 16-67 18-88 39 23 97 101 171 49 47 159 114 114 70 156 108 6 53 47 135 26 0 34-12 14-145 48-432 3-23 49-57 39-28 67-38l-2-1q-1-1 2-1.5t15-.5q51 0 105 58 48 52 48 86 0 12-30.5 230t-30.5 230q0 116 58 143 46-147 71-372 17-161 32-199 39-104 156-104 39 0 46 8 5 4 5 28 0 13-61.5 266t-61.5 266q0 40 46 107 52-51 62-85 9-65 38-205 27-87 53.5-174.5t26.5-164.5zM1898 1468l-46 12q-49-46-64-80 33 11 67 20 41 18 43 48zM752 265v99q-179-74-224-140 16 0 45.5-6.5t40.5-6.5q25 0 73 18 51 18 65 36z" glyph-name="uniFB74" horiz-adv-x="1892" unicode="&#xfb74;"/><glyph arabic-form="medial" d="M3413 1765q0-41-213-172-126-73-252-145h-34q-8 4-15.5 9.5t-7.5 21.5q0 49 25 66 85 59 228 138 196 111 233 133 36-18 36-51zM2748 1739q0-55-65-101-62-36-122-71-88-55-268-160h-35q-12 13-12 36 0 61 53 92 273 160 434 240 15-15 15-36zM2686 864q0-23-34.5-62.5t-57.5-39.5q-28 0-70.5 34.5t-42.5 62.5q44 108 87 108 25 0 74-49 44-44 44-54zM1980 1463q0-77-57-77-11 0-51 20.5t-51 20.5q-12 0-57-49-57-62-83-80-59-43-154-86-79-36-157-72-23 22-34 22-1 18 2 27 45 40 186 130 110 71 169 145-22 17-68 59-24 24-24 68 0 45 54 121 59 84 109 84 74 0 91-108 2-59 4-120l74-56q47-35 47-49zM1867 936q0-33-32.5-68t-54.5-35q-23 0-107 53 2 46 20 87 23 55 62 55t79-43q33-36 33-49zM3382 291q-7-307-291-307-118 0-208 33-11 4-55 44-41 35-55 35-7 0-71-29-69-32-113-40-224-43-292-43h-133q-137 0-261 56t-118 56q-8 0-121-40-125-45-170-56-42-9-55-54-47-162-171-276-75-68-131-92-102-44-176-44-77 0-189 24-118 26-185 61l13 26q31 7 110-1 97-8 92-8 145 0 310 93 185 105 233 248-10 6-28 2-26-6-33-6-78 0-131.5 44t-53.5 110q0 72 47 164 53 102 112 102 48 0 108-88 45-69 89-138 142-13 224 59-3 14-3 32 0 112 79 252 86 149 173 149 21 0 54-13 37-15 45-31 45-96 45-166 0-40-30-119-30-82-62-117 24-42 88-53 73-13 240-13 73 0 184 20 130 24 184 58-28 35-73 39-50 4-70 21 18 43 73 113 37 28 107 49 59 17 85 17 63 0 152-36 115-47 115-117 0-41-72-129 11-35 112-35 185 0 185 72 0 12-21 123-26 135-34 189-34 218-82 460-2 14-26 62-22 44-22 62 0 42 30.5 117t56.5 103q31-28 31.5-59.5t1.5-62.5q3-18 15.5-34t46.5-34q54-27 54-28-4-11-72-162zM1160 1416q2-47-12-91-3 0-10.5-5t-22.5-5q-13 0-51.5 20.5t-51.5 20.5-64-59q-66-76-86-94-74-66-176-113l-99 13 154 132q143 127 143 162 0 9-41 48.5t-41 63.5q0 59 43 126 52 79 121 79 92 0 92-144 0-12-1-31v-24q0-15 3-18 17-23 100-81zM802 1407q0-36-23-61-16 0-39 10t-35 10q-10 0-49-48-45-55-71-72-47-30-124-63-74-32-94-32-7 0-56 24 20 27 137 105 113 74 149 131-11 21-57 57-35 26-35 61 0 45 44 113 51 82 110 82 17 0 44.5-20t32.5-34q11-26 9-77-4-64-2-78 1-4 55-70 4-12 4-38zM863 239q0-186-154-364t-306-178h-107q-49 0-158 25-122 28-134 52l12 18q22 5 75 2 75-5 66-5 137 0 283 71 166 81 273 224 22 23 43 47 25 30 25 62 0 29-9 38-53 61-106 120-28 32-28 68 0 15 23 86 3 0 11 5.5t23 5.5q23 0 84-63 58-61 70-94 14-40 14-120zM1773 1640l-46 12-7-23q7-12 27-17 17-4 17-16zM985 1530q0 28-23 50h-35q-10-20 22-50h36zM1969 398q0 15-23 54-24 44-43 44-30 0-80-64-48-60-48-80 0-17 23-44.5t39-27.5 71 41q61 45 61 77zM668 1540v39l-48 11q0-27 48-50zM1293 148q-45 71-68 71-5-5-11.5-18t-11.5-18q5-3 28-22 16-14 29-13h34z" glyph-name="uniFB75" horiz-adv-x="3393" unicode="&#xfb75;"/><glyph arabic-form="isolated" d="M3931 1688q0-65-100-120l-138-68q-60-43-185-114-164-92-206-118h-34q-13 13-13 40 0 66 102 126 78 41 156 81 123 79 370 203h35q13-14 13-30zM3879 1165q0-44-31-107-34-67-65-75-34-7-101-26-14-6-65-35-42-23-55-23-41 0-64 34-18 25-18 52 0 77 57 118 24-23 24-63 3 0 7.5-4t19.5-4q39 0 59 62 27 77 41 91h36q21-37 2-76 16-15 35-15 26 5 31 59 8 70 29 104 8 0 22-4 36-39 36-88zM3972 331q0-176-144-371-159-218-353-218-100 0-328 34-33 15-95 40v48q3 0 21.5 5.5t33.5 5.5q12 0 63-15t64-15q175 0 280 43 98 40 233 183 132 141 132 199 0 34-60 89-87 78-90 81-14 17-14 54 0 20 13 55 18 42 39 42 16 0 66-38 47-37 72-66 67-76 67-156zM3030-330q0-61-86-99-353-156-371-156h-42q-13 14-13 41 0 62 222 157l254 98 22-14q14-10 14-27zM1309 1190q0-55-46-55-13 0-38 10t-39 10q-13 0-137-123t-175-122h-64q0 3-6 25t-6 34q53 32 143 103 123 97 123 134 0 13-9 21-83 51-83 107 0 60 46 126 51 74 118 74 57 0 70-98 2-61 3-121 5-6 64-60 36-34 36-65zM3470 372q0-59-57-104-30-25-112-25-51 0-153 21l-697-174q-32 6-110 39-73 32-85 32-9 0-56-33-52-37-75-45-263-95-550-95h-162q-13 0-105.5 25.5t-105.5 25.5q-9 0-41.5-30.5t-65.5-30.5q-13 0-97.5 20t-97.5 20l-67-68q-74-76-131-102-64-30-173-48-94-13-187-27l-55 12q0 27 11 34 22 11 263 100 152 54 244 147-16 136 6 185 10 22 122 151 0 1 11 9 7 7 23 7 14 0 65-51l71-71q181-155 586-155 42 0 209 33 204 40 274 82 22 13 43 59 35 73 39 81h47q18-44 4-115 59-48 131-48 79 0 206 41 92 29 184 59-6 31-74 63t-116 32q-28 0-188-40 0 3-6 14t-6 26q0 45 105 128 97 76 125 76 11 0 106-51 111-60 162-80 261-99 454-99 37 0 70 4 0-3 6-11.5t6-22.5zM951 1226q0-32-23-68-8 0-61-6-47-70-137-133-100-69-173-69-20 0-65 23v36q61 32 123 65 85 49 142 108v27q-85 45-85 81 0 5 1 16t1 18q0 56 37 125 43 85 102 85 79 0 104-148-7-32-4-92 2-6 22-32 16-21 16-36zM2385-212q0-28-43-64-40-33-59-33-14 0-42 15.5t-40 15.5q-13 0-54-41t-54-41q-30 0-117 62-6 31 27 81.5t64 50.5q12 0 49-21 44-25 57-30 62 92 89 92 21 0 69-29 54-33 54-58zM1135 1366q-10 0-12 23h-38q7-16 25-23 17-7 25 0zM838 1330v36l-35 35-24-24v-37q2 0 21-5t38-5zM1002 179q-38 68-66 95-26-25-26-41 0-19 27-36.5t65-17.5z" glyph-name="uniFB76" horiz-adv-x="4141" unicode="&#xfb76;"/><glyph arabic-form="initial" d="M2498 1312q1-51-504-321h-46q-12 2-12 26 0 13 11.5 38.5t12.5 31.5q170 95 514 273 14-12 24-12v-36zM1957 1503q0-92-95-172-89-74-176-74-12 0-44 10.5t-43 10.5q-14 0-54-34-48-39-65-48-15 14-15 30 0 31 35 81 28 38 41 48 18 13 66.5 23.5t64.5 23.5q38 53 77 107 54 76 121 76 87 0 87-82zM1251 1390q0-47-138-79-30-7-144-39-90-24-104-24h-44q0 3-5 24.5t-5 34.5q16 15 54 38 265 97 345 97 41 0 41-52zM1803 243q0-10-2-53.5t-2-63.5q0 1-29-86-5 0-18.5-5.5t-18.5-5.5l-124 1008q0 39 43 148h37q29-108 74-498 40-360 40-444zM1251 1170q0-68-57-128.5t-143-74.5q-15-3-59-26-41-22-59-22-72 0-72 82 0 18 27 75t41 68q25-50 23-84-2-7 22-7 26 0 53 61 29 66 46 71 5-9 23-57 11-34 26-34 37 0 46 64 10 73 35 88h36q0-10 6-36t6-40zM2499 161q0-167-176-354t-336-187q-12 0-41 6-33 8-47 10-80 3-160 7-106 5-161 40 0 5-5 18t-5 18q23 23 45 23 12 0 64.5-15.5t63.5-15.5q220 0 394 103.5t272 290.5l-15 15q-67-91-123-91-66 0-103 50-36 46-36 114 0 61 47 156 53 110 112 110 83 0 153-136 57-108 57-162zM687 1026q0 1-23-55h-42q-15 0-40 23-36 32-43 38-43-42-131-110-88-47-258-136h-44q-13 14-13 31 0 14 125 105 176 124 203 146-92 85-92 108 0 75 75 148.5t137 64.5q41-42 41-114 0-18-4-61-3-35-2-52 36-32 71-63 40-36 40-73zM1476 188q0-28-35-156-10-17-31-41-18-1-73-8-48-5-61-5-17 0-86 45-66 43-89 67-12-7-37.5-45t-51.5-54q-82-54-156-54-81 0-118 50-19 25-36 93-13 51-36 51-12 0-31-15-25-19-32-23-50-23-146-23-104 0-149 32 8 115 110 204l192 134q106 74 120 151h37q6-26 6-81 0-18-1-59t-1-63q0-288 136-288 57 0 120 53 39 32 39 85 0 13-25.5 184.5t-25.5 184.5q0 21 55 159 13-12 33-34 3-57 21-165 4-71 9-143 13-120 50-188 53-95 154-95 36 0 36 31 0 11-31 107-39 119-48 153-34 119-34 191 0 14 22 66t32 66q14 0 34-33 16-80 79-310 49-183 49-224zM1863 1449q-9 0-23 13-58-19-98-79 30 0 75 26 41 25 46 40zM2325 204v47q-41 41-67 54-35-35-35-62 0-19 18.5-34.5t37.5-15.5q14 0 27.5 5.5t18.5 5.5zM501 1207v38l-47 12-12-38zM676 267v68h-54q-19 1-96-45-40-23-54-53 48-24 72-24 13 0 49.5 11.5t49.5 11.5q13 10 33 31z" glyph-name="uniFB78" horiz-adv-x="2498" unicode="&#xfb78;"/><glyph arabic-form="medial" d="M2849 1444q0-59-199-181-143-86-286-171h-34q-13 13-13 35 0 58 104 122 67 35 134 69 89 56 269 162 25-24 25-36zM2245 1266q0-54-156-139-141-77-177-77-33 0-87 35 17 30 87 59 77 33 98 55-22 36-51 36-36 0-71.5-27.5t-53.5-27.5q-13 0-29 7 6 25 24 66 29 35 83 70 52 34 72 34-9 0 216-45 45-9 45-46zM1455 1683q0-60-25-79-169-112-503-338 0 2-6.5 21.5t-6.5 33.5q0 60 104 131l164 102q112 75 127 84 74 45 123 57 14-12 23-12zM2941-254q0-32-43-62-38-26-59-26-12 0-56.5 20.5t-56.5 20.5q-13 0-56.5-30.5t-56.5-30.5q-24 0-68 33.5t-44 48.5q0 31 43 73 39 40 60 40 11 0 50-26t52-26q12 0 50.5 36t51.5 36q30 0 80-37 53-39 53-70zM2808 247q0-130-83-185.5t-244-55.5q-71 0-138.5 41t-82.5 41q-12 0-62-22-62-28-89-37-72-22-210-44-118-20-147-20h-150q-175 0-262 51-96 54-136 195-25-27-87-79-39-11-103-37-18-11-56-124-33-97-100-97-12 0-74.5 15t-73.5 15q-14 0-50-38-42-43-55-51-73-41-167-73-145-52-173-63l-56 12v37q48 23 134 65 77 39 154 77 90 47 137 102-9 27-9 57 0 91 71 174 68 80 131 80 10 0 89.5-20.5t94.5-20.5q34 0 96 37 73 44 83 90l-91 697q5 28 53 147 20 0 34-23 13-109 48-390 24-134 65-399 6-54 12-109 11-64 52-100 28-26 134-50 99-23 160-23h148q66 0 185 27 139 32 173 69-44 47-87 47-11 0-27-4.5t-39-4.5v44q0 17 33.5 61.5t60.5 62.5q53 35 136 35 78 0 149-30 92-39 92-107 0-52-62-113 19-26 87-46 51 0 116 17 84 23 84 60 0 12-41 94t-41 95q0 33 22 102h47q115-116 115-281zM842 968q0-2-34-71-122 61-130 61 9 0-144.5-127.5t-208.5-127.5h-43l-23 25q102 77 307 257-5 22-48.5 51.5t-43.5 59.5q0 70 55 148 64 90 146 82 53-46 53-116 0-17-3.5-51.5t-3.5-51.5q0-10 1-19 1-1 69-48 51-35 51-72zM647 1135l-11 68q-25 0-49-21v-37l13-12q45 0 47 2zM873 48q-30 91-68 91h-62l-13-12v-27q57-52 68-52h75z" glyph-name="uniFB79" horiz-adv-x="2806" unicode="&#xfb79;"/><glyph arabic-form="isolated" d="M1094 1541q0-61-269-247-238-163-281-177 0 3-6 11.5t-6 23.5q0 56 24 75 119 96 282 214 173 125 192 125h52q12-1 12-25zM1074 230q0-37-28-96-29-63-54-63-96 0-260 62-20-41-80-109-66-44-182-44-83 0-122 45-51 61-73 192l-28 228q-5 155-27 440-5 44-32 168-25 113-25 124 0 34 44 123 59-29 76-122 10-79 19-158 21-206 62-615 5-54 10-109 8-68 27-104 25-49 115-49 33 0 102 13 34 6 64 56 9 34 37 93 155 207 217 207 14 0 40-16 98-199 98-266zM930 257v35q-17 36-56 56l-56-56 24-26 28.5-4.5t59.5-4.5z" glyph-name="uniFB7A" horiz-adv-x="1075" unicode="&#xfb7a;"/><glyph arabic-form="final" d="M5030 1471q0-19-23-66h-35q-45 51-86 51 4 0-80-72-96-82-178-133-114-71-188-71h-33q-12 1-12 25 0 16 6 22 5 4 8 8 97 58 193 115 116 71 172 152-28 20-78 68-14 18-14 60 0 58 57 131t107 73q39 0 68-43 24-34 31-73-11-37-15-113 3-17 53-57 47-37 47-77zM5071 1000q0-35-44-69-36-28-48-28-11 0-45 15.5t-48 15.5q-12 0-58-36t-59-36q-26 0-61.5 34t-35.5 63q0 19 34 53t53 34q10 0 43.5-15t48.5-15q13 0 56.5 41t55.5 41q20 0 64-40.5t44-57.5zM3688 1495q0-36-22-89-3 0-11-6t-23-6q-12 0-55.5 26t-56.5 26q-24 0-107-74-92-81-106-87-61-29-153-58-87-27-110-27-27 0-41 13 0 30 23 44l186 96q122 66 190 140-2 3-43 61-28 41-28 70 0 62 40 120 48 70 124 70 80 0 80-126 0-25-3.5-60.5t-3.5-41.5q41-30 120-91zM3658 1098q0-150-106-172-30 1-91-16-79-48-110-48-82 0-82 82 0 55 62 123 9-26 37-82h28q28 0 48 55 11 38 22 77h36q11-26 31-72h26q15 22 30.5 67.5t31.5 66.5q37-12 37-81zM4856-253q0-82-238-168-3-1-330-150-15 12-25 12v43q-1 41 214 140 297 138 321 153h45q13-13 13-30zM5225 233q0-81-38-143-47-78-131-78-80 0-134 25.5t-61 25.5q-12 0-66-45.5t-67-45.5q-11 0-66.5 10t-66.5 10q-12 0-91.5-15.5t-92.5-15.5q-16 0-89 15.5t-85 15.5q-13 0-166.5-36t-166.5-36q-165 0-332 42-15-16-24-29-143-422-479-422-45 0-311 53 0 5-5 23t-5 24q23 22 35 22 10 0 71.5-15t76.5-15q71 0 158 23t193 102q34 25 106 107 96 107 96 157 0 5-56 73t-56 86q0 31 43 96h35q132-163 439-163 187 0 315 53 21 9 61 71 33 53 68 48 0-23-10-77t-10-64q0-29 17-32-6 1 35 1 104 0 171 53l121 121q8-17 1-88-5-45 50-45 67 0 91 49 57 119 60 123h36q0-12-4.5-44.5t-4.5-50.5q48-31 73-36 4-1 66-1 72 0 98 18 1 9 1 18 0 119-97 243-9 11-60 41-40 22-40 54 0 25 20 84 25 75 53 75 23 0 77-76 44-62 51-81 97-250 97-308zM3065 258q0-137-102.5-292t-248.5-237q-80-44-223-44-105 0-335 21l-23 23q0 19 24 34 104-3 307 16 116 27 255 113 55 34 144 131 101 110 101 157 0 5-2 9 5 8-5 17-47-71-123-71-47 0-92.5 44.5t-45.5 94.5q0 69 43 177 52 124 110 124 82 0 154-131 62-112 62-186zM2173 1328q0-64-57-94-292-138-877-416-82-39-646-335h-34q-13 13-13 31 0 70 143 152 88 43 177 85 344 182 758 373 180 80 492 228h45q12 0 12-24zM1529 381q0-39-26-70.5t-61-31.5q-26 0-73 29-55 34-55 68 0 17 39 57t58 40q32 0 75-36.5t43-55.5zM2419 299q0-303-514-430-288-72-613-72h-192q-20 0-177 28-164 30-241 48-5 3-20 13-109 7-256 136-136 119-207 250v47q23-8 68-25 21-28 71-75 166-111 389-183 217-70 376-68 33 1 107-8t83-9h138q30 0 193 18 188 18 277 35 85 16 232 80 194 86 194 154 0 10-56.5 100.5t-56.5 103.5q0-6 33 102h33q37 1 114-135 25-44 25-110zM4865 1631v36l-33 34h-34q-2-1-2-2-12-8-12-23 0-13 34-45h47zM3504 1656q-10 23-70 23 0-32 56-59 14 14 14 36zM2900 331v38q-45 42-66 42-17 0-31.5-18.5t-14.5-36.5q0-20 16-38.5t35-18.5q26 0 61 32z" glyph-name="uniFB7B" horiz-adv-x="5237" unicode="&#xfb7b;"/><glyph arabic-form="initial" d="M1704 1467q0-47-227-180-129-70-258-142h-45q-12 1-12 25 0 64 86 116l152 76q154 83 247 140h46q0-4 5.5-12t5.5-23zM1069 1462q0-60-203-190-146-89-291-178h-47v44q-1 46 63 86 56 33 112 65 113 70 319 204h35q12-14 12-31zM1745 177q0-107-132-290-136-190-250-213-111-24-114-24-173 0-394 65 26 48 51 48 13 0 64-5.5t64-5.5 18-5 17-5q13 0 36 8.5t32 8.5q114 0 268 105 171 115 228 261 4 7-5 16-38-41-77-41-133 0-133 170 0 49 30 136 38 114 93 114 88 0 154-155 50-121 50-188zM1049 243q0-17-23-75t-40-85q-18-4-75-4-58 0-66 2-38 7-128 50-22-37-69-98-34-35-84-42-84-13-98-13-61 0-110 39-52 43-58 108-23 190-88 901-2 14-16.5 58.5t-14.5 55.5q0 24 26 68 23 36 39 49 12 0 33-34 22-129 52-380 6-124 30-369 1-57 4-172 7-171 113-171h72q35 0 118 77 7 53 92 179 88 133 127 133 48 0 109-124 55-110 55-153zM1581 288q-26 52-58 68l-13-58q17-19 71-10zM915 257q0 11-27 44-29 37-50 45-42-43-44-70 13-3 47-20 26-13 39-13 23 0 35 14z" glyph-name="uniFB7C" horiz-adv-x="1755" unicode="&#xfb7c;"/><glyph arabic-form="medial" d="M5061 1389q0-18-17-42t-35-24-95 51q-50-112-198-196-138-79-257-79-12 0-22 1 24 51 74 75 81 39 174 98 130 84 130 121 0 13-33 49-40 45-44.5 56.5t-4.5 28.5q0 61 62.5 126.5t129.5 67.5q57-61 36-219l64-62q36-36 36-52zM5009 887q0-26-24-65-28-42-58-42-9 0-37.5 20.5t-43.5 20.5q-13 0-49-35.5t-48-35.5q-32 0-65 31.5t-33 64.5q0 23 26.5 60.5t45.5 37.5q10 0 39-20.5t43-20.5q13 0 56.5 36t56.5 36q29 0 61-34 30-30 30-54zM4508 1379q0-44-139-125-128-75-154-74h-74q0 5-5.5 24.5t-5.5 25.5q83 45 153 99-12 24-51 24-25 0-52-17-28-20-32-43h-37q-13 1-13 24 0 31 61 100.5t93 69.5q10 0 125-37.5t123-42.5 8-28zM3361 1338q0-19-23-66h-42q-9-1-38 25t-45 26q-12 0-76-64-81-80-136-119-92-63-172-63-38 0-61 13v36q89 50 176 100 118 75 162 143-17 25-59 67-23 24-23 56 0 56 54 125 58 75 119 75 51 0 67.5-33.5t16.5-72.5q0-26-8-67-10-53-12-67 32-32 65-63 35-36 35-51zM5091 294q0-43-23-115-25-77-54-112-99-55-245-55-82 0-124 13-20 6-69 40-44 29-58 29 7 0-180-61t-235-61q-161 0-227 33-32 16-67 72-22 39-44 79-84-84-94-91-40-32-85-32-12 0-91.5 30.5t-92.5 30.5q-16 0-103-31-98-35-145-63-22-14-84-158-27-64-109-143-156-147-383-147-33 0-297 44-45 7-77 54 7 7 24 20 44 4 123 0 96-5 89-5 358 0 584 292-14 33-63 33-12 0-40-3.5t-41-3.5q-46 0-85 46-38 45-38 91 0 44 56 145 65 116 124 116 36 0 109-99 43-64 87-127 58 8 160 33 8 4 65 41 43 29 75 29 13 0 94.5-36t94.5-36q61 0 128 119l-132 715q0 31 16 80 20 58 42 58 44-69 76-254 28-172 56-343 10-85 20-169 16-118 48-188 18-41 105-63 65-16 128-16 11 0 47.5 10t49.5 10q-14 0 192 43 11 9 28 26 0 38-78 60-21-2-64 6-1 7-1 13 0 63 109 126 94 54 141 54 71 0 133-36 77-46 77-122 0-41-41-122 27-28 103-28 162 0 195 38 3 9 3 20 0 36-48 124t-48 131q0 31 34 86 43 0 99-111 51-104 51-159zM3372 641q0-33-44-67-37-29-59-29-14 0-48 24l-54 38q0 29 20 74 25 58 62 58 33 0 81-47 42-41 42-51zM4170-249q1-54-528-250-15 15-15 41 0 56 24 67 261 122 494 209 14-12 25-12v-55zM2235 1405q0-70-44-89-199-86-594-257l-1037-453q-14 14-14 31 0 21 21 60 24 44 53 58 411 203 1557 680h45q13-14 13-30zM1548 420q4-25-25-71-31-50-61-50-16 0-64 29-54 33-54 58 0 22 30.5 64.5t51.5 42.5 122-73zM2532 294q0-111-88-211-86-96-232-155-40-27-124-66-20-6-287-68-204-47-452-47-258 0-409 21-277 38-484 155-25 15-207 257l14 58q174-168 505-260 276-78 535-78 12 0 212 10t213 10q77 0 368 96 344 114 344 211 0 11-56.5 107.5t-56.5 107.5q0 36 45 102 72-25 118-102 42-70 42-148zM4884 1528q16 33-11 60-13 0-37-24 18-36 48-36zM3196 1556h-48l-11-36q70-32 58-32 1 1 1 68zM2961 136q-7 23-55 70l-36-35q17-13 44-35h47z" glyph-name="uniFB7D" horiz-adv-x="5123" unicode="&#xfb7d;"/><glyph arabic-form="final" d="M4791 1463q0-79-259-203-26-12-140-84-87-55-140-66-14 14-14 41 0 55 26 70 158 88 480 277h34q13-13 13-35zM4197 1565q0-64-56-144-60-84-132-104-20-5-74.5-2t-78.5-4q-4-1-61-57h-38v34q0 65 75 119 65 46 102 42 109 193 191 193 34 0 56-33 16-25 16-44zM3685 1934q-10-33-37-76-16-11-459-247-15 12-25 12v33q-1 51 35 73 97 60 462 231zM3644 1570q0-88-46-159-6-9-105-58-104-49-130-49-77 0-77 93 0 51 66 123l17-13q18-20-1-54 16-15 31-15 34 0 47 59 15 66 39 73 30-9 32-36 4-37 12-46 33-1 51 64 19 71 51 79 13-26 13-61zM4064 316q0-173-69-209l-125 971q-2 8-2 17 0 31 57 117 33-30 43-86 4-61 17-215 12-49 35-143 44-227 44-452zM4730 250q0-127-88-270-94-156-242-238-26-14-140-34-119-21-186-21-63 0-192 42-1 8-12 25 12 7 34 21 29-2 58-2 181 0 342 78 200 100 323 303 0 2 3 9.5t1 10.5q-2 4-14 4-11 0-46-20.5t-46-20.5q-39 0-96.5 54t-57.5 95q0 46 54 156 61 125 116 125 81 0 141-146 48-112 48-171zM3184 981q0-27-32.5-61.5t-49.5-34.5q-18 0-102 52 0 40 18 81 23 51 58 51 24 0 65-30 43-31 43-58zM3696 265q0-113-44-186-50-85-140-85-104 0-158 51-31 29-94 143-62-110-222-163-122-41-264-41-133 0-133 91 0 36 43 122 4 0 58-38 30-22 78-22 80 0 216 38 199 56 199 146 0 11-31 160.5t-31 162.5q0 71 11 115 6 5 18.5 11.5t17.5 11.5q25-52 45-149 24-112 38-151 28-99 55-198 54-127 168-127 52 0 78 17-31 382-106 766-4 17-27 62-21 41-21 61 0 54 85 221 39-30 43-114 3-73 66-92v-25q0-42-20.5-79t-20.5-59q0-12 46.5-324.5t46.5-325.5zM3399-216q0-51-137-117-76-33-153-65-68-41-177-78-25 23-25 40 0 24 33 77 73 24 205 79 19 9 126 70 72 40 87 40 41 0 41-46zM2119 1443q0-18-22.5-54.5t-41.5-49.5q-58-20-174-68-278-139-556-277-296-153-622-355-6 0-19 5.5t-18 5.5v33q-1 79 409 309 308 173 525 267 147 71 462 208h45q12-1 12-24zM2723-226q0-24-39-60.5t-58-36.5q-20 0-82 41-110-82-128-82-33 0-73 35t-40 57q0 23 40 59 37 33 52 33 11 0 55.5-20.5t57.5-20.5q12 0 53 41t54 41q24 0 66-32t42-55zM1607 424q0-33-41-70-37-33-57-33-23 0-63 28-44 30-44 59 0 16 24 54 27 43 53 43 25 0 76.5-31t51.5-50zM2672 546q0-125-63-180-21-18-77.5-24t-76.5-23q-11-10-40-87-32-84-45-103-99-151-449-239-274-70-515-70h-187q-108 0-278 42.5t-261 93.5q-73 42-170 147-101 112-131 192v36h38q331-358 956-358h191q129 0 407 72 363 94 363 215 0 10-46 113.5t-46 116.5q0 38 33 87h46q47-64 70-81 16-11 51-11 10 0 48 4.5t61 4.5q0 3 4 7.5t4 19.5q0 13-25.5 61.5t-25.5 61.5q0 84 46 107 118-69 118-205zM4576 324v35q-44 43-69 43-23-45-23-57 34-34 57-34 22 0 35 13zM4079 1520l-11 10-56-55 11-12z" glyph-name="uniFB7F" horiz-adv-x="5234" unicode="&#xfb7f;"/><glyph arabic-form="initial" d="M3410 1497q-80-86-203-160-99-59-199-118h-34q-14 13-14 35 0 44 15 55 80 62 399 256h36v-68zM2888 1365q-29-44-155.5-110.5t-181.5-66.5q-4 0-71 33 6 37 75 62 78 28 98 64-7 15-36 15-42 0-110-61h-35q-13 13-13 30 0 64 75 112 61 41 109 41 32 0 245-53v-66zM3350 210q0-64-64-206-71-24-136-24-49 0-111 24-74 29-96 71-17 43-79 130-60-108-247-173-150-52-276-52-148 0-148 97 0 48 33 116 10 0 77-37 21-13 89-13 100 0 244 45 192 60 192 150 0 8-32 106-36 113-48 164-13 56-13 109 0 13 33 111 25 0 45-42 20-46 69-247 44-185 92-269 73-127 191-127 57 0 83 17 2 44-4 58-58 119-58 125 0 63 55 117 33-14 53-54 56-113 56-196zM1926 1421q0-65-23-100-15 4-58 19-32 12-46 12 10 0-199-154t-304-154h-43l-23 24q6 39 45 54 216 86 395 266-6 6-65 58-47 40-47 54 0 61 60.5 145.5t103.5 84.5q65 0 89-110 7-59 15-117 16-23 100-82zM3410-206q3-43-26.5-82t-64.5-39q-12 0-44.5 20.5t-42.5 20.5q-13 0-56.5-41t-56.5-41q-29 0-73.5 31t-44.5 56q0 34 35 67 31 30 52 30 41 0 103-41 17 13 55 58 28 34 42 34 21 0 122-73zM749 1653q0-63-251-228-179-117-297-176-14 12-24 12v53q-1 39 200 171 157 102 314 203h46q0-4 6-12t6-23zM2346 528q0-23-36-77-34-51-48-59-248-131-389-195-33-14-142-43-89-24-134.5-55.5t-104.5-187.5q-33-91-192-224-38-32-155-73-38-13-197-13-197 0-259 33v37q32 5 259 15 104 4 253 106 152 106 235 235v26q-141 20-175 35-72 31-72 117 0 63 54 165 59 111 110 111 44 0 121-112.5t100-112.5q40 0 97 37-52 155-52 147 0 66 63 196 67 136 124 168 62 36 141 36 50 0 116-43 54-36 108-73v-57q-4 0-14.5-6t-25.5-6q-13 0-64 25.5t-63 25.5q-60 0-158-60-104-64-104-118 0-43 71-98 66-52 103-52 13 0 187.5 87t187.5 87h43q12-1 12-24zM565 911q0-33-29-67.5t-53-34.5q-57 0-112 53 0 142 71 142 35 0 80-38 43-35 43-55zM934 312q0-197-177-296-137-77-330-77-82 0-94 3-45 10-106 48-70 42-79 75-13 45-13 170 0 71 48 172 51 106 101 125 25-24 25-40 0-10-15-49-57-80-57-177 0-85 69-133 60-41 141-41 175 0 395 130 8 46-62 211-72 168-72 166 0 42 44 106h36q84-149 106-202 40-93 40-191zM1383 239q-28 57-68 57 0-24-1-59 66 0 69 2zM1720 1533v36l-24 24q-26-25-26-38 23-22 50-22z" glyph-name="uniFB80" horiz-adv-x="3367" unicode="&#xfb80;"/><glyph arabic-form="medial" d="M751 578q0-29-16-73-21-59-54-59-18 0-133 84 0 30 22 82 25 60 49 60 15 0 60-36zM1776 297q0-52-29-111-33-67-74-67-106 0-171 23-10 4-49 28-32 20-46 20-12 0-33-28-27-33-41-40-59-32-201-74-8-46-25-130-36-130-213-203-136-57-265-57-122 0-228 61-130 74-130 200 0 79 48 177 54 107 133 165 0-3 6.5-11.5t6.5-23.5q0-13-46-118t-46-117q0-86 116-139 88-40 171-40h56q67 0 175 44 127 53 127 109 0 84-44 177-4 9-44 80-25 45-25 61 0 19 56 101 33-15 89-93 43-60 142-60 118 0 200 88 16 17 113 163 58 87 117 87 48 0 106-127 48-109 48-145zM1776-243q-30-96-142-141-94-32-189-64-73-28-217-88-15 11-25 11v68q22 32 117 70 66 24 131 48 181 69 290 120 5-5 17-12t18-12zM1642 329q-42 64-66 77l-66-68q46-46 82-46 35 0 50 37z" glyph-name="uniFB81" horiz-adv-x="1787" unicode="&#xfb81;"/><glyph arabic-form="isolated" d="M2166 1148q0-44-46-67-15 8-65 44-39 28-53 28 9 0-148-133.5t-231-133.5q-27 0-50 24v35q13 13 141 92 114 71 176 143 0 6-3 16l-72 52q-28 26-28 68 0 58 55 126.5t109 68.5q56 0 78-86 11-43-4-122 7-8 90-70 51-37 51-85zM2453 242q0-107-53-170-14-17-126-39-137-27-195-27-115 0-159 43 0 51 22 141h33q13 0 62-10t63-10q73 0 86 2 24 5 145 46 3 43-44.5 111.5t-108.5 113.5q-6 5-61 37-23 17-23 38 0 28 15 69 20 54 46 54 40 0 169-125 24-22 73-114 56-102 56-160zM671 789q0-28-27-62.5t-50-34.5q-35 0-74 23-43 26-43 59 0 36 76 112l70-42q48-31 48-55zM1756 160q0-176-174.5-354t-337.5-178q-118 0-439 42v36q22 24 55 24 13 0 62-10t61-10q191 0 371 98 202 111 311 307v37l-17 18q-96-72-132-72-48 0-91 64-37 54-37 85 0 45 46 144 54 117 107 117 101 0 168-166 47-118 47-182zM1050 226q0-100-46-157t-191-108q-133-47-213-47-138 0-227 57-112 70-112 214 0 57 47 152t90 118h47q-10-40-44-95-27-43-27-109 0-184 251-184 11 0 50 10.5t52 10.5q36 0 114 32 83 35 107 65 0 66-77 224t-77 150q0 21 26 72 24 46 30 51 68-74 131-211 69-149 69-245zM753-199q0-53-114-115-12-7-135-62-160-72-259-108-14 13-14 35 0 60 43 82 139 59 421 199h46q0-4 6-10t6-21zM1950 1328v36l-25 25q-25-26-25-39 23-22 50-22zM1582 285q-21 40-57 59-26-33-23-70z" glyph-name="uniFB82" horiz-adv-x="2447" unicode="&#xfb82;"/><glyph arabic-form="final" d="M2145 1550q0-89-94-171-87-75-156-75-12 0-48.5 10.5t-49.5 10.5q-15 0-47-28-45-40-50-44-15 15-15 36 0 26 36 81 41 61 80 73 17-3 49 6 38 28 79 94 47 73 67 94 16 15 62 15 39 0 64-32 23-31 23-70zM1397 1479q-72-49-193-80-104-24-208-47 0-17-24-16h-64q0 3-5.5 25t-5.5 34q96 44 243 95 142 49 162 49h85q0-5 5-26t5-34zM2013 173q-6-63-32-187-8-1-25-13-12 18-33 44-32 242-88 719-15 36-35 112-33 209-33 246 0 14 52 96l26 11zM1378 1233q0-76-74-130-13-9-104-38-8-2-54-22-35-15-50-15-87 0-87 82 0 32 26 76t63 67q6-12 3-85 7-7 20-7 14 0 22 8 38 75 82 125 22-31 37-82 40 6 42 50 2 48 38 63 36-24 36-92zM1633 188q0-194-137-194-153 0-237 112-34-46-109-119-85-54-152-54-82 0-128 53-19 20-35 62-24 63-27 69-175-62-239-62-60 0-194 42 2 63 69 152t148 129q50 19 101 39 65 28 92 76 11 36 42 103h37q16-158 66-453 2-11 31-27 32-20 64-20 54 0 117 45 72 51 72 114 0 13-31 187t-31 186q0 35 45 123 42-18 54-75-4-16-4-41 5-13 35-154 6-79 47-234 6-15 56-50 54-40 81-40h68q9 9 4 25-99 332-99 472 0 116 58 148 18-95 57-270 29-98 57-195 22-82 22-149zM927-226q0-59-43-84-75-42-218-101-164-66-224-96h-34q-13 14-13 41 0 51 25 67 95 56 263 130 156 69 179 68h53q12-1 12-25zM2054 1505q-6 5-18.5 12.5t-17.5 11.5q-46-22-77-54v-36h37q62 39 76 66zM793 252l-12 89q-70-34-202-108 16 0 51.5-7t45.5-7q18 0 117 33z" glyph-name="uniFB83" horiz-adv-x="2028" unicode="&#xfb83;"/><glyph arabic-form="isolated" d="M1302 1738q0-32-208-158-282-169-287-173h-44q-14 13-14 36 0 55 44 82 154 89 462 270h47v-57zM1208 1027q4-10 4-22 0-46-82-137-8-249-57-410-8-25-45-94-33-63-33-73 0-13 41-110t41-111q0-70-33-93-15-10-136-27-186-27-251-27-66 0-80 5-32 13-32 72 0 20 11 52 16 44 39 44 14 0 21.5-5t19.5-5q53 0 141 77 85 75 85 112 0 48-180 261t-226 222q-26 1-78 2-62 3-98 36-19 15-40 52l-14 70q-9 45-9 58 0 11 5.5 37.5t5.5 43.5q4 0 17.5 6t28.5 6q13 0 83-48 36-26 72-53 140-90 278-262 111-151 224-303 13 0 30 28 71 287 71 468 0 143 7 182 19 91 96 141 9-19 9-53v-25-23q0-72 64-94zM942 118q0 14-14 26t-24 12v-48q5 0 19 5t19 5z" glyph-name="uniFB84" horiz-adv-x="1223" unicode="&#xfb84;"/><glyph arabic-form="final" d="M3919 1665q0-17-19-49-21-36-45-51-140-72-423-228-15 11-25 11v44q0 39 212 162 126 70 252 141h35q13-13 13-30zM3325 1511q0-64-152-145-134-70-186-70-27 0-61 34 8 39 80 67 88 33 104 48-21 35-51 35-34 0-117-60h-37v33q0 39 86 97 78 53 108 53 48 0 135-33 91-35 91-59zM2751 1516q0-31-35-66-77 51-113 51-13 0-71-49-71-59-90-71-127-77-258-126l-57 13q14 30 191 145 167 109 167 149 0 16-7 17-75 41-75 111 0 52 47 117 51 72 107 72 30 0 62-16.5t36-38.5q2-9 2-21 0-15-4-53.5t-4-59.5q0-41 12-70 36-26 86-82 4 2 4-22zM3161 845q0-37-34-67-28-24-48-24-27 0-68 26-44 28-44 56 0 26 36.5 64t55.5 38q34 0 68-32.5t34-60.5zM3949-219q0-16-39-54t-58-38q-13 0-46 20.5t-46 20.5q-17 0-51-36t-47-36q-33 0-78 34t-45 59q0 29 41 68 35 34 47 34 11 0 44-20.5t48-20.5q13 0 56.5 35.5t56.5 35.5q28 0 72.5-39t44.5-63zM2035 1434q0-66-37-66-12 0-48 25.5t-48 25.5q-13 0-148-112.5t-226-112.5q-9 0-56 23 14 32 142 109 134 81 175 149-7 9-57 67-35 40-35 56 0 54 64 135 66 86 115 86 47 0 71.5-43t24.5-111q0-61-17-118 12-14 57-51 23-18 23-62zM2249 946q0-131-76-131-20 0-61 25.5t-52 25.5q-14 0-44.5-46t-62.5-46q-36 0-68 43-24 34-24 49 0 34 21 55 28 24 55 47 61-41 93-41 35 0 46.5 41t55.5 41q29 0 117-63zM3888 247q0-41-42-72-35-26-61-26-12 0-132.5 10.5t-133.5 10.5q-50 0-181-49-80-30-160-61-120-37-267-58-118-16-98-16-74 0-179 92-17-20-60-49-118-43-196-43-140 0-268 43-8 3-28 17-16 11-32 11-12 0-102-26-104-30-143-39-28-5-61-95-48-127-158-238-122-123-241-141-84-13-212-13-58 0-213 22 0 5-5.5 23.5t-5.5 23.5q46 23 61 23 13 0 56-5t57-5q166 0 296 83 122 77 267 262v27q-15 17-46 17-13 0-27-5.5t-30-5.5q-70 0-117 38.5t-47 94.5q0 63 44 153 50 103 105 103 58 0 136.5-107.5t103.5-107.5q31 0 92 20 64 20 79 38 15 104 18 116 16 76 50 121 120 156 191 156 59 0 94-74 29-61 29-126 0-103-92-206 7-11 53-23 41-12 61-12h80q51 0 114 21 82 26 82 67l-72 762q0 51 6 71 9 27 51 83 42-105 56-250 9-113 16-226 11-142 47-439 7-44 57-77 34-22 94-22 77 0 257 67-114 77-221 77-15 0-94-21-6 12-13 25 62 118 147 145 108 32 216 66 127 43 212 103 43 31 162 153 75 77 130 70 95-122 95-193 0-8-32-121-6-1-22-12-18 0-35 23-10 40-19 81-19 59-56 59-13 0-136-110-148-132-202-171 45-33 104-42 54-6 107-12 140-21 368-23 46-1 46-56zM1021 1614q0-51-33-71-133-82-524-287h-34l-23 24q9 32 35 77 95 62 263 151 207 110 269 146h34q13-13 13-40zM744 691q0-48-16-89-21-53-60-53-29 0-73.5 39.5t-44.5 62.5q0 26 31 59t51 33q28 0 112-52zM1124 165q0-104-15-145-21-60-203-150-140-69-228-69h-107q-51 0-132 45-85 48-101 92-23 65-23 129 0 55 46 161 47 110 81 116 36 0 36-36 0-13-35.5-82t-35.5-82q0-91 79-144 67-45 151-45 11 0 27 5t29 5q14 0 18.5-10t18.5-10q17 0 104 35 91 37 149 69 14 8 46 47 2 8 2 38v30q-11 41-70 171-53 117-53 137 0 61 46 87 66-21 121-172 49-131 49-222zM2587 1721q-17 36-50 36-16 0-41-26 44-44 78-56zM1901 1594v57q0 11-22 33-16 4-41-19-22-22-28-38 65-33 91-33zM2219 339q0 17-17 53-20 41-40 54-127-102-127-143 0-11 6-29t6-21q9 0 17-5.5t22-5.5q17 0 75 40.5t58 56.5zM1563 141q-24 48-49 48l-11-37z" glyph-name="uniFB85" horiz-adv-x="3895" unicode="&#xfb85;"/><glyph arabic-form="isolated" d="M2294 1637q0-58-64-94-452-260-495-258h-54q2 39 25 90 124 78 563 298 25-25 25-36zM2120 899q0-16-37-56t-55-40q-38 0-77 42-36 37-36 65 0 15 28 54 30 44 54 44 29 0 78-51 45-46 45-58zM2243 715q0-28-30.5-62.5t-51.5-34.5q-36 0-97 62-5-3-59-49-39-33-54-33-28 0-73 33.5t-45 58.5q0 20 31.5 61t50.5 41q13 0 61.5-25.5t61.5-25.5q12 0 50.5 41t52.5 41q32 0 69-47 33-42 33-61zM1168 1606q0-41-36-75-28-26-116-64-84-36-120-77-34-22-110-75h-35l-16 10t-8 20q0 71 197 184 110 57 219 113 25-25 25-36zM1587 836q-15-25-53-61-212-106-249-105h-95q0 3-5.5 25.5t-5.5 34.5q66 29 194 90-14 34-52 34-33 0-95-41h-47v45q-1 31 73 77 67 41 90 41 20 0 245-84v-56zM2550 311q0-126-64-212-18-3-79-3-13 0-54 5t-53 5q-14 0-47-19-44-25-54-29-56-24-135-24-11 0-60.5 16t-62.5 16-44-13q-34-14-47-15-133-24-247-24-74 0-174 13-27 3-84 31-20 10-46 42-21 27-34 27-12 0-44-27-44-34-55-42-80-47-217-62-114-12-283-12-311 0-355 105-5 10-17 114-28 228-51 615-4 53-26 177-22 119-22 125 0 21 29 70 27 45 37 53 10-6 22-13 64-197 82-586 4-102 21-306-1-43 16-122 22-47 66-56 108-23 209-23 12 0 163 5t164 5q99 0 192.5 72t94.5 72q-5 0 94-61.5t163-61.5h135q126 0 236 33 29 10 57 68 26 55 70 62 1-3 1-154h67q52 2 111 43 25 18 39 62 12 38 22 77 8 21 54 44 23-16 23-39 0-13-9-42.5t-9-45.5q28-26 77-26 22 0 32 17 3 11 3 96 1 54 34 91 59 2 59-143zM962 1313q-5-79-83-128-61-29-124-58-46-24-134-68h-36v65q-1 26 128 93l192 96h57zM1034 550q-35-45-144-77-130-36-176-69h-36q-5 13 1 51 8 49 8 64-51 33-51 68 0 24 76.5 120t91.5 96q33 0 70.5-31t37.5-62q0-14-34-81-18 6-85 51h-28l-17-16q31-48 53-59 14-7 54-7 168 0 179-2v-46zM1537-257q0-31-34-60-30-27-54-27-15 0-45 18-50 30-56 33l-21-20q-40-41-72-41-38 0-74 36-33 32-33 56 0 18 30 55t52 37q12 0 48-25.5t48-25.5q10 0 42 31t46 31q38 0 78-27 45-31 45-71z" glyph-name="uniFB86" horiz-adv-x="2573" unicode="&#xfb86;"/><glyph arabic-form="final" d="M2452 1525q0-43-194-167-157-100-302-170-15 11-25 11v64q-1 27 205 147 134 78 269 156h34q13-14 13-41zM1634 1311q0-62-47-62-12 0-50.5 25.5t-51.5 25.5q8 0-158.5-138t-266.5-138q-14 0-30 5.5t-20 5.5q0 41 24 56 154 92 177 107 112 73 157 139-12 31-51 47-31 14-31 59 0 53 46 130 52 85 107 85 87 0 87-130 0-91-4-86 21-25 79-69 33-25 33-62zM2483 256q0-194-176-376-171-177-336-177-108 0-398 64v36q7 7 24 20 89-17 291-17 42 0 182 75 121 65 149 90 51 43 162 218 3 6-6 16-12-6-69-43-45-29-59-29-59 0-98 60-34 52-34 114 0 59 40 144 51 112 128 112 57 0 133-146 67-127 67-161zM856 1290q0-78-167-159-138-66-182-66-27 0-50 23v35q53 30 173 102-11 24-51 24-44 0-106-60h-57q23 78 78.5 130.5t120.5 52.5q11 0 97-23 94-24 132-30 0-3 6-8.5t6-20.5zM1848 353q0-81-40-159-48-92-118-92-11 0-118.5 36t-122.5 36l-169.5-36t-342.5-36q-24 0-135 11-13-59-26-117-30-109-70-109-31 0-85 66-46 55-60 91-18 49-6 125-7 36-53 36-39 0-99-35-70-41-70-83 0-13 46-330t46-330q0-75-22-173h-37q-13 22-31 65-23 155-55 434-29 251-29 277 0 82 58 183 60 104 130 131 50 9 100 19 62 12 63 46 5-3 79-62 61-48 98-58 130-33 235-33 184 0 207.5 9t31.5 82q13 109 76 232-10 44-10 90 0 119 74 119 22 0 209.5-142.5t210.5-176.5q35-54 35-116zM1436 1475q13 26-10 50-8 0-22.5-16t-14.5-23q6 0 24-5.5t23-5.5zM2287 308q14 42-11 90h-35q-35-33-35-50t24-40h57zM1746 323q-73 73-140 106-5-14-11.5-48t-12.5-50q82-55 112-55 27 0 52 47zM1500 362q-8 43-34 85-28 47-54 54-46-61-65-120 45-43 97-43 35 0 56 24z" glyph-name="uniFB87" horiz-adv-x="2462" unicode="&#xfb87;"/><glyph arabic-form="isolated" d="M5379 1452q0-14-23-61h-42q-13-1-42 19.5t-42 20.5q-9 0-78-68-80-78-124-102-53-31-280-106l-13 12v27q102 63 205 126 131 82 193 157-11 11-77 61-26 20-26 62 0 47 55 115 59 74 115 74 61 0 72-106 3-61 6-121 15-21 64-55 37-27 37-55zM4795 1477q0-53-115-123l-144-76-108 11v38q86 34 153 99-32 36-57 36-8 0-40-19-38-24-77-35l-21 12q6 32 24 81 21 25 74 51 48 23 71 23 9 0 93-28 90-30 136-36 0-3 5.5-11t5.5-23zM4262 1773q1-27-494-351h-36q0 3-5.5 9t-5.5 21q0 64 25 81 158 97 469 296h47v-56zM4591 812q0-26-26-65-28-42-56-42-33 0-80 43-43 42-43 64 0 16 25 53 30 44 62 44t75-35 43-62zM3526 1462q0-14-23-61h-42q-13 0-42 25.5t-42 25.5q4 0-132.5-117.5t-210.5-117.5q-24 0-61 34 20 43 74 74 29 9 81 36 131 100 131 132 0 13-8 22-51 37-64 58-10 16-10 58 0 66 55 129 62 68 148 70 61-75 60-158 0-12-8-43t-6-47q100-107 100-120zM5246-335q-69-97-107-97-12 0-46 15.5t-47 15.5q-12 0-48-36t-49-36q-27 0-70 33t-43 55q0 20 29.5 63.5t47.5 43.5q14 0 49.5-26t47.5-26q11 0 54.5 41t58.5 41q25 0 73-38 38-31 50-49zM3608 899q0-31-34-59-28-23-43-23-13 0-41 20.5t-41 20.5-51.5-36-51.5-36q-31 0-63.5 25.5t-32.5 51.5q0 24 29.5 66t51.5 42q10 0 86-52 23 29 46 57 21 25 53 25 44 0 71-43 21-32 21-59zM5286 283q-25-82-78-111-37-20-116-20-11 0-72.5 4.5t-75.5 4.5q-107 0-320-91.5t-371-91.5q-83 0-121 22-41 24-80 101-24-20-68-49-103-44-222-44-85 0-160 13-34 6-103 33-64 25-76 25-6 0-84-27-86-29-145-37-35-5-82-116-33-78-128-177-103-108-188-141-63-23-167-23h-85q-21 0-135 31-133 36-163 66l13 25q43 1 134-4 95-6 99-6 158 0 273 59 131 65 269 235-8 34-75 40-102 10-119 16-61 22-61 96 0 68 39 156 51 115 129 115 4 0 44-15 46-65 143-201 58 0 170 23 15 12 23 26 12 50 27 142 11 115 163 245 30 25 86 25 55 0 91-113 27-82 27-122 0-46-56-161-13-9-37-28 14-8 38-24 24 0 87-11.5t75-11.5q15 0 96.5 34t89.5 46q3 9 3 33l-102 798q0 57 43 144h36q34-65 45-156 8-73 15-145 34-212 61-502 16-153 36-198 36-74 137-74 87 0 262 39 0 8 20 28-14 7-38 22-152 44-182 44-12 0-103-31-14 15-14 31 0 18 31 63t63 66q74 49 247 89 133 30 244 101 36 24 166 177 30 37 57 37 37 0 78-94 34-79 34-106 0-8-32-106h-47q-19 45-69 131-138-138-146-144-82-77-146-106 96-58 280-72 254-18 293-27zM2307 1380q0-18-18-51-20-37-39-49-149-81-447-214-163-67-502-212-52-23-212-112-141-78-150-78h-64v44q-1 64 258 182 295 141 891 414 77 32 226 107h44q13-14 13-31zM1795 423q0-29-37-64-35-34-54-34-29 0-113 53 0 34 21 82 26 60 61 60 20 0 71-39t51-58zM2584 331q0-306-476-453-311-95-640-95-724 0-921 403v36q4 0 10 5.5t20 5.5q11 0 63-43 62-52 88-67 325-186 746-186h192q126 0 437 89 389 112 389 238 0 12-38 61-43 57-52 76-3 11-3 32 0 62 58 97 127-111 127-199zM5194 1655h-39q0-15 34-49 5 3 5 49zM3351 1627v40q0 16-6 19-2 2-6 1h-35q-23-23-23-38 22-22 70-22zM3598 377q-4 82-47 82-19 0-68-49.5t-49-68.5q0-26 45-67 44 20 88 41 31 18 31 62zM2952 176q-23 46-50 46v-47q8-8 25-7 18 1 25 8z" glyph-name="uniFB88" horiz-adv-x="5284" unicode="&#xfb88;"/><glyph arabic-form="isolated" d="M3101 1753q0-61-185-170-139-79-280-158h-34q-13 14-13 41 0 56 62 94 58 31 115 61 23 15 288 162h34q13-14 13-30zM3091 211q-11-57-42-156-6-1-23-12-17 0-35 23-5 143-36 312-37 197-42 253-2 20-22 130-17 92-17 151 0 87 33 148 8 7-16 7-13 0-62-23-72-33-84-38-3 14-3 27 0 21 10.5 48t10.5 37q0 12-20.5 38.5t-20.5 37.5q0 23 75 115 77 96 105 96 29 0 61-43 26-37 26-55 0-13-17-36-23-30-24-34 37-25 76-25 43 0 65 27v-66q0-15-62.5-51.5t-58.5-90.5zM2650 917q0-15-73-68-138-99-253-99-26 0-72 23v36q57 20 175 72 3 12-11.5 27t-31.5 15q-19 0-120-50 0 4-6.5 9.5t-6.5 20.5q0 42 74 90 66 43 100 43 52 0 225-74v-45zM1975 1512q0-54-171-173-146-100-293-199h-48v63q0 32 211 177 127 83 253 167h37q0-4 5.5-12t5.5-23zM961 1809q0-31-45-76-82 40-119 40-79 0-165-94-80-89-80-151 0-12 30.5-66.5t30.5-67.5q0-36-23-61h-32q-30 0-56 65-22 51-22 73 0 135 95 269 111 156 269 156 36 0 71-19 46-25 46-68zM1617 611q0-17-20-99-24-94-42-111-23 19-20 83 3 77-4 94-12 32-68 107-51 68-51 79 0 15 17 44 21 33 44 33 93 0 144-230zM982 1353q0-25-16-48t-30-23q-13 0-54 20.5t-54 20.5l-126-110q-139-118-258-156l-45 10v40q58 30 178 123 138 109 138 144 0 13-8 21-94 44-94 92 0 52 40 123 52 91 130 91 95 0 95-132 0-24-4-59-3-31-2-36 11-34 65-58 45-21 45-63zM2691 253q0-67-26-119-31-60-81-60-12 0-109.5 35.5t-110.5 35.5q-11 0-37-36-31-42-47-52-61-22-165-68-17-11-33-56-15-40-30-81-31-73-123-161.5t-172-124.5q-51-24-140-24-90 0-211 37l-168 58q21 37 71 37 13 0 67-15t67-15q96 0 157 12 46 26 143 76 61 31 141 98 95 81 112 135-21 22-72 20-64-4-78 0-107 31-107 125 0 51 52 144 59 106 117 106 40 0 55-15 48-48 143-190 23-8 45-8 79 0 162 93 65 86 131 171 72 93 124 93 58 0 95-115 28-85 28-136zM961 805q0-96-76-96-32 0-93 41-27-8-49-47-19-35-58-35-34 0-81 35-42 33-42 47 0 27 44 66 40 36 54 36 24 0 101-52 27 31 54 63 35 40 54 40 32 0 88-64 4-12 4-34zM1371 299q0-43-22-112-28-82-63-100-288-146-657-146-487 0-487 251 0 64 50 143 48 68 97 137h37q0-4 5.5-12.5t5.5-22.5q0-8-36-71.5t-36-86.5q0-101 133-156 94-39 180-39-39 0 265 10 57 19 174 48 153 20 251 91-11 30-58 102-33 52-33 87 0 92 55 92 54 0 101-104 38-83 38-111zM2907 1234q-36 35-60 47v-38q25-13 60-9zM2568 261q-21 86-21 77h-37q-33-31-33-44 0-24 11-24 53-27 80-9zM807 1504q-8 48-45 75-31-16-35-49 64-30 80-26zM1912 147q0 5-5 24t-5 24h-38v-38q2 0 16-5t32-5z" glyph-name="uniFB8A" horiz-adv-x="3568" unicode="&#xfb8a;"/><glyph arabic-form="final" d="M1753 1642q1-21-188-151-199-135-289-160-14 14-14 35 0 61 33 83 377 251 414 249h44v-56zM1579 1065q0-47-107-93-30 0-62 25-35 26-35 57 0 21 26 58 30 45 61 45 29 0 73-33.5t44-58.5zM1262 1519q0-36-145-120-136-78-162-78-15 0-26 13-7 9-14 19v28q46 29 133 89-22 35-52 35-13 0-52-28-50-36-67-43-14 14-14 35 0 27 44 87 51 72 105 72 10 0 100-17 99-20 150-26v-66zM791 1162q0-50-56-87-92 61-97 61-10 0-65-62-64-73-101-98-78-53-162-83-125-45-137-51-8 1-36 12 24 42 180 144 162 106 208 173-42 32-119 101-4 13-4 28 0 66 51 141 57 84 124 84 91 0 91-227 0-18 2-20 11-14 72-61 49-39 49-55zM1989 343q0-64-56-127-99-110-213-152-73-26-209-57-122-27-146-27-152 0-222 128-51 130-102 261-51-45-135-141-11-17-18-78-7-67-19-96-83-198-213-276-15-9-94-27-71-17-175-17-184 0-251 45l14 19q83 0 246 21 171 43 301 180 122 128 125 230-31 14-75 63-6 19-6 51 0 35 33 86 92-30 89-30 22 0 56 22t43 47q2 5 37 112 11 33 55 55 12-7 30-23 29-60 61-187 31-121 58-169 45-79 134-103 4 3 10 16-11 28-11 68 0 129 85 251 94 136 220 136 47 0 115-33 81-39 110-93 0-38-30-38-13 0-61.5 20.5t-61.5 20.5q-46 0-149-51-117-60-117-112 0-46 69-102 63-52 99-52 46 0 166.5 67t159.5 117h36q12-1 12-25zM1273-302q0-19-34-53t-54-34q-9 0-41 15.5t-45 15.5q-7 0-130-61-4 6-45 41-30 25-30 40 0 26 32.5 59.5t54.5 33.5q11 0 39.5-15.5t42.5-15.5q13 0 51.5 36t50.5 36q22 0 65-37t43-61zM596 1325q-8 20-17 41-12 27-28 27-23 0-46-24v-36q70-23 91-8z" glyph-name="uniFB8B" horiz-adv-x="2021" unicode="&#xfb8b;"/><glyph arabic-form="isolated" d="M3633 1888q0-42-26-60-53-39-222-127-229-121-372-192-14 15-14 36 0 61 124 133 78 39 155 78 81 49 331 163 8-5 16-10.5t8-20.5zM3695 1361q0-62-63-71-72-10-81-33l144-987q-27-122-77-195-25 39-34 110-5 55-9 110-39 297-58 482-2 21-29 138-23 98-23 170 0 83 26 160-81 14-137-52h-36q-6 18 1 52 8 44 8 53-19 16-39 32-23 18-23 36 0 41 95 125 90 79 120 79 38 0 68-34 24-29 24-52 0-27-17-52t-39-25q-5 0-82 51l-26-27q27-45 118-45 151 0 156-1 13-1 13-24zM3029 1144q0-66-334-177h-72q-6 12-24 35 17 26 90 60 77 36 95 55-3 34-41 34l-151-51q-2 8-2 15 0 57 77 111 68 48 117 48 19 0 245-85v-45zM2435 1606q0-64-120-140-84-46-169-93l-462-303h-36q0 3-5.5 14t-5.5 26q0 53 303 250l448 282h34q13-13 13-36zM3500 337q0-51-58-86-51-32-105-32-14 0-103 15.5t-102 15.5q-100 0-312.5-77t-307.5-77q-65 0-73 3-15 5-50 39-32 30-45 30-6 0-91-53-91-56-139-67-91-22-261-40-138-14-175-14-13 0-169 5t-169 5q-74 0-176 33-136 44-149 115-13 36-30 102-24 181-56 519-29 303-29 331 0 53 55 139 49-29 62-97 6-61 12-123 11-190 47-573 9-67 41-183 24-49 77-66 135-44 192-44 13 0 161.5-5t161.5-5q115 0 319 40 212 41 245 74 26 45 94 141h37q0-88-9-126 49-37 154-37 81 0 172 33 73 28 145 56-9 29-67 59-51 27-77 27-39 0-201-41-13 1-13 25 0 40 65 103 103 97 175 97 23 0 54-42 15 0 15 21 315-204 530-204 11 0 46.5 5t50.5 5q56 0 56-46zM1339 1609q-25-101-208-183-159-70-277-70-11 0-65.5 20.5t-67.5 20.5q-14 0-57-34-51-40-68-48-14 1-14 25 0 37 75 116 70 73 89 73 12 0 47.5-18t51.5-20.5 81-2.5q163 0 367 133zM2589-205q0-35-43-68-38-30-59-30-11 0-48.5 20.5t-48.5 20.5q-14 0-62-36t-61-36q-8 0-54 35-51 38-64 64 5 4 54 66 15 20 48 20 13 0 49-20.5t49-20.5 58.5 36 59.5 36q35 0 81-37 41-34 41-50zM899 180q-25-31-87-44-89-18-99-23-110-45-267-149h-36q-3 9-12 25 21 29 41 92-36 23-71 46-41 26-41 66 0 44 119 168t172 124q42 0 82-53 36-48 36-80 0-37-33-67-28-25-48-25-14 0-60 36t-58 36q-14 0-24-11-22-25-23-26v-39q60-47 133-47 9 0 91 11 96 13 172 19l13-12v-47zM890-21q0-54-184-149-125-61-251-122h-33q-13 13-13 35 0 58 25 72 30 18 295 140 36 20 113 59h35q13-13 13-35zM655-318q0-62-159-135l-172-68q-2-1-49-29-32-19-47-19h-52q-13 13-13 36 0 49 179 130l254 110h45q14-1 14-25z" glyph-name="uniFB8C" horiz-adv-x="3701" unicode="&#xfb8c;"/><glyph arabic-form="isolated" d="M1779 1509q0-49-230-193l-326-190h-34q-13 14-13 31 0 58 144 146 83 46 165 91 89 61 269 172 15-11 25-11v-46zM1053 1484q0-52-114-126l-144-82q-112-64-288-181-10-1-23.5 12.5t-13.5 28.5q0 53 25 71 91 64 246 156 219 130 254 152h45q13-13 13-31zM1801 246q0-49-29-120-82-205-216-316-127-107-272-107h-257q-14 0-136 48l-12 19q7 13 24 31 33 4 112-5 86-11 89-11 153 0 335 113 199 122 241 274v12q-16-19-60.5-40t-64.5-21q-54 0-90 56-33 50-33 108 0 49 36 150 45 126 97 126 72 0 157-131 79-121 79-186zM1043 235q0-51-23-97-28-56-75-56 5 0-274 61-85-163-268-163-51 0-101 32-61 43-65 116-21 112-52 337-53 597-53 666 0 31 43 117 30 0 45-23 15-114 41-329 9-173 47-490 11-87 21-174 24-89 136-89 65 0 120 33 65 89 129 180 122 166 175 166 62 0 114-135 40-107 40-152zM1625 298v35q-18 41-32 55h-36q0-4-16.5-20t-16.5-30q0-15 5.5-25.5t5.5-13.5q4-1 90-1zM899 274q-19 65-57 84l-44-44v-36q-7 0 28-4 29-4 73 0z" glyph-name="uniFB8E" horiz-adv-x="1783" unicode="&#xfb8e;"/><glyph arabic-form="final" d="M5780 1510q-25-59-63-84-72-35-195-108-140-108-261-150 0 3-7 11.5t-7 23.5q0 13 12 38.5t13 31.5q130 79 261 158 162 97 235 125zM5144 1411q3-16-19-55-23-43-44-53-78-38-155-77-151-69-200-69-46 0-82 36 26 28 126 69 106 44 151 85-22 25-68 25-10 0-133-61-15 14-15 35 0 52 83 108 76 51 127 51 10 0 229-94zM4981 885q-1-1-35-54-22-32-61-32-30 0-64 32t-34 55q0 30 33 63.5t60 33.5q33 0 101-98zM5125 717q0-26-32.5-59.5t-54.5-33.5q-14 0-44 22-33 25-47 30-79-82-98-82-30 0-78 39-45 37-45 53 0 36 43 72 35 30 49 30 13 0 45-17 40-21 51-24 79 82 98 82 43 0 81-53 32-44 32-59zM5893-302q0-27-40-64-37-33-53-33-11 0-43 15.5t-43 15.5q-13 0-54-36t-54-36q-32 0-69 39-33 34-33 43 0 28 33 60t59 32q12 0 47-20.5t45-20.5q13 0 56.5 41t55.5 41q46 0 93-77zM4224 1270q0-12-10.5-35.5t-10.5-33.5q-2-2-2-3-9-10-28-10-10 0-54 25.5t-59 25.5q-85-78-158-136-188-146-339-202-14 12-24 12v36q104 78 209 157 127 97 190 169-8 11-61 71-42 47-42 61 0 43 63 127 72 94 131 94 24 0 52.5-42.5t25.5-65.5q-1-15-9-53-6-34-6-52 0-26 11-45 5-9 66-47 55-34 55-53zM3548 1249q0-12-6-31.5t-6-28.5h-63q-2-1-62 29-43-47-121-129-44-43-145-101-116-66-170-66-32 0-82 24 103 67 204 135 132 87 206 174-13 25-102 87-6 17-6 38 0 70 63.5 143.5t126.5 73.5q77 0 77-167 0-25-2-54.5t-2-27.5q27-20 54-41 36-27 36-58zM5832 266q0-17-25-78.5t-43-91.5q-111-45-199-45-47 0-130 36t-79 36q-13 0-36-26-30-33-44-43-21-13-100-13-13 0-54 5t-53 5q-13 0-87-25.5t-88-25.5q-12 0-96.5 20.5t-97.5 20.5-43-12q-36-13-48-16-109-23-206-23-129 0-216 33-34 13-90 69-51 51-63 51-11 0-59-29-53-33-72-39-49-18-326-77-31-97-103-201-93-134-205-193-83-44-130-44h-143q-70 0-161 19-120 26-147 68l14 18q36-1 126.5-12t100.5-11q12 0 37 7.5t34 9.5q169 20 348 192 119 116 119 154 0 11-32 37-39 31-47 42-14 18-14 59 0 31 19 56.5t38 25.5q10 0 36-16 30-20 37-22 34-13 106-13 232 0 287 66-55 47-109 47-20 0-38-8-6-1-19.5 4t-17.5 5q49 204 255 204 87 0 171-37 106-45 106-117 0-11-31-58t-31-60q0-41 158-77h109q137 0 176 22 23 14 52 59 35 56 51 73 38-2 41-50-4 77-4-75 55-19 108-19 95 0 151 50 52 62 105 125 23-16 24-54 1-55 3-61 32-19 60-19 82 0 95 51 24 92 62 133h36q11-29 14-114 57-40 91-47 10-2 81-2 105 0 144 26-15 85-55.5 161.5t-104.5 114.5q-46 27-46 71 0 10 12 60 10 53 12 75 16 13 43 35 47-31 139-223.5t92-268.5zM3036 246q0-137-105-299-117-177-276-241-59-23-167-23h-213q-13 0-85 23-74 23-85 33 7 12 23 36h267q134 0 293 112 153 106 246 252v38l-16 17q-78-61-122-61-57 0-95 51-33 44-33 92 0 58 36 146 46 110 107 110 85 0 162-125 63-104 63-161zM2135 1382q0-67-43-89-296-149-891-440l-344-162q-197-95-333-179h-34q-14 13-14 35 0 69 104 130 82 41 166 82 103 53 399 195 188 96 573 290 149 60 403 168 14-14 14-30zM1470 389q0-36-40-67-33-25-47-25-28 0-64 33-33 32-33 48 0 21 31.5 62t50.5 41q29 0 65.5-33t36.5-59zM2412 369q0-298-544-446-358-97-705-97-11 0-155 10t-157 10q-88 0-278 59-174 55-227 88-79 50-159 152-28 30-89 106 25 25 41 25 12 0 88-54 93-69 124-87 25-15 112-37 95-28 191-55 121-32 227-36 20-2 89-15 68-12 80-12t40 1 37 1q10 0 29-6.5t32-6.5q154 0 450 43 75 22 215 55 91 19 214 72l136 50q117 54 117 113 0 9-46 91.5t-46 98.5q0 40 33 91h46q105-112 105-214zM4029 1461q-23 23-47 23-24-23-24-37 5-5 23-17t23-17q25 25 25 48zM3384 1393v37q-17 34-47 34l-24-13v-35q22-23 71-23zM2851 334q-32 34-68 34l-13-12v-37q26-22 46-22 35 0 35 37z" glyph-name="uniFB8F" horiz-adv-x="5849" unicode="&#xfb8f;"/><glyph arabic-form="initial" d="M2339 1823q0-58-102-116-63-31-125-62-62-36-197-119h-34q-13 13-13 35 0 50 23 66 331 226 383 226h52q13-14 13-30zM1806 1807q0-66-196-172-94-55-280-160-14 11-24 11v43q-1 45 191 159 132 77 262 154h34q13-13 13-35zM2359 1328q-14-30-42-75-20-20-84-28-17-11-17-22 0-4 38-214 95-547 95-738 0-107-43-189h-37l-135 972q11 48 41 147-2 3-4 13-1 4-17 4-17 0-95-50h-36q0 27 1 84-33 54-33 79 0 32 64 110 70 84 115 84 88 0 88-86 0-40-31-62 43-9 132-29zM1786 1249q0-70-56-129-15-16-103.5-46t-116.5-30q-65 0-82 33 0 138 62 171 4-25 17-82 4 0 8.5-4.5t19.5-4.5q25 0 69 142h37q9-30 39-91 27 8 34.5 68.5t48.5 74.5q23-70 23-102zM2022 266q0-118-46-192-19-31-122-47-173-27-339-27-105 0-132 4-76 12-95 61-43 101-79 492-9 99-40 322-28 202-28 211 0 73 44 118 26 0 34-14 68-327 82-554 6-103 12-207 13-135 45-222 17-46 86-55 15-3 113-3h156q27 0 117 25 88 24 100 33 2 30-55.5 110.5t-57.5 88.5q0 2 33 101h46q126-118 126-245zM854 1602q0-72-495-331h-35q0 3-6 8.5t-6 20.5q0 53 102 116 58 30 115 60 94 55 278 162h34q13-14 13-36zM2083-235q0-35-34.5-69t-62.5-34q-12 0-54.5 20.5t-53.5 20.5q-13 0-58.5-35.5t-59.5-35.5q-20 0-63.5 32.5t-43.5 54.5q0 32 40 72 35 35 52 35 11 0 42-20.5t46-20.5q12 0 53 41t54 41q18 0 79-40 64-43 64-62zM711 737q0-32-33.5-67t-53.5-35q-24 0-73 29-55 34-55 68 0 27 44 64 38 33 48 33 38 0 80.5-33.5t42.5-58.5zM1059 164q0-173-187-281-150-87-311-87h-69q-99 0-177 84-75 81-75 171 0 65 48 162 52 104 109 135 48 0 48-31 0 1-15-38-88-105-88-172 0-32 45-78 38-38 76-57 24-12 120-12 86 0 223 44 161 53 161 114 0-3-34 132-1 0-56 88-53 83-53 117 0 43 44 108 66-7 135-157 56-118 56-242zM2175 1354l-35 39-26-27q22-12 61-12z" glyph-name="uniFB90" horiz-adv-x="2341" unicode="&#xfb90;"/></font>
</defs>
</svg>
