<svg xmlns="http://www.w3.org/2000/svg"><defs><font horiz-adv-x="992"><font-face ascent="1638" bbox="-36 -1224 6236 2299" cap-height="1792" descent="-410" panose-1="2 0 4 0 0 0 0 0 0 0" underline-position="-250" underline-thickness="100" unicode-range="U+000D-FEFC" units-per-em="2048" x-height="1495"/><missing-glyph d="M142 226v1362h700v-1362h-700zM284 368h416v1079h-416v-1079z"/><glyph arabic-form="final" d="M4185 1683q-95-63-228-139-137-78-156-77h-54v47q26 29 207 126 172 93 177 91h54v-48zM4247 1212q-100-41-293-125-7 13 0 88 0 7-11.5 32t-11.5 39q0 32 54.5 95.5t88.5 63.5q19 0 40-21.5t21-40.5q0-26-26-46-20-15-30-15-12 0-24 6-6 3-12-2 20-35 72-35 115 0 132-2v-37zM3623 1681q0-43-372-234h-46q0 3-6 8.5t-6 20.5q0 35 175 130 98 53 197 105h45q13-13 13-30zM4197 120q0-55-34-117h-37l-124 946q-8 68 58 127 41-123 51-198 86-658 86-758zM3551 969q0-19-32-53t-50-34q-23 0-67.5 30.5t-44.5 51.5q0 31 44 59 36 23 48 23 38 0 71-27 31-25 31-50zM3050 1647q-77-95-225-171-126-56-251-112-15 11-25 11v33q0 40 444 253zM2517 1031q0-34-32-53-88-50-233-115-141-63-161-62h-42q-12 1-12 25 0 36 199 128 118 51 235 102h34q12-2 12-25zM3777 283q0-85-45-186-11-23-128.5-64t-170.5-41h-263q-102-234-221-341-130-120-314-120-133 0-341 84-1 7-12 24 26 26 36 26t95.5-16 99.5-16q64 0 203 34 74 18 220 145 155 135 155 205 0 8-39 51-48 52-60 70-3 12-3 33 0 26 13 53 14 34 38 34 8 0 56-35 51-38 74-44 104-34 148-34h89q75 0 153 21 101 27 135 76-9 9-9 38-3 0-12.5 4t-24.5 4q-10 0-54-20.5t-58-20.5q-64 0-109 54-40 50-40 105 0 53 54 150 61 112 120 112 79 0 152-169 63-142 63-216zM1964 1231q-75-39-149-78-109-55-163-55-5 0-56 24 51 32 164 104-31 36-76 36-5 0-97-31v48q56 74 137 74 68 0 240-82v-40zM2609 121q0-37-33-55-52-12-154-37-90-23-205-87h-46q0 4 4.5 23.5t4.5 31.5q0 13-51 61t-51 62q0 56 104 154 104 96 156 96 98 0 98-76 0-24-23-54-25-34-49-34-10 0-44.5 26t-52.5 26q-31 0-67-57 9-34 73-57 54-19 96-19 11 0 68 6 76 8 149 14zM1074 1399q-10-9-25-42-201-109-452-208l-14 13v47q56 31 434 216h45q3-10 12-26zM1084 560q0-30-34-60-31-27-53-27-12 0-48 20.5t-49 20.5-54-31-54-31q-29 0-62.5 32.5t-33.5 55.5q0 24 19 52 24 35 57 35 13 0 48.5-15.5t48.5-15.5 54 30.5 54 30.5q22 0 64.5-36t42.5-61zM1893-326q0-29-31.5-55t-55.5-26q-13 0-41 10t-41 10-54-25.5-54-25.5q-25 0-58 26t-33 51q0 35 40 64 32 23 46 23 11 0 44.5-20.5t48.5-20.5q11 0 51 31t51 31q22 0 53-23 34-25 34-50zM1801 217q0-101-47-161-48-64-132-64-71 0-135.5 46t-79.5 46q-10 0-81-50-81-56-112-70-65-28-215-52-143-22-248-22-155 0-295 50-211 76-211 236 0 70 44 146 47 79 112 109-54-182-54-173 0-122 177-183 125-42 279-42 207 0 469 84 63 21 110.5 107t78.5 95q1-47 5-136 26-38 161-38 66 0 93 26 0 31-21 87.5t-21 65.5q0 16 23 86h36q21-28 43-101 21-67 21-92zM3592 424v35q-22 45-55 45-17 0-46-34v-35q20-19 54-21 32-3 47 10z" glyph-name="uniFB51" horiz-adv-x="4200" unicode="&#xfb51;"/><glyph arabic-form="isolated" d="M3103 1471q0-77-94-146-86-63-157-63-11 0-35.5 4.5t-35.5 4.5q-13 0-48-21-43-26-59-33l-21 12q19 81 105 130 26 5 81 27l78 90q72 82 110 82 33 0 56-32 20-28 20-55zM2540 1932q0-34-219-154-193-106-279-138-14 15-14 31 0 76 465 286h35q12-2 12-25zM2520 1487q0-71-115-128-93-47-141-47-72 0-72 67 0 31 43 96 25 0 45-40 19 11 40 40 24 37 30 42 16-20 53-61 43 4 52 42 12 54 18 60 47-29 47-71zM2950 181q0 29-15-124-20-32-44-44l-136 961q0 45 46 113 37-35 42-65 34-177 73-514 34-289 34-327zM2008 995q0-26-22-58-24-34-50-34-32 0-68 34-34 31-34 53 0 27 19 55 23 32 52 32 36 0 69.5-27t33.5-55zM2530 192q-28-180-37-201-32-71-142-71-82 0-141 58-48 44-117 168-11-3-128-99-40-34-155-61-101-25-160-25-45 0-90 22-54 26-54 65 0 29 24.5 63t47.5 34q12 0 55-15t58-15q103 0 227 44 151 55 151 129 0 12-20.5 148.5t-20.5 149.5q0 76 23 111 20 0 34-22 35-176 68-352 64-249 218-249 59 0 77 36 2 33-18 163-32 218-99 593-3 15-26 63-20 43-20 56 0 33 37.5 111.5t61.5 92.5q10-36 15-126 8-8 89-59 3-12 3-24 0-37-33-86.5t-31-71.5zM1966-232q-417-175-436-175h-52q-13 2-13 26 0 46 185 119l270 100 46-10v-60zM1455 709q0-25-22.5-59t-39.5-34q-10 0-51 26t-56 26q-51 0-166.5-100.5t-115.5-150.5q0-48 48-65 35-12 131-26.5t146-30.5q54-19 54-103 0-165-301-262-220-71-395-71-389 0-389 317 0 153 166 323 29 11 49 2-10-22-77-131-36-60-36-117 0-251 349-251 135 0 299 49 156 46 192 91 0 10-17 20-321 44-321 173 0 105 146 283 156 193 284 193 47 0 86-37 37-33 37-65zM3010 1443q-9 0-24 13-47-23-67-68 9-5 18-5 46 0 73 60z" glyph-name="uniFB52" horiz-adv-x="2949" unicode="&#xfb52;"/><glyph arabic-form="final" d="M2534 1600q0-32-187-134-263-141-359-209h-45q-12 2-12 26 0 46 43 72 446 271 496 270h52q12-1 12-25zM1583 1595q0-57-198-147-80-46-267-170h-45q-12 2-12 25 0 47 194 167 135 77 270 155h44q14-13 14-30zM4715 315q0-122-110-172-73-32-232-41-242-12-646-49-478-43-644-55l-697-10q-438 0-779 74-24 5-104 34-71 24-84 24t-70-20q-65-23-88-28-100-10-286-47-38-12-49-50-7-33-13-65-3-9-21-52-21-51-92-138-79-99-141-138-55-35-223-35-234 0-328 89 104 17 156 13 96-9 80-9 151 0 289 95 143 98 219 261 6 11 4 47-82 54-82 104 0 26 16 55 16 31 35 31 12 0 52.5-18t56-20 80.5-2q202 0 237 57-8 63 17 154 17 61 106 158 95 102 147 102 70 0 116-104 37-82 37-142 0-62-71-161 0-11 28-32 45-11 219-43 227-41 302-41h828l1602 139q-81 138-353 138l-1341-93q-11 0-109 8-109 7-147 9-517 25-517 147 0 39 89 152 88 110 262 222 40 26 244 113 228 96 282 96h63q0-4 6-12t6-23q0-56-44-74-129-41-379-129-76-30-210-107-176-100-176-145 0-113 758-113l1300 82q151 0 256-45 143-61 143-191zM1449 991q0-30-33-57-29-25-54-25-30 0-73.5 36t-43.5 61q0 20 33.5 54t53.5 34q30 0 73.5-38.5t43.5-64.5zM876 1524q0-37-162-132-248-147-302-185h-34q-14 13-14 35 0 47 210 172 127 70 255 140h34q13-14 13-30zM1561 368q3 33-15 80-25 62-66 62-19 0-69-42-54-46-54-76 0-16 28-54 33-43 64-43 39 0 112 73z" glyph-name="uniFB53" horiz-adv-x="4710" unicode="&#xfb53;"/><glyph arabic-form="initial" d="M3456 1275q0-33-194-146-146-84-291-166h-35q-13 13-13 30 0 36 33 56 403 251 445 250h42q13-1 13-24zM3865 225q0-34-21-95-25-71-53-86-182-95-663-95-240 0-324 47-127 67-127 287v253q0 11-25 223.5t-25 223.5q0 49 32 102h36q6-12 19-34 8-82 22-397 10-251 36-423 20-129 407-129 160 0 311 14 283 27 283 94 0 28-109 141-4 13-4 27 0 30 17 59 19 34 45 34 68 0 112-116 31-83 31-130zM3476 455q-27-46-105-75-67-23-133-46-33-19-96-47-25 24-21 37 23 26 23 46 0 19-28.5 45.5t-28.5 44.5q0 31 73 103t106 72q41 0 76-55v-77q-4 0-15-5.5t-25-5.5q-17 0-59 40h-27q-17-17-17-26 0-47 77-46-26 0 176 21zM2463 1244q0-31-175-145-99-64-198-126h-35q-12 1-12 25 0 50 177 160 153 95 228 122 15-14 15-36zM3722-297q0-25-33-58.5t-54-33.5q-26 0-64 33-33 30-33 39 0 38 36 68 32 24 55 24 27 0 60-23t33-49zM3875-469q-22-19-196-99-187-87-230-87h-52q-13 2-13 26 0 39 181 111 127 49 253 98h44l13-12v-37zM2002 588q0-79-37-117-9 48-39 147-8 21-51 88-37 58-37 72 0 27 23 51 55-4 100-89 41-80 41-152zM1510 998q0-29-37-60-33-27-50-27-10 0-38.5 10t-43.5 10q-13 0-56.5-30.5t-55.5-30.5q-36 0-69 34-28 30-28 53 0 20 31.5 53.5t49.5 33.5q13 0 43.5-20t43.5-20q11 0 55 35.5t58 35.5q17 0 54-23 43-27 43-54zM1070 1459q0-30-145-121-266-168-268-170h-37v34q0 60 403 282h35q12-1 12-25zM2606-261q0-34-44-64-35-23-48-23-14 0-36.5 10.5t-35.5 10.5-56.5-26-56.5-26q-29 0-67 37-35 34-35 51 0 28 33 53 31 23 54 23 13 0 51.5-15t50.5-15q15 0 52 30.5t50 30.5q23 0 54-24 34-27 34-53zM2473 256q0-152-74-202-35-22-207-47-253-38-364-38-15 0-43-.5t-42-.5q-157 0-321 165-46-35-91-70-71-53-128-53-12 0-91.5 36t-92.5 36q-11 0-78-37-78-42-110-52-66-24-166-24-237 0-277 251-11 214-22 429-4 113-13 328-1 28-16 106-14 75-14 84 0 36 55 92 40-19 43-66 25-365 25-348v-268q0-10 7-62 8-55 9-80 8-175 51-238 49-74 184-74 125 0 230.5 56t117.5 56q9 0 100-35.5t105-35.5q40 0 90 30 58 35 58 77 0 13-26 126t-26 125q0 33 23 101 21 0 35-23 54-241 95-326 46-100 131-129 65-22 249-22 169 0 372 37 32 5 92 16 16 4 48 34-10 32-59 114-44 73-44 86 0 25 44 91 64-21 105-97 36-71 36-148zM957 573q0-32-32-59-28-22-50-22-36 0-66 32-26 29-26 49 0 29 26 60.5t51 31.5q32 0 66-35 31-34 31-57zM1715-143q0-42-120-97-64-25-129-49-15-7-117-53-80-36-90-36h-43q-13 13-13 30 0 40 221 133 169 71 277 102 14-13 14-30z" glyph-name="uniFB54" horiz-adv-x="3866" unicode="&#xfb54;"/><glyph arabic-form="medial" d="M2580 1500q0-29-197-162-192-130-209-129h-54v48q73 65 184 132l228 136h35q13-1 13-25zM1964 1579q-142-109-422-288h-36v57q383 269 404 268h54v-37zM1853 967q0-28-36-59-32-27-52-27-12 0-38 10t-38 10q-13 0-54-36t-54-36q-18 0-52.5 26.5t-34.5 45.5q0 33 34 59 28 23 53 23 12 0 31-5.5t30-5.5q14 0 62.5 31t60.5 31q24 0 54-21 34-22 34-46zM2692 235q0-69-61-201-50-108-97-174-113-160-266-205-9-3-149-3-247 0-348 65 8 17 34 34 89-17 135-17 418 0 650 374l-7 46q-73-52-111-52-63 0-105 74-33 57-33 100 0 48 40 139 52 117 119 117 63 0 136-136 63-117 63-161zM981 1591q1-15-175-140-143-103-260-161-14 2-14 26 0 51 403 311h46v-36zM1935 266q0-28-17-89-22-78-49-114-91-114-308-114-97 0-104 2-76 11-133 71-21 23-38 136-15 82-35 246-8 134-32 432-21 266-21 275 0 40 57 97 28-65 45-298l26-392q8-88 31-256-1-29 16-80 46-58 109-73 26-7 105-7 78 0 163 27 113 35 113 96 0 39-46 62-43-31-87-63-15-9-51-9-74 0-114 64-30 47-30 99 0 72 63 168 66 99 121 99 79 0 154-176 62-144 62-203zM972 194q0-128-45.5-201.5t-182.5-131.5q-131-55-238-55-135 0-227 54-116 68-116 201 0 71 54 177 60 119 125 128-86-205-86-207 0-113 104-168 76-42 177-42 77 0 203 45 160 58 160 139 0 40-18 158-30 184-78 614-1 26-29 90.5t-28 74.5q0 38 25 99 28 66 62 101 13-14 30-103 14-67 76-73v-67q1-8-29.5-57.5t-30.5-63.5q0-12 11-70 13-67 16-93 65-532 65-549zM2539 312q0 22-22.5 39.5t-44.5 17.5q-23 0-46-24v-56q47-23 56-23 57 0 57 46zM1760 419q0 62-61 62-29 0-61-32v-48q35-32 61-32 19 0 40 15.5t21 34.5z" glyph-name="uniFB55" horiz-adv-x="2690" unicode="&#xfb55;"/><glyph arabic-form="isolated" d="M5367 1662q-147-106-373-165-15 12-24 12 21 58 134 106 199 86 218 96l45-10v-39zM4457 1746q-14-13-31-13-11 0-37.5 20.5t-39.5 20.5q-11 0-59-56-56-66-81-85-16-12-114-48-2-1-69-40-53-30-86-30-14 0-25 5 0 30 22 44 89 55 177 110 139 92 139 125 0 16-9 16-73 45-73 107 0 47 42.5 97.5t89.5 50.5q32 0 58-22 30-25 31-65-8-31-4-91 6-19 69-81v-65zM4538 1395q-100-41-293-124-1 4-17 66-2 8-25 36t-23 42q0 20 68 101 72 83 101 83 21 0 67-43v-48q-26-21-46-21-11 0-21 5t-25 5q-14 0-41-27 8-39 32-45-1 0 45 0-17 0 165 20l13-12v-38zM5255 1103q0-14-39-63.5t-40-50.5q-12-85-37-235-12-62-58-204-40-127-40-139 0-6 87-207 15-34 15-79 0-85-44-100-165-53-417-53-112 0-112 81 0 50 33 78 32-2 93 7 31 9 123 102 99 99 99 141 0 13-78 106-123 148-134 162-132 169-205 199-40 2-109 6-40 3-66 22-87 61-87 188 0 22 3 42 19 33 56 33 50 0 177-102 121-95 263-259l236-274q59 48 86 178 10 50 28 226-4 82-4 246 1 22 25 71 29 56 52 56 10-40 35-104 3-6 35-35 24-25 24-39zM3454 1625q-11-24-44-64-129-73-382-218-15 15-15 36 0 51 197 161 181 100 203 100 26 0 41-15zM2920 1588q0-12-14-49-99-70-197-141-132-95-195-105-13 1-13 24 0 35 177 153 156 102 218 129 14-11 24-11zM3259 954q0-25-32.5-58.5t-54.5-33.5q-11 0-32 10t-34 10-59-35.5-59-35.5q-22 0-54.5 29t-32.5 47q0 32 33 62 30 26 54 26 11 0 30.5-5.5t30.5-5.5q13 0 61.5 31t61.5 31q20 0 53.5-26t33.5-46zM4078 161q0-124-77-266-88-166-242-268-68-44-244-44 33 0-221 23-25 2-65 43 25 25 45 25 14 0 62-4.5t61-4.5q180 0 312 86 139 92 288 319v27q7 7-16 7-9 0-59.5-25.5t-68.5-25.5q-61 0-110 56-43 50-43 93 0 35 50 146 60 135 118 135 53 0 124-103 61-88 72-137 14-63 14-82zM2348 1533q0-18-22.5-56t-41.5-49q-238-112-707-344-188-108-665-379-113-75-339-222l-47 13q26 91 63 116 829 550 1745 946 14-2 14-25zM2870-258q0-35-44-64-34-24-48-24-13 0-51.5 20.5t-50.5 20.5-58.5-35.5-59.5-35.5q-21 0-64.5 29.5t-43.5 47.5q0 32 44 62 36 25 54 25 17 0 56-20.5t51-20.5q13 0 59 35.5t59 35.5q16 0 53-23 44-27 44-53zM1662 795q0-131-148-152-11-2-42.5-19.5t-55.5-17.5q-31 0-56 23t-25 48q0 58 23 82 13-4 40-28 25-22 39-22 25 0 47 54 27 70 35 78 8-25 47-82 31 15 38 32 3 5 6 44 1 24 27 37 25-25 25-77zM3279 263q0-172-73-232-63-49-228-49-130 0-187 116-30 63-52 217-17 117-48 117-17 0-74.5-40t-82.5-71q-18-21-26-119-4-41-42-96-67-94-131-131-402-239-1052-239-270 0-529 79-353 107-432 314v36q188-134 494-213 280-73 544-73 451 0 817 150 130 53 152 64 121 67 121 140t-78 161q-14 53-14 43 0 23 17 53 19 34 39 34 13 0 56.5-15.5t56.5-15.5q58 0 107 47 24 23 75 96h36q31-63 53-212 23-147 51-200 47-89 154-89 62 0 121 16 84 21 84 61 0 12-36 84t-36 85q0 40 35 92 108-59 108-210zM1672 345q0-33-27-60t-55-27q-29 0-57 26-25 23-25 40 0 21 32 54t50 33q32 0 59-26 23-22 23-40zM4302 1939q0 29-16 29l-23-29h39zM5030 179v45q-34 34-46 34-30 0-86-89 111 0 132 10zM3924 251q-6 23-30 45.5t-46 22.5q-8 0-46-32v-48q24-22 61-22 29 0 61 34z" glyph-name="uniFB56" horiz-adv-x="5252" unicode="&#xfb56;"/><glyph arabic-form="final" d="M2483 1423q-18-52-188-149l-266-154h-36v47q289 187 433 269zM1379 1766q-83-113-367-262v44q-1 22 131 113 90 59 179 119zM2473 213q0-57-65-148-50-3-136 2-26 5-83 28-51 21-64 21-28 0-65-47-44-54-62-63-48-24-155-24-79 0-108 10-77 25-89 118-27 193-53 567-21 305-21 360 0 45 43 132 7 0 20.5-15.5t13.5-29.5l20-422q13-254 39-428 21-149 161-149 94 0 152 48 41 33 138 165 29 40 85 93 67 63 95 63 51 0 97-135 37-108 37-146zM1144 1448q0-36-116-109-88-50-175-100h-46v36q86 76 290 197h35q12-1 12-24zM1306 1032q6-21-6-61-13-44-36-58-3-2-50-18-31-9-37-32-10-99-37-287-5-26-33-109-24-73-24-89 0-13 30.5-115.5t30.5-115.5q0-52-26-117-254-61-379-61-107 0-107 70 0 93 61 93 13 0 23-5.5t23-5.5q55 0 143 90t88 141q0 61-179 253t-231 192q-10 0-43.5-10t-48.5-10q-53 0-104 56-49 54-49 103v157q4 0 12 5.5t23 5.5q103 0 370-268 234-237 288-336h26q31 39 49 167 14 109 27 218 2 21-7 67-10 51-10 73 0 13 2 24 25 140 107 199 1-53 5-157 35-19 99-59zM2349 229v46q-42 66-65 66-20 0-67-44v-36q66-32 67-32h65zM1072 199q-45 45-57 45-55-28-55-66 0-24 12-26h52q24 0 48 47z" glyph-name="uniFB57" horiz-adv-x="2487" unicode="&#xfb57;"/><glyph arabic-form="initial" d="M2787 1457q0-22-362-249h-46v37q153 123 351 248h57v-36zM2215 1448q0-36-170-154-121-85-214-137h-36v37q195 161 406 279 14-2 14-25zM1487 1669q-134-95-217-148-38-24-117-85-44-34-70-34-16 0-36 8 6 21 22 51 10 7 207 150 124 91 197 108l14-13v-37zM2849 188q0-193-156-381-164-197-356-197-110 0-221 23-64 14-106 56 61-1 108 1 52 2 54 2 188 0 364 124 182 129 241 320-16 16-25 16-2 0-39-30.5t-90-30.5q-132 0-132 153 0 53 40 153 50 124 108 124 46 0 164-156 46-60 46-177zM892 1670q-3-35-84-92-61-39-122-77-56-44-165-130h-37v34q0 25 64 74 237 181 322 200zM954 1507q1-29-176-141-128-80-239-139-14 15-14 36 0 26 158 128 195 127 224 152h47v-36zM2163 265q0-136-85-296-95-180-245-274-71-44-228-44-269 0-332 68l47 14q25 0 73-5t58-5q216 0 400 140 169 128 230 303l-15 17q-67-62-123-62-63 0-108 57-41 51-41 107 0 60 57 161 65 116 128 116 71 0 133-133 51-108 51-164zM1508 239q0-270-194-270-91 0-150 45-27 20-132 138-205-183-415-183-133 0-133 91 0 82 51 82 13 0 56.5-15.5t56.5-15.5q77 0 197 41 161 55 161 139 0 7-25.5 150t-25.5 156q0 58 33 128l19-5q39-182 76-363 72-236 261-236 95 0 95 53 0 8-3 18l-174 892q15 92 43 163 21 0 35-23 5-44 10-62 17-45 60-63 10-32 2-82-8-52-8-108 0-118 52-342.5t52-327.5zM330 214q0-103-46-195l-128 1055q0 57 46 123 29-25 33-67 15-172 58-563 37-344 37-353zM2696 291q-45 66-67 66-25 0-42-23-14-19-14-38 0-20 22.5-36t43.5-16q35 0 57 47zM2030 326q0 26-77 82-66-44-66-76 0-13 22-34 25-23 49-23 72 0 72 51z" glyph-name="uniFB58" horiz-adv-x="2850" unicode="&#xfb58;"/><glyph arabic-form="isolated" d="M2797 1727q0-37-183-126-125-57-252-114h-34q-12 1-12 25 0 44 211 143 166 78 257 107 0-3 6.5-11.5t6.5-23.5zM2847 1284q-18-30-69-44-34-6-67-13-23-7-154-57h-36q0 6 5 38 4 25 1 36-2 9-20 33-18 21-18 35 0 30 85 99 80 65 100 65 39 0 67-54 2-25 6-71 18-12 50-19l50-10v-38zM2100 1986q0-33-182-123-241-120-251-126h-35q-13 1-13 25 0 45 34 62 400 198 403 198h44v-36zM2172 1681q0-80-115-138-92-46-162-46-71 0-71 56 0 21 44 86 14 0 54-40 41 14 50 39 13 37 31 53 5-2 31-23 23-18 36-18t38 33q29 39 50 49 14-14 14-51zM2817 181q0-51-32-96l-27-10-125 931q10 37 19 74 15 50 50 57zM1281 1828q0-32-183-123-240-119-250-126h-36q-12 1-12 25 0 46 34 62 400 198 403 198h44v-36zM616 1733q-17-15-44-39-128-62-390-187h-35q-12 2-12 26 0 46 191 141 116 55 233 109h44l13-13v-37zM2510 416q0-75-80-177-53-68-96-101-86-65-389-118-272-48-464-48-129 0-201 21-113 33-189 132-70-43-138-86-52-27-137-27-98 0-179.5 66.5t-91.5 66.5q-60 0-145-101-69-81-100-151-25-59-50-183-13-63-13-112 0-91 43-214 35-98 150-173 103-67 201-76 134-14 399-14l639 20q0-30-22-47-182-31-533-123-37-13-216-13-661 0-715 363-5 24-23 109-15 72-15 86 0 306 277 726-19 29-68 37-58 11-76 23 68 181 261 181 81 0 151-31 90-38 90-107 0-51-36-79t-36-49q0-52 149-52 220 0 220 169l-61 717q0 32 44 98 16-8 37-33t21-43v-289q0-34 17-198 22-201 47-322 15-73 132-111 87-28 192-28 80 0 86 2 131 51 219 150 13 14 13 98 0-26-34 399-9 111-52 328-1 4-20 30-17 22-17 68t64 152h36q10-37 20-75 18-55 74-68-7-69-30-115-20-43-20-53t11-69q12-64 16-95 33-391 33-510 3-2 5-12 2-5 17-5 27 0 151.5 92t232.5 92q66 0 125-26 74-34 74-92zM2673 1345q0 5-5.5 13.5t-5.5 13.5h-37v-38zM2387 335q-8 10-70 32-67 24-99 24-70 0-343-210 16-16 34-16 95 0 265 55 186 59 213 115z" glyph-name="uniFB5A" horiz-adv-x="3047" unicode="&#xfb5a;"/><glyph arabic-form="final" d="M3453 1647q0-73-84-136-73-53-131-53-11 0-39.5 5t-42.5 5q-28 0-111-40v33q-1 17 35 55 34 36 58 49 29 6 82 28 13 9 77 80 45 51 90 51 31 0 51-34 15-25 15-43zM3002 1582q-122-101-230-124l-45 11v39q33 20 112 79-11 24-51 24-8 0-101-18 15 47 60 79t92 32q54 0 163-63v-59zM3371 347q0-157-57-220l-137 1024q9 49 12 59 13 38 44 64 8-8 22-25 19-161 71-553 45-338 45-349zM2429 1608q-16-32-53-75-134-63-401-198h-34q-13 13-13 31 0 43 168 127 139 63 276 128zM2440 772q0-23-45-58-41-34-58-34-31 0-63 36-29 32-29 51 0 15 26 53 30 44 56 44 23 0 69-41 44-38 44-51zM1907 1074q0-56-135-107-108-41-147-41-41 0-66 14 14 24 49 42 44 22 64 42-7 25-41 25-21 0-53-12-29-11-69-6 22 50 52 74 73 56 111 56 12 0 93-22 91-24 129-30 13-13 13-35zM3002 296q-14-169-99-237-68-55-202-55-89 0-136 24-23 11-79 59-48 40-62 40 8 0-142.5-61.5t-246.5-61.5q-52 0-105 35.5t-74 35.5q-13 0-84.5-55.5t-84.5-55.5q-59 0-131 55.5t-84 55.5q-11 0-61-32-56-38-81-46-371-126-595-126-172 0-330 60-228 86-228 257 0 46 32 128 32 80 64 117 4 4 71 31-7-31-38-105-27-66-27-79 0-139 186-207 134-48 306-48 128 0 229 23 88 18 176 37 117 29 202 75 31 16 88 66 63 57 91 75 0-15-5-62-2-41-1-64 14-14 77-41.5t79-27.5q60 0 109 61.5t91 61.5q20 0 74-36t115-36q86 0 231 69-11 61-132 45v44q-1 15 27 49 25 32 46 45 89 55 203 55 62 0 141-30 104-41 104-107 0-26-34-67l-48-58q0-19 17-32 11 0 47-6.5t49-6.5q174 0 174 82 0 5-100 547-9 88-37 245-2 9-22 50-15 34-15 54 0 32 27 107 31 84 60 93 32-14 32-83 0-79 64-103-14-63-40-182zM1140 1479q0-36-180-134-169-92-337-183h-34q-13 13-13 30 0 38 215 158l290 158h47q0-4 6-9.5t6-19.5zM2143-282q0-36-43-67-36-26-54-26-12 0-43 15.5t-44 15.5-59-36-59-36q-20 0-64 34t-44 54q0 31 44 62 35 25 48 25 12 0 51-15.5t52-15.5 54 36 53 36q22 0 65-30.5t43-51.5zM1037-380q0-31-31.5-58.5t-55.5-27.5q-27 0-62 32t-35 54 32 54.5 55 32.5q32 0 64.5-32t32.5-55zM3342 1601l-6 14-24-13v-14z" glyph-name="uniFB5B" horiz-adv-x="3368" unicode="&#xfb5b;"/><glyph arabic-form="initial" d="M1079 1878q0-42-203-155-136-71-272-141h-35q0 3-6 9t-6 20q0 36 197 146 138 76 277 151h35q13-13 13-30zM1119 1343q0-53-33-67-227-93-228-93h-65q25 43 25 70 0 16-13 33.5t-13 28.5q0 30 54 100 58 73 94 73 37 0 83-54 2-20 7-60 1-2 89-31zM1140 193q-4-43-7-87-14-63-61-81l-136 1013q1 56 7 74 14 49 61 68zM813 275q0-59-31-114-35-65-87-65-12 0-74.5 15.5t-74.5 15.5q-27 0-61-43-23-34-46.5-68t-78.5-70q-71-45-186-68-8-2-48-15-33-12-46-12h-116q0 19 3 28 138 82 214 121 69 30 139 61 86 43 131 104-5 46 6 133 24 53 88 135 83 104 135 104 56 0 99-124 34-95 34-138zM801-157q-69-57-216-113-115-42-229-83l-24 24q10 26 43 63 346 158 362 157h64v-48zM678 281q-20 85-20 80h-57q-23-22-23-46 33-34 46-34h54z" glyph-name="uniFB5C" horiz-adv-x="1140" unicode="&#xfb5c;"/><glyph arabic-form="isolated" d="M853 1517q0-14-105-78-128-81-380-232h-55q-7 74 267 230 223 127 228 126h45v-46zM1315 678q0-29-29.5-62.5t-52.5-33.5q-37 0-68 35-25 30-25 51 0 18 22 54 26 44 55 44 27 0 62.5-33t35.5-55zM2337-225q-433-217-456-216h-42q-13 1-13 25 0 43 132 104 68 28 137 56 124 62 217 101 15-12 25-12v-58zM2389 370q0-16-56-80-50-58-59-64-280-174-503-205-93-13-129-13-71 0-119 13-16 4-59 33-39 25-53 25-13 0-47-31-52-48-62-57-57-44-172-44-113 0-175 45-71 52-140 201h-26q-29-86-202-161-147-64-230-64-62 0-124 28-76 34-76 89 0 53 55 107 9 0 36-20 31-22 49-29 38-12 85-12 84 0 218 51 182 69 182 174 0 8-46.5 206.5t-46.5 218.5q0 29 47 97 49-99 93-332 42-222 89-303 77-132 243-132 92 0 162.5 51t82.5 51q13 0 115.5-30.5t114.5-30.5q10 0 37 4t52 4q0 3 4.5 8t4.5 20q0 12-30.5 71t-30.5 72 27 65q36 67 41 80 103 249 275 249 133 0 219-160-24-24-41-24-9 0-68 25t-75 25q-41 0-145-66-111-70-111-112 0-66 80-127 69-53 115-53 52 0 200 84 76 44 152 89h47v-36z" glyph-name="uniFB5E" horiz-adv-x="2392" unicode="&#xfb5e;"/><glyph arabic-form="final" d="M3742 1599q0-80-82-140-73-54-148-54-11 0-40 5t-42 5q-15 0-127-81v33q-1 25 33 73.5t61 61.5q27 4 81 27 28 19 89 100 47 62 83 62t65-34q27-30 27-58zM3568 238q3-122-47-185l-158 999q15 66 16 69 13 41 43 58zM2738 1695q1-20-193-143-195-125-283-158-15 15-15 31 0 47 189 159 122 74 245 147h57v-36zM2749 1282q0-56-15-79-20-33-132-91-109-55-145-55-76 0-76 92 0 22 46 92 11-24 22.5-48t33.5-24q41 0 56 44t28 88h37q4-20 28-61 38 10 54 47 7 28 15 56 48-29 48-61zM1961 1394q0-39-101-87-66-31-119-45l-107 11v37q32 16 92 51v25q-51 0-87-11h-35q-12 0-12 24 0 35 54 69 46 29 69 29 37 0 139-40 107-41 107-63zM3179 278q-4-31-14-88-14-56-26-83-20-47-55-71-29-20-97-28-80-8-108-19-33-13-63.5-75.5t-60.5-123.5q-33-63-121-148-93-90-155-108-81-23-186-23-68 0-169 25-106 26-163 61 7 14 24 33 32-3 121-15 78-12 95-12 121 0 253 76 144 83 247 229 48 68 48 89 0 13-30.5 66.5t-30.5 66.5q0 41 45 87 64-45 98-55 22-6 77-6 153 0 190 55-33 271-43 338-29 203-75 419-2 14-27 53-19 32-19 77 0 71 53 163h36q11-45 23-90 21-62 92-65v-56q0-13-26-53-17-26-35-52-1-2-1-52zM1449 1548q0-24-170-137-107-69-212-139h-48v34q0 36 372 272h46q0-4 6-10t6-20zM1141 657q0-36-25-82-27 63-90 187-3 6-53 70-36 48-36 66 0 15 6 28.5t6 16.5h33q60 1 115-134 44-109 44-152zM2421 450q-7-53-48-84-34-26-74-26-48 0-171.5 35.5t-238.5 35.5h-111q-59-5-91-37 26-64 26-142 0-189-151-189-72 0-134.5 51t-70.5 51q-13 0-36-25-27-28-39-33-60-26-140-35-68-6-137-13-32-28-37-83l-4-92q-11-68-32-95-171-217-466-217-149 0-253 64-126 77-126 222 0 74 72 208t112 139v-47q0-7-33-66-42-76-57-107-1-10-1-29 0-130 119-189 84-41 203-41 103 0 230 45 174 61 174 164 0 45-34 152-12 37-58 123-41 76-41 89 0 49 33 101h35q10-10 50-63 12-25 55-79 8-6 87.5-23.5t97.5-17.5q52 0 115 23 74 26 98 66 19 37 39 73 27 47 48 58 47 25 141 49 110 27 153 45-14 44-122 49-87 3-174 7v33q0 26 78 96 70 62 88 70 12 4 28 4 10 0 156-77 167-88 240-115 51-20 402-128zM568 534q0-34-31-58t-66-24q-33 0-64 22-33 23-33 55 0 20 19 54 25 44 58 44 34 0 75.5-33t41.5-60zM1091-458q0-41-34-58-265-139-506-229-13 15-13 36 0 42 232 154 189 92 296 127 8-5 16.5-10t8.5-20zM3650 1563q-9 10-24 16-8 0-22-16t-14-25h36zM1591 218v47q-52 54-96 54-22 0-46-24 5-21 36-53 36-36 66-36 15 0 26 6t14 6z" glyph-name="uniFB5F" horiz-adv-x="3571" unicode="&#xfb5f;"/><glyph arabic-form="initial" d="M3423 1522q0-29-242-147-317-152-356-175h-34q-12 13-12 30 0 41 33 58 544 270 556 270h32q23-24 23-36zM2543 1369q0-54-156-126-138-63-182-63-27 0-41 14 7 26 72 63 95 56 102 62-20 34-61 34-33 0-96-40h-36l-5 21q2 9 7 28 103 94 166 94 11 0 90-22 89-24 127-30 13-13 13-35zM1302 1694l-432-288h-46v57q75 66 216 147l238 132q15-11 24-11v-37zM3802 396q0-20-29-54-160-190-620-266-286-47-602-63-8-5-6-14 17-33 17-104 0-107-41-185-50-97-147-97-60 0-120 48-68 52-97 140-6 49-37 142-12 21-45.5 40t-53.5 19q-13 0-212.5-20.5t-212.5-20.5q-288 0-398 197-4 9-45 49-8 0-21-19-49-96-187-154-123-52-255-52-154 0-154 107 0 20 45 87 101-41 150-41 98 0 222 45 177 64 177 176 0 9-36 173.5t-36 179.5q0 33 22 100 28 0 36-11 28-78 64-267 32-169 68-241 54-111 165-143 118-32 249-32 215 0 434 53 26 6 53 55 19 37 39 74 40 65 123 184 107 135 165 135 49 0 82-93 26-71 26-112 0-42-56-126-39-56-77-113 29-27 87-27 143 0 581 64 13 9 28 24-31 93-31 107 0 22 35 114 40 105 82 170 28 46 70 70 62 35 120 35 51 0 121-52t94-108l-25-24q-102 51-144 51-55 0-142-46-99-53-99-108 0-77 70-125 57-38 115-38 69 0 200 61 162 77 176 81 13-1 13-25zM986 1353q0-34-82-78-52-24-105-48-61-31-195-98h-46q0 4-6 9.5t-6 20.5q0 56 385 225h42q13-13 13-31zM403 165q-1-1-12-56-10-43-36-66l-157 1033q-8 89 59 123zM2481 370q0 72-56 72-72 0-189-213 10 0 25-12 220 74 220 153zM2481-151q0 36-84 72-72 30-110 30-61 0-61-41 0-44 50.5-88.5t97.5-44.5q107 22 107 72z" glyph-name="uniFB60" horiz-adv-x="3801" unicode="&#xfb60;"/><glyph arabic-form="isolated" d="M2305 1443q-88-81-476-290-14 15-14 32 0 59 466 307 14-13 24-13v-36zM4047 279q0-32-39-114-41-90-68-94-116-20-635-58-200-13-594-47l-1009-20q-179 0-300 71-156 94-174 291-2 11-56 232-29-3-39-38-6-30-12-61-58-280-189-380-74-55-206-92-191-54-217-53h-75v38q108 46 228 86 30 10 136 85 126 90 126 133 0 67-128 253-139 203-230 203-10 0-44.5-10.5t-48.5-10.5q-143 0-143 189 0 98 52 98 75 0 246-140 139-115 189-180 55-72 90-159 60-154 66-167 5-1 15 2 74 115 98 271 12 128 25 256 6 54 41 105 26 0 34-12 87-238 109-586 12-186 254-248 128-34 394-34l1105 32q16 1 501 47 104 6 209 12 156 16 156 59 0 63-118 100-88 27-174 27-10 0-73-7-68-9-101-11-76-9-235-20-126-5-287-22-104-12-405-12-788 0-788 164 0 12 58 121 79 148 323 315 44 30 230 125 223 115 276 115h42q13-2 13-25 0-18-22.5-56t-41.5-48q-50-29-152-62-110-35-156-58-105-53-252-151-195-132-195-183 0-74 303-106 171-17 342-17l445 10 758 61q131 0 223-45 120-58 120-174zM1282 1707q-50-33-516-308-15 12-25 12v47q160 98 484 299h45l12-12v-38zM1272 1369q0-50-25-80-14-17-126.5-76.5t-129.5-59.5q-67 0-67 77 0 58 47 98 0-2 14-41 8-21 36-21 36 0 53 42 14 40 28 81 5-3 31-28 22-23 37-23 27 0 46 41 26 56 31 61 25-25 25-71z" glyph-name="uniFB62" horiz-adv-x="4207" unicode="&#xfb62;"/><glyph arabic-form="initial" d="M4963 1334q0-47-209-146-143-68-287-135h-45q-12 1-12 25 0 40 142 111l158 70q78 40 239 111 14-15 14-36zM3969 1246q-15-47-25-66-227-129-523-250-15 14-15 35 0 6 14 41 100 57 281 147 188 94 203 93h65zM3857 561q0-24-32-58t-50-34q-25 0-68.5 34t-43.5 63q0 22 39 60t57 38q27 0 63-43 35-39 35-60zM2884 1611q0-42-115-114-108-66-147-66h-73l-23 26q3 3 154 93-22 35-62 35-14 0-111-20v37q76 85 142 85 40 0 223-52 12-1 12-24zM5341 274q0-245-143-245-12 0-83 20.5t-81 20.5q-11 0-38-30-30-32-46-39-56-23-135-23t-143 25.5-67 25.5q-13 0-62-21-58-23-76-27-130-34-231-34-61 0-170 21-117 23-145 43-22 22-44 42-28 26-46 26-13 0-44-29-42-40-55-49-20-13-121-33-97-21-133-21-81 0-120 24-107 64-264 183-242 185-266 202l-16-8q-1-24 6-66 10-54 12-63 3-36-14-88-21-62-57-88-73-55-330-55-106 0-134 7-79 17-163 95-51-45-102.5-89t-123.5-44q-44 0-125 51t-94 51-68-31q-67-38-89-47-260-106-612-106-182 0-346 51-268 81-268 267 0 55 37 135t79 118h37q-51-128-51-151 0-157 249-221 135-35 295-35 239 0 427 45 281 67 363 220h37q0-15-30-137 59-56 175-56 79 0 129 36 23 18 61 69 27 38 51 38-4 0 87-51t214-51q223 0 277 56 5 146-385 477-35 30-35 127 0 143 196 297 116 90 512 306 386 210 425 210h52q13-13 13-30 0-57-101-120l-126-68q-37-24-114-65-119-48-393-198-382-211-382-291 0-22 244-190 328-226 399-281 74-69 236-198 35-25 119.5-49t132.5-24q111 0 189 36 48 23 100 69 41 38 59 38 12 0 72-48 66-52 95-63 86-32 249-32 107 0 258 53 32 10 103 99h36q0-21-4.5-63t-4.5-62q26-18 82-18 128 0 183 49 38 34 106 175h38q-5-21-5-41 0-110 114-110 19 0 42 27 4 10-24 78-5 11-5 26 0 61 46 124 78-30 78-174zM2198 1303q0-21-34-56-10 3-55 29-40 22-54 22 9 0-130-108-145-113-233-137l-57 14q62 50 187 145 40 27 81 54 60 46 60 78 0 13-46 56.5t-46 56.5q0 30 44 94 51 75 104 75 63 0 68-80 0-54 1-107 8-19 61-73 49-50 49-63zM2157 546q0-27-33-57t-59-30q-27 0-58 24-33 26-33 52 0 11 20 55t20 67q-61 39-61 73 0 16 25 53 30 44 62 44 29 0 63-32.5t34-54.5q0-13-25.5-41t-25.5-41q0-12 35.5-55.5t35.5-56.5zM1266 1115q-4 0-12.5-6t-22.5-6q-11 0-47.5 20.5t-49.5 20.5-72-52q-72-62-94-77-18-11-187-96l-57 13q12 31 158 131 139 95 139 133 0 14-24 35-16 14-34 27-13 15-13 55 0 100 166 185 10 4 45 4 27-26 30-54 1-11 1-22 0-19-5.5-59t-5.5-60q0-23 6-43 30-26 79-82v-67zM1164-319q0-37-42-67-36-26-55-26-33 0-63 40-24 33-24 53 0 26 26.5 59t55.5 33 68-40q34-37 34-52zM2013 1484q0 9-12 28-9 0-27-14 13-14 39-14zM1112 1368h-38q-2-4-2-10 0-38 29-38z" glyph-name="uniFB64" horiz-adv-x="5341" unicode="&#xfb64;"/><glyph arabic-form="medial" d="M1172 1372q0-42-189-158-148-89-277-149-14 11-25 11v44q0 25 193 137 187 109 284 145 14-13 14-30zM1151 230q0-169-112-169-52 0-146.5 41t-89.5 41q-11 0-46-45-43-55-68-74-45-34-146-34-217 0-255 211-12 188-25 377-3 18-16 297-3 47-21 155-16 103-16 111 0 44 43 107h37q53-291 53-362v-289q0-44 37-273 5-38 26-101 40-70 167-70 149 0 224 171 20 22 54 63 30 42 79 86 57 49 89 49 56 0 99-135 33-104 33-157zM1028 259q-9 89-55 89-18 0-67-46 56-56 92-56 16 0 30 13z" glyph-name="uniFB65" horiz-adv-x="1150" unicode="&#xfb65;"/><glyph arabic-form="isolated" d="M2940 1541q0-33-27-53-90-70-217-153-133-86-152-85h-54v44q-1 45 435 282 15-14 15-35zM2264 1393q0-41-46-41-13 0-44 10t-43 10q-28 0-63-42-50-61-72-77-47-36-207-127l-67 14q2 3 167 139 140 114 140 139 0 15-9 16-2 3-67 47-37 26-37 60 0 44 55 116.5t99 72.5q56 0 75-108l8-120q36-24 71-49 40-31 40-60zM2336 988q0-29-36.5-63.5t-56.5-34.5q-12 0-48 16t-48 16q-13 0-54-26t-54-26q-40 0-68 29-24 25-24 43 0 38 25 65t57 27q10 0 39.5-10.5t42.5-10.5q12 0 56 31t56 31q30 0 70-26 43-30 43-61zM2919-317q0-33-42-65-36-27-55-27-11 0-47.5 15t-49.5 15-56.5-30.5-56.5-30.5q-31 0-66.5 26t-35.5 51q0 19 36.5 58t60.5 39q12 0 49-15.5t49-15.5 56 36 56 36q28 0 68-43 34-38 34-49zM1065 1525q0-45-23-81-80 20-94 20-13 0-71-53-78-71-99-87-74-55-197-115h-46v37q22 19 180 138 87 64 137 127-18 41-92 86-1 6-1 14 0 62 41 139 50 92 118 92 79 0 79-118 0-30-5-72t-5-47q29-53 78-80zM2817 276q0-170-85-226-60-40-222-40-170 0-251 36t-138 36q-19 0-126-24-120-28-185-51-31-11-72-106-30-69-83-154-41-67-126-139-96-80-161-86-139-13-169-13-82 0-198 20-125 22-149 46 35 36 71 36 11 0 42.5-5t44.5-5q209 0 334 55 178 79 316 299-6 27-56 33-41 3-83 5-49 7-88 49t-39 86q0 69 61 171 64 111 123 111 58 0 118-123t112-123q39 0 142 33 22 7 44 34-4 9-4 25 0 104 94 261 106 179 221 179 60 0 96-94 27-69 27-121 0-61-92-271 22-20 47-23 101-13 158-13 161 0 194 55-13 37-62 143-40 85-40 99 0 92 49 92 13 0 55-53 80-102 80-234zM1117 153q0-15-28-98-22-64-29-79-29-59-78-95-71-53-187-86-106-30-189-30-137 0-233 54-126 71-126 217 0 75 45 162 47 90 111 129-5-26-36-109-27-71-27-85 0-49 39-102 41-54 101-80 54-23 167-23 101 0 227 50 161 61 161 155 0 32-41 305-47 314-85 477-7 32-36 76-21 34-21 84 0 65 63 214h37q9-55 19-111 16-82 84-93-4-30-28-106-22-70-22-84 0-12 10-63 14-60 17-79 23-131 46-263 39-239 39-337zM2078 1557q0 5-5 24.5t-5 24.5h-38l-11-37zM2336 415q0 27-24 65-27 42-58 42-44 0-99-63.5t-55-110.5q0-72 72-72 24 0 89 47 75 51 75 92zM932 1650q0 24-5.5 45.5t-5.5 23.5h-46l-23-23q0-5 5-22.5t5-22.5q3-1 70-1zM1609 191q-34 34-51 34-15 0-25.5-5.5t-14.5-5.5v-37q22-24 50-24 41 0 41 38z" glyph-name="uniFB66" horiz-adv-x="2809" unicode="&#xfb66;"/><glyph arabic-form="final" d="M2943 1588q-5-24-14-58-53-58-181-127-158-82-208-120h-46q0 3-5.5 9t-5.5 20q0 31 149 124 127 75 253 152h58zM2258 1661q0-35-198-194-160-128-246-184h-47q0 3-6 11.5t-6 22.5q0 26 182 170 131 101 262 204h46q13-13 13-30zM2145 826q0-26-33.5-61.5t-53.5-35.5q-29 0-63.5 32t-34.5 50q0 19 27 57 31 45 60 45 25 0 62-36 36-36 36-51zM3025 233q0-119-84-280-96-184-235-274-43-28-134-52-94-24-166-24-117 0-247 23-29 5-65 42 0 38 37 38h263q107 0 301 149 200 154 228 275l-8 36q-14-5-67-41-45-31-69-31-70 0-120 62-43 54-43 107 0 56 50 156 62 126 139 126 64 0 146-138 74-124 74-174zM1540 1203q-24-23-40-23-10 0-42 20.5t-46 20.5q-18 0-26-9-58-97-171-163-12-7-194-95-12 18-9 28 84 67 169 135 144 115 144 145 0 14-5 16-7 3-8 6-69 51-69 100 0 36 41 99 46 75 98 75 30 0 39-6 18-11 34-59 6-21 1-61-7-46-5-62 3-27 34-58 28-27 55-54v-55zM960 1581q0-15-6-28.5t-6-17.5h-43q-10 0-41 20.5t-47 20.5q-13 0-55-47-54-59-70-72-52-43-131.5-90t-98.5-46h-54v37q7 6 157 108 105 70 159 146-12 35-61 67-41 27-41 66 0 54 61.5 117.5t112.5 63.5q10 0 18-3 39-35 39-86 0-16-5-47.5t-5-46.5q0-21 6.5-37.5t61.5-58.5q49-36 49-66zM916 1226q0-21-31-71-34-53-55-55-25-2-61-16-97-38-109-38-72 0-72 66 0 46 35 98 6-3 27-24 16-17 31-17 28 0 41 46 17 49 37 56 9-18 40-61 31 16 46 53 22 56 25 60 46-47 46-97zM2329 319q0-48-21-126-24-95-54-106-85-33-145-38-36-2-135-15-88-12-101-12-11 0-35.5 5.5t-36.5 5.5q-64 0-80-36t-88-36q-66 0-222 34-6 1-36 19.5t-45 18.5q4 0-71.5-51t-163.5-51q-93 0-156 50t-122 175q-40-37-139-110-44-26-134-54-98-31-155-31-60 0-116 21-74 28-74 76 0 43 44 107h32q12 0 72-20t72-20q104 0 222 57 142 68 142 163l-51 357q-6 16 7 54 15 42 39 55l17-13q13-36 45-254 29-205 77-303 72-147 209-147 31 0 81 21 54 22 75 49 14 28 37 71 83 135 150 135-9 0 154.5-92t280.5-92q71 0 185 20 109 21 149 39 2 7 2 16 0 37-63 120t-63 112q0-8 33 92h35q52-28 102-126 45-90 45-140zM2840 290v48q-34 32-56 32-37 0-55-68 34-34 66-34 20 0 45 22zM729 1744q-8 48 12 60 5 0 18-6t18-6v-48h-48zM1530 170q-23 46-43 67h-57l-12-48q67-33 82-33t30 14zM791 1744v48q-5 0-17.5 6t-17.5 6q-20-12-12-60h47zM791 1744v48q-5 0-17.5 6t-17.5 6q-20-12-12-60h47zM791 1744v48q-5 0-17.5 6t-17.5 6q-20-12-12-60h47zM791 1744v48q-5 0-17.5 6t-17.5 6q-20-12-12-60h47zM794 1776l-39 4q-15 2-20-1-2-1-2-2l-8-15 44-10zM1402 1371v40q0 17-6 20-3 1-6 0h-37l-11-48z" glyph-name="uniFB67" horiz-adv-x="3027" unicode="&#xfb67;"/><glyph arabic-form="initial" d="M1627 1838q1-19-73-68-124-80-370-252h-35q-13 13-13 35 0 38 176 158 135 87 268 174h47v-47zM1054 1346q-13-13-36-13-12 0-45.5 20.5t-46.5 20.5q8 0-173-133t-227-132h-44q38 72 114 117 223 133 223 179 0 10-46.5 53t-46.5 59q0 43 47 117 54 88 112 88 50 0 62-80 1-60 4-121 0-13 2-16 35-35 101-103v-56zM1556 258q0-135-30-201-44-96-165-96-97 0-158 61-33 33-72 113-29 62-51 62-13 0-46-29-47-39-64-50-54-34-136-34-118 0-240 43v52q0 6 37 66 26 40 91 105 69 68 120 98 24 14 108 42 48 15 71 62 9 21 16 125 5 84 39 103 13-28 46.5-222.5t76.5-289.5q67-143 178-143 78 0 97 45-49 278-137 829-3 20-31 91-27 64-27 90 0 96 77 173 7-7 42-108 22-61 85-56 1-30-3-78-6-18-33-67-24-40-24-54 0-61 57-285 25-95 52-268 24-152 24-179zM491 192q0-81-61-163-66-88-143-88-11 0-43 6t-48 6q0 5-5.5 24t-5.5 23q88 11 103 15 68 22 111 93-29 14-91 59-3 11-3 25 0 49 26.5 98.5t57.5 49.5q56 0 102-148zM890 1538v41q0 16-6 19-3 1-6 0h-37l-11-48zM1064 310v59q-24 22-56 22-21 0-91-25-74-26-116-51-48-30-43-55 89-22 127-22 110 0 179 72z" glyph-name="uniFB68" horiz-adv-x="1549" unicode="&#xfb68;"/><glyph arabic-form="medial" d="M848 1497q-16-46-26-66-159-105-490-290h-34q-13 13-13 30 0 41 43 67 420 261 455 259h65zM1872-216q0-46-34-63-385-198-413-197h-51q-14 13-14 30 0 38 123 97 68 29 136 59l206 109h34q13-13 13-35zM767 505q0-37-34-67-29-24-54-24-24 0-64 28-43 30-43 59 0 13 29 54 32 43 53 43 40 0 79-42 34-34 34-51zM1810 275q0-53-24-125-7-10-30-33-121-11-249 33-5 2-37 22-28 16-43 16-13 0-42-30-38-40-47-48-25-19-86-35-64-18-89.5-34t-32.5-78q-2-49-5-98-14-105-68-156-66-65-211-112-129-43-218-43-146 0-258 81-126 91-126 236 0 74 59 177 52 90 123 160-10-39-48-149-32-93-32-106 0-128 118-190 84-45 195-45 102 0 233 45 171 59 171 149 0 46-24 127-10 33-62 117-47 77-47 89 0 15 23 86 3 0 8.5 5.5t19.5 5.5q13 0 46-45 39-55 55-66 28-22 104-22 116 0 210 92 29 29 133 173 67 93 117 93 43 0 107-136 57-121 57-156zM1656 304v34q-27 55-55 55-32 0-57-57 40-45 72-45 27 0 40 13z" glyph-name="uniFB69" horiz-adv-x="1812" unicode="&#xfb69;"/><glyph arabic-form="isolated" d="M4971 1579q0-92-70-151-65-54-150-54-11 0-56 10t-56 10q-15 0-51-21-43-25-56-29v44q-1 15 26 48t47 46q36 22 113 27 35 46 71 92 57 69 105 69 32 0 57-35 20-30 20-56zM4459 1553q0-65-219-169l-77 14q16 22 59 54 51 38 74 61-16 32-46 35-4 0-97-30v44q-1 26 53 59 48 29 64 29 34 0 106-30 83-35 83-67zM4797 242q0-18-16-98-17-87-28-111-16 11-26 11l-135 991q-3 69 34 133 26 0 34-12 21-105 57-391 13-91 49-316 31-194 31-207zM3886 1497q0-54-475-307h-36v58q111 85 200 133 192 104 263 146h35q13-13 13-30zM2944 1604q0-39-140-120-80-41-159-82-85-48-270-140-14 13-14 35 0 42 247 179 193 108 322 164 14-15 14-36zM4387 222q-33-271-306-271-102 0-178.5 56t-82.5 56q-5 0-94-39-105-47-198-74-140-40-266-40-239 0-311 238-7 12-24 28-6 1-16-3-80-91-225-144-130-47-259-47-148 0-148 107 0 97 56 97 12 0 37-18t35-21q13-2 61-2 93 0 230 39 205 58 205 161 0 5-25.5 182.5t-25.5 201.5q0 51 35 123 45-81 72-311 28-226 79-313 82-144 285-144 260 0 399 98-27 49-93 57-72 10-91 32 64 171 287 171 58 0 139-41 96-50 96-113 0-32-28-68-27-29-53-59 36-46 148-46 80 0 110 8 68 19 68 83 0 10-34 194-41 218-55 302-2 73-16 216-4 27-27 84-21 52-21 65 0 55 64 183 39-5 46-51 11-68 15-73 1-1 79-51-4-26-35-108-26-69-25-110zM2914 1112q0-19-34-62-34-45-53-45-29 0-118 63 1 37 24 76 27 45 58 45 19 0 68-26 55-29 55-51zM2125 334q0-47-14-174l-33-66-147 987q0 18 12 55 17 52 20 62 27 0 35-12 10-84 37-267 90-527 90-585zM1787 324q0-82-4-98-12-52-79-138-7-9-84-38-70-27-155-42-338-57-370-57h-202q-173 0-296 46-182 69-182 225 0 71 75 207 21 38 73 64 16-12 26-12-72-119-72-162 0-215 471-215 196 0 410 30 307 44 307 124 0 31-61 102-35 37-69 75-3 12-3 38 0 82 56 82 29 0 82-48 57-51 73-99 4-13 4-84zM1224-249q0-27-44-63-40-34-58-34-25 0-82 53 3 39 21 74 23 47 61 47 20 0 57-22 45-28 45-55zM1439-376q0-51-224-149-158-64-314-127-15 14-15 30 0 45 116 98 27 12 227 110 140 68 155 68h42q13-13 13-30zM4889 1546l-47 12q-53-54-53-70h55q45 19 45 58z" glyph-name="uniFB6A" horiz-adv-x="4793" unicode="&#xfb6a;"/><glyph arabic-form="final" d="M2177 1430q0-37-220-165-185-108-298-157-15 14-15 31 0 40 121 107 69 34 137 68 78 51 227 141h35q13-1 13-25zM1357 1875q0-29-80-80l-96-56q-72-44-216-149h-47v57q128 97 392 259h34q13-14 13-31zM1378 1297q0-67-37-94-49-35-139-72-83-33-106-33-30 0-76 42 0 29 23 121 24-12 47-49 5-2 22-2 48 0 62 42 11 35 23 70 24 0 65-61 37 5 52 41 23 57 27 61 37-18 37-66zM1101 1531q0-24-156-115-108-62-216-123h-47v47q67 60 169 115 179 96 225 124 14-12 25-12v-36zM2197 242q0-189-118-189-52 0-244 72-20-41-70-100-106-53-192-53-134 0-242 214-219-214-527-214-63 0-115 22-69 29-69 85 0 22 13 54 17 43 44 43 10 0 41-17 35-19 52-21 14-3 75-3 129 0 275 52 187 65 187 169 0 9-36 188t-36 195q0 52 27 120l19 13 17-13q18-51 54-279 34-208 79-303 68-142 193-142 106 0 190 98 61 91 123 182 68 99 137 99 59 0 96-125 27-90 27-147zM446 242q0-149-42-209-45 422-91 700-9 58-48 251-34 169-34 180 0 53 56 128 32-28 40-94 5-58 9-115 20-79 45-215 6-56 46-336 19-139 19-290zM2084 240v35l-22 44q-19 31-49 31-16 0-43-24-32-28-29-56 67-43 102-43 28 0 41 13z" glyph-name="uniFB6B" horiz-adv-x="2188" unicode="&#xfb6b;"/><glyph arabic-form="medial" d="M3716 1426q0-30-209-164-197-126-258-148-15 14-15 30 0 36 123 109 67 39 135 77 141 107 211 121 13-1 13-25zM3020 1606q0-45-310-229-64-39-189-110-13 2-13 26 0 67 475 332 37 0 37-19zM2876 945q0-21-26.5-54t-45.5-33q-34 0-60 29-22 25-22 48 0 87 72 87 33 0 57.5-23t24.5-54zM3757 182q0-200-185-395-185-199-384-199-185 0-372 95v38q47-5 147-19 84-11 97-11 68 0 137 13 65 11 183 81 65 39 180 157 135 138 135 205v28q-16 18-25 18-11 0-50-41t-73-41q-65 0-105 54-33 45-33 94 0 51 33 156 47 146 115 146 28 0 71-32 62-46 98-159 31-95 31-188zM1852 1467q0-15-5.5-28.5t-5.5-17.5h-44q-13 0-34 15.5t-34 15.5q-30 0-62-40-85-101-185-168-104-70-172-65 101 87 201 174 116 102 116 119 0 14-34 39-51 38-56 44.5t-5 19.5q0 49 55 121.5t96 72.5q37 0 50-89 16-105 18-107 9-11 61-55 40-34 40-51zM1801 1081q2-45-25.5-77.5t-61.5-32.5q-26 0-56.5 32t-30.5 55q0 22 23.5 54t48.5 32q36 0 102-63zM1965 863q0-23-36-60t-51-37q-13 0-54 20.5t-54 20.5q-12 0-56-36t-56-36q-31 0-59 33-23 28-23 44 0 28 33 64 31 33 49 33 12 0 38-15.5t38-15.5q13 0 56.5 36t56.5 36q17 0 65-31 53-33 53-56zM3029 336q0-131-46-183-35-40-100-56-15-3-114-15-7-1-85 2-54 0-87-18-23-12-35-57-9-39-18-79-28-88-72-145-127-163-213-212-80-46-227-46-92 0-191 27-120 33-163 86 29 25 68 16 119-27 178-27-5 0 189 23 79 10 243 176 162 164 162 226 0 16-6 20l-8 8q-33 41-66 83t-33 68q0 14 6 32t6 28q3 0 11 6t23 6q11 0 38-20 31-24 46-29 62-23 152-23 199 0 261 58 5 33-37 115-45 85-45 104 0 35 22 81h46q95-99 95-255zM1085 1334q0-15-6.5-28.5t-6.5-16.5h-53q-10 0-24 15t-28 15q-16 0-139.5-117.5t-209.5-116.5h-45q20 32 161 140 125 96 125 129 0 16-9 17-83 78-83 112 0 37 59 110t95 73q48 0 61-99 7-59 12-118 10-20 54-65 37-36 37-50zM2528-519q0-36-204-141-136-64-271-129h-35q-12 1-12 24 0 37 205 140 134 66 269 132h36q12-2 12-26zM1975 238q0-143-46-198-14-15-132-56-168-57-405-57-201 0-274 33-56 27-109 174-8 22-33 49-31-22-89-59-87-45-166-45-44 0-97 14-72 18-72 48 0 92 185 241 95 73 190 145 14 63 49 187 8-6 23-23 10-46 63-367 24-140 80-183 66-51 260-51 131 0 267 18 235 31 235 100 0 53-121 192-2 12-2 43 0 12 5.5 38.5t5.5 35.5q0 2 2 2 9 11 28 11 68 0 117-134 36-101 36-158zM439 172q0-84-71-161-68-74-134-74-11 0-54 18-47 20-58 34 7 3 100 18 63 9 125 79-2 11-26 26-32 22-42 31-14 14-14 54 0 24 22 65 28 53 65 53 39 0 65-54 22-46 22-89zM3613 325q0 17-54 71h-36q-32-66-32-71 0-51 61-51t61 51zM919 1484v48q-5 0-18 5.5t-18 5.5q-24-23-24-36l23-23h37zM972 315q0 12-14 42-18 40-37 40-32 0-111-59-64-49-104-91 73-24 87-24 50 0 107 23 72 28 72 69z" glyph-name="uniFB6D" horiz-adv-x="3917" unicode="&#xfb6d;"/><glyph arabic-form="isolated" d="M1033 1448q0-39-237-166-226-121-250-120h-44v58q31 19 474 258h44q13-13 13-30zM1044 275q0-76-32-141-32-68-76-68-32 0-234 61-96-143-257-143-142 0-207 104-46 73-52 208-4 82-19 269-15 174-15 183v253q0 10-15 97t-15 99q0 30 43 117h36q44-61 44-270v-258q0-81 27-295 3-25 3-67v-20q0-103 33-157 56-90 178-90 109 0 155 60 13 34 48 92 170 208 246 208 7 0 14-2 16-16 55.5-115t39.5-125zM920 263v34q-27 55-45 55-21 0-67-42v-27l13-12q71-36 99-8z" glyph-name="uniFB6E" horiz-adv-x="1048" unicode="&#xfb6e;"/><glyph arabic-form="final" d="M3102 1606q-11-27-37-65-41-27-429-246h-45v57q80 73 229 153 9 5 256 127zM2395 1443q0-46-46-46-12 0-40.5 15t-41.5 15q-4 0-150.5-117.5t-199.5-116.5h-54q27 53 144 138 127 94 162 142-19 24-70 69-21 19-21 54 0 37 46 113 54 87 107 87 75 0 75-137 0-19-1.5-49t-1.5-37q0-12 2-16 7-11 52-60 38-39 38-54zM2518 1038q0-39-33-67-29-25-59-25-13 0-51.5 15t-51.5 15q-10 0-50-35.5t-58-35.5q-34 0-72 36-35 33-35 56 0 43 36 71 27 22 46 22 11 0 45-16t48-16q12 0 58 36t59 36q27 0 72.5-36.5t45.5-55.5zM3122-328q0-34-43-68-38-29-59-29-12 0-46 15t-47 15-56.5-31-55.5-31q-30 0-57 35-25 29-25 47 0 38 37 67 31 26 55 26 11 0 40-10.5t42-10.5 56.5 31 56.5 31q19 0 60.5-34.5t41.5-52.5zM1227 1504q0-46-45-46-13 0-46.5 20.5t-45.5 20.5q-14 0-85-64-96-88-107-96-58-47-176-86h-34q-4 10-14 26 4 2 172 133 126 97 126 133 0 10-41 57.5t-41 65.5q0 45 57 108 62 70 124 70 42-30 44-93 1-52 3-105 5-31 59-83 50-51 50-61zM3020 296q0-174-76-239-73-63-267-63-84 0-222 40.5t-158 40.5q-28 0-137-23-131-30-198-61-17-8-40-70-29-77-43-98-99-154-213-245-48-38-115-52-61-13-154-13-95 0-298 34-31 5-85 40 0 7-11 25 43 6 134 0 114-7 101-7 166 0 343 101 184 103 251 243v27q-86 16-173 31-104 33-104 140 0 54 47 156 54 121 112 121 64 0 129-100 49-78 98-157 65 6 129 11 85 10 106 57 0 121 38 207 17 39 100 137 104 121 158 121 61 0 102-77 36-65 36-133 0-125-82-285 40-37 158-37 8 0 154 12 59 6 98 44-17 43-73 142-50 86-50 98 0 50 33 103h32q36 0 86-94 42-81 50-126 4-24 4-51zM1279 152q-32-97-56-185-21-80-187-154-146-65-228-65-134 0-252 71-147 89-147 242 0 51 53 149 58 107 119 141v-36q1-9-34.5-87t-35.5-91q0-108 118-173 92-52 184-52 91 0 218 52 166 66 166 168 0-1-75 429-11 46-62 420-2 17-25 70-22 51-22 64 0 65 74 188h36q6-47 12.5-96t71.5-78q-12-72-51-189zM2241 1648q-5 6-17.5 13t-17.5 12l-26-12v-37q23-22 49-22zM2518 398q0 26-27 74-31 54-60 54-40 0-104.5-73t-64.5-106q0-24 33-50.5t54-26.5q27 0 93 42 76 48 76 86zM1052 1674v39h-24q-24 1-24-28zM1760 181q-21 61-57 79-5-5-22.5-17.5t-23.5-17.5q7-19 40-40 28-17 37-17 24 0 26 13z" glyph-name="uniFB6F" horiz-adv-x="3017" unicode="&#xfb6f;"/><glyph arabic-form="initial" d="M3792 1559q-5-24-14-58-150-111-471-279-14 12-24 12 0 49 13 59 83 65 440 266h56zM2483 1934q0-82-260-179-57 0-85 6t-23 6q14 40 94 76 86 40 100 60-26 46-62 46-11 0-51-11-49-13-81-19v37q70 85 158 85 35 0 118-36 92-41 92-71zM3055 1440q-195-131-256-167-121-74-240-122-14 11-24 11v33q-1 27 319 213 39 26 77 53 55 37 70 37h54v-58zM2503 1460q-106-53-333-135-14 12-24 12 15 43 5 94l-13 20q-14 17-14 33 0 28 57 105 62 84 102 84 32 0 65-29.5t33-47.5q0-9-23-56h-43q-14 0-44 31h-25q0-2-4.5-17.5t-4.5-28.5q59-37 87-37 13 0 67 11 64 13 89 16 7-5 23-29v-26zM3752 137q0-173-111.5-334t-279.5-236q-31-13-192-13-219 0-317 78 98 14 178 14 145 0 296 75 167 83 280 230 22 29 45 96-23 0-68-11t-56-11q-62 0-110 51-43 49-43 102 0 55 49 171 57 136 115 136 86 0 157-157 57-125 57-191zM2903 250q0-123-36-182-25-43-134-66-83-18-163-18-62 0-120 33-77 44-87 125-62 464-79 860-1 29-19 99t-18 80q0 52 34 102h36q41-64 51-156 4-78 9-155 9-195 19-389 9-202 59-358 21-68 151-68 139 0 206 48 1 7 1 15 0 39-52 104.5t-52 94.5q0 26 13 54 15 32 37 32 70 0 111-97 33-77 33-158zM1920 895q0-20-34-61.5t-53-41.5q-29 0-64 30-34 28-34 47 0 12 26 54t26 53q0 12-20.5 46t-20.5 47q0 25 32 58.5t50 33.5q7 0 91-53-1-37-25.5-84t-24.5-52q0-10 25.5-37t25.5-40zM1192 1666q1-16-495-341h-45q-12 1-12 25 0 44 103 114 58 33 114 67 157 95 288 182h47v-47zM2790-252q0-26-50-61-42-31-52-31-11 0-47.5 20.5t-49.5 20.5q-14 0-54.5-30.5t-53.5-30.5q-33 0-57.5 24.5t-24.5 57.5q0 24 34 60 32 32 48 32 11 0 46.5-15.5t50.5-15.5q11 0 47.5 31t49.5 31q25 0 69-38t44-55zM2074 250q0-26-16-94-19-81-40-119-31-53-221-53-103 0-162 33-15 9-50 53-30 36-44 36t-40-29q-22-25-43-48-13-12-68.5-28.5t-78.5-16.5q-13 0-97.5 35.5t-97.5 35.5q-8 0-57-37-56-40-85-52-115-43-252-43-188 0-252 104-54 88-69 381-13 159-31 482-1 53-24 190t-23 142q0 35 43 122 60-10 76-198 12-229 51-717 18-170 57-264 17-40 101-68 69-22 122-22 125 0 247.5 72t131.5 72q13 0 87-36t133-36q46 0 94 29 55 33 55 79 0 13-20.5 136t-20.5 135q0 81 46 133 35-63 55-211.5t52-201.5q53-89 189-89 131 0 160 37 6 37-43.5 117.5t-49.5 102.5q0 23 45 101 60-23 102-112 38-79 38-153zM1039 567q0-28-24-60t-52-32q-35 0-71.5 35.5t-36.5 67.5q0 28 26.5 59.5t55.5 31.5q41 0 75-42 27-36 27-60zM2258-477q0-56-301-161-154-54-156-53h-53q-13 1-13 25 0 37 34 52 366 169 423 167h54q0-4 6-9.5t6-20.5zM1817-303q0-35-42-67-36-25-50-25t-62 25.5-60 25.5q-18 0-57-36t-51-36q-23 0-56 45-31 40-31 53 0 33 34 62 29 25 48 25 13 0 51.5-20.5t50.5-20.5q13 0 56.5 36t56.5 36q38 0 77-43 35-37 35-60zM3588 211v35q-21 45-66 45-30 0-57-47 10-10 12-23 36-30 111-10z" glyph-name="uniFB70" horiz-adv-x="3750" unicode="&#xfb70;"/><glyph arabic-form="medial" d="M2417 1735q0-58-474-342h-47v58l474 309h35q12-1 12-25zM2275 957q0-28-27-62.5t-50-34.5q-19 0-63.5 36.5t-44.5 55.5q0 21 23 59 27 43 54 43 22 0 63-32 45-37 45-65zM1762 1488q-30-50-135-99-102-48-167-48-6 0-56 25 24 23 74 52 73 41 90 52-21 35-57 35-38 0-69-30h-46q-1 4-1 8 0 36 56 85.5t91 49.5q22 0 220-84v-46zM1198 1755q1-34-414-301-15 15-15 41 0 52 184 180 99 63 199 126h46v-46zM1005 1434q0-63-190-173-133-76-206-104l-16 10t-8 21q0 32 176 150l196 126h35q13-14 13-30zM2510 317q0-43-33-134-38-103-73-118-65-31-184-54-113-21-186-21-12 0-61 5t-62 5q-52 0-65-27-199-413-468-413-98 0-318 54-35 9-66 54l14 17q34 0 124.5-6t97.5-6q60 0 148 12 102 16 248 137.5t146 193.5q0 14-4 19-8 7-9 8-68 74-68 131 0 12 4.5 35.5t5.5 32.5q13 14 31 14 9 0 55-35 50-37 74-45 78-23 188-23 285 0 379 88-12 51-38 87-20-9-85-44-52-28-66-28-69 0-109 76-30 56-30 108 0 59 46 144 55 102 123 102 74 0 163-167 78-145 78-202zM1281 235q0-107-46-161-6-8-121-57-112-48-248-48-138 0-138 102 0 12 5.5 36.5t6.5 34.5q22 0 71.5-9.5t59.5-9.5q78 0 168 24 104 29 150 73-5 56-101 142-87 80-150 102-26 32-26 58 0 23 23 92h53q35 0 125-82 78-70 92-95 21-30 51-93 25-79 25-109zM585 189q0-79-12-157-6 0-24-5.5t-23-5.5l-156 1034q11 35 33 101h37q40-207 79-414 66-360 66-553zM2315 455q-40 67-71 67-26 0-51-22v-48q34-33 61-33 28 0 61 36z" glyph-name="uniFB71" horiz-adv-x="2511" unicode="&#xfb71;"/><glyph arabic-form="final" d="M4349 1540q0-43-188-154l-266-152h-47v57q229 169 486 279 15-14 15-30zM3837 1575q0-83-92-155-82-64-149-64-11 0-27 5t-29 5q-15 0-55-23-61-36-67-38v34q-1 35 79 94 42 28 85 56 3 4 133 162 18 22 55 22 67 0 67-98zM3161 1914q0-69-495-353h-47q5 24 13 58 41 40 141 97 150 89 155 92 58 39 117 78.5t103 51.5q13-1 13-24zM3172 1484q0-73-55-104-45-28-131-59-80-27-101-27-82 0-82 82 0 40 34 92 9-7 27-38 11-23 41-23 41 0 57 42 24 64 39 80 12-18 44-61h27q16 30 63 93 37-36 37-77zM3714 250q-5-34-10-67-10-34-48-66l-136 910q0 54 32 122h37zM3212 1079q0-32-32-59-29-23-49-23-14 0-52.5 15.5t-50.5 15.5q-13 0-51.5-26t-50.5-26q-36 0-67 44-26 34-26 49 0 33 24 59 20 23 38 23 13 0 54-20.5t53-20.5q13 0 51.5 30.5t50.5 30.5q37 0 75-36 33-34 33-56zM2578 1826q0-50-167-156-125-80-135-86-83-48-149-62-1 21 14 57 73 68 195 147 102 66 204 131 38 0 38-31zM4431 204q0-138-106-299-110-169-256-235-96-45-278-45-98 0-311 44 0 3-5.5 19t-5.5 27q8 3 174 3 474 0 706 425v28q-17 17-26 17-13 0-34-24-25-29-35-34-28-14-64-14-68 0-108 66-31 50-31 98 0 61 47 157 53 109 107 109 94 0 168-159 58-124 58-183zM2649 849q0-34-37-62-33-25-60-25-26 0-64 22-44 25-44 54 0 26 27.5 57t60.5 31q19 0 64-23 53-28 53-54zM1870 1479q-3 0-11.5-5.5t-23.5-5.5q-13 0-56.5 20.5t-56.5 20.5l-165.5-132.5t-234.5-132.5h-53q0 29 173 142t173 169q0 16-51 54t-51 74q0 45 65.5 114.5t102.5 69.5q57 0 72-110 3-58 7-117 25-33 110-93v-68zM1932 1013q0-28-34-55-30-22-53-22-26 0-53 15-34 20-34 51 0 16 23 54 27 43 49 43 28 0 68-41 34-36 34-45zM3397 224q0-18-35.5-57.5t-53.5-39.5h-315q21 0-102-28-141-32-354-106-144-50-241-50-98 0-155 53-34 32-133 182-137-124-233-167-89-38-216-38-200 0-200 102 0 36 45 103 70-40 102-48 14-3 68-3 84 0 228 47 192 63 192 153 0 4-36 174t-36 199q0 55 25 92 10-5 22-13 21-59 64-287 36-191 86-273 74-123 218-123 60 0 146 21 99 23 145 57 3 5-7 11-224 72-329 66v33q-2 31 64 74.5t143 71.5q68 19 135 39 100 30 161 69 88 58 132 102 39 42 78 85 48 47 79 47 44 0 74-92 23-73 23-129 0-93-47-106-26 56-92 173-110-95-332-273l28-21q350-54 646-75 13-1 13-25zM581 1555q0-63-54-125-56-64-120-64-92 0-92 102 0 52 52 131 54 84 101 84 49 0 85-56 28-43 28-72zM499 286q0-107-48-148-12 136-38 382-14 104-54 356-34 217-34 228 0 28 45 118 33-28 43-82 5-49 10-96 23-192 47-384 29-256 29-374zM1185 209q0-110-83-244-81-131-205-233-41-33-123-59.5t-142-26.5q-93 0-303 33-7 1-64 31v37q9 1 198 1 115 0 162 13 111 30 184 72 47 27 161 133 133 123 133 168v57q8 7-16 7-9 0-56.5-30.5t-60.5-30.5q-71 0-110 51-33 45-33 108 0 54 39 144 51 117 119 117 80 0 146-152 54-125 54-196zM3755 1547q-14 13-37 13-34-13-55-69 7-1 14-1 67 0 78 57zM4267 321q0 14-17 39-21 33-50 33-23 0-39.5-21.5t-16.5-44.5q0-47 66-47 57 0 57 41zM1685 1684v49q-5 0-23.5 5t-23.5 5l-12-37q44-22 59-22zM498 1512v35q-23 23-50 23-22 0-45-18-27-20-27-48 0-36 56-36 44 0 66 44zM1032 347q-19 37-57 56-56-28-56-66 0-36 56-36 32 0 57 46z" glyph-name="uniFB73" horiz-adv-x="4540" unicode="&#xfb73;"/><glyph arabic-form="initial" d="M1795-154q0-18-203-114-193-91-294-125l-14 13v58q413 217 467 215h44v-47zM669 513q0-77-72-77-29 0-60.5 26t-31.5 51q0 17 19 54 23 43 48 43 29 0 63-33.5t34-63.5zM1733 288q0-169-132-169-71 0-152 41t-83 41q-14 0-50-34-41-38-56-45-38-19-174-27-14-25-29-140-13-95-75.5-161t-209.5-118q-136-48-231-48-121 0-213 55-120 74-120 216 0 82 38 170 44 104 113 131 12-17 9-26-15-51-52-102-26-37-26-86 0-103 97-159 79-46 190-46 100 0 226 42 173 56 173 153 0 79-34 156-58 132-58 146 0 11 5.5 37.5t5.5 35.5q1 14 25 14 11 0 48-41 44-47 67-60 37-22 115-22 115 0 155 41 61 77 122 155 120 141 169 141 43 0 94-135 43-116 43-156zM1621 296q-2 35-24 74-26 45-53 45-15 0-39-17-32-24-37-25v-36q72-54 117-54 22 0 36 13z" glyph-name="uniFB74" horiz-adv-x="1733" unicode="&#xfb74;"/><glyph arabic-form="medial" d="M4198 1287q0-46-36-46-12 0-50.5 20.5t-51.5 20.5l-159.5-128t-239.5-128q-15 0-29 6t-16 6q10 25 52 55l154 98q140 98 140 137 0 7-51 57.5t-51 70.5q0 36 54 103 56 70 95 70 16 0 41-19t31-35q9-22 4-76t3-77.5 60-74.5q50-49 50-60zM4362 268q0-100-35-171-24-49-102-72-178-53-304-53-112 0-112 86 0 37 35 87 60-20 93-20 90 0 183 18 160 31 160 99 0 72-162 218-28 15-79 55-15 14-15 65 0 77 41 77 42 0 141-87 57-49 106.5-146t49.5-156zM3625 253q0-133-122-304t-260-230q-55-24-201-24-198 0-307 64-5 38 35 38 13 0 76.5-10t77.5-10q179 0 349 107 191 120 270 326 8 7-16 7 2 0-48.5-36t-83.5-36q-139 0-139 164 0 76 57 174 59 103 112 103 74 0 142-146 58-123 58-187zM1802 447q0-23-23-53-25-34-53-34-24 0-64 32-44 35-44 65 0 26 24 54 26 34 58 34 34 0 68-32t34-66zM2939 396q0-40-54-151-58-120-102-148-157-97-289-147-73-27-235-67-108-27-323-54-177-21-216-21-10 0-98-5.5t-101-5.5q-151 0-400 45-217 37-463 154-26 11-113 110-58 59-114 118-79 87-92 141v36h38q139-150 353-261 191-100 372-136 85-16 252-35 148-18 177-18h107q94 0 620 74 73 10 303 99 296 114 296 195 0 12-56.5 110.5t-56.5 109.5q0 14 19.5 49t36.5 49q57-29 100-109 39-74 39-132zM2119-413q1-25-84-69-179-94-452-222-15 11-25 11v37q6 12 22 29 10 6 503 250h36v-36zM4023 1505q-5 0-24 5.5t-24 5.5l-12-37q23-22 48-22zM3481 350q0 11-20 38-25 34-51 34-20 0-40.5-26.5t-20.5-45.5 22.5-35 43.5-16q20 0 43 15.5t23 35.5z" glyph-name="uniFB75" horiz-adv-x="4360" unicode="&#xfb75;"/><glyph arabic-form="isolated" d="M2091 1488q0-85-102-149-87-55-159-55-12 0-39 5t-38 5-36-9.5-35-9.5q18 64 73 106 29 8 72 27 40 52 133 147 18 15 49 15 82 0 82-82zM1405 1674q-94-57-413-277h-35q-13 13-13 30 0 13 146 116 214 148 257 181h45l13-13v-37zM1907 193q-5-62-7-71-12-48-52-66l-116 905q5 89 48 138zM1384 1243q0-89-55-124-38-25-133-34-13-1-42-14t-46-13q-26 0-61 34 1 2 1 70 0 50 23 71 5-3 64-62 38 5 53 41 23 57 26 61 15-5 41.5-30.5t41.5-30.5q16 10 33 40 14 26 29 52 25-33 25-61zM1569 198q0-127-74-234-61-4-71-4-111 0-240 136-49-48-98-95-61-56-105-65-12-3-62-3-84 0-123 45-17 19-41 83-17 45-46 45-10 0-48-26-48-32-67-42-69-34-141-34-39 0-95 20-69 24-69 57 0 98 200 242 103 69 206 139 13 46 49 136 37-44 64-210 0-38 2-114 4-188 134-188 77 0 146 58.5t69 125.5q0 13-25.5 184.5t-25.5 184.5q0 53 35 122 10-5 23-13 22-169 77-471 41-161 203-161 51 0 51 31 0 9-42 131-46 132-58 191-13 68-13 103 0 11 16.5 63t25.5 65q3-5 43-136 34-100 67-198t33-168zM749-199q-100-61-242.5-133.5t-162.5-71.5h-64v37q6 11 22 29 145 69 433 189l14-13v-37zM1988 1456h-37q-23-20-23-37 10-4 18-4 13 0 42 41zM719 230v89l-13 12h-44q-61-33-121-66-81-48-98-82l23-25h124q27-1 129 72z" glyph-name="uniFB76" horiz-adv-x="1903" unicode="&#xfb76;"/><glyph arabic-form="final" d="M3724 1409q-17-12-464-309h-34q-13 13-13 30 0 56 474 317h37v-38zM3785 212q1-31-53-61-40-9-114-28-153-44-248-119-1 2-1 3 4 27-6 81-8 17-57 51-42 30-42 59 0 49 116 170 114 117 150 117 42 0 76-43 26-36 26-59 0-26-26-59t-45-33q-13 0-48.5 30.5t-49.5 30.5q-18 0-42-21.5t-24-39.5q0-34 70-56 51-16 78-16 40 0 240 40v-47zM3079 214q0-20-19-75-22-61-39-73l-126 1003q0 44 46 112 24-23 33-76 29-193 70-546 35-316 35-345zM1882 1411q0-36-465-311h-47v44q0 20 96 77 50 27 101 54 110 70 157 96 84 47 144 66 14-2 14-26zM2895-144q0-27-165-118-114-61-228-123l-66 12q-5 38 32 60 78 44 380 194h35q12-1 12-25zM765 1830q1-38-156-110-53-23-238-139-15 15-15 35 0 43 178 149 93 51 184 101h47v-36zM2629 301q0-190-158-250-92-36-325-36-211-1-264-38 31-124 31-116 0-91-44-161-50-85-141-85-57 0-84 15-43 24-106 110-17 21-32 73-22 70-27 82-14 35-66 41-10 19-39 59-186-31-373-31h-172q-84 8-173 53-64 33-99 154-7 26-31 38-108-76-141-87-19-6-126-6-169 0-169 47 0 13 18 45 24 43 26 48 39 94 184.5 184t146.5 93q26 63 28 141 2 63 21 88l18-13q59-339 79-407 42-141 130-188.5t307-47.5q316 0 395 64 68 118 135 236 126 212 201 212 42 0 76-94 27-73 27-105 0-125-134-258 0-18 18-32 12-2 70-2 12 0 112 5t113 5q-20 0 153 17 98 8 195 17 104 13 128 43-26 246-86 736-2 17-20 62-17 42-17 57 0 43 32.5 110t56.5 74q8-46 15-92 16-54 80-63v-67q0-12-30.5-62.5t-30.5-63.5 46-302 46-302zM529 1511q-77-54-195.5-120t-137.5-66h-54v49q23 15 341 185h46v-48zM602 1058q0-32-34-59-29-23-53-23-16 0-56 16t-52 16-58.5-31-58.5-31q-29 0-64 34-34 31-34 48 0 24 33 59 31 33 49 33 13 0 49-20.5t49-20.5q12 0 56 36t56 36q30 0 75-41 43-37 43-52zM1790 383q0 19-21.5 40t-40.5 21q-39 0-109-103-65-99-63-131h45q49 12 110 58 79 58 79 115zM1820-175q0 26-65 68-60 40-85 39h-94q3-72 61-121 48-42 96-42 87 0 87 56zM520 352q0 62-52 62-23 0-115.5-60.5t-97.5-81.5l159-12q71 29 72 30 34 20 34 62z" glyph-name="uniFB77" horiz-adv-x="3787" unicode="&#xfb77;"/><glyph arabic-form="initial" d="M4025 1562q0-90-130-155-101-50-168-50-71 0-71 98 0 72 67 107 16-11 13-63 4 0 10.5-4t21.5-4q26 0 45 41 26 55 31 61 18-12 55-62h27q16 36 63 102 36-35 36-71zM3573 1000q-181-97-545-277h-35q-13 13-13 31 0 23 30 54 25 24 45 33 55 26 279 135 170 84 185 84h42l12-12v-48zM2448 1578q0-57-36-57-13 0-49 20.5t-48 20.5q-13 0-62-50-63-64-84-79-70-53-238-117-16 14-25 14 39 61 83 95 57 36 115 72 109 74 109 106 0 12-51.5 58.5t-51.5 59.5q0 43 65 116t109 73q51 0 61-100 2-54 3-109 11-40 59-61 41-17 41-62zM4291-475q0-73-457-225h-42q-13 14-13 30 0 42 33 58 139 53 422 167h45q0-3 6-9t6-21zM4045 267q2-27-4-74-35-94-70-132-41-45-110-45-64 0-144.5 41t-85.5 41q-12 0-56-29-53-36-86-50-80-33-227-33-135 0-239 61-58 33-178 142.5t-215 165.5q-6-65-11-129-7-76-32-115-47-74-184-98-140-24-151-39-28-59-95-180-104-164-213-234-100-66-275-66-77 0-203 26-153 30-174 71v35q14 2 29 2 39 0 124.5-15.5t127.5-15.5q11 0 36.5 8.5t34.5 8.5q139-5 288.5 101.5t198.5 243.5q-7 4-167 43-110 27-110 96 0 71 50 177 61 131 140 131 58 0 123-128.5t117-128.5q49 0 146 27 120 33 120 71 0 18-46 100-48 86-89 131-98 105-195 209-100 119-100 210 0 144 237 313 55 39 288 170 225 126 708 355h47v-46q0-69-353-244-525-260-550-275-295-176-295-243 0-14 132-132 140-111 409-333 96-91 193-181 120-109 183-119 149-23 184-23 54 0 141 20 91 20 133 43l38 28q30 21 46 21 13 0 113-35.5t112-35.5q59 0 77 35-56 320-96 727-1 12-24 57t-23 56q0 33 45 111 40 68 53 78 9-32 27-95 4-15 39-55 30-36 30-49 0-12-21-64-24-61-30-85zM3789-336q0-20-33.5-54t-53.5-34q-12 0-51.5 20.5t-51.5 20.5-53-30.5-54-30.5q-33 0-69 36-33 32-33 51 0 18 36.5 57.5t55.5 39.5q11 0 45-20.5t47-20.5 54 30.5 53 30.5q25 0 65-32 43-36 43-64zM1434 1381q-14-13-41-13-18 0-47.5 15t-38.5 15q-3 0-125-110-136-122-244-166l-46 13q20 36 73 95 68 46 135 93 109 79 109 107 0 8-51 57t-51 75q0 53 77 123 76 68 114 61 40-37 40-102 0-15-2-42t-2-40q0-28 9-43 36-31 91-83v-55zM1332 938q0-28-37-62-33-31-45-31-17 0-102 54 20 121 77 121 24 0 64-27 43-29 43-55zM564 1511q0-64-50-119t-104-55q-91 0-91 107 0 32 32 106 42 94 95 94 50 0 87-56 31-46 31-77zM513 278q0-131-48-169l-146 992q-5 23 5 59 11 39 29 54 38-11 70-281 10-31 24-92 66-474 66-563zM1547 292q0-70-27-136-36-87-100-96-89-12-95-14-56-11-87-33-18-12-35-59-20-62-29-78-91-159-223-257-138-104-274-104-238 0-436 96-3 6-15 32l14 18q43-1 141-17t106-16q11 0 49.5 8t53.5 8q137 0 274 80 146 85 253 238v36q-90 18-180 37-87 35-87 135 0 54 51 147 59 109 124 109 46 0 114-123t106-123q63 0 162 33 19 7 48 34-16 42-78 152-56 97-56 109 0 31 15 60 16 32 37 32 51 0 116-146 58-127 58-162zM2273 1774q-11 12-38 12v-38q8 0 23 9.5t15 16.5zM1279 1574q0 5-5 24t-5 24q-31 0-49-36zM2079 174q-22 45-67 68-12-13-35-34v-36q46-23 61-23 16 0 41 25zM482 1485q-6 13-23 35h-56q-22-25-12-69h68q6 12 23 34zM1055 196q-9 9-11 23l-32 32h-36q-6-13-23-35 36-36 61-36 26 0 41 16z" glyph-name="uniFB78" horiz-adv-x="4050" unicode="&#xfb78;"/><glyph arabic-form="medial" d="M1986 1763q0-30-190-167-106-75-213-150-48 0-48 46 0 26 66 81 55 46 100 69t227 150h46q0-3 6-8.5t6-20.5zM1504 987q-19-6-56 0-46 8-51 8-13 0-47-32-51-48-62-56-143-109-261-127-14 12-24 12 14 31 154 127 132 90 132 122 0 13-27 42-34 37-41 48-3 12-3 33 0 34 44 105 51 84 104 84 73 0 73-109 0-23-3-59t-3-45q0-10 2-14.5t69-72.5v-66zM941 1394q0-60-136-128-114-56-145-56-32 0-46 15 9 21 49 49 63 45 73 55-11 24-55 24-14 0-49-10-45-14-68-19v47q21 36 73.5 65.5t94.5 29.5q70 0 194-36 15-27 15-36zM2129 227q0-81-40-147-48-78-129-78-10 0-148 25.5t-154 25.5q-10 0-109-20-111-22-161-29-108-12-237-12-10 0-65 5t-68 5q-57 0-77-83-26-111-53-141-7-1-13-1-52 0-112 74-54 68-64 125-2 48-7 142-15 27-47 27-78 0-160-45-99-56-99-137 0-13 2-26l103-770q-2-26-4-53-6-41-34-64l-136 850q0 225 197 353 49 32 113.5 39t80.5 18q15 25 52 80h36q49-161 159-212 71-33 237-33 165 0 286 23 36 7 43 35 14 60 29 121 23 86 61 136 52 56 104 113 77 80 77 115 0 107-45 342-4 16-32 68-26 47-26 61 0 24 30 93 32 74 55 91 40-7 46-45l4-60q27-21 69-61 0-20-3-33-13-45-37-77-11-15-11-92 0-257 44-383 10-29 80-100 93-96 138-154 25-34 25-111zM1371 1217q-14 13-37 13l-24-29q0-2 5.5-13.5t5.5-16.5h38zM2026 177v47q-12 18-57 52-47 38-73 43-3-6-25-33-18-22-18-35v-52q67-34 123-34 13 0 30 6t20 6zM1801 319q0 31-15 68-19 45-46 45-28 0-80.5-56t-52.5-88q0-24 44-50 40-21 64-21 41 0 65 37 21 31 21 65z" glyph-name="uniFB79" horiz-adv-x="2125" unicode="&#xfb79;"/><glyph arabic-form="isolated" d="M1377 2104q0-20-138-116-96-66-193-133h-47v44q0 29 138 124 97 64 193 127h47v-46zM1152 1776q0-27-98-85-60-33-120-65-45-29-144-88h-34q-13 13-13 30 0 52 362 255h47v-47zM1306 1434q0-72-105-137-90-57-146-57-32 0-54.5 23t-22.5 53q0 39 47 109 9-22 41-63 40 8 50 55 13 53 43 68 11-28 39-71 28 29 49 91h36q23-45 23-71zM1265 815q0-31-29.5-64t-47.5-33q-15 0-54 25-43 28-43 52 0 23 25 64 28 43 51 43 27 0 62.5-33t35.5-54zM2267-122q-5-24-14-59-130-104-493-258-14 15-14 36 0 46 34 63 4 1 251 134 157 84 172 84h64zM2381 451q0-111-255-216-181-75-282-88-162-21-357-27-13-8-26-24-61-225-200-354.5t-318-129.5q-49 0-193 33-154 34-201 61 0 7-11 24 25 26 46 26 13 0 112.5-15.5t112.5-15.5q320 0 511 275 78 112 78 129 0 13-28 47-46 57-51 63-3 12-3 39 0 32 24 82 129-95 279-95 25 0 49 2 27 11 27 46 0 13-5.5 46.5t-5.5 50.5q0 15 3 27 2 7 56 114 119 239 270 239 133 0 214-137 0-38-30-38-13 0-56.5 20.5t-56.5 20.5q-72 0-173-52-114-59-114-121t59-116q53-48 100-48 75 0 193 60 92 52 185 103h34q13-13 13-31zM804 283q0-102-15-137-7-5-44-21l-146 1053q2 30 4 58 7 40 43 66 26-26 31-76 16-154 78-503 49-275 49-440z" glyph-name="uniFB7A" horiz-adv-x="2378" unicode="&#xfb7a;"/><glyph arabic-form="initial" d="M1901 1633q-56-38-413-257h-45q-12 2-12 26 0 67 424 291l46-11v-49zM1278 1928q0-33-144-119-166-99-331-197h-35q-13 13-13 30 0 40 25 57 105 72 483 261 15-15 15-32zM1278 1520q0-59-36-99-16-18-117-58-96-38-114-38-36 0-72 32 0 23 2 66 3 39 34 65 6-3 26-23 16-17 31-17 24 0 39 34 13 34 24 67h37q25-51 47-51 28 10 32 43 4 38 31 61 36-42 36-82zM2373 1525q0-87-187-204-232-145-429-299-116-79-233-157-112-78-165-179 28-28 58-35 141-31 259-121 144-111 144-244 0-162-112-248-96-74-241-74-50 0-122 23-93 29-106 72-17 56-33 248-18 197-48 301-7-13-22-38-67-468-343-579-25-18-82-45-98-22-288-75-31 0-48 6l-17 6q1 62 227 137 194 66 341 262 139 184 153 362 11 56 31 174 9 107 18 213 16 131 75 160l43-401 17-18q394 358 1095 789 15-16 15-36zM918 364q-28 0-37 11-41 85-131 216-133 191-205 191-10 0-37-10t-40-10q-82 0-136 68-48 62-48 146 0 64 23 103h32q87 0 364-252 109-134 171-242 47-83 44-144v-77zM1748 211q-7 130-163 198-148 53-295 106-23-116-23-168 0-220 200-220 57 0 152 25 108 27 129 59z" glyph-name="uniFB7C" horiz-adv-x="2415" unicode="&#xfb7c;"/><glyph arabic-form="isolated" d="M5919 1318q0-29-372-232-47-34-146-89-25 25-25 36 0 57 230 188l276 144h37v-47zM5067 1231q5-51-91-116-77-45-155-90-88-50-267-160h-36q0 3-6 12t-6 22q0 42 221 175 194 116 317 169 14-12 23-12zM3984 1584q0-32-122-101-115-66-141-66h-63q-3 10-12 26 3 2 134 103-18 45-52 45-17 0-44.5-17.5t-47.5-17.5q-18 0-41 12 4 40 63 84 55 41 91 41 61 0 235-73v-36zM5090-287q0-31-44-62-36-26-48-26-13 0-46.5 15.5t-46.5 15.5-61.5-30.5-61.5-30.5q-31 0-68 37-34 33-34 50 0 29 43 60 37 27 50 27 10 0 52.5-20.5t54.5-20.5q11 0 53.5 36t53.5 36q31 0 68-35 35-32 35-52zM6236 306q0-81-43-146-49-74-125-74-13 0-84 15t-80 15q-12 0-47-23-41-29-54-35-56-24-145-24-13 0-82 20.5t-82 20.5q-10 0-67-19-62-23-96-29-75-13-185-13-115 0-156 13-19 7-76 50-52 39-65 39t-55-33q-49-38-66-45-105-44-227-44-138 0-224 54-33 22-164 146-126 121-275 210-3-14-3-29 0-28 12-87t12-88q0-66-44-112-61-66-204-81-116-13-242-13-200 0-343.5 46t-142.5 46q-13 0-88-27-94-33-125-42-65-7-185-26-44-10-60-60l-22-78q-116-198-221-272-97-68-246-68-91 0-208 24-132 28-150 62 0 5 6 17.5t6 17.5q103-19 218-19 78 0 102 3 44 5 123.5 42.5t129.5 79.5q193 157 193 244 0 12-31 68.5t-31 69.5q0 21 14 42 14 24 32 24 12 0 49-18 40-18 55.5-20.5t75.5-2.5q113 0 207 43 6 4 11 24-4 16-4 36 0 116 93 254 98 145 200 145 63 0 101-96 27-70 27-125 0-58-28-115l-54-100q0-10 17-23 207-43 203-43h138q76 0 189 21 135 25 149 56 5 12 5 25 0 73-192 281.5t-192 266.5q0 182 443 458 265 165 502 281 332 161 379 188h45q14-2 14-26 0-33-47-85-53-60-294-169-108-55-318-154-47-19-317-190-315-198-315-241 0-16 144-115 201-139 315-233 113-112 348-311 40-29 130-48 68-15 102-15 89 0 203 43 23 9 85 52 56 38 71 38 10 0 70-37 69-43 95-53 58-23 158-23 31 0 117 17 106 21 151 47 40 23 92 130h26q32-23 19-87l-10-20q-7-15-7-30 0-36 61-36 41 0 108 20 75 23 95 49 23 50 46 99 31 66 75 78 13-11 13-28 0-12-8.5-41t-8.5-45q0-36 34-61h121q20 32 5 124-14 85 26 122 28 0 43-23 35-127 35-166zM3073 1452q0-13-6-23t-6-20q-13-6-27-6-16 0-48.5 12t-51.5 12q-13 0-88-69-104-96-123-111-6-5-135-64h-47q17 36 129 119 114 84 157 160-33 29-66 57-26 25-26 51 0 43 59 121 64 84 115 84 56 0 59-97 3-118 4-120 13-19 62-57 39-30 39-49zM2888 931q0-18-32-52.5t-50-34.5q-19 0-55 30t-36 46q0 15 28 54 31 43 53 43 24 0 58-32.5t34-53.5zM2417 1340q0-46-46-46-13 0-28 5t-28 5q-15 0-24-3-70-61-141-121-148-121-190-121h-54v38l154 110q143 106 143 138 0 11-51.5 63.5t-51.5 64.5q0 47 65 124 72 86 136 86 54-44 54-138 0-48-13-102 16-33 50-57 25-18 25-46zM1025 1504q0-34-245-193-167-108-313-191-15 11-25 11v44q-1 25 228 170 187 118 308 184h34q13-1 13-25zM831 818q0-32-44-62-36-25-54-25-22 0-53 23-34 28-34 54 0 24 23 54 26 33 59 33 35 0 71-33 32-30 32-44zM1864 234q0-274-308-533-28-10-83-37-62-39-223-39-281 0-348 76 8 17 35 33 99-16 190-16 198 0 372 114 164 107 274 291l-8 45q-78-62-115-62-62 0-107 77-37 63-37 113 0 64 46 156 57 115 133 115 79 0 136-157 43-118 43-176zM1179 265q0-91-7-115-5-20-49-112-38-78-203-147-147-61-243-61-123 0-227 81-111 87-111 205 0 43 65 192 40 93 109 93v-35q0-13-41-84t-41-84q0-106 110-164 80-40 162-40 86 0 226 49 178 62 178 145 0 26-17.5 74.5t-80.5 161.5q-56 100-56 113 0 35 45 101 69-33 126-155 55-118 55-218zM2897 1652h-37q-22-23-22-37l22-23h37v60zM2294 1481v45q-7 11-14 21-11 14-27 14-23 0-50-48 45-45 61-45 17 0 30 13zM3062 398q0 22-18 54-25 44-64 44-27 0-88-56-65-59-65-98 0-15 25-46 30-36 62-36 33 0 88 46 60 50 60 92zM1732 337q0 19-24 42.5t-44 23.5q-25 0-47-33-19-28-19-43 0-47 62-47 24 0 48 16.5t24 40.5z" glyph-name="uniFB7E" horiz-adv-x="6239" unicode="&#xfb7e;"/><glyph arabic-form="final" d="M3820 1318q0-22-209-162-153-99-307-199h-37v44q0 49 506 353h47v-36zM4793 239q0-135-111-208-88-58-207-58-93 0-170 34-15 6-64 41-38 27-63 27 10 0-136.5-45.5t-206.5-45.5q-64 0-141.5 41t-88.5 41q-9 0-104-56.5t-178-56.5q-61 0-124 29-78 34-103 97-71 182-92 440-17 252-34 503-2 16-16 72-14 54-14 67 0 42 15 64 15 19 29 38 37-22 53-160l22-244q13-151 50-471 24-153 73-214 56-68 177-68 84 0 174 56.5t103 56.5q16 0 98.5-41t141.5-41q85 0 202 50-1 7 9 17-41 52-133 47v33q-1 17 29 53 28 34 55 51 81 56 192 56 64 0 134-37 81-42 81-96 0-38-28-68-35-37-44-69 37-37 143-37 78 0 94 3 35 7 92 45 5 12 5 24 0 33-54.5 108t-54.5 111q0 31 23 77 3 0 8.5 5.5t19.5 5.5q50 0 100-125 44-106 44-152zM4752-303q0-25-33-58.5t-49-33.5q-29 0-67 35-35 32-35 47 0 27 33 59.5t53 32.5q29 0 63.5-28t34.5-54zM5039-410q0-47-199-149-173-89-259-112l-13 12v48q375 226 405 226h53q13-1 13-25zM2826 1420l-433-299h-45q-13 13-13 30 0 32 23 46 152 101 432 280h36v-57zM4423-444q-44-39-237-145-189-103-208-103h-42q-13 14-13 31 0 38 187 136 134 64 267 129h46v-48zM3779-318q0-21-32-54t-49-33q-20 0-59 23-44 27-44 54 0 14 30 53 32 44 52 44 32 0 67-31.5t35-55.5zM2837 244q0-112-35-166-29-43-185-87-132-38-174-38-159 0-159 97 0 87 46 87 13 0 64.5-10.5t63.5-10.5q202 0 308 89 6 88-246 261-5 89 35 121 146-37 220-143 62-88 62-200zM2049 782q0-36-44-62-33-20-48-20-12 0-43 10.5t-44 10.5-54-31-54-31q-17 0-54.5 30t-37.5 47q0 29 43 61 37 26 49 26 10 0 44-10t48-10q13 0 54 25.5t54 25.5q23 0 55-24t32-48zM1035 1207q0-54-155-126-137-64-173-64-24 0-50 27 112 55 184 114-7 34-67 34-26 0-64-18.5t-53-18.5q-11 0-21 4 32 48 64 95 35 40 89 40 49 0 143-28 103-32 103-59zM2182-451q0-49-194-159-160-91-201-102-14 11-24 11v47q86 76 372 228h35q12-1 12-25zM2039 296q0-31-27-66-25-32-40-32-13 0-61.5 20.5t-61.5 20.5q-31 0-140-51-117-54-140-90-55-84-55-179 0-27 5-52 2-11 15-58 12-38 12-59 0-10-3-18-10-44-89-147h-38q-43 37-81 198-22 92-11 217 4 39 18 78-9 28-41 28-13 0-99.5-15.5t-99.5-15.5q-11 0-55.5 5.5t-57.5 5.5q-83 0-86-79-3-113-55-166-39 5-102 60-66 57-76 97-12 59-43 181-14 4-31 4-70 0-136-45-70-49-70-111 0-21 10-42l93-712q0-129-39-148l-125 844q19 77 39 155 30 90 95 151 40 37 104 55 46 12 93 24 9 14 42 49 23-12 69-62t77-69q90-53 285-53 196 0 294 53 32 17 79 73 51 59 80 78v-47q1-11-56-93-71-102-93.5-143.5t-22.5-87.5v-32l16-16q25 28 61 98 38 77 59 104 53 68 133 111 160 86 217 86 36 0 86-36 53-39 53-71zM1649-524q1-33-173-130-132-73-240-120h-34q-13 14-13 31 0 32 23 46 30 17 225 127 146 82 158 82h54v-36z" glyph-name="uniFB7F" horiz-adv-x="4793" unicode="&#xfb7f;"/><glyph arabic-form="initial" d="M4300 1289l-208-140q-129-82-218-117-14 14-14 31 0 40 183 154 153 94 242 132l15-12v-48zM3675 1219q-304-229-457-289l-24 25q5 22 25 55 69 49 409 256h47v-47zM2855 1474q-24-22-45-22-10 0-37 10t-40 10q-14 0-23-3-139-128-160-146-99-83-170-106l-56 13q10 11 169 142 127 105 127 131 0 11-51 57.5t-51 59.5q0 31 49 105 57 85 105 85 56 0 65-81 5-53 9-106 21-42 109-101v-48zM4402 238q0-103-80-247-126-228-249-307-102-64-275-64-67 0-182 23-94 18-124 30v37q7 1 173 1 181 0 369 118 221 138 286 357l-16 16q-20-8-64-55-35-36-79-36-72 0-115 76-33 58-33 113 0 68 60 166 63 105 119 105 75 0 149-155 61-128 61-178zM3869 1691q1-39-99-106-54-32-108-65-102-66-236-137-234-119-469-238-449-241-449-313 0-13 246-236 267-241 427-361 72-53 269-53 223 0 266 66-13 31-63 123-39 74-39 88 0 35 23 81h46q105-121 105-250 0-17 2.5-37t2.5-29q0-36-50-122-24-38-154-60-73-13-175-13-125 0-223 50-100 53-299 226-22-23-35-121-12-93-48-123-20-18-97-45-72-25-101-57-24-27-87-203-27-75-136-158-104-80-191-99-59-13-119-13-74 0-187 26-130 30-140 63 19 11 65 12 31 0 82.5-4t56.5-4q155 0 308 89 163 95 256 255v37q-31 18-52 18-13 0-33.5-5t-32.5-5q-169 0-169 132 0 65 52 161 58 105 111 105 58 0 127.5-112.5t97.5-112.5q67 0 176 69 3 10 3 23 0 85-186.5 283.5t-186.5 254.5q0 142 170 285 120 102 342 215 134 65 269 131 201 107 637 346 15-11 25-11v-46zM1790 1382q-18-6-54 0-48 8-52 8-3 0-39-13-222-207-365-200 4 17 147 121 139 101 139 133 0 13-28 39-27 22-53 45 1 50 35 123 46 100 112 100 57 0 75-93 5-53 9-106 2-16 74-91v-66zM3419-412q0-35-37-65-30-26-50-26-11 0-42.5 15t-44.5 15-59-30.5-59-30.5q-18 0-52 25t-34 42q0 18 34 62.5t52 44.5q13 0 41-15.5t41-15.5 56.5 30.5 56.5 30.5q28 0 62.5-29.5t34.5-52.5zM1679 976q0-34-23-60.5t-49-26.5q-27 0-58 23-34 25-34 53 0 21 26.5 59.5t44.5 38.5q32 0 64-37 29-32 29-50zM766 1547q1-29-177-143-240-153-296-197h-36q0 4-6 9.5t-6 20.5q0 46 180 162 147 93 295 185h46v-37zM1935 274q0-173-106-212-75-11-215-57-15-9-41-85-37-104-148-222-116-123-231-168-34-13-135-13-183 0-361 62-1 7-12 23 0 10 12 22 13 16 28 16 13 0 87.5-10t87.5-10q128 0 208 23 78 22 193 106 135 101 193 205v27q-22 9-81.5 14t-90.5 16q-85 34-85 136 0 51 50 159 58 122 109 122 42 0 101-100 40-69 79-138 16-18 66-18 14 0 172 33 14 12 38 33-16 48-73 172-50 108-50 120 0 35 23 81h36q146-186 146-337zM562 827q0-23-31.5-57.5t-49.5-34.5q-32 0-67.5 29t-35.5 53q0 25 23 57 24 35 49 35 37 0 76-30 36-29 36-52zM921 243q0-409-461-409-317 0-317 256 0 64 54 180 57 125 108 147v-37q1-13-39.5-104.5t-40.5-103.5q0-101 103-150 72-34 158-34 80 0 203 38 171 54 171 141 0 65-49 161-105 211-105 213 0 40 35 91 180-95 180-389zM4238 336q0 21-15 45-20 32-53 36-44-44-44-76 0-67 56-67t56 62zM2670 1647q0 14-14 26.5t-23 12.5v-39h37zM1636 1614h-37l-12-37 47-12q1 0 1.5 1.5t.5 47.5zM2425 132v37q-32 33-55 33-26 0-26-35 0-13 24-35h57zM1443 175q-2 29-21.5 54t-39.5 25q-27 0-51-57 34-36 71-36 27 0 41 14z" glyph-name="uniFB80" horiz-adv-x="4397" unicode="&#xfb80;"/><glyph arabic-form="medial" d="M3034 1492q0-75-476-312-15 11-25 11v44q0 25 88 77l98 54q147 89 301 151 14-1 14-25zM2439 1612q-66-71-223-154-131-68-262-135-15 11-25 11v44q-1 27 464 282h46v-48zM2030 947q-31-43-120-93-96-54-161-54-12 0-33.5 6t-31.5 6v38q56 19 162 80-11 34-56 34-31 0-76.5-18.5t-66.5-18.5q-13 0-25 4 53 136 209 136 61 0 114-25 28-26 85-59v-36zM843 1221q0-48-125-110-109-55-137-54h-93q-7 12-24 34 12 26 70 44 67 21 94 50-22 25-61 25-27 0-54-8.5t-39-8.5q-13 0-29 5 16 50 62.5 87.5t95.5 37.5q23 0 217-66 23-15 23-36zM3176 343q1-63-100-150-80-68-127-86-311-115-442-115-63 0-140 57-76 55-118 127-15-2-43-32-39-42-44-47-24-20-81-37-54-17-86-17-63 0-144.5 61t-127.5 61q-41 0-239-54-114-32-158-116-24-48-24-125 0-83 28-168 5-14 5-30 0-42-38-99-33-46-67-92h-47q-40 42-70 139-24 86-24 142 0 133 61 295-16 17-25 17t-95-20.5-105-20.5q-12 0-85 10t-84 10q-43 0-60.5-128t-77.5-128q-41 0-91 55-46 53-50 94-7 77 4 164 5 38-13 56-154-28-195-50-65-35-65-129l102-839q0-10-5-49.5t-5-55.5l-25-24q-7 7-22 15-16 163-74 556-53 362-53 366 0 79 41 163 48 101 136 155 30 18 102 37 83 22 104 31 40 18 61 79 23-11 45-59 32-70 35-76 33-50 144-78 86-22 167-22 132 0 254 64 38 20 90 80 62 73 84 91h45q13-13 13-40 0-42-54-102-39-40-78-81-68-83-104-190l16-16q46 65 171 189 56 41 183 89 134 49 204 49t128-56.5 133-56.5q71 0 125 32 64 36 64 102l-81 768q0 61 33 112 26 0 34-13 23-74 32-210 8-121 16-243 7-88 34-234l28-176q40-158 116-158h46q7 16-2 47-10 39-10 46 0 63 87 200 79 127 120 153 87 56 151 56 53 0 117-40 75-48 99-120-12-14-12-23h-43q-4-1-41 24.5t-84 25.5q-66 0-159-49-112-59-112-136 0-68 80-120 65-44 109-44 79 0 212 76 86 49 171 98v-37zM2021-422q0-19-33-53.5t-55-34.5q-11 0-51 20.5t-51 20.5q-13 0-61.5-41t-61.5-41q-21 0-62 34-45 35-45 59 0 36 43 67 34 24 49 24 11 0 49.5-15t53.5-15q12 0 60.5 35.5t61.5 35.5q24 0 63.5-36.5t39.5-59.5zM1550-607q0-65-239-152-27-10-127-54-77-34-91-34h-53q-13 14-13 30 0 45 111 88 59 18 118 37 82 35 246 110h35q13-1 13-25z" glyph-name="uniFB81" horiz-adv-x="3178" unicode="&#xfb81;"/><glyph arabic-form="isolated" d="M2517 760q0-33-27-64.5t-55-31.5q-31 0-66.5 31.5t-35.5 49.5q0 20 27 59 32 44 59 44 33 0 65.5-31t32.5-57zM1319 1748q0-40-54-68-155-81-410-238h-35q-13 1-13 25 0 43 44 72 359 241 403 239h54q0-4 5.5-9.5t5.5-20.5zM1380 1588q0-33-202-146-136-71-272-144h-35q-13 14-13 31 0 39 211 158 127 69 254 137h57v-36zM1422 1165q0-75-52-115-43-32-147-52-5-2-36-16-28-11-42-11-40 0-64 33-18 27-18 54 0 29 34 86 17-20 56-62 7-1 14-1 30 0 51 54 26 72 34 81 18-12 34-39 19-33 29-43 40 13 46 50 11 60 11 62h38q0-11 6-39.5t6-41.5zM2885-146q-5-24-15-58-170-126-513-248-14 14-14 31 0 45 44 67 420 209 433 208h65zM3080 402q0-61-66-177-69-121-307-187-181-50-354-50-11 0-64 5t-64 5q-59 0-88-80-38-99-58-113 0 27 9 96t9 101q-105 88-133 88-9 0-56-40-53-46-80-59-47-23-146-23-116 0-171 48-29 26-116 166-85-103-219-162-121-52-236-52-174 0-174 122 0 103 46 103 12 0 37-24t36-26q75-12 102-12 104 0 232 59 151 70 151 161 0 10-25.5 156.5t-25.5 160.5q0 80 47 149 23-61 54-276 29-196 73-281 66-129 205-129 95 0 157 34 30 17 78 64 34 35 62 35 12 0 104.5-46t105.5-46q15 0 282.5 184.5t346.5 184.5q56 0 147-44 99-48 99-95zM602 254q0-129-14-192l-33-33-148 1089q-2 67 34 138h37zM2936 322q-107 65-158 65-108 0-353-222 10 0 24-13h41q100-1 310 63 118 36 136 107z" glyph-name="uniFB82" horiz-adv-x="3085" unicode="&#xfb82;"/><glyph arabic-form="isolated" d="M1585 1854q0-39-166-153-98-64-196-127h-47v43q-1 25 152 125 105 68 209 137h36q12-1 12-25zM1614 1407q-1-44-92-85l-156-66h-36q-4 18-29 66-23 44-23 56 0 21 54 89 59 75 94 75 21 0 56-33v-47q-10-19-71-40 12-24 61-24 7 0 54 4.5t88 4.5zM1124 1801q1-27-207-160-85-54-239-150-15 15-15 41 0 48 199 178 146 95 236 139 15-12 26-12v-36zM1595 252q2-46-12-98-17-60-46-75l-147 992q5 118 69 153zM797 922q0-43-127-113-117-66-157-65h-51l-24 23q-1 24 57 53 44 21 87 43 0 19-19 31-27 13-43 13-14 0-47-21-39-26-51-30-14 14-14 30 0 38 64 82 59 41 89 41 11 0 224-53 0-3 6-11t6-23zM1155 313q0-153-45-207-63-75-275-93-20-15-53-85-15-33-51-41-53-13-68-13-13 0-61 10t-61 10q-14 0-62-41-70-58-84-68-29-20-120-47-97-28-149-28-27 0-77 25 31 24 189 98 143 68 217 140 5 13 0 27-9 23-9 51 0 83 62.5 167.5t118.5 84.5q14 0 116.5-66.5t160.5-66.5q35 0 98.5 20t70.5 36q1 31-45 316-25 140-71 410-4 24-27 88-21 59-21 72 0 37 27 108 31 83 68 96-1-50 20-135 10-19 41-34 42-21 49-27-6-26-34-98-27-67-27-79 0-10 18-99 22-103 29-157 16-76 33-151 22-107 22-223zM693 48v36q-55 86-86 86-28 0-56-32v-38q67-63 112-63 15 0 21 5.5t9 5.5z" glyph-name="uniFB84" horiz-adv-x="1885" unicode="&#xfb84;"/><glyph arabic-form="final" d="M1510 1648q1-19-101-82-58-34-115-69-74-46-239-129-8 5-16.5 10t-8.5 20q0 47 53 78 23 12 222 135 136 84 151 83h54v-46zM1511 943q0-17-30.5-52t-46.5-35q-12 0-45.5 15t-46.5 15-51-25-51-25q-35 0-66.5 19.5t-31.5 46.5q0 25 41 63 36 34 46 34 11 0 37.5-15.5t39.5-15.5 51.5 31 51.5 31q41 0 73-31 29-27 29-56zM947 1565q-51-53-182-130-121-69-240-138h-47v44q-1 29 177 135 128 73 256 147h36v-58zM1552 339q0-130-83-192-63-49-196-68-118-13-236-25-13-9-26-25-105-221-214-323-128-119-304-119-55 0-183.5 43.5t-139.5 64.5l13 16q28 5 107-3 89-9 90-9 177 0 350 119 181 123 188 264-62 45-71 74-1 1-1 45 0 34 23 81h42q10 1 42-21 36-23 53-28 51-12 116-12 82 0 189 21 149 28 149 77 0 37-89 130-3 13-3 38 0 41 33 92 58-8 104.5-84.5t46.5-155.5z" glyph-name="uniFB85" horiz-adv-x="1548" unicode="&#xfb85;"/><glyph arabic-form="isolated" d="M1793 1771q1-37-413-279h-36v57q248 182 402 258h47v-36zM1835 1302q-36-51-148-94-160-62-167-65-4 19-30 67-24 45-24 56t106 182q20 32 63 32 23 0 53-19 34-22 34-47 0-21-17-43.5t-34-22.5q-13 0-39.5 15t-36.5 15q-27-21-27-44 33-27 82-27 32 0 172 19 4-10 13-24zM1231 1660q-8-26-34-63-91-64-220-140-134-79-152-78h-44v58q169 111 207 134 127 79 218 114zM1814 231q-2-30-5-61-9-36-54-61l-146 895q-9 108 59 138zM933 1740q0-67-196-144-165-64-208-64-12 0-61.5 10t-61.5 10q-18 0-89-41-2 27 27 89 37 75 82 75 13 0 65.5-15.5t63.5-15.5q75 0 187 46 104 43 154 86h37v-36zM1210 1271q0-23-30.5-73t-54.5-63q-31-16-104-27-12-2-51-20-37-17-52-17-76 0-76 72 0 40 34 92 6-4 31-29 22-22 37-22 34 0 57 47l28 64q14 0 65-51h27q12 32 42 93 47-28 47-66zM1323 809q0-29-37-59-33-27-50-27-42 0-97 53-1 6-1 12 0 42 32 72 27 26 50 26 38 0 71-27 32-25 32-50zM1486 242q0-147-63-194-36-26-166-56-251-57-380-57-31 0-112 22-89 24-107 43-70 77-92 262-14 140-29 280 0 1-7 114-4 71-26 218-21 139-21 146 0 92 57 112l17-13q25-77 42-241 12-131 23-262 11-134 21-268 17-127 71-183 66-67 219-67 109 0 259 28 203 37 203 95 0 11-41 81t-41 83q0 21 22 91 3 0 8.5 5.5t20.5 5.5q32 0 77-80 36-65 41-98 4-22 4-67z" glyph-name="uniFB86" horiz-adv-x="1808" unicode="&#xfb86;"/><glyph arabic-form="final" d="M3546 1838q0-38-198-152-155-89-237-124-15 12-25 12v33q0 32 189 140 184 106 257 122 14-14 14-31zM3606 1366q0-49-43-67-77-27-226-95h-32q-9 0-9 10 0 1 3 22 2 15-2 21-1 2-37 48-21 28-21 47 0 25 63.5 97t89.5 72q28 0 57-33 25-30 25-49 0-17-18.5-33.5t-37.5-16.5q-10 0-29.5 6t-48.5 6q19-44 113-44 64 0 153 9zM3567 216q-3-51-7-68-12-50-52-80l-146 941q1 54 7 77 13 51 52 66zM3187 1040q0-50-135-122-120-62-157-62h-32l-23 25q6 27 54 49 57 26 79 55-7 24-46 24-15 0-51-16-46-21-54-24-13 1-13 25 0 41 65 82 58 36 94 36 13 0 85-18 83-19 111-24 8-4 15.5-9t7.5-21zM2420 1414q0-43-285-214-230-138-438-242-15 14-15 36 0 46 228 179 414 241 452 266h45q13-1 13-25zM3218 211q0-95-76-224-65-113-134-172-40-33-130-60-86-25-146-25-20 0-247 44-42 8-75 41 0 38 46 38 12 0 71-10t72-10q155 0 335 102 202 114 202 250 0 44-38 89-57 68-71 94-4 11-4 38 0 46 36 81 79-30 123-121 36-74 36-155zM1591 1496q0-39-122-109-86-49-139-71l-87 13v37q49 21 133 70-4 34-42 34-13 0-45-11-40-14-65-19-13 1-13 25 0 42 75 78 60 30 84 30 12 0 87-23 83-24 121-30 13 0 13-24zM1078 1623q-19-76-36-88-35-25-418-269h-36v58l443 299h47zM2574 262q0-74-51-137-54-68-129-68-10 0-67.5 15.5t-70.5 15.5-41-20q-34-25-44-29-57-23-125-23-11 0-55.5 5t-57.5 5q-9 0-126-35.5t-221-35.5q-126 0-198 45-5 2-32 38-22 29-37 29-3 0-60-40.5t-114-40.5q-13 0-95 30.5t-94 30.5q-13 0-40-21-36-27-55-37-67-34-212-34-98 0-119 6-55 14-103 78-30 39-38 176-8 98-17 298-5 173-31 429-1 19-16 64-14 42-14 55 0 41 33 91 30 0 44-23 38-131 47-292 5-131 11-263 3-99 4-199 6-128 45-191 52-86 174-86 91 0 177 33 25 10 65 44 29 26 70 26 13 0 110-31t110-31q51 0 86 40 27 32 27 63l-82 716q0 19 18 64 21 53 41 59 27-58 36-162 4-80 7-160 10-57 27-174 11-128 21-256 13-116 60-163 58-58 199-58 31 0 97 13 84 17 121 40 30 19 62 73 37 63 53 79 22-20 22-46 0-15-8-42.5t-8-39.5q0-31 15-35 1-1 40-1 38 0 99 19 65 20 77 39t46 112q20 58 68 76 18-62 5-137 31-37 90-37 42 0 58 18 1 47 6 139 4 59 33 89 18-21 39-110 18-76 18-95zM925 584q0-22-24-52-26-35-53-35-28 0-86 54 0 22 22 68 28 53 54 53 32 0 60-34 27-29 27-54z" glyph-name="uniFB87" horiz-adv-x="3571" unicode="&#xfb87;"/><glyph arabic-form="isolated" d="M5321 1565q0-81-92-147-83-58-159-58-10 0-39.5 5t-42.5 5q-14 0-41-11-37-15-54-19 5 48 77 94 43 25 87 50 22 15 94 100 54 63 94 63 31 0 53.5-25.5t22.5-56.5zM5188 182q0-85-59-112l-125 943q14 36 28 74 21 51 42 57zM4195 1711q0-19-220-146-226-132-340-175-13 2-13 26 0 39 74 82 427 251 454 249h45v-36zM4154 1308q0-72-79-122-63-40-130-46-14 0-47-13t-46-13q-66 0-66 71 0 15 33 81 9 0 32-20t37-20q51 0 84 112h37q0-32 29-61 33 2 44.5 32t22.5 60h38q0-11 5.5-29.5t5.5-31.5zM4113 889q0-28-24-59-26-34-53-34-25 0-63 37-34 35-34 50 0 18 25 54 30 44 62 44 29 0 61-43 26-36 26-49zM4246 719q0-28-42-60-38-27-55-27-13 0-41 16t-41 16-53.5-26-54.5-26q-27 0-58 25-33 26-33 52 0 32 43 62 35 25 48 25 12 0 40.5-15.5t41.5-15.5 51.5 31 51.5 31q19 0 60.5-34.5t41.5-53.5zM3233 1472q0-47-96-101-69-38-103-46-14-3-80-50-138-99-283-171v58q273 218 547 340 15-14 15-30zM2628 587q0-28-18-86.5t-28-72.5q-11 51-39 146-10 25-57 95-42 61-42 76 0 51 41 51 65 0 143-209zM4758 320q-18-142-33-176-36-74-146-74-12 0-90 15t-89 15-51-30q-45-32-65-39-10-2-79-2-13 0-59 5t-59 5q-12 0-76.5-15.5t-76.5-15.5q-13 0-110 25.5t-110 25.5q-10 0-67-20-64-23-91-28-112-23-293-23-151 0-222 33-6 4-66 45-50 34-65 34-11 0-47-25-39-28-54-33-81-30-154-41-25-5-195-17-366-27-615-27-28 0-95.5-1t-104.5-1q-379 0-447 159-30 70-39 178-8 85-41 126-120-63-146-111-6-9-1-28 5-25 5-30 0-159-41-229-125-206-467-206-121 0-207 54-110 69-110 207 0 147 148 302 16-16 16-31 0-11-36-94.5t-36-99.5q0-100 88-152 73-43 178-43 115 0 231 42 158 56 158 157 0 12-51 145.5t-51 146.5q0 47 46 93 77-52 113-52 87 0 193 154 52-29 67-124 7-78 13-157 14-125 98-189 69-53 166-53 40 0 120 47 86 52 112 104 24 49 24 121 0 90-86 695-2 16-20 66-16 45-16 68 0 80 64 159 38-7 43-46 3-30 7-59 4-8 29-40 20-24 20-39 0-13-20.5-102.5t-20.5-102.5q0-1 26-164 28-178 38-281 12-115-3-194 17-16 31-16 5 0 117.5 66.5t189.5 66.5q195 0 195-118 0-66-34-112-44-55-89-112 41-27 82-27 98 0 251 20 199 24 295 64 16 7 66 46 45 34 59 34 11 0 63-43 57-47 82-57 81-33 212-33 137 0 277 23 30 5 90 40 5 3 48 53 34 39 60 36 1-4 1-115 28-16 104-16 113 0 155 27 29 18 113 126 5 0 18-6t19-6q0-8-4.5-40t-4.5-45q0-30 19-36h33q77 0 115 70 54 100 74 114 16-11 16-40-1-37 1-44 32-39 111-39 88 0 102 26-42 339-106 695-3 18-26 70-21 48-21 64 0 24 30 90 33 73 59 79 9-12 38-96 19-53 66-49v-77q1-12-19-39-25-35-29-43-2-4-2-49zM3161-289q0-29-32-60t-55-31q-13 0-48.5 20.5t-49.5 20.5q-12 0-50.5-26t-51.5-26q-20 0-59 24-43 28-43 53 0 33 36 62 30 25 46 25 11 0 50-15.5t52-15.5 51.5 25.5 50.5 25.5q33 0 68-29t35-53zM774 1445q1-15-162-126l-270-184h-37v58q173 136 423 288h46v-36zM2239-287q-60-44-237-143-189-104-219-104h-43q-12 2-12 26 0 34 106 88l132 62q99 56 259 131l14-13v-47zM591 673q0-39-42-64-30-18-50-18-82 0-82 62 0 27 27 59.5t45 32.5q21 0 61.5-27t40.5-45zM1369-344q0-32-33-62-31-26-54-26-18 0-57 20.5t-50 20.5q-13 0-56.5-35.5t-56.5-35.5q-34 0-70 29-32 27-32 48 0 36 33 64 27 22 48 22 15 0 55-20t53-20 56.5 40.5 56.5 40.5q34 0 72-32 35-31 35-54zM5219 1506q0 10-14 28-6-5-24-18.5t-24-18.5q35-18 62 9zM2208 256v36q-66 33-122 33-66 0-170-71l-158-108 77-15q129 27 193 46 109 33 180 79z" glyph-name="uniFB88" horiz-adv-x="5183" unicode="&#xfb88;"/><glyph arabic-form="final" d="M1690 1475q0-36-163-142-125-80-250-158h-47q5 28 13 68 205 154 433 258 14-2 14-26zM1116 1608q0-38-210-181-148-101-254-161h-35q-13 1-13 25 0 36 216 182 213 144 283 160 13-1 13-25zM1854 451q0-44-102-128-57-44-115-88-50-41-155-70-98-26-181-26-150 0-283 123-33-12-44-59-6-40-11-79 13-22 156-42 131-19 131-86 0-198-289-315-209-84-377-84-176 0-284 84-115 91-115 254 0 76 57 194 56 115 103 143 14-2 14-25 0-9-31-68-38-73-49-98-2-6-2-55 0-134 115-216 96-70 208-70 122 0 253 37 157 44 254 124-15 45-133 58-140 15-184 48-5 33 30 77 34 42 69 84 25 34 50 141 4 16 4 97l-52 639q0 143 48 158 20-43 37-270 3-40 45-235 15-92 31-184 31-108 132-181h27q6 10 3 27-5 23-5 30 0 23 38 94 97 186 97 187 64 92 157 92 43 0 102-36 69-41 117-110 0-38-35-38-13 0-74.5 20.5t-73.5 20.5q-57 0-123-25-93-35-93-98 0-62 80-121 70-52 115-52 41 0 154 66 80 48 159 97 25-25 25-36z" glyph-name="uniFB89" horiz-adv-x="1846" unicode="&#xfb89;"/><glyph arabic-form="isolated" d="M4843 1566q0-88-88-150-76-54-153-54-11 0-42.5 5t-44.5 5q-32 0-65-22-44-29-87-59 24 42 48 83 31 49 65 75 34 8 92 37 39 52 123 147 25 25 59 25 93 0 93-92zM4351 1570q0-28-94-87-52-30-105-60l-98 14q41 23 102 92-18 10-121-2 30 111 162 111 71 0 154-33v-35zM4679 307q0 21-15-201-6-12-44-34l-146 967q0 56 44 117 7 0 19.5-16t14.5-28q20-148 77-493 50-302 50-312zM3235 1693q0-32-238-191-89-65-270-181-14 1-14 25 0 33 101 110 58 41 116 81 88 60 257 192h48v-36zM4300 220q-15-54-30-107-23-72-65-99.5t-145-37.5q-181-16-159-16-117 0-211 60-46 32-174.5 156.5t-246.5 202.5h-25q0-19 5.5-61t5.5-52q0-171-73-222-17-11-156.5-37.5t-369.5-26.5q-219 0-297 13-39 6-129 38-85 30-95 30-39 0-143-18-138-23-203-56-16-9-46-79-38-92-48-110-36-62-112-142-92-97-144-104-24-3-102-18-69-15-83-15-77 0-194 29-123 31-139 58 7 13 25 32 29-3 102-15 67-12 78-12-14 0 239 54 63 14 186 131 128 123 128 189 0 10-3 17-69 55-69 121 0 11 5.5 34.5t5.5 33.5q17 18 45 10 95-37 185-37 79 0 161 22 16 11 22 79 6 85 19 121 22 60 103 144 90 94 150 94 68 0 106-96 27-68 27-129 0-57-29-106-53-90-63-113 59-38 159-46 16-1 158-1 411 0 523 87-35 136-146 273-48 60-224 238-71 70-71 155 0 121 94 226 70 79 214 166 119 68 238 137 225 136 667 376h35q12-1 12-25 0-55-46-96-51-45-139-91-78-39-156-77-190-99-421-238-416-250-416-328 0-32 243-222 155-119 309-238 104-95 358-321 15-13 87.5-33t113.5-20q53 0 150 21 120 24 132 56l-116 716q-5 23-32 91-26 64-26 79 0 47 76 174 26-30 49-126 25-15 51-31 29-19 29-33 0-46-61-139zM2774 476q0-71-41-138-12 65-54 186-6 13-41 51-27 31-27 44 0 22 34 56 63-11 101-87 28-59 28-112zM2212 952q0-29-28-60.5t-49-31.5q-42 0-98 53 12 121 72 121 31 0 68-34 35-30 35-48zM2570-445q0-42-190-138-136-68-256-113-15 12-25 12v37q67 53 198 119 107 54 215 108h45q13-1 13-25zM716 1416q-234-172-464-310l-42 10q12 0 8 20-6 25 1 30 79 62 217 149 226 143 233 148h47v-47zM604 732q0-32-33-61-31-26-54-26-19 0-64 25-54 30-54 62 0 17 22 54 27 43 55 43 27 0 75-33 53-36 53-64zM1474-36q0-29-42-60-36-26-50-26-12 0-46 15t-46 15q-13 0-56.5-25.5t-56.5-25.5q-32 0-58 24-24 20-24 38 0 64 82 91 11 0 38.5-10t43.5-10q13 0 54 30.5t53 30.5q25 0 64-26 44-30 44-61zM1863-481q0-68-465-266l-56 13q10 27 43 64 48 26 464 220 14-15 14-31zM1238 542q0-123-36-152-28-22-92-50-76-34-105-51-11-87-10-120 8-166-192-284-167-100-322-100-122 0-217 67-111 77-111 205 0 71 57 199 59 132 104 153 3-46-38-129t-41-121q0-107 97-168 80-52 185-52 84 0 230 55 184 69 184 159 0 37-14 76-16 47-77 163-52 102-52 114 0 31 46 98 33-44 105-111 20-12 85-12 102 0 133 46-9 21-49 94-33 61-33 75 0-9 33 92 63-22 99-97 31-67 31-149zM4760 1531q-14 15-35 15-33 0-66-58 9-4 21-4 56 0 80 47zM2344 374q0 15-26 53-29 44-56 44-23 0-88-57.5t-65-85.5q35-72 82-72 16 0 80 40 73 46 73 78z" glyph-name="uniFB8A" horiz-adv-x="4679" unicode="&#xfb8a;"/><glyph arabic-form="final" d="M3549 1574q-5-12-22-31-147-77-423-208-15 14-15 31 0 45 54 77 299 180 352 177h54v-46zM3458 915q0-38-33-67-29-25-54-25-11 0-49.5 15.5t-52.5 15.5q-13 0-59-31t-59-31q-10 0-112 63-1 35 32.5 78t53.5 43q12 0 48.5-15t49.5-15 58.5 31 59.5 31q32 0 74.5-34.5t42.5-58.5zM2915 1417q0-51-41-51-13 0-51 15.5t-51 15.5q-38 0-83-51-66-71-93-89-81-55-201-100l-22 8q60 81 135 134 152 108 152 144 0 8-41 50t-41 62q0 50 54 113 57 66 110 66 70 0 70-101 0-22-3.5-52t-3.5-34q33-49 80-77 30-17 30-53zM2946 773q-56-41-153-78-76-28-152-55-2 52-27.5 85.5t-25.5 66.5q0 41 61 111 66 73 118 73 67 0 67-56 0-21-16.5-43.5t-34.5-22.5l-76 10-7-7v-18q31-26 77-26 56 0 156 9l13-12v-37zM2158 1572q-38-32-46-32-13 0-49 15t-49 15q-31 0-97-69-35-39-99-81-3-1-197-94h-36q33 55 156 145 132 97 171 145-23 28-46 55-25 33-25 63 0 56 64 121 62 64 109 64 58 0 58-81 0-22-4.5-62t-4.5-52q0-17 5-23 29-26 90-81v-48zM2189 1304q0-80-128-144-99-50-149-50-40 0-64 34-18 26-18 53 0 51 61 107 19-13 19-52 4 0 11-4.5t22-4.5q28 0 41 37 16 48 24 54 13 0 64-50 23 9 44 39 28 43 38 52 35-69 35-71zM2199 869q0-32-37-61-32-26-50-26-23 0-63 26-45 28-45 56 0 30 32 61t55 31q20 0 64-34t44-53zM3417 255q0-77-15-115-25-61-100-102-33-18-112-20-82-2-114-17-20-10-42-55-32-68-42-82-38-60-77-119-52-74-104-116-81-65-274-65-235 0-348 117 13 26 41 26 12 0 112-25.5t113-25.5q107 0 266 91 174 99 226 213 0 9-18 21-83 9-109 15-65 13-104 43-36 25-36 93 0 56 49 152 58 109 114 109 59 0 126.5-112.5t135.5-112.5q72 0 182 22 14 12 38 34-15 36-73 127-50 80-50 93 0 42 34 92h32q29 1 86-98 42-74 59-120 4-12 4-63zM1349 1340q0-21-35-56-6 2-56 24-37 17-52 17-13 0-76-51-79-65-101-79-69-45-207-85l-56 14q34 28 187 121 100 62 150 135l-64 66q-18 21-18 58 0 47 46 113 54 76 113 76 69 0 83-106 3-20-6-53-9-39-9-54 0-8 1-16 4-18 52-65t48-59zM2414 234q0-198-170-370-165-167-337-167-57 0-226 23-49 7-157 72-5 38 35 38 13 0 95-10t94-10q96 0 158 13 138 28 280 152 146 126 146 223 0 40-60 112-68 82-70 86-3 12-3 38 0 35 23 81h35q157-126 157-281zM622 1325q0-45-133-108-120-56-159-56-29 0-56 13 10 38 77 65 77 32 97 60-21 26-52 26-8 0-47-4t-75-4q77 110 163 110 45 0 109-29 76-33 76-73zM1728 332q0-69-27-139-37-97-106-97-13 0-136 41t-135 41q-20 0-173-49-104-32-240-32h-28q-60 0-99-4-1 0-32-142-23-100-74-100-47 0-100 59-46 50-66 108-10 28-16 164-13 27-38 27-68 0-144-43-88-48-88-111 0-17 7-35l102-702q-6-35-33-101-10 0-35 33-18 114-48 319 0 4-36 178-22 107-22 222 0 18-1.5 46t-1.5 39q0 95 138 242 23 24 197 69 4 0 72 69 32-35 96-101 88-83 288-83 6 0 56-5 40-4 63 0 33 5 46 25t40 132q40 166 48 192 1 4-5 48-7 54-7 86 0 105 62 105 18 0 197-148 159-131 222-191 57-53 57-162zM2003 1746v37l-48 12-11-38zM2874 170q-24 49-45 59-22-12-15-59 11-5 60 0zM1195 1523q-23 46-47 57-5-5-17-17.5t-18-17.5q10-10 12-24 33-19 70 2zM1645 282v36q-78 106-118 106h-33q-24-75-21-101 74-53 127-53 15 0 28 6t17 6zM1390 409q0 22-22 64-28 53-65 53-28 0-53-34-24-30-24-53 0-77 92-77 72 0 72 47z" glyph-name="uniFB8B" horiz-adv-x="3420" unicode="&#xfb8b;"/><glyph arabic-form="isolated" d="M1563 1867q0-43-188-162-157-100-217-124-14 14-14 35 0 36 150 140t255 142q14-15 14-31zM1635 1397q0-42-33-59-95-32-280-105-76 101-76 128 0 24 62 105 66 84 96 84 43 0 87-43v-58q-8-10-17-19-13-13-29-13-3 0-28 5-18 4-49-2 13-23 57-23-27 0 186 30l16-10t8-20zM1051 2026q0-38-142-135-95-63-189-126h-34q-13 13-13 31 0 38 143 138 89 59 178 117h45q12-1 12-25zM878 1729q0-50-178-146-135-73-198-95-14 15-14 37 0 44 142 124 100 52 200 105h35q13-1 13-25zM980 1432q0-73-66-129-58-49-123-54-9-1-30.5-14t-36.5-13q-35 0-56 33-16 24-16 39 0 25 44 92 4-2 28-19 15-11 31-11 14 0 47 43 39 50 51 58 4-20 29-60 15 35 61 101 37-18 37-66zM1563 214q0-82-15-126-7-6-44-22l-155 997q0 51 43 138 13 0 34-34 37-221 74-443 63-393 63-510zM1010 859q0-36-33-64-27-23-49-23-27 0-58 24-33 26-33 53 0 16 22 53 28 44 54 44 32 0 65-33 32-31 32-54zM529 306q0-130-59-148l-145 1038q-7 94 46 129 27-27 31-56 127-873 127-963zM1267 229q0-238-279-446-60-45-208-45-260 0-343 98l13 17q28 5 96-3 78-9 80-9 116 0 204 23 86 22 220 136 145 125 145 204 0 38-87 117.5t-87 107.5q0 87 61 87 86 0 141-124 44-94 44-163z" glyph-name="uniFB8C" horiz-adv-x="1562" unicode="&#xfb8c;"/><glyph arabic-form="isolated" d="M1672 1644q0-42-383-265h-46v58q30 21 381 237h35q13-13 13-30zM1170 1661q-13-32-43-75-145-89-433-259-15 15-15 30 0 70 434 317zM1559 958q0-30-29.5-66t-47.5-36q-35 0-71 29t-36 53q0 29 26 60.5t51 31.5 62-20q45-24 45-52zM1774 231q0-276-337-276-176 0-246 108-56 85-76 306-2 27-23 46-27-5-44-66-12-52-25-104-53-146-162-225-27-20-170-83-165-74-217-74-27 0-41 14 0 29 23 43 120 71 242 141 175 113 175 181 0 55-140 268-154 233-243 233-9 0-40-10t-48-10q-159 0-152 305 36 33 45 33 14 0 115-71 166-114 316-306 153-196 170-324 3-24 25-47 13 0 31 28 50 139 66 337 11 168 22 337 4 48 43 87 11-11 32-45 29-256 51-390l26-258q16-144 63-207 63-83 207-83 61 0 132 19 98 25 98 68 0 19-37 56-14-7-71-49-46-33-61-33-62 0-114 75-45 63-45 105 0 63 45 166 52 125 114 125 105 0 217-269 34-85 34-151zM1580 401q0 16-19 43-23 33-53 33-62 0-62-56 0-21 24-43 26-24 58-24 52 0 52 47z" glyph-name="uniFB8E" horiz-adv-x="2140" unicode="&#xfb8e;"/><glyph arabic-form="final" d="M3404 1633q0-39-22-55-40-30-247-138-73-39-218-109-15 14-15 35 0 54 455 292h35q12-2 12-25zM3342 977q0-32-35-62-30-25-51-25-12 0-41.5 10.5t-40.5 10.5q-13 0-59-30.5t-59-30.5q-37 0-91 52-4 7-4 18 0 32 27.5 68t57.5 36q11 0 44.5-15.5t47.5-15.5q13 0 54 36t54 36q27 0 61.5-33t34.5-55zM2790 1428q0-52-136-119-121-60-166-60-7 0-57 25 52 32 154 106 0 6-25 19.5t-36 13.5q-12 0-52-16-52-22-60-24v43q-2 39 74 84 40 25 79 25 12 0 86-22 88-27 115-33 24-15 24-42zM1910 1460q-4-21-27-57-217-151-512-308-14 15-14 36 0 42 134 125 77 43 155 87 72 45 217 131zM1162 1509q0-66-252-157h-73l-13 12v38q44 19 123 78-7 15-41 15-27 0-53-9t-39-9q-14 0-31 6 60 124 153 124 2 0 226-63v-35zM3588 271q0-26-16-87-22-78-49-120-22-32-113-51-62-13-170-13-106 0-170 23-31 11-105 53-65 36-78 36-10 0-102-38-101-42-142-51-94-21-259-43-147-20-173-20-222 0-222 155 0 41 12 93-6 7-36 7-50 0-267.5-102.5t-315.5-102.5-233 83q2-26 2-50 0-227-142-359-134-124-344-124-138 0-237 85-106 89-106 228 0 78 63 204.5t111 136.5v-47q0-11-19-42-25-38-30-50-32-81-32-126 0-128 120-186 79-39 176-39 113 0 224 52 122 58 135 138l-164 1181q19 76 44 113 13 0 34-34 47-320 67-421 49-255 123-439 20-49 65-79 27 13 140 153 99 124 172 124 24 0 49-19 268-115 550-115 11 0 45 5.5t47 5.5q56 0 76-24v-34q0-57-97-84-55-13-109-25-18-11-18-33 0-77 174-77 127 0 313 41 201 44 219 87-29 61-129 47-14 14-14 30 0 30 42 86.5t84 73.5q35 15 140 15 256 0 256-128 0-46-82-144 36-67 174-67 70 0 143 16 103 22 103 61 0 25-68 123-50 73-72 100-3 12-3 39 0 40 33 91h35q65-60 108-154 38-87 38-158zM1756-209q0-28-36-63t-56-35q-27 0-68 27-45 28-45 55 0 26 34.5 59t57.5 33q29 0 69-25 44-27 44-51zM1674 283q-150 75-185 75-24 0-88.5-63t-64.5-85q0-36 77-36 57 0 148 33 101 38 113 76z" glyph-name="uniFB8F" horiz-adv-x="3593" unicode="&#xfb8f;"/><glyph arabic-form="initial" d="M3730 1547q0-36-104-108-66-42-133-85-68-49-207-139h-35q-12 1-12 24 0 38 185 168 145 101 259 165h35q12-2 12-25zM3187 1660q0-35-200-166-265-172-284-187h-57v34q-1 48 495 343h34q12-1 12-24zM2726 906q6-58-125-129-121-64-186-64-32 0-46 13 3 28 78 61 83 38 96 55 1 7 1 12 0 32-68 32-21 0-116-18 6 36 63 83.5t89 47.5q46 0 214-93zM2829-321q0-37-33-68-28-24-49-24-13 0-54 20.5t-53 20.5q-13 0-54-36t-53-36q-32 0-67.5 30t-35.5 57q0 36 34 64 28 23 48 23 11 0 46.5-15.5t50.5-15.5q13 0 56.5 36t56.5 36q37 0 74-37 33-33 33-55zM3903 338q1-25-56-85-149-157-387-214-11-2-119-2-130 0-160 13-19 8-76 52-49 37-61 37-14 0-30-14-11-12-23-23-90-65-182-65-82 0-142.5 61.5t-67.5 61.5-86-38q-86-42-128-52-209-52-419-43-2-2-13-5-4-1-4-16 0-12 20.5-76.5t20.5-76.5q0-75-35-152-42-94-109-94-101 0-192 146-49 92-97 184-10 14-66 21-55 48-64 48-13 0-100-10t-100-10q24 0-294 21-7-14-30-110-18-75-52-115-6-1-12-1-46 0-110 69-58 64-67 110-4 15-4 35 0 16 3.5 50t3.5 49q0 46-24 66-20 2-42 2-85 0-145-29-74-36-72-106l123-844q0-13-5-53t-5-63q-23-22-39-22l-145 910q0 220 156 323 41 27 104 37 46 5 92 11 7 1 30.5 20t36.5 19 73-61q72-72 99-92 41-28 146-50.5t194-22.5q64 0 154 15 101 17 136 38 25 16 34 46 25 79 107 229 108 194 168 194 48 0 76-80 22-62 22-120 0-107-56-196-24-25-67-80 15-29 29-33 5-3 42-3 95 0 329 33 210 29 249 42 83 25 229 109-2-9-2-17 0-51 63-96 55-40 100-40 44 0 103 22 78 31 78 77 0 6-2 13l-123 855q0-5 33 97h37q28-131 69-469 37-308 78-465 10-38 87-90h25q17 151 93 289 97 173 229 173 59 0 126.5-52t92.5-118q-14-15-35-15-13 0-74.5 20.5t-74.5 20.5q-117 0-236-119-3-14-3-28 0-58 45-102 12-11 89-66 49-12 38-12 59 0 184 74 165 98 189 109v-56zM966 1088q-17-60-134-118-106-52-174-52-44 0-71 13 10 32 70 57 75 31 94 48-8 45-77 45-27 0-91-40h-46q13 51 69.5 102t98.5 51q43 0 141-43 86-38 120-63zM2185-439q0-36-34-53-115-60-280.5-134t-184.5-74h-32l-22 25q22 59 54 73 434 188 433 188h52q14-1 14-25zM1857 395q0 18-20 47-22 31-48 45-144-151-146-245h46q168 89 168 153zM1908-151q-95 76-150 74h-64v-33q-1-36 63-75 54-34 74-34 52 0 77 68z" glyph-name="uniFB90" horiz-adv-x="3917" unicode="&#xfb90;"/><glyph arabic-form="isolated" d="M1760 1671q-14-18-52-50-397-250-444-248h-54v47q70 62 218 139 246 131 296 160h36v-48zM1720 1275q0-35-39-83-39-45-75.5-62.5t-104.5-27.5q-7-1-36-15-27-12-41-12-62 0-62 77 0 55 54 96-1-6-1-12 0-38 45-38 42 0 60 43 20 56 44 69 9-25 40-82 28 17 44 53 20 43 37 60 35-36 35-66zM2181 241q0-71-36-139l-159 958q13 48 46 138 10-6 22-13 57-235 82-442 45-362 45-502zM1659 858q-26-111-76-111-26 0-67 26.5t-41 45.5q0 20 26 58 28 45 55 45 36 0 103-64zM1157 1610q-172-114-464-289h-47v45q-1 37 475 302h36v-58zM2304-157q0-38-33-55-99-37-301-115 1 30-7 85-3 7-22 32-16 22-16 36 0 28 74 101t101 73q24 0 42.5-22.5t18.5-49.5q0-50-41-50-15 0-56 20l-16-17q15-44 72-44-23 0 161 30zM2365-334q1-29-196-117-189-83-199-80h-65v33q0 28 80 64 48 18 97 37 9 4 127 62 76 38 91 37h65v-36zM1864 297q0-28-20-92t-36-90q-21-35-81-51-165-44-262-44-11 0-75.5 10.5t-78.5 10.5q-27 0-57.5-25.5t-80.5-25.5q-70 0-160 26-104 29-158 76-88-72-129-92-63-31-152-31-222 0-254 251-13 263-46 747-5 36-27 127-21 87-21 99 0 28 54 106 8 0 24.5-15t19.5-29q45-201 45-348v-269q0-4 10-59 9-51 7-73-4-28-4-59 0-128 49-216 60-108 178-108 127 0 213 79 41 37 112 149 50 79 91 79 12 0 91-71 100-89 132-112 86-63 253-63 111 0 213 23 41 9 68 35 4 38-49.5 121t-53.5 118q0 41 35 92 55-18 104-113 46-91 46-163zM1095 174v47q-48 76-76 76-15 0-55-32v-49q4-2 38-24 25-18 39-18h54z" glyph-name="uniFB92" horiz-adv-x="2182" unicode="&#xfb92;"/><glyph arabic-form="final" d="M2444 1623q0-46-104-114-67-39-134-79-82-47-237-139h-36v43q-1 23 190 145 198 130 307 169 14-1 14-25zM2321 895q0-30-26.5-63t-45.5-33q-29 0-76 35.5t-47 55.5q0 16 30 58 32 45 52 45 43 0 79-37 34-33 34-61zM1819 1275q0-57-35-57-13 0-49 20.5t-49 20.5q-29 0-65-40-47-52-60-59l-216-114h-37q96 84 296 270-30 30-61 60-21 22-21 58 0 45 54 108 56 65 105 65 17 0 44-24.5t29-40.5q-8-58-4-164 4-16 38-54 31-36 31-49zM1102 1547l-18-18q-13-13-28-13-12 0-43 15t-44 15q-23 0-66-43-78-76-79-76-93-78-228-116l-46 14 174 122q154 113 154 145 0 11-41 60t-41 63q0 54 67 120 70 69 134 69 43-49 43-107 0-25-9.5-60t-9.5-43q0-27 81-99v-48zM1062 1249q0-119-168-168-11-3-56-27-38-20-53-20-51 0-51 72 0 50 35 102 11-15 43-51 52 11 88 111 10 0 32.5-25t34.5-25q26 0 43 38 23 51 27 54 25-49 25-61zM2485 276q0-170-95-240-76-56-233-56-98 0-192.5 56t-104.5 56q-11 0-85-32-89-39-170-59-125-32-262-32-130 0-178 22-89 40-168 196-10 16-22 28-151-235-487-235-56 0-107 19-67 26-67 72 0 36 44 103h31q13 0 72.5-20.5t72.5-20.5q81 0 222 45 193 62 193 155 0 13-35.5 199.5t-35.5 199.5q0 68 23 117 13 0 33-33 44-198 86-397 93-296 302-296 96 0 223 20 161 27 193 68-15 36-86 63-68 25-68 28 0 17 46 73.5t79 79.5q49 37 125 37 59 0 145-34 106-41 106-94 0-23-82-154 18-33 69-54 54-23 131-23 66 0 133 22 87 28 87 75 0 13-66.5 128t-66.5 128q0 33 44 96 26 0 47-21 71-114 88-160 16-44 16-125zM1685 1457q-19 37-47 37l-24-25 25-26zM978 1732q0 11-5 27.5t-5 20.5q-5 0-18 6t-18 6q-30-15-34-49 34-19 80-11z" glyph-name="uniFB93" horiz-adv-x="2484" unicode="&#xfb93;"/><glyph arabic-form="initial" d="M2408 1729q0-50-25-69-69-55-430-288-14 2-14 26 0 22 176 151l246 180h47zM1682 1208q0-27-23-51-23 5-71 23-41 18-54 18-3 0-38-13-62-77-164-148-79-54-227-114h-47q44 38 125 106 65 45 132 90 112 81 112 115 0 13-37 39-53 37-65 48-2 5-2 13 0 50 51 122 57 81 115 81 8 0 16-2 37-34 50-85-8-39 6-122 12-19 71-57 50-33 50-63zM945 1218q0-86-270-194l-98 12q12 32 70 54 66 24 93 63-14 45-71 45-13 0-44-10-40-14-67-20 11 48 56 90t85 42q30 0 95-27t101-27q14 0 26 2 8-4 16-9t8-21zM2399 318q1-11 1-21 0-119-107-200-93-71-216-81-58-4-375-53 2-11 25-72 17-49 17-70 0-86-37-156-44-85-122-85-92 0-162 94-39 51-91 172-40 93-59 93-15 0-31-4.5t-18-4.5q0 64-28 66-72-3-188 0-153 5-188 5-15-26-31-130-14-90-52-126-82 4-149 129-62 113-56 201-6 9-24 27-258-16-280-147l123-840q0-71-33-139-54 22-56 56-3 119-27 358-78 447-78 513 0 94 74 199 81 114 186 140 42 4 122 26 17 26 52 70 39-41 117-111 113-84 376-84 132 0 192 22 11 5 79 128 82 151 136 223 87 119 150 119 45 0 77-89 26-71 26-127 0-114-175-273v-25q48 0 144 1t101 1q35 0 179 17 176 22 267 47 57 15 57 84 0 15-24 153-15 83-92 543-4 22-32 80-25 54-25 74 0 27 24 91 27 71 53 88 14-15 36-87 15-53 80-78-20-59-51-172zM1476 1373v38l-47 11q-13-26 11-49h36zM1652 378q0 28-16 59-20 34-45 34-48 0-127-106-74-99-78-147 10-9 46-13 220 103 220 173zM1662-189q0 45-107 94-94 44-134 44-11 0-35-24 14-60 66-117 59-64 123-64 31 0 57 17 30 20 30 50z" glyph-name="uniFB94" horiz-adv-x="2405" unicode="&#xfb94;"/></font>
</defs>
</svg>
