<svg xmlns="http://www.w3.org/2000/svg"><defs><font horiz-adv-x="992"><font-face ascent="1638" bbox="-23 -1267.02 6255 2336" cap-height="1684" descent="-410" panose-1="2 0 4 0 0 0 0 0 0 0" underline-position="-250" underline-thickness="100" unicode-range="U+000D-FEFC" units-per-em="2048" x-height="1641"/><missing-glyph d="M142 226v1362h700v-1362h-700zM284 368h416v1079h-416v-1079z"/><glyph arabic-form="final" d="M2983 1639q0-46-210-176-153-95-259-146 0 4-6.5 12.5t-6.5 22.5q0 59 54 93 124 74 370 229h34q24-23 24-35zM2266 1711q-10-27-37-64-113-68-512-279-14 14-14 41 0 56 33 77 111 70 278.5 160t185.5 90h43zM3484 1480q0-65-37-91-260-179-570-326-161-76-253-182 205-195 290-306 130-170 130-308 0-36-35-176-10-16-29-30-49-20-170-39-104-16-134-16-208 0-304 174-72-74-91-90-52-46-90-61-86-33-212-33-40 0-97 30-67 35-67 72 0 27 24 68 25 45 49 45 1 0 40-25.5t113-25.5q65 0 164 35 132 48 132 124 0 12-25.5 122t-25.5 123q0 83 37 108 41-42 67-143 16-79 32-159 23-95 97-154 71-56 157-56 88 0 287 59-10 92-108 218-82 105-188 191-11 9-41 9-35 0-50 7-47 21-59 50-5 15-5 65 0 277 566 560 224 111 359 202h34q13-14 13-41zM2246 1337q0-92-62-134-37-25-127-44-5-1-27.5-14t-39.5-13q-30 0-57 35-25 30-25 52 0 23 31.5 71.5t56.5 56.5q21-35 14-65l16-16q11 14 25 59 9 37 46 64 18-13 21-28 0-17 1-33 2-21 29-32 23 11 20 38-4 35-1 41 10 17 30 54 49-10 49-92zM2307 861q0-24-27-63-30-44-60-44-28 0-62.5 32t-34.5 50q0 17 33 59.5t49 42.5q19 0 58-23 44-27 44-54zM1519 1614q0-46-204-154-136-67-271-133h-35q-13 13-13 35 0 50 44 73 408 209 413 209h53q13-14 13-30zM791 1423q0-16-42-52-38-31-108-61-77-35-126-35-25 0-71 23v47q47 10 144 52 5 22-32 22-15 0-65-23-77-35-85-39-14 15-14 32 0 43 75 99 70 54 110 54 41 0 214-74v-45zM1048 636q0-27-33.5-62.5t-54.5-35.5q-12 0-45 26t-47 26q-13 0-61-36t-61-36q-17 0-57.5 34.5t-40.5 52.5 36.5 63 56.5 45q14 0 50-22 44-26 56-30 70 72 88 72 37 0 78-43 35-37 35-54zM1693-142q0-32-44-62-36-25-54-25-26 0-64 21-43 26-43 56 0 24 34 60.5t58 36.5q27 0 70-31t43-56zM1652 292q0-85-37-150-41-75-108-75h-74q-12 0-57.5 26t-56.5 26q-15 0-17-9-66-53-155-91-61-25-163-50-92-24-116-24-10 0-90.5-5t-93.5-5q-168 0-296 58-170 75-170 223 0 26 48 113 51 95 82 96l16-13q0-18-11.5-68t-11.5-61q0-118 174-167 100-28 221-28 192 0 468 95 54 18 77 76 27 71 57 95 43-5 45-38.5t4-65.5q54-29 116-29 15 0 25 4.5t13 4.5q3 18 2 108-1 61 29 108 18 0 55-37 2-18 14-62 11-41 11-55z" glyph-name="uniFB51" horiz-adv-x="3049" unicode="&#xfb51;"/><glyph arabic-form="isolated" d="M1679 1516q0-14-26.5-53t-41.5-52q-65-4-218-83-195-100-263-124-24 25-24 35 0 15 15 40.5t28 32.5q423 230 454 229h63q13-1 13-25zM1648 1025q0-21-30-64t-47-43q-15 0-50 22-51 33-62 39-2-2-53-43-34-29-49-29-32 0-72 40-36 36-36 52 0 33 33 69 30 34 49 34 12 0 45.5-20.5t46.5-20.5q11 0 45 35.5t47 35.5q26 0 79.5-40.5t53.5-66.5zM736 1236q-4 0-17.5-5.5t-27.5-5.5q-12 0-31 15t-30 15q-10 0-57-51-54-60-84-78-180-117-291-116h-35v23q46 38 184 119 106 64 175 139-10 12-68 67-24 22-24 61 0 56 53 118 59 68 128 65 61-66 36-208 30-25 89-81v-77zM1792 267q0-38-41.5-105.5t-74.5-81.5q-93-37-200-49-74-8-114-44-5-20-26-60-1-1-77-133-41-72-105-112-152-95-371-95-24 0-226 43-29 7-66 43 27 47 57 47 12 0 81.5-15.5t81.5-15.5q75 0 111 12 375 130 437 281-6 26-76 31-87 6-106 16-7 5-30 55.5t-23 64.5q0 65 61 155.5t113 90.5q61 0 115-100 28-63 57-126 23-2 46-2 167 0 285 91 4 15-8.5 48t-28.5 48q-31-31-90-79-13-3-44-3-66 0-101 57-27 42-27 91 0 53 44 154 55 128 120 128 94 0 168-208 58-161 58-227zM717 278q0-129-144-129-10 0-45 5.5t-47 5.5q-55 0-129-40-50-26-64-40-1-5-1-43l91-723q-3-4-18-53-13-42-41-53l-125 768q3 37 13 98 53 182 155 205 39 11 125 26 14 15 14 23 0 10-36 46-20-9-61-40t-62-42q-14 15-14 32 0 41 59 130 64 95 104 95 55 0 144-125 82-114 82-146zM1232 206q-18 36-56 55-46-23-46-51 0-15 6-25.5t6-14.5h67q23 22 23 36zM571 1430q0 27-13 40-10-9-16-27 10-9 29-13zM1101 994q0-49-138-128-125-71-164-71-46 0-46 41 0 25 50 59 31 20 62 39-6 24-41 24-7 0-85-50h-37v54q-1 33 61 82 60 47 92 47 9 0 85-19 82-22 115-26 46-5 46-52zM1597 473q-18 36-56 55-46-23-46-51 0-15 5.5-25.5t5.5-14.5h68q23 22 23 36z" glyph-name="uniFB52" horiz-adv-x="1802" unicode="&#xfb52;"/><glyph arabic-form="final" d="M2402 1434q0-31-36-66-77 51-98 51-275-235-395-234h-74v37q91 49 184 97 133 77 183 146-92 84-92 102 0 35 54 112 61 88 115 88 41 0 62-34 8-30 5-91-3-66 1-95 5-25 48-63.5t43-49.5zM2432 298q-12-88-29-130-31-77-97-98l-90-14q-61-12-92-42-47-90-178-280-74-87-161-134-63-34-198-34-11 0-124 22-136 25-184 32-23 4-96 53 22 42 56 47 13 0 103-20.5t102-20.5q158 0 307 80 160 85 241 231-36 22-75 24-63 2-75 5-33 7-64.5 50t-31.5 80q0 46 65 151 70 115 124 115 55 0 102-82 77-134 85-143 13 2 40 2h13q159 0 155 90l-133 748q13 49 26 97 20 57 61 98l17-13q8-16 8-75 0-34 41-51 58-23 61-27 4-37-32-95-42-69-50-98zM1623 308q0-52-68-147-67-90-123-121-111-62-233-82-207-34-323-34-128 0-227 49-12 6-243 148v35q12 14 29 14 6 0 125.5-41t202.5-41q49 0 55 2 100 41 168 109 13 12 13 93 0 9-75 630-2 12-14.5 45.5t-12.5 46.5q0 26 30 94 33 72 57 86 20-14 22-45 3-45 5-50 11-28 80-71-5-25-30-99-21-65-21-79 0-10 21-170 22-175 26-228 1-16 1-181 5 3 169 101 73 43 152 43 39 0 120-32 94-38 94-75zM1020-167q0-53-180-136-155-72-216-79-25 24-25 35 0 15 15.5 41t29.5 32q137 65 318 137h34l16-10t8-20zM1020-311q0-13-17-41-18-30-19-37-186-83-378-146h-35q-13 1-13 24 0 27 36 72 127 59 368 159h44q14-14 14-31zM1961 171q-14 30-21 40-14 20-36 31-24-25-24-38 33-34 46-33h35zM1470 216q-60 46-133 46-66 0-130-38-10-6-178-124h127q52-4 177 32 77 21 137 84z" glyph-name="uniFB53" horiz-adv-x="2446" unicode="&#xfb53;"/><glyph arabic-form="initial" d="M4922 1393q0-91-92-154-77-51-143-51-11 0-37.5 5t-39.5 5q-15 0-50-28-52-43-54-44-14 2-14 26 0 34 48 104 54 75 96 75 13 0 15.5-5t15.5-5q5 0 66 81.5t102 81.5q87 0 87-91zM4491 1416q1-68-292-136l-13 12v47l56 28q40 20 36 49-8 7-21 7t-56-16q-48-19-73-25-14 14-14 31 0 49 73 89 62 34 100 34 27 0 100-31 91-39 104-43v-46zM4758 225q0-43-5-57-7-23-52-97l-147 897q7 11 21 75 11 53 46 83 26-27 31-55 16-90 55-370 51-372 51-476zM3969 1058q-23-24-35-24-13 0-51 30.5t-51 30.5q-4 0-71-58-79-70-144-109-97-58-174-58-32 0-46 14l3 21q89 53 176 108 116 72 158 128-5 8-55 61-27 28-27 52 0 40 57 112 59 77 102 77 77 0 77-113 0-27-5-69-4-38-3-44 30-27 89-84v-75zM3407 1167q0-61-156-127-133-57-187-57-41 0-77 36 62 31 185 108-7 9-26 9-7 0-111-50h-47q0 4-5.5 9.5t-5.5 20.5q0 55 85 103 71 40 115 40 10 0 91-27 86-29 126-35 13-13 13-30zM4400 282q0-262-261-262-11 0-42.5 5t-44.5 5q-14 0-26-17-19-28-20-29-14-15-53-15h-100q-38 0-125 24-17 4-51 37-32 31-45 31-12 0-91.5-35.5t-92.5-35.5-15.5 5-15.5 5q-12 0-44-5-37-7-51-8-144-245-245-320.5t-279-75.5q-73 0-195 30-133 33-158 66 3 47 40 47 13 0 100.5-20.5t99.5-20.5q81 0 162 23 58 17 189 95 177 108 177 189 0 8-31 43.5t-31 63.5q0 24 21.5 55.5t44.5 31.5q14 0 27-10 17-14 27-18 89-33 182-33 13 0 32.5 8t28.5 9q90 8 183 110 88 98 135 98 27 0 70-48 59-63 98-88 76-48 180-48 138 0 138 67 0 1-49 223-23 109-47 359-3 27-31 99-27 69-27 86 0 36 27 105 31 85 66 85 34 0 40-56 1-34 3-70 32-23 90-40-1-1-22-85-13-49-50-63 11-111 48-365 34-229 34-237zM2598 1249q0-41-214-153-145-74-290-147-41-23-127-59-14 14-14 41 0 91 610 358 11-6 21-14 14-10 14-26zM2844 261q0-72-67-186-43-24-87-24-12 0-76 20.5t-77 20.5q-16 0-27-16-9-10-16-21-70-55-167-55-13 0-66.5 20.5t-67.5 20.5q-12 0-31.5-18t-27.5-21q-86-22-171-22-73 0-135 22-20 8-124 59-9-12-63-129-33-75-123-75-78 0-139 66-56 61-74 152-10 44-86 325-16-5-52-44-40-44-62-57-4-95-30-203-32-129-169-205-117-65-243-65-138 0-222.5 77t-84.5 204q0 56 48 144 43 75 78 107h35q13-13 13-41 0-10-25.5-69.5t-25.5-73.5q0-76 51-135t113-59h77q73 0 171 45 120 54 120 128 0 47-46 157.5t-46 124.5q0 16 23 86h46q50-50 74-50 71 0 102 57 57 107 65 117 17 0 43-16 35-82 63-203 25-124 49-247 49-159 154-159 83 0 67 112l-102 804q5 112 79 149 10-95 90-536 42-230 98-311 74-105 245-105 102 0 139 43 49 70 99 140h47q0-20-4.5-66t-4.5-56q0-41 41-41 122 0 156 61 41 85 81 170 38 14 48 14 6-24-1-74-8-61-8-63 0-46 38-46h88l18 16q-31 50-31 86 0 11 11 55t11 66q3 0 11.5 6.5t23.5 6.5q32 0 66-190zM959 1416q1-32-217-158-267-153-318-193-10-1-24 12t-14 29q0 10 24 68 7 17 244 153.5t270 136.5q14 0 23-6t12-6v-36zM745 763q0-36-32-63-29-24-60-24-28 0-69 24-44 27-44 52 0 32 77 108 32-14 65-27 63-32 63-70zM1933-353q0-72-507-272-15 13-25 13v55q16 36 54 51 55 22 244 108 154 71 168 70h53q13-1 13-25zM1360-332q0-37-33-68-30-30-60-30-13 0-49.5 20.5t-48.5 20.5q-9 0-49.5-36t-52.5-36q-43 0-97 88 0 20 34 63.5t53 43.5q16 0 92-51 2 1 52 43 34 29 50 29 22 0 65.5-33.5t43.5-53.5zM4811 1340l-6 15-25-12v-15zM3857 146l-28 48q-16 27-39 31-35-18-35-46 0-23 13-25-2 0 25-4t64-4z" glyph-name="uniFB54" horiz-adv-x="4766" unicode="&#xfb54;"/><glyph arabic-form="isolated" d="M818 1353q-1-63-91.5-127.5t-169.5-64.5q-30 0-76 23 1 28 55 55 74 39 88 50-14 15-41 15-14 0-54-21-46-25-65-30-14 14-14 41 0 49 65 94 55 39 94 39 38 0 122-32 77-29 87-42zM1217-195q0-35-32-54-10-4-104-27-30-7-83-36-62-34-81-41h-35q-6 12 0 36 8 32 8 40 0 7-20.5 31t-20.5 41q0 46 62 110 80 84 92 105l-113 884q-17 119 68 175 6-7 20-25 18-144 47-408 4-16 15-42 2-36 21-186 16-122 16-197 0-54-6-100-2-9-15-57-10-39-10-65 0-11 19-29 21-20 25-31 18-42-16-92 20-10 132 2 0-3 5.5-11.5t5.5-22.5zM562 777q0-31-21.5-64t-44.5-33q-28 0-73 34.5t-45 57.5q0 20 24 59 28 43 53 43 33 0 73-43 34-39 34-54zM798 184q0-63-46-155-55-35-122-52-170-44-237-44-16 0-41 33.5t-25 53.5q0 14 19 53 20 43 38 43 12 0 60.5-5t61.5-5q34 0 97.5 22t83.5 38q5 5 9.5 14t8.5 14q-18 53-95 108-64 41-129 82 0 121 66 121 111 0 187-124 64-103 64-197zM1310-348q0-43-24-54-104-50-264-113.5t-179-63.5h-52q-13 13-13 36 0 51 46 68 427 162 431 162h31q24-24 24-35z" glyph-name="uniFB56" horiz-adv-x="1318" unicode="&#xfb56;"/><glyph arabic-form="final" d="M1872 1543q0-37-79-87-44-24-88-49-60-41-164-102-9-4-79-53-50-35-91-35 0 4-5.5 12t-5.5 23q0 64 200 188 127 72 253 144h45q14-13 14-41zM1799 976q0-20-31.5-64t-49.5-44q-13 0-43.5 20.5t-43.5 20.5-49-36-49-36q-10 0-46 25-40 28-56 52 55 98 97 98 12 0 31-10.5t31-10.5q13 0 51 36t51 36q21 0 64-34t43-53zM1073 1559q0-39-100-105-64-38-128-77-109-65-331-201-35 31-35 55 0 56 33 76 472 288 509 288 52 0 52-36zM1892 284q0-27-15-92-19-82-41.5-110t-116.5-57q-88-27-141-27h-84q-76 0-135 50t-69 128q-23 188-55 533-29 310-29 338 0 65 54 138 19 0 34-23 12-186 51-503 15-64 15-164 0-16-1-45v-44q0-124 33-174 46-71 182-71 138 0 226 68 2 42-28 86-17-5-53-47-30-35-78-35-50 0-94 41.5t-44 81.5q0 77 50 181 59 127 134 127 50 0 123-123 60-99 67-138 15-70 15-119zM1021 202q0-145-122-246-98-82-230-105-14-2-63-16-39-11-56-11-118 0-212.5 85.5t-94.5 196.5q0 85 61 196 62 115 122 125 0-3 6-12t6-23q0-13-46.5-110.5t-46.5-109.5q0-85 91-140 72-44 135-44 67 0 191 41 167 55 167 132 0 108-95 752-3 14-31 54-28 38-28 55 0 48 96 214 34-5 40-38l3-63q2-76 86-74v-66q1-8-48-94-2-3-2-74zM1696 419v46l-22 23h-36q-6-22-23-55 5-5 17-12.5t17-12.5q5 0 23.5 5.5t23.5 5.5z" glyph-name="uniFB57" horiz-adv-x="1894" unicode="&#xfb57;"/><glyph arabic-form="initial" d="M1679 1616q0-46-161-141-127-75-253-150h-44q-13 14-13 36 0 55 195 171 108 60 217 120h35q24-23 24-36zM839 1340q0-57-125-122-111-57-159-56h-53q0 3-5 24.5t-5 34.5q35 19 111 69-9 25-41 25-34 0-95-62h-46q-12 2-12 26 0 48 64 105 61 53 105 53 9 0 95-27 96-30 142-39 24-14 24-31zM1228 899q0-19-23-65h-46q-40 45-79 71-28-38-100-110-55-40-144-84-86-42-106-41h-116q4 20 182 126 176 104 176 150 0 13-28 44-35 41-41 51-3 12-3 33 0 47 40 102 50 68 123 68 9 0 18-2 36-32 40-106 5-96 6-101 8-22 56-74 45-48 45-62zM1801 275q0-71-36-147-45-94-113-94-10 0-111 16t-114 16q10 0-162-39-104-23-268-23-114 0-212 11-17-59-35-118-36-97-75-97-57 0-112 83-40 61-49 105-8 31-3 91-6 7-31 7-54 0-162-79-2-10-2-64l72-732q0-65-32-148-41 0-47 45-105 701-105 733 0 160 50 247 70 123 260 174 15 4 41 28 24 21 38 21 12 0 57-39 55-49 73-61 43-27 132-48 72-16 103-16h105q30 0 108 15t84 23q0 53 16 143 43 106 104 172 68 74 68 113 0 186-45 347-3 12-27 52-20 34-20 51t32 95q34 84 53 95 24 0 40-50l20-76q25-11 70-42-5-24-30-95-21-62-21-75 0-57 43-352 3-23 67-76 55-34 150-106 26-25 26-106zM1697 211q0 31-35 55-30 17-61 35l-35-34v-54q44-2 131-2zM1493 282v78l-13 12h-55q-54-54-54-76 0-18 24-37.5t43-19.5q15 0 33 18 12 13 22 25z" glyph-name="uniFB58" horiz-adv-x="1807" unicode="&#xfb58;"/><glyph arabic-form="medial" d="M3474 1755q0-28-454-301h-35q-13 13-13 46 0 50 34 72 100 67 250 152 154 88 172 88 22 0 46-24v-33zM3525 1300q0-47-79-73-50-11-98-23-47-28-134-77h-35q-5 24-26 86-17 53-17 67 0 52 62 114 60 60 102 60 39 0 66.5-37t25.5-78q35-11 120-9h1q12-12 12-30zM3464 342q0-84-22-196-12-13-29-13-21 0-39 23-9 129-27 381-6 90-32 276-25 174-25 180 0 82 43 142h37q12-43 28-126 66-565 66-667zM2819 1377q0-20-44-87-13 4-56 34-39 28-54 28 10 0-177.5-133.5t-248.5-133.5h-52q-14 2-14 26 0 19 154 122 195 130 226 155v29q-35 24-69 48-34 29-34 70 0 54 55.5 114.5t113.5 60.5q32 0 43-4 57-32 55-124 0-7-10-46-7-29 1-44 11-22 63-64 48-39 48-51zM2737 829q0-34-21.5-58t-44.5-24q-31 0-117 63 0 37 19 76 24 45 57 45 42 0 76-36 31-33 31-66zM1661 1230q-4 0-12-6t-23-6-44.5 20.5-42.5 20.5-53-41q-52-53-72-68-111-84-258-156h-45q-12 1-12 24 0 21 149 140 164 129 178 147-7 11-60 61-42 41-42 57 0 57 74 133 71 72 110 72 82 0 82-144 0-41-8-95 43-50 79-71v-88zM3290 271q0-31-57-93-28-14-97-14-12 0-84 10t-85 10q-9 0-572-136-36-9-59-57-12-30-23-59-79-149-206-236-120-85-241-85-110 0-397 73-1 7-12 23 20 48 51 48 13 0 100-15.5t100-15.5q315 0 528 283 0 9-18 20-55 14-65 14-12 0-12-5.5t-13-5.5q-53 0-92 52-36 47-36 97 0 70 57 167 63 105 127 105 75 0 122-100 30-74 60-147 177-4 299 68-48 56-117 56-53 0-176-41-14 14-14 30 0 48 93 133 91 82 138 82 19 0 128-67 59-37 119-74 85-39 215-56 108-15 215-29 24-23 24-35zM914 1310q9-62-104-131-101-63-162-63-35 0-81 23 2 26 61 55 65 32 82 60-8 16-31 16-18 0-96-51h-46q-12 1-12 25 0 44 65.5 96.5t114.5 52.5q7 0 209-83zM1795 240q0-75-41-146-50-84-128-84-13 0-83 17-83 20-107 24l-461-61q-30 10-102 10-33 0-65-4-15-3-40-109-24-102-74-102-32 0-89 52-55 50-67 85-7 24-10 107-3 60-29 73-132-32-162-60-26-26-26-114l71-711q0-59-21-167-9-2-26-12-30 53-33 76l-84 773q0 91 43 193 45 109 104 140 23 13 81 25 68 14 93 23 9 3 33 33 21 27 35 27 12 0 55-49 52-56 76-73 94-63 274-63h99q69 9 87 59 23 81 82 255 3 9-14 58-13 35-2 87 12 57 44 73 70 0 96-25 58-57 177-136 112-76 150-117 64-69 64-157zM1491 1445v38h-17v-38h17zM2224 196q-10 24-32 69h-47q0-5-6-18.5t-6-17.5q34-34 47-33h44zM1693 220q-38 38-116 107h-37q0-6-5-44t-5-77q68-22 101-22 28 0 62 36zM1447 266q0 58-44 102-25 0-59-35-30-32-30-43v-52q72-18 121 0 0 3 6 8t6 20z" glyph-name="uniFB59" horiz-adv-x="3457" unicode="&#xfb59;"/><glyph arabic-form="isolated" d="M2252 1423q0-11-17.5-38t-28.5-33q-84 61-92 61 1 0-146.5-112.5t-226.5-112.5q-15 0-26 5.5t-15 5.5v37l172 112q135 92 135 127 0 10-41 53.5t-41 58.5q0 37 61 110.5t97 73.5q32 0 72-37 22-82 7-182 1 0 56-70 34-43 34-59zM1044 1878q0-45-33-96-20 2-61 62t-85 60q-59 0-130-70-67-66-95-142-13-12-27-48v-59q-5 0 14-19-1 46 46 133 57 103 120 103 56 0 73-45 4-10 7-113 2-36 10-60 6-19 44-63 35-39 35-52 0-44-35-76-31 20-92 61-114-135-328-236l-67 14q25 39 145 133 115 88 141 144-5 6-84 58v-133h-66q-64 64-64 137 0 110 33 167 63 103 145 186 111 113 195 113 68 0 116-53 43-49 43-106zM2201 313q2-12 2-27 0-51-25-108.5t-55-81.5q-22-18-94-38-77-21-107-41-19-12-63-89-37-65-73-130-27-47-97-107t-125-87q-68-31-114-41-63-13-176-13-96 0-371 83-1 6-13 23 17 37 57 37 13 0 107.5-20.5t106.5-20.5q177 0 377.5 109.5t222.5 221.5q-21 16-85 32.5t-89 33.5q-41 28-41 84 0 64 47 164 54 113 112 113 51 0 82-34 22-23 72-112 0-1 6-53 8-10 35-37 137 14 209 67-35 225-86 675-1 20-24 72t-23 61q0 26 35 97 29 60 39 72 36-3 44-38 3-22 6-46 17-18 44-29 38-15 45-20 2-9 2-16 0-31-38.5-85.5t-38.5-85.5q0-13 5-26zM1392 343q0-24-49-115-74-137-288-203-153-45-329-45-319 0-460 167v45q5 7 10 15t20 8q13 0 52-21 45-24 57-28 72-23 194-23 50 0 133 66 87 69 87 124 0 32-23 233-27 238-52 370-5 19-27 90-21 61-21 80 0 106 65 163 33-3 47-42 12-31 22-62 8-12 46-22 25-8 25-53 0-13-16-39-19-34-23-44-2-6-2-55 0-57 23.5-224.5t23.5-253.5q0-55-7-98-8-7 16-7 18 0 91.5 56t139.5 56q55 0 141-36 104-45 104-102zM2072 1609v28h-18v-28h18zM1730 191l-12 20q-10 18-27 18-9 0-22-6 0-36 46-59 10 10 15 27zM1238 273q-89 44-138 44-53 0-147.5-62t-112.5-111h54q54-1 192 49.5t152 79.5z" glyph-name="uniFB5A" horiz-adv-x="2199" unicode="&#xfb5a;"/><glyph arabic-form="final" d="M1767 1776q0-38-23-52-84-56-202-121-122-67-140-66h-54v54q0 28 167 127 159 94 177 93h63q0-4 6-12t6-23zM1725 1231q-51-42-272-125-55 109-55 148 0 35 57 106 60 74 97 74 17 0 44.5-27.5t33.5-49.5q9-32-6-81 21-8 101-8v-37zM1265 1710q-225-142-443-267h-35q-24 24-24 46 0 38 45 63 32 18 232 140 145 89 160 89h52l13-12v-59zM1675 148q0-78-55-137-17 0-34 23-95 761-95 852 0 39 12 123 8 49 53 86 12 0 33-34 86-749 86-913zM1296 961q-5-25-36-77-35-58-44-82-11-33-20-131-12-125-16-155-7-41-39-142-29-94-29-103 0-13 36-107.5t36-106.5q0-37-37-104-211-45-343-45-91 0-132 43 0 65 32 130 109-3 124 3 43 18 98 73 53 53 53 73 0 56-175 264-179 212-240 212-13 0-20.5-5t-20.5-5q-22 0-68 21-53 24-77 52-34 42-34 137 0 107 51 107 14 0 59-31 66-46 72-49 144-85 284-256l226-288q29 10 52 129 24 127 24 316 0 10-20.5 50t-20.5 58q0 36 48 123 43 77 68 102h36q3-13 3-27 0-13-4.5-39.5t-4.5-39.5q0-61 79-100z" glyph-name="uniFB5B" horiz-adv-x="1666" unicode="&#xfb5b;"/><glyph arabic-form="initial" d="M2766 1633q0-32-182-146-169-107-264-146-14 15-14 41 0 59 33 81 312 207 352 205h64q0-4 5.5-12.5t5.5-22.5zM2193 1817q0-37-110-107-79-48-159-95-74-49-217-151-36 12-36 52 0 57 53 87 62 34 235 151 145 99 159 99h62q13-13 13-36zM2152 1336q0-76-48-104.5t-141-58.5q-84-26-108-26-82 0-82 87 0 66 87 128l3-3q11-15 11-50 5 0 17.5-5t17.5-5q10 36 51 113 37-5 46-30 16-48 20-52 23 7 41 58.5t50 64.5q35-28 35-117zM2562 660q0-27-33-62t-54-35q-75 0-75 77 0 24 8 60 8 34 7 37-38 49-38 82 0 15 23 59 27 53 54 53 20 0 58.5-31.5t38.5-49.5q0-12-20.5-48.5t-20.5-49.5q0-16 26-47.5t26-44.5zM2183 569q-23-37-45-73-25-36-57-36-31 0-100 75-2 19 9 52 14 49 14 52-4 8-34 45-23 28-23 43 0 30 26 69 30 44 61 44 41 0 107-64 0-17-20-60t-20-56q0-12 34-45 45-42 48-46zM1547 1390q0-52-23-90h-41q-15 0-33 16-23 23-29 25-28-35-170-152-164-135-212-134h-42q-12 1-12 25 0 9 113 105 103 86 145 117 49 37 49 70 0 12-46 61t-46 62q0 51 61 130 66 85 123 85 85 0 85-136 0-33-5.5-74t-5.5-39q30-21 89-71zM1701 870q0-34-33-65-31-27-58-27-15 0-34.5 10.5t-33.5 10.5q-12 0-48-26t-48-26q-23 0-68 31t-45 46q0 35 37 73 34 34 55 34 11 0 37-10t39-10q14 0 50 30.5t48 30.5q32 0 67-36.5t35-65.5zM616 1484q0-45-120-119-69-40-138-78-79-55-239-140-25 24-25 46 0 50 94 113 315 210 363 209h52q13-13 13-31zM2664 266q0-102-57-169t-137-67q-85 0-175.5 41t-101.5 41-75-42q-70-46-103-57-69-23-165-23h-97q-13 0-130.5 30.5t-130.5 30.5q-28 0-83-13-70-18-98-40-15-12-37-63-37-84-38-85-97-196-296-266-94-34-160-34-90 0-209 27-135 31-211 79l13 27q44 0 154.5-10.5t114.5-10.5q129 0 286 80 179 90 252 222-16 15-28 23-8-2-18-2-67 0-127 28-73 35-73 94 0 56 50 154 59 117 123 117 59 0 117.5-102t92.5-102q51 0 64 19 11 13 16 48 9 47 10 52 17 55 87 157 87 123 146 123 72 0 121-36 43-31 43-133 0-117-82-215 19-24 51-27-20 2 56 2 152 0 224 33 15 6 69 50 46 40 61 40 12 0 125-46.5t126-46.5q82 0 118 18 0 23-11 74t-11 62q0 69 45 112 41-8 67-78 22-58 22-116zM411 788q0-20-24-59-27-43-52-43-20 0-64 32.5t-44 44.5q0 23 30 63 34 44 67 44 87 0 87-82zM739 235q0-127-45-202-44-70-164-125-112-51-195-51-313 0-313 266 0 63 48 155 49 95 99 120h37q0-3 5.5-11.5t5.5-23.5q0-12-36-84t-36-85q0-107 77-142 45-22 154-22 78 0 164 31 117 43 117 118 0 12-61.5 143.5t-61.5 142.5q0 30 16 65 18 43 45 43 59 0 107-155 37-121 37-183zM1383 1527v27l-49 11v-38h49zM1701 319v58q-35 33-61 33-32 0-80-55-43-51-43-74 0-11 24-35h42q41 0 118 73z" glyph-name="uniFB5C" horiz-adv-x="2661" unicode="&#xfb5c;"/><glyph arabic-form="isolated" d="M999 1266q0-162-179-183-15-2-56-20-39-17-52-17-34 0-61 43-21 34-21 55 0 23 39 78 34 49 49 59 20-35 4-85 17-17 34-17 28 28 49 110 13 14 30 14 57 0 37-77 0-3 10-16 42 7 45 54 4 55 24 68h35q13-25 13-66zM1480 247q0-125-44-213-11 0-35 32-12 161-60 535-46 352-46 353 0 54 44 142h37zM988 816q0-28-42-63t-60-35q-31 0-67 29.5t-36 52.5q0 22 27 59 31 44 61 44 16 0 65-31 52-33 52-56zM1654-176q0-45-102-75-59-13-117-26-48-24-148-68 0 5-5.5 18t-3.5 19q2 5 16 25 12 15 12 30 0 12-20.5 37.5t-20.5 39.5q0 35 73.5 106.5t105.5 71.5q19 0 43-31.5t24-50.5q0-55-93-67 29-15 62-15 9 0 162 20 0-3 6-11.5t6-22.5zM1746-310q0-51-34-64l-413-156q-14 2-14 26 0 56 54 83 82 40 202 88t139 48h54q12-1 12-25zM1213 53q0-19-36-88-33-64-41-72-224-187-567-187-159 0-267 63-143 84-143 259 0 85 58 198 65 125 161 194h36q-26-69-90-160-53-75-53-176 0-115 141-183 105-52 198-52 95 0 215 29 145 37 235 100-30 44-120 61-103 20-135 46v49q36 34 119 59 86 27 126 61 6 34-34 98-12 19-67 89-43 53-43 68 0 17 21 53 24 44 51 44 30 0 80-59 41-48 49-67 45-118 45-146 0-11-22-72-24-67-30-101 41-20 83-41 30-18 30-67zM1122-346q0-39-34-58-81-47-207-106.5t-145-59.5h-53q-12 1-12 25 0 56 54 83 113 47 339 146h34q8-4 16-9t8-21z" glyph-name="uniFB5E" horiz-adv-x="2014" unicode="&#xfb5e;"/><glyph arabic-form="final" d="M2159 1434q0-36-214-163-204-121-294-149-14 14-14 31 0 49 210 176 138 84 255 141h44q13-13 13-36zM1085 1393l-23-55h-33q-12-1-41.5 25t-41.5 26q-15 0-20-6-6-8-8-8-162-192-277-216-27-16-43-16-12 0-28.5 5.5t-26.5 5.5v37l146 92q84 56 150 121-16 25-68 73-45 41-45 54 0 41 56 121 60 84 103 84 57 0 72-100 3-52 6-106 17-29 76-66 46-29 46-71zM510 1354q-10-60-127-124-108-57-174-57-12 0-28 5.5t-25 5.5l-13 12v38q45 20 144 60 5 22-37 22-18 0-80-40h-47v45q-1 36 74 75 64 34 89 34 18 0 102-27 94-28 122-49zM2149 283q3-10 3-20 0-23-18-56-21-39-24-54-18-79-121-123-81-34-173-34-115 0-371 192-78 45-244 146h-27l-12-132q-9-87-59-131-26-23-177-48-75-13-203-21-14-21-35-99-17-66-47-91-66 0-130 80-62 77-62 151 0 27 11 49-11 6-51 6-112 0-173-99-2-3-2-64 0-13 31-330.5t31-329.5q0-36-15-79-18-53-44-59l-85 767q0 23-3 38.5t-3 18.5q0 17 51 134 18 43 67 90 52 51 97 62 39 5 112 27 7 4 27 28 17 22 32 22 22 0 79-59 30-31 61-63 63-32 172-32 200 0 250 66-53 131-171 216-92 57-183 113-86 63-86 158 0 172 372 401 173 108 347 216 224 138 281 150 14-14 14-30 0-80-116-147-627-360-793-536-14-52-14-36 169-91 418-218 172-86 298-184 84-65 214-122 43-21 86-43 56-25 107-25 37 0 105 20 71 19 84 37-16 197-86 675-3 17-21 61-16 39-16 57 0 83 34 151 15 31 53 44 26-11 26-74v-11q0-15 2-20 16-18 43-30 38-15 46-20 0-81-25-120-22-18-46-53z" glyph-name="uniFB5F" horiz-adv-x="2159" unicode="&#xfb5f;"/><glyph arabic-form="initial" d="M2794 1300q0-21-127-91l-172-90q-82-52-229-130-11 6-21 12-14 8-14 24 0 50 54 83 172 104 484 260 15-12 25-12v-56zM2027 1045q0-17-17-36.5t-35-19.5q-13 0-56.5 30.5t-55.5 30.5-66-54q-65-67-90-85-40-30-113-61-113-50-125-55l-77 14q29 29 176 124 140 91 193 153-23 36-81 65-42 21-42 68 0 48 53 115 60 75 120 75 79 0 79-155 0-33-5-74 45-33 89-67 53-38 53-68zM2886 139q0-19-28-119-47-164-154-277-121-126-268-126h-113q-62 0-148 26-90 27-128 60 14 39 88 30 95-13 116-13 75 0 127 13 35 8 255 122 44 23 107.5 114t63.5 129q0 55-107 134-25 19-25 56 0 6 33 107 79-28 134-115 47-76 47-141zM921 1710q0 5-34-76-7 0-25 4-20 28-39 57-17 20-56 20-62 0-130-75-58-66-72-125-9-40-9-78 0-18 2-48.5t2-45.5q0-34-10-67h-36q-44 60-44 102 0 125 88 278 103 182 240 182 52 0 89-42 34-40 34-86zM910 1280q0-24-12-55h-32q-13 0-49.5 25t-49.5 25-32-18q-56-91-169-146-76-35-151-71-16 13-26 13 12 37 129 123 122 89 147 145-92 77-92 129 0 36 54 106 60 78 115 78 57 0 68-112v-127q14-19 66-48 34-20 34-67zM2395 283q0-104-46.5-170t-117.5-66q-12 0-64 10t-64 10q-15 0-61-30.5t-128-30.5q-12 0-82.5 10t-81.5 10q-30 0-94-18-81-23-112-55-50-97-177-303-39-53-90.5-80.5t-143.5-53.5q-79-22-105-22-76 0-203 26-131 26-210 59v36q22 23 50 23 13 0 125.5-20.5t124.5-20.5q107 0 272 98 171 102 225 206v27q-17 17-36 17-10 0-23.5-5t-27.5-5q-68 0-111 50-37 44-37 103 0 77 57.5 171.5t110.5 94.5q49 0 86-66 22-50 45-100 21-45 45-70 134-11 206 70 15 32 29 64 25 54 61 72 24-21 24-63 0-8-20-105 17-17 42-17 130 0 161 45 43 99 86 200h37q18-63 2-146 43-27 92-27 34 0 52 18 0 12-14.5 50t-14.5 60q0 17 31 137h47q53-160 53-193zM921 190q0-230-98-313t-254-113q-67-13-124-13-20 0-78 24-65 29-110 61-31 23-59 99-25 65-25 91 0 65 75 199 77 139 122 139 18-1 18-25 0-12-51-98t-51-133q0-83 82-143 70-51 138-51 72 0 174 37 110 40 159 92 2 82-21 225-19 111-38 224-2 16-10 171-5 110-27 165-12 32-36 52-11 10-11 68 0 98 64 183h36q8-15 23-98 9-48 71-78-41-101-41-151zM1811 1226q0 12-5.5 33t-5.5 26q-15 0-32-14.5t-17-22.5q46-23 60-22zM735 1451v38h-38v-38h38zM1370 110q-21 75-58 79l-13-56 24-23h47z" glyph-name="uniFB60" horiz-adv-x="2886" unicode="&#xfb60;"/><glyph arabic-form="medial" d="M2525 1801q0-61-25-77-78-51-216-122-173-90-222-117h-35q-12 13-12 31 0 52 43 77 390 219 427 219 15 0 26-5.5t14-5.5zM2567 1305q-14-28-54-63-125-40-236-95h-32q-14 0-12 26 2 44 3 39l-29 29q-18 18-18 34 0 32 74 116t99 84q17 0 44-22.5t35-43.5q4-22-15-65-6-23 13-23 5 0 33.5 4.5t82.5 4.5q4-9 12-25zM2496 287q0-39-22-184-5 0-24-5t-24-5l-94 941q0 94 54 153 13 0 34-34zM1165 1372q0-16-35-51-14 4-48 34-31 27-45 27-12 0-64-54-64-66-90-86-66-48-205-106-16 13-25 13 35 39 174 170 112 106 112 120 0 13-35 37-52 36-55 41.5t-3 15.5q0 58 51 133 56 85 119 85 27 0 42-23 31-53 31-104 0-20-6-55-7-40-8-58 28-33 56-68 34-42 34-71zM848 1459q0-21-45-87-2 0-18.5 10.5t-29.5 10.5-35-26q-35-39-38-42-99-89-237-158h-35q-13 13-13 31 0 33 94 104 162 121 162 141 0 14-29 35-44 31-53 38-2 8-2 19 0 60 52 140 56 86 109 86 73 0 73-101 0-97-28-120 8-10 44-43 29-25 29-38zM2321-209q0-46-100-94-59-24-117-48-98-44-298-139h-35q-12 1-12 24 0 40 25 72 158 74 480 220h34q23-24 23-35zM867 869q0-33-11-69-21-63-65-63-20 0-62 20-45 20-45 36 0 13 34 64 38 54 57 54 24 0 92-42zM2168 297q0-15-26-86-26-74-38-85-17-3-64-3-69 0-193 41-54-66-109-132-33-32-92-32-91 0-132 34-69 62-98 214-34 187-52 223-50-45-136-142-9-13-8-52 2-62 3-57-11-172-168-275-135-88-294-88-151 0-245 74-99 78-99 212 0 58 58 168 60 117 112 140 15-15 15-41 0-12-36-110t-36-111q0-81 102-136 82-43 149-43 79 0 200 42 163 54 163 137 0 72-51 173.5t-51 108.5q0 21 14 59 17 43 32 43 13 0 64-30.5t64-30.5q54 0 97 80 47 90 93 104 50-45 64-139l18-130q17-80 35-159 35-104 138-104 45 0 79 22 67 94 133 188 131 179 183 179 36 0 78-126 34-104 34-130zM1554-235q0-25-36-64t-51-39q-11 0-34.5 15.5t-37.5 15.5q-13 0-53.5-30.5t-54.5-30.5q-27 0-111 52-6 35 24.5 83.5t66.5 48.5q11 0 40-15.5t42-15.5 48.5 30.5 48.5 30.5q26 0 67-33t41-48zM1011 1580q-18 36-50 36 0-27 23-49 9 0 27 13zM2022 288q0 48-21 90-18-18-58-56 30-12 79-34z" glyph-name="uniFB61" horiz-adv-x="2507" unicode="&#xfb61;"/><glyph arabic-form="final" d="M2816 1484q-11 0-7-25 4-29-4-34-123-105-408-257h-46v54q0 13 145 107t278 165zM2473 1520q0-31-55-100-49-63-90-96-31-24-95-24-17 0-43.5 5.5t-38.5 5.5q-26 0-103-52-15 15-15 36 0 43 83 112 30 5 82 27 30 23 103 104 61 69 75 69 26 0 60-27 37-29 37-60zM2668 824q0-32-30-64.5t-52-32.5q-31 0-68 33-35 31-35 49t34 60 53 42q25 0 63-40 35-37 35-47zM1981 1739q-5-33-26-77-204-128-489-269h-36q0 4-6 9.5t-6 20.5q0 16 16 43t28 35q431 240 464 238h55zM2832 301q0-30-14-92-26-111-90-165-27-21-64-31-86-23-165-23-84 0-161 35-91 42-108 112-19 79-27 254-5 140-10 279-4 63-26 238-22 166-22 172 0 64 57 138 12-6 32-24 0-16 24-236 16-152 13-247-1-29 12-120 14-95 14-145 0-12-2-35t-2-34q0-224 257-224 79 0 93 3 65 9 97 55 6 27-27 76-109-82-132-82-33 0-86 43.5t-53 68.5q0 54 60 168 69 129 130 129 65 0 138-145 62-124 62-168zM1910 1336q0-92-75-148-61-46-125-45-6 0-33.5-18.5t-48.5-18.5q-35 0-58 34-18 26-18 48 0 27 24 88 21 53 30 64h37v-94q-7-7 16-7 27 0 47 68 23 79 46 95 11-13 42-113 22 6 32 55 15 63 25 78h36q23-46 23-86zM1910 773q0-28-33-62.5t-54-34.5q-33 0-94 64-1 10 12.5 44t13.5 53q0 8-3 17t-21 31q-15 19-15 31 0 23 33.5 65.5t58.5 42.5q19 0 55.5-31.5t36.5-50.5q0-11-20.5-40t-20.5-42 25.5-43.5 25.5-43.5zM1286 1305q0-21-46-66-7 3-70 43-45 29-59 29-12 0-55-47-54-58-73-73-97-72-265-147l-56 14q34 55 156 137 140 94 202 162-10 14-67 65-47 43-47 57 0 50 62 128 68 87 133 87 14 0 28-6 45-36 45-129 0-27-4.5-72t-4.5-57q121-96 121-125zM1511 788q0-17-37.5-54.5t-55.5-37.5q-12 0-42.5 20.5t-43.5 20.5-49-25.5-49-25.5q-19 0-101 55 9 32 36 72 30 47 50 47 11 0 42.5-15.5t44.5-15.5q12 0 46.5 30.5t45.5 30.5q52 0 113-102zM497 1382q0-73-56-133.5t-118-60.5q-82 0-82 97 0 41 36 126 45 105 97 105 61 0 97-55 26-40 26-79zM2012 266q0-33-14-98-23-108-113-145-59-23-185-23-109 0-216 23-7 2-35 16-26 12-40 12-31 0-129-20-122-24-182-54-14-8-38-67-29-77-45-102-68-108-141-162-36-27-93-52-101-44-187-44-49 0-215 23-62 8-209 71 3 49 40 49 13 0 64.5-10t64-10 45.5-10.5 47-10.5q316 0 548 293-13 27-70 32-40 3-80 5-86 24-86 141 0 63 57 155 62 100 122 100 59 0 108-117.5t97-117.5q91 0 161 43l60 192q73 185 188 185 54 0 66-17 35-50 58-120 4-12 4-57 0-123-51-172 0-26 36-31 100-13 102-13 48 0 105 17 74 23 74 60 0 33-89 152-2 12-2 37 0 41 33 92 50-15 95-92t45-153zM446 225q0-116-34-163-9-1-25 9-19 12-20 26-12 128-37 389-8 79-35 283-23 176-23 188 0 77 55 148 24-12 34-115 8-93 15-186 22-128 56-389 14-139 14-190zM2353 1466l-11 11-36-35 11-12zM2647 406l-33 33h-36l-13-47q25-23 46-23 36 0 36 37zM1091 1542q-13 13-39 13l-11-48q5 0 19-5.5t18-5.5zM1572 312q0 16-20 44-25 33-52 33-26 0-64-44t-38-69q0-15 5.5-25.5t5.5-13.5q10 0 18.5-6t22.5-6q20 0 68 30 54 33 54 57zM394 1334q0 5-5.5 23t-5.5 23q-32 5-59-57 9 0 23-10 21-5 47 21zM927 167q-19 37-38 37-5-5-11.5-18.5t-11.5-18.5h61z" glyph-name="uniFB63" horiz-adv-x="3213" unicode="&#xfb63;"/><glyph arabic-form="initial" d="M1817 1406q0-51-42-116-45-68-95-82-49-1-153-16-18-4-47-34-36-37-47-44-25 25-25 41 0 15 30 63.5t56 74.5q21 11 59 37 40 47 113 127 36 36 75 36 35 0 58-37 18-29 18-50zM1213 1513q0-27-193-127-174-90-276-128v58q114 96 445 238 24-25 24-41zM1725 289q0-110-43-188-11 0-35 33-17 140-69 501-47 322-47 330 0 76 54 148 24 0 31-24 11-111 63-459 46-311 46-341zM1172 1160q0-156-178-184-13-1-47-18.5t-51-17.5q-24 0-49 33-23 30-23 49 0 29 31 90 27 58 46 73 22-20 23-47.5t1-55.5q39 8 39 67-1 61 39 77h34q5-36 20-113 24 10 26 58 3 56 31 86h36q22-35 22-97zM599 1155q0-51-34-69-90-50-379-218h-45q-13 13-13 36 0 48 192 163 180 109 265 128 14-14 14-40zM1439 238q0-69-67-205-73-35-107-35-100 0-212 133-10-1-23-25-19-34-26-42-40-48-97-83-54-34-83-34-80 0-119 32t-92 142q-125-82-249-82-40 0-101 23-51 19-63 30 17 121 159 227 116 75 232 151 18 13 39 70 17 46 33 92 14 0 34-34 9-281 38-410 15-68 89-68 58 0 124 50 71 53 71 109 0 13-25.5 153.5t-25.5 154.5q0 12 12 61 16 61 20 86h38q21-130 66-392 4-27 47-91 52-79 89-79h90q6 7 6 30 0 13-61.5 212.5t-61.5 213.5q0 34 24 114 12 7 33 24 12-12 32-34 8-114 47-205 90-213 90-289zM609 235q0 64-12 100h-45q-44-21-178-129l109-13q14 8 63 11 40 3 63 31zM5338-247z" glyph-name="uniFB64" horiz-adv-x="1722" unicode="&#xfb64;"/><glyph arabic-form="medial" d="M5082 1371q-5-25-27-66-75-60-210-145-162-102-217-143-49 0-49 46 0 44 63 86l94 54q92 61 278 183 28-2 68-15zM4507 1746q-171-104-516-319-15 12-24 12v54q-1 36 208 166 198 121 299 157 11-6 33-22v-48zM4508 1351q-20-66-168-102-38-28-123-78h-34q-1 2-2 3.5t-1 83.5q0 10-15 34t-15 38q0 27 54 105 60 85 99 85 30 0 78-54 3-21-17-82 32-9 120-9zM4467 255q0-40-42-126l-27-12-136 925q-14 72 45 149 42-21 56-87 8-55 15-111 27-158 61-451 28-255 28-287zM5112 184q0-142-84-288-97-167-247-217-70-23-268-23-247 0-322 66 27 47 71 47 13 0 92.5-5t92.5-5q186 0 347.5 101t225.5 261q3 7-6 16-23-8-55-40-22-22-72-22-61 0-104 54-40 50-40 105 0 46 44 145 56 126 126 126 41 0 61-22 138-149 138-299zM3966-134q0-47-54-74-399-197-455-197h-42q-7 5-15 10t-8 20q0 50 225 153 146 62 291 123h46q0-4 6-12t6-23zM2317 1111q-9-9-18-19-14-13-28-13-12 0-68.5 41t-70.5 41q-10 0-54-49-53-61-81-81-62-32-186-105l-96 11q-6 22 41 55l152 96q122 83 122 119 0 23-41 58.5t-41 69.5q0 42 52 110 56 75 107 75 87 0 87-207v-24q1-15 2-18 36-40 121-101v-59zM4180 414q0-64-84-160t-165-125q-385-135-698-135-85 0-214 22-157 26-208 63-10 8-39 42-20 26-35 26-13 0-37-23-29-30-38-35-119-75-258-75-78 0-148.5 51t-86.5 51q-13 0-50-23-45-28-61-35-22-9-125-31-78-16-120-46-12-8-34-63-26-64-40-85-103-156-203-214-110-65-263-65-277 0-379 97l12 24q12 8 37 8 30 0 100-13.5t87-13.5q138 0 305 76 198 89 258 224-16 8-82 8-78 0-130 43-55 45-55 120 0 52 54 147 62 109 121 109 51 0 114-97 43-70 87-139 93 10 121 17 77 18 128 60-37 44-72 48h-80q0 3-5.5 8.5t-5.5 20.5q0 32 45 77.5t91 61.5q67 24 160 24 66 0 135-32 80-40 80-95 0-38-93-135l29-22q72-23 125-23 91 0 193.5 72t124.5 72q29 0 51-22 44-41 70-59t73-28q39-9 79-18 56-17 51-17h243q20 0 101 62 86 64 96 99 14 43 14 101 0 11-8.5 48.5t-9.5 53.5q-2 30-29 234-22 161-18 246-10 22-47 38-6 141 74 255h36l24-96q16-54 80-81v-35q-61-99-61-162 0-6 21-210 22-220 28-328 43 17 154 95 84 60 145 60 58 0 139-34 96-40 96-89zM2983-231q0-40-54-69-41-23-64-23-11 0-38.5 15t-43.5 15q-13 0-54-30.5t-53-30.5q-36 0-113 74-4 39 25 74.5t62 35.5q15 0 50.5-15t46.5-15q13 0 51.5 30.5t50.5 30.5q31 0 82.5-36.5t51.5-55.5zM884 700q0-32-34-68-30-34-48-34-38 0-85.5 29.5t-47.5 52.5q0 18 31.5 60t54.5 42q45 0 86-23 43-24 43-59zM1222 234q0-79-4-95-7-37-52-122-9-17-141-98-48-29-135-53.5t-144-24.5q-124 0-218 70-105 79-105 205 0 71 52 172 49 96 105 145 48 0 48-35 0-13-41-105t-41-105q0-101 87-149 63-35 149-35t196 38q152 53 152 142 0 48-61.5 162t-61.5 109q0 29 19 68 22 44 47 44 59 0 135-208 14-40 14-125zM832-241q0-56-43-79-313-167-362-167h-42q-13 14-13 36 0 50 43 72 327 168 353 168h51q13-13 13-30zM4937 262v35q-16 35-46 35-35-18-35-52 0-17 13-30h38q26 0 30 12zM4017 338q-138 35-133 35-58 0-139-63-4-3-138-120h37q98 27 197 55 126 39 176 93zM1631 151q-20 40-56 58-21-12-14-60 33-16 70 2z" glyph-name="uniFB65" horiz-adv-x="5113" unicode="&#xfb65;"/><glyph arabic-form="final" d="M2214 1236q1-28-74-72-407-238-437-238-41 0-41 46 0 44 120 114 64 34 128 67 94 55 279 151 15-11 25-11v-57zM1682 1390q1-34-84-102-34-29-144-87-144-77-174-94-248-149-656-447h-47v54q0 99 760 561 266 163 290 162h55v-47zM2256 255q0-105-100-266-109-177-241-247-63-35-198-35h-116q-51 0-264 55-10 7-33 30 0 49 45 49 13 0 95-15.5t95-15.5q162 0 320 84 182 97 295 280l-9 36q-23-10-58-45-27-28-62-28-50 0-104 51.5t-54 97.5q0 54 46 154 59 127 132 127 77 0 150-135 61-116 61-177zM781 1545q0-93-197-161-146-49-212-49-13 0-111 20.5t-105 20.5q-29 0-59-41-36-48-70-61-14 1-14 25 0 40 54 122 57 88 100 88 11 0 83.5-30.5t85.5-30.5q197 0 398 132h34q13-13 13-35zM1519 286q0-44-19-93-24-66-63-66-49 0-280 52-17-33-53-91-42-52-133-71-106-23-287-23-109 0-131 5-89 19-187 108-6 6-19 65-7 36-24 256-7 164-27 492-1 21-19 81-18 57-18 73 0 44 55 117 57-24 64-65 45-262 45-471v-268q0-230 281-230 104 0 208 21 143 27 184 80 13 39 47 102 61 67 162 181 21 26 60 26 28 0 87-98 48-79 63-120 4-12 4-63zM2071 369q-10 10-12 23h-36q-23-25-11-69h47zM1343 313v36q-11 12-37 12l-12-48h49z" glyph-name="uniFB67" horiz-adv-x="2462" unicode="&#xfb67;"/><glyph arabic-form="initial" d="M4431 1624q0-48-34-63-49-22-289-140-181-87-196-87h-54q18 76 59 108 38 19 76 40 335 179 383 179h42q13-14 13-37zM4440 1229q1-57-80.5-82.5t-81.5-74.5l91-825q0-98-62-184-23 151-45 301-25 178-29 309-2 33-21 131-18 92-18 142 0 62 22 107v27q-7 5-19 5-18 0-59-16-49-19-64-22 0 21 15 96-1 2-20 23-17 17-17 28 0 37 77 117 81 83 133 83 18 0 37.5-32.5t19.5-54.5q0-18-17.5-37t-34.5-19q-14 0-56 20l-15-15q27-26 55-26 178 0 189-1zM3856 1085q0-10-10-32-12-26-14-33-214-117-323-117-15 0-25.5 6t-13.5 6q5 41 59 68 83 41 103 58-40 46-56 46-11 0-53-26t-66-26q-17 0-30 10 28 50 77 97 61 58 108 58 14 0 244-115zM3161 1333q0-40-62-81-42-22-84-45-47-27-143-82-136-79-300-161-15 15-15 36 0 49 26 66 123 81 531 297h34q13-13 13-30zM2475 1287q0-20-23-66h-32q-13 0-41.5 30.5t-41.5 30.5q-12 0-64-52-62-62-87-78-122-81-228-126l-56 14q56 51 174 149t174 150q-6 8-65 61-37 35-37 66 0 52 73 119 72 65 116 65 69 0 69-105 0-64-21-133 90-102 90-125zM3150 506q-37-35-175-73-148-41-206-82h-46q-4 45 28 77-2 5-28 33-22 22-22 37 0 41 79 120.5t120 79.5q30 0 61-34.5t31-74.5q0-15-5-28 17-16 36-16 12 0 40 9t43 9q25 0 44-22v-35zM4062 279q0-77-41-149-49-87-128-87-11 0-74 25.5t-74 25.5-46-32.5-51-36.5q-52-13-123-13-63 0-108.5 25.5t-44.5 25.5q-13 0-37-17-26-19-34-21-216-53-314-53-10 0-105-10.5t-110-10.5q-361 0-435 184-99-143-302-143-118 0-217 55-110 73-221 146-92 67-183 134-99 72-180 96 0-21 6.5-62.5t6.5-51.5q0-44-14-98-45-172-410-172-8-1-25-13 0-57-18-135-24-103-60-103-83 0-134 107-41 87-41 175 0 27 6 38-12 7-57 7-169 0-169-103l61-757q0-58-4-129-6-12-44-34l-95 839q0 342 331 360 16 19 53 49 34-31 106-91 71-52 165-52 47 0 143 18 106 20 114 37 1 93-204.5 308t-205.5 297q0 56 85 167 45 57 132 110 78 47 307 170 298 159 557 275 5-5 12-18t13-18q-12-38-54-94l-554-296q-386-207-386-260 0-37 489-353 167-128 512-352 61-32 218-32 115 0 165 27 70 38 70 146l-61 681q0 89 57 129l17-13q29-148 62-638 11-75 30-214 13-93 148-136 102-34 208-34h128q41 0 158 15 160 20 250 49 25 8 85 91 56 78 92 80 14-13 14-35 0-17-41-142 35-17 62-17 78 0 136 23 31 12 45 36l46 104q36 74 76 93 11-18 11-52 0-67-27-116 5-13 36-27h110l10 9q0 18-6.5 64.5t-6.5 60.5q0 54 33 122 32-15 57-83 22-60 22-100zM1226 1476q0-15-23-60h-32q-13-1-36.5 19.5t-36.5 20.5q-12 0-54-49-48-58-65-71-92-67-249-126-18 0-35.5 6t-19.5 6q0 17 2 23l212 144q123 86 123 142-83 48-83 104 0 66 73 126t140 53q42-50 42-108 0-23-9.5-69t-7.5-72q59-64 59-89zM672 1417q-192-155-250-155h-95q0 5-5.5 24t-5.5 24q53 20 153 70-26 45-52 45-12 0-106-60h-47v43q0 43 84 89 73 41 106 41 10 0 91-28 88-30 127-35v-58zM2321 1480q-17 36-39 36v-37q19-20 39 1zM2882 546q0 14-25 39 0-5-11-14t-11-14zM1099 1642q12 32-23 49-18-32 12-61z" glyph-name="uniFB68" horiz-adv-x="4372" unicode="&#xfb68;"/><glyph arabic-form="medial" d="M2607 1538q0-45-218-193-184-125-258-160-15 12-24 12v54q-1 30 453 313h35q12-2 12-26zM2137 1559q0-43-16-55-168-108-500-339-5 0-18 5.5t-18 5.5v44q-1 69 504 364h35q13-1 13-25zM1655 796q0-70-155-123-118-41-172-41-18 0-41 24v36q46 18 143 69-13 15-41 15-12 0-48.5-25.5t-49.5-25.5h-32q-8 5-15.5 10t-7.5 20q0 49 84 100 72 44 100 44 12 0 212-66 23-15 23-37zM2802 372q0-77-97-178-34-35-90-70-42-27-166-72-144-54-205-54-184 0-268 144-16-8-71-83-46-61-101-61-64 0-116 36t-79 36q-12 0-59-25-54-29-72-34-202-64-350-64-167 0-248 135-16 49-50 131-26-28-88-79-71-44-162-44-27 0-94 23-72 25-80 43 23 111 184 231 189 141 208 170-14 139 65 178 12-12 30-34l14-236q9-162 59-243 68-111 223-111 143 0 287 61t159 61q10 0 99-40.5t106-40.5q47 0 89 68 13 22 13 59l-102 758q12 39 44 107 38-11 51-70l14-98q24-210 77-625 7-47 51.5-104t82.5-65q4 7 11 124 2 28 9 47 122 290 310 290 37 0 107-40 77-43 103-88-11-32-44-32-23 0-76 23-26 12-78 0-57-12-114-42-98-49-98-113 0-13 44-73 46-63 66-73 24-12 43-12 32 0 130 54 80 45 98 59 26 30 83 90h36q12 0 12-24zM2995-881h-58 58zM1748-309q0-26-29-59t-48-33q-13 0-56.5 20.5t-56.5 20.5q-12 0-50.5-30.5t-52.5-30.5q-33 0-73 27-44 30-44 64 0 33 34 70 30 33 48 33 10 0 54-25.5t58-25.5 44.5 35.5 42.5 35.5q42 0 87-41 42-38 42-61zM918-150q0-16-18.5-41t-35.5-33q-123-57-370-177h-34q-13 14-13 30 0 50 192 151 117 58 233 116 46-23 46-46zM825 317q0 64-13 90-186-73-231-151 9 0 36.5-6.5t39.5-6.5q82 0 168 74z" glyph-name="uniFB69" horiz-adv-x="2808" unicode="&#xfb69;"/><glyph arabic-form="isolated" d="M1019 1178q0-40-156-97-139-51-171-51-24 0-72 23 11 32 78 59 92 37 106 47-16 32-46 35-15 0-68-28-69-36-88-44-13 2-13 26 0 38 85 105 82 63 125 63 34 0 125-54 95-55 95-84zM1766-174q0-50-465-250l-66 13q20 66 53 85 91 55 250 128 153 72 174 71h54v-47zM1757 283q0-144-103-144-64 0-153.5 36t-82.5 36q-9 0-47-48-44-54-78-72-26-12-80-22-65-12-91-21-1-3-30-120-19-82-58-122-70-74-200-118-115-40-224-40-328 0-328 282 0 95 157 290 18-1 48-14-93-214-93-225 0-90 87-139 70-41 159-41 95 0 220 45 159 58 159 140 0 90-56.5 185.5l-56.5 95.5q0 48 56 107 28-15 65-59l44-54q43-40 122-40 66 0 115 32 18 12 141 185 109 152 169 152 51 0 99-146 40-117 40-161zM753 477q0-36-43-67-35-25-50-25-33 0-101 42 0 34 23 84 27 58 58 58 35 0 76-41 37-36 37-51zM1612 326q0 34-22 78-15 5-41-19-22-21-28-38 62-41 91-21z" glyph-name="uniFB6A" horiz-adv-x="1755" unicode="&#xfb6a;"/><glyph arabic-form="final" d="M2204 1702q-100-83-267-168-277-140-279-141h-35q-13 1-13 25 0 13 29.5 54t45.5 49q49 24 288 148 176 91 190 91 15 0 25.5-5.5t15.5-5.5v-47zM2204 1230q-67-30-195-90 32-46 38-100 85-866 85-794 0-85-42-214-7-1-24-12-7 18-23 45 18 141 8 216-44 229-113 686-6 52 30 143-4 9-18 9-15 0-50-14-41-17-51-20-18 32-7 86-47 50-47 73 0 40 72 115t107 75q30 0 55-27 21-24 42-50-10-25-51-82 30-9 172 3 0-5 6-24t6-24zM1467 1223q0-26-43-52-174-108-230-105h-64q0 3-5 24.5t-5 34.5q40 19 122 68-31 36-67 36-39 0-110-71h-48v44q0 40 81 92 74 47 108 47 35 0 261-84v-34zM1621-245q0-31-43-68-40-35-65-35-38 0-107 63 0 17 32 70 36 61 65 61 25 0 73-42 45-40 45-49zM1959 262q-49-86-81-110-28-19-88-19-13 0-95 10t-94 10q-10 0-143-49-147-56-210-70-28-8-141-15-87-6-134-32-25-14-58-88-50-111-57-121-63-112-177-175-97-53-186-53-97 0-273 34-16 2-55 42 19 33 58 33 17 0 58-8.5t63-8.5q57 0 172 33 82 23 211 141 134 122 134 184 0 6-25.5 38t-25.5 69q0 33 26 61 24 26 46 26 12 0 68.5-25.5t68.5-25.5q59 0 161.5 25t161.5 53q-10 18-52 41-45 25-76 25-32 0-195-41-14 14-14 30 0 38 64 110 58 65 91.5 80t69.5 15q31 0 88-36 79-50 113-64 77-35 235-82 79-4 160-8 104-6 131-29zM863-522q0-48-126-106-109-50-164-71-50-30-154-88h-56q14 77 34 90 91 58 238 132 143 74 163 74h42q8-5 15.5-10.5t7.5-20.5zM884-696q0-16-21.5-42.5t-43.5-35.5q-408-177-413-177h-53q-12 1-12 25 0 51 44 72 108 54 265 120 160 68 179 68h42q13-13 13-30zM1954 1270q15 15-11 41-9-10-14-29 9 0 25-12z" glyph-name="uniFB6B" horiz-adv-x="2134" unicode="&#xfb6b;"/><glyph arabic-form="medial" d="M1049 1280q8-59-114-119-108-53-177-53-37 0-108 23 13 38 71 49 70 15 93 37 0 19-18 31-9 3-23 3-46 0-149-62-15 15-15 32 0 59 85 105 69 38 115 38 16 0 240-84zM1479 268q0-83-24-191-20-32-55-43l-115 992q0 54 44 130 5 7 55 33 38-169 50-301 45-466 45-620zM783 641q0-24-41-62-38-34-51-34-47 0-101 51-4 11-4 22 0 37 29.5 74t55.5 37q29 0 69-27 43-29 43-61zM1582-131q0-46-54-68-110-43-321-126-15 32-8 95-37 43-37 79 0 47 74 117 71 67 105 67 26 0 56.5-40.5t30.5-74.5q0-25-17-35 1-2 1-11 0-3 17-3 11 0 43.5 15.5t43.5 15.5h53q13-13 13-31zM1705-258q0-50-181-130-167-70-335-142h-34q-13 14-13 31 0 50 211 142l316 134 22-12q14-9 14-23zM1142 171q0-150-77-236-66-75-192-123-118-45-228-45-127 0-208 75-84 77-84 206 0 135 157 291 38 0 38-25 0-13-36-105t-36-105q0-173 220-173 125 0 231 49 133 60 133 165 0 11-61.5 129t-61.5 132q0 31 44 117 39 0 64-42 49-84 72-166 25-85 25-144zM1325-129q0 28-12 34-10 5-28-8 13-26 40-26z" glyph-name="uniFB6D" horiz-adv-x="1484" unicode="&#xfb6d;"/><glyph arabic-form="isolated" d="M3261 1758q0-53-33-74-119-73-284-164-173-95-191-94h-55v44q0 14 22.5 39t41.5 34q63 32 261 148 159 92 173 92h53q12-1 12-25zM3261 1262q0-41-75-70l-110-40q39-151 58-253 29-155 55-453 21-241 21-290 0-90-33-163-5 0-18.5-5t-18.5-5l-135 1012q11 47 33 145-44-26-132-63-7 10-7 22 0 11 10.5 35t10.5 37q-27-5-27 18l17 15q-21 60-15 84 6 25 58 87 60 71 98 71 27 0 57-20 38-26 37-68-8-24-18-69 36-11 120 3 14-14 14-30zM2523 1316q1-41-133-103-119-54-143-54-54 0-70 35v35q62 20 101 53-20 21-51 21-13 0-59-28-51-29-71-34-13 2-13 25 0 53 61 102 60 47 118 47 90 0 260-64v-35zM1183 1563q0-49-178-150-92-47-183-93-23-13-176-109h-34q-13 13-13 35 0 56 226 183 145 79 290 159h55q13-1 13-25zM2575-253q0-34-44-71-39-32-59-32-31 0-66.5 30.5t-35.5 51.5q0 25 33 68.5t49 43.5q34 0 81-39 42-37 42-52zM2974 206q0-51-63-86-50-26-85-26-13 0-118 15.5t-118 15.5q-10 0-164-43-178-50-254-67-93-12-266-47-26-8-40-49-20-63-23-68-30-59-102-172-67-83-162-124-31-13-145-13-51 0-186 16-139 17-164 27-22 9-55 43l13 26q38 0 124-10.5t93-10.5q142 0 286 82 156 88 238 234 14 24 14 67-72 45-72 88 0 31 20 62t47 31q13 0 102.5-31t101.5-31q142 0 324 69-1 12-54.5 48t-74.5 36q-24 0-162-48-6-2-19 3.5t-17 5.5q3 65 87.5 149.5t141.5 84.5q13 0 54-29 68-49 72-51 123-79 203-102 222-63 326-63 83 0 84-1 13-13 13-31zM1408 238q0-186-295-312-228-98-391-98-167 0-266 85-103 89-103 252 0 73 52 177 58 113 118 131 9-5 17-10t8-21q0-9-31-62-34-56-39-77-12-56-12-106 0-111 118-171 88-44 184-44 97 0 249 51 156 52 217 108-12 31-61 29-78-2-79-1-61 13-121 49-88 52-88 116 0 78 127 296 22 38 42 53l112 100q68 58 124 58 48 0 79-35 28-33 28-83 0-60-44-117-14 5-54 40-36 31-50 31-56 0-151-107-90-101-90-143 0-82 167-103 90-5 178-9 55-24 55-77zM1818-520q0-46-126-99-77-28-154-58-77-34-236-109h-35q-13 14-13 41 0 48 44 67 441 199 479 199 41 0 41-41z" glyph-name="uniFB6E" horiz-adv-x="3207" unicode="&#xfb6e;"/><glyph arabic-form="final" d="M1181 1874q0-63-557-358h-34q-13 13-13 30 0 13 11.5 36t12.5 29q179 106 532 303h35q13-13 13-40zM1160 1520q0-36-40-87.5t-76-57.5q-28-1-80-17-81-47-95-47-77 0-77 87 0 86 88 148 1-37 13-113h25q15 46 61 143h36q5-25 29-82 25 8 32 62 8 59 48 82 15-12 25-12 0-15 5.5-54t5.5-52zM1570 215q0-111-33-204-5 0-18.5-5t-18.5-5l-114 935q0 146 55 211 27-23 33-66 96-738 96-866zM1745-220q0-41-55-64-308-125-311-125h-42l-23 24q14 36 51 74-1 4-29 39-22 27-22 42 0 36 71 126 74 94 119 94 19 0 58-36.5t39-55.5q0-18-27.5-50t-44.5-32q-11 0-32.5 15.5t-32.5 15.5l-17-16q32-46 107-46 12 0 67.5 15.5t66.5 15.5q57 0 57-36zM1109 966q0-18-45-57-49-41-55-56-14-42-24-142-11-114-23-165-7-30-34-104-23-64-23-78t19-46q29-48 37-65 36-72 36-130 0-11-6-52.5t-6-58.5q-328-84-480-84-43 0-70 42-22 35-22 81 0 82 51 82 13 0 46.5-15.5t46.5-15.5q62 0 141 90 73 84 73 136 0 37-193 254t-231 217q-11 0-40-15.5t-42-15.5q-92 0-146 96-44 80-44 180 0 14 23 61h43q13 0 63-38l84-62q141-97 306-270 44-46 244-275 47 72 49 241 10 59 24 175-11 57-14 164 15 87 103 208h47q0-4 5.5-12t5.5-23q0-57-51-143 13-17 102-48v-56zM1908-382q0-3-16-34-123-41-366-130-13-5-90-45-63-33-77-33h-53q-12 2-12 26 0 45 34 62 118 58 316 136 186 73 208 73 29 0 56-55zM884 168q-23 45-47 57-31-32-54-80h77z" glyph-name="uniFB6F" horiz-adv-x="1571" unicode="&#xfb6f;"/><glyph arabic-form="initial" d="M1696 1683q1-35-232-180-212-132-305-172-15 14-15 35 0 14 6.5 35t7.5 30q104 58 306 178 68 45 208 121 15-11 24-11v-36zM1124 1694q0-30-222-196-207-154-306-208-14 15-14 35 0 64 235 233 135 97 259 171h36q0-4 6-12t6-23zM1871 492q0-115-221-241-173-99-234-105-23-3-97-3-104 0-132 13-36 16-149 120-47-70-48-106v-40q72-15 145-31 91-25 91-79 0-21-30-86-34-74-67-104-27-24-120-72-77-39-154-79-57-30-182-55-120-23-214-23-63 0-172 64-114 66-133 124-23 74-23 130 0 92 52 208 59 127 145 200h48v-37q0-11-34-58-42-59-55-86-33-67-33-166 0-120 124-176 86-39 198-39 273 0 477 169-29 31-127 48l-180 30q0 4-5.5 17t-5.5 28q0 28 25 61l80 36q47 25 66 58 34 62 34 228l-62 640q0 34 19 85 21 60 50 73 42-248 138-741 5-23 41-80 23-39 85-69l10 9q4 11 0 24-5 19-5 29 0 13 26 63 37 75 42 87 57 131 95 177 56 72 139 72 66 0 147-50l104-76v-46q-24-23-41-23-13 0-59 31t-59 31q-52 0-150-56-111-63-111-119 0-41 62-104 58-59 86-59 54 0 164.5 66t161.5 128h35q13-13 13-40zM704 512q0-43-24.5-102.5t-48.5-81.5q-8 105-22 177-13 60-41 112-11 20-59 72-30 33-30 74 0 66 51 66 67 0 127-155 47-122 47-162z" glyph-name="uniFB70" horiz-adv-x="1867" unicode="&#xfb70;"/><glyph arabic-form="medial" d="M2333 1479q0-45-123-123-77-45-155-90-207-136-330-201-36 11-36 51 0 46 77 92 45 22 89 43 62 40 184 112 2 1 133 84 94 60 138 68 23-24 23-36zM1126 1177q0-157-210-187-12-3-44-20.5t-48-17.5q-77 0-77 118 0 58 54 147h36q5-11 0-30-9-25-9-34v-61q7-7 21-7 16 0 28 18 8 33 17 67 14 50 41 68h36v-48q1-32 1-46l17-18q35 13 42 60 8 57 37 82h36q0-16 11-47.5t11-43.5zM2272 266q0-78-59-202-96-198-203-283-110-88-270-88-119 0-323 34-37 6-77 42 26 47 52 47 12 0 89-15.5t90-15.5q80 0 244 54 60 19 160 103 97 83 126 137 20 26 41 51 28 39 28 75 0 40-61 96-44 41-89 81-14 53-14 43 0 20 17 53 22 44 50 44 67 0 138-113 61-98 61-143zM1607 287q0-73-4-88-9-34-53-85-54-62-275-118-266-68-451-68h-169q-119 0-239 58-161 75-161 208 0 110 137 245h35q12-1 12-24 0-14-30.5-75t-30.5-74q0-184 491-184 12 0 71.5 5t72 5 160.5 33q175 40 233 51 19 4 58 24 51 25 51 46 0 12-61.5 97t-61.5 97q0 47 43 112h36q136-88 136-265zM1064-245q0-26-42-60-40-33-60-33-45 0-113 65l30 76q21 43 67 43 33 0 75.5-35.5t42.5-55.5zM1248-405q1-30-279-147-269-114-290-112h-44v67q37 40 64 50 63 18 184 58 49 18 192 86 119 55 133 55 16 0 40-23v-34z" glyph-name="uniFB71" horiz-adv-x="2279" unicode="&#xfb71;"/><glyph arabic-form="isolated" d="M5594 1521q0-80-102-160-95-75-164-75-12 0-43 10.5t-44 10.5q-20 0-66.5-47.5t-84.5-47.5q-13 0-28 5 29 81 97 145 72 66 141 69 114 183 207 183 29 0 59-35 28-33 28-58zM5092 1494q0-34-141-99-126-58-145-58-25 0-71 23 2 22 51 51 68 43 81 55-9 25-41 25-14 0-52-22-45-26-56-30-25 25-25 36 0 40 62 85 60 43 107 43 56 0 230-74v-35zM5389 211q0-55-43-163-11 0-36 33-14 132-67 521-49 354-49 361 0 133 80 168zM4478 1481q-369-191-589-318-36 22-36 46 0 43 34 62 510 291 526 291h51l14-12v-69zM3403 1608q0-44-33-63-180-104-544-310h-36q0 4-6 10t-6 21q0 60 44 86 103 64 534 292h34q13-14 13-36zM3853 523q0-101-46-169-21 95-80 280-8 20-56 89-43 59-43 77 0 22 16 44t36 22q49 0 111-119 46-90 55-131 7-38 7-93zM4990 324q3-145-72-236.5t-200-91.5q-104 0-154 13-30 7-90 50-56 39-68 39t-28.5-13.5-26.5-14.5q-44-14-133-41-78-19-228-38-127-15-157-15-11 0-88.5-5.5t-90.5-5.5q-115 0-329 54-57 15-130 123-1 9-12 28-78-77-166-100-75-13-150-27-10-2-36-20-23-17-37-17-61 0-163 30.5t-145 61.5q-21-21-79-68-61-44-130-44-81 0-111 24-81 65-108 203-42 222-54 254-66-38-155-111-15-53-58-153-105-178-389-241-15-9-51-25-118-33-308-33-603 0-845 445 12 15 12 25h44q8 0 69-53 72-65 108-88 109-70 286-118 137-38 202-45 26-3 165-3 156 0 173 3 71 23 215 65 262 71 262 168 0 12-35.5 95t-35.5 94q0 62 55 118 96-72 118-72 89 0 165 153h70q37-59 48-95 12-130 25-260 28-187 154-187 101 0 200.5 138.5t166.5 138.5q13 0 69-66 66-77 94-96 57-43 145-43 184 0 184 144l-61 675q0 59 45 122 51-20 59-167 2-19 15-123 2-14 12-269 7-192 45-334 9-32 57-67 45-32 183-56 92-17 275-17 159 0 198 5l280 56 18 16q-23 36-78 44-81 11-85 13 13 97 112 150 81 43 174 43 67 0 141-30 95-39 95-98 0-42-72-132 12-11 61-29 46-18 57-18 23 0 133 13 36 4 77 44-31 230-86 685-2 15-25 68-22 50-22 76 0 49 28 120 27 67 56 99h36q10-24 10-59 0-10-.5-27.5t-.5-24.5q0-71 84-72 2-12 2-23 0-44-24-93-36-74-38-79zM2993-152q0-48-33-64-416-187-463-187-21 0-45 23v58q449 205 476 205h52q13-13 13-35zM1847 1475q0-25-30.5-64t-54.5-50q-529-243-1332-679-5 0-17.5 6t-18.5 6v42q-1 59 143 141 83 41 166 83 244 148 510 272 322 151 379.5 182.5t239.5 96.5q15-14 15-36zM2072-208q0-36-44-67-37-26-58-26-13 0-46.5 15.5t-46.5 15.5q-9 0-42-20.5t-49-20.5q-36 0-72 31-31 27-31 40 0 18 40 60.5t57 42.5q13 0 43.5-15t44.5-15q10 0 46.5 30.5t49.5 30.5q55 0 108-102zM1161 503q0-23-33-55.5t-54-32.5q-42 0-97 54-3 39 25 83 30 48 67 48 33 0 65-42 27-35 27-55zM5481 1472q-6 2-12 2-56 0-90-54h47q29 13 55 52zM2675 212q-23 71-65 71-26 0-26-36 0-14 23-35h68z" glyph-name="uniFB72" horiz-adv-x="5388" unicode="&#xfb72;"/><glyph arabic-form="initial" d="M3552 1640q0-38-192-154-116-66-231-132h-36q0 4-6 12.5t-6 22.5q0 51 34 73t400 219q37 0 37-41zM3603 1201q-67-65-346-134-3 16-25 75-18 48-18 63 0 37 76 108t114 71q61 0 70-77t12-77q6 0 31 5t73 5l13-12v-27zM3071 1584q-16-30-54-73-230-136-475-249l-20 14q-14 11-14 27 0 45 43 67 57 28 271 146 169 93 184 93h42zM2548 1747q1-45-134-95-113-42-141-42-45 0-62 35 12 29 50 41 47 15 62 32-11 24-50 24-33 0-96-40h-48v34q0 29 85 80 79 49 105 49 13 0 97-34 98-39 132-49v-35zM3511 268q0-152-69-194l-95 870q0 28 23 82 27 64 57 70zM3153 732q-72-75-103-75-12 0-38 15.5t-38 15.5-57.5-36-60.5-36q-21 0-59 36-34 33-34 41 0 25 33 66t49 41q12 0 44-15t44-15 53 35.5 54 35.5q15 0 50-23 49-33 63-41v-45zM2477 1326q-17-30-64-46-41-11-83-23-13-4-67-33-44-24-58-23h-64q0 8 9.5 33t9.5 37q0 9-20.5 26t-20.5 31q0 31 74 105t105 74q29 0 56-24 30-26 30-60 0-33-30-63 20-5 60.5.5t62.5 1.5v-36zM3266 253q0-51-44-131-37-69-51-76-54-27-166-47-201-38-359-38-15 0-38.5-1.5t-33.5-1.5q-65 0-155 86-32 33-41 178-14 191-48 655-6 70-20 111-8 11-15 20-12 19-12 33 0 16 24.5 60.5t39.5 56.5q22 2 49-50 23-46 26-77 7-73 17-297 4-122 24-378l10-106q14-71 63-93 71-32 141-32h184q38 0 204 33 67 13 98 44-10 24-54 94-38 61-38 74 0 36 20.5 69.5t40.5 33.5q56 0 99-104 35-81 35-116zM1955 1353q0-19-16.5-40t-34.5-21q-13 0-51.5 30.5t-50.5 30.5q12 0-150-102t-236-102h-64q0 29 11 36 112 62 336 205-15 26-68 73-45 41-45 54 0 59 74.5 137.5t130.5 78.5q67 0 67-156 0-25-2-65-2-33-2-38 101-80 101-121zM2129 826q-65-97-97-97-11 0-44.5 15t-48.5 15q-12 0-53-35.5t-54-35.5q-6 0-92 53 0 37 27 77 29 44 65 44t69-29q4-1 9 3.5t19 4.5 11-6q-6-10-1-14 9 26 19 52 19 40 53 40 61 0 118-87zM1044 1538q0-43-220-178-200-123-299-160-14 14-14 35 0 46 122 122 64 36 127 70 88 55 269 152 15-15 15-41zM2170 304q0-52-16-117-20-78-48-99-36-29-124-42-91-14-112-26-37-24-104-168-42-92-181.5-184.5t-228.5-88.5q-16 0-51.5-8.5t-45.5-8.5q-131 0-367 73-1 7-12 24 21 36 71 36 13 0 87.5-15t87.5-15q138 0 303 73 193 86 301 231v26q-85 7-171 16-85 16-85 114 0 59 39 157 54 129 130 129 55 0 119-98 43-69 86-137 12 3 119 15 73 7 121 51-11 41-64 128-49 81-49 93 0 46 45 112 61-19 108-112 42-85 42-159zM849 727q0-14-28-63-32-58-59-58-30 0-73 27-45 29-45 55 0 27 31 69.5t57 42.5q15 0 117-73zM1208 258q0-85-45-201-27-68-122-123-14-8-131-44-136-41-178-41-72 0-162 36-127 51-148 141-13 55-13 109 0 155 156 286h38v-47q0-13-41-89t-41-88q0-100 112-150 77-35 154-35 127 0 340 130 4 68-25 140-15 35-66 124-44 74-44 87 0 9 33 112h36q147-165 147-347zM3382 1257l-15 5-13-26 14-6zM1780 1575q-9 10-12 23h-36q-10-19-10-36 17-12 44-34zM1657 177v40q0 16-5 20-3 1-7 0h-34q-21-12-13-60h59z" glyph-name="uniFB74" horiz-adv-x="3516" unicode="&#xfb74;"/><glyph arabic-form="medial" d="M4338 1569q0-78-94-141-81-54-141-54-12 0-40.5 10t-41.5 10q-14 0-66-39-65-50-89-63-14 23 5 59 25 51 110 120 35 12 92 47 44 52 88 105 46 48 100 48 34 0 57-36 20-31 20-66zM3386 1676q0-44-45-66-13 4-59 34-40 27-54 27-11 0-72-65-73-76-100-95-55-41-186-86l-57 14q107 84 328 258v40q-58 39-62 43-31 28-31 65 0 83 94 149 44 30 108 25 37-36 37-87 0-16-4.5-47t-4.5-46q0-22 7-37.5t58-57.5q43-35 43-68zM4164 242q0-13-22-90-23-82-35-99l-127 1029q0 51 43 138 10 0 27-11t18-24q15-178 57-577 39-358 39-366zM3324 1389q0-104-84-155-31-7-93-27-77-38-89-38-71 0-71 87 0 42 19 82 23 47 59 56 3-6 3-74l18-18q32 0 56 132 5 0 18.5 5t19.5 5q0-35 37-91 20 41 72 113 35-42 35-77zM2617 1811q0-46-42-75-172-116-239-116-14 0-27.5 5.5t-17.5 5.5v38q68 32 123 70-5 35-42 35-33 0-116-61h-47q10 71 86 131 68 52 118 52 13 0 75-22 76-28 97-33 9-7 32-30zM3233 1005q0-32-30-67t-52-35q-47 0-103 53 0 31 20 81 24 61 51 61 26 0 70-38t44-55zM3734 283q0-140-23-195-34-86-141-86-88 0-139 37-56 40-123 158-39-46-119-120-56-38-104-52-152-43-216-43-66 0-123 25-77 34-77 97 0 12 26 57t40 56q24-20 65-49 38-23 105-23 101 0 223 55 145 65 145 150 0 11-21 78-23 73-27 100-13 76-13 160 0 13 33 112 27 0 34-13l84-378q74-253 223-253 27 0 67 36-8 172-41 370-28 168-56 335-3 24-31 92-26 64-26 78 0 73 73 214h37q10-16 11-56 1-49 4-60 7-29 41-46 25-12 48-24-5-32-29-115-21-75-21-87zM1983 1799q0-44-232-190-136-82-273-163h-35q-13 13-13 35 0 52 222 186 137 79 274 157h45q12-1 12-25zM2924 1747q2-9-38-62-46-61-87-79-25-11-84-59-73-60-99-77-143-95-286-188-224-156-224-200 0-20 18-34 100-53 230-209 126-153 178-277 45-108 45-166 0-15-46-197-72-57-235-72-6 0-114 2-69 1-109-18-21-9-37-55-25-69-27-71-77-146-154-225-35-35-104-61-64-25-105-25-108 0-356 65-12 7-33 34 6 12 24 31 29-3 103-16 66-11 77-11 142 0 228 43 93 46 169 140 105 128 105 170 0 12-36 66.5t-36 66.5q0 28 13 62 17 45 43 45 10 0 49-31 42-33 65-38 64-13 158-13 174 0 277 68-6 43-65 150-32 56-107 153-87 111-111 111-12 0-17.5-5.5t-17.5-5.5q-164 0-164 205 0 181 130 307 44 43 354 258 128 86 380 263h46v-45zM1062 1655q-4-19-27-54-22-21-222-149-109-69-331-201l-16 10t-8 21q0 49 33 70 169 109 513 329h35zM1482 299q0-38-24-124-25-92-43-101l-19 14q4 29-5 101-9 84-9 115 0 4 3 38 3 26 1 43-41 230-82 564-1 9-19.5 87.5t-18.5 91.5q0 58 55 112 13 0 34-33 33-200 92-595 35-264 35-313zM786 647q0-50-82-102-10 0-113 63 2 30 23 75 27 56 59 56 26 0 69.5-35.5t43.5-56.5zM1164 206q0-197-166-307-138-91-321-91h-100q-14 0-102 52.5t-96 62.5q-44 61-44 166 0 61 44 162 53 121 123 170h37v-47q0-13-46-109.5t-46-108.5q0-6 17-55 4-17 25-49 92-80 215-80 110 0 146 12 94 32 118 43 65 30 101 75 13 16 13 54 0 50-61.5 168t-61.5 154q0 71 35 97h35q72-118 97-176 38-92 38-193z" glyph-name="uniFB75" horiz-adv-x="4165" unicode="&#xfb75;"/><glyph arabic-form="isolated" d="M1054 1422q0-58-155-151-87-46-175-93-84-48-270-170-1 2-20 15-15 10-15 26 0 41 153 142 103 67 178 105 82 52 247 151h45q12-1 12-25zM788 439q0-28-32-62.5t-50-34.5q-22 0-67 29.5t-45 42.5q0 27 31.5 69.5t55.5 42.5q22 0 63-30 44-32 44-57zM1741 311q0-49-64-150-19-4-75-4-71 0-126 20.5t-53 20.5q-11 0-48-47-43-56-67-72-16-11-84-24-58-12-76-37-18-216-78-288-58-68-181-115-106-40-183-40-48 0-211 43-73 20-123 102-24 40-24 146 0 194 159 322l25-25q-27-46-55-122-27-72-27-93 0-126 126-179 73-31 171-31 88 0 184 41 123 54 123 139 0 82-51 180.5t-51 130.5q0 92 51 92 27 0 66.5-66.5t77.5-66.5q96 0 166 43 9 6 136 174 115 152 163 152 39 0 87-115 42-100 42-131zM1730-287q0-42-43-64-232-114-508-227 0 3-6 11.5t-6 23.5q0 53 53 82 115 63 276 140 164 80 183 80 15 0 25.5-6t14.5-6q0-3 5.5-11t5.5-23zM1596 323q0 11-5.5 33t-5.5 26q-48-16-48-49 12 0 33.5-5t25.5-5z" glyph-name="uniFB76" horiz-adv-x="1727" unicode="&#xfb76;"/><glyph arabic-form="final" d="M4659 1565q0-86-85-155-78-65-161-65-8 0-41 10.5t-47 10.5q-33 0-78-41-57-50-87-61-13 1-13 25 0 43 82 121t127 78q13 0 13-4.5t13-4.5q28 0 87.5 92t112.5 92q34 0 58-43 19-33 19-55zM4156 1560q0-63-43-89-57-34-162-67-90-28-117-28-18 0-66 24 12 32 70 53 69 26 93 52-6 24-41 24-13 0-56-16-49-19-74-24-13 1-13 25 0 61 136 124 10 4 48 4 37 0 48-4 58-31 177-78zM4464 491q0-248 0-247-23-91-45-128-31 27-31 57 0 223-20 347-89 539-89 584 0 88 57 129l17-13q51-260 72-443 14-97 39-286zM3603 1493q0-45-199-156-138-72-275-144h-47v54q0 34 227 151 199 103 282 131 0-4 6-12.5t6-23.5zM2743 1575q0-42-152-141-79-45-157-92-154-98-236-160h-36q-12 13-12 35 0 72 371 284 68 40 198 110 24-24 24-36zM3082 644q0-45-16-107-20-83-54-92-2 78-26 218-22 62-79 142-51 71-51 80 0 46 46 71 63-26 121.5-126.5t58.5-185.5zM4085 332q-6-142-93-235t-214-93q-56 0-121.5 41t-83.5 41q9 0-195.5-56.5t-261.5-56.5h-146q-360 0-394 219-3 5-12 17-12-7-33-44-22-39-46-55-64-44-166-44-12 0-39 4.5t-38 4.5q-13 0-54-35.5t-53-35.5q-151 0-228 34-3 1-71 68-25-27-88-78-86-55-161-55-134 0-195 106-40 69-59 222-21 158-39 195-41-43-146-141-12-90-10-131 14-195-173-301-145-82-325-82-129 0-249 85-56 39-82 144-2 10-2 73 0 77 43 178.5t104 162.5h47v-36q0-13-41-117.5t-41-116.5q0-210 272-210 112 0 212 35 151 52 151 159 0 103-61.5 195.5t-61.5 107.5q0 62 56 117 30-15 65-54 24-27 64-27 63 0 108 55l78 108h48q10-7 28-23l34-222q22-131 54-219 9-25 62-61 57-38 95-38 96 0 173 80 8 7 113 148 60 79 113 79 8 0 72-73 73-83 115-110 51-32 140-32 73 0 125 32 65 38 65 112 0 135-55 588-2 18-15 64-12 41-12 54 0 50 33 101h36q24-27 50-86 12-178 41-542 12-131 14-146 13-87 43-149 40-82 168-107 114-23 204-23 213 0 425 79-8 36-57 41-38 0-78 1-11 1-18 3v43q-1 17 40.5 63.5t73.5 61.5q71 36 146 36 65 0 146-37 95-43 95-97 0-70-93-139 13-25 93-25 69 0 120 27 64 33 64 96 0-6-49 281-16 133-57 420-3 15-21 56-16 37-16 62 0 50 32 125 33 78 67 90 15-29 29-129 8-59 59-59 12 0 27 3v-57q1-14-35-69t-36-77zM983 1626q-14-31-48-75-82-56-530-318h-44q-13 13-13 30 0 62 245 198 291 163 321 191h45zM2334-195q0-70-54-94-417-188-454-187h-75v55q-1 27 220 119 174 71 349 143 14-15 14-36zM767 847q0-19-36.5-57.5t-54.5-38.5q-33 0-122 63 0 40 20 82 25 50 61 50 3 0 132-64v-35zM1525-276q-20-34-39-68-29-41-68-41-11 0-43.5 20.5t-49.5 20.5q-12 0-55.5-36t-56.5-36q-20 0-63.5 40t-43.5 58q0 38 39 76 34 31 52 31 12 0 52-25.5t51-25.5q13 0 51.5 36t50.5 36q32 0 54-20 35-34 69-66zM4555 1490l-14 49q-35-35-35-60 5 0 24.5 5.5t24.5 5.5zM2057 191q-21 34-63 88h-37l-12-57q47-31 112-31z" glyph-name="uniFB77" horiz-adv-x="4474" unicode="&#xfb77;"/><glyph arabic-form="medial" d="M4311 1458q0-46-187-151l-246-136h-46q-12 2-12 26 0 52 103 114 73 38 145 77 67 35 196 110h34q13-13 13-40zM3769 1520q0-42-188-154-133-77-267-154h-45q-12 2-12 26 0 96 487 322 25-25 25-40zM3697 813q0-25-39.5-69t-52.5-44-49.5 20.5-47.5 20.5q-10 0-43-30.5t-49-30.5q-23 0-64 23-44 24-44 43 0 21 32.5 64.5t54.5 43.5q11 0 45-15.5t47-15.5 46.5 36 46.5 36q20 0 68.5-32t48.5-50zM3185 1570q0-50-121-127-63-35-127-70-115-60-353-191 0 3-6.5 12t-6.5 23q0 55 70 102 63 34 127 69 85 48 133 72 22 10 247 151 37 0 37-41zM3062 1058q0-36-43-67-35-24-54-24-36 0-86 32v53q0 20 31 54t50 34q29 0 68-37 34-32 34-45zM4332 265q0-153-119-340-122-192-243.5-215t-175.5-23h-86q-93 0-195 25-117 29-153 71v35q14 8 37 8 30 0 117.5-23.5t131.5-23.5q166 0 346 114.5t189 234.5q-34-22-70-22-68 0-107 64-30 50-30 110 0 67 46 172 56 126 123 126 73 0 138-147 51-116 51-166zM3646 260q0 27-18-98-24-168-202-168-163 0-288 235-41-65-139-170-141-95-336-95-47 0-96 26-58 30-58 76 0 43 21 109 13 13 31 13 13 0 41-20 36-24 47-29 7-2 55-2 85 0 228 51 182 66 182 154 0 9-41 190t-41 199q0 112 44 153 12 0 33-33 35-184 70-369 85-314 283-314 51 0 92 27 3 9 3 19 0 40-47.5 107t-47.5 87q0 16 19 54t36 54q129-93 129-256zM2407 1276q-24-23-36-23-13 0-56.5 31t-56.5 31q-9 0-102-101-61-67-178-129-110-59-181-68-15 14-24 14 46 66 186.5 154.5t202.5 175.5q-43 51-122 87-3 9-3 18 0 61 63 138 67 80 132 80 10 0 19-1 22-22 29-34 4-68 27-195 6-20 45-52 47-41 55-50v-76zM1004 1606q0-49-43-73-181-99-546-300-15 15-15 41 0 48 44 77 126 83 298 186 179 105 197 105h52q13-13 13-36zM2417 296q0-278-288-513-67-55-321-55-112 0-267 33-27 6-55 32 18 48 66 48 13 0 77-10.5t76-10.5q113 0 190 31 84 36 168 74 29 12 148 145 124 141 124 180 0 7-13 43-22 28-109 99-51 43-51 93 0 42 33 92 95-26 157-104 65-79 65-177zM1782 424q0-10-5-47-7-42-8-73-4-5-15-21-1-24-17-81-34-82-122-196-127-165-222-165-10 0-80-10.5t-84-10.5q-171 0-312 23-21 3-76 31v36q23 23 46 23 12 0 91.5-10.5t92.5-10.5q172 0 339 104 187 118 281 320l-17 16q-68-51-101-51-59 0-106 54-43 50-43 105 0 58 44 154 52 117 115 117 80 0 146-135 53-109 53-172zM809 903q2-25-29-76-32-55-57-55t-74 27q-54 31-54 60 0 23 30 63 33 45 62 45 13 0 61.5-24.5t60.5-39.5zM1148 393q0-146-75-250-88-123-267-152-12-3-65-16-45-11-59-11-120 0-223 70-120 83-120 216 0 74 50.5 176t106.5 141q37 0 37-30 0-14-41-113.5t-41-112.5q0-88 100-138 74-36 146-36 91 0 206 42 153 54 153 142 0 75-61.5 164.5t-61.5 122.5q0 36 44 102 85-28 133-137 38-88 38-180zM4178 338q-31 63-31 54h-38q-33-65-33-71 0-17 13-30h55q34 33 34 47zM1619 510q-23 46-48 46-24-24-24-40t25-41q24 12 47 35z" glyph-name="uniFB79" horiz-adv-x="4611" unicode="&#xfb79;"/><glyph arabic-form="isolated" d="M1081 1537q0-45-220-184l-328-200q-25 23-25 51 0 56 238 204 194 120 300 164 11-6 21-11 14-9 14-24zM1132 303q0-76-64-204-118 3-167 12-82 17-142 69-23-41-72-120-19-28-80-52-58-22-99-22-139 0-192 105-26 52-46 195-19 128-19 216l-61 605q0 26 18 87 17 58 26 70h47q34-290 49-526 11-128 30-378 16-200 173-200 144 0 244 212 24 51 134 161 36 36 68 36 45 0 103-132 50-112 50-134zM988 273v37q-40 63-77 75l-44-44v-35q65-33 67-33h54z" glyph-name="uniFB7A" horiz-adv-x="1136" unicode="&#xfb7a;"/><glyph arabic-form="final" d="M2369 1643q0-46-26-65-5-3-325-189-68-39-208-130-1 3-20 16-15 10-15 25 0 49 43 77 453 292 485 291h54q12-1 12-25zM1775 1720q0-41-102-109-58-34-115-68-93-65-288-191h-45q-13 13-13 30 0 47 103 117 57 35 114 69 121 82 158 105 110 69 174 87 14-13 14-40zM2226 763q0-19-41-63-42-45-67-45-7 0-106 63-2 5-2 9 0 37 32.5 80t65.5 43q17 0 65-31 53-33 53-56zM1098 1591q1-24-227-169-207-130-310-183-15 14-15 41 0 58 54 87 74 40 267 171 164 110 177 109h54v-56zM2738 283q-44-140-210-140-12 0-34 5t-33 5q-90 0-305.5-76.5t-328.5-76.5q-100 0-157 38-60 39-116 146-26-21-104-62-70-36-104-70-11-10-20-58-13-65-15-72-48-147-267-238-176-73-339-73-167 0-282 75-143 93-143 278 0 165 157 333 19-2 48-14-92-215-92-237 0-48 23-110 16-46 99.5-103.5t128.5-57.5h112q96 0 277 63 210 73 210 147 0 56-72 56-11 0-32.5-5.5t-34.5-5.5q-83 0-130.5 46.5t-47.5 123.5q0 74 13 94 35 57 111 161 40 16 44 16 78 0 144-98 27-49 83-149 229 56 229 134l-103 830q0 17 25 65 25 51 43 57 31-29 41-86 21-117 35-297 11-149 23-297 22-241 61-378 7-24 53-47 74 67 147 134 115 101 176 101 13 0 40-12 31-14 39-16 108-32 216-63 147-42 265-42h103zM1181 732q0-27-32.5-62t-54.5-35q-13 0-48.5 20.5t-48.5 20.5q-12 0-48.5-31t-49.5-31q-32 0-64 30.5t-32 56.5q0 25 29.5 66.5t52.5 41.5q12 0 40-15.5t41-15.5q18 0 53.5 31t49.5 31q61 0 112-108zM2113 232q-90 44-128 44-23 0-72.5-43t-54.5-68q10 0 26.5-.5t28.5-.5q56 0 119.5 20.5t80.5 47.5zM1139 206v36q-19 59-65 55-26 0-26-46 0-17 91-45z" glyph-name="uniFB7B" horiz-adv-x="2751" unicode="&#xfb7b;"/><glyph arabic-form="initial" d="M2180 1529q0-38-48-77-7-6-87-59-240-157-391-272h-44q-13 13-13 30 0 57 143 158 78 50 156 99 155 112 272 162 0-4 6-15t6-26zM1268 1500q-25-21-46-21-11 0-50.5 20.5t-51.5 20.5q11 0-110-118-134-131-268-200l-77 14q41 43 220 186 128 102 128 143 0 28-37 51-36 20-72 41l-8 16q-6 15-6 30 0 37 54 121 61 94 115 94 61 0 78-115 21-142 21-143 35-20 110-71v-69zM2150 255q0-55-15-94-31-85-80-122-70-55-182-55h-51q-134 0-267 94-137 102-274 205-37 25-81 70h-26l-30-132q-26-80-85-142-28-13-64-51-16-37-49-172-50-36-132-36-13 0-39.5 5t-37.5 5q-9 0-44-13-36-44-123-126-25-19-158-78-158-70-213-70-30 0-76 23 0 25 33 45 122 54 245 109 134 65 219 158-1 13-14 55-13 38-13 63 0 72 71 161 74 93 144 93 11 0 77.5-20.5t81.5-20.5q41 0 77 23 41 25 41 64 0 46-65 130-38 49-134 138-99 94-135 138-14 17-14 90 0 54 44 131 106 185 521 434 169 107 503 315h47q-9-53-36-121-78-64-417-271-560-340-560-447 0-18 317-264 306-238 479-358 25-18 101-40 79-24 121-24 66 0 125 18 75 24 75 64l-41 238q-46 265-65 442-2 18-20 63-17 41-17 56 0 111 64 174 34-3 50-76 16-71 89-68-6-46-34-111-26-61-26-68 0-12 12-67 13-65 15-85 20-116 39-231 27-156 27-241zM664 972q0-14-17-39-12-17-25-34-236-96-249-96-30 0-76 23 7 35 54 57 61 28 78 47-32 26-51 26-25 0-45-14-26-18-51-36h-47v54q0 28 75 75 69 44 88 44 33 0 255-83 11-1 11-24zM1062 1705q0 40-23 40-26 0-26-29zM859 7q-4 38-37 66-28 23-49 23-28 0-57-32v-27l12-12q55-25 100-25 20 0 31 7z" glyph-name="uniFB7C" horiz-adv-x="2146" unicode="&#xfb7c;"/><glyph arabic-form="medial" d="M2712 1510q0-47-82-100l-104-62q-90-67-278-170h-36q0 4-6 12t-6 23q0 48 100 111l128 70q78 50 237 152h34q13-14 13-36zM1124 1561q0-18-16.5-47.5t-29.5-29.5q-11 0-47 26t-50 26q-13 0-54-44-51-53-72-66-80-53-268-115l-56 13q13 34 144 106 143 79 193 153-10 28-40 52-21 19-21 59 0 50 50 117 53 72 103 72 9 0 48-14 44-34 44-127 0-45-14-68 11-17 52-62 34-37 34-51zM2047 936q0-113-74-154-60-35-85-35-12 0-10 5.5t-10 5.5q-13 0-54-20.5t-54-20.5q-47 0-81 32-1 7-1 15 0 26 43 146h37q5-26 29-70 35 19 41 67 7 51 38 75 35-1 41-32 9-44 26-60 12 46 45 143h46q23-68 23-97zM2681 287q0-135-82-290-92-170-227-239-107-55-243-55-87 0-358 64v36q23 23 71 23 13 0 79.5-10t79.5-10q68 0 203 33 82 20 228 162 158 154 158 250 0 56-53 100-43 36-87 70-14 16-14 65 0 18 22 87h54q23 0 88-78 62-74 67-100 14-62 14-108zM2088 338q0-23-19-95-23-85-48-129t-147-77q-100-27-170-27-149 0-284 119-244 215-348 281 0-20 11-74.5t11-64.5q0-22-16-83-19-71-39-104-18-29-140-64-106-30-137-30-12 0-36 5t-35 5q9 0-50-3-14-18-41-121-22-80-63-80-45 0-99 46-58 51-68 112 1 46-12 131-10 27-52 27-50 0-104-41.5t-59-80.5l122-957q-6-134-2-157h-48l-165 1027q11 69 20 137 19 85 76 172 26 40 93 60 56 12 112 25 15 4 39 39 22 33 39 33 13 0 60-61 54-69 71-81 31-22 107-43 73-20 115-20 200 0 200 82 0 90-186 301-95 102-190 203-33 88-33 125 0 201 535 488 263 142 738 417h37v-56q0-65-177-171l-194-102q-91-53-153-96-170-90-340-181-334-191-334-263 0-18 174-145 122-89 244-177 22-17 218-192 131-118 231-170 82-43 182-43 63 0 140 14 112 22 112 58 0 26-51.5 113t-51.5 117q0 68 45 97 59-17 94-73 66-108 66-172zM1699-291q0-20-38.5-59t-58.5-39q-25 0-74 29-54 32-54 58 0 24 29 63 33 45 63 45 29 0 78-32 55-34 55-65zM943 1712v25h-30v-25h30zM2078 1213q0-19-16.5-48t-29.5-29q-11 0-47 26t-51 26q-12 0-54-44-51-53-71-66-80-53-269-115l-56 13q14 34 145 106 142 79 193 153-11 27-40 52-22 19-22 59 0 50 50 117 54 72 104 72 9 0 48-15 43-33 43-127 0-45-13-68 10-16 52-61 34-37 34-51zM1896 1363v38h-17v-38h17zM2078 1213q0-19-16.5-48t-29.5-29q-11 0-47 26t-51 26q-12 0-54-44-51-53-71-66-80-53-269-115l-56 13q14 34 145 106 142 79 193 153-11 27-40 52-22 19-22 59 0 50 50 117 54 72 104 72 9 0 48-15 43-33 43-127 0-45-13-68 10-16 52-61 34-37 34-51z" glyph-name="uniFB7D" horiz-adv-x="2682" unicode="&#xfb7d;"/><glyph arabic-form="isolated" d="M1457 1205q0-11-39-82-40-74-56-83-37-9-114-28-15-4-50-27-30-21-43-21-52 0-97 43-1 6-1 15 0 101 78 158l16-13q15-19 5-46v-11q3-5 11-13 37 2 58 63.5t66 69.5q5-36 30-103 31 0 42 43 17 65 35 90h37q0-3 11-21.5t11-33.5zM761 1256q0-49-144-118-128-61-168-61-35 0-87 32v39q57 14 174 59-20 44-62 44-14 0-69-28-64-34-93-43 0 4-6 12t-6 23q0 50 95 108 82 51 115 51 22 0 136.5-53.5t114.5-64.5zM565 493q4-8 4-20 0-34-29.5-73.5t-55.5-39.5q-23 0-67.5 33.5t-44.5 48.5q0 22 29 65 32 48 58 48 7 0 106-62zM1519 309q0-164-118-164-56 0-133.5 36t-76.5 36q-4 0-38-38-42-46-84-73-64-40-138-46-23-8-36-68-7-44-15-88-41-166-348-247-50-13-135-13-34 0-124 38-40 15-112 66-17 18-42 97-24 74-24 96 0 76 66 189 68 118 128 126v-45q0-14-40.5-102.5t-40.5-101.5q0-104 93-158 72-41 168-41 199 0 344 119 2 101-25 181-7 20-50 83-38 57-38 72 0 17 25.5 61.5t41.5 56.5q62-85 82-104 53-50 117-50 86 0 145 61 26 27 83 121 22 35 87 105 79 82 109 82 46 0 91-136 38-111 38-151zM1570-212q0-48-44-69-10-4-308-119l-259-99-16 10t-8 20q0 17 15 44.5t29 33.5q510 209 525 209h52q14-13 14-30zM1384 332q-20 42-20 78h-37l-44-45q10-10 13-24 8 0 38-4.5t50-4.5z" glyph-name="uniFB7E" horiz-adv-x="1533" unicode="&#xfb7e;"/><glyph arabic-form="final" d="M4327 1816l-505-287h-46v54q-1 27 209 143 148 80 295 159h47v-69zM4358 1379q0-36-138-95-86-37-172-73h-45q-14 24 8 74-41 28-41 53 0 39 23 84 17 34 51 50 113 55 145 55 14 0 19.5-5.5t15.5-5.5q0-6 5.5-23t5.5-20q-57-68-92-68-11 0-26 6-9 4-14-2 27-35 66-35 12 0 67 11 66 13 110 19 12-2 12-25zM3764 1407q-11-16-33-40-194-105-263-105-26 0-71 23v36q46 19 133 60-7 24-42 24-33 0-74-41h-36q-13 2-13 25 0 38 54.5 88t99.5 50q13 0 101-29 106-35 144-44v-47zM4328 304q0-199-69-229l-136 1006q-15 72 43 149 27 0 35-13 16-69 47-318 4-9 14-31 66-496 66-564zM3836 764q0-26-30-61t-47-35q-5 0-117 53v32q-1 20 17 65 22 54 45 54 40 0 87-41 45-38 45-67zM3150 1627q0-50-112-130-83-53-167-106-67-49-205-150h-35q-13 13-13 41 0 46 216 193 168 115 281 175 5-5 17.5-11.5t17.5-11.5zM4062 258q0-54-25-129-2-9-97-175-127-228-421-228-75 0-160 18-135 28-176 34 0 6-12 23 0-2 14 32 31 16 42 16 13 0 88-15.5t86-15.5q122 0 283 81 173 87 227 192 4 7 36 51 23 32 23 50 0 32-121 171-2 12-2 38 0 20 22 91h46q39-33 101-114 46-94 46-120zM2802 698q0-16-13-108-5-27-44-66-11 22-17 68-10 74-12 80-12 60-70 130-24 26-76 83 0 1-8 14-5 9-5 24 0 24 18.5 48t37.5 24q73 0 138-145 51-114 51-152zM3417 355q0-129-89-286-98-173-231-237-91-44-259-44-258 0-373 53v37q46 22 61 22 13 0 130.5-10.5t130.5-10.5q12 0 33 8.5t28 8.5q126 5 279 136 148 127 189 255v13q-20-8-52-39-23-23-72-23-62 0-100 47-34 43-34 106 0 58 51 165 57 121 113 121 70 0 137-142 58-121 58-180zM1082 1512q0-17-24.5-41.5t-41.5-24.5q-12 0-38 20.5t-39 20.5q13 0-110-96-133-102-264-140l-46 14q29 44 105 94 57 34 113 70 99 66 99 98 0 11-51 53t-51 60q0 51 56 129 63 86 123 86 63 0 63-118 0-14-.5-39t-.5-36q0-34 7.5-45t57.5-55q42-37 42-50zM2229-253q0-32-41-71-35-32-46-32-26 0-64 47-33 42-33 56 0 41 74 112 22-1 64-40 46-43 46-72zM2680 232q0-35-76-107h-277q-5 0-206.5-61.5t-280.5-61.5q-91 0-170 54-25 17-177 148-100 88-282 207-3-2-13-15 25-55 14-134-9-26-25-83-27-39-38-50-24-27-60-42-78-34-166-34-11 0-9.5 5t-10.5 5q-96 0-124-49-17-30-19-128-1-89-67-89-29 0-91 44-56 39-70 61-33 58-33 141 0 34 10 55-14 17-51 17-57 0-116-30-77-38-68-103l112-815-17-100q-12-69-51-99l-137 957q0 194 156 308 28 20 91 34 83 20 95 24 21 24 73 69 42-42 126-111 65-43 166-43 40 0 127 20 93 21 108 37-12 103-143 250-96 104-191 208-35 47-35 125 0 22 32 88 35 74 75 120 36 42 199 140 110 66 219 131 277 174 437 250 225 106 261 125h46q-13-42-27-84-18-43-56-65-157-75-461-231-185-102-430-246-34-21-106-83-82-71-97-102l887-683q13 9 136 132 93 94 155 94 13 0 96-36 116-52 147-64 168-67 347-67 28 0 52 3 14-14 14-36zM2516-339q-20-74-110-123-75-30-149-61-103-44-308-140h-35q-8 5-15.5 10t-7.5 20q0 61 135 126 11 5 155 61 99 45 299 131 6-6 18-13t18-11zM3263 437q-26 51-57 67-16-8-46-68 36-35 52-35 34 0 51 36zM897 1672v37q-11 11-49 11 15-48 49-48zM2086 213q-88 66-134 66-24 0-111-110 2 0 16-6.5t29-6.5q39 0 187 33 9 8 13 24z" glyph-name="uniFB7F" horiz-adv-x="4322" unicode="&#xfb7f;"/><glyph arabic-form="medial" d="M1587 1529q0-36-27-54-147-83-448-268h-46q-12 1-12 24 0 67 249 210 207 119 259 134 25-25 25-46zM983 1416q0-63-138-126-115-53-164-53-12 0-40.5 5.5t-45.5 5.5v37q55 26 172 81-13 35-50 35-15 0-107-62-5 0-18 6t-18 6v43q-1 42 74 84 64 35 99 35 46 0 212-56 24-14 24-41zM1453 356q0-245-214-245-59 0-168 41-19-17-19-45 0-11 5-46 5-31 4-49-13-116-63-215-40-82-234-164-55-24-170-24-142 0-243 74-116 85-116 228 0 51 58 158 54 101 85 124 21-14 21-37 0-10-25.5-92t-25.5-96q0-195 287-195 92 0 144 17 74 25 171 105 22 19 22 51l-184 1071q11 48 54 137 20 0 34-23 10-67 51-287 16-103 31-207 29-157 87-245 79-118 214-118 102 0 102 51 0 13-46 79.5t-46 79.5q0 47 33 97h36q115-98 115-225zM1351-217q0-13-17-41-27-43-29-47-35-14-41-14-42 0-97 53 0 40 17 81 21 50 55 50 23 0 67.5-30t44.5-52z" glyph-name="uniFB81" horiz-adv-x="1583" unicode="&#xfb81;"/><glyph arabic-form="isolated" d="M2233 1834q0-46-279-218-99-64-301-170-14 14-14 35 0 50 241 203 148 90 295 180h45q13-13 13-30zM2252 1352q-11-55-91-86-93-36-102-47l133-936q-3-110-5-125-10-73-51-125-8 6-22 24 1 46-1 145-6 117-57 429-21 104-41 208-27 142-27 224 0 85 27 122 0 1 1 3 3 6-4 22-45-31-101-51-15 12-24 12 0 9 9.5 35t9.5 40q0 11-26 36t-26 41q0 39 97 147 41 47 87 47 33 0 60-32 22-28 22-50 0-37-41-75 25-8 173-8zM1854 739q0-34-26-68t-45-34q-25 0-69 36t-44 56q0 33 34 69 31 33 53 33 42 0 72-35 25-29 25-57zM1230 1282q0-15-23-61h-32q-13 0-49.5 25t-48.5 25q-13 0-63-56-66-75-87-94-53-47-146-83-69-25-139-52h-36q11 27 104 106l134 88q130 91 130 127 0 10-61.5 56t-61.5 67q0 43 57 113 60 77 112 77 66 0 76-86 7-61 13-122 12-23 72-61 49-31 49-69zM1384 668q0-21-29.5-62t-47.5-41q-10 0-42 15.5t-45 15.5-54-31-54-31q-21 0-64.5 33t-43.5 54q0 20 32 64t50 44q21 0 97-52 5 5 47 53 26 29 41 29 25 0 69-36.5t44-54.5zM636 1408q0-38-166-123-127-64-213-64-36 0-51 14 15 37 95 73 100 45 130 72l-2 2q-22 23-64 23-26 0-122-71h-35q-12 0-12 24 0 62 83 115 71 44 122 44 10 0 235-63v-46zM1854 268q0-77-30-138-40-77-113-77-68 0-109 13-14 4-55 33-37 26-51 26-9 0-45-28-41-31-71-41-208-64-273-64-227 0-293 41h-27q-2-4-36-110-20-62-67-104-32 0-83.5 45.5t-74.5 89.5q-12 25-12 63 0 15 2.5 43t2.5 39q0 57-52 57-41 0-140-68-25-16-68-52-2-17-2-69l82-768q0-110-59-117l-115 853q-1 14-1 27 0 176 188 312 17 12 145 48 5 2 39 21 29 17 43 17 13 0 77-51 77-62 110-80 89-49 162-61 77-12 199-12 195 0 299 73 32 22 54 76 19 48 39 96h35q23-15 23-42 0-14-10-49.5t-10-55.5q13-11 83-30 65-18 76-18 13 0 20.5 4.5t16.5 4.5q0 4 4.5 6t4.5 17q0 9-20.5 69t-20.5 74q0 49 34 102h36q20-32 41.5-105t21.5-110zM2037 1359v18l-48 12v-18zM1018 1448v37h-18v-37h18z" glyph-name="uniFB82" horiz-adv-x="2206" unicode="&#xfb82;"/><glyph arabic-form="final" d="M1624 1722q0-49-230-194-148-87-296-175h-34q-13 14-13 41 0-5 14 49 143 100 296 178 72 45 216 131h34q13-13 13-30zM1502 1010q0-28-34-64-31-33-48-33-10 0-42 15.5t-45 15.5-51.5-31-51.5-31q-25 0-127 74 0 15 38.5 68t52.5 53q12 0 49.5-25.5t48.5-25.5q12 0 48 41t48 41q30 0 72-34t42-64zM958 1459q-14-19-100-84-98-72-131-72h-82l-13 12v37q5 5 61 33 38 19 61 63-2 0-15.5 4t-25.5 4q-7 0-116-82-47 0-47 36 0 39 75 106 73 63 109 63 1 0 224-63v-57zM580 1635q0-42-48-66-58 81-111 81-82 0-188-131-41-51-60-121-12-46-12-91 71-90 71-122 0-20-23-67h-32q-34-1-84 63-25 31-25 95 0 125 102 289 121 198 277 198 133 0 133-128zM590 1111q-13-13-40-13-12 0-53.5 30.5t-55.5 30.5q-11 0-55-52-55-65-85-88-117-92-288-166h-36v37q357 258 357 310 0 7-56 55.5t-56 77.5q0 39 56 109 62 75 113 75 23 0 66-45t37-74q-5-27-5-51 0-69 50.5-106.5t50.5-55.5v-74zM1634 375q0-188-109-267-87-62-313-88-209-427-489-427-116 0-264 25-167 28-186 62l12 25q33 9 62 9 28 0 84-14.5t98-14.5q10 0 40.5 8.5t46.5 7.5q116-2 253.5 86t201.5 209q-9 4-118 29-81 18-104 62-13 26-13 69 0 59 54 159 63 117 130 117 52 0 113.5-123t122.5-123q119 0 287 79 13 80-37 126-24-8-59-49-27-33-84-33-47 0-96 44-52 48-52 104 0 51 53 158 62 124 120 124 78 0 168-158 78-140 78-206zM611 202q0-86-34-105-23-13-90-13h-41-44q-221 0-221-148 0-8 16-93 18-92 21-132 34-390 34-451 0-107-33-148-21 0-45 33-13 131-50 468-36 305-36 313 0 74 36 142 18 35 84 125-3 11-3 25 0 71 71 155 70 79 120 79 42 0 125-96 56-64 85-111 5-12 5-43zM1429 520q-18 22-56 55-46-45-46-61 0-41 52-41 29 0 50 47zM389 1345l-13 30-15-6 12-24h16zM1030 198q-24 49-45 60-23-13-14-60h59zM385 275l-47 13q-23-23-23-39h58z" glyph-name="uniFB83" horiz-adv-x="1632" unicode="&#xfb83;"/><glyph arabic-form="isolated" d="M4169 1550q0-58-122-143-64-37-127-75-27-17-236-170h-35q-23 23-23 40 0 41 84 104 134 91 400 273h47q0-3 6-8.5t6-20.5zM4476 342q0-85-176-197-142-90-187-97-281-44-277-44-73 0-84 3-82 22-122 71-51 61-63 124-34 195-82 545-43 316-43 343 0 19 29 68 27 45 37 54 13-12 32-34 19-202 82-605l12-147q9-104 46-169 23-42 95-80h37q0 16-11 43t-11 40q0 18 34.5 103.5t60.5 129.5q63 107 134 131.5t109 24.5q53 0 135-46t120-101v-45q-13-13-30-13-13 0-74.5 36t-73.5 36q-49 0-151-48-121-58-121-116 0-56 69-109 60-45 95-45 36 0 208 85 45 22 113 89h45q13-13 13-30zM3042 1181q0-13-5.5-26.5t-5.5-23.5q-4 0-12-5.5t-23-5.5q-10 0-43.5 20.5t-47.5 20.5q-13 0-71-59-70-71-101-91-72-48-301-116-5 5-17.5 12.5t-17.5 13.5q16 18 54 51 90 50 181 100 164 100 164 150 0 17-15 27-6-2-12-2-29 0-64 41-31 37-31 57 0 47 73 126t122 79q69 0 69-152 0-47-6-87 17-24 73-63 37-26 37-67zM3340 224q0-107-36-157-25-34-159-66-119-28-195-28-133 0-133 93 0 22 15 59 16 43 32 43 12 0 53-15.5t54-15.5q96 0 278 69 4 13 4 27 0 102-227 236-4 9-8 17-6 15-6 30 0 32 15 63 18 39 46 39 54 0 135-80 70-68 87-107 45-111 45-207zM2684 245q0-114-91-249-34-63-136-192-47-46-148-78-93-29-173-29-205 0-414 74 0 18 6 37t6 21q219-40 274-40 86 0 249 64 97 38 199 151 95 107 136 209l-18 16q-7 0-18-28-65-54-102-54-72 0-113 54-36 47-36 115 0 63 40 157 49 114 114 114 86 0 162-153 63-126 63-189zM1834 1308q0-60-193-153-125-55-249-110-245-126-927-467 0 4-6.5 12.5t-6.5 22.5q0 81 207 196 119 64 614 304 499 242 517 242h44v-47zM1271 464q0-36-40-67-32-24-47-24-17 0-106 52 0 29 19 74 23 58 56 58 36 0 77-31t41-62zM42 459q16-17 49-28 39-12 52-22 282-207 533-282 203-61 493-61 318 0 607 114 39 16 92 52 79 54 79 95 0 12-56 112t-56 112q0 47 32 98h32q59 0 105-126 35-95 35-135 0-79-47-162-55-97-150-143-79-49-227-117-233-64-508-64-690 0-1039 491zM2846 1367v38h-27v-38h27zM2499 334v45q-17 17-44 45-48-27-48-67 0-24 13-24 41-21 79 1zM30 423z" glyph-name="uniFB84" horiz-adv-x="4476" unicode="&#xfb84;"/><glyph arabic-form="isolated" d="M2422 1538q0-42-197-162-123-74-247-149h-55q-13 13-13 40 0 59 464 317h36q0-4 6-17.5t6-28.5zM2329 924q0-25-23-62-28-45-64-45-10 0-39 15.5t-42 15.5q-8 0-36-31t-61-31-59 23q-23 22-23 39 0 25 31.5 68.5t55.5 43.5q9 0 30-15t41-15q13 0 51.5 30.5t50.5 30.5q21 0 54-24t33-43zM2401 290q0-151-46-208-42-54-158-86-97-28-185-28-87 0-139 54-71 75-88 234l-26 278q4 16 4 41-9 110-35 375-23 229-23 240 0 29 44 118 53-23 64-108 3-71 8-142 14-145 34-410 7-92 20-276 1-41 3-82 6-53 33-89 55-70 163-70 46 0 135 24 110 30 110 68 0 7-27 62-18-10-75-51-29-21-66-21-59 0-105 48-44 46-44 95 0 65 44 163 56 124 130 124 102 0 172-156 53-119 53-197zM1499 1481q4-45-9-88-14-13-31-13-12 0-60.5 25.5t-62.5 25.5-22-3q-33-45-101-128-23-25-114-88-110-77-148-77h-42q-13 1-13 25 0 26 83 87 52 37 103 73 73 60 152 159-2 23-52 55t-50 77q0 50 63.5 119.5t110.5 69.5q83 0 83-122 0-30-5-69-5-35-5-37 56-44 120-91zM651 1462q0-66-41-130-49-75-118-75-98 0-98 113 0 64 36 141 45 95 108 95 50 0 83-49 30-42 30-95zM1500 331q0-152-87-247-18-20-75-37-60-18-75-31-27-25-115-187-138-250-436-250-158 0-357 53v37q9 1 209 1 155 0 305 80 158 84 242 223-3 23-52 29-44 4-87 9-96 22-96 145 0 68 50 157 59 105 134 105 64 0 111-118t88-118q28 0 80 16 69 22 69 51 0-12-65 552 0 65-21 194-3 12-27 38-20 23-20 40 0 48 38 136 36 80 59 99 27-11 31-51 1-33 2-65t15-49q2-3 39-23 31-17 31-32 0-12-30.5-73.5t-30.5-74.5zM610 249q0-28-21-89-23-72-48-90l-106 977q0 52 44 138h37zM1305 1628q0 14-14 26t-23 12q-1-2-1-49 19 0 38 11zM2217 434q-11 22-57 45-15-15-45-56 35-36 56-36 46 0 46 47zM546 1471h-35q-35-32-35-50 0-14 6-20t6-9h47q26 45 11 79zM1069 174q0 27-21 68h-37l-12-46q23-22 70-22z" glyph-name="uniFB86" horiz-adv-x="2428" unicode="&#xfb86;"/><glyph arabic-form="final" d="M2177 1630q-155-108-463-299-10-1-28.5 15t-18.5 31 14.5 40 28.5 32q164 89 431 260h36v-79zM2117 256q-8-145-83-222-21-20-116-43-90-22-139-22-152 0-220 51-59 45-94 162-36 139-72 279-10-6-37-46.5t-50-53.5q-30-5-88-31 3-70-20-203-14-78-15-83-13-62-34-83-175-186-486-186-146 0-253 75-126 87-126 237 0 73 56.5 186.5t113.5 156.5q25-25 25-47 0-12-41-109.5t-41-109.5q0-121 113-186 85-50 180-50h64q82 0 178 44 48 21 97 42 54 28 82 65 13 18 13 74 0 66-61.5 200t-61.5 123q0 42 44 107 34-7 66-51 27-40 69-40 95 0 141 54 84 98 116 119 45-37 64-133 12-84 25-167 26-138 92-190 56-42 173-42h49q86 0 186 47 0 8-29 203-41 272-78 572-8 15-24 40-14 21-14 75 0 76 75 219h35q23-23 23-56 0-14-5-41t-5-39q0-11 3-20 12-35 47-48 54-17 63-23v-35q0-13-34-60-31-41-46-54-2-7-2-32zM816 573q0-33-40-65-34-27-51-27-35 0-81 36-42 33-42 46 0 23 40 69 38 44 47 44 19 0 73-41t54-62zM1646-240q-14-31-54-74-49-9-134-27-39-11-126-62-81-47-92-47h-52q-13 2-13 25 0 30 58 93-17 20-17 50 0 66 64 145 63 76 110 76 25 0 61-30.5t37-56.5q2-10-2-35-5-29-5-43 37-2 141 11zM1790-362q-10-29-38-64-178-68-530-208h-34q-13 14-13 36 0 29 22 50 17 17 250 112 244 98 287 98h32zM1389-233q-18 38-48 38v-38h48z" glyph-name="uniFB87" horiz-adv-x="2176" unicode="&#xfb87;"/><glyph arabic-form="isolated" d="M1228 2088q0-55-54-88-123-78-302-177-184-103-203-103h-42q-13 13-13 36 0 57 146 134 138 79 410 229h35q8-5 15.5-10t7.5-21zM1156 1684q0-69-35-115-24-32-139-86-104-49-117-49-87 0-87 82 0 66 64 141h37q2-46-9-74l17-17q33 9 42 62 9 66 46 102 40-5 43-33 5-48 13-59 34 4 48 51 18 62 40 82 37-17 37-87zM819 988q0-69-177-136-144-53-192-53-15 0-31 6t-20 6q15 34 86 66 85 37 109 62 6 24-37 24-39 0-90-51h-35q-13 13-13 40 0 47 62 92 58 41 107 41 11 0 92-27 86-29 126-35 13-13 13-35zM1177 348q-15-142-16-144-21-90-88-139-13-9-70-19-51-9-70-34-13-34-27-70-22-59-59-82-40-23-121-23-10 0-46.5 15t-50.5 15q-13 0-43-39-38-46-56-59-46-34-180-79-140-48-207-48-26 0-41 14 20 43 75 60 41 13 214 106 48 21 96 43 63 34 72 80 0 46 6 133 8 47 73 110 69 68 124 68 12 0 104.5-31t105.5-31q123 0 123 93 0 80-35 250-29 172-91 490-5 22-38 84-30 58-30 71 0-24 23 134 4 28 51 76 25 2 37-49 17-67 23-76 11-16 39-29 33-15 41-22-11-58-50-157zM808 24q-26 99-82 99-28 0-61-57 36-56 97-56 32 0 46 14z" glyph-name="uniFB88" horiz-adv-x="1187" unicode="&#xfb88;"/><glyph arabic-form="final" d="M2765 1746q0-41-99-103-64-35-128-69-99-60-300-172-25 25-25 41 0 50 43 77 418 262 455 261h41q13-13 13-35zM2756 834q0-18-38.5-57.5t-59.5-39.5q-10 0-31.5 10.5t-34.5 10.5-54-31-54-31q-29 0-63 29t-34 53q0 40 34 69 27 23 48 23 10 0 34-10t38-10q12 0 53 36t54 36q23 0 63-27 45-31 45-61zM2203 1008q0-28-38-63-34-34-54-34-36 0-82 43 0 40 19 81 23 50 57 50 21 0 59.5-29.5t38.5-47.5zM1834 1592q0-44-33-63-119-71-503-310h-34q-24 23-24 35 0 36 13.5 54t143.5 96q240 146 402 234 35-35 35-46zM1855 604q0-23-36.5-57.5t-50.5-34.5q-18 0-47 20.5t-40 20.5q-13 0-51.5-36t-51.5-36q-12 0-101 52 0 38 26 78 30 44 65 44 11 0 38-10t39-10q13 0 54 35.5t53 35.5q30 0 68-42 35-40 35-60zM2725 215q0-96-53.5-160.5t-130.5-64.5q-107 0-251 122-41-40-82-79-56-53-103-53-12 0-104 56t-106 56q-10 0-61-38-56-42-85-52-321-104-637-104-177 0-289 65-30 17-70.5 79t-48.5 105q-6 14-23 37-25-28-88-78-42-24-136-24-133 0-188 52-7 87 136 211 108 82 218 165 4 59 8 119 7 82 39 118 7 0 34-16 19-105 51-285 8-68 14-136 15-93 63-148 38-43 138-73 92-28 178-28 102 0 425 48 181 26 259 94 7 6 29 67 21 54 60 78 34-10 34-48 0-19-11-60-10-38-8-49 9-18 73-39 60-19 96-19 41 0 90 26 59 32 59 76 0-6-30.5 109.5t-30.5 177.5q0 97 33 133 26 0 34-13 19-39 50-190 29-142 67-204 58-95 169-95h47q29 6 29 36 0 13-40.5 87.5t-40.5 87.5q0 27 14 63 18 44 42 44 57 0 98-126 30-92 30-130zM871-256q0-57-43-79-255-123-451-227-9-2-22 12-16 16-16 34 0 50 156 129 22 18 63 45 21 4 60 16 19 10 109 63 65 38 80 38h51q13-14 13-31zM666 267q0 76-11 111h-36l-112-68q-65-43-75-72 18-1 47-7t39-6q59 0 148 42z" glyph-name="uniFB89" horiz-adv-x="2725" unicode="&#xfb89;"/><glyph arabic-form="isolated" d="M2635 1514q0-41-130-133-70-45-138-90-77-59-230-161-35 32-35 56 0 45 85 107l102 64q104 76 310 213 36-35 36-56zM1815 1366q0-62-50-62-14 0-59.5 31t-58.5 31q-4 0-170.5-138t-210.5-138h-53q-12 1-12 25 0 14 117 115 196 168 201 173v27q-30 13-65 46-38 35-38 53 0 59 63 131 68 74 132 74 82 0 82-115 0-27-5-67-4-34-3-37 3-24 66.5-67t63.5-82zM2195 582q0-81-45-158-22 4-32 64-10 57-19 113-12 41-72 124-58 78-58 88 0 25 17 48.5t34 23.5q10 0 73-63 23-18 56-53 46-75 46-187zM2788-267q0-32-44-62-35-25-48-25-11 0-45 20.5t-48 20.5-49-25.5-47-25.5q-36 0-64 29-23 26-23 48 0 29 26.5 63t60.5 34q10 0 39.5-15.5t42.5-15.5q12 0 48 31t48 31q36 0 72-47 31-40 31-61zM2635 306q0-312-492-312-288 0-375 174-55-36-70-48-42-33-65-72-20-52-68-153-170-300-497-300-61 0-182 25-143 31-156 63l14 17q-19-3 211-3 130 0 260 54 42 32 122 85 144 84 171 183-11 19-29 19-10 0-29.5-6.5t-28.5-6.5q-72 0-117 51-42 48-42 112 0 73 50 164 56 103 119 103t115-88q79-137 81-138 31 18 63 36 48 30 54 51l-102 692q11 68 43 132h37q45-282 127-802 27-181 351-181 90 0 197 22 146 28 146 76 0 15-6.5 21t-7.5 7q-19 38-68 104-31 41-31 77 0 41 34 92 70-24 123-110 48-77 48-140zM1160 327q0-19-18-44-40-172-258-266-173-74-374-74-110 0-259 60-164 67-237 158-5 37 35 37 13 0 144-35.5t143-35.5q21 0 60 12 80 26 130 128 40 82 40 152 0 55-89 593-3 15-24 74-20 53-20 70 0 32 23 88t42 70q34 2 53-54 21-62 86-71v-51q-7-8 17-8 18 0 90 73 69 70 109 127-33 27-67 55-36 31-36 73 0 51 51 124 56 81 113 81 67 0 86-99 4-55 8-109 35-23 69-46 42-29 42-64 0-51-56-51-14 0-34 5t-33 5q-18 0-107-96-98-107-110-115-63-34-183-103-4-83 28-250 34-177 34-262 0-58-10-109l16-17 136 92q52 31 114 31 79 0 152-33 94-42 94-115zM902 1479q0 25-15 40 0-10-14-26 13-11 29-14zM1466 206q-23 58-55 74-9-4-36-57 45-23 91-17zM1016 242v37q-108 42-153 42-53 0-153.5-72t-131.5-131h136q57-1 163 47 89 40 139 77z" glyph-name="uniFB8A" horiz-adv-x="2641" unicode="&#xfb8a;"/><glyph arabic-form="final" d="M4131 1608q0-56-209-181-1-1-255-140h-36q0 3-6 9t-6 20q0 18 24.5 55t50.5 54q37 14 113 47 42 21 146 97 90 64 103 64h63q12-1 12-25zM3495 1453q1-28-205-148-198-114-322-162-14 14-14 30 0 66 53 98 393 230 425 229h63v-47zM3681 559q0-18-39-55t-59-37q-12 0-48 20.5t-49 20.5q-11 0-52-31t-56-31q-19 0-62 29-45 30-45 48 0 19 37.5 63.5t60.5 44.5q11 0 47.5-20.5t49.5-20.5q12 0 49 41t53 41q29 0 74-55 39-48 39-58zM2381 1424q0-12-5.5-27.5t-5.5-25.5q-2-1-3-3-9-11-27-11-14 0-59.5 31t-58.5 31q-8 0-72-66-72-73-103-95-117-77-310-140l-22 8q18 41 185 152 177 118 224 187-13 16-80 72-42 35-42 66 0 70 74 136.5t137 57.5q50-17 58-117 0-2-3-71-1-44 12-70 8-16 45.5-44t50.5-48q5 1 5-23zM4070 1028q-10-44-35-109-20-11-55-40 4-14-3-40l72-541q-21-163-57-219-47-73-163-73-71 0-138 36t-72 36q-9 0-65-44-63-46-92-56-71-23-237-23-119 0-219 68-107 82-213 165-100 68-303 208 0-36 6.5-104t6.5-76q0-110-34-148-22-26-96-43-92-21-149-52-14-9-51-77-32-62-64-122-47-85-150-155-105-73-188-73h-143q-85 0-257 33-35 7-86 53 16 37 51 37 13 0 107.5-15.5t108.5-15.5q155 0 306 78 169 89 236 234-20 23-66 21-75-2-73-2-107 13-107 134 0 69 57 161 61 101 122 101 55 0 108-100 29-63 59-124 10-2 53-2 79 0 185 49v47q-1 49-85 152-46 56-156 162-128 124-175 175-14 16-14 80 0 99 76 181 40 43 181 149 98 72 278 174 191 112 567 316 14-2 14-26 0-18-14-52-16-40-33-54-88-72-325-189-79-39-334-199-308-194-308-233 0-31 38-54 394-240 861-625 69-57 202-81 14-3 97-3 130 0 208 33 9 4 77 51 59 39 78 39 18 0 92-35.5t133-35.5q47 0 56 4 21 10 21 52 0-1-18 132-27 178-68 512 0 19-19 74-18 52-18 65 0 5 64 223 6 1 22 13 33-12 33-50 0-12-3.5-36.5t-3.5-35.5q0-23 12-33 35-17 102-52zM1633 1593q0-59-248-219-233-149-264-149-41 0-41 41 0 45 82 96 63 35 126 69 183 109 287 192h46q0-4 6-10t6-20zM1479 795q0-32-43-65-37-28-54-28-34 0-65.5 26t-31.5 51q0 34 35 67 32 31 57 31 32 0 67-30.5t35-51.5zM660 1722q-29-73-135-144-13-9-154-90-109-58-310-172l-25 25q9 36 17 56 15 34 36 48 133 86 317 193 190 109 208 109 22 0 46-25zM660 1275q0-149-187-198-13-3-54-27-35-20-50-20-38 0-65 44-22 36-22 69 0 19 30 74t47 69q23-23 23.5-50t .5-55q-7-8 17-8 26 0 36 38 6 30 12 61 6 17 31 54 39-2 43-40 6-53 13-62 40 2 43 62 4 71 36 92 46-26 46-103zM619 651q0-17-39-59.5t-57-42.5q-28 0-73 29.5t-45 52.5q0 25 35.5 68.5t55.5 43.5q31 0 79-41 44-38 44-51zM1633 380q0-147-84-217-32-26-213-53-151-22-205-22-10 0-26 5t-30 5q-13 0-34-28-9-75-47-211-43-93-219-161-155-60-285-60h-58q-99 0-194 82-100 87-100 190 0 161 168 351h36q-10-43-53-155-38-98-38-110 0-102 100-154 80-41 192-41 130 0 243 46 161 64 161 190 0 12-61.5 142.5t-61.5 139.5q0 41 21 105 13 12 31 12 19 0 66-73 49-76 53-79 72-33 203-33h159q21 0 175 49 3 30-5 47.5t-47 71.5q-31 44-31 58 0 55 33 122h46q105-101 105-219zM2174 1615q0 37-38 49v-39q5 0 16-5t22-5zM2042 137q-20 51-46 64-35-35-35-49 45-23 81-15z" glyph-name="uniFB8B" horiz-adv-x="4047" unicode="&#xfb8b;"/><glyph arabic-form="isolated" d="M791 1402q0-40-64-72-59-30-308-165-193-104-207-104h-32q-24 24-24 35 0 49 45 73 531 291 549 291t41-24v-34zM638 482q0-26-33.5-61.5t-53.5-35.5q-9 0-118 54 14 42 28 83 22 57 54 57 17 0 69-37 54-39 54-60zM1570 292q0-60-34-106.5t-79-46.5q9 0-239 62-50-78-101-110-11-7-63-19-41-9-56-33-8-48-26-131-29-100-93-184-35-45-176-99-130-49-188-49h-46q-133 0-228 75-105 82-105 218 0 73 67 188 70 119 134 144l24-26q-112-197-112-245 0-88 89-144 72-46 136-46h67q109 0 219 52 134 62 134 153 0 103-56 208t-56 114q0 11 10 44.5t10 49.5q2 2 2 3 11 10 33 10 46 0 62-39 28-71 31-74 31-40 112-40 61 0 102 40 33 31 81 121 16 31 92 117 91 101 125 101 42 0 88-146 40-122 40-162zM1549-275q0-51-27-64-453-208-501-207h-32q-8 5-15.5 10t-7.5 20q0 17 14.5 44.5t28.5 33.5q160 63 483 198h44q13-13 13-35zM1425 324v46q-20 45-47 45-44-44-44-55 0-24 13-26 9 0 35-5t43-5z" glyph-name="uniFB8C" horiz-adv-x="1576" unicode="&#xfb8c;"/><glyph arabic-form="final" d="M5590 1584q0-83-101-155-92-65-170-65-11 0-35 15t-37 15q-7 0-143-82-15 12-24 12 1 81 133 168 31 9 83 27 17 9 34 45 25 49 28 53 53 74 119 74 42 0 77.5-35t35.5-72zM5027 1530q-46-50-134-100-100-56-168-56-16 0-66 25 51 31 153 108-7 10-25 10-27 0-135-51-8 4-16 9.5t-8 21.5q0 41 82 100 77 53 112 53 15 0 89-29 97-38 116-45v-46zM5416 350q0-86-25-212-6-11-44-33l-136 997q0 40 43 148 27 0 35-12 37-150 58-391 8-96 40-301 29-190 29-196zM4536 1082q0 2-34-66h-32q-13 0-52 35.5t-52 35.5q-7 0-67-57-66-64-104-83-189-95-283-93 23 28 200 154 158 111 158 141 0 12-46.5 60t-46.5 57q0 55 71 123 75 71 141 66 53-52 53-142 0-44-13-96 107-127 107-135zM3758 1415q0-48-136-120-122-65-148-64h-125v49q68 23 204 100-20 25-62 25-13 0-58.5-31t-59.5-31q-45 0-45 31 0 47 84 102 78 52 120 52 13 0 90-30 92-35 124-44 0-3 6-13.5t6-25.5zM3512 898q0-25-44-57-41-30-63-30-23 0-108 52 0 30 22 75 27 57 65 57 25 0 76.5-36t51.5-61zM3184 1552q0-27-176-132-97-55-195-111-49-36-98-71-68-49-104-49-17 0-41 24v31q0 41 279 206 269 159 294 159 17 0 41-23v-34zM5047 293q0-129-25-176-44-83-219-83h-23q-52 0-75-5-13-18-50-44-8-3-94-3-227 0-268 92-34-28-109-69-109-33-176-33h-92q-149 0-145 160 8 7 18 40v38q-31 17-58 17-11 0-149-51-168-60-227-79-107-9-297-58-10-5-83-156-69-146-203-245-73-55-254-55-228 0-408 83-1 7-11 23 19 37 61 37 13 0 126-20.5t125-20.5q102 0 244 53 25 9 150 122 143 129 143 178 0 10-41 54t-41 59q0 21 15 64 19 53 42 53 12 0 38-20 32-24 46-29 54-22 131-22 74 0 194 33 126 36 170 76-1 11-59.5 48t-69.5 37q-61 0-204-62-15 13-25 13v42q-1 44 114 127 104 75 120 75 12 0 112-58 121-68 152-84 89-43 244-67 105-17 86-17 105 0 112-2v-45q1-42-53-72-39-22-152-22 0-4-4.5-8.5t-4.5-18.5q0-67 109-67h89q93 0 179 66 18 14 126 124 65 66 111 66 22 0 100-74l82-78q77-43 182-43 69 0 108 27-26 174-76 520-23 93-62 276-14 15-44 49-13 19-13 60 0 52 37 122 28 52 48 72 34-8 45-61 12-61 14-62 36-18 91-54-61-156-61-160 0-9 20-91 22-89 27-129 65-497 65-462zM1176 1583q1-26-214-148-261-147-341-214h-47q0 4-5.5 17.5t-5.5 27.5q0 54 64 93 453 282 495 280h54v-56zM2150-131q0-20-37.5-56t-59.5-36q-21 0-107 52 0 35 25 85 29 58 61 58 25 0 73-49 45-44 45-54zM2682 238q0-18-20-55-22-40-43-54-35-25-126-25-13 0-20.5 5.5t-20.5 5.5q-87 0-312-61.5t-297-61.5q-54 0-130 23-84 24-105 53-18 37-55 111-24 47-43 173-18 119-52 172-56-50-156-152-8-8-4-34 4-42 4-45 0-122-4-153-16-93-82-144-188-147-417-147-138 0-233 84t-95 207q0 50 65 166 68 121 114 136 36 0 36-26 0-7-46-105t-46-114q0-95 95-150 75-45 160-45 82 0 195 47 125 53 161 114 3 6 3 54 0 73-66.5 195.5t-66.5 121.5q0 21 23 92h66q52-71 111-71 68 0 118 82 32 56 63 112h47q48-58 78.5-258.5t103.5-284.5q7 5 141 130 103 96 165 96 40 0 98-36 78-49 119-64 72-26 207-52 116-22 144-22l99 10 16-10t8-20zM901 836q0-17-36-62t-46-45q-33 0-123 62 0 30 22 75 27 57 65 57 17 0 65-30 53-34 53-57zM2334-474q0-44-136-108-76-32-153-64-113-61-196-88h-35q-12 13-12 35 0 52 44 73 155 74 464 198 24-25 24-46zM1587-258q0-18-37-58t-55-40q-13 0-48.5 20.5t-48.5 20.5q-11 0-42-36t-45-36q-47 0-113 64 0 36 28.5 78t57.5 42q14 0 42-20.5t40-20.5q11 0 55.5 36t57.5 36q24 0 64-27 44-30 44-59zM4344 1284v37h-17v-37h17zM4515 159l-32 56q-19 32-35 32-29 0-55-46 9-9 11-24 62-26 111-18zM2057 204q-85 64-117 64-23 0-71-44-46-41-56-66 10 0 26.5-6.5t29.5-6.5q69 0 155 24 33 24 33 35z" glyph-name="uniFB8D" horiz-adv-x="5405" unicode="&#xfb8d;"/><glyph arabic-form="final" d="M1762 1604q0-53-84-111-67-41-133-82-132-86-207-129h-34q-13 13-13 30 0 50 124 132 73 43 145 85 8 5 144 111h45q13-14 13-36zM1823 939q-52-98-102-98-13 0-46 15.5t-46 15.5-51.5-30.5-50.5-30.5q-36 0-76 29-37 28-37 47 0 31 33 64.5t64 33.5q12 0 41.5-10.5t40.5-10.5q7 0 35 31t68 31q63 0 127-87zM1864 299q0 10-45-150-22-78-139-118-85-29-169-29-121 0-216 94-35 34-59 259-20 168-51 501-3 39-26 149-21 107-21 113 0 22 23 79 27 65 48 65 38 0 54-159 29-282 41-461 11-172 12-182 12-113 39-195 14-45 83-74 58-26 104-26 71 0 136 25 84 32 84 89 0 33-28 61-10 2-28-18-28-32-38-40-42-35-90-35-27 0-90.5 47.5t-63.5 70.5q0 72 71 192 77 131 144 131 89 0 164-178 61-143 61-211zM881 1593q0-43-152-145-79-49-157-98-139-91-239-140-25 25-25 36 0 52 43 82 434 302 475 301h55v-36zM963 304q0-193-155-307-135-97-316-97-137 0-222 74t-85 191q0 137 126 297h36q12-2 12-25 0-12-36-97.5t-36-97.5q0-95 98-149 74-40 159-40 74 0 188 52 139 62 139 137 0 87-106 726-4 26-28 63-20 30-20 81 0 74 64 200h48q0-50 24-135 9-14 44-31t46-33q-5-14-43-91-29-59-29-73 0 9 46-290t46-355zM1660 473q0 28-47 51-45-45-44-58v-33q2 0 20.5-5.5t36.5-5.5q34 34 34 51z" glyph-name="uniFB8F" horiz-adv-x="1863" unicode="&#xfb8f;"/><glyph arabic-form="initial" d="M1023 1393q0-42-36-119-62-39-159-79-91-38-112-38-37 0-92 52v15q0 50 38 116.5t73 70.5q2-74-9-115 7-6 20-6 14 0 23 8 13 40 53 122 10 7 31 23 35-15 35-44v-59h26q15 47 61 134 48-10 48-81zM1556 246q0-178-34-235h-37l-134 1024q8 41 16 83 10 47 40 80 28-26 40-103 10-84 19-168l50-302q40-251 40-379zM1013 886q0-26-44-64-38-34-48-34t-112 63q7 132 87 132 30 0 73.5-36.5t43.5-60.5zM1770-250q-22-50-54-64-98-32-299-116-14 12-23 12-2 16 14 96-2 7-15 24-12 14-12 27 0 36 74.5 113t110.5 77q72 0 72-73 0-23-23-49-21-22-34-22-9 0-51 21l-15-16q24-25 76-25 34 0 156 20zM1862-416q1-45-259-120-73-34-217-89-15 13-24 13 18 73 134 123 93 36 185 72 98 49 126 48h55v-47zM1290 87q0-188-295-320-234-105-417-105-151 0-269 81-136 94-136 247 0 190 147 327 37 0 37-25 0 5-35.5-87t-35.5-134q0-134 134-200 91-45 199-45 125 0 269 45 167 51 258 136 0 15-7 20-137 44-167 44-12 0-31-5t-31-5q-102 0-102 51 0 72 148.5 102.5t148.5 82.5q0 29-24 74-1 3-72 93-58 71-58 109 0 21 19 59 21 44 43 44 36 0 105-99 59-85 65-110 14-61 14-109 0-13-16-69-21-65-25-89 9-7 91-35 43-14 43-78zM1186-405q1-35-32-52-376-188-424-187h-42q-13 13-13 30 0 52 34 67 407 189 442 189 15 0 23-6t12-6v-35z" glyph-name="uniFB90" horiz-adv-x="1875" unicode="&#xfb90;"/><glyph arabic-form="medial" d="M3655 1542q0-61-43-89-147-96-556-300-26 24-26 36 0 62 123 127l166 84q93 56 278 172h45q13-13 13-30zM2795 1450q0-55-43-79-32-11-93-37-63-36-242-154-148-99-161-99h-52q-14 2-14 26 0 62 245 207 171 102 313 165h36q0-4 5.5-9.5t5.5-19.5zM4208-167q0-60-65-90-364-167-392-166h-53q-12 2-12 25 0 59 54 83 139 58 411 178h33q9-5 16.5-10t7.5-20zM4116 319q-19-200-91-266-63-57-226-57-77 0-173.5 56t-88.5 56q-13 0-65-19-68-23-87-29-157-44-293-44-11 0-60 5t-63 5q-104 0-115.5-30.5t-65.5-30.5h-59q-19 0-122 36-95 33-106 39-2 1-3 2-31 36-46 36 1 0-91-61.5t-144-61.5q-99 0-175 55-9 6-35 45-22 33-36 33-10 0-62-41-58-46-91.5-58.5t-92.5-12.5q-101 0-318 162-254 190-294 207-5-75-32-202-21-50-79-103-31-10-89-50 8-66-65-184-31-14-90-14-13 0-56.5 4.5t-56.5 4.5q-26 0-33-2-11-21-34-57-48-61-100-90-42-25-157-63-134-43-198-43-12 0-31 5.5t-29 5.5q0 22 21 36l240 98q152 65 216 169 10 18-5 110-9 53 68.5 142t138.5 89q12 0 76-20.5t77-20.5q129 0 129 91 0 37-119 172-96 109-136 144-48 36-141 116-34 35-34 112 0 153 204 308 54 41 331 205 174 112 523 325 37 0 37-25 0-20-22-65-25-51-52-69-142-91-430-277-143-84-287-167-212-130-212-185 0-21 267-208 322-227 376-272 272-226 437-226 121 0 200 114l-113 839q2 6 13 66 7 36 43 67 13-8 32-24 46-274 62-452 21-242 51-399 3-44 5-87 8-63 41-94 51-50 117-50 87 0 119 22 56 38 175 160 103 105 115 105 18 0 101-78 94-87 127-105 76-43 248-43-1 0 319 29 0 8 19 28-27 31-74 36h-76q-14 13-14 35 0 30 48 85 44 51 78 69 64 35 145 35 72 0 157-37 104-47 104-116 0-24-91-139 12-39 68-45h80q122 0 159 46-45 379-46 385-30 225-61 372-2 12-26 53-21 37-21 55 0 103 75 204 35-9 44-85 9-69 85-69v-57q1-12-21-59-25-54-29-73zM1013 1470q0-61-36-61-12 0-45 20.5t-47 20.5q-7 0-68-63-74-75-123-108-14-9-248-126l-57 14q25 41 94 94 77 51 155 102 140 98 140 128 0 10-56.5 59.5t-56.5 63.5q0 42 57 119 64 85 123 85 83 0 83-143 0-23-2.5-56t-2.5-40q10-12 59-50 31-23 31-59zM2272-234q0-16-32.5-53.5t-53.5-41.5q-30-6-234-78-29-9-113-52-71-36-84-36h-42q-13 14-13 30 0 50 249 157 231 100 259 99h52q12-1 12-25zM2671 161q-19 28-38 57-26 34-49 44-31-16-35-47 38-56 78-54h44zM840 1650q0 4-16 29-7 4-35 4 15-27 34-36 8 1 17 3zM777-44v37q-62 64-81 64t-51-32v-28q40-15 132-41z" glyph-name="uniFB91" horiz-adv-x="4119" unicode="&#xfb91;"/><glyph arabic-form="isolated" d="M1548 1223q0-84-47-133-16-18-137-78t-139-60q-77 0-77 97 0 32 21 92 26 74 58 77 6-6 19-24 2-9-7-29t-9-33v-30l17-17q43 18 53 45 5 15 6 68 2 50 30 82 44-9 45-56 2-61 19-78 55 16 63 61 13 76 38 114 13-7 32-24 15-77 15-74zM851 1434q0-50-33-69-486-290-515-289h-43q-13 0-13 24 0 73 557 374h34q13-13 13-40zM667 532q0-51-77-102-18 0-66 31-52 33-52 51 0 29 26 69 28 43 56 43 34 0 73.5-34t39.5-58zM1630 307q0-154-113-154-82 0-229 62-36-50-47-62-27-32-55-47-12-8-113-28-22-4-32-45-5-25-9-50-13-47-41-133-18-45-88-102-61-49-116-73-80-33-238-33-115 0-207 67-105 77-105 199 0 88 47 185 50 104 131 163 23 0 37-14-13-35-67-145-46-94-46-107 0-84 95-144 77-50 141-50 103 0 217 38 162 54 162 151t-56.5 199-56.5 128q0 31 21 95 13 12 30 12 38 0 57-47 31-76 41-89 37-48 117-48 72 0 104 32 54 88 107 175 105 162 158 162 68 0 117-146 37-107 37-151zM1609-219q-24-74-65-95-399-208-444-207h-54v44q0 36 118 92l120 50q99 50 301 141zM1495 329q-24 73-66 101l-34-34v-45q3-2 100-22z" glyph-name="uniFB92" horiz-adv-x="1640" unicode="&#xfb92;"/><glyph arabic-form="final" d="M3951 1615q0-30-38.5-103.5t-59.5-86.5q-100-65-157-65-12 0-44 15t-44 15q-14 0-174-133-15 15-15 31 0 62 109 143 70 52 140 85 19 8 35 38 13 25 26 49 62 94 135 94 37 0 64-33 23-28 23-49zM3398 1558q0-26-80-84-76-54-108-61-38-8-135-33l-25 26q3 3 154 123-7 15-31 15-11 0-52-16-48-19-77-25-14 14-14 31 0 44 76 91 66 42 103 42 14 0 81-29 82-36 108-45v-35zM3685 315q0-109-33-213-11 0-36 32-31 355-78 657-6 41-34 180-24 116-24 132 0 46 44 133 8 0 26-5 24-37 29-70 12-98 37-287 69-478 69-559zM2917 1626q0-60-153-149-78-39-156-79-142-92-241-130 0 3-6.5 9.5t-6.5 20.5q0 55 222 190 142 84 283 168h47q0-4 5.5-10t5.5-20zM2856 873q0-19-31.5-53t-50.5-34q-11 0-46.5 15.5t-45.5 15.5q-13 0-51.5-36t-51.5-36q-18 0-55 28t-37 44q0 33 29.5 67.5t57.5 34.5q11 0 35.5-10t36.5-10q13 0 51.5 36t51.5 36q21 0 64-36t43-62zM3316 295q-13-175-74-236t-217-61q-112 0-216.5 36t-111.5 36q-11 0-68-26-64-28-95-33-65-13-149-13-94 0-133 16-61 27-79 111-46 209-85 625-31 326-31 394 0 36 44 122h46q27-99 40-259 9-139 41-409 11-136 23-271 33-175 155-175h70q51 0 100 36-8 23-8 49 0 104 90.5 219t172.5 115q117 0 117-174 0-37-21-98t-41-83v-26q70-29 159-29 153 0 180 46-58 504-107 737-4 19-32 86-25 60-25 73 0 31 54 152 20 26 54 43 21-17 23-68 2-72 4-78 1-1 79-50-11-71-50-189zM1197 1636q0-58-223-183-324-182-344-196h-34l-23 25q8 21 16 41 15 28 37 42 170 100 514 301h44q13-13 13-30zM1873 331q7-100-40-188-54-104-149-104-116 0-180 90-48 66-74 195-17 93-35 186h-18q-46-40-100-110-2-3-2-100 0-148-52-239-56-96-195-155-122-51-245-51-1 0-94 27-198 58-198 238 0 84 41 177 43 97 106 140h37v-36q0-13-36-94.5t-36-93.5q0-107 90-158 64-37 146-37 98 0 207 45 141 58 141 150 0 73-56.5 186t-56.5 121q0 34 23 68.5t39 34.5q11 0 40-26t42-26q53 0 115 77t80 77q53 0 76-136 37-212 51-251 50-136 169-136 44 0 72 27 3 80-4 131-26 202-92 604-1 9-19 37t-18 46q0 43 26 122 30 91 62 98 14-16 21-62 6-52 26-84 3-4 79-30v-86q0-10-34-54.5t-37-66.5zM910 894q0-20-34-58-36-40-63-40-30 0-63.5 32.5t-33.5 54.5 30 64q33 44 57 44 18 0 64-46 43-45 43-51zM2149-294q0-37-101-91-53-25-106-49-303-182-352-182h-32q-8 5-15.5 10t-7.5 21q0 51 54 78 18 8 299 154 181 95 196 95h54q0-4 5.5-12.5t5.5-23.5zM1617-262q0-18-38.5-58t-58.5-40q-13 0-48.5 20.5t-49.5 20.5q-13 0-46-30.5t-45-30.5q-42 0-103 86 0 31 32 66 30 32 44 32 41 0 103-41 77 71 88 71 27 0 76-43 46-41 46-53zM3837 1572h-15q-28-8-38-58 53 21 53 58zM2845 346q0 14-12 39-16 33-38 33-32 0-67.5-45t-35.5-73q0-17 17-31.5t34-14.5q11 0 53 29 49 35 49 63z" glyph-name="uniFB93" horiz-adv-x="3962" unicode="&#xfb93;"/></font>
</defs>
</svg>
