<svg xmlns="http://www.w3.org/2000/svg"><defs><font horiz-adv-x="992"><font-face ascent="1638" bbox="-30.0308 -969 6846 2293" cap-height="1558" descent="-410" panose-1="2 0 4 0 0 0 0 0 0 0" underline-position="-250" underline-thickness="100" unicode-range="U+000D-FEFC" units-per-em="2048" x-height="1269"/><missing-glyph d="M142 226v1362h700v-1362h-700zM284 368h416v1079h-416v-1079z"/><glyph arabic-form="final" d="M1932 1317q0-72-74-134l-102-68q-29-20-29-43l82-855q0-201-56-235-52 21-52 112 0 14 1.5 47t1.5 52q0 38-5 69-26 193-37 390-2 31-19 156-16 111-16 167 0 76 26 100 3 10-1 24-11 29-43 29-13 0-33-10t-30-10q-1 1-2 3-12 9-12 28 0 55 126 124 18 10 40 40 26 38 33 45 57 57 109 57 24 0 58-33.5t34-54.5zM1287 1396q-422-237-450-237-52 0-52 51 0 47 167 119 33 14 150 76 95 51 109 50h64q0-4 6-25.5t6-33.5zM1256 1144q0-31-24-91-27-71-61-86-37-4-102-27-72-47-95-47-36 0-63 34-23 28-23 53 0 60 67 128 12-28 51-82 27 6 50 55 14 33 29 67h36q4-20 28-61 28 43 95 102 0-4 6-17.5t6-27.5zM642 1072q0-32-34-66-10 0-40 15t-44 15q-12 0-57-44-52-52-73-65-77-43-226-126h-35q-13 13-13 30 0 28 117 110 76 52 151 104 29 24 29 47 0 13-31 51.5t-31 50.5q0 50 50 124 57 87 119 87 33 0 52-24 22-80 7-215 59-65 59-94zM1450 258q0-138-36-197-41-69-148-69-65 0-78 4-44 15-102 88-17-5-46-32-39-38-52-46-77-55-167-55-72 0-110 46-17 20-76 138-15-6-76-40-20-11-81-11-87 0-163 42 0 169 278 298 42 19 63 79 24 67 41 82h36q17-113 14-271-4-189 120-189 154 0 171 98 4 24 4 53 0 45-15.5 137t-15.5 137q0 106 64 178 8 0 20-15.5t14-29.5q9-121 17-242 14-143 61-237 9-20 45-35 30-13 50-13 17 0 38 19t18 41l-82 400q12 62 64 133 20 0 35-23 11-74 56-275 39-179 39-193zM1808 1270h-36q-23-10-23-38 41 0 59 38zM507 1221q0 14-14 26.5t-24 12.5v-39h38zM630 249v49h-46q-37-18-65-45 4-4 111-4z" glyph-name="uniFB51" horiz-adv-x="1824" unicode="&#xfb51;"/><glyph arabic-form="isolated" d="M2123 1298q0-67-496-358h-45q0 5-6 13t-6 23q0 55 203 179l292 174h45q13-14 13-31zM2144 264q0-203-146-365-150-167-346-167-224 0-318 96 27 47 57 47 13 0 59-15t59-15q134 0 254 51 176 76 254 242 13 34 8 44-40-32-57-38-9-3-50-3-133 0-133 164 0 73 36 153 46 103 123 103 81 0 145-125 55-104 55-172zM812 1180q0-20-17-43t-34-23q-10 0-36.5 15t-39.5 15q-14 0-60-45-59-59-81-74-177-126-209-126h-65v34q0 28 153.5 128.5t153.5 134.5q0 9-20.5 55t-20.5 62q0 67 60.5 139t126.5 72q7 0 15-1 33-34 33-46 1-48-4-144 0-3-8-20.5t-8-29.5q0-13 30.5-51.5t30.5-51.5zM802 899q0-46-38.5-111.5t-68.5-70.5q-25-3-81-17-87-27-88-27-48 0-59 33-3 8-3 49 0 59 57 123 11-25 32-72 24 12 50 53 37 57 40 60 14-9 28-42 12-29 23-29 15 0 45 38 36 45 48 54 15-15 15-41zM1293 44q0-82-24-125-52-89-246-171-184-78-313-78-151 0-253 78-116 87-116 240 0 166 158 295h35q12 0 12-24 0-11-34-70-36-66-45-96-3-7-3-49 0-199 292-199 235 0 414 137-48 34-131 50-70 14-141 28-35 9-35 46 0 44 121 108t121 110q0 13-6 26l-102 645q-4 7-4 18 0 65 91 163 35-50 37-106 70-46 70-89 0-13-18.5-40.5t-20.5-37.5q-2-16-2-86 0-13 25.5-194.5t25.5-194.5q0-104-61-230 16-14 52-28 44-15 58-23 43-26 43-103zM1416-365q0-56-172-146-89-42-179-84h-35q-13 13-13 35 0 53 33 72 247 149 301 148h53q12-1 12-25zM1968 328q0 17-5 36t-5 22h-47q-23-22-23-47l23-24zM689 1332q0 18-6 36.5t-6 20.5q-38-18-38-45 0-23 12-24 25 0 38 12z" glyph-name="uniFB52" horiz-adv-x="2154" unicode="&#xfb52;"/><glyph arabic-form="final" d="M4141 1427q0-87-80-153-75-62-155-62-4 0-36.5 2.5t-57.5 2.5q-37 0-69-5v35q-1 20 53 59 30 20 61 41 45 51 143 146 30 27 65 27 32 0 55-34 21-29 21-59zM3690 1887q-18-81-127-152-21-13-182-96-86-45-185-110h-45q-13 14-13 36 0 51 35 73 423 250 453 249h64zM3558 1473q0-71-51-141-55-75-128-83-13-1-43-19t-50-18q-77 0-77 92 0 28 33 97 35 74 58 77 13-41-9-106l27-27q28 16 46 67t55 76q16-8 22-36 6-31-6-50l17-16q25 3 42 52 23 67 25 70 39 0 39-35zM3957 316q0-198-54-281-10 0-36 34 0 145-16 308-11 106-47 334-31 206-31 215 0 70 53 141h37q1-5 52-331 42-272 42-420zM3097 926q0-93-92-93-41 0-77 28.5t-36 58.5q0 26 32.5 67t54.5 41q36 0 77-36.5t41-65.5zM3558 193q5-260-169-260-146 0-226 194-143-174-368-174-138 0-138 113 0 49 33 101h32q13 1 57-25t57-26q70 0 165 41 117 51 117 118 0 13-20.5 136t-20.5 135q0 77 23 122 26 0 33-12 18-74 63-215 25-96 50-193 54-142 158-142 37 0 51 47l-112 762q0 127 75 205 42-16 42-45 0-8-3.5-26t-3.5-27q0-49 73-87 2-13 2-26 0-36-23-90-22-51-19-72zM3332-313q0-44-166-139-144-78-287-158h-46q-13 14-13 36 0 64 90 109l138 62q78 40 227 120h44q13-13 13-30zM2677-348q0-30-32.5-64t-59.5-34q-11 0-47.5 20.5t-49.5 20.5-54-26-54-26q-45 0-81 30-32 27-32 52t34 69 54 44q11 0 47.5-20.5t49.5-20.5 54 31 54 31q29 0 73-43.5t44-63.5zM1888 1206q2-42-63-83-115-59-348-180-212-113-984-569h-36q0 3-5.5 16.5t-5.5 28.5q0 73 217 191 54 38 163 106 289 161 577 322 388 215 431 215h54v-47zM1438 337q0-98-77-98-32 0-73 26-44 29-44 62 0 23 31 63 36 44 66 44 33 0 65-33t32-64zM2636 475q0-38-24-92-27-59-60-79-37-16-103-48-24-11-25-42-7-357-683-490-450-88-722-88-251 0-502 97-307 119-409 326v36q4 0 12 5.5t23 5.5q8 0 87-60 93-69 131-91 77-44 224-81 288-74 577-74 188 0 563 84 407 92 503 177 39 26 77 52 35 25 35 71 0 12-41 101.5t-41 101.5q0 28 18 65 20 44 43 44 11 0 50-36t52-36q88 0 88 78 0 19-6 57.5t-6 54.5q0 45 42 45 41 0 72-84 25-66 25-100zM4038 1384q-9 0-25 13-38-17-56-49 63-16 81 36z" glyph-name="uniFB53" horiz-adv-x="3969" unicode="&#xfb53;"/><glyph arabic-form="initial" d="M3305 1194q1-48-443-311h-44q-13 13-13 40 0 46 32 67 375 240 404 240h64v-36zM3367 192q0-61-130-106-70-18-139-37-46-28-137-67-18 31-7 85-9 12-63 62-36 32-36 63 0 58 113 155 108 95 159 95 42 0 71-27 26-24 26-55 0-46-66-113-77 52-87 52-40 0-62-46 13-12 64-34t69-22q12 0 85 15t85 15q55 0 55-35zM2282 1337q0-25-111-93l-136-78q-154-98-260-150-15 14-15 46 0 48 25 65 163 113 472 278 14-12 25-12v-56zM2682 192q0-127-54-199-10-2-27 8-18 11-19 26-4 93-17 276-11 110-46 361-32 224-32 234 0 51 43 137h37q25-89 60-270 55-514 55-573zM1443 1194q0-24-17-45t-39-21q-12 0-38 15.5t-39 15.5q-14 0-52-43-48-55-63-66-189-146-312-167-13 1-13 25 0 13 155 146 165 142 172 151-3 6-43 54-29 35-29 53 0 50 44 131 51 95 104 95 86 0 86-127 0-124-6-103 6-18 49-60 41-40 41-54zM1473 652q0-34-32-70.5t-59-36.5q-46 0-82 33-31 30-31 59 0 24 22 59 28 43 64 43 18 0 66-30 52-34 52-57zM562 1369q0-60-57-133-61-77-122-77-77 0-77 103 0 46 47 135 52 100 102 100 44 0 78-53 29-44 29-75zM2283 268q0-62-29-120-36-74-100-74-86 0-157 41t-73 41q-3 0-84.5-67t-171.5-67q-62 0-108 30-15 9-102 83-32-30-110-89-44-12-122-56-21-21-54-91-38-78-62-110-83-112-172-152-45-21-131-39-76-15-101-15-74 0-158 27-90 28-129 69l13 26q29 0 103-5t84-5q292 0 476 261-18 20-65 24-33 2-65 5-127 30-127 155 0 80 55 157 59 84 140 84 75 0 109-80 32-72 63-146 64 0 149 43 16 9 73 53 48 37 62 37 24 0 95-56t135-56q96 0 236 174t199 174q55 0 97-118 32-91 32-138zM521 197q0-158-44-204h-36l-115 930q0 45 67 134 13-13 32-35 18-97 51-308 45-313 45-517zM1266 1334q21 40 0 59h-37q0-9-11-26 33-33 48-33zM2138 280q0 11-5.5 34.5t-5.5 34.5h-56l-23-23v-34q29-31 90-12zM459 1340q-5 5-17 11.5t-17 11.5q-22-11-46-58 2 0 20.5-6t36.5-6q23 23 23 47zM1043 169q-21 41-55 58-27 0-27-35 0-13 25-36z" glyph-name="uniFB54" horiz-adv-x="3380" unicode="&#xfb54;"/><glyph arabic-form="medial" d="M5213 1316q0-32-21-59-18-22-36-22t-52 25.5-45 25.5q-12 0-62-60-60-73-83-91-49-37-130-82-113-65-128-74-17 0-35.5 6t-21.5 6q33 64 162 153 150 103 195 158-4 11-46 68-35 48-35 64 0 47 50 124 57 86 113 86 58 0 69-101 3-64 5-127 101-80 101-100zM4383 1365q-9-35-46-99-18-18-125.5-70.5t-131.5-51.5h-64v36q17 14 163 102-21 34-52 34-14 0-58-27-60-39-70-44-15 14-15 35 0 32 42 78 39 45 84 67 9 5 74 5 139 0 199-65zM4353 836q0-36-27-69.5t-55-33.5q-44 0-91 44-42 39-42 59 0 34 36 68 34 34 61 34 36 0 77-34t41-68zM5305-254q0-35-33.5-66.5t-58.5-31.5q-13 0-51 20.5t-52 20.5q-10 0-51-25.5t-56-25.5q-24 0-64 29-44 32-44 58 0 31 33 64t60 33q11 0 48.5-20.5t48.5-20.5q12 0 50.5 30.5t51.5 30.5q31 0 74.5-36t43.5-60zM5325 303q0-277-506-277-82 0-97 4-53 13-79 71-17 36-4 93 10 48-18 79-26 3-46-4-188-72-375-144-226-78-375-78-10 0-38 5t-44 5q-29 0-60-4-13-8-24-24-56-188-179-291-118-100-274-100-102 0-206 27-123 31-152 81 26 46 61 46 5 0 66.5-26t123.5-26q54 0 111 13 101 22 234 147 130 120 130 183 0 6-35.5 54t-35.5 78q0 47 34 98h45q91-102 290-102 90 0 252 41t209 79q0 8-19 20-83 55-135 55-16 0-65-23-78-36-85-39-14 14-14 41 0 59 78 123 75 61 137 61 7 0 142-49 144-51 202-61 86-6 172-13 111-8 119-34-1-65-54-101-40-23-80-45v-29q30-38 82-46 7-1 77-1 211 0 323 79-25 57-62 124-10 19-10 63 0 72 56 103 57-37 95-120 33-74 33-136zM2981 1168q0-20-17.5-43t-33.5-23q-13 0-59 25.5t-59 25.5q-8 0-166-123t-214-122h-43q-12 0-12 24 0 16 120 114 174 143 198 164-11 29-40 53-23 18-23 58 0 50 45 128 52 93 114 93 88 0 88-131 0-31-6-81-5-41-3-47 6-6 70-63 41-37 41-52zM2120 1161l-10-60q-9-30-45-30-21 0-82 41-92-71-183-141-151-115-177-115h-52q-13 13-13 30 0 29 43 57 264 172 264 220 0 7-31 41.5t-31 75.5q0 49 44 127 51 94 110 94 92 0 92-162 0-9-8-108 22-25 79-70zM3615-459q0-70-230-164-176-73-257-87-25 24-25 35 0 54 45 73 412 178 426 178 41 0 41-35zM2623-163q0-36-22-63-24-34-65-34-31 0-117 63-5 39 22 84 29 48 69 48 43 0 81-43 32-36 32-55zM3196 277q0-54-66-84-50-23-113-23-11 0-53 5t-55 5q-9 0-183-46-194-50-271-64-34-6-358-33-18-17-18-26 0-10 20-28 23-20 28-31 25-51 25-135 0-200-169-200-141 0-227 136-26 39-39 135 0 7-21 26-24 20-43 25 0 6-21 48-61 0-181-5.5t-124-5.5q-170 0-246 12-12 3-67 16-46 12-60 12-12 0-57-57-30-14-92-14-13 0-69.5 10t-68.5 10q-7 0-70-60-76-74-137-115-97-66-187-74-6-1-28-9t-35-7h-62l-24 25q52 44 229 143 143 80 178 135 12 20-5 78-2 8-2 20 0 71 62 169 67 104 132 104 11 0 112-72 113-81 152-100 108-53 371-53 250 0 320 33 25 11 71 122 60 144 92 194 62 102 131 102 58 0 96-105 27-76 27-116 0-52-73-222 280 3 617 103 0 18-20 30-72 54-130 54-15 0-62-23-69-33-82-38-15 14-15 41 0 72 93 132 78 52 128 52 44 0 121-39 116-58 126-62 75-30 215-71 46 0 132-7 56-8 56-52zM2805 1339q0 46-46 69-32-54-10-81zM1967 1316q0 34-34 51-27 0-27-35 0-16 21-34 25-21 26-23 0 4 7 15.5t7 25.5zM1978 328q0 36-57 67-59-72-117-172h36q31 10 76 38 62 38 62 67zM2038-172q-117 118-159 116h-45v-34q0-28 68-75 62-43 86-43 19 0 50 36zM778 120q-35 52-73 90h-36q0-10-13-26 16-24 59-40 59-21 63-24z" glyph-name="uniFB55" horiz-adv-x="5340" unicode="&#xfb55;"/><glyph arabic-form="isolated" d="M1577 1372q0-161-198-219-11-3-52-22-33-15-47-15-38 0-65 26t-27 61q0 32 24 87 31 70 73 92 22-19 22-39 0-13-13.5-35.5t-13.5-31.5l27-28q35 14 51.5 75t60.5 79q19-13 20-57 1-21 12-35 30-1 46 47 21 64 32 76h36q12-26 12-61zM777 1498q1-31-381-242-80-44-184-127-1 0-12-6.5t-26-6.5q-17 0-41 24v31q0 44 290 217 282 168 319 168 15 0 23.5-6t11.5-6v-46zM1648 307q0-174-128-174-95 0-158.5 41t-71.5 41q-13 0-51-30-42-33-55-39-67-29-194-37-31-30-51-122-21-100-43-128-141-176-409-176-140 0-228 60-105 72-105 212 0 210 115 321h36q13-13 13-41 0-10-31-93t-31-96q0-189 267-189 98 0 196 35 141 50 141 144 0 11-46 132t-46 134q0 42 45 107 50-18 92-92 35-61 103-61 121 0 203 53 24 15 50 55 35 55 43 64 149 176 211 176 56 0 100-145 33-110 33-152zM1597-190q0-16-29-43t-56-40q-378-177-382-177h-52q-13 13-13 36 0 47 25 61 98 59 263 136 158 74 179 73h65v-46zM573 553q0-34-32-68t-59-34q-36 0-122 62-5 10-5 24 0 37 28 72.5t63 35.5q40 0 83.5-33t43.5-59zM-952 2099zM1493 318v57q2 21-22 44h-34q-45-45-44-59 30-19 100-42z" glyph-name="uniFB56" horiz-adv-x="1665" unicode="&#xfb56;"/><glyph arabic-form="final" d="M5459 1556q0-60-46-126-48-68-111-87-63-8-195-36-19-6-44.5-34.5t-40.5-33.5q-14 14-14 41 0 52 86 150 13-5 24-5 52 0 122.5 106.5t120.5 106.5q27 0 62.5-27t35.5-55zM4547 1730q0-61-60-61-15 0-45 15t-43 15q2 0-134.5-102t-184.5-102h-32l-23 25q93 77 277 236-51 92-51 118 0 55 46 120 53 74 117 74 81 0 81-128 0-27-4-69.5t-4-50.5q0-7 1-11 3-7 34-36 25-25 25-43zM5325 235q0-145-64-205-43 13-45 46-5 118-27 348-68 451-68 471 0 84 65 149 42-16 64-168 75-510 75-641zM4517 1505q0-39-24-93-26-59-61-78-36-13-103-37-4-2-38-22-28-16-40-16-72 0-72 103 0 64 56 113 11-19 42-62 15 15 58 101h36q9-25 39-80 15 20 34.5 60.5t35.5 61.5q37-18 37-51zM4384 809q0-43-33-79-31-34-59-34-41 0-79 39-34 33-34 53 0 29 33.5 71t58.5 42q39 0 78-35 35-32 35-57zM3463 1459q0-66-52-66-12 0-43 20.5t-44 20.5q-12 0-69-57-72-71-102-94-53-40-207-106l-67 14q112 94 338 289-2 3-44 57-28 37-28 55 0 61 47 136 53 84 117 84 37 0 56-15 27-32 26-114-4-59-8-120 30-29 59-57 21-21 21-47zM2868 1396q1-46-197-140l-472-272h-36q0 3-5.5 16.5t-5.5 28.5q0 51 54 83 564 331 597 331h65v-47zM4895 251q0-156-172-226-114-45-268-45l-73 7q-64 6-95 3-21-2-92-12-59-9-74-9h-294q-13 0-93-10t-93-10q-118 0-191 40-68 36-157 144-87-67-206-82-91-8-182-14-15-2-45-34-33-34-45-40-7-3-49-3-126 0-212 33-12 5-52 43-36 35-48 35-11 0-42-25-32-29-49-33-156-44-345-44-156 0-232 44-8 4-52 45-37 34-53 34-8 0-67-40-69-44-110-59-76-29-217-38-35-10-103-24-131-12-236-12-537 0-537 306 0 121 126 255h48v-56q0-14-20-57t-20-55q0-142 193-200 105-30 237-30 199 0 362 37 72 10 143 22 99 20 137 72 2 2 27 67 20 50 51 68h42q27 0 12-68-5-9-9-18-8-16-8-32 0-107 338-107 261 0 340 63 10 7 120 126 63 66 123 66 31 0 75-44 72-73 77-77 26-20 116-47 88-26 127-26 74 0 137 22 87 29 87 86 0 11-4 24l-92 706q-4 4-4 14 0 28 24.5 69.5t45.5 41.5q47 0 75-152 14-105 28-211l20-260q17-200 69-312 29-65 115-82 34-7 128-7 158 0 198 53 27 38 27 187 0 119-54 573-2 15-20 56-17 39-17 52 0 43 25 106 28 70 60 89 24 0 33-13l32-84q19-45 63-68 0-39-24.5-103.5t-24.5-89.5q0-6 19-224 22-236 29-351 83 63 166 124.5t159 61.5q62 0 133-41 87-50 87-123 0-75-92-189 10-6 51-6 75 0 150 19 109 29 106 83l-113 768q0 51 24 110 26 67 64 85 19-19 33-66 16-49 24-59 20-10 55-34 15-26 15-35 0-14-30.5-95.5t-30.5-95.5q0-12 35.5-280.5t35.5-281.5zM2100 481q0-135-47-153l-18 13q-9 123-30 195-16 56-61 121-8 12-67 71-12 12-12 45 0 67 57 67 91 0 142-155 36-110 36-204zM1261 665q0-36-41-77-36-35-51-35-12 0-45.5 20.5t-46.5 20.5-54-31-54-31q-33 0-72 27-45 29-45 65 0 41 30.5 67t71.5 26q12 0 46-15.5t46-15.5q11 0 52.5 36t54.5 36q21 0 64.5-34.5t43.5-58.5zM1200-174q0-58-82-107l-126-60q-108-49-319-150h-33q-14 14-14 41 0 54 44 77 159 74 472 229h45q13-13 13-30zM5346 1503h-48q-28-24-15-49 31 12 63 49zM4414 1910q-25 24-48 24-2-2-2-49 27 0 50 25zM3309 1632q0 11-37 47l-25-25q19-18 48-47 0 10 14 25zM4424 282q-67 46-101 46-53 0-134-47-92-52-142-126h54q33-2 154 39 136 47 169 88zM2694 157q-50 76-88 89-24-25-24-49 55-54 87-54 23 0 25 14z" glyph-name="uniFB57" horiz-adv-x="5339" unicode="&#xfb57;"/><glyph arabic-form="initial" d="M1223 1707q0-58-597-459h-35q-13 13-13 35 0 52 99 123 69 44 139 88 118 86 349 244h45q13-14 13-31zM1571 229q0-42-14-130-17-114-41-130h-36l-134 929q-2 6-2 16 0 94 58 128 45-24 53-66 31-168 74-457 42-268 42-290zM1694-268q0-31-24-48-28-10-154-61-107-44-115-44h-43q-1 2-1 4 3 30-5 91 0 3-16 31-11 19-11 37 0 52 64.5 118.5t115.5 66.5q20 0 65-43v-58q-32-33-71-33-25 0-35 11l-16-16q36-36 77-36 36 0 155 10 14-13 14-30zM1171 3q0-180-267-286-196-77-362-77-140 0-237 84-106 91-106 239 0 75 46 177 49 108 111 154h35q13-13 13-40 0-13-46-110t-46-110q0-122 120-185 86-45 182-45 212 0 415 139-33 52-131 52-15 0-45.5-1t-45.5-1q-45 0-75 7v53q-1 23 90 82 104 67 112 76 33 40 33 63 0 6-96 567-17 18-44 61-4 6-4 63 0 127 76 210h35q6-47 34-125 11-15 42-32 40-22 48-28 4-46-28-100-32-57-32-83 0-135 32-250 32-110 32-192 0-40-10.5-107t-11.5-110q40-13 106-53 25-25 25-92zM1796-412q0-42-62-75l-94-40q-19-9-268-120h-44q-13 14-13 31 0 23 30 55 25 24 45 33 338 148 341 148h52q13-14 13-32z" glyph-name="uniFB58" horiz-adv-x="1588" unicode="&#xfb58;"/><glyph arabic-form="medial" d="M2954 1483q0-101-111-180-94-66-166-66-10 0-26.5 5t-29.5 5q-40 0-63-26.5t-34-26.5-31 10q17 44 33 88 21 49 62 74 28-4 70 5 22 18 70 89 51 76 84 110 16 15 50 15 40 0 66-31t26-71zM2862 182q0-83-44-153h-47l-145 947q13 103 66 148 37-17 43-56 35-203 69-406 58-358 58-480zM1899 1467q0-66-56-66-19 0-60 20-109-121-244-200-24-13-237-116h-37q29 62 188 171 183 126 231 181l-68 68q-14 14-14 65 0 52 44 127 54 93 125 93 74 0 79-125v-143q15-17 29-35 20-23 20-40zM1981 1217q0-38-23-95-26-66-62-87-25-3-82-17-31-11-60-39-20-19-65-19-33 0-76 32-4 139 56 163 7-4 22-34 13-27 29-27 25 0 55 64l36 78q29-15 55-82 29 5 43 54 16 61 36 80 36-18 36-71zM1951 525q0-35-32.5-71t-60.5-36q-33 0-102 62-4 14-4 30 0 42 27 77.5t59 35.5q30 0 71.5-33t41.5-65zM2422 229q1-9 1-20 0-76-46-157-56-95-135-95-42 0-137 46t-104 46q-12 0-56-28-53-34-69-40-57-7-152-47-26-21-72-101-54-91-106-148-63-68-183.5-128t-190.5-60q-72 0-215 64-135 60-163 95 35 35 66 35 12 0 127.5-31t128.5-31q204 0 456 263-10 34-70 36-45 0-90 1-44 12-64 32-53 53-53 134 0 75 50 156 58 95 135 95 68 0 129-100l82-146q162 23 221 53 8 4 56 41 37 29 54 29 13 0 123-46t123-46q36 0 42 17-1-3-1 29 0 43-27 245-32 251-69 378-8 26-31 73-17 32-17 72 0 101 86 199 32-10 42-61 4-33 8-65 8-14 26-46 15-6 41-16 22-15 22-42 0-15-50-144zM999 167q0-206-167-354-159-143-361-143-188 0-353 136v36q13 13 46 13 7 0 77-25.5t174-25.5q97 0 167 23 80 26 189 117 125 104 125 176 0 41-24 74-35 43-69 85-40 49-40 82 0 7 32 108h43q27 0 86-80 53-72 60-98 15-53 15-124zM712-478q0-34-71-86-50-38-135-83-41-22-83-44-147-88-219-120-25 25-25 41 0 55 141 136l158 82q63 40 186 109h35q13-13 13-35zM2851 1450h-37q-22-16-30-26-10-16-12-43 29 16 41 26 26 19 38 43zM1765 1597v36q-32 33-36 33-24-24-24-35 0-34 60-34zM1510 114q-48 47-68 57l-13-47q14-10 81-10z" glyph-name="uniFB59" horiz-adv-x="2871" unicode="&#xfb59;"/><glyph arabic-form="final" d="M5200 1243q0-46-219-174-159-87-317-174h-45q-13 13-13 41 0 53 44 77 469 261 495 260h42q13-13 13-30zM4647 1411q0-89-84-166-81-74-166-74-11 0-37.5 10.5t-39.5 10.5q-12 0-40.5-15t-38.5-15q-2 0-3 2-10 10-10 33 0 25 30 65.5t55 48.5q20-4 60 5 14 9 81 100 53 72 101 72 27 0 59.5-24.5t32.5-52.5zM4125 1915q0-41-26.5-67t-170.5-106q-116-65-309-161h-34q-13 13-13 35 0 62 135 134 87 39 175 78 69 32 208 111 5-5 17.5-12t17.5-12zM4002 1479q0-33-31.5-93t-53.5-69q-37-10-113-37-90-37-88-37-62 0-62 77 0 55 55 117 2 0 53-51 14 21 40 66.5t41 66.5q23-20 45-83 28-2 42 38 6 28 13 55h36q23-23 23-50zM5241 198q0-150-100-290-110-155-292-218-39-13-171-13-199 0-266 66 35 36 66 36 13 0 64-5t64-5q162 0 357 153 194 151 178 257-20-8-52-40-23-23-73-23-80 0-126 68-38 59-38 143 0 52 40 127 50 92 119 92 49 0 106-45 124-102 124-303zM4483 234q0-87-24-196-5-12-21-34-51 28-55 56l-104 809q0 135 44 169 28 0 44-24 23-176 57-513 4-50 32-156 27-103 27-111zM3521 967q0-43-36-76-31-27-56-27-51 0-93 33-40 30-40 59 0 34 32 68t60 34 80.5-34 52.5-57zM4023 219q0-135-66-243-27-43-109-43-104 0-158 67-46 68-92 137-88-95-182-131-84-33-217-33-127 0-169 53-5 100 44 162 103-51 145-51 89 0 200 35 147 47 143 118l-62 319q12 30 34 80h36q41-61 49-116 71-467 245-467 28 0 67 37-6 74-96 684-3 19-26 68-22 47-22 61 0 43 25 104 25 65 60 101 17 0 43-16 3-5 18-111 15-15 43-42 16-16 16-52 0-12-20.5-58t-20.5-59zM3675-277q0-55-235-178-183-96-293-134-15 11-24 11v54q-2 34 32 53 154 74 462 229h34q24-24 24-35zM2958-241q0-37-34-70t-63-33q-14 0-44 20.5t-43 20.5-51.5-36-51.5-36q-33 0-75 41-38 36-38 52 0 35 32.5 68.5t60.5 33.5q16 0 44-15.5t38-15.5q13 0 54 41t53 41q20 0 69-46.5t49-65.5zM2210 1383q-13-90-86-135-71-31-142-63-349-177-699-355-420-215-704-385h-34q-13 13-13 30 0 76 35 102 108 78 273 162l278 138q343 177 1025 519 29-2 67-13zM1646 320q3-33-23-74-31-48-73-48-33 0-72 26-45 27-45 62 0 21 29 62 33 45 62 45 21 0 122-73zM2906 490q0-57-31-133-29-71-53-83-51-9-143-48-17-13-40-74-26-70-55-105-147-181-531-272-339-79-439-93-113-16-381-16-323 0-519 61-270 83-529 321v58q134-63 374-171 68-29 214-61 245-54 337-54l419 10q135 21 271 40 304 53 494 124 264 97 264 215 0 11-30.5 97.5t-30.5 96.5q0 36 45 102 29-28 96-80 20-11 69-11 23 0 77 18v37q0 12-25.5 53.5t-25.5 55.5q0 45 44 112 54-18 93-85 36-61 36-115zM4533 1354h-37l-32-38h47q22 19 22 38zM5076 302v36q-31 58-77 54-24-23-24-40 0-14 16-36 21-25 45-25 15 0 25.5 5.5t14.5 5.5z" glyph-name="uniFB5B" horiz-adv-x="5257" unicode="&#xfb5b;"/><glyph arabic-form="initial" d="M3013 1642q0-32-204-166-191-124-303-176-14 15-14 46 0 53 43 83 397 271 424 269h54v-56zM2440 1602q0-71-238-213-23-14-236-170h-35q-13 13-13 40 0 62 225 214 194 130 283 165 14-14 14-36zM2266 819q0-32-30.5-67t-66.5-35q-52 0-107 52-2 40 22 83 28 49 64 49 16 0 65-29 53-32 53-53zM3700 1393q0-20-17-58-18-40-36-52-58-20-176-68l-442-184q-273-113-312-176 255-237 296-286 144-165 144-313 0-100-35-172-23-45-153-77-147-38-288-38-137 0-230 30.5t-134 30.5q-9 0-95-24-96-27-134-33-38 1-112-7-21-6-38-46l-24-60q-162-310-415-310-74 0-171 32-100 33-147 74l13 27q32 0 109.5-10.5t87.5-10.5q56 0 163 34 41 13 150 96 132 102 132 163 0 14-8 16-59 50-66.5 61.5t-7.5 49.5q0 71 67 71 13 0 66.5-10t66.5-10q147 0 223 43 16 9 14 77-3 97-4 90 6 71 58 145 58 85 124 85 63 0 110-65 42-57 49-124 5-37-14-213 17-11 55-25 90-13 117-13 104 0 219 23 160 32 160 90 0 31-115 166-105 123-139 148-5 4-163 77-44 21-44 90 0 104 85 253 25 43 71 70 198 114 472 225 389 158 393 158h62q13-13 13-40zM1723 1240q-32-8-66-1-44 10-35 10-14 0-140-102-154-125-213-164h-35q-12 2-12 25 0 12 143.5 144t143.5 143q0 13-18 27-14 12-29 23-25 25-25 73 0 52 46 125 53 85 112 85 85 0 85-106 0-14-1.5-44t-1.5-46q0-92 46-125v-67zM1262 1334q2-26-45-73-53-53-172-95-113-40-197-40-11 0-83 10.5t-85 10.5q-36 0-59-42-25-44-64-49v64q0 24 43 95 47 75 75 75 9 0 90-25.5t99-25.5q75 0 187 46 105 42 154 86h57v-37zM475 1331q0-63-52-127-53-68-112-68-82 0-82 113 0 60 29 131 41 95 109 95 54 0 84-55 24-41 24-89zM1396 179q0-140-64-247-60-98-224-245-15-13-106-34-96-21-143-21-52 0-215 13-21 1-107 29v38q47 15 107 18 186 12 326 48 88 22 207 155 114 127 127 204l-16 16q-49-71-128-71-73 0-112 71-31 58-31 139 0 64 36 132 46 88 118 88 95 0 168-148 57-117 57-185zM536 235q0-24-14-129-14-27-38-74-8-1-26-12l-117 846q4 10 14 110 7 67 53 99 38-18 42-56zM1599 1424q12 24-10 70h-36q-23-23-23-37 33-33 69-33zM2420 302q0 18-23 54-27 43-59 43-18 0-40-33t-22-54q0-22 23-44t54-22q67 0 67 56zM382 1281v36l-23 23h-35q-23-23-23-46l23-24h28q25 0 30 11zM1233 303q-46 45-62 45-26 0-52-57 36-35 62-35 28 0 52 47z" glyph-name="uniFB5C" horiz-adv-x="3176" unicode="&#xfb5c;"/><glyph arabic-form="isolated" d="M5489 1393q0-101-117-176-96-60-170-60-10 0-31.5 5t-34.5 5q-15 0-49-30h-48v65q0 15 31.5 45.5t54.5 38.5q27-6 80 6 24 16 55 74 37 69 56 92 31 37 81 37 34 0 66-44 26-37 26-58zM4670 1746q-12-29-36-66-218-152-490-287h-34q-13 13-13 41 0 41 26 56 449 281 482 281h42zM5356 261q0-56-43-199h-37l-124 787q-1 6-1 14 0 72 56 130 41-6 54-80l16-118q22-92 55-277 24-228 24-257zM4527 1300q0-141-178-188-12-3-49-22-30-15-45-15-66 0-66 92 0 41 34 91 9 0 32.5-20t35.5-20q21 0 43 45 27 55 44 68 7-3 53-72 22 17 39 54 16 34 43 49 14-28 14-62zM3606 568q0-45-25-117-25-77-52-103-22 17-22 63 0 16 3.5 50.5t3.5 49.5q0 21-4 35-11 38-62 136-47 89-47 101 0 17 17 42t34 25q61 0 113-136 41-107 41-146zM2776 1229q0-37-34-72-33 11-94 51-49-56-151-150-274-198-350-198-15 0-23.5 6.5t-11.5 6.5q47 62 197 171 159 117 232 200-14 33-58 63-35 23-35 65 0 48 47 128 56 97 123 97 60 0 83-65 9-28 4-91-5-70 2-104 3-15 37-57 32-38 32-51zM4936 282q0-158-151-236-110-56-253-56l-1121-62q-285 0-406 24-73 14-188 84-108 66-117 66-12 0-60-23-57-28-83-36-88-17-255-66-17-8-37-44-32-58-36-64-63-88-107-140-83-97-137-115-133-44-181-44-141 0-378 115v38q3 0 20 5.5t30 5.5 107.5-20.5 107.5-20.5q124 0 251 68.5t210 182.5q-25 26-97 41-82 16-108 33-51 32-51 110 0 75 56 166 65 105 143 105 71 0 109-66 24-62 48-123 27-67 68-67 73 0 272 89-35 53-140 45-14 13-14 35 0 77 104 138 86 51 152 51 93 0 168-41 88-47 88-127 0-48-23-72-30-26-58-51 97-84 293-108 81-10 264-10 28 0 88.5-1t90.5-1q170 0 249 33 110 47 110 169 0 11-15 83-18 85-24 121-14 109-46 327-6 31-33 117-26 77-26 89 0 142 86 199 25-3 35-46 7-34 15-70 23-18 55-61 5-15-3-52-11-49-11-53-2-27 21-244 1-20 25-160 18-111 18-176 0-28-2-52 1-9 13-27 4 2 181 141 106 84 177 84 37 0 102-31t96-62q7-16 7-37 0-112-108-234 5-5 36-5 64 0 152 24 119 33 119 84 0 30-35 222-42 227-81 349-3 10-28 51-20 34-20 58 0 41 29.5 104.5t66.5 99.5h36q4-37 15-116 3-23 63-70 3-8 3-17 0-16-13-52t-12-56q3-106 41-328 37-216 37-214zM2674 819q0-41-32.5-77t-64.5-36q-22 0-107 53 3 142 91 142 30 0 68-24 45-26 45-58zM1260 1240q-25-22-45-22-11 0-37.5 15.5t-39.5 15.5q-14 0-59-46-68-66-76-73-55-46-148-102t-112-56h-52l-13 13v28q170 121 337 272-81 57-81 108 0 46 50 130 57 95 113 95 91 0 91-150 0-49-6-70 33-56 78-78v-80zM1179 763q0-46-33-74-28-24-59-24-13 0-46.5 15.5t-45.5 15.5q-13 0-54-36t-54-36q-24 0-74 32-54 35-54 61 0 24 40 69 38 43 53 43 10 0 48-20.5t54-20.5q12 0 56 36t56 36q45 0 81-33 32-31 32-64zM1630 317q0-47-35-160-10-33-50-51-314-146-791-146-144 0-259 49-166 72-166 226 0 37 41 123 45 97 87 113 25-7 25-29 0-11-11.5-51t-11.5-67q0-22 6-41 43-160 401-160 119 0 154 6 131 18 261 36 155 25 237 86-8 33-52 118-41 80-41 91 0 32 54 113 44-10 98-105 53-92 53-151zM5364 1361q-52-22-68-59h36q34 17 32 59zM4475 304q-50 34-107 34-83 0-250-173h55q20-1 114 28 99 29 155 56 33 15 33 55zM2623 1440q-24 24-38 24-5-6-17-24t-17-23q46-23 58-35zM1097 1425v36q-13 13-38 13-16-34 11-61 9 0 27 12zM2121 169q-13 26-44 55h-37q0-5-5-18.5t-5-18.5q9-5 37.5-22t39.5-22q9 9 14 26z" glyph-name="uniFB5E" horiz-adv-x="5364" unicode="&#xfb5e;"/><glyph arabic-form="final" d="M6210 1148q0-21-17.5-44t-33.5-23q-13 0-44 20.5t-43 20.5q-14 0-67-46-75-67-84-73-72-54-238-117l-46 12v38q107 71 328 244 0 7-4 16-22 21-44 41-15 14-15 59 0 46 54 129 63 96 126 96 62 0 62-124 0-28-3.5-73t-3.5-55q0-13 3-16 20-23 41-45 29-34 29-60zM5431 1364q-10-27-20-55-21-43-53-61-155-86-209-84h-85v37q45 25 143 90-24 25-57 25-23 0-124-50-14 1-14 25 0 29 44 76 40 43 71 58 9 5 54 5 44 0 131.5-23.5t118.5-42.5zM5125 850q0-37-43-69-37-27-65-27-34 0-73 22-44 26-44 60 0 36 34 69t62 33q31 0 78-30 51-31 51-58zM6230-234q0-45-43-74-34-23-64-23-11 0-49.5 15t-53.5 15q-12 0-58.5-30.5t-59.5-30.5q-37 0-77 44-35 38-35 58 0 25 43 70 41 43 55 43 12 0 48-30.5t48-30.5q13 0 56.5 35.5t56.5 35.5q27 0 80-37t53-60zM6220 283q0-45-28-117-32-83-68-96-85-29-185-47-205-37-308-37-190 0-190 215 0 28 3 62h-77q-158-65-471-172-6-2-121-12-99-9-155-36-19-8-30-47-16-57-23-68-93-170-177-234-88-66-228-66-209 0-377 115v37q19 2 37 2 45 0 116-15.5t117-15.5q92 0 213 43 64 22 158 122.5t94 145.5q0 13-33 54-49 57-56 67-2 12-2 33 0 31 21 53.5t45 22.5q4 0 74-38 59-33 146-33 90 0 204 27 133 32 195 81-9 14-46 31-35 14-46 14-13 0-69.5-20t-70.5-20h-64v54q0 56 94 117 85 54 136 54 3 0 206-80 118-46 228-54 157-10 164-11 0-4 5.5-14.5t5.5-25.5q0-46-46-82-39-28-77-56 44-63 86-75 10-1 104-1 72 0 286 33 50 8 87 43-10 30-54 116-38 76-38 89 0 27 19 64 22 44 48 44 56 0 107-125 41-100 41-141zM3742 1076q0-21-17-44t-34-23q-13 0-51.5 20.5t-50.5 20.5q-13 0-64-47-63-59-82-72-70-49-247-136h-45q-13 1-13 25 0 14 127 110 162 121 211 166-52 51-56 57-15 21-15 56 0 39 45 125 58 105 123 105 85 0 85-113 0-36-10-92-8-49-6-53 6-6 65-55 35-29 35-50zM4541-465q0-55-44-78-104-57-268.5-133t-184.5-76q-14 0-22.5 6.5t-12.5 6.5v43q0 37 183 121 243 109 291 141h45q13-14 13-31zM2637 1460q0-47-193-166l-344-202h-34q-13 13-13 35 0 55 201 177 163 93 325 186h44q14-13 14-30zM3691-183q0-29-33-72-35-46-64-46-31 0-74.5 35.5t-43.5 62.5 26 64q30 43 66 43 19 0 69-31 54-35 54-56zM4100 286q1-25-53-72-19-3-94-3-14 0-54.5 5t-54.5 5q-58 0-310-89-75-18-152-36-94-26-129-88-10-31-38-91-200-320-450-320-97 0-231 47-143 49-143 94 22 13 62 13 12 0 114.5-20.5t115.5-20.5q58 0 162 32 29 9 134 82 128 90 128 136 0 37-92 59-104 24-111 33-35 41-41 64-2 5-2 59 0 81 51 159 59 92 144 92 76 0 123-88 71-130 78-138 224 42 301 98-52 47-72.5 57t-71.5 10q-14 0-75-17-75-20-95-24-14 14-14 30 0 18 31 67t63 81q37 37 85 43 10 4 41 4 35 0 172-66 159-76 188-86 99-21 290-65v-46zM2349 927q5-13 5-27 0-40-30-78t-61-38q-44 0-118 52-1 48 28 88 33 44 85 44 47 0 91-41zM1807 1137q0-66-61-66-10 0-36.5 15.5t-40.5 15.5q-299-257-370-256h-64v38q119 86 337 264-22 11-60 40-33 32-33 72 0 47 65 136 70 97 128 97 11 0 20-3 55-53 55-111 0-22-10.5-67.5t-8.5-69.5q79-87 79-105zM2576 338q0-157-104-233-79-59-236-77l-258-16q-14-5-37-21 50-58 50-158 0-91-41-154-45-72-127-72-141 0-227 115-20 26-79 174-3 6-45 11-50 69-69 69-13 0-128-10.5t-128-10.5q-11 0-50 10.5t-53 10.5q-36 0-64.5-102.5t-83.5-102.5q-47 0-97 83-41 67-44 96-1 43-6 131-9 17-37 17-71 0-166-55-49-27-57-63-2-11-2-81l50-583q0-67-11-127-6 0-24-5.5t-23-5.5q-28 48-31 86-54 623-54 589 0 186 70 277 84 110 293 135 14 1 50.5 34.5t47.5 33.5 75-71q72-79 107-101 55-32 243-32 18 0 68-4 41-4 67-2 37 3 67.5 18t49.5 76q16 52 33 103 25 58 79 140 84 130 138 130t91-115q27-83 27-131 0-94-82-210 15-15 41-15 28 0 218 29 221 35 338 65 18 5 47 34-15 36-77 130-55 82-55 95 0 36 25 77t46 41q73 0 175-252zM6066 1330l-14 48q-5-5-23.5-17.5t-23.5-18.5q22-22 22-35 17 0 39 23zM3568 1271q-10 11-12 24h-37l-12-29q0-18 20-31 18-9 29-9zM3077 194q-17 23-33 46-19 21-46 21-24-23-24-37 48-54 103-30zM1653 1298v46q-13 13-37 13-33-33-33-48 46-23 70-11zM1787 303q0 8-17 40-20 39-40 52-38-31-74-103-36-68-36-100 28 5 89 36 78 41 78 75zM1878-181q-95 95-199 95-13 0-24-2 9-46 78-91 62-40 100-40 18 0 32 16 13 13 13 22z" glyph-name="uniFB5F" horiz-adv-x="6225" unicode="&#xfb5f;"/><glyph arabic-form="initial" d="M2170 1254q0-131-177-193-8-3-60-28-41-20-55-20-66 0-66 82 0 60 55 133 8-3 53-71 24 41 80 123 21-13 35-34 20-29 28-38 22 11 46 42 28 36 46 50 15-15 15-46zM1351 1402q0-76-125-148l-164-80q-296-174-891-536-19-12-58-12 0 3-5.5 9t-5.5 20q0 24 30 73 29 47 44 56 1088 649 1110 649h52q13-13 13-31zM2119-127q0-50-44-74-417-229-444-229h-41q-13 14-13 36 0 50 43 73 11 5 251 135 157 84 173 83h63q12-1 12-24zM2170 322q0-169-133-169-58 0-129 24-5 2-38 21-28 17-43 17-14 0-34-21-17-19-35-37-35-32-108-42-101-14-108-16-24-13-35-44-67-203-327-309-201-84-428-84-100 0-228 39-130 40-215 98-51 34-81 81-116 175-115 208v64h34q9 1 72-72 75-87 116-119 37-16 102-47 152-77 382-77 155 0 330 48 264 73 264 212 0 11-36 91t-36 93q0 29 19 66 22 42 47 42 13 0 48-40 46-52 58-61 28-22 109-22 92 0 175 85 13 14 123 158 65 85 112 85 52 0 100-125 38-102 38-147zM870 506q0-26-23-62-28-45-64-45-31 0-74.5 33t-43.5 54q0 18 29 65 34 53 63 53 37 0 75-36t38-62zM2006 362q-23 46-49 46l-11-48q57 0 60 2z" glyph-name="uniFB60" horiz-adv-x="2177" unicode="&#xfb60;"/><glyph arabic-form="medial" d="M3032 1484q0-104-105-171-84-54-162-54-10 0-35 10.5t-36 10.5q-6 0-67-31-15 14-15 36 0 67 95 113 16 2 41 6 7 7 94 102 56 60 93 60 26 0 61-26 36-29 36-56zM2919 374q0-92-24-238-10-16-30-43-10-2-26 9-19 11-20 26 0 101-16 286-99 563-99 630 0 53 55 133 51-7 65-96 95-654 95-707zM2090 1516q0-15-23-62h-53q-10 0-35 20.5t-38 20.5q-12 0-66-53-63-63-84-77-37-24-227-106l-77 14q23 33 192 139 155 97 155 129 0 8-25.5 48t-25.5 59q0 51 50 135 59 100 124 100 75 0 75-107 0-33-7.5-88t-7.5-68q0-11 3-14l42-46q28-30 28-44zM2100 1223q-15-43-22-60-19-39-42-54-37-24-114-46-68-19-93-19-57 0-57 82 0 68 46 113 20-10 44-52h26q21 36 74 103 10-26 41-72 27 30 83 92zM2090 655q0-42-37-79-34-34-60-34-42 0-76 35-31 30-31 58 0 40 28 71t58 31q35 0 77-32 41-29 41-50zM2520 333q0-272-195-272-69 0-127.5 36t-87.5 36q-11 0-65-36-64-41-91-54-51-11-132-46-21-15-42-60-30-63-33-68-154-242-347-285-58-14-99-14-90 0-221 34-101 25-137 84l13 25q13 1 26 1 36 0 103-10.5t98-10.5q145 0 250 55 120 62 237 216-24 23-79 25-77 3-81 4-116 27-116 155 0 75 56 167 63 104 138 104 78 0 118-63 26-59 51-118 29-64 77-64 63 0 178 66.5t129 66.5q11 0 109-41t111-41q56 0 56 77 0 273-105 623-3 8-27 68-11 27-11 66 0 126 87 200 24-12 31-63 8-60 17-72 26-37 55-52 2-27-12-90.5t-11-95.5q16-72 44-215 35-215 35-338zM1046 215q0-51-35-150-33-94-112-185-85-97-184-142-51-24-171-24-71 0-170 25-116 30-158 71l12 26q18 6 40 6 24 0 74-13t74-13q25 0 142 23t252 148q133 123 133 202 0 35-43 76-61 59-76 86-3 5-3 53 0 69 34 97 83-13 143-128 48-94 48-158zM922-467q-40-56-205-131-131-54-261-108-15 14-15 40 0 62 102 112 58 22 117 45 78 34 238 100 14-12 24-12v-46zM2918 1432h-47q-22-21-22-39h36q33 31 33 39zM1957 1682v38q0 16-7 19-2 2-5 1h-37l-22-23v-35q23-23 47-23zM1639 178q-25 78-71 78-20 0-35.5-20.5t-15.5-38.5q33-33 76-33 32 0 46 14z" glyph-name="uniFB61" horiz-adv-x="2927" unicode="&#xfb61;"/><glyph arabic-form="isolated" d="M1266 1539q0-28-228-174-164-103-328-207h-47v64q0 42 268 193 104 65 310 182 15-12 25-12v-46zM1840-225q0-15-20-39.5t-35-29.5q-141-37-297-114h-35q-13 22 4 78 2 4-6 10-11 9-11 23 0 85 44 162 54 95 140 95 36 0 82-43v-69q-37-32-55-32-14 0-34 15t-34 15-41-25q32-36 98-36-1 0 66 3 58 3 90 1 44-2 44-14zM1327 111q6-28 6-55 0-184-253-301-201-93-387-93-149 0-264 76-135 88-135 242 0 168 156 336h37v-67q1-8-45-87t-46-101q0-19 33-84 35-69 127-114 76-37 137-37 122 0 286 48 167 50 216 103 3 22-38 30-110 22-235 27-24 15-24 48 0 61 87 94 103 40 114 57 24 35 24 79 0 12-31 241-35 261-44 342-3 23-26 88-22 61-22 76 0 40 26 101 28 68 62 89l16-13q-5-27 1-83 10-26 53-55 37-26 37-59 0-13-20.5-64t-20.5-64l28.5-237t29.5-310q0 20-25-171 44-21 140-82zM1942-373q-12-32-44-74-317-157-351-156h-65v44q-1 34 33 53 77 44 212 102 130 56 150 56h41zM1739 280q-9-98-14-123-19-82-65-96l-136 924q-7 94 44 149h37z" glyph-name="uniFB62" horiz-adv-x="1759" unicode="&#xfb62;"/><glyph arabic-form="final" d="M5570 1581q0-79-107-152-92-63-144-63-12 0-36.5 5t-35.5 5q-29 0-59-30h-48v44q-1 22 33 61 31 35 54 45 26-3 68 5 24 15 49 55 31 50 45 64 53 53 104 53 77 0 77-92zM4525 1770q0-21-19.5-43.5t-36.5-22.5q-14 0-42.5 15t-39.5 15q-10 0-64-58-67-69-97-92-42-31-240-105-14 1-14 25 0 26 98 93 59 38 119 77 90 71 90 96 0 13-30.5 53.5t-30.5 54.5q0 43 47 122 54 92 112 92 76 0 76-131l-7-97 50-48q29-29 29-46zM5436 337q-8-99-14-123-19-83-65-97l-136 926q-7 92 45 147h36zM4556 1534q0-104-74-175-11-11-51-20-51-13-62-18-90-37-95-37-77 0-77 87 0 90 58 107 14-26 50-71 30 45 91 132 9-4 54-71 12 8 68 92 38 0 38-26zM4454 833q0-40-44-74-37-28-59-28-36 0-71 36-31 33-31 61 0 27 29 66 32 42 63 42 26 0 69.5-43t43.5-60zM3521 1408q-4 0-15-5.5t-25-5.5q-13 0-46.5 30.5t-45.5 30.5-72-60q-80-80-104-100-55-45-197-116h-34q-13 13-13 30 0 23 317 283-14 27-48 72-13 18-13 55 0 52 54 129 61 86 125 86 73 0 73-117 0-37-8-94t-8-62 1-6q26-38 59-73v-77zM2846 1557q-12-27-22-53-20-46-52-63-141-76-283-152-177-96-281-168h-45q-14 13-14 40 0 59 137 137 71 35 143 70 100 59 201 117 138 80 191 85 15-13 25-13zM4985 316q0-56-32-129-34-76-72-98-63-37-135-51-97-20-289-38-158-16-194-16h-275q-10 0-147.5-15.5t-150.5-15.5q-88 0-180 25-106 27-129 70-14 34-50 99-34-27-110-68-74-24-150-24-11 0-49 5.5t-48 5.5q-44 0-58-25-20-37-52-54-26-14-105-14-114 0-197 34-14 5-55 40-35 28-50 28-8 0-67-30-62-33-91-38-111-23-298-23-12 0-43.5-1t-49.5-1q-208 0-297 145-118-85-223-120-69-23-269-53-209-31-316-31-142 0-278 46-218 74-218 235 0 146 125 301h48q-50-179-50-199 0-122 171-181 111-39 218-39 157 0 401 44 268 48 303 97 23 47 87 145h46q7-19 0-61-8-52-8-56 0-118 328-118 68 0 199 10 182 13 223 33 28 14 87 79 70 77 97 98 43 36 100 36 27 0 83-45 74-60 118-84 86-45 188-45 236 0 236 128l-72 696q0 65 44 128h36q41-99 62-308l28-352q25-268 74-327 47-57 238-57-18 0 49-7 38-4 66 9 43 20 117 109 7 24 23 79l-123 827q-1 8-1 16 0 83 66 164h35q12-39 35-105 4-10 34-41 26-29 26-43 0-13-20.5-79t-20.5-80q0-78 29-281t29-268q0-31-5-50-9-43 5-76 293 215 346 215 83 0 150-37 81-44 81-122 0-65-72-204 6-6 41-6 67 0 155 27 103 31 118 73 3 9 3 54 0 12-19 109-23 118-29 162-22 142-48 296-6 38-33 126-24 78-24 90 0 50 25 119 29 76 63 91 31-20 31-49 0-5-1-16.5t-1-18.5q0-32 18-61 10-19 43-36 41-19 46-26 0-34-30-95.5t-30-76.5q0-10 19-115 23-118 28-155zM2099 603q0-109-48-138-16 76-58 208-15 31-66 105-43 62-43 76 0 38 45 72 70-34 121-140 49-99 49-183zM1177 680q0-23-32.5-68t-54.5-45q-13 0-56.5 25.5t-56.5 25.5q-12 0-61-40.5t-62-40.5q-31 0-72 27-45 32-45 64 0 36 34 69.5t63 33.5q13 0 54-20.5t54-20.5q12 0 58.5 41t58.5 41q33 0 75.5-36.5t42.5-55.5zM1248-196q0-31-236-159-230-123-241-121h-54v55q-1 32 32 52 392 231 435 229h64v-56zM5448 1550q-51-21-51-40h37q23 23 14 40zM4360 1948h-38q0-29 30-50 8 11 8 50zM3399 1635v55q-13 13-38 13-34-33-34-46 0-24 12-24 38-19 60 2zM4525 286q-139 56-169 56-39 0-132-59-99-64-118-114h36q96 18 191 35 121 29 192 82zM2733 161q-67 99-92 99-16 0-33.5-21.5t-17.5-36.5q55-55 107-55 15 0 23.5 7t12.5 7z" glyph-name="uniFB63" horiz-adv-x="5443" unicode="&#xfb63;"/><glyph arabic-form="medial" d="M5270 1674q0-9-34-77h-32q-11 0-51.5 31t-51.5 31q7 0-116-101-131-109-232-145l-67 14q46 46 197 170 121 99 121 113 0 10-26 55t-26 63q0 34 44 114 53 95 105 95 81 0 81-125 0-34-6-84-7-46-7-50l60-54q41-37 41-50zM5351 1276q-19-52-89-68-82-18-105-47l133-915q-7-91-15-120-15-62-54-74l-156 956q16 45 43 140-25-7-53-22-45-17-59-20-2 26-6 74-18 15-57 50-4 7-4 16 0 52 95 138 88 80 118 80 32 0 64.5-25.5t32.5-56.5q0-17-22.5-39t-39.5-22q-14 0-34 10t-32 10q-17 0-46-26 20-35 82-35 13 0 66.5 10t66.5 10q29 0 71-24zM4727 1029q0-73-51-135-53-65-118-65-87 0-87 93 0 37 50 129 58 106 109 106 45 0 73-43 24-38 24-85zM4328 1720q0-58-189-164l-388-214h-45q-13 13-13 35 0 53 33 72 186 99 554 302 48 0 48-31zM4942 256q0-150-100-306-112-175-273-213-11-3-114-3-201 0-312 76 36 36 62 36 13 0 69-10t69-10q139 0 284 102 159 111 223 281l-15 16q-45-72-129-72-66 0-106 44-36 41-36 105 0 85 39 167 51 104 134 104 106 0 164-135 41-96 41-182zM3847 942q0-91-169-151-121-44-190-44-11 0-85 15.5t-84 15.5q-15 0-56-40-57-54-67-62-15 1-15 25 0 41 53 124 56 86 90 86 13 0 95-20.5t94-20.5q58 0 152.5 33t143.5 69q38 0 38-30zM3693 451q0-18-17-77-21-67-39-87-17 10-27 74-7 47-13 93-9 38-47 98-31 51-31 88 0 42 35 77 58-21 102-121 37-84 37-145zM3437-249q-15-34-55-76-124-42-382-135-2 7-11 23 1-1 29 83-31-2-31 22 0 33 2 29-10 54 1 75 31 65 85.5 110.5t105.5 45.5q35 0 82-42v-68q-18-22-56-22-8 0-91 20-17-16-17-25 0-57 102-57 13 0 92.5 20.5t92.5 20.5q26 0 51-24zM3549-379q0-43-136-101l-174-66q-68-33-208-88-14 14-14 41 0 45 44 67 96 50 250 114t174 64h51q13-14 13-31zM4174 333q-13-104-18-122-15-71-48.5-105t-70.5-42q-107-23-308-50-177-24-205-24-251 0-400 122-35-37-110-99-69-44-171-44-58 0-128 25-89 31-114 81-12 45-38 143-1 14-11 38-130-168-575-258-340-70-680-70-627 0-888 192-57 41-113 82-82 68-84 122 1 1 2 1 11 13 34 13 10 0 107-55 112-66 161-86 37-16 111-29 57-9 113-18 212-45 311-53 54-5 282-5 290 0 613 49 579 87 579 284l-61 573q0 78 65 138 25 0 33-13 36-165 27-328-1-35 17-143 27-161 28-175 3-61 6-121 7-82 51-143 50-70 188-70 95 0 169.5 72t106.5 72q13 0 64-32 62-40 81-49 37-15 137-34t144-19q31 0 167 19 166 21 256 45 68 18 68 65 0 10-20 95-23 95-29 139-13 140-43 379-3 15-28 63-23 46-23 60 0 34 24 103 30 82 63 97 19-20 36-69 19-52 21-55.5t42-31.5q28-19 28-58 0-29-50-145zM2516 1628q0-88-290-212-363-156-825-395-393-208-785-417-15 14-15 41 0 20 15 55 17 39 38 53 97 65 251 142 131 66 262 131 86 50 246 136 263 135 635 313 384 183 402 183h42l16-10t8-20zM1870 591q-15-181-235-181-72 0-112 23 12 30 83 31 78 2 101 32-16 13-96 37-47 15-47 71 0 55 74 149 78 97 135 97 27 0 52-21.5t25-40.5q0-20-36.5-66t-50.5-46q-15 0-32 11-28 19-29 19l-16-17q8-34 75-50 81-19 109-48zM5093 1833q13 25-10 71-7 0-23-15t-16-23q34-33 49-33zM4634 1012l-40 27-38-34-2-41q10-15 35-12 47 16 45 60zM4768 375q-34 35-51 35-41 0-41-41 0-15 5.5-26t5.5-15h58q23 23 23 47z" glyph-name="uniFB65" horiz-adv-x="5302" unicode="&#xfb65;"/><glyph arabic-form="isolated" d="M5381 1772q0-42-124-117-78-43-156-85-83-49-246-150h-45q-13 13-13 35 0 46 25 65 54 42 265 147 93 55 280 141 14-14 14-36zM5329 1232q-26-55-97-70-74-15-97-56l133-885q2-107-33-163h-37q-28 161-77 485-6 51-41 198-27 118-27 190 0 73 23 138v13q-25-15-81-42-18 32-7 86-48 50-48 78 0 45 82.5 130t122.5 85q38 0 63-43 19-33 19-55 0-17-18.5-36t-37.5-19q-10 0-71 30-5-5-18-13t-19-13q20-35 61-35 22 0 47.5 5.5t46.5 5.5q38 0 111-14zM4510 1335q-2-86-145-160-120-63-193-63-37 0-60 13 6 37 79 74 124 62 125 62-27 35-71 35-15 0-64-33-63-42-76-49-14 15-14 31 0 68 74 120 63 44 115 44 141 0 230-74zM3384 1366q-12-36-23-72-18-42-52-56-120-50-479-168-334-110-493-180-57-26-181-70-131-46-149-46-14 0-23 6t-12 6v43q-1 16 20 44.5t44 39.5q6 3 287 109 123 53 368 147l616 209q36 0 56.5-6zM4920 390q0-149-151-259-133-97-294-112-108-10-266-17-27-12-46-80-17-62-60-68-8 25-1 75 9 64 9 67 0 21-69 69-65 43-74 43-12 0-62-34-55-38-75-45-129-43-324-43-131 0-181 21-78 33-78 136 0 44 13 102-37 27-67 27-70 0-214-63-209-93-224-98-364-125-800-125-147 0-267 16-100 14-136 38-10 8-36 51-23 38-37 38-9 0-76-46-73-51-112-64-225-74-483-74-158 0-284 46-202 73-202 240 0 71 30 158 36 102 86 128h47v-57q0-13-25.5-68.5t-25.5-67.5q0-216 435-216 138 0 296 34 215 46 269 128 15 34 68 114h46q1-49 15-136 36-109 397-109 254 0 509 47 272 50 433 135 0 15-8 20-117 65-166 65-64 0-167-82-5 0-18 5.5t-19 5.5v43q-1 19 43 86 28 43 92 83 67 43 115 43 5 0 247-101 153-63 461-53 0-1 1-1 13-12 13-34 0-66-66-100-39-19-79-37-9-9-9-27 0-88 210-88 171 0 285 44 33 12 80 55 37 35 75 35 13 0 103-46.5t102-46.5q58 0 245 169t257 169q64 0 138-41 82-45 82-97zM1940 446q0-105-33-204-5 0-18.5-4.5t-18.5-4.5q-9 77-36 217-6 23-54 101-44 73-44 85 0 18 12 43 15 34 39 34 61 0 112-126 41-100 41-141zM1398 1122q0-51-57-51-12 0-40.5 10t-41.5 10q1 0-178-134-186-140-325-162l-23 26q132 96 399 297-9 31-48 54-34 21-34 63 0 50 46 130 55 95 117 95 81 0 81-126 0-12-1-33.5t-1-29.5q0-23 5-28l61-61q40-40 40-60zM1100-243q-27-109-122-109-57 0-112 53-5 37 26.5 84.5t70.5 47.5q37 0 137-76zM4776 310q-88 44-117 44-52 0-117-53-62-54-124-107 3 0 17-7t29-7q40 0 143 31 105 33 136 56 22 17 33 43zM1202 1277q0 24-25 49l-14-49h39z" glyph-name="uniFB66" horiz-adv-x="5278" unicode="&#xfb66;"/><glyph arabic-form="final" d="M3132 1443q0-99-110-172-93-63-177-63-10 0-35 5t-36 5q-14 0-52-27-44-29-57-34-14 14-14 31 0 29 38 80 34 47 57 58 17 9 48.5 9.5t43.5 7.5q16 9 74 100 54 83 101 99 11 4 37 4 82 0 82-103zM2979 159q0-158-44-199-9-1-26.5 14.5t-19.5 29.5q-30 202-75 577-40 339-40 366 0 80 54 128 29 0 44-24 10-75 28-237 11-121 47-399 32-247 32-256zM2200 1550q0-45-266-193-212-115-423-231-10 0-24 12.5t-14 28.5q0 59 54 88 634 342 638 342 14 0 22.5-6t12.5-6v-35zM2087 1109q1-26-25-91-30-75-59-84-23-6-118-38-76-26-89-26-31 0-66 33 2 63 5 86 10 59 39 85h37v-64q8-3 27-17 42 27 61.5 82t46.5 71q7-35 35-102 17 18 34 59 23 54 34 73 6 0 19-5t19-5v-57zM2119 590q-28-60-41-76-27-33-72-33-24 0-69 21-54 26-54 56 0 33 34.5 75.5t62.5 42.5q52 0 139-86zM2559 230q0-107-41-178-49-83-139-83-41 0-120.5 51t-78.5 51q-12 0-39-32-32-38-45-46-82-47-256-83-160-32-279-32-121 0-234 35-147 47-168 132-38 155-54 384l-24 384q-3 35-26 123-22 84-22 98 0 38 20 70t47 32q51 0 73-177 6-49 17-237 1-36 14-174 10-110 10-174 0-333 372-333 131 0 299 36 189 42 220 94 19 42 68 125h36q7-20 14-105 46-58 156-58 65 0 88 26-25 128-86 552-7 46-43 162-35 109-35 120 0 128 109 215 2-50 26-146 9-19 37-31 46-19 51-23 12-7 12-51 0-12-30.5-79t-30.5-79q0-13 41-284.5t41-284.5zM879 194q0-209-159-362-154-149-352-149-79 0-164 26-97 31-143 81l13 18q32 5 130-3 110-9 108-9 131 0 295 116 170 121 170 236 0 31-12 49-27 34-103 88-49 34-49 84 0 19 23 91h63q62 0 126-115 54-99 54-151zM911-343q0-10-28.5-48t-46.5-46q-239-111-369-187h-45q-13 13-13 35 0 51 53 83 323 189 373 189h63q13-2 13-26z" glyph-name="uniFB67" horiz-adv-x="2994" unicode="&#xfb67;"/><glyph arabic-form="medial" d="M1933 1172q0-24-20-50.5t-32-26.5-43 20.5-44 20.5q-9 0-119-95-124-108-196-147-78-43-171-31 48 56 176 147 132 94 203 172-55 43-57 44-25 27-25 64 0 53 50 130 54 85 103 85 76 0 76-139 0-72-2-68 8-14 59-66 42-43 42-60zM1113 1154q-11-71-135-149-117-74-192-74-37 0-51 14 6 36 77 72 82 41 97 63-29 36-72 36-14 0-54-33-48-40-65-49-14 1-14 25 0 48 64 114t115 66q38 0 127.5-32t102.5-53zM2096 215q0-155-84-212-5-3-70-3-12 0-122 20.5t-123 20.5q-12 0-86-20-88-22-123-28-183-33-298-33-12 0-77.5 15t-76.5 15q-40 0-40-30 0-10 6.5-34.5t4.5-33.5q-7-38-29-86-29-62-60-62-41 0-104 83-54 73-56 96v84q-7 75-49 75-43 0-139-41-109-45-120-88-3-10-3-55l52-604q0-9-6-68-5-61-6-89l10-16h-57q-37 73-45 195-7 109-12 218-38 317-38 349 0 57 60 165 62 116 117 142 79 38 149 52 25-2 77 6 10 3 36 27 23 22 38 22 5 0 91-66 91-70 136-85 67-23 213-23 193 0 216 47-5 109 93 308 14 29 20 91 7 66 16 93 13 34 59 34 61 0 226-150 150-137 169-181 35-82 35-150zM1734 1321q9 8 7 24-1 17-8 17-10 0-26-15 26-26 27-26zM2003 176v35q-90 92-139 116-26-52-23-121 89-42 137-42 24 0 25 12zM1758 287q0 17-20 58-27 54-62 54-36 0-67-63-28-56-24-69 67-42 107-42 66 0 66 62z" glyph-name="uniFB69" horiz-adv-x="2098" unicode="&#xfb69;"/><glyph arabic-form="isolated" d="M2118 994q0-41-33-76-31-32-58-32-32 0-77.5 31t-45.5 51q0 27 34 68 38 45 68 45t69-27q43-29 43-60zM1453 1414q0-60-358-272-583-345-649-388h-34q-13 13-13 46 0 52 33 72 323 191 974 577h34q13-13 13-35zM2457-249q0-67-255-201-182-96-294-137-15 14-15 40 0 53 113 116 73 35 146 71 88 45 257 141h35q13-13 13-30zM2375 313q0-81-15-129-23-79-80-114-54-31-181-59-118-25-190-25-146 0-227 33-31 13-94 64-56 46-68 46-34 0-125-45-99-50-114-84-12-31-12-106 0-13 20.5-113t20.5-112q0-39-49-110-51-75-84-75-36 0-89 128-48 117-52 174-7 111 8 233-10 3-23 3-27 0-86-20-62-22-90-24-191-13-211-13-116 0-165 9-67 12-159 55-32 16-70.5 75t-42.5 101q-34 289-34 370v305q0 11-20.5 87.5t-20.5 87.5q0 19 21.5 62.5t43.5 65.5q14 0 33.5-15t21.5-30q0-11 17-357 11-244 33-390 27-174 134-224 61-28 239-28 194 0 228 4 115 15 200 87 23 46 87 144h35q24-23 24-50 0-14-52-141t-52-140v-100q-4 0 15-19 26 68 102 203 37 48 147 106 115 59 182 59 40 0 90-36 39-32 77-64 52-43 186-43 101 0 209 23 150 33 150 90 0 71-36 71-3 0-37-30.5t-86-30.5q-70 0-124.5 52.5t-54.5 111.5q0 68 63 164 68 102 132 102 110 0 177-176 48-125 48-213zM1852-244q0-34-43-73-40-35-59-35t-97 51q-92-61-97-61-47 0-113 63 0 29 22 74 28 58 65 58 11 0 52.5-20.5t55.5-20.5q13 0 46 30.5t45 30.5q38 0 80.5-36t42.5-61zM2189 458q0 28-53 79h-36l-12-57q34-34 62-34 14 0 25 6t14 6z" glyph-name="uniFB6A" horiz-adv-x="2379" unicode="&#xfb6a;"/><glyph arabic-form="final" d="M6565 1483q0-96-188-171-116-48-502-241-362-181-361-181h-54v54q-1 78 627 367 118 57 236 115 134 64 228 87 14-14 14-30zM6176 842q0-31-21-66-24-41-56-41-16 0-117 73 0 35 19 81 26 61 68 61 39 0 75-43 32-38 32-65zM5377 500q0-94-33-173h-37q-6 70-36 196-17 41-75 120-44 62-44 97 0 77 41 77 74 0 137-157 47-119 47-160zM6697 293q1-81-58-109-38-19-131-22-99-3-131-15-603-210-1061-210-297 0-457 133-17 0-23-8-1-52-16-152-31-126-90-164-21-14-75-14-100 0-167 87-24 31-110 200-32-35-99-89-151-85-294-85-164 0-164 118 0 96 56 96 13 0 77-20.5t77-20.5q67 0 170 35 142 48 142 124 0 11-25.5 142.5t-25.5 144.5q0 48 33 117 54 0 76-106 10-74 21-148 31-165 80-267 71-144 169-144 73 0 73 51 0 7-2 15l-143 877q9 34 17 68 12 38 38 54 23 0 33-45 45-218 90-435 59-244 148-307 51-37 132-50 61-9 122-17 112-27 224-27 188 0 427 48 222 45 316 93-9 30-67 54-47 20-78 20-12 0-89.5-30.5t-90.5-29.5h-44v64q0 41 95 111 77 57 102 66 13 4 48 4 50 0 161-54 67-34 133-68 34-16 111-40 4 0 127-6 83-4 143-39zM4343 1067q0-18-23-65h-42q-13-1-42 25t-41 26-43-36q-41-49-46-53-85-76-268-178h-45q-13 2-13 26 0 25 142 142 77 63 155 126-4 21-50 57-42 33-42 74 0 45 46 124 56 96 123 96t84-116q2-67 5-132 100-79 100-116zM5049-367q1-43-54-72-373-198-423-197h-42q-13 13-13 40 0 59 44 78 455 199 452 199 15 0 23.5-5.5t12.5-5.5v-37zM3729 254q0-135-105-305-113-184-247-225-77-23-190-23-190 0-317 64v37q9 2 204 2 273 0 498 284 43 54 55 117 2 0-37-40-35-34-91-34-64 0-111.5 50.5t-47.5 113.5q0 100 35 186 46 110 129 110 97 0 168-145 57-116 57-192zM2756 1322q0-71-371-232-127-63-389-188-240-107-479-216-300-137-505-258h-36q-12 1-12 25 0 21 19 62 20 48 46 62 217 123 1167 549 164 80 535 244 14-12 25-12v-36zM1958 377q0-33-30-68t-57-35q-18 0-64 27-54 32-54 60 0 26 36.5 72t61.5 46q32 0 72-43 35-40 35-59zM3023 361q0-48-21-129-21-87-46-120-81-107-234-182-46-23-225-88-305-113-585-120l-354-11q-119 0-322 51-166 41-278 85-63 25-165 131-92 97-183 196-22 22-44 109 3 0 11.5 6t23.5 6q13 0 75-53 78-69 92-79 139-99 285-163 262-114 689-114 219 0 537 53 103 17 334 104 328 122 328 221 0 15-24 54-31 45-63 91-26 41-26 80 0 49 33 102 50 0 109-93 53-85 53-137zM4169 1286h-59l-12-47q24 0 46-22 8 23 25 69zM3564 327v47q-14 17-29.5 35.5t-30.5 18.5q-27 0-61-32v-49q34-32 66-32 14 0 32.5 6t22.5 6z" glyph-name="uniFB6B" horiz-adv-x="6710" unicode="&#xfb6b;"/><glyph arabic-form="medial" d="M1874 1734q0-30-222-148-178-95-287-142 0 4-6.5 12.5t-6.5 22.5q0 50 54 82 101 63 246 140 149 80 168 79h54v-46zM1823 1234q0-49-137-81-51-12-184-77h-45q-6 11 0 31 8 25 8 34 0 8-20.5 35t-20.5 53q0 55 76 130t129 75q33 0 55-34 16-24 16-38 0-28-23-46-19-16-39-16-13 0-33.5 10.5t-32.5 10.5q-11 0-46-36 6-2 40-28 26-18 47-18 13 0 77 15.5t77 15.5q56 0 56-36zM1240 1674q0-55-34-74-449-248-474-248h-55v55q0 33 211 143 147 74 294 149h45q13-2 13-25zM1761 174q0-77-24-140 0-1-33-34l-147 962q-12 88 33 143 30 0 44-23 127-699 127-908zM830 799q0-48-136-121-120-64-147-64h-62l-24 25q13 31 68 58 72 35 96 57-9 34-66 34-1 0-124-61-15 14-15 31 0 60 75 105 60 38 105 38 35 0 125-32 105-38 105-70zM1301 246q0-79-3-94-8-33-53-109-21-35-143-56-56-11-253-20-31-100-83-222h-43q-70 0-111 109-31 83-31 170-3 3-14 17-70 5-135-18t-92-62q-11-16-11-94l41-573q0-107-35-154-7 1-25 4-26 62-31 113-43 488-43 575 0 351 353 385 14 2 39 28 32 34 43 42 19-10 57-53 39-46 59-59 50-32 212-32 145 0 200 47-28 356-86 664-3 13-27 68-21 47-21 91 0 119 75 184h36q5-49 35-145 23-10 79-40-6-85-39-131-32-41-32-47 0-12 41-294t41-294z" glyph-name="uniFB6D" horiz-adv-x="2127" unicode="&#xfb6d;"/><glyph arabic-form="isolated" d="M1991 1543q0-27-15-68-120-97-335-192-99-48-299-136-15 11-25 11v44q-1 16 24 43.5t50 39.5q4 3 338 169 207 102 222 102t26-6.5 14-6.5zM1941 829q0-37-44-77-38-35-59-35-11 0-46 20.5t-46 20.5q-13 0-48.5-31t-48.5-31q-35 0-71 32t-36 60q0 30 37 68 33 34 49 34 12 0 41.5-20t40.5-20q14 0 54.5 36t53.5 36q19 0 71-35.5t52-57.5zM1172 1484q-3-34-26-81-168-105-572-318-15 12-25 12v53q0 33 273 186 267 151 276 148h74zM1941 317q0-61-25-139-15-48-60-72-69-39-155-49-37-13-113-34-164-33-318-33-80 0-265 40-27-23-34-47-63-187-194-292-127-100-285-100-78 0-191 31-127 35-152 77 7 7 25 21 50-6 180-6 136 0 221 31 134 49 253 192 79 93 79 114 0-2-13 33l-7 5q-50 41-65 64-18 29-18 77 0 77 51 77 9 0 97-53 95-57 135-67 84-23 209-23 183 0 475 64 31 6 67 43-22 44-45 88-26 51-26 92 0 49 33 101h36q105-115 105-235z" glyph-name="uniFB6E" horiz-adv-x="1953" unicode="&#xfb6e;"/><glyph arabic-form="final" d="M1207 1505q-4-35-36-87-291-195-614-341-8 5-16.5 10t-8.5 21q0 55 36 77 194 109 582 332 25 0 40.5-6t16.5-6zM1618 197q0-162-69-205l-126 956q-17 56 44 118h36q37-229 74-457 41-264 41-412zM1720-258q0-27-24-44-72-27-310-146l-11 14q-2 9 8 29t10 34q0 9-12 14-2 2-2 4-48 64-48 84 0 48 62 117 64 72 117 72 87 0 87-76 0-56-61-56 6 0-75 20l-28-26q32-31 54-35h43q-21 0 177 19 13-1 13-24zM1259-33q0-182-299-293-218-81-377-81-156 0-253 95-95 91-95 232 0 167 137 307h34q13-13 13-30l-41-76t-41-119q0-142 134-205 86-41 194-41 104 0 247 45 160 49 214 114-37 49-148 57-116 9-159 52-5 78 125.5 129t130.5 130q0 32-86 532-4 21-27 84-20 59-20 70 0 41 25 102 28 70 62 78 25-11 33-50 14-64 15-66 5-12 25-25 25-14 29-18 16-26 16-36 0-14-17-64-20-60-24-80l71-480q2-80-71-200 15-19 45-33 43-17 44-18 64-39 64-112zM1832-422q0-53-195-144-135-58-269-117h-36q0 4-6 10t-6 20q0 48 34 67 93 53 245 122 148 67 168 66h53q12 0 12-24z" glyph-name="uniFB6F" horiz-adv-x="1635" unicode="&#xfb6f;"/><glyph arabic-form="initial" d="M3081 1467q0-70-85-144-77-66-154-84-52 5-154-6-11-3-32.5-20t-31.5-17q-2 2-3 2-11 10-11 28 0 47 56 98 49 46 77 46 13 0 18-5t18-5q1 0 73.5 102t131.5 102q31 0 64-33.5t33-63.5zM2564 1851q-12 0-13-18-3-23-15-30-142-88-441-259h-35q-23 24-23 35 0 46 53 83 292 199 342 199zM2488 1502q0-36-26-95-30-70-70-86-39-11-112-36-27-15-54-29-37-19-56-19-36 0-81 42-7 29 27 92 36 68 72 70 4-25 19-71 24 18 48 57 36 59 40 65h36q8-19 15-38 9-23 24-23 30 0 39 37 6 30 11 60 1 1 15.5 10.5t26.5 15.5q26-13 26-52zM2948 249q-1-73-6-97-11-59-50-93-13 12-33 34-15 134-72 516-54 354-54 362 0 89 44 141h47zM1945 1012q0-20-31-70-35-53-56-53-16 0-117 73 7 132 86 132 36 0 74-24 44-26 44-58zM2518 285q4-93-33-206-54-163-167-163-145 0-266 204-72-72-130-99-39-18-155-36-110-17-166-17-117 0-117 116 0 61 44 108 8 0 25-4 33-36 121-36h80q51 0 151 37 122 45 122 95 0 13-41 189.5t-41 190.5q0 26 43 90h37q53-119 79-280 65-384 230-384 82 0 82 92 0 31-117 680-2 15-27 71-20 48-20 89 0 55 64 183h57q2-50 24-135 12-21 45-36 39-20 45-25-7-49-61-157zM2078-140q0-52-54-84-103-61-263.5-139.5t-180.5-78.5h-52q-13 13-13 36 0 55 33 72 160 74 483 230h34q13-13 13-36zM1320 673q0-33-29-69-27-33-48-33-13 0-58.5 36t-59.5 36q-55 0-154.5-97.5t-90.5-142.5q60-56 159-65 119-12 133-19 56-26 56-132 0-144-231-257-126-62-295-103-11-3-114-3-122 0-151 9-69 22-177 128-16 16-41 70.5t-25 73.5q0 55 13 144 8 16 25 52 28 80 41 103 32 63 78 95h35q13-13 13-30 0-10-31-74-40-85-49-107-2-5-2-50 0-134 124-202 91-48 199-48 88 0 226 42 164 52 239 126-32 20-133 32-105 11-146 31-69 33-69 117 0 113 136 294 149 197 284 197 59 0 105-64 38-53 38-90zM2957 1402q0 29-14 29-8 0-46-38 18 0 37.5 4.5t22.5 4.5z" glyph-name="uniFB70" horiz-adv-x="2954" unicode="&#xfb70;"/><glyph arabic-form="medial" d="M2290 1460q-3-27-26-67-93-62-263-158-210-118-278-159h-35q-12 0-12 24 0 60 86 119 33 22 152 84 76 37 298 171 35-2 78-14zM1799 1621q0-60-144-135-115-60-177-70-73-14-119-14-13 0-56.5 10.5t-55.5 10.5q-14 0-59-39-62-57-70-63-15 14-15 36 0 45 57 122t96 77q14 0 72.5-15.5t71.5-15.5q187 0 341 132h58v-36zM2475 260q0-16-40.5-51t-62.5-35q-12 0-50.5 5t-51.5 5q-124 0-307.5-77t-296.5-77q-13 0-34.5-1t-30.5-1q-71 0-146 97-35 44-59 227-28 212-47 482-4 46-23 162-18 110-18 120 0 58 44 123 55-24 72-109 4-18 13-152 33-492 88-675 6-19 44-57 17 7 130 138 101 117 161 117 12 0 87-40 86-46 125-60 128-44 403-86v-55zM928 1697q-9-26-17-52-14-32-35-45-424-248-445-248h-64v55q-1 25 204 142 145 80 290 161 31 0 49-6.5zM847 1285q0-49-24-103-30-66-81-94-38-4-103-16-18-6-66-29-40-19-54-19-71 0-71 71 0 31 24.5 79t42.5 54q12-9 43-72h26q26 52 83 144 32-16 33-44 2-34 29-58 25 41 92 132 26-13 26-45zM1717-383q-17-51-157-71-143-20-214-51-26-16-73-34-176-34-267-34-247 0-402 116-177 130-177 376 0 338 205 588-4 5-41 5-73 0-116-48-75-83-94-95-15 14-15 30 0 52 64 151 66 104 114 111 146 25 144 25 13 0 136-10.5t136-10.5q20 0 242 21 14-14 14-31 0-39-50-90-47-46-77-51-52-3-154-16-194-37-310-223-95-150-95-300 0-23 18-91 21-79 45-122 48-85 240-134 143-37 270-37 144 0 342 33 24 4 106 28 74 21 90 21 35 0 76-56zM1052 97q0-31-33.5-64t-64.5-33q-37 0-74 25-43 29-43 67 0 30 33 71.5t59 41.5q33 0 79-44 44-42 44-64zM1922 273q-83 55-108 55-46 0-127-86v-36q10 0 25-12 58 10 117 21 71 14 93 58z" glyph-name="uniFB71" horiz-adv-x="2489" unicode="&#xfb71;"/><glyph arabic-form="isolated" d="M3884 261q0-163-70-178l-146 900q9 41 54 132h37q52-220 80-413 45-306 45-441zM3381 1422q-3-78-107-140-80-43-160-87-99-71-259-151-15 12-25 12v53q0 38 213 162 136 76 271 151h67zM3596 949q0-42-35-77-115-115-165-113h-74v47q29 24 80 79-15 16-35 16-14 0-45-22-36-25-49-29-14 1-14 25 0 52 51 95t108 43q70 0 178-64zM4108-212q-119-58-351-176h-47v48q40 38 40 54 0 12-30.5 45.5t-30.5 46.5q0 56 64 130t110 74q92 0 92-61 0-62-71-62-5 0-32 5-17 3-32-4l-18-17q26-45 87-45 21 0 69 9.5t73 9.5q45 0 77-21v-36zM4220-288q0-11-13-47-150-119-421-217-15 13-15 40 0 58 194 151 99 43 199 85 25 0 40-6t16-6zM2911 517q0-65-55-139-23 10-34 71-15 89-17 97-9 27-57 95-41 63-41 76 0 71 46 71 65 0 117-126 41-98 41-145zM3515-302q0-33-36.5-70t-65.5-37q-37 0-78 42-35 38-35 55 0 39 35 73.5t67 34.5q29 0 71-35.5t42-62.5zM3505 348q0-97-62-152-36-32-156-87-25-11-63-126-29-88-112-186-101-121-205-142-64-13-124-13-172 0-333 106 26 48 52 48 12 0 86-20.5t88-20.5q13 0 41 6 35 8 45 10 36 3 112 17 115 33 250 210 44 59 44 98-62 38-76 69-7 14-7 50 0 82 57 82 10 0 52-10.5t55-10.5q74 0 143 57-5 27-29 84-22 52-22 64 0 52 56 113 46-42 78-117 30-71 30-129zM1846 478q-9-22-104-44-102-24-208-24-220 0-220 82 0 54 53 97 53 24 133 68 5 3 61 54 40 36 55 36 67 0 67-92 0-14-6.5-30t-6.5-20h-36q-9 15-29 40l-179-119q22-30 65-35-2 1 74 1 245 0 215 2 45-4 66-16zM2379-66q0-48-44-74-359-208-413-207h-55v54q0 31 197 131 134 66 267 131h35q13-13 13-35zM1037 1229q0-17-15-48-485-291-503-290h-54v54q0 25 201 143 205 119 357 181 14-14 14-40zM2717 297q0-78-37-161-48-106-122-106-12 0-148.5 36t-148.5 36q-13 0-86-23-90-29-118-36-297-74-625-74-114 0-254 21-107 15-215 30-13-16-36-116-17-67-74-67-85 0-123 107-29 80-24 181-6 11-24 29-269 0-269-149l71-655q0-115-46-159-29 27-32 56-75 643-75 708 0 165 63 243 79 98 289 121 13 2 47.5 26t51.5 24q34 0 59-45 35-59 61-77 29-20 193.5-67t382.5-47q57 0 404 37 62 4 162 27 43 22 46 85 2 51 5 103 4 17 39 64 33 45 36 69 2 14-3 55-6 49-6 71 0 65 35 88 23 15 60 15 50 0 239-160 176-148 186-170 36-75 36-120zM2624 229q-28 70-180 170-8-52-24-142 91-42 138-42 42 0 66 14zM2348 322q0 22-26.5 55t-50.5 33q-20 0-47.5-30.5t-39.5-58.5q67-45 93-45 16 0 39 11 32 13 32 35z" glyph-name="uniFB72" horiz-adv-x="3888" unicode="&#xfb72;"/><glyph arabic-form="final" d="M897 1139q0-45-20-89-26-53-66-53-23 0-64 34-44 35-44 63 0 25 28 64 31 44 60 44 41 0 106-63zM1276 116q0-149-227-273-181-98-290-102-72-3-107-3-151 0-243 67-105 76-105 224 0 77 32 172 39 117 105 171 37 0 37-30 0-14-69-161-3-5-3-49 0-230 292-230 244 0 436 150 2 23-37 30-66 2-133 5-118 10-118 56 0 33 23 50 4 4 150 78 94 48 94 102 0 28-36 82-67-82-118-82-143 0-143 164 0 88 36 168 48 108 138 108 89 0 154-164 50-129 50-210 0-70-4-83-18-35-46-111 38-24 78-48 54-36 54-81zM1327-258q2-43-53-72-332-177-362-177h-54v54q-1 37 187 122 87 45 258 120 14-11 24-11v-36zM1010 570q-2 29-20.5 54t-40.5 25q-17 0-40-23v-46q56-38 101-10z" glyph-name="uniFB73" horiz-adv-x="1286" unicode="&#xfb73;"/><glyph arabic-form="initial" d="M2951 1244q1-41-474-320h-36q0 4-6 12.5t-6 22.5q0 77 279 212 68 46 196 130h47v-57zM2122 1180q0-38-25-107-27-70-49-85-33-9-113-38-92-37-99-37-82 0-82 103 0 65 57 112 16-26 53-83 28-1 43 44 24 65 45 90 22-12 38-40 20-36 25-41 25 40 81 122 26-13 26-40zM2849 171q0-192-145-339t-326-147q-67 0-159 25-97 26-148 61 26 47 51 47 13 0 72-10.5t71-10.5q141 0 311 107 181 112 181 231 0 35-13 53-40 50-80 98t-40 89q0 47 34 98 79-18 138-124 53-94 53-178zM2173 273q0-63-26-137-27-78-59-90-83-33-134-41-313-54-415-54-103 0-192 36-130 51-160 161-7 13-23 28-43-38-141-100-7-2-63-2-129 0-178 52-13 126 175 270 6 5 69 38 47 26 69 58 14 18 14 89 1 56 23 86h36q5-12 18-34 59-323 108-397 75-111 306-111 43 0 373 43 49 6 88 44-5 35-40 111-32 72-32 83 0 55 34 108h35q31-27 73-109 42-86 42-132zM1784-228q0-28-27-66-29-41-59-41-35 0-81.5 36t-46.5 66q0 29 35 70.5t56 41.5q31 0 79-46 44-44 44-61zM2019-328q-11-37-42-86-201-126-414-208-24 24-24 36 0 50 25 65 170 105 388 206zM617 685q-78-120-260-120-14 0-83 15.5t-81 15.5q-14 0-31-23-27-35-29-37h-37q12 42 41 87 40 65 81 65 12 0 81.5-20.5t82.5-20.5q40 0 168 51zM657 276q-10-42-151-73-121-27-222-27-159 0-159 66 0 55 46 96 58 53 144 113 89 63 108 63 48 0 71-108 0-48-37-66-15 21-50 61-31-20-89.5-54t-89.5-55q15-22 49-26-20 2 53 2-5 0 108 4t219 4zM1160-69q0-17-25.5-51t-48.5-48q-372-230-424-228h-54v68q79 65 240 151 220 117 254 138h45q13-13 13-30zM1129 290q0 43-14 70-43-22-88-44-62-33-71-66l98-12q40 20 75 52z" glyph-name="uniFB74" horiz-adv-x="2854" unicode="&#xfb74;"/><glyph arabic-form="medial" d="M1491 1717q0-69-136-121-36-20-112-62-93-55-278-159h-34q-13 13-13 35 0 57 43 83 429 249 475 249h43q12-1 12-25zM1471 1237q-25-46-87-70-46-17-46-69l102-886q0-95-43-188-10-2-26 9-19 11-21 24-20 223-78 717-3 34-8 214-4 130-19 130 3 0-88-30-4 23-17 64-2 4-28 36-20 24-20 42 0 44 85 121 82 74 120 74 42 0 71-87 0-24-23-41-21-15-43-15-4 0-69 21 0-8-18-27 36-35 77-35 12 0 50.5 10.5t52.5 10.5q33 0 76-25zM754 1462q-24-73-84-115-40-28-111-58-67-27-88-27h-73q-3 9-12 24 12 32 70 57 69 31 94 55-29 17-57 17-15 0-61-28-66-40-74-44-13 2-13 26 0 26 49 84 52 62 88 71 16 4 62 4 121 0 210-66zM713 739q0-43-30-80-28-32-52-32-38 0-77 37-35 33-35 54 0 26 34.5 69.5t52.5 43.5q27 0 67-34.5t40-57.5zM1082 247q0-8-14-128-8-67-42-105-62-68-193-123-125-53-212-53-124 0-214 85-93 87-93 217 0 62 35 152 41 103 94 130 14-15 14-46 0-11-25-83.5t-25-86.5q0-98 97-153 73-41 148-41 56 0 185 45 163 57 163 124 0 13-61.5 161.5t-61.5 161.5q0 51 33 101h36q44-27 91-164 45-126 45-194z" glyph-name="uniFB75" horiz-adv-x="1449" unicode="&#xfb75;"/><glyph arabic-form="isolated" d="M3311 1041q0-81-465-322h-46v65q-1 20 150 107.5t303 174.5h45q13-1 13-25zM2338 1451q0-13-27-48.5t-47-45.5q-170-89-514-280-15 12-26 12v64q0 27 230 156 172 97 337 177h34q13-13 13-35zM3423 163q-15-43-24-62-18-41-40-55-50-10-144-37-53-20-260-149-4 28 6 65 12 43 12 61-38 25-76 52-37 32-37 77 0 66 95 178 100 118 177 118 44 0 73-43 24-34 24-59 0-29-23-68-25-44-54-44-11 0-45 25t-48 25q-36 0-66-45 61-67 143-67 14 0 116 25.5t115 25.5q14 0 29-8 22-13 27-15zM2686 186q0-139-69-184l-115 998q0 125 79 158zM2297 867q0-35-34-71.5t-58-36.5q-34 0-61 20.5t-36 20.5q-13 0-51.5-35.5t-51.5-35.5q-24 0-74 32-54 34-54 60 0 29 45 68 39 34 53 34 11 0 54-20.5t53-20.5q13 0 53.5 41t53.5 41q20 0 64-39t44-58zM935 1152q-5-8-9.5-16t-20.5-8q-13 0-39 15.5t-38 15.5q-13 0-57-43-55-53-73-67-97-66-299-166h-35q-3 9-12 25 70 64 369 288-5 11-37 61-25 37-25 55 0 45 60 131 66 95 119 95 64 0 64-136 0-28-3.5-69t-3.5-47 1-7 22-23q17-18 17-30v-74zM1181 565q0-105-52-154-10 49-33 137-15 40-80 137-60 88-60 100 0 19 23 66h55q147-110 147-286zM2328 263q0-107-46-187-20-36-79-59-46-15-94-29-142-47-329-47-167 0-238 48-15 2-41 6-45 34-131 99-37-35-109-98-58-45-167-45-108 0-174 52-55 44-115 153-26-18-87-59-72-44-151-44-32 0-112 24-70 20-82 29-1 10-1 20 0 85 83 175 70 77 166 127 45 23 64 36 50 35 52 65 1 9-2.5 37.5t-3.5 45.5q0 61 33 96 30 0 44-23 4-40 17-103l78-310q51-147 201-147 98 0 152 37 19 12 68 69 32 37 72 37 43 0 76-43 38-51 94-67 151-43 280-43 109 0 224 20 165 30 165 87 0 10-45.5 92t-45.5 102q0-2 32 97h57q65-88 83-139 12-36 12-111zM821 1355l-10 38q-8 0-23.5-15t-15.5-22q1-1 49-1zM782 304q0 18-24 66-32-15-201-128l119-15q31 12 61 24 45 21 45 53z" glyph-name="uniFB76" horiz-adv-x="3429" unicode="&#xfb76;"/><glyph arabic-form="final" d="M2077 1541q0-75-78-148-73-69-149-81-42 3-124-5-33-18-96-47-13 1-13 25 0 22 29 71t55 63q39 2 102 26 14 12 60 92 43 73 84 96 11 5 38 5 92 0 92-97zM1329 1563q0-13-15-43-91-47-250-119-154-70-160-69h-75q0 3-5.5 11.5t-5.5 22.5q0 38 34 53 412 178 426 178 18 0 51-34zM1944 224q-1-2-14-99-9-65-55-83l-156 1007q-2 42 18 83 24 47 62 54zM1268 1295q0-130-73-186-35-27-114-57-72-28-94-28-36 0-62 32-25 29-25 65 0 26 19 69 22 52 50 58 27-40 23-74 5-5 12.5-8.5t13.5-8.5q22 22 51 73 33 58 51 81 16-22 22-79 0-2 11-14h26q16 46 62 133 27-13 27-56zM706 1136q0-14-24-60-19 4-51 18-24 12-38 12-13 0-42-29-31-69-141-151-100-76-171-97-14 12-24 12v36q7 9 149 136 126 111 126 128-38 46-89 122l-1-1q-1-1-1 2v16q0 49 56 128 61 87 117 87 32 0 47-24 15-41 25-124-9-36-8-102 3-8 39-42 31-28 31-67zM1524 251q0-86-30-160-41-101-123-101-44 0-112 35-75 38-109 87-17-9-36-41-22-37-25-39-61-57-98-72-29-11-91-11-89 0-126 52-3 3-75 163-61-67-113-84-25-9-85-9-119 0-153 54-6 16-6 33 0 79 132 175 96 64 192 129 23 19 32 53l10 66q19 24 19 42h38q17-51 28-187 5-84 11-166 29-158 132-158 52 0 107 42 62 46 62 107 0 13-31 197t-31 197q0 98 34 133 25 0 33-13 21-103 63-308 9-60 19-119 18-86 54-132 47-63 130-63 56 0 56 57 0-7-100 387-2 12-2 79 0 114 45 164 33-16 35-47 3-59 4-60 10-54 31-154 0-1 49-137 30-87 30-191zM1975 1502l-47 13q-22-15-22-61 29 14 69 48zM562 1338q-24 24-38 24-5-6-17-23.5t-17-22.5q35-36 60-36zM706 317q0 17-13 30h-35q-93-55-137-98-4 0 27.5-6.5t81.5-6.5q76 45 76 81z" glyph-name="uniFB77" horiz-adv-x="1951" unicode="&#xfb77;"/><glyph arabic-form="initial" d="M4801 1548q0-58-38-111-46-64-129-91-60-3-164-16-18-5-60-47h-38v47q30 36 145 127 24 20 101 118 51 65 101 65 40 0 63-34 19-27 19-58zM4361 1606q-34-100-159-152-98-35-195-70l-24 24q6 35 81 77t84 75q-4 0-8.5 4.5t-18.5 4.5q-19 0-117-72v55q-1 37 72 86 65 43 90 43 77 0 195-75zM4730 233q0-77-25-167-19-31-44-43l-156 972q-6 75 43 132h37q21-65 29-105 30-176 74-481 42-286 42-308zM3706 1159q0-24-17-48t-34-24q-15 0-44.5 20.5t-42.5 20.5-63-54q-62-66-87-86-63-46-340-197-18 0-36 5.5t-21 5.5q0-11 12 37 122 87 242 174 155 112 196 161-55 55-63.5 70t-8.5 53q0 46 44 125 52 95 115 95 68 0 68-101 0-24-4-65t-4-53q0-13 2-20 6-18 47-64 39-43 39-55zM3070 1525q-16-139-321-243l-66 13q28 41 102 83 79 45 102 73-22 25-67 25-22 0-64-33-68-52-80-59-14 15-14 31 0 63 71 119 69 55 138 55 28 0 104-26 72-24 95-38zM4259 268q0-141-36-183-25-28-111-56-115-37-171-37-11 0-39.5 5t-42.5 5q-34 0-70.5-46t-102.5-46q-34 0-113 21t-91 35q-59 67-73 67-11 0-48-25-41-27-58-34-64-23-175-23-95 0-117 7-50 15-151 95-9 0-22-17-4-70-31-133-10-38-55-111-24-25-86-25-51 0-123 52-77 55-94 115-32 119-37 215-5 13-22 37-93-120-223-161-134-42-450-83-311-42-489-42-44 0-383 13-121 4-278 51-51 15-153 106-93 82-147 150v47h43q10 1 97-53 96-61 142-76 214-75 705-75 281 0 606 49 525 80 525 243l-51 599q0 98 56 144 34-20 44-90 5-50 9-100 0-79 4-235 2-33 47-296 13-112 26-222 47-204 167-204 77 0 77 97l-82 875q0 157 57 185 8-7 21-24 22-185 82-554 47-229 90-300 69-115 232-115 130 0 213 60 30 23 105 114 50 61 101 61 18 0 73-48 70-61 118-88 85-49 178-49 133 0 205 48-5 189-107 714-2 9-20 46-17 32-17 63 0 104 76 204 31-10 37-54 9-69 14-82 21-47 88-69-5-30-29-104-22-67-22-79 0 38 57-322 25-153 25-262zM2416 1656q0-22-20-56-23-40-54-59-94-45-277-139l-728-404q-438-244-737-433h-34q-13 13-13 31 0 66 149 165 80 47 161 93 634 366 1279 721 66 30 216 105h45q13-1 13-24zM1740 754q0-22-31-64.5t-51-42.5q-11 0-30.5 10.5t-30.5 10.5q-23 0-41-37 13-42 86-61 83-21 98-38 2-9 2-21 0-83-81.5-163t-160.5-80q-30 0-159 78 88 16 256 63-9 28-70 42-71 17-93 44-3 12-3 26 0 88 96 193 90 97 147 97 66 0 66-57zM4699 1506h-48q-17-13-44-35 9-10 26-15 55 28 66 50zM3551 1303v58q-21 23-37 23-23-23-23-48 33-33 60-33zM3644 106q-35 72-74 110h-35q-23-23-23-47 65-65 88-63h44z" glyph-name="uniFB78" horiz-adv-x="4742" unicode="&#xfb78;"/><glyph arabic-form="medial" d="M907 1452q-84-140-396-181l-24 25q10 40 77 64 79 28 97 51-11 24-56 24-24 0-144-71-15 15-15 30 0 50 85 111 76 53 110 53 18 0 127-42 114-44 139-64zM1245 247q-2-14-2-43v-16q0-126-67-165l-146 946q-10 78 44 158h36zM528 963q0-45-18-87-22-55-59-55-23 0-63 25-44 30-44 57 0 24 29 66 33 47 63 47 37 0 92-53zM1450-196q-34-80-188-112-48-10-185-78-5 0-17.5 5t-17.5 5q1-6 11 76-4 9-27 46-17 27-17 42 0 41 74 112.5t111 71.5q26 0 71-43v-69q-26-22-56-22-4 0-33 6-20 3-44-2 20-39 43-45-2 0 44 0 13 0 90 15.5t89 15.5q27 0 52-24zM856 217q0-24-13-78-16-63-33-84-15-17-91-46-124-48-237-48-81 0-118 33 1 3 1 77 0 45 23 74 81-20 94-20 20 0 136 34 122 36 146 55-5 56-125.5 149t-120.5 130q0 24 17 58 21 45 50 45 60 0 159-105 96-102 98-156 0-17 7-61.5t7-56.5zM1521-335q0-49-183-127-259-112-271-119h-34q-13 14-13 41 0 47 43 67 379 168 417 168 41 0 41-30z" glyph-name="uniFB79" horiz-adv-x="1257" unicode="&#xfb79;"/><glyph arabic-form="isolated" d="M2318 1684q-42-70-85-94-408-228-424-228h-64v45q-1 40 43 63 469 240 474 240h32zM2123 1080q0-30-30-63.5t-57-33.5q-10 0-37.5 15t-44.5 15q-13 0-51-35.5t-51-35.5q-21 0-107 53-2 49 26.5 95t64.5 46q10 0 42-15t45-15 56.5 35.5 56.5 35.5q32 0 63-43 24-36 24-54zM1252 1673q0-40-204-168-176-107-352-215h-34q-23 24-23 35 0 51 36 73 173 99 520 311h57v-36zM2205 302q0-322-394-322-83 0-102 6-52 15-114 87-27 32-40 112-6 58-13 116-51 401-77 656-4 29-27 109-21 76-21 86 0 97 61 97 17 0 36.5-19.5t21.5-35.5q24-235 49-468 30-280 70-464 10-50 65-85 53-34 112-34 52 0 145 26 102 28 136 61 1 26 1 52 0 34-28 56-28-9-67-54-33-38-75-38-79 0-123 64-35 52-35 120 0 98 61 177t143 79q102 0 168-175 47-127 47-209zM1181 302q0-150-25-207-46-109-205-179-133-59-251-59-120 0-212 77-95 79-95 189 0 60 45 178 48 127 92 149h37v-58q0-8-36-83.5t-36-93.5q0-99 110-150 76-35 146-35 79 0 200 51 136 56 159 119l-144 910q-1 8-1 18 0 48 24 102 27 59 66 80 11-52 47-157 24-9 68-39 3-44-3-66-6-19-39-72-29-46-29-60 0-13 8-33 9-22 9-28 65-488 65-553zM2021 455q-17 49-55 87-16-5-36.5-30t-20.5-41q0-19 18-35.5t37-16.5q26 0 57 36z" glyph-name="uniFB7A" horiz-adv-x="2214" unicode="&#xfb7a;"/><glyph arabic-form="final" d="M3920 240q0-108-33-239-29 0-46 23 3 101-27 267-21 113-86 432-54 262-54 275 0 80 76 149 38-18 44-56 19-147 77-519 49-320 49-332zM3561 945q1-71-231-146h-42l-12 12v38q35 19 112 69-7 24-47 24-13 0-37-18-40-28-44-31-8 1-36 17 44 92 68 116 31 28 95 28 65 0 174-43v-66zM3326 1402q0-58-207-167-105-55-299-170h-33q-13 13-13 30 0 63 42 92 40 25 473 256 37 0 37-41zM4134-248q-18-67-157-121-204-79-207-81-6 17-3 48 6 46 6 49 0 6-13.5 37t-13.5 45q0 58 57 118.5t117 60.5q40 0 91-32v-69q-31-32-55-32-15 0-39 12-33 16-42 19-5-5-13.5-8t-13.5-8q27-43 45-52 9-4 47-4 21 0 68.5 12.5t76.5 12.5q25 0 49-7zM4238-393q-19-66-93-105-8-4-106-37-90-32-225-109h-45q-13 13-13 30 0 64 202 155 180 80 234 80 31 0 46-14zM2897 492q0-41-25-132-26-99-49-114-8 33-7 100t-5 98q-9 39-55 138-44 92-44 109 0 16 17.5 36t33.5 20q49 0 96-124 38-100 38-131zM3551-291q0-38-42-75-39-33-70-33-36 0-71 35-32 32-32 57 0 32 35.5 67.5t62.5 35.5q17 0 65-31 52-33 52-56zM3510 342q0-116-56-186-6-9-66.5-28.5t-80.5-43.5q-29-66-88-193-23-52-100-122-82-76-145-94-80-23-159-23-75 0-173 26-112 28-155 69 3 49 41 49 12 0 104-15.5t106-15.5q85 0 181 43 77 34 163 111 121 110 121 163 0 7-58 74-3 13-3 44 0 87 61 87 11 0 42.5-10.5t45.5-10.5q57 0 107 36-5 26-30 97-22 64-22 77 0 97 52 97 64 0 112-231zM1698 516q-118-56-297-56-235 0-235 77 0 49 66 103 42 19 121 58 21 11 69 58 43 43 56 43 19 0 45-34 22-30 22-42v-55l-24-22q-11-2-54 40-30-21-89-55.5t-90-54.5q0-33 38-35h350q0-3 22-25zM1012 1100q0-66-56-66-12 0-35.5 15.5t-35.5 15.5-14-6-4-7q-46-62-193-166-154-108-211-107h-74v38q167 96 388 274-12 24-81 67-2 11-2 24 0 80 50 161 55 91 120 91 75 0 75-101 0-25-5-66.5t-5-53.5q0-13 3-17.5t48-46.5q32-32 32-49zM2321-82q-22-101-370-239-8-3-69-38-52-30-68-30h-51q-13 13-13 36 0 49 185 136 102 47 196 80 9 3 72 33 50 22 64 22h54zM2630 276q0-246-133-246-14 0-147 26t-145 26q-9 0-133-33-140-37-194-47-178-33-461-33-127 0-277 13-14 1-54 14.5t-53 13.5q-48 0-75-107t-64-107q-95 0-138 156-24 87-24 164-1 4-14 18-95 0-169-32-99-41-99-122 0-13 30.5-284t30.5-285q0-125-34-178-9-1-26.5 14.5t-18.5 30.5q-75 617-75 677 0 156 125 265 85 73 238 79 15 1 49 30t48 29q34 0 83-63 54-71 68-78 175-84 474-84 195 0 414 23 93 9 132 30 23 12 30 70 5 49 11 98 26 38 65 124 9 31 10 97 1 75 6 107 10 55 75 55 41 0 199-123 147-115 210-186 36-41 36-152zM2548 242q-109 109-172 146 0-71-12-140 88-43 138-43 46 0 46 37zM2282 312q-39 107-82 107-23 0-54-43-28-39-28-54 0-14 45.5-40t67.5-26q17 0 34 19.5t17 36.5zM858 1252q0 23-25 48-12-6-35-22v-37l13-12q24 0 47 23z" glyph-name="uniFB7B" horiz-adv-x="3931" unicode="&#xfb7b;"/><glyph arabic-form="initial" d="M2228 1432q6-70-103-147l-174-110q-88-67-257-171h-35q-13 13-13 40 0 53 44 82 480 317 499 317 14 0 25-5.5t14-5.5zM1287 1295q0-38-22-88-26-59-62-78-148-75-192-75-92 0-92 82 0 29 25 75t53 69q15-22 20-79 1-2 12-14 32 1 50 60 19 68 51 83 10-9 25-45t25-46q19 41 59 121h37q0-10 5.5-31t5.5-34zM2138 276q0-177-144-344-150-177-333-177-65 0-236 33-29 6-65 41 3 49 41 49 12 0 71-10.5t72-10.5q35 0 96 12 78 17 203 102 35 24 115 109 98 105 98 145 0 27-82 115t-82 141q0 24 13 60 17 42 38 42 47 0 117-96 61-81 63-103 15-95 15-108zM785 1334q1-18-196-154-176-121-288-186h-44q-14 13-14 30 0 50 219 197 150 101 277 170h46v-57zM1380 189q0-37-24-107.5t-43-90.5q-79-82-261-146-168-60-291-60-151 0-248 85-106 91-106 248 0 84 31 155 29 66 115 187h48v-57q0-3-89-165-3-9-3-38 0-116 131-192 103-59 192-59 86 0 237 58 135 54 178 90-34 32-150 46-122 15-177 54 16 57 52 95 53 29 106 59 97 59 97 94 0 14-46 82-36 55-74 110-3 13-3 44 0 118 67 118 56 0 111-124 48-106 48-158 0-61-10-83 0-1-62-111 23-27 111-49 63-17 63-85zM1380-312q0-27-33-72.5t-60-45.5q-36 0-81 47-41 42-41 61 0 39 28.5 73t63.5 34q36 0 79.5-36.5t43.5-60.5zM1553-466q1-33-170-127-141-77-283-154h-45q-13 13-13 41 0 51 43 77 367 221 414 219h54v-56z" glyph-name="uniFB7C" horiz-adv-x="2147" unicode="&#xfb7c;"/><glyph arabic-form="medial" d="M4160 1463q0-82-105-160-95-70-166-70-10 0-24 5t-27 5q-14 0-53-22-44-23-64-28v54q-1 24 52 81.5t69 57.5q14 0 14-5t13-5q30 0 81 97t124 97q86 0 86-107zM3658 1867q0-56-219-175-173-93-330-152-23 25-23 41 0 48 219 164 169 89 329 153l16-10t8-21zM3556 1482q0-54-56-114.5t-112-67.5q-19-2-62-24.5t-62-22.5q-77 0-77 77 0 56 54 127h38v-54q18-17 26-17 24 0 50 56l30 66h36q4-20 27-60 20 30 70 101h38v-67zM4037 219q0-35-19-93.5t-37-70.5q-26 18-36 98-7 66-14 131-19 149-61 441-7 41-34 164-24 106-24 119 0 88 65 153 12 0 33-34 28-135 70-399 57-364 57-509zM3095 972q0-28-27-66-29-42-59-42-36 0-73 26-45 30-45 71 0 31 19 65 25 43 63 43 36 0 79-31.5t43-65.5zM3607 229q-27-179-33-192-37-94-156-94-60 0-73 3-46 14-92 70-25 50-90 141-142-193-426-193-154 0-154 106 0 98 67 98 13 0 72-15.5t71-15.5q91 0 190 34 144 50 144 145 0 13-20.5 136t-20.5 135q0 113 33 144 26 0 34-13 21-47 54-231 31-180 71-258 63-123 181-123 56 0 56 57 0 20-39 263-41 264-67 391-7 36-31 87-16 36-16 98 0 121 74 209h37l8-110q16-71 72-88 7-4 23-18 2-11 2-23 0-37-25-87-25-54-28-87zM3065-190q0-85-219-177-119-51-256-120h-34q-14 14-14 41 0 57 122 116 64 25 127 50 89 45 259 121 15-15 15-31zM2389 255q0-289-517-432-341-95-686-95-276 0-511 81-258 89-337 239-39 57-109 175v34q13 13 30 13 29 0 106-79 38-42 77-83 136-104 372-163 210-53 413-53 283 0 572 67 323 75 458 195-6 44-103 51-156 10-174 15-93 25-93 112 0 110 44 182 58 91 149 184 125 125 207 125 46 0 75-39 27-36 27-84 0-86-56-113-14 5-51 41-33 31-47 31-55 0-142-98-83-91-83-127 0-62 154-79 80-4 161-7 32-15 48-38t16-55zM4058 1435h-37q-24-11-22-48 25 12 59 48z" glyph-name="uniFB7D" horiz-adv-x="4046" unicode="&#xfb7d;"/><glyph arabic-form="isolated" d="M3075 1107q0-46-52-46-12 0-38 10t-38 10q5 0-124-98-147-111-274-168h-35q-13 2-13 25 0 37 82 91 47 30 95 59 50 38 151 127-71 95-71 118 0 75 75.5 148.5t136.5 65.5q32-46 36-119-1 16-1-119 70-76 70-104zM2184 1163q0-62-148-134-125-61-165-61h-72l-14 13v38q67 29 204 98-32 36-86 36-16 0-63-22-56-24-73-28 0 3-6.5 8.5t-6.5 20.5q0 23 58 79 55 51 81 61 10 3 46 3 53 0 141-31 104-37 104-81zM3064-260q0-42-37-79-33-33-59-33-14 0-44 23-24 19-49 38-27-10-50-44-18-28-62-28-39 0-85 45-43 42-43 68 0 33 27.5 68t54.5 35q12 0 55.5-26t56.5-26q12 0 54 41t53 41q20 0 74-51.5t54-71.5zM3167 318q0-154-63-206-32-26-197-59-344-67-451-67-67 0-140 24-87 29-99 71-21 85-26 154-2 8-14 27h-28q-52-1-419-106-108-31-171-93 37-14 111-41.5t74-127.5q0-68-4-81-8-35-53-81-83-87-346-180-136-47-283-47-389 0-389 348 0 189 136 326h37q0-4 5.5-12t5.5-23q0-13-46-107.5t-46-106.5q0-58 59-135 46-62 82-84 69-42 202-42t293 55q148 54 214 114-15 36-136 58-110 21-110 85 0 108 251 243 128 68 262 118-3 25-50 49t-100 24q-39 0-120-60h-37v64q-1 18 30 59.5t63 65.5q63 46 131 46 8 0 108-44 107-47 154-56 240-48 336-48 35 0 64 4 14-13 14-36 0-17-27-61-29-47-48-53-24-1-62-3-51-2-58-35 40-70 112-90 32-8 113-8 26 0 191 24 188 27 294 49 43 10 79 44-9 18-63 111-39 69-39 84 0 58 43 117 62-10 112-97 49-85 49-174zM1733-532q0-34-197-135-133-67-267-135h-45q-13 14-13 36 0 52 34 72 99 60 269 141 163 78 184 78 15 0 23-5.5t12-5.5v-46zM607 63l-13-20q-165-47-319-47-200 0-200 77 0 47 53 92 46 23 144 78 32 19 59 61 20 29 51 29 27 0 45-33 17-29 17-58 0-14-24-62-35 13-54 51-31-20-94-63.5t-95-64.5q35-25 144-25 28 0 90.5 4t90.5 4q76 0 105-23zM2921 1293l-25 23-36-35 23-25q38 0 38 37z" glyph-name="uniFB7E" horiz-adv-x="3176" unicode="&#xfb7e;"/><glyph arabic-form="final" d="M4531 1457q0-50-44-74-383-208-433-207h-55v64q-1 33 64 64 42 16 123 48 41 16 156 82 100 59 113 59h62q14-14 14-36zM3732 1288q0-62-51-62-13 0-41 15.5t-41 15.5q-14 0-55-40-64-64-69-68-25-22-133-79-127-68-169-68h-54v38q7 4 197 123 114 72 181 140-72 83-72 118 0 41 50 122 57 93 114 93 72 0 72-131 0-32-5-72-4-36-4-35 80-87 80-110zM4469 300q0-156-51-260-61-124-237-273-52-45-136-52-27-4-103-4-186 0-250 67 32 26 114 32 68 4 136 6 93 8 247 144 160 142 188 258l-6 36q-48-57-68-67-10-5-48-5-164 0-164 190 0 67 36 156 46 115 117 115 59 0 137-106 62-86 84-154 4-12 4-83zM3548-289q0-32-20-69-24-43-57-43-9 0-102 62-28-30-56-59-24-23-51-23-41 0-92.5 44.5t-51.5 73.5q0 38 36 69 31 27 56 27 13 0 56.5-25.5t56.5-25.5q10 0 57 41t60 41q39 0 75-43 33-39 33-70zM3620 356q0-37-23-109-24-77-45-92-63-47-100-52-224-33-278-33-11 0-57.5 4.5t-59.5 4.5q-50 0-54-2-15-9-62-88-146-2-250 22-18 5-62 38-41 30-54 30-9 0-42-23-38-29-53-35-56-23-140-23-67 0-107 17-55 24-145 105-22-23-67-67-90-85-198-85-79 0-124 71.5t-66 71.5q-5 0-63-41-65-46-93-59-102-45-281-79-186-36-335-36-195 0-326 50-202 77-202 262 0 66 31 130 21 45 94 150h36q13-1 13-24 0-13-36-90t-36-90q0-118 215-187 152-48 272-48 79 0 428 74 76 16 113 29 75 27 110 69 4 5 31 67 21 47 54 58 37 0 43-35-3-27 6-81 49-99 157-99 81 0 152 71.5t94 71.5q24 0 98-56.5t167-56.5q112 0 175 67 41 62 82 123 45 67 112 67 11 0 108-64 109-71 150-88 55-23 192-23 313 0 313 82 0 14-39 73-52 80-61 94-2 12-2 38 0 94 57 113 64-36 113-133 45-88 45-154zM1132 1201q0-32-35-66-3 0-93 61-90-64-180-127-160-108-190-108h-54v38q157 126 326 243-70 66-73 71-8 12-8 52 0 48 46 127 55 93 117 93 77 0 77-125 0-36-6.5-82t-6.5-42q80-83 80-135zM2913-438q0-30-123-94-98-50-177-77-26-9-125-53-80-35-93-35h-44v64q0 30 203 117 264 113 301 135h58v-57zM2268-253q0-30-28-72-30-46-59-46-11 0-47.5 20.5t-49.5 20.5-54-30.5-54-30.5q-41 0-84 35.5t-43 66.5 32 67 65 36q14 0 51.5-25.5t50.5-25.5q14 0 41.5 35.5t66.5 35.5q26 0 69-32t43-55zM1173 576q0-20-36-62-37-45-62-45-10 0-44 25.5t-48 25.5q-13 0-51.5-36t-50.5-36q-16 0-117 73-4 39 25.5 85.5t66.5 46.5q11 0 51-25.5t51-25.5q12 0 50.5 35.5t51.5 35.5q26 0 69.5-35t43.5-62zM3589 1477q-5 6-18.5 13t-19.5 12q0-3-11.5-9t-11.5-21q0-18 13-30 12 0 48 35zM4305 403q-45 45-66 45-46 0-46-47 34-35 62-35 32 0 50 37zM2820 185q-74 99-111 99-21 0-41-47 87-65 117-65 15 0 24 6.5t11 6.5zM998 1405q-23 47-58 47-5-6-11.5-18t-11.5-18q22-45 70-45 0 22 11 34z" glyph-name="uniFB7F" horiz-adv-x="4475" unicode="&#xfb7f;"/><glyph arabic-form="initial" d="M2109 1661q0-55-44-82-151-95-472-286h-36q0 4-5.5 12t-5.5 23q0 75 505 363h44q14-13 14-30zM1965 985q0-41-38-80-32-33-54-33-11 0-50 25.5t-52 25.5q-24 0-42-35.5t-55-35.5q-34 0-75 25-43 28-43 57 0 33 35 67.5t62 34.5q11 0 49.5-15.5t52.5-15.5q13 0 49 36t49 36q25 0 68.5-35.5t43.5-56.5zM2058 258q0-186-123-257-85-50-257-50-104 0-139 12-89 28-114 135-46 199-95 589-41 326-41 375 0 82 45 148 37-9 47-56 3-36 7-71 24-211 78-635 8-56 15-110 13-76 36-124 30-65 100-82 26-7 102-7 257 0 257 81 0 27-38 82-32-31-99-78-6-4-48-4-143 0-143 175 0 90 46 172 53 94 133 94 100 0 173-171 58-134 58-218zM1053 1657q-10-32-35-77-116-106-535-349 0 4-6.5 12.5t-6.5 22.5q0 48 224 200 151 102 303 204zM1054 238q0-441-471-441-151 0-243 64-105 74-105 218 0 168 116 300h37v-66q0-13-30.5-79t-30.5-78q0-108 125-160 82-35 167-35 82 0 199 45 154 58 154 145 0 9-27 141-31 152-42 227-18 143-58 429-2 15-26 60-21 41-21 69 0 41 26 112 29 80 62 92 21-24 28-65 4-31 9-61 28-27 66-82 2-8 2-19 0-20-11-58-14-50-16-58-6-32 0-151 4-10 14-31 76-405 76-518zM1862 402v49q-34 32-56 32-28 0-55-32v-38q34-32 61-32 21 0 50 21z" glyph-name="uniFB80" horiz-adv-x="2061" unicode="&#xfb80;"/><glyph arabic-form="medial" d="M419 1492.5q-9-27.5-29-28.5-25 6-35 73-7 31-4 75 2 81 32 98 29 0 42-58 7-39 6-85-3-47-12-74.5zM1575 1740q0-27-201-153-137-84-273-167h-47v54q-1 15 36 50 34 32 58 44 58 29 222 133 137 86 150 86h55v-47zM1053 1726q0-50-100-115-64-36-128-73-73-47-236-149h-35q-13 13-13 30 0 63 221 196 183 109 277 141 14-14 14-30zM1523 1259q1-17-33-42-70-19-212-79 22-11 48-40 18-99 62-409 54-388 54-504 0-63-24-135-7-11-34-43l-157 961q16 90 41 167-9 1-44-32h-46q2 72-5 94-3 7-22 33-16 21-16 36 0 40 64 119 67 85 115 85 38 0 60-33 17-26 17-48 0-73-56-73 12 0-71 21l-17-16q46-46 103-46 13 0 61.5 16t60.5 16q15 0 31.5-6.5t19.5-6.5v-35zM961 789q0-16-27-64-30-53-50-53-40 0-128 62-4 39 25 84 31 48 67 48 28 0 70.5-27.5t42.5-49.5zM1084 257q0-51-27-137-29-95-59-101-192-43-273-43-208 0-232 158-33 204-68 603-5 56-27 206-21 138-21 148 0 50 4 61t40 72h36q5-12 19-34 21-171 61-533l10-198q8-126 37-221 28-89 182-89 45 0 122 19 82 20 104 39-5 17-67 97-56 74-56 102 0 35 20 68.5t46 33.5q67 0 114-115 35-87 35-136zM482 1559q4 54-11 98-19 76-84 79-84-23-89-122-6-54 10-93 22-82 81-89 44 1 65.5 35.5t27.5 91.5z" glyph-name="uniFB81" horiz-adv-x="1443" unicode="&#xfb81;"/><glyph arabic-form="isolated" d="M2748 1616q0-18-19.5-42t-37.5-24q-11 0-33 15.5t-33 15.5q-275-236-396-235h-54v38q86 51 171 103 115 69 176 130-72 83-72 107 0 56 65 135.5t115 79.5q73 0 73-95 0-29-10-84-7-49-5-59 60-68 60-85zM2858 1262q0-58-42-77-45-9-123-27-49-17-154-77h-36q9 48-4 72-2 3-24 34-14 21-14 35 0 44 73 114.5t127 70.5q66 0 66-72 0-29-23-47-17-14-29-14-4 0-18 9.5t-33 9.5q-17 0-41-7 0-17 18-31 11-2 80-2 88 0 177 9zM2870 214q0-2-15-107-9-64-39-111h-36q2 143-5 207-18 140-72 461-48 289-48 297 0 57 43 168h37zM2031 1362q-46-96-93-125t-132-59q-77-27-99-27h-42l-23 26q75 43 204 132-25 16-66 16-68 0-111-51-17 11-27 11v33q0 48 71 86 61 34 108 34 41 0 104-19 78-24 106-57zM2553 455q0-31-41-90-44-64-77-64-10 0-30 15.5t-31 15.5q-169 0-429-62-266-64-303-118 18-27 141-62 104-29 104-90 0-21-21-76-24-59-45-82-103-105-284-164-158-53-310-53-158 0-269 72-136 86-136 251 0 81 50 202t108 171q37 0 37-30 0-13-46-128t-46-129q0-71 52-123 72-73 138-98 61-24 163-24 110 0 252 42 153 43 194 97-18 16-154 54-102 29-102 104 0 102 230 222 173 90 241 102-9 14-74 49-67 37-90 37-11 0-62-33-59-39-88-49-14 14-14 41 0 62 95 136 86 68 131 68 7 0 136-57 138-61 197-74 218-47 310-47 32 0 59 4 14-14 14-30zM1959-395q0-49-33-68-134-76-421-198h-35q-13 14-13 31 0 61 81 98 54 18 106 37 88 40 268 130h34q13-13 13-30zM772 205q-71-48-262-48-261 0-261 77 0 35 14 54 32 46 120 82 92 39 145 103h58q0-3 10.5-15.5t10.5-27.5v-87l-23-5q-11 2-54 45-55-41-161-95-9-3-28-14 0-17 8-23 141-23 423-46zM2613 1793l-47 13q-4-10-4-19 0-27 39-42z" glyph-name="uniFB82" horiz-adv-x="2879" unicode="&#xfb82;"/><glyph arabic-form="final" d="M4103 1191q1-19-205-141-134-79-268-159h-36q0 4-6 12.5t-6 23.5q0 52 35 76 105 69 258 156 155 89 174 89h54v-57zM3346 1459q0-66-46-66-12 0-40 20.5t-41 20.5q9 0-158.5-117.5t-253.5-118.5l-13 13v27q154 104 317 242-20 25-58 79-3 12-3 38 0 50 54 129 59 86 115 86 81 0 81-127 0-35-7-82l-6-39q2-4 35-53 24-36 24-52zM3367 1137q-90-36-270-112h-46q0 2 4.5 22.5t4.5 32.5q0 10-20.5 37t-20.5 40q0 19 55 89 61 75 95 75h62l13-13v-58q-38-32-56-32-15 0-25.5 5.5t-13.5 5.5l-17-17q34-45 66-45-27 0 156 20l13-12v-38zM4125 256q0-204-156-375-161-178-361-178-127 0-257 24-51 9-96 51 11 48 81 48 14 0 77.5-10t76.5-10q141 0 340 137 208 142 208 262 0 10-2 20-25-16-81-71-22-21-66-21-75 0-113 62-30 47-30 112 0 67 39 141 51 94 130 94 99 0 162-123 48-93 48-163zM3357 235q0-35-24-106-22-66-34-77l-157 843q0 41 43 127h37q135-603 135-787zM2998-262q0-36-212-147-149-79-252-123h-34q-13 14-13 36 0 59 86 103 56 24 111 47 79 48 289 142 14-12 25-12v-46zM1340 1244q0-9-34-77-11 4-57 30-38 21-52 21 1 0-135-104-149-115-238-161h-45q-12 1-12 24 0 13 120 114 151 127 197 174-82 101-82 122 0 45 51 124 59 96 128 96 33 0 52-15 24-41 27-119v-125q80-86 80-104zM2435-220q0-24-32-64-34-43-65-43-12 0-61 25.5t-62 25.5q-12 0-58.5-41t-58.5-41q-36 0-81 38-42 36-42 59 0 25 30 64 35 43 67 43 13 0 51.5-20t50.5-20q24 0 54.5 36t63.5 36q39 0 88-29 55-33 55-69zM2988 292q0-35-30-104-34-76-61-76-45 0-169.5 41t-117.5 41q-14 0-45-38-42-54-49-60-71-66-163-66-75 0-146.5 46.5t-67.5 46.5q-16 0-100.5-71.5t-165.5-71.5q-41 0-70 23-45 40-131 109-15-24-69-68-129-62-333-109-210-48-365-48-159 0-310 68-197 86-197 239 0 94 95 234h37q0-20-15-75t-15-66q0-123 203-190 136-46 237-46 27 0 150 18 144 19 223 39 62 14 125 28 78 19 130 50 17 11 42 57 30 59 50 84h36q11-41 35-104 12-22 79-52 65-28 93-28 46 0 149 66.5t117 66.5q13 0 110-41t110-41q85 0 164 101 64 94 129 188 74 100 142 100 76 0 127-137 37-99 37-154zM1288 641q-49-109-107-109-13 0-51 20.5t-51 20.5q-10 0-50-40.5t-58-40.5q-15 0-132 84 51 130 101 130 12 0 56-25.5t57-25.5 56.5 36 56.5 36q36 0 122-86zM3212 1678h-36l-34-34q23-47 69-47 1 3 1 81zM3951 364l-23 24q-16 4-41-19-22-21-29-37l25-25q47 11 68 57zM2845 321q-30 89-66 89-22 0-45-28-22-25-22-42 54-30 94-30 23 0 39 11zM1186 1407q-8 37-46 77-5-5-17.5-22.5t-18.5-22.5q24-46 52-46 16 0 30 14z" glyph-name="uniFB83" horiz-adv-x="4141" unicode="&#xfb83;"/><glyph arabic-form="final" d="M2152 1556q0-29-185-145-140-82-280-166h-34q-13 13-13 35 0 50 33 72 391 262 438 262 16 0 41-24v-34zM2162 963q0-31-33.5-64t-63.5-33q-13 0-51 20.5t-51 20.5q-12 0-51-35.5t-52-35.5q-38 0-83 38.5t-45 63.5q0 34 36 69 34 33 61 33 12 0 53.5-20.5t54.5-20.5q12 0 53 36t54 36q28 0 73-42t45-66zM1220 1576q0-32-192-148-152-92-303-183h-44q-14 13-14 35 0 57 226 190 140 76 280 153h47v-47zM2183 262q0-116 0-111-6-51-46-102-75-94-328-94-17 0-47-1.5t-43-1.5q-115 0-158 140-61 199-110 604-36 308-36 385 0 18 18.5 61.5t35.5 60.5q26 0 33-12 25-53 31-104 4-47 11-133 45-411 88-675 1-9 41-81 42-79 167-79 51 0 150 28 121 35 121 74 0 8-26 62l-70-58q-37-24-84-24-148 0-148 179 0 72 47 156 57 105 142 105 71 0 137-108 51-82 70-163 4-16 4-108zM1210 278q0-94-25-207-21-99-196-179-153-70-265-70-125 0-217 85-96 87-96 212 0 166 126 327h35q13-13 13-31 0-12-36-107t-36-107q0-100 95-158 77-47 162-47t201 45q157 61 157 160 0 46-32 270-39 281-85 419-10 33-40 71-17 23-17 89 0 120 64 215h47q11-24 23-118 7-58 70-88 0-29-20-93.5t-20-74.5 11-48q14-41 16-63 11-111 43-261 22-103 22-241zM2008 433q-44 44-61 44-21 0-51-34v-46q47-23 56-23 19 0 37.5 21t18.5 38z" glyph-name="uniFB85" horiz-adv-x="2192" unicode="&#xfb85;"/><glyph arabic-form="isolated" d="M3694 242q0-77-44-188h-37l-135 880 12 100q5 42 43 83 8 0 25-15.5t19-29.5q31-185 76-508 41-298 41-322zM3355 999q0-53-141-115-118-53-145-53t-41 14q1 27 62 59 69 37 82 59-13 15-28 15-12 0-38.5-12t-43.5-13l-13 13-11 24q52 108 149 108 85 0 168-34v-65zM3119 1378q1-35-215-158-314-180-320-183h-36v75q-1 34 53 63 36 19 279 155 171 95 185 94h54v-46zM3925-203q9-5 5-35-3-29-14-35-118-47-349-153h-36v43q-1 12 19.5 32t20.5 31q0 25-58 58-4 14-4 34t4 33q38 54 121 151 15 16 55 16 34 0 62-27 25-24 25-45 0-22-24-47t-43-25q12 0-70 21l-8-7v-18q40-35 54-41t55-6q11 0 60 6 66 9 125 14zM4041-403q-23-41-101-73-63-24-127-47-77-39-236-120h-34q-13 14-13 31 0 52 43 78 94 54 241 122 143 66 162 65h65v-56zM2711 473q0-69-43-163-7 0-25-11-8 56-14 111-11 68-35 127-6 17-50 69-38 45-38 67t16.5 44 39.5 22q74 0 118-125 31-87 31-141zM3314-253q0-31-43-69-39-34-53-34-26 0-75 35-54 40-54 72 0 24 36 64 39 44 72 44t76-44q41-43 41-68zM3325 355q0-48-29.5-125.5t-54.5-91.5q-49-13-145-47-34-15-56-75-13-41-26-83-155-320-436-320-80 0-181 32-118 37-137 86 12 22 48 22 19 0 52-7t38-8q57-2 98-2 153 0 301 116 142 112 170 236-82 60-82 118 0 82 62 82 12 0 55.5-15t56.5-15q41 0 90 16 63 19 63 50 0 26-68 100-3 13-3 44 0 55 33 107h35q44-22 82-102 34-72 34-118zM1542 553q-9-26-96-54-82-26-134-26h-146q-145 0-145 72 0 18 26.5 56.5t57.5 61.5q38 15 113 57 23 16 49 55 17 25 51 25 36 0 44.5-25t16.5-50q0-18-5.5-35.5t-5.5-21.5q-10 0-32 15t-33 15q-15 0-82-48-105-77-108-79 67-26 144-26 107 0 285 8zM2238-71q0-42-13-58-31-38-162-97-109-45-319-140h-46q0 4-5.5 12.5t-5.5 23.5q0 59 54 82 431 189 458 189 14 0 25-6t14-6zM847 1007q-33-32-56-32-10 0-35 10t-37 10q-13 0-58-43-66-63-82-76-86-70-196-110-1 0-40-21-29-16-45-15h-54q26 39 176 142.5t202 178.5q-72 89-72 123 0 52 54 124 57 76 110 76 85 0 85-89 0-31-13-86-10-47-8-54 3-6 69-70v-68zM2444 329q0-235-168-235-11 0-107.5 15.5t-113.5 15.5q-10 0-114-27-126-32-177-42-262-54-502-54-146 0-368 31-16-13-42-106-21-78-71-78-95 0-145 126-14 31-12 74 1 48-3 61.5t-17 24.5q-258-7-258-168l61-610q0-86-23-142h-37l-93 726q11 119 28 165 28 86 107 137 93 62 236 68 28 23 52 69 40-9 89-62 65-71 90-89.5t111-40.5q130-32 330-32 222 0 394 37 40 3 81 5 60 9 75 46 4 35 17 112 5 32 41 96 32 60 36 99v107q4 60 35 101 84 9 272-141 61-45 161-148 35-52 35-141zM2353 293q-63 79-153 149v-55q-5-119 91-119 40 0 62 25zM2107 360q0 20-26.5 51t-45.5 31q-25 0-54-45-24-36-27-54 65-44 91-44 17 0 39.5 22.5t22.5 38.5z" glyph-name="uniFB86" horiz-adv-x="3710" unicode="&#xfb86;"/><glyph arabic-form="final" d="M3394 1517q1-19-456-308h-55v52q0 33 104 96 67 38 133 76 78 51 227 141h47v-57zM3087 999q0-45-23-83-27-48-74-48-76 0-76 77 0 108 76 108 42 0 97-54zM3354 264q0-169-126-247-96-60-248-60-82 0-151 37-101 52-118 162-27 177-102 610-64 373-64 383 0 85 57 129 44-47 61-139 9-66 17-132 25-163 76-429l34-258q48-189 211-189 48 0 130 23 99 28 131 65v50q-2 1-7 16-4 10-19 10-114-72-139-72-72 0-117 65-36 51-36 104 0 94 46 167 54 84 143 84 109 0 173-162 48-119 48-217zM2226 1609q2-52-53-83-380-202-1136-610-187-103-554-324h-37v45q-1 54 54 93 18 13 379 222 219 128 655 362 221 115 668 342 15-11 24-11v-36zM2841-214q-37-22-177-77-113-44-174-98h-36q-4 27 8 63 11 41 11 43 0 11-25.5 45t-25.5 47q0 57 64.5 128t120.5 71q81 0 81-71 0-27-17-49.5t-39-22.5q-10 0-71 31l-27-27q9-45 114-45 11 0 68 7 70 7 102 10 6-5 23-20v-35zM2944-330q0-50-121-109l-138-58q-26-12-154-87h-47v54q0 52 395 229h52q1-2 2-2 11-7 11-27zM1572 913q-12-33-25-66-20-55-59.5-78.5t-112.5-49.5q-69-25-90-25-42 0-54 22-7 12-7 55 0 79 57 128 12-28 42-72 34 7 55 54 25 62 45 79 19-9 43-72 25 12 50 43 42 49 42 50zM1521 443q0-37-53-76-44-31-60-31-43 0-79 36-33 33-33 61 0 27 29 65 32 43 63 43 20 0 76.5-40t56.5-58zM2443 412q0-144-110.5-263t-303.5-185q-242-84-359-111-101-23-236-29-241-10-348-10-6 0-130 20-130 21-178 23-110 8-313 182t-203 261q0 25 25 25 27 0 98-69 88-85 100-93 159-105 397-152 116-23 368-23 269 0 424 29 192 36 495 161 36 15 95 55 86 59 86 98 0 12-41 102t-41 102q0 51 34 117h46q67-84 83-133 12-32 12-107zM3159 420v35q-23 18-56 45-18-13-46-34v-35q21-19 54-21 32-3 48 10z" glyph-name="uniFB87" horiz-adv-x="3366" unicode="&#xfb87;"/><glyph arabic-form="isolated" d="M1806 1411q0-86-92-161-85-69-169-69-12 0-40.5 10.5t-41.5 10.5q-21 0-72-51-9 4-17.5 9.5t-8.5 20.5q0 26 36 76 34 46 49 53 23 3 61 16 28 18 60 63 25 37 52 73 21 26 81 26 36 0 69-24t33-53zM1068 1444q0-28-22-44-102-61-263-143-169-86-190-86-23 0-46 23v36q52 47 257 147 189 92 199 91h42zM1622 168q0-63-45-173-53 25-55 65 7 49 7 143-9 72-34 215-89 396-89 477 0 29 25.5 77t51.5 56q26-12 32-56 33-202 67-404 40-252 40-400zM1027 1103q1-97-177-150-7-3-50-28-35-20-64-20-77 0-77 87 0 30 27 90 32 72 68 78-5 22-5-113 8 0 27-19 31 46 103 143 29-43 25-74-8-7 16-7 22 0 47 59 12 31 23 62h37v-108zM525 970q1-39-196-140-128-76-198-99-15 14-15 36 0 43 43 72 290 188 312 188h54v-57zM1283 229q0-95-41-172-50-93-143-93-115 0-179 122-49-53-98-107-51-46-122-46-129 0-191 183-61-61-109-88-5-3-48-3-50 0-98 15-66 22-66 62 0 58 97 154 78 77 172 139 24 16 54 64 43 69 50 78l18-14q9-46 15-125 6-84 12-169 27-123 124-123 51 0 98 36t52 82q4 29 4 61 0 55-14 152.5t-14 137.5q0 84 42 135 35-10 54-127 13-128 26-257 37-189 152-189 51 0 51 41 0-4-46 191t-46 229q0 86 44 143 23 0 44-34 8-107 27-164 79-239 79-314zM1692 1364h-57q-35-33-31-59 64 22 88 59zM505 260q0 26-24 51-62-31-129-98 49-25 71-25 24 0 50 18 32 22 32 54z" glyph-name="uniFB88" horiz-adv-x="1631" unicode="&#xfb88;"/><glyph arabic-form="final" d="M1487 1724q-22-70-73-105-49-32-126-65-73-30-93-29h-65v47q51 24 153 89-28 16-56 16 2 0-127-50v43q-1 40 69 86 65 44 109 44 60 0 130-28 63-25 79-48zM2194 1149q0-23-264-188-193-117-384-235h-47v78l648 401h47v-56zM1447 1275q-25-61-138-104-135-50-172-87h-36q-6 10 0 35 8 33 8 41 0 9-20.5 40.5t-20.5 46.5q0 46 66 119 70 76 123 76 67 0 67-67 0-30-19-53.5t-43-23.5q-8 0-33 10-22 8-39 3 7-44 72-44-6 0 79 8 68 6 106 0zM2163 290q0-62-22-134-28-87-72-114-20-13-155-47-181-48-329-48-250 0-299 209-41 172-82 517-34 284-34 333 0 88 51 88 39 0 60-111 7-60 15-120 11-73 31-276 15-161 71-347 10-33 64-75t82-42q13 0 56.5-1.5t56.5-1.5q283 0 405 99-4 41-48.5 86.5t-44.5 91.5q0 3 33 102h46q115-126 115-209zM2194-212q0-23-32-64-35-43-65-43-13 0-51 25.5t-51 25.5q-14 0-44.5-41t-68.5-41q-39 0-73.5 32.5t-34.5 64.5q0 27 35 67.5t58 40.5q12 0 50.5-25.5t51.5-25.5q12 0 56 41t56 41q30 0 71.5-35t41.5-63zM843 1012q0-53-103-113-11 0-46 20.5t-45 20.5q-13 0-52-36t-51-36q-33 0-78 35t-45 62q0 36 44 75 38 33 59 33 10 0 46.5-20.5t49.5-20.5q14 0 52.5 35.5t50.5 35.5q32 0 76-37 42-35 42-54zM1089 161q0-39-19-102-21-72-49-100-67-67-200-136-142-73-249-88-18-3-98-3-156 0-264 77-125 91-125 256 0 69 43 172.5t93 158.5h58v-36q0-13-33-65-39-61-46-79-13-31-13-80 0-40 43-99 102-141 270-141 103 0 260 61 151 59 216 120 0 19-18 30-75 24-151 24-11 0-20.5-5.5t-25.5-5.5q-112 0-112 68 0 60 73 112 45 32 113 65 8 9 8 32 0 8-13 44-9 10-90 88-50 49-50 88 0 28 15 63 20 45 51 45 64 0 174-156 26-36 26-105 0-68-62-173 16-11 131-39 64-15 64-91zM1150-253q0-56-209-181-118-65-235-131h-44q-13 14-13 31 0 50 119 120 64 33 129 66 73 49 196 121h45q12-2 12-26z" glyph-name="uniFB89" horiz-adv-x="2168" unicode="&#xfb89;"/><glyph arabic-form="isolated" d="M4533 1505q0-76-80-137-63-48-138-65-7-1-97-4-28 0-48-3-17-7-66-25v43q-1 25 73 84 28 7 71 27 46 56 154 157 22 15 49 15 35 0 60-34 22-29 22-58zM4871 312q0-161-101-225-74-46-221-46-78 0-100 7-60 18-77 89-54 227-83 464-18 172-36 345-2 17-15 85-12 59-12 75 0 23 18 58 21 40 50 54 32-53 46-155l16-146q11-149 50-450 8-48 15-95 12-63 32-98 34-59 121-59 67 0 157 23 9 2 28 14v38q0 13-36 67.5t-36 66.5q0 30 20 72 23 46 47 46 50 0 87-105 30-81 30-125zM3509 1715q0-63-64-95-485-239-536-237h-54v54q-1 42 640 314 14-15 14-36zM4809-179q0-27-34.5-72.5t-51.5-45.5q-7 0-107 62-2 8-2 18 0 45 20 86 25 50 63 50 26 0 69-35.5t43-62.5zM3386 1382q0-39-24-97-30-73-71-85-27-6-122-38-75-26-90-26-61 0-61 72 0 68 46 113 6-4 31-30 21-21 36-21 14 0 48 44 42 54 60 68 11-28 40-71 14 14 35.5 46t34.5 45q37 0 37-20zM5014-327q0-56-219-157-142-64-277-109-15 11-25 11v43q-1 41 206 130 134 56 269 112h33q13-13 13-30zM3295 922q0-26-38-69.5t-55-43.5q-38 0-83 43-40 39-40 59 0 24 40 70 38 43 53 43 32 0 78-43 45-41 45-59zM3459 747q0-39-45-74-37-28-58-28-13 0-54 20.5t-54 20.5q-12 0-58.5-41t-58.5-41q-38 0-80.5 30t-42.5 62q0 27 33 70t59 43q14 0 62-25.5t61-25.5q15 0 47 41t66 41 78.5-36 44.5-57zM2331 1181q1-23-60-80-58-55-85-64-132-44-147-44h-72l-13 13v37q7 5 173 89-30 35-82 35-10 0-131-71v34q-1 46 62.5 103t109.5 57q-9 0 245-64v-45zM3991 312q-34-230-154-230-63 0-179 71-32-33-89-88-32-24-116-24-12 0-66 20.5t-67 20.5q-15 0-21-6.5t-8-7.5q-67-38-155-38-62 0-125.5 31t-54.5 31q-6 0-59-31-54-33-77-38-150-33-278-33-13 0-92 10t-92 10q-25 0-52.5-35.5t-75.5-35.5q-55 0-158 36-118 41-145 86-27-34-99-59-63-22-110-22t-103 22q-66 28-89 70-21-18-77-58-62-45-136-45-12 0-63.5 15.5t-64.5 15.5q-12 0-39-13.5t-37-14.5q-47-2-96-4-51-5-82-48-10-14-12-50-2-45-4-50-26-103-73-156-61-70-194-116-116-39-210-39-348 0-348 302 0 85 25 149 17 45 89 171 20 21 59 21v-56q1-13-40-107t-41-106q0-98 110-154 88-46 197-46 85 0 207 49 152 60 152 141 0 61-123 280 0 30 19 69 22 44 47 44 21 0 71-71.5t144-71.5q108 0 171 42 26 35 83 100h36q1-1 1.5-2.5t.5-83.5q0-46 62-46 60 0 102 64 70 104 85 119h36q0-18-4-65-5-49-5-72 34-46 154-46 104 0 179 64 12 10 102 118 54 63 108 63 51 0 90-44 69-79 92-97 43-33 136-59 85-25 143-25 33 0 120 13 113 18 170 40 18 9 40 45 37 60 41 65h47q8-23 14-95 14-27 95-27 103 0 172 33 25 12 51 78 7 9 41 42 5 0 18-5t18-5q1-13 1-25t-2.5-34-2.5-33q0-30 72-30 69 0 93 32 39 70 79 141h47q1-32 4-95 43-47 121-47 46 0 52 1 20 8 20 45 0-38-97 613-2 20-30 88-27 64-27 77 0 72 84 219h37q2-44 14-126 6-19 35-41 52-37 55-39-25-68-62-197zM1574-297q0-17-30.5-52.5t-53.5-46.5q-282-137-321-135h-65v54q-1 32 178 110 117 50 235 100h44q13-13 13-30zM4431 1459q-16 16-36 16-43 0-66-50h54q13-1 48 34zM2148 168q-44 66-67 78-17-18-46-46 38-57 82-57 15 0 20.5 8.5t10.5 16.5z" glyph-name="uniFB8A" horiz-adv-x="4881" unicode="&#xfb8a;"/><glyph arabic-form="final" d="M1023 1330q0-45-247-183-331-184-432-260h-34q-14 13-14 35 0 54 44 82 199 136 636 362h47v-36zM1689-142q0-51-123-123l-136-70q-53-32-175-99h-34q-13 14-13 36 0 59 198 167l236 114h35q12-1 12-25zM1760 365q0-18-22-75t-41-86q-7-3-54-3 4 0-244 61-53-77-56-81-45-54-88-60-39-5-123-16-25-11-28-54-1-34-1-67-14-163-165-260-134-86-303-86-168 0-263.5 84t-95.5 233q0 93 52 199 53 111 118 138 14-13 14-41 0-12-41-109.5t-41-109.5q0-115 111-175 81-45 176-45 103 0 208 41 140 54 140 148 0 73-51 176t-51 111q0 19 16 63 20 55 40 55 11 0 54-50 49-57 72-72 19-12 79-12 123 0 205 98 1 1 113 183 61 98 133 98 53 0 101-136 36-108 36-150zM706 497q0-37-25-78-28-45-62-45-22 0-106 52-4 7-4 18 0 39 23 84 27 51 56 51 16 0 65-28 53-32 53-54zM1617 421q-17 23-56 56-49-24-46-49 34-33 58-32h33q0 10 11 25z" glyph-name="uniFB8B" horiz-adv-x="1764" unicode="&#xfb8b;"/><glyph arabic-form="isolated" d="M4852 1596q2-12 2-25 0-94-104-176-95-74-179-74-12 0-28 5t-29 5q-19 0-115-71h-37v34q-1 16 41.5 61.5t82.5 73.5q30 3 81 26 41 54 83 109 57 74 110 74 47 0 92-42zM4371 1585q-12-82-106-137-79-46-150-46-38 0-51 14-1 25 46 50 68 37 77 45-9 35-67 35-29 0-90-50h-37v43q-1 38 74 86 66 44 89 44 37 0 114-31 74-29 101-53zM4648 292q13-111-44-199-11 0-36 33-14 130-67 509-48 343-48 353 0 118 79 158zM3778 1479q0-59-45-83-447-260-485-259h-54v54q-1 61 536 313h34q14-1 14-25zM3061 1423q0-71-136-144-112-61-157-61-9 0-55 23v36q45 24 143 85-57 31-88 31-13 0-63-34-59-38-83-47v54q-1 21 53 73 52 50 82 62 10 4 58 4 51 0 233-52 13-13 13-30zM2938 886q0-25-27-65-28-43-50-43-28 0-117 62-2 51 26 97t65 46q41 0 73-34 30-31 30-63zM3102 743l-36-68q-36-61-67-61-11 0-48.5 20.5t-48.5 20.5q-12 0-41.5-41t-65.5-41q-41 0-82 25.5t-41 56.5q0 45 44 82 37 31 58 31 25 0 87-41 11 9 62 58 35 34 50 34 27 0 129-76zM4238 302q-20-146-106-205-69-46-206-46-12 0-46 5t-47 5q-48 0-62-46t-102-46q-82 0-154 24-19 6-76 44-52 34-61 34-8 0-49-30-45-33-68-39-49-12-88-12-40 0-79 12-11 5-48 39-33 30-47 30-13 0-28-19-22-26-25-28-44-34-137-34-10 0-50.5 5t-51.5 5q-12 0-86.5-15.5t-87.5-15.5q-94 0-152 38-34 21-69 68-27 37-45 37-30 0-93-20-84-27-136-71-11-8-15-44-7-52-11-65-37-124-170.5-228t-250.5-104q-75 0-159 38-32 15-162 88v37q13 2 28 2 38 0 112-15.5t104-15.5q24 0 97 12 10 2 60 21 66 23 145 82 97 73 114 137 3 59 4 119 4 81 55.5 105.5t156.5 54.5q117 34 161 52 25 0 45.5-6.5t21.5-6.5q-17-27-17-49 0-47 77-73 57-19 120-19 103 0 124 48.5t48 73.5h46q-2-18-2-32 0-80 75-80 87 0 156 163 18 0 37-5t21-5q-2-22-10-64-5-36-5-53 0-56 78-56-15 0 86.5 16.5t161.5 66.5l100 108q86 86 138 86 31 0 75-49 59-64 95-88 76-48 183-48 136 0 165 36-23 216-86 644-4 23-32 81-26 54-26 68 0 34 39 117 38 81 59 99 35-46 38-147 3-4 98-59 4-10 4-22 0-34-27-93-19-40-37-80zM1289 1008q0-20-32.5-69t-48.5-49q-13 0-56.5 26t-56.5 26-61.5-41-61.5-41q-47 0-81 26-31 23-31 50 0 45 31.5 76.5t64.5 31.5q13 0 46.5-15.5t46.5-15.5q10 0 50.5 41t72.5 41 74.5-30 42.5-57zM1432 307q0-42-22-124.5t-43-118.5q-51-84-258-159-187-68-306-68-147 0-258 70-136 88-136 246 0 198 125 348h36q13-1 13-25 0-13-29-64-43-76-43-161 0-137 134-199 88-42 199-42 66 0 275 54 30 7 117 58 114 68 114 113 0 27-37 82-33-25-99-69-11-2-37-2-73 0-121 54-43 50-43 115 0 67 46 154 56 107 133 107 94 0 174-159 66-131 66-210zM2015-452q-24-80-24-81-9-19-39-37-89-51-231-119t-162-68h-42q-13 14-13 36 0 64 229 160 125 54 226 109h56zM1126-297q0-55-54-88-93-58-251-135-152-73-173-73h-43q0 4-6 12.5t-6 23.5q0 54 54 82 144 68 431 208h35q13-13 13-30zM4738 1514h-36q-14-7-54-48h47q43 18 43 48zM3634 179q-51 77-72 77-27 0-51-23v-36q67-33 82-33 26 0 41 15zM1238 468q-44 44-61 44-42 0-51-57l23-25h65q24 24 24 38z" glyph-name="uniFB8C" horiz-adv-x="4662" unicode="&#xfb8c;"/><glyph arabic-form="final" d="M2571 1552q0-68-248-208-67-45-206-129h-34q-13 13-13 35 0 57 102 118 68 36 136 73 130 97 249 142 14-15 14-31zM2028 1868q0-36-15-58-28-44-141-99-98-46-116-46h-42l-13 13v37q49 26 144 88-22 25-72 25-47 0-109-41-14 15-14 31 0 52 74 97 61 36 90 36 94 0 214-83zM2069 1411l-374-166q-8 8-22 25 28 64 28 78 0 12-20.5 42.5t-20.5 43.5q0 39 75 114.5t120 75.5q37 0 67-36 25-29 25-51 0-19-19-43t-37-24q-15 0-44 17-36 20-47 24l-27-27q8-38 45-45h68q7 0 56 5t75 5l41-11zM2305 946q2-49-27.5-95.5t-64.5-46.5q-37 0-91 54 0 33 18 79 27 62 68 62t97-53zM2571 278q0-186-115-263-90-60-269-60-198 0-237 106-42 113-74 345-23 191-45 383-14 108-31 215-2 9-26 54-22 43-22 59 0 27 18 63 24 45 59 45 53 0 85-211 0-1 29-286 12-134 24-269 22-176 73-261 43-69 183-69 76 0 157 21 109 28 109 76 0 3-27 57-16-10-75-57-33-25-66-25-84 0-126 64-33 50-33 120 0 83 42 161 52 95 132 95 114 0 184-157 51-115 51-206zM1158 672q0-28-31-70.5t-56-42.5q-11 0-51 20.5t-51 20.5q-13 0-48.5-41t-49.5-41q-36 0-89.5 38t-53.5 69q0 39 35 75 31 33 63 33 15 0 112-51 27 32 54 63 16 18 49 18 39 0 78-30.5t39-60.5zM1640 313q0-54-26-124-29-82-70-98-363-146-754-146-169 0-285 51-166 71-166 235 0 87 106 245 37 0 37-30 0-13-20.5-69t-20.5-69q0-98 137-150 103-39 222-39h174q79 0 287 41 266 51 266 112 0 12-44 61-55 61-66 75-2 12-2 28 0 24 18 60 22 42 48 42 72 0 121-104 38-78 38-121zM1311-163q0-38-223-145-171-81-292-126h-34q-13 14-13 31t14.5 43.5 29.5 33.5q93 37 276 119 118 60 218 101 14-11 24-11v-46zM2387 431q-8 23-48 36-35 11-63 8 0-10-6-17.5t-6-21.5q0-12 14-29 19-22 48-22 38 0 61 46z" glyph-name="uniFB8D" horiz-adv-x="2588" unicode="&#xfb8d;"/><glyph arabic-form="isolated" d="M1233 1293q-3-32-25-80-46-40-212-137-109-60-329-191h-44q-13 13-13 30 0 54 25 71 82 54 542 307h56zM1552-149q0-18-38-68-39-55-60-55-23 0-73 32-54 35-54 60 0 18 34 69 37 54 57 54 27 0 80.5-37t53.5-55zM1582 239q0-15-16-63-17-51-29-60-20 6-78 40-53 32-66 32-68 0-155-52-100-61-114-138-5-27-5-61 0-32 7.5-100.5t7.5-103.5q0-136-99-231-161 94-147 473-38 0-117.5-11t-89.5-11q-141 0-213 65-69 61-96 194-16 113-33 226-88 543-88 564 0 30 43 117h47q35-88 52-238 14-123 28-247 15-111 29-222 22-133 71-199 65-86 191-86 89 0 112 5 73 14 121 74 6 9 34 73 22 54 54 72h34q14-9 14-50 0-45-46.5-135.5t-46.5-151.5q0-47 16-71 17 25 46 102 28 75 55 111 63 82 158 143 99 63 171 63 43 0 92-33 56-37 56-90zM1807-412q0-37-211-160-126-70-253-140h-44q-13 14-13 30 0 61 125 125 113 55 339 181h57v-36z" glyph-name="uniFB8E" horiz-adv-x="1593" unicode="&#xfb8e;"/></font>
</defs>
</svg>
