<svg xmlns="http://www.w3.org/2000/svg"><defs><font horiz-adv-x="992"><font-face ascent="1638" bbox="-125 -1132 6134 2299" cap-height="594" descent="-410" panose-1="2 0 4 0 0 0 0 0 0 0" underline-position="-250" underline-thickness="100" unicode-range="U+000D-FEFC" units-per-em="2048" x-height="1360"/><missing-glyph d="M142 226v1362h700v-1362h-700zM284 368h416v1079h-416v-1079z"/><glyph arabic-form="final" d="M5525 1085q0-44-23-58-32-20-401-218h-44q-13 13-13 31 0 51 25 67 342 209 391 209h51q14-14 14-31zM5064 1311q0-45-73-110t-116-65q-50 0-177 22-12 13-12 30 0 41 43 67 39 11 101 46l70 78q35 34 72 34 92 0 92-102zM4869 241q0-174-78-220l-95 839q0 123 54 184 41-18 47-74 2-47 3-94 3-19 49-339 20-142 20-296zM5463 82q0-125-97-259-101-140-254-208-29-14-150-14-238 0-358 43v36q24 23 61 23 12 0 89-10t90-10q126 0 264 81 149 89 253 242l-8 36q-77-42-120-42-58 0-95 52-33 46-33 107 0 62 46 151 57 109 128 109 88 0 144-155 40-112 40-182zM4020 1311q0-46-157-107-443-169-444-169h-31l-24 24q9 27 34 62 131 65 352 151 206 80 229 80 41 0 41-41zM3876 860q0-13-10-40-13-31-14-37-37-43-106-60-43-10-88-20-80-38-84-38-29 0-63 29t-34 53q0 48 55 103 15-5 36-35 19-27 32-27 37 0 48 39 3 26 7 51 56 32 66 32 9-25 29-71 30 31 103 82 23-48 23-61zM3364 1303q-29-40-119.5-77.5t-146.5-37.5q-76 0-155 30.5t-91 30.5q-11 0-39-26-31-29-49-35-14 1-14 25 83 169 129 169 4 0 99-41t177-41q42 0 162 71h35q12-22 12-68zM2627 1592q-2-22-27-56-95-52-256-121-219-94-263-114h-36q0 4-5.5 12t-5.5 23q0 53 228 152 154 65 308 129h34zM3088 604q0-40-21-92-24-58-53-61-7 24-6 109 1 67-25 108-69 107-69 120 0 62 46 62 57 0 98-115 30-86 30-131zM2556 1254q0-12-31-70t-44-65q-3-2-93-27-12-3-65-23-39-15-54-15-82 0-82 72 0 15 18 54 23 50 26 58 4 0 17.5 5t18.5 5q4-27 29-81 24 12 55 49 49 57 56 64 8-5 23-35 14-27 28-27 13 0 41 28.5t44 33.5q13-2 13-26zM2433 813q0-19-34-57.5t-53-38.5q-32 0-73 26-45 29-45 61 0 18 32 52t55 34q15 0 65-27 53-29 53-50zM4460 271q0-129-85-218-80-83-187-83h-878q-27-48-93-133l-26 12q-4 11-4 25 0 18 11 55t11 57q0 40-36 72-9 3-34 3-11 0-57-26-50-28-70-33-260-53-385-53-111 0-222 44-9 4-49 28-31 20-46 20-12 0-51-17-42-19-55-22-254-42-431-42-103 0-217 33-3 1-91 89-96-62-130-80-60-29-135-47-91-24-181-48-39-9-209-9-192 0-334 44-214 65-214 211 0 51 49 138 44 78 77 107h37q2-20-13-81-16-66-16-93 0-158 410-181 47-2 91-2 21 0 165 25 158 27 249 49 45 11 112 64 73 57 101 117h47q0-43-4-61.5t-4-40.5q0-59 240-92 147 0 286 27 39 3 78 5 41 7 59 50-3 31 5 89 32 80 100 165 84 104 148 104 61 0 97-69 31-57 31-125 0-97-92-200 29-31 101-36-3 0 104 0 158 0 259 23 24 6 95 49 67 41 81 41t86-46 118-46h46q13 0 29 14 22 20 25 23 68 35 204 118 214 152 275 152 53 0 130-31 95-38 95-86 0-32-47-106-41-62-76-98 33-17 72-17 31 0 126 24 91 23 110 34 2 25 2 51 0 102-29 298-33 222-39 325-1 15-24 55.5t-23 73.5q0 47 33 108 35 66 84 96 23-14 26-59 5-60 12-76 25-11 60-42-62-189-62-197 0-12 36-260.5t36-261.5zM1952 594q0-88-33-152-7-1-25-12-10 72-38 198-7 22-55 96-44 69-44 80 0 17 17.5 41.5t34.5 24.5q56 0 105-136 38-105 38-140zM1112 558q0-17-32-47t-50-30q-13 0-48.5 20.5t-48.5 20.5-51-35.5-51-35.5q-33 0-75.5 34t-42.5 57q0 26 32.5 59.5t48.5 33.5q14 0 57-26t57-26q12 0 53 36t54 36q41 0 71-38 26-32 26-59zM1049-263q-46-42-269-134-205-84-217-83h-42q-13 13-13 35 0 48 54 73 394 178 448 178 15 0 25.5-6t13.5-6v-57zM5299 188q0 11-10.5 31.5t-10.5 24.5h-37l-22-22v-36q23 0 45-22 5 5 17.5 11.5t17.5 12.5zM4009 253q-134 34-128 34-45 0-148.5-60.5t-132.5-101.5h106q61-5 228 62 52 20 75 66zM2504 292q0 22-25 53-28 33-51 33-25 0-61-34-37-37-37-68 0-61 57-61 16 0 64 25 53 30 53 52zM4957 1275q-10 10-26 15-42-21-55-50h37q17 13 44 35z" glyph-name="uniFB51" horiz-adv-x="5460" unicode="&#xfb51;"/><glyph arabic-form="isolated" d="M2247 1225q0-34-126-106-164-85-492-262h-36q0 3-5.5 9t-5.5 20q0 47 54 78 505 291 546 291h52q13-14 13-30zM1294 1771q1-29-146-101-200-97-246-127h-45q-13 13-13 35 0 80 279 170 39 27 146 71 15-13 25-13v-35zM1049 1491q0-46-81-84-52-21-106-42-92-57-209-90-7 5-15 10.5t-8 21.5q0 49 32 67 275 147 322 147h52q13-14 13-30zM1183 1260q0-63-57-124-30-32-133-48-6-2-34.5-14.5t-42.5-12.5q-37 0-62 33-20 26-20 49 0 53 78 101 5-19 30-60 36 41 102 112 11-25 41-82 17 28 33 56 23 37 52 35 0-3 6.5-16.5t6.5-28.5zM2411 313q0-42-45-130-25-47-177-119-145-68-198-68-10 0-85-5t-89-5q-13 0-84.5 10t-84.5 10q-23 0-62-73-24-44-49-89h-37v43q0 14 17 68 20 63 24 87-44 46-77 46 1 0-95.5-61.5t-201.5-61.5q-13 0-125.5 25.5t-125.5 25.5q-11 0-150-30.5t-152-30.5q-12 0-27 8-17 8-25 9-233 35-233 379 0 52 6 143t6 124q0 21-2 37l-37 457q0 59 67 113 58-95 62-241 1-60-2-187-5-147-5-210 0-260 54-390 16-37 94-61 59-17 104-17 54 0 125 39l9 18q-3 16-3 33 0 110 86.5 230t166.5 120q67 0 96-106 16-61 16-125 0-50-82-173 16-25 50-28-20 2 52 2 104 0 206 61t97 61q10 0 82-40.5t87-40.5q41 0 241.5 143t259.5 143q80 0 156-37 90-43 90-106zM1029 830q0-17-33-57t-49-40q-44 0-81 35-32 30-32 47 0 21 25 59 28 44 52 44 29 0 72-29 46-30 46-59zM2267 259q-110 44-148 44-75 0-138-42-12-8-133-108 10-1 39.5-7.5t42.5-6.5q82 0 192 35 122 39 145 85zM1070 324q0 61-46 61-35 0-71.5-39t-36.5-68q0-52 47-67 63 40 75 50 32 28 32 63z" glyph-name="uniFB52" horiz-adv-x="2431" unicode="&#xfb52;"/><glyph arabic-form="initial" d="M4958 1380q0-55-197-157-52-36-164-106-26-6-85-23-25 24-25 35 0 44 191 156 116 63 233 126h34q13-14 13-31zM4558 1467q0-83-94-151-83-59-151-59-11 0-40 10.5t-42 10.5q-10 0-34.5-15t-34.5-15q-13 0-13 24 0 40 46 81 43 37 72 37 13 0 15.5-5t15.5-5q21 0 81.5 77t112.5 77q20 0 43-24t23-43zM4671 858q0-26-22-58-24-34-50-34-33 0-57.5 21.5t-24.5 44.5q0 29 29.5 63.5t52.5 34.5q29 0 50.5-22t21.5-50zM4845 259q0-289-240-316-12-1-51-15-35-12-46-12-59 0-136 32-91 38-97 85-17 123-38 349-7 193-20 553-1 25-19 87t-18 72q0 25 43 91h35q45-43 53-249 1-145 2-288 10-112 27-338 3-62 7-89 9-56 29-92 27-50 116-50 74 0 164 23 118 28 118 75 0 12-11 24-15 16-18 23h-26q-49-52-109-52-47 0-87 53-36 49-36 85 0 50 46 155 56 126 113 126 80 0 146-143 53-118 53-189zM3647 1440q-8-34-33-78-250-118-442-186h-33q-13 13-13 30 0 16 19 43t35 35q91 44 232 100.5t160 55.5h75zM3565 1047q0-34-22-89-24-61-52-77-19-10-61-17-54-7-63-10-15-4-49-27-30-20-44-20-34 0-58 33-19 27-19 49 0 31 52 92 17-62 45-62 46 0 69 53 25 59 67 69 0-60 28-60 16 0 36 34 17 29 33 57 38 0 38-25zM3524 556q0-36-43-60-32-17-48-17-50 0-103 77 28 33 97 97 97-65 97-97zM3934 310q0-41-21-122-20-77-35-103-27-48-101-68-62-11-123-22-26-13-35-44-49-160-186-273-133-110-267-110-128 0-367 74 0 5-5 18.5t-5 18.5q51 6 164 0 137-9 121-9 116 0 261 99 152 103 210 233-32 17-59 67-23 42-23 62 0 11 10.5 40t10.5 39q1 1 3 2 9 11 28 11 9 0 48-29 97-42 146-42 17 0 69 22t64 34q-20 241-61 664-3 17-27 73-25 53-25 72 0 41 75 188h47l4-86q14-48 78-88-5-35-33-106-27-66-27-77zM3207 459q0-56-57-113-14 50-48 146-9 21-47 70-32 42-32 56 0 9 23 55 68-5 120-92 41-71 41-122zM2255 1242q0-37-215-163-177-103-303-160-15 15-15 41 0 48 211 173 127 72 254 143h56q0-3 6-11t6-23zM2654-166q0-33-21.5-57.5t-44.5-24.5q-30 0-63.5 26t-33.5 56q0 35 21 62 25 31 65 31 34 0 57-34 20-28 20-59zM3094 210q-45-85-68-99-15-11-85-11-13 0-107.5 10t-107.5 10q-124 0-326.5-61t-231.5-61q-13 0-15.5 5t-14.5 5q-47 0-86-28-144-422-508-422-49 0-134 26-97 30-138 68 33 9 190 9 69 0 244 53 26 8 134 113 118 114 118 156 0 10-36 54.5t-36 57.5q0 28 54 107-8 0 86-38 31-12 121-12 71 0 151 14 105 20 131 54 0 9-18 20-35 18-71 36-39 19-75 19-12 0-59-11-56-14-92-19 0 4-6 9.5t-6 20.5q0 17 49.5 72t85.5 77q59 35 90 35 7 0 109-64 110-70 164-87 95-33 276-82 73-8 218-36zM1763 448q0-92-67-153-16 28-20 86-4 74-9 92-5 25-53 91-45 64-45 74 0 18 19 42.5t38 24.5q63 0 107-127 30-89 30-130zM2705-453q0-40-114-94-104-49-127-46h-188q84 47 220 109.5t154 62.5h42q13-14 13-32zM1078 664q0-18-36.5-50t-55.5-32-98 50q-5-4-60-52-32-29-47-29-38 0-67 33-26 29-26 48 0 40 44 70 33 23 49 23 9 0 86-52 82 82 103 82 40 0 75-33 33-32 33-58zM1508 305q0-84-67-182-35-53-223-122-63-9-176-27-215-37-205-37h-113q-125 0-269 44-227 68-227 207 0 54 60 148t110 112q14-2 14-25 0-11-36-67.5t-36-71.5q0-63 80-117 60-41 121-54 6-2 153-16 12-2 47-10 31-8 45-8 81 0 315 42 304 54 304 117 0 11-41 63t-41 65q0 28 24 69 25 44 48 44 50 0 86-85 27-61 27-89zM1047-160q0-68-240-185-169-82-278-117-14 14-14 36 0 56 82 98 53 20 104 42 6 3 114 51 73 40 218 100 14-1 14-25zM4681 361q-8 22-16 45-13 32-40 32-14 0-22.5-5.5t-12.5-5.5v-58q21-22 52-22 25 1 39 14zM4467 1417q-10 10-26 16-42-22-56-50h37q18 12 45 34z" glyph-name="uniFB54" horiz-adv-x="5075" unicode="&#xfb54;"/><glyph arabic-form="medial" d="M2480 1239q0-17-16-47-133-81-335-188-194-103-209-102h-44v43q0 33 239 159l350 176q15-15 15-41zM2357 635q0-31-44-59-36-23-54-23-22 0-54.5 23.5t-32.5 42.5 34 53 53 34q30 0 64-25t34-46zM1711 1116q0-50-103-112-91-52-118-51h-63q-3 10-12 24 34 27 102 84-4 34-41 34-14 0-56-22-55-30-76-38v44q-2 51 145 124 12 5 28 5 13 0 161-45 33-10 33-47zM1200 1377q0-40-80-91-54-30-107-60t-145-89h-47v44q0 42 158 133 137 78 206 98 15-14 15-35zM2521 138q0-141-140-309-146-177-291-177-10 0-132 10.5t-139 10.5q-74 0-168 55l12 26q43 6 128-1 103-9 95-9 52 0 161.5 26.5t137.5 47.5q254 191 254 279 0 11-67 94t-67 96q0-7 33 101h33q19 1 76-64t60-83q14-102 14-103zM1057 1065q0-43-133-120-109-63-148-73-45-15-136-43-4 6-11.5 18.5t-12.5 17.5q18 33 64 83 258 148 311 146h54q0-3 6-9t6-20zM1742-72q0-16-39-53.5t-58-37.5-53 34-34 52q0 19 37 58t56 39q29 0 63-42 28-37 28-50zM2059 215q0-51-74-86-55-27-84-27-13 0-113 10.5t-112 10.5q-55 0-167-36-185-60-201-64-59-3-173-36-18-10-33-59-18-62-30-79-115-174-205-242-105-78-251-78-109 0-316 74 0 5-5.5 23.5t-5.5 23.5q36 13 97 5 174-23 143-23 126 0 253 74 24 13 119 109 115 113 115 154 0 12-59 74-3 14-3 39 0 82 62 82 12 0 68.5-15.5t68.5-15.5q64 0 273 69 0 18-20 31-117 84-155 84-13 0-76-26-71-29-97-34v44q-1 37 104 111 97 69 120 69 11 0 111-62 109-68 142-79 267-94 394-94h43q35-1 54-1 2-1 3-3 10-9 10-27zM606 230q0-65-25-175-8-36-54-64l-85 863q0 27 19 72 21 51 48 67 45-55 63-292 4-123 16-419 0-5 9-22.5t9-29.5z" glyph-name="uniFB55" horiz-adv-x="2550" unicode="&#xfb55;"/><glyph arabic-form="final" d="M4833 1402q0-48-85-90-128-66-390-201h-37v54q0 24 108 83 79 44 141 68 83 46 249 121 14-14 14-35zM4423 1529q0-18-30-69-33-53-63-80-53-45-147-45-11 0-25.5 5.5t-26.5 5.5h-86v34q-1 40 63 73 23 2 62 17 35 37 71 75 65 66 95 66 34 0 62-33 25-29 25-49zM4557 879q0-34-25-65.5t-57-31.5q-33 0-60 34-22 26-22 38 0 19 25 58 30 44 57 44 29 0 57-31 25-28 25-46zM4741 239q0-296-364-296-251 0-251 200l-71 982q0 61 44 128 46 0 54-55 11-76 21-359l16-451q4-158 54-223 50-69 169-69 48 0 127 20 97 26 109 57 2 28-27 56-21-21-59-48-36-13-68-13-68 0-106 65-27 47-27 88 0 63 54 162 64 115 136 115 43 0 87-94 36-37 57-94 45-123 45-171zM3594 1555q0-48-244-155-166-73-297-115 0 3-6 11.5t-6 23.5q0 44 147 110 18 8 194 92 122 58 137 58h63q12-1 12-25zM3471 1181q0-19-30.5-77.5t-44.5-62.5q-157-54-186-54-30 0-49 26-18 22-18 45 0 22 46 103 17-16 44-52 42 15 87 82 9 0 55-40 17 5 40 32 29 31 41 39 15-14 15-41zM3441 541q0-34-44-63-35-23-49-23-33 0-58 26-24 23-24 45 0 13 18 38 22 36 23 38l-71 71q37 99 102 99 34 0 68.5-25.5t34.5-51.5q0-11-20.5-37t-20.5-40q0-11 20.5-37t20.5-40zM3093 623q0-132-75-178-2 69-21 197-6 20-49 86-40 62-40 75 0 26 45 71 54-12 99-101 41-81 41-150zM2458 1186q0-52-167-131-109-60-321-160-14 14-14 36 0 77 454 290h36q0-4 6-12t6-23zM3809 327q0-121-51-207-62-106-180-106-56 0-111 36t-78 36q-10 0-61-31-60-38-85-48-82-34-212-34-118 0-212 34-14 5-111 99-21-10-72-63-40-39-81-39-47 0-111 37-33 20-65 42-2 0-9 8-5 5-20 5-9 0-41-27-37-31-70-42-201-63-360-63-66 0-195 33-19 4-48 37-53 61-55 62-43-31-119-79-88-41-255-78-171-37-281-37h-116q-146 0-299 81-193 101-193 262 0 44 50 125 53 87 97 94-2-24-13-86-11-56-11-67 0-141 215-211 138-45 266-45 96 0 372 43 91 15 194 72 33 18 78 68 38 41 76 83 39-4 39-46 0-14-6-43.5t-6-37.5q52-47 88-55 117-23 219-23 79 0 250 44 43 11 80 40 15 11 50 74 29 50 68 57 17-37-1-107 4-15 31-44 64-33 116-33 61 0 95 49 28 39 28 84l-71 778q0 86 33 122h36q14-27 29-75 2-54 37-521 4-15 14-41 0-256 57-347 19-31 107-57 77-23 127-23 106 0 236 61.5t137 61.5q12 0 100.5-35.5t99.5-35.5q44 0 83 36-20 286-67 777 0 10-19 54-18 37-18 75 0 8 65 161 17 23 46 23 9-21 12-82 1-55 72-93-2-55-26.5-94t-24.5-42v-248q0-13 25.5-204.5t25.5-203.5zM3071-330q-29-31-42-41-38-15-231-100-153-67-162-67h-42q-13 13-13 31 0 63 85 98 357 147 370 147 15 0 23-5.5t12-5.5v-57zM1997 439q0-66-32-126-7-1-24-12-22 16-25 65-2 72-5 82-8 32-60 116-49 78-49 91 0 6 23.5 38t33.5 38q64-44 104-140 34-82 34-152zM2622-231q0-30-43-63-37-29-50-29-10 0-39 15t-43 15q-12 0-56-30.5t-56-30.5q-30 0-67 33-36 32-36 49 0 32 43 69 37 33 49 33t46-25.5 47-25.5q10 0 52 36t55 36q26 0 62-32t36-50zM1240 644q0-35-44-64-35-23-54-23-11 0-36 10.5t-36 10.5q-12 0-50.5-36.5t-51.5-36.5q-27 0-62 33t-35 55q0 28 33 64 31 33 49 33 14 0 44-20.5t43-20.5q12 0 48 36t49 36q18 0 60.5-28.5t42.5-48.5zM1076-205q0-48-189-141-127-61-257-111-15 13-24 13v43q-1 15 31 45 29 29 52 39 27 11 189 91 117 56 132 55h54q0-3 6-11t6-23zM4321 1484q-28 14-61-24h37zM4577 367q-26 78-68 77h-33l-11-67q22-45 60-45 36 0 52 35z" glyph-name="uniFB57" horiz-adv-x="5143" unicode="&#xfb57;"/><glyph arabic-form="initial" d="M1375 1760q0-49-91-121-88-69-130-68h-34v38q19 12 91 79-25 26-77 26-8 0-103-72-14 2-14 26 0 14 41 74 44 63 65 70 12 4 99 4 153 0 153-56zM1784 899q0-33-31-61-29-25-55-25t-108 55q14 31 27 61 32 58 60 58 22 0 62-27 45-30 45-61zM2071 280q0-29-19-106-20-84-38-95-56-34-168-63-121-32-216-32-122 0-122 86 0 15 23 86 118-19 120-19 81 0 198 33 81 23 131 66 3 8 3 19 0 54-77 137-71 74-129 100-21 8-61 28-13 18-13 58 0 81 56 81 78 0 184-108 128-129 128-271zM801 1591q0-51-49-79-37-19-76-37-77-50-237-159h-46v43q-1 66 372 273 36 0 36-41zM812 1407q0-64-192-169-153-85-204-98-14 14-14 31 0 51 177 157 154 91 218 109 15-14 15-30zM1969 1791q0-61-44-85-233-120-696-374-81-47-196-133-159-120-159-166 0-4 78-78 100-92 170-177 105-128 156-255 46-111 46-191 0-149-47-203-55-67-254-102-32 0-96-2-45-3-66-23-32-75-126-241-92-136-172-173-73-34-228-34-53 0-311 63v38q7 10 24 28 20-2 89-15 61-12 75-12 62 0 122 13 57 21 174 61 52 17 148 130 95 112 95 149 0 10-4 18-58 79-58 120t34 92q33-20 95-48 48-13 117-13 189 0 307 78-6 131-130 303-32 49-64 97-52 69-99 81-39 0-114 17-75 35-75 131 0 136 85 264 80 121 215 202 416 251 459 276 243 138 435 210 15-15 15-46zM2020-149q0-50-101-110-58-29-117-58l-195-98h-35q-13 13-13 30 0 58 191 153 128 56 256 114 14-15 14-31zM412 362q0-202-42-285-8-1-26-11l-85 910q0 150 79 195z" glyph-name="uniFB58" horiz-adv-x="2075" unicode="&#xfb58;"/><glyph arabic-form="isolated" d="M1061 1511q0-50-103-95-2-2-116-41-109-45-320-120-14 14-14 36 0 44 65 74l102 36q113 50 339 141h34q13-14 13-31zM1378 328q0-76-14-162-20-116-55-139l-84 905q0 22 13 94 5 32 41 65 19 0 33-24 20-142 44-444 22-261 22-295zM978 1085q1-18-40.5-62t-74.5-62q-83-43-171-43-35 0-60 31-22 27-22 55 0 81 89 117 5-26 29-71 30 31 90 91h36q5-46 2-53-8-7 16-7 12 0 31 24 30 39 38 47h37v-67zM774 631q0-26-32-64.5t-55-38.5q-34 0-72 36-35 34-35 56 0 20 25 58 29 45 56 45 20 0 66.5-37t46.5-55zM1551-330q-27-33-98-43-55-7-110-13-17-5-73-28-48-20-62-19h-43l-6 21q13 19 33 55v5q1 13-19 36t-20 36q0 46 96 108 85 55 108 55 19 0 40.5-25.5t21.5-45.5q0-24-22-42.5t-40-18.5q-11 0-32 15.5t-32 15.5l-18-17q35-55 113-55 41 0 150 10l13-13v-37zM1665-459q0-51-89-84-65-19-129-37-85-22-268-90-15 13-26 13v32q0 52 217 126 192 66 230 65h52q13-1 13-25zM1102 155q0-175-115-268-10-8-175-78-88-38-186-38-135 0-229 75t-94 186q0 165 159 312 15-16 15-36 0-5-30.5-78.5t-30.5-110.5q0-94 99-150 80-45 162-45 60 0 179 42 153 53 153 122 0 53-41 131-28 48-58 97-13 53-13 43 0 24 56 108 149-126 149-312z" glyph-name="uniFB5A" horiz-adv-x="1373" unicode="&#xfb5a;"/><glyph arabic-form="final" d="M3160 1538q0-76-289-208-76-41-216-109-10-2-23.5 11t-13.5 30q0 51 156 128 86 40 174 78 63 38 188 100 8-4 16-9.5t8-20.5zM3499 263q0-66-10-97-13-41-58-102l-86 885q0 154 69 178zM3610-261q-45-41-175-58-133-19-196-66h-47q-2 39 30 86-3 5-29 39-22 29-22 43 0 48 94 112 83 56 111 56 35 0 81-42v-49l-23-23q-19-19-33-19t-37 15.5-33 15.5l-17-16q34-50 123-50 21 0 63.5 3t62.5 3q26 0 47-3v-47zM2700 514q0-30-53-163-6 0-19-5t-19-5q-2 79-26 228-7 22-45 86-33 58-33 68 0 13 19 35 22 26 24 32 16 0 42-14.5t34-29.5q76-154 76-232zM2208 1312q0-40-62-73-37-17-74-32-123-65-369-191h-35q-13 13-13 30t20 48.5 37 39.5q128 64 258 130 157 79 173 79h52q13-13 13-31zM3683-367q0-33-33-57-13-10-50-11-44-3-54-6-34-12-165-61-100-38-114-37h-65v47q68 69 213 107 122 30 243 59 25-24 25-41zM1133 1533q0-13-5-28.5t-5-25.5q-2-1-3-2-9-11-27-11-14 0-40 15.5t-35 15.5q-48-69-149-123-85-41-171-82-14 11-24 11v38q174 112 275 202-82 75-82 97 0 32 43 99.5t74 81 74 13.5q51-47 51-87 0-22-13.5-69.5t-13.5-57.5q0-11 25.5-42t25.5-45zM3119 315q0-171-57-210-31-25-111-59-92-21-269-44-156-20-183-20-26 0-215 5l-17-6q1-17 12-70t11-67q0-80-37-156-46-95-122-95-84 0-155 85-43 51-94 158-41 84-53 84l-48-9q-3 22-6 44.5t-34 26.5q-49 2-97.5 4.5t-107.5 28.5q-56 25-235 175-55 44-172 140-9-68-17-136-17-91-93-147-62-22-181-74-22-115-61-143-17-12-84-12-13 0-72 15.5t-72 15.5q-11 0-77-65-75-75-110-96.5t-118-49.5q-77-25-98-25-8 0-57 25 31 35 179 104 136 63 186 145 9 15 5 61-5 52 1 71 22 81 125 183 36 36 92 36 13 0 97.5-41t97.5-41h51q33 0 119 56-31 131-239 358-192 212-192 312 0 85 65 153 95 97 261 200 135 77 270 155 145 85 384 204 236 117 255 116h44v-36q2-56-36-81-45-32-294-151-8-4-122-75-186-96-372-193-363-202-363-271 0-17 254-244 143-119 440-365 44-44 132-106 130-53 239-53 68 0 94 21 35 31 62 139 188 321 259 321 4 0 30-16 55-69 62-90 5-13 5-83 0-155-113-276 4-4 18-14 22-2 162-2 12 0 171 5t171 5q76 0 187 25 106 25 162 53-31 267-97 704 0 5-20 37-16 26-16 72 0 88 86 185 22-16 38-77 16-57 80-89-17-68-49-149-2-6-2-70 0-13 30.5-261t30.5-260zM631 570q0-63-115-114-72-28-144-55l-67 13v47q87 5 153 68-36 36-93 36-12 0-44-29h-37v33q0 39 65 72 53 27 82 27 51 0 119-27 81-32 81-71zM1020 1662v36q-12 12-38 12l-12-37q5 0 24.5-5.5t25.5-5.5zM2188 340q0 11-18 48-21 41-39 54-65-64-101-136-23-55-46-108h36q168 91 168 142zM2198-165q-120 96-149 95h-64q1-71 64-118 48-35 82-35 45 0 67 58zM733-5q2 6-38 51-43 48-69 48-16 0-30.5-21t-14.5-38q72-53 117-53 23 0 35 13z" glyph-name="uniFB5B" horiz-adv-x="3515" unicode="&#xfb5b;"/><glyph arabic-form="initial" d="M3014 1514q-65-54-188-112-164-77-194-95h-45q-13 13-13 35 0 52 44 73 346 158 356 158 14 0 25-6t15-6v-47zM3210 519v33-33zM2676 958q0-36-122-97-98-49-158-64-7-2-48-19-35-15-46-15h-52q-14 14-14 32 0 15 23.5 43t41.5 34q47 16 189 77 118 50 131 50h44q0-4 5.5-15.5t5.5-25.5zM3004 374q0-74-22-162-26-101-62-121-49-17-97-34-71-27-104-69-11-32-37-92-154-289-466-289-119 0-143 5-19 3-184 58-1 10 14.5 30t30.5 20q13 0 113-15.5t112-15.5q118 0 254 89 142 92 192 213-11 18-50 20-29 0-59-1-19 2-32 10-84 46-84 129 0 46 60 150 68 116 124 116 57 0 106-100 64-135 65-136 87 18 167 59-24 385-65 652-3 18-31 68-27 49-27 62 0 40 30 103.5t66 101.5q27-14 39-87 11-68 79-89 0-27-25-99.5t-25-78.5zM2216 559q0-74-33-153h-37q-5 54-26 156-11 34-73 115-56 75-56 86 0 19 16 40.5t35 21.5q61 0 123-125 51-104 51-141zM1110 1198q0-19-23-65h-46l-28 30q-80-90-184-155-121-74-219-78 27 46 160 137 130 90 156 142-8 28-49 48-33 16-33 64 0 59 54 121 59 69 128 69 58-86 36-218 48-87 48-95zM803 1245q0-33-46-72-48 31-61 31-233-195-278-194h-53q-13 1-13 25 0 17 115 101 123 91 131 103-58 64-63 72-8 13-8 46 0 68 59.5 135.5t120.5 69.5q57-44 57-137 0-53-16-93 6-11 33-46 22-27 22-41zM2114 211q0-46-46-87-41-36-72-36-13 0-118 10t-117 10q-35 0-242-66t-316-66q-84 0-130 13-65 18-110 97-32 63-65 125-10 3-42-39-135-176-365-176-169 0-169 112 0-8 33 92h42q16 1 23-11l11-17q16-1 52.5-6.5t48.5-5.5q98 0 213 59 130 68 130 150 0 14-30.5 162t-30.5 161q0 71 33 102 19 0 34-23 28-96 72-267 31-144 37-162 28-101 75-163h30q176 247 281 247 42 0 225-92t328-92q42 0 171 9 14-13 14-40zM1724-111q0-45-54-74-97-47-298-145h-45q-12 0-12 24 0 57 74 94 5 1 163 84 102 52 118 51h43q0-3 5.5-11.5t5.5-22.5zM2574 193v35q-13 14-37 14l-23-13v-37q3 0 11.5-6t23.5-6q23 0 25 13zM987 1352q-17 35-39 35v-37q18-20 39 2zM679 1369v47q-22 23-37 23-23-23-23-48 44-22 60-22zM1489 179q-14 15-77 53-69 40-92 40-26 0-76-46-53-47-62-83 24-14 67-14 9 0 240 50z" glyph-name="uniFB5C" horiz-adv-x="2999" unicode="&#xfb5c;"/><glyph arabic-form="isolated" d="M2371 1402q0-40-43-64-99-53-246-120-149-67-168-66h-85q12 33 43 76 201 102 484 209 15-14 15-35zM2279 967q0-91-74-150-38-9-103-28-8-3-36-22-23-16-38-16-28 0-61 23-37 26-37 54 0 44 57 118 16-26 53-72 34 1 63.5 64.5t59.5 68.5q2-2 2-4v-71l18-17q39 15 44 55 3 34 38 37 14-13 14-40zM1306 1227q0-24-12-56h-43q-13 0-26.5 15.5t-25.5 15.5-58-35q-59-46-73-54-88-52-207-84h-35v38q102 58 286 192-10 26-45 50-27 18-27 66 0 42 47 109 54 76 107 76 45 0 67-34 38-106-3-205 48-52 48-94zM2258 152q0-145-138-323-153-193-317-193-125 0-349 33-20 3-76 31v35q23 24 35 24 14 0 70-10.5t69-10.5q179 0 259 33 88 36 224 143 12 9 63 78 78 105 78 129 0 40-37 87-53 67-62 86 0 1-7 13-6 9-6 25 0 34 45 102 149-95 149-282zM1265 869q0-47-32-106-34-65-74-71-34-4-104-29-65-24-77-24-34 0-63 35-28 33-28 62 0 74 83 138-1 6-1-71 0-41 35-41 30 0 65 60 41 71 44 73 8-32 36-93 22 11 51 48 32 41 50 55 15-15 15-36zM1695 239q0-166-226-254-77-30-321-76-20-4-84-22-54-16-67-16h-94q-158 0-294 44-204 65-204 201 0 47 31 122 36 90 85 123h37v-46q0-11-20-48t-20-53q0-81 98-130 79-37 173-39 15-1 47.5-10.5t44.5-9.5q133 0 360 42 241 46 313 92 23 15 39 44-103 128-103 149 0 24 18 58 21 41 50 54 137-113 137-225zM1122-323q0-15-48-79-8-4-16-7-16-7-34-7-23 0-54 23-33 24-33 49 0 35 33 70 31 33 54 33 27 0 63-33 35-31 35-49zM1192 1377v48l-47 12-13-38q45-22 60-22z" glyph-name="uniFB5E" horiz-adv-x="2843" unicode="&#xfb5e;"/><glyph arabic-form="final" d="M5094 1422q0-84-83-146-74-54-147-54-11 0-35.5 10.5t-35.5 10.5q-4 0-52-18-7 1-35 16 16 57 125 116 23 13 53 54 38 52 48 62 36 36 80 36 40 0 63-34 19-27 19-53zM4951 234q0-114-35-197-7-6-34-22l-105 946q0 153 57 200 29-30 32-56 14-221 57-655 28-206 28-216zM4153 1299q0-53-198-141-123-55-370-171h-33q-13 13-13 35 0 47 195 136l372 166h34q13-1 13-25zM4040 813q0-31-21.5-77t-45.5-63q-14-9-121-38-9-3-50-21-33-16-54-16-24 0-54 23-32 25-32 53 0 23 24 69 27 50 50 58-4-34 11.5-57t36.5-23q25 0 57 47 38 53 62 65 6-27 30-71 36 24 58 91h36q13-13 13-40zM3252 1202q0-48-143-119-78-34-157-69-89-43-280-119-14 14-14 41 0 54 215 150 166 73 331 146h35q13-13 13-30zM4552 239q0-245-174-245-12 0-88 20t-86 20q-13 0-36-16-35-23-49-31-26-14-89-14-13 0-59 15.5t-59 15.5q-11 0-31-13t-29-14q-91-13-119-13-13 0-92 20t-92 20-70-20q-66-23-88-28-12-3-114-3-11 0-30.5 5.5t-30.5 5.5q-20 0-30-8-45-32-59-41-23-13-86-13-31 0-120 20.5t-107 33.5-69 89q-71-79-194-111l-184-36q-33-8-92-116-63-117-141-183-63-54-117-76l-90-28q-41-13-129-13-11 0-134 24-136 25-181 30-16 11-43 33 25 46 51 46 13 0 122.5-15.5t122.5-15.5q123 0 289 104 162 100 192 188-13 28-74 33-72 7-87 17-74 51-74 129t53 171q60 106 132 106 80 0 139-167 4-27 16-72 18-38 65-38 152 0 277 61 73 36 163 113 72 62 97 62 9 0 96-60 96-66 136-81 35-14 133-30 87-14 111-14 104 0 212 64 28 29 86 80 7-7 20-24 3-10-6-39-9-33-9-44 0-31 18-37h32q79 0 122 26 26 15 65 63 44 54 86 85 23-69 3-137 18-16 42-16 64 0 101 66 49 88 78 108 14-12 24-12 0-9-4.5-38t-4.5-42q0-28 61-47 47-15 83-15 44 0 51 27-1-2-1 35 0 160-44 423-10 89-41 267-3 15-27 73-20 49-20 66 0 98 97 205 18-19 24-69 7-61 14-78 14-32 66-42 24-14 24-41l-60-105q-1-4-1-54 0-13 30.5-307.5t30.5-307.5zM2597 546q0-17-36-120-6-6-28-22l-18 116q-13 71-35 111-9 18-58 70-41 45-41 61 0 24 22 47.5t40 23.5q29 0 77-63 27-38 53-112 24-71 24-112zM2371 1181q0-37-46-69-50-28-100-57-104-60-163-92-107-56-258-150h-45q-13 1-13 25 0 57 177 165 25 15 434 219 14-14 14-41zM1890 428q0-18-20-75-23-63-43-73-13 16-13 67 0 43-40 152-6 15-55 71-14 53-14 43 0 22 45 67 54-18 99-114 41-85 41-138zM1163 557q0-82-92-82-12 0-31.5 5t-29.5 5q-13 0-51.5-25.5t-51.5-25.5q-36 0-69 25.5t-33 50.5q0 27 34.5 62.5t57.5 35.5q10 0 37-15t40-15q12 0 48 25t49 25q26 0 59-23t33-48zM1655 188q0-71-46-151-23-40-59-60-113-62-237-93-105-25-302-51-168-23-201-23-146 0-289 46-228 73-228 230 0 34 52 126 45 80 64 98h47q-40-122-40-147 0-111 176-164 116-35 239-35h131q13 0 34.5 7.5t28.5 8.5q133 16 274 45 253 54 253 112 0 12-61.5 90.5t-61.5 88.5q0 30 35 103 10 2 32 15 50-32 104.5-116.5t54.5-129.5zM1009-404q-166-72-496-206-14 12-25 12v46q27 47 93 77 57 22 114 45 255 107 268 107 10 0 46-33v-48zM5002 1384l-47 12q-36-35-33-60h36q44 21 44 48zM2954 97q-19 58-44 70h-35l-12-38q5-1 27-20 15-12 30-12h34zM2197 88q-3 29-22 54.5t-40 25.5q-36 0-40-48 48-45 76-45 24 0 26 13z" glyph-name="uniFB5F" horiz-adv-x="4956" unicode="&#xfb5f;"/><glyph arabic-form="initial" d="M4657 1364q0-48-228-192-215-137-289-156-15 14-15 41 0 49 80 97 63 34 127 68 104 66 311 182 14-14 14-40zM4206 1680q6-14 6-32 0-67-76.5-145.5t-148.5-85.5q-42 0-85.5-1.5t-79.5-31.5q-14 2-14 26 0 39 83 123 18 5 53 17 36 44 71 88 70 84 110 84 37 0 81-42zM3737 1630q0-48-94-114-85-60-122-60-11 0-40.5 5.5t-40.5 5.5v38q36 20 112 70-15 24-47 24-21 0-86-9v34q0 60 133 88 41 0 113-30.5t72-51.5zM3992 360q0-63-20-140-22-88-52-105-31 31-10 148l-112 870q-4 99 79 148zM2856 1865q0-50-34-68-101-57-245-126-150-72-168-71h-64v33q-1 37 211 142 126 60 252 121h35q13-13 13-31zM4607 227q0-32-29-99-185-433-499-433-56 0-329 55-8 5-34 31 19 47 46 47 12 0 91.5-15.5t92.5-15.5q320 0 558 364l-8 57q-21-20-76-59-23-14-70-14-56 0-92 54-31 44-31 89 0 47 48 151 57 126 116 126 75 0 152-156 64-131 64-182zM2821 1404q14-10 0-57-11-37-52-42-46-7-133-17-36-13-116-36-4 16-25 72-18 46-18 60 0 33 66 107 70 78 113 78 28 0 52.5-22t24.5-45q0-18-19-37t-38-19q23 0-80 20l-17-18q0-9 29-32 53-22 89-22 3 0 33.5 5t90.5 5zM3562 1060q0-11-11-38-12-30-14-46-40-21-65-49-2-196-78-481-3-13-32-73-25-54-25-69 0-13 30.5-105.5t30.5-104.5q0-72-44-89-163-64-401-64-32 0-85 23-64 29-64 64 0 38 22 105 8 6 23 6 18 0 61-12t58-12q37 0 136.5 89.5t99.5 124.5q0 52-202.5 302.5t-248.5 250.5q-11 0-38-10t-39-10q-50 0-113 63-14 14-32 74-3 9-3 52 0 40 21 126 1 12 25 12 109 0 410-365 149-191 296-382 76 83 87 281 2 154 3 308-8 27-10 83 23 118 114 208 36-18 36-36-23-60-20-152 9-8 72-39v-35zM2344 1000q0-85-251-169l-46 11v29q36 24 113 78-36 36-82 36-1 0-112-45l-21 7q20 58 73 104.5t106 46.5q38 0 123-32 97-36 97-66zM2549 181q0-100-133-266t-229-182q0-18-24-18h-294q-72 0-241 64v36q23 23 40 23 13 0 125.5-15t125.5-15q42 0 203 53 68 23 162 92 31 22 97 99 75 88 75 119 0 28-62 83-39 34-77 67-14 17-14 60 0 13 5.5 41.5t5.5 38.5q4 0 12 6t23 6q85 0 149-125 51-100 51-167zM1443 805q0-30-44-61-36-26-49-26-21 0-56.5 29.5t-35.5 47.5q0 27 41 64 36 34 51 34 26 0 59.5-33t33.5-55zM1934 473q0-155-221-268-176-90-301-90-12 0-31 5t-31 5q-75 0-90-28-15-57-57-164-69-133-239-199-127-49-259-49-119 0-237 75-141 88-141 222 0 94 127 291 26 14 41 14-56-156-56-218 0-114 124-175 89-45 183-45 113 0 236 41 185 61 185 179 0 10-46.5 126t-46.5 129q0 45 35 98 26-16 77-79 45-55 57-55 23 0 216 164t280 164q195 0 195-143zM1616-346q0-71-476-232h-45v42q0 40 114 86 77 28 155 55 12 6 218 90 11-7 21-15 13-10 13-26zM4115 1584q-10 9-25 15-43-21-56-50h37q17 12 44 35zM4421 357q-32 34-57 34l-23-24v-46q3 0 14-6t26-6q40 0 40 48zM3285 183l-24 23q-41-13-67-69h47q44 19 44 46zM1811 417q-12 14-56 34-50 22-82 22-39 0-141-85-95-78-109-109h85q47 0 167 53 122 55 136 85z" glyph-name="uniFB60" horiz-adv-x="4622" unicode="&#xfb60;"/><glyph arabic-form="medial" d="M1774 1316q0-45-220-172-170-98-257-135-14 15-14 36 0 78 278 212 68 41 189 100 24-24 24-41zM1211 1310q0-21-207-150-118-73-227-150h-36v65q0 24 155 120 88 61 268 171h47v-56zM1815 242q0-64-69-233-62-149-165-234.5t-221-85.5q-12 0-61-5t-62-5q-103 0-278 44-3 1-24 44 35 25 77 21 18-2 72-10 47-7 60-7 397 0 579 403 4 7-6 16-29-25-89-69-12-2-38-2-133 0-133 153 0 77 33 161 46 116 126 116 74 0 143-146 56-117 56-161zM1201 262q0-83-30-117-31-37-108-37-65 0-200 52-12 0-49-52-44-61-65-78-58-44-162-44-86 0-137 78-40 61-45 142-27 383-48 695 0 11-14 77-12 63-12 77 0 54 24 123 12 6 33 26 39-46 49-151 3-80 6-161 12-161 23-246 11-138 41-409 7-41 56-67 42-21 85-21 76 0 156 104l130 192q75 104 139 104 57 0 98-135 30-100 30-152zM1661 329q-10 23-43 55h-36q-3-6-21-27-12-16-12-29 0-14 6-22.5t6-11.5q9 0 22.5-5.5t27.5-5.5l35 14q15 31 15 32zM1078 287q-6 25-13 51-11 37-44 47-40-27-66-79 58-34 87-34 21 0 36 15z" glyph-name="uniFB61" horiz-adv-x="1841" unicode="&#xfb61;"/><glyph arabic-form="isolated" d="M3241 1358q0-69-215-196-163-96-221-115-14 1-14 25 0 61 36 86 45 31 402 235 0-3 6-11.5t6-23.5zM2873 1307q0-54-199-178h-36v38q70 62 81 99-4 5-40 5-15 0-55-16-50-20-62-24 3 67 53 112 45 41 104 41 38 0 87-18 67-23 67-59zM2412 1394q0-46-155-149l-176-106h-35q-23 23-23 35 0 57 177 151 57 35 165 100h34q13-14 13-31zM3241-274q0-34-32-60-30-22-65-22t-63 30q-24 24-24 41 0 21 25 59 27 44 52 44 36 0 74-37 33-34 33-55zM2238 575q0-27-25-59.5t-51-32.5q-7 0-108 63-1 33 26 76 28 46 61 46 29 0 64-37 33-35 33-56zM1920 914q-4 0-14.5-5.5t-25.5-5.5q-12 0-38 20.5t-39 20.5q-4 0-98-84-105-94-210-131l-25 25q8 9 150 138 96 88 96 103 0 10-36 50t-36 58q0 36 44 108 49 81 94 81 40 0 60-44 4-10 24-83-8-35-4-102 4-11 33-42 25-28 25-40v-67zM2883-361q0-19-31.5-53t-50.5-34q-10 0-39 15.5t-43 15.5q-10 0-41-26t-45-26q-31 0-66 33-32 31-32 49 0 39 35 68 29 25 52 25 11 0 40-16t42-16q11 0 40.5 26t46.5 26q29 0 64-41 28-34 28-46zM1286 1415q0-46-101-112-58-32-116-65-180-105-373-202-14 14-14 36 0 95 589 373 15-14 15-30zM3150 247q0-78-67-191-12-22-54-39-38-15-64-15h-51q-39 0-114 61.5t-71 61.5q-10 0-64-41-62-45-92-59-8-3-74-3-119 0-176.5 61.5t-115.5 61.5q-22 0-118-29-110-32-181-66-66-31-108-127-23-54-23-111 0-24 4.5-66.5t4.5-61.5q0-49-23-89-14-23-51-61-42-44-57-44-46 0-73 112-19 83-19 154 0 39 51 270-17 17-26 17-11 0-71-13-66-13-93-15-32-4-78 0-60 4-74 4-11 0-28-19-20-22-26-25-41-24-132-24-57 0-196 54-6 2-29 27-22 21-36 21-12 0-48-24-42-28-57-34-58-23-146-23-9 0-26.5-1.5t-25.5-1.5q-62 0-123 76-36 45-49 187-15 169-34 512-1 54-12 208-11 150-11 156 0 62 34 111h36q42-193 42-289v-300q0-30 17-141 12-112 23-224 35-130 176-130 94 0 175 56 35 24 115 103 55 56 88 56 13 0 72-53 72-67 90-78 77-54 258-54 147 0 259 44 31 11 75 56 34 37 69 74h34q13-13 13-46 0-47-71-141-57-73-113-146l6-106q32 59 63 116 41 70 87 104 72 54 191 109 148 70 232 70 73 0 128-61.5t138-61.5q54 0 105 22 64 28 64 76 0 12-26 140t-26 141q0 73 36 143 32-28 57-119 18-70 37-141 26-93 53-187 39-86 145-86 40 0 83 28-6 31-30 108-22 68-22 80 0 25 44 92 42-9 73-87 27-70 27-139zM1038 136v47q-41 44-54 44-29 0-56-47 24-16 110-44zM1791 1118q-17 35-39 35v-36q18-20 39 1z" glyph-name="uniFB62" horiz-adv-x="3151" unicode="&#xfb62;"/><glyph arabic-form="final" d="M2585 1248q0-52-162-166-126-87-243-146-25 24-25 36 0 50 189 173 163 106 227 128 14-2 14-25zM2094 1248q0-38-52-76-42-27-83-55-50-33-134-92-41-35-124-89h-35q-13 13-13 36 0 37 83 101 56 44 105 70 32 17 126 85 64 47 114 55 0-3 6.5-12t6.5-23zM1142 1274q0-52-47-52-12 0-45.5 20.5t-46.5 20.5q-9 0-65-56-63-65-85-80-154-101-238-101-14 0-25 4 0 27 11 37 215 113 305 232-2 3-43 57-28 37-28 55 0 34 50 105 54 75 93 75 37 0 66-41 24-36 22-67-6-100-4-110 80-87 80-99zM2636 102q0-156-112-323-119-176-280-232-67-24-222-24-159 0-296 43v36q23 23 50 23 13 0 72-10t71-10q171 0 348 117 194 128 277 328 4 6-5 16-72-72-118-72-65 0-109 85-34 64-34 105 0 65 40 155 51 116 124 116 34 0 96-83 51-70 64-105 34-103 34-165zM1142 997q0-84-57-149-14-17-84-45-75-31-116-31-81 0-81 77 0 88 58 107 9-21 40-61 25 13 46 54 26 50 32 57h37q0-34 18-60 35 23 58 91 49 0 49-40zM2053 188q0-171-146-355-156-197-330-197-161 0-342 32l-10 47 249 15q42 4 125.5 42t137.5 80q49 38 130 127 104 115 104 164 0 26-62 96-72 83-79 96-2 12-2 43 0 36 34 86 84-45 137.5-123t53.5-153zM1510 229q0-14 1.5-36.5t1.5-30.5q0-56-76-123-32-28-240-79-197-48-246-48h-161q-159 0-224 32-48 24-243 185-2 10 6 24.5t24 14.5q8 0 88-34 87-37 123-46 95-22 296-22 142 0 318 31 201 37 240 86-7 26-56 109-46 77-46 91 0 23 17 59 19 43 44 43 38 0 86-79 40-66 43-89 4-29 4-88zM998-323q0-30-32-57-29-25-49-25-38 0-68 34-25 28-25 48t25 59q28 43 52 43t61-44q36-41 36-58zM2493 202q-16 48-77 89-46-46-46-62 0-18 23.5-39.5t43.5-21.5q28 0 56 34zM989 1434q-17 35-39 35v-37q18-20 39 2z" glyph-name="uniFB63" horiz-adv-x="2634" unicode="&#xfb63;"/><glyph arabic-form="initial" d="M4676 1461q0-86-114-140-85-39-152-39-13 0-112 33 2 34 104 92 14 7 112 104 25 27 75 27 35 0 62-28 25-26 25-49zM4235 1476q0-55-114-104-92-39-127-39h-42l-24 26q12 12 113 82-13 15-46 15-15 0-40-12-35-16-43-19-14 14-14 31 0 41 63 79 54 34 85 34 53 0 117-27 72-31 72-66zM4492 334q0-237-68-301-11 16-22 35 9 23 9 106 0 96-12 263l-61 589q0 44 67 133 38-59 42-128 6-127 27-423 18-264 18-274zM3704 1446q0-58-103-105-58-21-115-42-16-9-289-129h-35q0 4-5.5 9.5t-5.5 20.5q0 44 43 67 219 112 462 209h34q14-14 14-30zM2956 1406q-92-65-331-158-98-45-298-130h-35q-12 2-12 26 0 59 258 169 66 28 404 153l14-13v-47zM2864 852q0-40-34-73-29-29-59-29-24 0-59 43-32 39-32 53 0 18 36.5 58t54.5 40q33 0 66-43 27-35 27-49zM2997 668q0-31-45-59-35-23-47-23-13 0-46.5 20.5t-46.5 20.5q-12 0-53-31t-54-31q-33 0-65 26.5t-32 49.5 33.5 60.5 52.5 37.5q16 0 93-51 83 71 112 71 20 0 59-36.5t39-54.5zM4153 253q0-120-57-197-64-84-178-84-11 0-54 5t-53 5q-16 0-89-58-18-14-86-14-135 0-196 34-12 7-43 41-24 27-42 27-7 0-43-27-89-41-97-43-4-1-59-1-54 0-82 17l-92 54q-84-57-96-62-21-9-84-9-12 0-57 5t-56 5q-12 0-86.5-20.5t-86.5-20.5q-11 0-91 31t-94 31q-9 0-73-21-71-23-105-28-87-13-206-13 14 0-233 32-17-17-26-29-132-402-442-402-190 0-327 115-2 10 6.5 24.5t23.5 14.5q13 0 115.5-26t115.5-26q204 0 390 254 45 60 45 105 0 12-41 71t-41 72q0 91 61 91 13 0 52-29 53-41 69-51 37-22 109-43 64-20 87-20 225 0 363 34 48 11 112 99 40-3 41-53-2-41-5-82 14-8 58-8 98 0 164 33 60 30 131 110h36q8-63-9-86 37-36 67-36 46 0 96 65 55 74 100 88 2-39 5-105 77-48 142-48 91 0 191.5 133t156.5 133q26 0 76-61 27-36 55-71 33-34 114-60 74-23 129-23 128 0 128 56 0 7-36 276-38 298-50 420-2 17-30 75-28 56-28 69 0 35 44 155 14 40 64 65 25-20 35-115 8-80 82-92-4-26-34-108-27-77-27-90t35.5-292 35.5-291zM2147 698q0-33-25-97-26-69-49-77-8 21-8 67 0 53-4 70-15 67-69 147-50 73-50 79 0 18 17.5 42.5t33.5 24.5q62 0 114-124 40-97 40-132zM1093 934q0-43-42-71-31-22-51-22-25 0-87 41l-48-38q-29-23-44-23-28 0-67.5 32.5t-39.5 49.5q0 32 40 69 36 33 52 33 12 0 46.5-20.5t45.5-20.5q10 0 37.5 31t44.5 31q28 0 70.5-34t42.5-58zM1215 217q0-11-10-65-11-62-14-95-2-26-42-70-50-59-217-129t-249-70q-32 0-160 27-270 56-270 274 0 95 51 183 23 41 115 159h38v-47q0-9-79-124-13-18-13-89 0-55 3-60 27-67 133-117 89-43 151-43h72q76 0 234 65 176 72 176 129 0 43-48 134-33-28-67-57-20-16-49-16-75 0-114 55-29 40-29 94 0 43 43 144 55 128 120 128 59 0 138-143 62-110 73-159 14-64 14-108zM1644-580q-439-216-446-216h-42q-12 2-12 26 0 59 125 114l154 56q52 25 175 101l46-12v-69zM745-330q-13-32-45-74-378-188-423-187h-42q-13 13-13 30 0 45 196 135 134 60 268 121h35zM4563 1422l-51-15h38zM3590 75v36q-23 32-76 86-11-8-23-15-13-11-13-26 0-24 46-55t66-26zM1021 428q-23 45-49 45-43-45-43-57 0-11 23-34h56z" glyph-name="uniFB64" horiz-adv-x="4507" unicode="&#xfb64;"/><glyph arabic-form="isolated" d="M1053 1570q-61-68-232-129-267-97-274-100-15 11-25 11v34q-1 41 74 74 388 168 422 168 15 0 23-6t12-6v-46zM910 1182q0-69-60-119t-139-54q-8 0-30.5-8t-36.5-8q-72 0-72 77 0 51 56 107 12-19 43-61 31 10 78 81h36q4-15 28-50 16 10 41.5 35.5t40.5 35.5q15-15 15-36zM1269 256q0-220-69-255l-106 971q0 59 4 68 0 2 51 117 33-13 37-27 1-1 1-45zM818 686q0-27-24-58-26-34-53-34-29 0-63 29t-34 53q0 17 28 58 30 44 49 44 45 0 74-41 23-30 23-51zM962 246q0-126-46-193-36-53-163-71-161-22-247-22-163 0-211 83-30 52-30 203l-71 829q0 86 54 143 19 0 34-24 18-122 41-503 12-190 31-358 6-59 37-172 16-38 171-38 245 0 308 57-10 19-63 108-40 66-40 81 0 23 15 59 18 43 41 43 66 0 107-105 32-76 32-120zM1453-301q-24-52-104-69l-114-22q-57-23-155-67h-46q0 36 40 115-62 57-62 78 0 52 85 122 77 63 110 63 32 0 62-19.5t30-47.5q0-67-61-67-13 0-30 12-24 18-28 19h-38l-8-6v-39q81-57 124-57 26 0 68.5 9.5t59.5 9.5q39 0 67-34zM1524-444q-14-33-54-75-138-47-410-156h-35q-13 1-13 25 0 46 100 91 54 20 108 39 104 45 270 100 5-5 17-12t17-12z" glyph-name="uniFB66" horiz-adv-x="1669" unicode="&#xfb66;"/><glyph arabic-form="final" d="M2339 1516q0-50-222-177-19-11-273-145h-57q16 77 44 97 43 30 140 76 108 52 145 74l104 66q63 36 107 44 0-4 6-12t6-23zM1692 1633q0-67-42-90-93-54-248.5-124.5t-174.5-70.5h-54v34q-1 42 219 150 206 100 277 112 14-11 23-11zM2062 677q0-27-30-64-28-34-41-34-28 0-112 53 1 41 25 79 27 43 61 43 17 0 54-23 43-27 43-54zM1509 1173q0-19-19-67-22-51-38-62-41-29-117-54-67-22-92-22-71 0-71 72 0 15 22 51 27 43 58 61v-44q19-17 27-17 13 0 39 36 34 49 41 56 9 0 54-51 27 30 84 71 0-4 6-9.5t6-20.5zM1028 1597q1-42-44-63-408-186-433-186h-54v48q19 24 63 60 150 63 443 188 14-11 25-11v-36zM2308 124q0-198-176-360-170-157-356-157h-159q-13 0-86 17-84 20-112 25-2 9-12 25 6 12 23 31 9 5 54 5 13 0 66.5-5.5t66.5-5.5q107 0 213 34 63 18 211 132 175 135 175 213 0 44-46 97-19 22-104 99-14 54-14 44 0 6 34 107 88-26 157-128 65-94 65-173zM926 1168q0-80-61-124-48-36-118-39-6 0-37-13t-45-13q-77 0-77 87 0 60 57 87 19-19 33-52h26q19 19 61 82 13 0 64-51 25 30 85 71 0-4 6-12t6-23zM1766-90q0-30-43-61-37-27-50-27-10 0-34 10t-37 10-44-25-44-25q-17 0-52 26.5t-35 44.5q0 29 47 68 43 34 61 34 11 0 27-10t29-10 41.5 20.5 40.5 20.5q30 0 61.5-24t31.5-52zM1509 262q0-30-14-99-18-88-41-124-28-43-134-43-69 0-124 13-21 5-67 33-42 25-55 25-12 0-47-24-46-31-53-34-146-74-243-74-203 0-283 65-70 57-86 205-9 179-17 359-5 113-17 317-2 27-15 91-12 62-12 73 0 22 25 83 21 54 29 65 24 0 44-34 8-179 28-492 3-125 7-249 7-148 64-251 12-22 77.5-50.5t99.5-28.5h108q60 0 191 66.5t121 66.5q11 0 89.5-30.5t89.5-30.5h92q52 0 52 30 0 13-26 82.5t-26 81.5q0 29 56 113 87-131 87-205zM956 518q0-35-41-67-32-25-45-25t-97 52q0 30 22 75 27 57 65 57 27 0 64-41 32-37 32-51z" glyph-name="uniFB67" horiz-adv-x="2307" unicode="&#xfb67;"/><glyph arabic-form="initial" d="M3277 1547q0-75-99-145-91-65-162-65-116 0-115 1-13 1-13 24 0 43 61 74 32 12 64 25 42 48 85 95 61 68 98 68 31 0 59-33 22-28 22-44zM3155 262q0-56-36-206-5-4-21-19-7 6-23 24-1 122-30 451-10 102-44 317-31 199-31 206 0 23 17 68 18 50 38 70 29-6 35-67 3-46 4-91 18-118 41-328zM2448 1593q0-17-31-53.5t-54-46.5q-408-176-423-176h-54q0 65 42 87 94 49 252 114 232 94 255 105 0-3 6.5-9t6.5-21zM2367 1230q0-108-106-156-96-44-161-44-72 0-72 66 0 58 80 107v-54q9-6 23-6 21 0 41 33 36 59 44 68h36q0-14 18-50 15 9 40.5 40.5t40.5 40.5q16-14 16-45zM1793 1526q0-65-249-162-59-33-185-98h-35q-13 13-13 30 0 45 190 143 118 56 234 113h45q13-2 13-26zM1373 1552q0-82-188-151-145-53-196-53-11 0-92.5 20.5t-91.5 20.5q-21 0-83-41-14 1-14 25 0 27 46 82.5t72 55.5q12 0 91.5-25.5t92.5-25.5q92 0 182 33 105 38 166 90 15-15 15-31zM2734 472q-28-178-48-210-32-51-146-51-11 0-82 15.5t-82 15.5q-13 0-87-26t-86-26-40.5 5.5-41.5 5.5-77-15.5-77-15.5q-87 0-155 34-42 21-89 65-36 34-48 34-35 0-73-48-34-44-34-70 0-44 127-120 67-38 134-75 15-25 15-45 0-29-17-58-19-34-49-34-14 0-98 30.5t-97 30.5q-11 0-56-19-51-23-76-29-100-24-170-24t-80 5q-35 14-80 90-23 36-38 248-16 193-25 583-2 95-27 267-1 5-14 37-13 31-13 45 0 18 67 118 19-18 42-55 35-181 35-246v-310q0-13 10-217t10-217q0-65 39-124 45-70 115-70 54 0 161 49 14 163 67 275 11 23 74 90 74 77 108 77 11 0 52-43 54-57 68-68 65-52 166-52 66 0 95 41 50 70 96 101 9-24 4-115 1-2 4-13 1-5 16-5 77 0 110 46 38 63 77 127h37q0-5 4-105 11-27 100-27 67 0 92 27-28 209-86 603-3 18-21 68-16 47-16 60 0 39 37 107 33 59 61 88 24-46 27-147 29-15 79-50-25-63-61-187zM778 746q-69-56-124-82-21-9-137-69-88-46-103-46h-63q-12 2-12 25 0 43 34 63 309 179 362 177h43v-68zM912 151q-39-35-171-73-127-38-210-122h-47q-2 20 19 86-10 8-74 40-29 14-29 57 0 49 102 155 107 112 170 112 37 0 63-32 23-27 23-55 0-40-26-71-24-27-45-27-10 0-41 20.5t-46 20.5q-9 0-46-38-1-5 1-15 76-39 122-39 68 0 222 31l13-13v-37zM3169 1496l-46 12q-36-35-33-60h35q44 21 44 48z" glyph-name="uniFB68" horiz-adv-x="3152" unicode="&#xfb68;"/><glyph arabic-form="medial" d="M3098 1485q0-79-102-145-87-54-149-54-148 0-146 0-13 2-13 26 0 17 31 49.5t55 42.5q20-2 60 7 27 16 62 60 45 58 53 66 25 25 78 25 28 0 51-32 20-27 20-45zM2986 226q0-156-58-219l-127 1069q0 86 59 127 57-204 71-352 55-589 55-625zM2167 1444q0-43-46-66l-40 24q-27 17-42 17 4 0-130.5-102t-167.5-102h-86q0 9 4 24 303 193 303 231 0 9-31 51.5t-31 56.5q0 34 46 105 56 84 113 84 65 0 65-110 0-49-16-129 59-67 59-84zM2176 1158q0-19-27-67-30-51-56-68-40-9-115-28-12-3-52-22-31-15-46-15-28 0-47 34-15 25-15 38 0 46 67 113 10-19 42-62 22 11 56 47 40 43 57 55 4-21 30-61 25 31 81 92 25-25 25-56zM2576 257q-7-206-94-278-16-14-85-14-147 0-258 205h-27q-50-95-184-145-107-39-228-39-158 0-158 107 0 32 45 97 24-6 68-29 39-22 51-22h51q90 0 197 45 141 58 141 149 0 12-25.5 150t-25.5 153q0 26 46 118 21-38 61-220 42-187 84-272 68-133 177-133h49q25 7 33 46l-154 881q42 142 87 199 22-21 22-71 0-54 15-73 33-20 61-24 20-17 20-37 0-38-30-93-21-33-41-67zM1460 1305v-9q0-53-100-117-91-57-136-57-26 0-50 25 14 26 50 49 46 30 62 44-12 26-57 26-56 0-126-51v33q-1 17 55 73.5t82 56.5q99 0 220-73zM1030 1475q0-50-54-83-74-48-199-107-165-82-201-101h-36q-12 1-12 25 0 79 488 302 14-14 14-36zM1245 724q-40-42-77-42-25 0-53 17-34 20-34 49 37 108 87 108 20 0 77-53v-79zM1368 257q0-64-37-141-48-100-122-100-12 0-107.5 31t-107.5 31-51-30q-45-33-59-39-130-54-233-54-307 0-307 355v335q0 13-25.5 261.5t-25.5 261.5q0 31 43 97h36q23-22 29-34 16-269 38-769 1-79 4-156 10-84 64-135.5t119-51.5h66q86 0 200.5 56t122.5 56q10 0 100-23 96-24 133-29 22 28 22 68 0 19-7 65t-7 73q0 66 35 123 12-12 32-35 45-229 45-216zM1102-265q0-42-82-87-12 0-49 20.5t-49 20.5-48-30.5-49-30.5q-35 0-81 36-41 33-41 51t39 57.5 57 39.5q13 0 46.5-20.5t46.5-20.5 48.5 31 48.5 31q25 0 69-36.5t44-61.5zM2984 1420q0 19-11 29-8 0-22.5-15.5t-14.5-23.5q5 0 24 5t24 5zM2061 1575v46q-22 24-37 24-23-23-23-48 43-22 60-22z" glyph-name="uniFB69" horiz-adv-x="2998" unicode="&#xfb69;"/><glyph arabic-form="isolated" d="M1993 754q0-25-32-59t-50-34q-31 0-59 34-23 28-23 43 0 23 27 62 30 45 60 45 27 0 54-42 23-36 23-49zM1429 1371q-39-43-209-149l-244-150h-46q-12 0-12 24 0 53 123 132 73 40 145 80 27 15 196 120h47v-57zM2495-290q0-22-45-63-40-40-53-40-14 0-46 17-37 21-50 25-2 43 23 84 28 48 73 48 21 0 59.5-26.5t38.5-44.5zM2443 288q0-114-41-150-15-13-177-84-31-14-42-84-1-10-20-63-33-88-99-169-78-95-166-128-64-23-172-23-116 0-313 44-7 4-34 32 26 47 71 47 13 0 79.5-10.5t79.5-10.5q73 0 121 12 96 26 214 102 31 21 103 107 79 94 79 127 0 10-41 51t-41 61q0 93 62 93 9 0 48-10.5t54-10.5q62 0 143 47-10 32-54 103-38 63-38 75 0 36 45 102 56-19 99-102 40-80 40-158zM2586-511q0-53-53-83-64-37-174-82-161-67-177-75-6 5-18 11.5t-17 11.5q0 16 15 41.5t28 33.5q346 178 361 178 35 0 35-36zM1184 559q0-36-32-60-28-22-55-22-33 0-65 25t-32 47q0 17 33 58 35 44 59 44 33 0 65-43 27-36 27-49zM1829-68q1-25-41.5-67.5t-61.5-42.5q-10 0-44 20.5t-47 20.5q-14 0-49.5-31t-48.5-31q-23 0-62 23-45 26-45 50 0 30 40 68 37 34 57 34 11 0 41.5-15.5t45.5-15.5q16 0 107 61 39-22 108-74zM723 1026q-6-24-25-66-32-42-77-42-15 0-34.5 10t-32.5 10q-12 0-50.5-36t-51.5-36q-52 0-107 53-1 35 32.5 78t53.5 43q12 0 36.5-10t35.5-10q13 0 56.5 35.5t55.5 35.5q10 0 108-65zM1573 272q0-92-47-161-50-74-127-74-12 0-92 25.5t-92 25.5q-3 0-79-51t-182-51q-244 0-306 228-6 14-23 37-28-36-89-88-49-24-156-24-139 0-159 44-1 59 69 149 64 81 139 130 46 24 138 95 17 17 18 60v65q3 49 31 72 42-62 66-237 25-183 65-251 67-117 232-117 99 0 173.5 56.5t83.5 56.5q12 0 74-30.5t75-30.5h69q3 2 13 16-17 134-17 116 0-6 32 122 8 0 26 12 65-132 65-195zM1972-536q0-17-28-52-30-35-56-47-276-126-321-126h-42q-13 14-13 30 0 17 19.5 44.5t34.5 33.5q129 48 381 147 9-5 17-10t8-20zM570-90q0-49-27-64-122-70-335-167h-35q-13 13-13 31 0 55 156 124 79 40 240 111 14-14 14-35zM642-280q0-50-81-95-49-21-96-41-90-46-259-110-14 12-25 12v33q0 46 130 107 80 38 140 55 57 30 176 79 15-13 15-40zM611 335q0 66-13 100h-34q-76-37-178-139 10 0 29.5-6.5t31.5-6.5q32 0 109 12 1 1 55 40z" glyph-name="uniFB6A" horiz-adv-x="2454" unicode="&#xfb6a;"/><glyph arabic-form="final" d="M4444 1464q0-32-55-98-47-56-60-63-68-33-151-33 9 0-78 27-2-3-30-7h-33q-12 2-12 26 0 30 41 59 38 27 66 27 13 0 21-4.5t20-4.5q20 0 80.5 81.5t108.5 81.5q30 0 59-43 23-35 23-49zM3912 1386q0-44-99-79-83-29-125-26v38q25 9 70 43-6 10-31 10-10 0-38-9-26-7-43-4 14 44 61 86 44 39 72 39 24 0 133-53v-45zM4301 215q0-74-34-163-16 5-35 13-21 234-37 339-18 87-41 256-9 46-25 132-43 250-43 237 0 47 43 138 37-5 49-62 8-53 17-106 8-34 54-349 52-353 52-435zM3083 1469q0-55-204-185-159-102-222-127-14 11-24 11v44q-1 32 206 151 63 45 196 131h35q13-1 13-25zM3922 307q0-135-53-223-64-104-188-104-73 0-145 22-67 23-203 156-146 143-222 180 2-91-12-150-21-90-90-144-23-18-82-31-62-14-82-26-22-14-43-60-15-39-31-77-85-171-182-226-135-74-274-74-49 0-211 13-56 4-147 40 0 5 5.5 24t5.5 24q36 0 113-9.5t86-9.5q12 0 37 8t34 8q130 7 260 85 145 86 216 221-26 26-36 26-12 0-14.5-5.5t-15.5-5.5q-68 0-127 47-63 50-63 122 0 59 50 148 58 103 119 103 58 0 121-118t99-118q55 0 175 58 2 46-45 140-39 78-112 173-61 66-178 215-14 20-14 60 0 101 96 213 67 78 306 228 190 117 574 356h36q0-3 6-11.5t6-23.5q0-18-17-54-18-38-36-50-221-128-656-395-213-139-213-208 0-23 121-129 62-53 124-107 73-81 128-122 92-66 205-177 99-98 149-127 81-49 195-49 143 0 143 82 0 13-12 63-13 56-16 75-26 184-78 553-14 20-35 60-2 9-2 53 0 34 53 168 5 0 18.5 5t18.5 5q12-36 34-104 1-1 43-16 17-11 17-38 0-13-15-43-19-37-23-50-3-8-3-102 0-12 41-273.5t41-273.5zM2612 936q0-28-155-105l-228-114h-34q-14 13-14 35 0 51 54 83 74 44 193 101t138 57q46 0 46-57zM2079 358q-6-16-11-148-1-57-21-86l-27-11-125 911q8 73 9 79 14 55 60 73zM2356 1715q-12-31-36-76-51-51-131-87-174-77-452-230-416-228-416-298 0-3 85-93 104-108 172-208 101-148 135-287 10-16 24-51 5-25 5-88 0-236-272-236-13 0-102.5 31t-101.5 31q-11 0-64-33-61-37-89-47-77-27-223-52-121-22-152-22-179 0-304 47-208 77-208 266 0 53 50 133 57 93 140 138 15-15 15-31 0-14-17-33-11-13-23-26-42-67-42-115 0-206 323-206 17 0 41 .5t30 .5q418 0 571 204h37l2-100q10-42 71-42 110 0 236 58 8 42-14 98-31 79-117 214-101 162-146 162-13 0-15-5t-16-5q-63 0-109 50-45 45-45 98 0 149 96 268 73 90 215 176l224 126q203 121 356 192 121 51 242 103zM1864-2q-27-91-64-107-40-17-214-102-134-65-148-65h-53q-3 9-12 25 33 71 198 131 88 44 268 130 15-12 25-12zM810-199q0-17-32.5-52t-49.5-35q-47 0-102 53 0 39 19 80 23 51 57 51 43 0 79-43 29-36 29-54zM974-379q0-58-188-136-99-44-299-129-6 5-18 11.5t-17 11.5q0 40 13 56 22 27 71 46l82 30q114 55 341 151 15-14 15-41zM4341 1404l-12 39q-47-23-47-50 11 0 33 5.5t26 5.5zM2662 156q-45 68-67 79l-24-24v-34q45-30 91-21z" glyph-name="uniFB6B" horiz-adv-x="4292" unicode="&#xfb6b;"/><glyph arabic-form="medial" d="M3437 1244q-34-86-177-177-113-72-226-145h-57v34q-1 47 117 122 71 40 140 80 69 50 179 111zM3488 189q0-44-15-73-33-73-68-146-50-88-148-181-68-64-131-83-145-44-206-44-92 0-299 62l-13 13v37q26 22 45 22 12 0 84.5-10.5t85.5-10.5q120 0 188 23 96 32 217 141 131 119 160 222v14q-15-5-48-46-29-37-82-37-69 0-109 65-30 50-30 99 0 41 54 150 62 126 115 126 91 0 153-156 47-116 47-187zM1973 1352q0-65-105-131-89-54-126-54h-94l-13 13v26q11 17 75 35.5t78 52.5l-9 11q-6 6-46 6 4 0-118-31v34q0 23 45 63 40 35 60 42 13 4 74 4 51 0 104-15 75-19 75-56zM1502 1705q0-51-164-143-127-71-181-87l-23 23q7 57 113 119 205 121 207 122h36q0-3 6-11t6-23zM1369 1443q0-54-44-78-150-85-331-167l-16 10t-8 21q0 42 110 105 59 30 117 59 63 50 147 81 8-4 16.5-9.5t8.5-21.5zM1706 875q0-25-35.5-61t-50.5-36q-28 0-73 30t-45 52q0 18 34.5 60.5t57.5 42.5 67.5-36.5 44.5-51.5zM2945 239q1-42-64-73-49-23-79-23-10 0-82.5 10.5t-86.5 10.5q-85 0-201-41-182-65-237-80-72-18-213-36-124-17-153-17-130 0-241 33-9 2-32 16-19 12-34 12-9 0-95-19-96-21-134-25-145-20-421-40-233-18-271-18-105 0-191 40-106 48-124 138-3 13-47 717-1 56-20 173l-38 130q0 92 52 92 68 0 86-213 2-136 5-273 9-289 44-481 10-50 76-102 61-47 96-47 24 0 119 79 87 72 92 81 35 68 35 168 0 124-56 536-3 19-21 69-16 47-16 60 0 91 75 173 26 0 33-13 21-63 26-70 19-36 70-61 0-15-48-149-2-6-2-85 0-92 33-342 8-59-13-163l17-17 102 64q31 18 91 18 71 0 144-34 96-45 96-125 0-51-101-174 15-15 25-15 26 0 161 33 23 17 35 36 2 39 16 122 13 43 90 135 89 104 143 104 59 0 94-66 29-54 29-118 0-49-10-73-15-38-72-108 0-19 17-32 16 0 60-6.5t56-6.5q78 0 207 24 143 27 234 65-15 32-69 60-49 25-85 25-14 0-192-51-13 2-13 26 0 60 97 132 88 68 138 68 10 0 113-51 115-56 160-70 94-30 276-72 50 0 147-5 44-3 72-20v-35zM2444-113q0-17-14-43-15-29-30-35-53-24-246-121-153-77-167-77h-53q-12 2-12 26 0 48 64 83 376 199 393 199h52q13-14 13-32zM1216 758q0-41-43-70-34-23-60-23-33 0-67.5 26.5t-34.5 50.5q0 28 33 64 32 34 49 34 32 0 79-38 44-34 44-44zM3334 313q-17 18-56 56-45-47-45-68 0-11 22-35h45q34 17 34 47zM1697 333q0 21-46 66-32-16-65-48t-33-50v-31q25-24 41-24 18 0 58 30 45 33 45 57zM1163 274q-52 43-137 43-68 0-147-63-33-25-124-120h85q64-1 309 106 14 30 14 34z" glyph-name="uniFB6D" horiz-adv-x="3965" unicode="&#xfb6d;"/><glyph arabic-form="isolated" d="M1515 1129q0-70-55.5-124.5t-117.5-54.5q-13 0-23.5 5t-22.5 5q-11 0-63-25.5t-66-25.5q-46 0-77 42-25 34-25 66 0 23 23 73 28 54 55 75 1-2 10-85 6-58 45-58 44 0 59 50l26 90q11 7 32 23 32-16 32-51 0-5-.5-15t-.5-15q0-38 42-51 31 4 44 66 14 69 49 87 34-35 34-77zM1597-232q0-57-215-145-121-50-241-85-25 24-25 36 0 40 176 118 241 107 248 111h44q13-13 13-35zM1546 300q0-70-36-122-40-58-102-58-13 0-102.5 26t-102.5 26q-9 0-51-33-50-39-90-56-28-4-71-17-34-22-39-97-8-96-14-111-60-145-212-229-132-71-275-71-127 0-232 71-116 76-116 185 0 69 45 166 53 113 128 150v-67q0-7-30.5-65t-30.5-82q0-97 100-156 82-49 171-49 95 0 224 56 161 69 161 165 0 67-24 120-8 19-58 96-41 66-41 80 0 62 55 118 30-36 99-104 36-29 101-29 72 0 124 61 23 27 75 120 16 31 81 95 75 72 105 72 46 0 105-115 53-104 53-146zM584 351q0-26-27.5-67t-49.5-41q-30 0-107 74 0 40 18 81 23 50 59 50 19 0 63-39.5t44-57.5zM1392 306q0 17-32 80h-36q-36-35-32-59 62-21 100-21z" glyph-name="uniFB6E" horiz-adv-x="1558" unicode="&#xfb6e;"/><glyph arabic-form="final" d="M1617 1463q0-25-12-56h-52q-13 0-16.5 10t-15.5 10q-9 0-63-49-65-60-99-80-10-8-155-65l-57 14q92 67 276 216-72 77-72 112 0 22 24 67 25 50 52 77 50 48 106 46 32-31 38-91l2-100q1-24 6-38 3-7 23-34 15-22 15-39zM1086 1525q0-147-179-173-6-1-28-14t-39-13q-27 0-54.5 23.5t-27.5 48.5q0 46 43 111h37q0-42 17-60 14 13 42 51.5t50 60.5q11-26 42-82 23 17 44 51 25 40 37 51 16-15 16-55zM2263 1606q0-53-57-104-46-41-184-131-116-76-233-152-326-221-592-465 0-10 30-31 230-123 236-127 124-87 124-209 0-109-95-196-92-85-202-85-13 0-79 23-77 27-87 29l-10-158q-11-107-54-167-62-89-178-140-107-47-221-47-127 0-228 77-105 80-105 189 0 113 146 326 38 0 38-19 0-11-36-109t-36-110q0-43 44-100.5t86-77.5q50-22 127-22 103 0 213 55 135 68 135 170l-103 931q0 70 44 133 24 0 30-25 12-100 17-128 13-76 38-134 175 147 519 415 177 122 535 369 31 23 123 66 15-14 15-46zM1178-400q0-57-214-147l-274-104q-24 25-24 36 0 54 166 119.5t298 130.5h36q0-4 6-12t6-23zM1495 1604q0 11-27 38l-14-37q21-21 41-1zM1495 373q0 29-151.5 117.5t-224.5 106.5l-13-56q67-197 72-204 37-67 138-67 33 0 95 23 84 32 84 80z" glyph-name="uniFB6F" horiz-adv-x="1587" unicode="&#xfb6f;"/><glyph arabic-form="initial" d="M3519 1466q-85-64-268-145-234-104-270-123-14 11-24 11v34q-1 42 145 109 87 37 174 73 79 42 229 110l14-12v-57zM3314 865q0-18-30-57.5t-46-39.5q-28 0-64 40-34 37-34 57 0 22 25 54.5t52 32.5q28 0 62.5-31t34.5-56zM3457 711q0-29-42-60-37-27-54-27-20 0-53 20.5t-45 20.5q-13 0-51-35.5t-51-35.5q-28 0-70.5 31t-42.5 56q0 18 38.5 57.5t58.5 39.5q13 0 49-20.5t49-20.5 48.5 25.5 48.5 25.5q37 0 77-26t40-51zM2751 1377q0-69-105-129-67-40-123-54-27-17-33-17-33 0-56 13 3 36 60 63 70 35 93 67-12 11-50 11-68 0-88-28-25-36-53-44l-23 26q10 22 34 64 48 62 90 81 31 13 95 13 159 0 159-66zM2260 1489q0-46-230-167-150-78-255-124h-37v45q0 34 183 130 145 76 291 152h35q13-14 13-36zM3611 256q0-215-168-215-13 0-91 25.5t-89 25.5q-12 0-40-25-32-28-45-33-58-24-125-24-13 0-89.5 20.5t-89.5 20.5-38-12q-32-14-37-16-86-23-160-23-126 0-183 44-5 4-34 41-21 27-39 27-11 0-57-37-52-42-80-52-83-28-390-33-30 0-111-10.5t-89-10.5q-13 0-113 5.5t-112 5.5-39-10-38-10q-13 0-151.5 15t-151.5 15q-33 0-57-94-14-59-29-118-49-90-186-144-115-43-224-43-129 0-232 61-131 76-131 215 0 66 65 174 55 93 91 121h37q-16-78-48-129-23-37-23-89 0-107 101-165 77-45 171-45 87 0 200 49 142 61 142 151 0 33-13 80-3 8-58 109-51 93-51 112 0 21 23 92h36q33-51 113-142 38-32 131-50 123-23 188-23 89 0 181 72 96 75 96 154 0 35-24 237-27 239-51 350-3 11-22 55-16 38-16 54 0 42 25 104 27 65 62 101 20-17 31-89 8-58 76-76-5-23-29-99-22-68-22-80 0-4 17-165 16-164 17-213 0-7 6-82 5-57 0-90-7-7 17-7 11 0 69 42 72 50 103 66 69 35 124 35 59 0 124.5-44.5t65.5-88.5q0-51-37-99-85-107-86-110 11-6 62-6 88 0 137 13 57 15 110 50 36 24 63 68 18 23 43 23 7 0 71-54 70-61 105-77 4-3 75-3h72q32 4 84 33 23 12 61 66 32 45 57 45 6 0 11-2 11-44-9-144 12-8 61-8 139 0 195 65 58 85 117 170 36-9 36-63 0-18-9-74 48-47 91-47 26 0 49 28 1 14-6 56-8 48-8 74 0 67 42 108 25-11 52-89 25-73 25-115zM2628-225q0-24-32.5-58t-54.5-34q-14 0-50 17-42 21-51 24-62-62-88-62-40 0-81.5 26.5t-41.5 55.5q0 20 31.5 56.5t50.5 36.5q10 0 48-20.5t55-20.5q12 0 50.5 35.5t51.5 35.5q25 0 68.5-35t43.5-57zM1328 645q0-31-30-92-28-55-39-61-4 57-27 167-12 37-73 109-56 66-56 77 0 18 17 42t34 24q67 0 127-125 47-100 47-141zM611 619q0-28-32-62.5t-49-34.5q-34 0-68.5 27t-34.5 55 26.5 60 55.5 32q34 0 70-29 32-27 32-48zM815-548q1-27-148-99-97-45-192-89h-45q-14 1-14 25 0 42 104 97 57 26 114 53 84 49 145 69h36v-56zM632-773q0-56-34-74-65-34-188-72-147-44-193-64-15 15-15 37 0 53 44 72 4 2 169 53 110 34 159 83h45q13-13 13-35zM2014 293q-68 35-123 35-80 0-155-56l-162-138h106q41-2 218 63 27 10 64 40 42 33 52 56z" glyph-name="uniFB70" horiz-adv-x="3624" unicode="&#xfb70;"/><glyph arabic-form="medial" d="M2540 1475q-5-35-26-80-164-105-533-256l-23 24q23 57 53 73 160 79 473 239h56zM2438 948q1-16-33-62t-52-52q-36-3-102-16-11-5-50-23-29-15-44-15-25 0-56 32.5t-31 59.5q0 11 30 54 33 46 50 47 0-58 37-80 21 15 62.5 61t62.5 61q1-2 9-43 5-28 20-28 13 0 59 70h38v-66zM2469 222q0-61-53-145-3 0-19.5-7t-29.5-7-113 20.5-113 20.5q-28 0-45-33-20-41-49-55-67-34-141-34-56 0-104 32-56 38-67 105-32 196-71 568-34 324-34 359 0 46 44 112 38-14 47-93 5-57 11-115 23-78 29-202 4-93 8-188 9-91 31-245 25-180 152-180 60 0 89 22 17 13 131 185 100 151 154 151 50 0 101-127 42-106 42-144zM1528 181q0-108-81-238-21-41-68-110-128-138-317-138-204 0-322 64 0 20 22 34 9 4 49 4 12 0 66-4.5t67-4.5q60 0 80 5 5 1 159 58 44 17 153 125 120 117 120 169 0 11-82 94.5t-82 95.5q0 7 32 107h33q17 0 62-39 41-37 63-65 46-63 46-157zM934 283q0-113-35-196-16-36-102-62-150-43-227-43-159 0-159 92 0 23 12 60 14 42 29 42 13 0 66.5-15.5t67.5-15.5q50 0 141 20 106 23 125 48-18 87-130 177-106 84-106 124 0 34 45 102 273-189 273-333zM1578-443q0-51-122-116l-146-66q-44-29-145-79h-34q-13 14-13 30 0 67 218 157 84 34 195 110h34q13-14 13-36zM585-249q0-23-152-101-144-73-202-88-14 14-14 36 0 48 164 131 118 59 179 79 14-11 25-11v-46zM493-479q0-70-177-137-26-9-300-118-1 0-21 9-14 5-14 21 0 43 45 69 30 13 61 25l92 41q87 35 266 121h35q13-14 13-31zM2336 242q-22 64-33 86h-36q-16-22-44-66 35-35 77-35 21 0 36 15z" glyph-name="uniFB71" horiz-adv-x="2470" unicode="&#xfb71;"/><glyph arabic-form="final" d="M1151 1834q0-44-436-225h-64v31q-1 36 183 120 135 60 271 121h46v-47zM1058 1466q1-50-115-109-98-49-129-49-52 0-52 62 0 26 44 91 30 0 45-30 24 17 68 81 9 0 35-14.5t37-15.5q23 25 67 61v-77zM1019 1026q0-34-33-69-42-46-58-85-12-34-14-97-2-76-6-98-10-55-26-132-12-53-58-161-41-100-41-110t25.5-90.5 25.5-93.5q0-46-43-109-299-34-346-34-113 0-113 71 0 2 34 102 34-9 84-9t125 62 75 106q0 28-184 275-189 253-231 253-11 0-29.5-5.5t-31.5-5.5q-159 0-159 175 0 30 16 66 19 46 50 46 119 0 451-422 52-86 175-265h30q30 33 46 87 14 48 27 95 1 31 4 86 1 9 2 16 41 154 41 228 0 32-6 56-25 91-24 94 3 33 37 85 27 41 55 83h36q1-5 1-127 20-15 39-31 24-20 24-42zM720 134v36q-9 0-25 12-12-19-34-48h59z" glyph-name="uniFB73" horiz-adv-x="1431" unicode="&#xfb73;"/><glyph arabic-form="initial" d="M4453 1464q0-45-37-68-113-71-409-208-15 14-15 35 0 43 62 80 52 25 105 50 82 50 247 141h34q13-13 13-30zM3920 1416q-54-59-191-113-127-47-254-95l-45 11v70q162 79 454 195h36v-68zM3860 1111q0-51-53.5-105t-100.5-54q-12 0-28 5.5t-29 5.5q-12 0-48-20.5t-49-20.5q-35 0-56 32-16 25-16 44t20 56q23 43 48 51 10-18 41-61 33 11 99 81h37v-44q8-3 27-16 32 16 69 70 39 0 39-24zM4709-179q0-17-34-52t-53-35q-11 0-47.5 20.5t-49.5 20.5-56.5-36-56.5-36q-41 0-79 33-33 29-33 49 0 38 34 67 29 26 52 26 12 0 48.5-20.5t49.5-20.5 53.5 41 53.5 41q30 0 74-37t44-61zM3213 1416q2-37-63-72-262-138-412-208-15 12-24 12v46q51 53 215 138 188 98 247 142 6 0 19-6t18-6v-46zM3122 1044q0-20-27-68-29-54-57-72-42-9-114-27-12-4-49-23-30-14-45-14-76 0-76 66 0 13 22 57 26 50 31 69h38v-63l18-18q35 0 63 52t51 52q4 0 9-2 13-11 13-42-3-7 21-7 16 0 43 32 32 41 45 49 14-15 14-41zM2406 1259q0-61-36-61-14 0-41.5 20.5t-40.5 20.5q-20 0-89-63-88-82-149-120-106-66-217-71 23 28 201 157 156 114 156 143 0 12-46 57t-46 56q0 46 61.5 127.5t102.5 81.5q79 0 80-173v-49q0-22 4-25 60-76 60-101zM4566 328q0-140-69-184-49-32-188-32-48 0-78 18l-80 54q-15-10-68-70-28-32-86-32-12 0-26 2-18 4-25 4-49 4-149-6-109-11-107-11-11 0-75.5 10.5t-77.5 10.5q-11 0-99-20.5t-101-20.5q-11 0-91 15.5t-93 15.5-49-31-49-31q-30 0-162.5 51.5t-128.5 51.5q3 0-94-61.5t-187-61.5q-98 0-157 34-10 5-69 57-47 42-67 42-46 0-330-116-14-6-73-126-20-29-56-83-156-238-453-238h-110q-35 0-195 54v36l12 15q28 4 107-4 89-9 90-9 344 0 537 312-29 26-51 26-11 0-26-5t-25-5q-68 0-121 44t-53 104q0 50 44 144 56 117 125 117 92 0 198-226 16-3 38-3 117 0 219 72-23 40-69 48-59 11-73 20 22 85 116 143 79 48 144 48 71 0 151-41 90-45 90-102 0-62-72-120 0-28 38-52 54-33 136-33 105 0 200 72 48 36 134 133 63 72 91 72 11 0 74-61 76-75 113-101 92-63 233-63 66 0 172 42 21 9 50 45 35 42 52 55h37q0-80-19-116 17-16 51-16 103 0 156 32 32 41 105 111 15-11 24-11 6-50-9-96 17-16 36-16 64 0 101 66 41 73 95 87 13-19 16-83 72-39 121-39 34 0 75 10 58 13 58 36 0 16-34.5 97.5t-60.5 125.5q-9 15-48 40.5t-48 41.5q-14 22-14 59 0 33 66 133 18-12 42-33 94-154 126-235 43-104 43-213zM1249 1536q0-46-81-98-53-30-107-59-10-6-164-82-78-44-228-109-14 14-14 41 0 42 25 56 174 90 521 281h35q13-14 13-30zM880 840q0-31-32.5-67t-49.5-36q-46 0-102 53 0 26 24 75 27 57 52 57 21 0 64.5-31.5t43.5-50.5zM1249 256q0-21-20-82-22-71-47-110-49-78-192-131-122-46-218-46-142 0-237 61-116 73-116 216 0 65 62 168 58 96 127 160 15-13 26-13v-46q0-10-37-67-46-69-63-107-2-9-2-24 0-105 102-157 73-37 159-37t202 38q161 54 161 141 0 81-71.5 205.5t-71.5 121.5q0 14 12 40 17 37 21 47h46q94-129 127-212 30-75 30-166zM2271 1414v47q-22 23-46 23-6-5-12.5-17.5t-11.5-17.5l33-35h37zM2988 206q-22 91-61 91-30 0-50-48 1-1 36-26 26-18 41-17h34zM1647 165v37q-43 43-68 43l-23-23v-35q41-21 91-22z" glyph-name="uniFB74" horiz-adv-x="4580" unicode="&#xfb74;"/><glyph arabic-form="medial" d="M1223 1455q0-39-205-147-134-67-269-135h-35q-13 14-13 41 0 50 34 67 407 209 413 209h52q23-24 23-35zM1673 221q0-161-58-194l-115 926q0 20 53 128 10 0 27-11.5t18-24.5zM1776-285q0-16-19-38t-36-26q-75-19-228-85-24 31-21 55-6 9-40 50-25 29-25 44 0 25 67 105 69 84 103 84 40 0 96-54-11-34-23-67-11-23-43-23-12 0-27.5 11t-31.5 11l-18-16q63-36 88-36 59 0 146 10 12-2 12-25zM1325 67q0-180-282-314-224-105-367-105-131 0-259 87-146 99-146 236 0 72 54 176 29 54 103 125 38 0 38-21 0-12-41-89t-41-89q0-140 120-210 87-51 202-51 227 0 467 161 2 22-38 29-129 25-259 57v46q20 42 155 78 121 32 121 100 0-1-31 166-38 204-65 422-2 10-25 54.5t-23 58.5q0 43 95 209 5 0 18-5.5t19-5.5q0-83 4-97 14-51 78-77 2-8 2-17 0-34-60-142-3-9-3-29 0-13 36.5-218t36.5-217q0-84-41-230 23-21 90-37 42-11 42-51zM1868-447q0-48-27-65-30-21-150-58l-128-54q-86-35-140-35-31 0-67 47 12 17 34 41 382 158 422 158 22 0 56-34z" glyph-name="uniFB75" horiz-adv-x="1690" unicode="&#xfb75;"/><glyph arabic-form="isolated" d="M2910 1440q0-83-86-151-77-59-144-59-10 0-48 10.5t-54 10.5q-32 0-72-21-15 15-15 32 0 16 22.5 51t41.5 46q33 6 92 27 50 58 144 137 11 5 33 5 31 0 57-23 29-26 29-65zM2470 1481q0-65-93-121-79-48-127-48-33 0-56 13 0 23 35 47 57 39 68 49-7 25-47 25-15 0-50-17-47-22-54-24-14 2-14 25 0 37 61 85 55 43 82 43 43 0 111-20 84-25 84-57zM2778 202q0-20-15-92-16-77-29-108-18 0-36 24 2 24 2 50 0 96-23 248-18 123-36 245-8 65-44 253-35 173-35 183 0 17 26.5 73.5t40.5 70.5q11-11 31-45 10-83 67-507 51-381 51-395zM2019 813q-90-90-435-238-15 15-15 36 0 59 190 162 131 71 235 109 15-11 25-11v-58zM1478 1430q0-41-34-63-108-72-270-164-166-95-185-95h-44v45q0 31 208 154 133 80 266 159h45q14-14 14-36zM2368 293q0-166-61-236-69-77-249-79-29-50-63-55-90-13-118-13-14 0-98 36t-97 36-107.5-36-107.5-36q-209 0-243 250-4 74-28 221-12-39-34-130-23-107-42-147-29-45-57-89-42-69-172-142-52-31-154-64-93-32-116-31h-52l-13 12v38q111 65 221 131 209 129 209 161 0 12-18 54-22 51-27 67-16 58-152 236-145 191-198 191-11 0-33-5.5t-33-5.5q-164 0-164 169 0 149 57 149 64 0 235-166 118-113 185-195 79-98 123-195 22-48 72-222 69 119 104 387 40 306 67 380 38-23 55-185 15-150 30-301 15-128 30-258 37-146 173-146 105 0 175 58 21 18 92 108 46 59 92 59 3 0 103.5-77t188.5-77q103 0 143 47-38 275-106 664-4 21-32 91-26 66-26 79 0 58 76 184 29-16 33-57 4-46 15-57 30-16 91-52-6-33-34-104-28-67-28-78 0-12 46.5-284t46.5-285zM1333-406q-42-39-119-60-65-18-129-36-8-4-66-34-45-25-60-24h-44v34q-1 13 60 74 0 11-23 28-36 27-37 29-7 42 24 78 104 125 154 125 18 0 48.5-32t38.5-56q-37-35-56-35-12 0-36 10.5t-34 10.5l-27-27q31-41 57-50 16-5 76-5t160 9l13-12v-27zM1425-599q-20-21-33-30-145-48-434-136-13 1-13 25 0 38 44 52 375 127 371 127h65v-38zM2796 1403h-47l-12-38h47q12 11 12 38zM1876 97q-27 64-67 79l-24-13v-35q54-36 91-31z" glyph-name="uniFB76" horiz-adv-x="2795" unicode="&#xfb76;"/><glyph arabic-form="final" d="M3457 1348q0-18-19.5-61t-37.5-61q-87-94-204-94 13 0-64 5-52 3-84-3v64q-1 15 30.5 41.5t50.5 26.5q13 0 20.5-5.5t20.5-5.5q21 0 89.5 82t120.5 82q28 0 52.5-23t24.5-48zM3037 1516q0-63-85-119-74-49-130-49-27 0-41 14 9 33 45 56 56 36 67 48-21 25-61 25-44 0-95-50h-37q19 74 73 115 47 37 100 37 47 0 101-20 63-24 63-57zM3355 175q0-48-18-106-21-69-51-82l-136 930q0 32 54 112 13 0 33-33 29-169 83-503 35-232 35-318zM2381 1669q0-51-227-151-71-31-226-119h-46q-12 1-12 25 0 64 474 281h37v-36zM2392 1195q-32-29-138-61-113-34-152-62h-47q0 3 4.5 23t4.5 32q0 13-25 41t-25 41q0 33 74.5 116.5t109.5 83.5q38 0 67-34 25-27 25-48 0-22-22-41.5t-40-19.5q-13 0-34 15.5t-31 15.5q-4-6-13-9t-14-9q0-7 2-17 35-37 75-37-17 0 165 19l14-12v-37zM2914 1018q1-12 1-23 0-84-91-147-5-98-26-285-8-44-40-146-28-93-28-104 0-7 40.5-112t40.5-134q0-55-43-108-290-55-376-55-112 0-112 77 0 32 19 62 23 35 57 35 11 0 30.5-5.5t30.5-5.5q39 0 117 95 73 89 73 110 0 43-163 226-142 160-194 202-15 13-42 13-13 0-27-5.5t-24-5.5q-54 0-104 53.5t-50 105.5q0 70 33 138h32q46 0 134-77 101-88 165-160 91-117 286-356 58 63 66 168 1 93 3 185 7 33 13 67 8 46-2 74-20 57-20 102 0 62 93 212 31-16 31-52 0-12-5-37t-5-36q0-45 64-54 6-4 23-17zM1768 1102q0-18-35.5-69.5t-68.5-80.5q-63-55-137-55-15 0-23 5.5t-11 5.5v48q35 19 100 79-4 5-41 5-25 0-141-71v44q-1 17 30.5 55.5t61.5 58.5q38 26 208 26 20 0 38.5-16t18.5-35zM1379 1496q0-51-103-102l-114-50q-88-60-249-140h-33l-24 25q9 27 36 66 116 84 325 181 49 17 147 55 15-14 15-35zM2044 324q0-128-234-237-195-91-308-91h-57q-88 0-227 143-8 0-22-18-43-137-43-130 0-36 36-36 12 0 10.5 5t10.5 5q60 0 105-30 53-35 53-98 0-157-282-278-221-95-347-95-130 0-252 84-143 99-143 244 0 91 56 198 60 116 148 169v-67q0-8-39-70-42-66-49-94-3-9-3-54 0-125 130-195 98-51 203-51t244 53q134 52 181 105-32 28-120 33-117 9-143 16-35 9-35 48 0 50 35 74 35 21 70 41 73 55 86 96 25 76 25 178 0 13-26 279.5t-26 278.5q0 131 45 199 40 0 44-34 0-48 1-144 1-29 5-51 22-131 43-263 33-169 79-267 10-22 83-70 9 97 92 241 103 179 218 179 110 0 219-115v-36q-13-13-30-13-11 0-60.5 20.5t-62.5 20.5q-34 0-137-53-109-57-109-90 0-21 23-64 9-18 81-66 67-44 76-44 47 0 164 74 88 56 141 100h35q13-13 13-30zM887 385q0-41-52-173-8 0-27-11 2 118-27 218-9 30-61 113-48 76-48 88 0 46 46 72 72-57 123-161 46-90 46-146zM3353 1305h-36q-23-20-23-39h37q22 21 22 39zM2699 135q-22 44-48 44-53-49-53-80h54q17-1 33 14 14 12 14 22z" glyph-name="uniFB77" horiz-adv-x="3373" unicode="&#xfb77;"/><glyph arabic-form="initial" d="M4766 1448q0-44-183-167-167-113-244-140-14 1-14 25 0 50 36 76 112 72 337 236h55q13-13 13-30zM4182 1253q0-26-45-72-26 16-71 41-46-60-135-128-105-81-184-97l-46 14q34 48 129 118 113 84 148 119-8 11-62 66-40 42-40 57 0 45 53 115 57 75 105 75 34 0 52-35-1-58 16-174 4-10 43-47 37-35 37-52zM3650 1463q0-46-80-106-74-56-108-56-26-16-34-16h-64q7 18 112 117-1 1-2 1-12 14-39 14-31 0-53.5-16.5t-43.5-32.5q-8 1-36 17 43 94 86 123 33 21 103 21 159 0 159-66zM4746 245q0 28-15-125-8-16-25-41-46-171-200-276-140-96-298-96-92 0-247 34-22 5-55 54 19 24 68 24 19 0 62.5-4.5t63.5-4.5q355 0 553 374 4 5-5 14-57-41-107-41-123 0-123 149 0 54 33 143 45 118 110 118 80 0 139-144 46-113 46-178zM3558 987q0-26-28-59t-49-33q-10 0-29 10t-33 10q-12 0-50.5-35.5t-51.5-35.5q-32 0-64.5 23t-32.5 43q0 41 40 72 32 26 52 26 10 0 24-5.5t28-5.5q12 0 55.5 36t56.5 36q30 0 58-33 24-28 24-49zM2974 1586q0-41-199-162-164-100-258-140-10 6-21 12-13 8-13 24 0 46 178 155 138 78 276 157 10 0 23-13 14-16 14-33zM2770 1058q0-34-33-65-29-26-49-26-37 0-65 25t-28 51q0 27 26.5 57t55.5 30q43 0 70-25 23-21 23-47zM4049 255q0-97 0-93-5-60-36-95-21-24-117-50-91-23-149-23-68 0-175 23-13 3-48 22-32 16-43 16-4 0-47-29-48-30-75-39-71-23-165-23-109 0-159 30-65 40-149 184-50-45-101-90-64-54-111-71-127-44-232-44-134 0-134 77 0 25 18 65 20 42 39 42 13 0 59-10t59-10q84 0 205 48 153 62 153 152 0 13-31 166.5t-31 165.5q0-14 35 123 13-6 33-24 27-137 54-275 38-170 96-255 78-111 213-111 106 0 140 37-18 103-15 153 5 61 78 175 81 126 145 126 69 0 112-107 31-76 31-128 0 9-52-198 36-17 113-17 149 0 205 46-15 42-73 150-50 93-50 106 0 31 34 86h35q136-118 136-301zM3978-421q0-27-32.5-62t-49.5-35q-11 0-37.5 15.5t-39.5 15.5q-11 0-46.5-36t-46.5-36q-18 0-57 37t-39 56q0 36 38 68 31 23 44 23 10 0 36.5-10t39.5-10 54 25.5 54 25.5q30 0 58-33 24-27 24-44zM1971 1443q0-10-23-56h-46q-32 40-49 40-12 0-75-65-75-74-106-96-74-48-187-84h-35v38q180 120 286 213v39q-83 66-83 103 0 39 47 117 55 94 112 94 27 0 42-24 33-56 42-124-9-32-5-91 5-10 45-52 35-35 35-52zM1919 1079q0-18-30-55t-46-37q-52 0-107 53-1 24 23 65 27 46 53 46 25 0 66-26t41-46zM958 1438q0-52-230-180-187-104-257-128-15 12-25 12v43q0 26 196 140 161 93 302 163 0-4 7-20t7-30zM2237 409q0-130-60-186-41-39-163-75-159-46-241-86-24-12-81-116-71-129-105-172-117-149-374-149-186 0-328 66 27 47 52 47 12 0 68.5-10t69.5-10 18-5.5 18-5.5q52 0 150 29 91 26 118 45 69 46 141 112 92 85 92 121 0 17-16 27-67 2-104 13-68 21-91 76-4 7-4 63 0 48 40 144 48 118 104 118 47 0 117-99 43-63 85-125 5-2 44-2h81q22 0 119 36 105 39 169 73 8 33-11 88-5 5-12.5 9t-12.5 9q-18-32-67-59-42-23-62-23-59 0-104 57-39 48-39 91 0 56 48 164 56 129 116 129 68 0 149-149 58-106 72-162 4-16 4-83zM732 823q0-37-33-67-28-25-49-25-92 0-92 66 0 35 23 66.5t54 31.5q32 0 64.5-23.5t32.5-48.5zM1101 260q0-183-188-287-143-81-294-81-129 0-215 75-92 79-92 211 0 70 52 172 54 107 126 165 37 0 37-19 0-13-56.5-118t-56.5-118q0-194 241-194 203 0 354 128 12 98-34 181-90 162-90 182 0 34 45 102 171-124 171-399zM4591 333q-7 42-45 81-36-36-36-57 0-11 23-35 18 0 36.5 5.5t21.5 5.5zM3609 342q0 21-22 58-25 44-55 44-33 0-67-54-30-48-30-74 0-66 56-66 15 0 64 33 54 36 54 59zM1816 1582q0 24-5.5 46t-5.5 24h-46l-3-3q-10-7-10-22 0-13 33-45h37zM2052 560v35l-33 33h-35q-23-23-23-68 24-23 46-23t45 23zM1571 221q0 18-5.5 36.5t-5.5 21.5h-48q-9-18-10-36 17-12 44-34 10 10 25 12zM4020 1420l-48 12-6-24q6-10 27-15 18-5 18-17z" glyph-name="uniFB78" horiz-adv-x="4750" unicode="&#xfb78;"/><glyph arabic-form="medial" d="M525 486q0-35-36-63-30-24-46-24-10 0-111 63-5 38 15 81 24 51 60 51 34 0 76-37.5t42-70.5zM1497 301q0-45-32-112-38-77-80-77-40 0-133 41t-87 41q-14 0-39-26l-40-42q-24-20-79-46-63-28-91-46 5-178-58-277-32-51-121-92-167-74-237-74h-57q-149 0-243 56-115 69-115 210 0 71 54 162 48 81 104 124 15-12 25-12 0-53-14-78l-36-58q-10-22-10-72 0-179 255-179 198 0 359 130 3 17 3 33 0 107-122 248-14 16-14 55 0 87 46 107 59-34 109-86 25-26 75-26h41q114 0 224 178 23 38 90 95 75 64 111 64 48 0 84-114 28-87 28-127zM1528-346q-168-107-475-206h-35q-12 1-12 25 0 44 36 62 98 49 248 113 154 66 173 65h54q0-4 5.5-26t5.5-33zM1374 304q-25 56-45 74-46-22-46-59 23-11 91-15z" glyph-name="uniFB79" horiz-adv-x="1488" unicode="&#xfb79;"/><glyph arabic-form="isolated" d="M1459 1584q0-56-46-56-9 0-50 20-76-68-151-135-134-110-200-109h-44q102 89 307 280-8 18-45 54-27 27-27 63 0 50 56 112t97 62q73 0 73-114 0-28-5-63l-4-31q2-7 21-37 18-27 18-46zM906 1640q0-20-20-72-23-59-46.5-87.5t-72.5-37.5q-29-5-58-11-67-38-84-38-35 0-63 34-24 30-24 59 0 40 71 122 20-25 20-75 18-17 34-17 3 2 44 71 30 49 63 51 5-26 29-81 16 11 35 44 29 51 34 58 38 0 38-20zM2002 1471q0-58-44-83-193-94-573-304-103-64-205-128-121-80-224-173 0-15 9-22 119-51 237-102 149-67 188-169 0-1 16-31 12-22 12-37 0-133-74-212-78-85-218-85-75 0-111 24-77 53-111 69 1-28 6-107 5-72 5-113 0-260-196-361-144-75-253-75h-82q-54 0-154 67-111 75-120 142-13 97-13 88 0 64 74 181t117 125q14-13 14-40 0-13-46-102.5t-46-102.5q0-90 110-154 87-51 151-51 108 0 222 56 141 67 141 170l-132 1080q0 31 33 166 7 11 33 34l17-14q26-222 86-345 439 329 1063 644h56q0-4 6-12t6-23zM956-539q-388-176-415-174h-64q10 42 18 62 15 35 35 45 82 38 212.5 87.5t149.5 49.5h52l12-12v-58zM1326 387q-71 74-147 112-176 88-228 86h-34v-75q-1-25 17-76 21-59 48-83 83-73 114-73 6 0 21.5 5t28.5 5q56 0 106 22 63 28 74 77zM1349 1753l-48 12-6-24q6-11 28-16 17-5 17-16z" glyph-name="uniFB7A" horiz-adv-x="1427" unicode="&#xfb7a;"/><glyph arabic-form="final" d="M2795 1252q0-46-179-142-154-75-307-150-9 5-17.5 10.5t-8.5 20.5q0 51 116 114 67 31 133 62 84 45 249 121 14-15 14-36zM3041 269q0-92-122-104-89-4-179-7-95-29-277-116-114-54-226-54-211 0-237 157-37 215-80 623-36 349-36 392 0-3 33 97h46q6-13 19-34 28-269 109-972 7-14 23-38 39 47 132 148 28 26 81.5 51.5t89.5 25.5q10 0 74-31 82-39 107-49 168-67 431-55 0-2 6-11t6-23zM2642-186q0-24-32.5-58t-49.5-34q-43 0-79 34-34 31-34 58 0 25 27.5 63.5t49.5 38.5q29 0 75-42 43-41 43-60zM1638 781q0-25-20-53-24-34-57-34-40 0-127 65 50 109 92 109 30 0 69-27 43-29 43-60zM1782 284q0-68-40-140-48-85-113-85-14 0-100.5 36t-99.5 36q-11 0-94-49-96-55-140-71-71-25-226-54-166-30-257-30-129 0-289 56-228 80-228 219 0 87 50 171 2 3 106 146h36q13-13 13-35 0-13-21-38-26-31-28-36-44-90-44-126 0-96 204-159 144-46 216-46h87q76 0 357 64 148 34 199 99 25 41 76 99 6 2 22 15 31-5 32-54-2-36-6-73 44-27 108-27 24 0 88 38-31 61-31 126 0 36 43 102 27 0 35-13 45-95 45-171zM1915-376q0-44-49-74-49-23-97-47-88-39-258-119l-67 13q22 68 54 85 135 58 403 179 14-15 14-37zM942-268q0-39-44-69-34-23-48-23-46 0-113 64 37 110 82 110 19 0 71-32t52-50zM1085-396q0-57-190-135-127-48-254-95l-46 10v50q16 15 43 37 134 53 401 168h33q13-13 13-35zM900-654q-62-64-240-125-14-5-268-82-13 1-13 25 0 16 15.5 41t28.5 31q100 47 264 108 158 60 178 60 15 0 23.5-5.5t11.5-5.5v-47zM2499 218q-111 66-149 66-77 0-159-119 72-24 98-24 101 0 210 77z" glyph-name="uniFB7B" horiz-adv-x="3132" unicode="&#xfb7b;"/><glyph arabic-form="medial" d="M2941 1070q0-26-12-56h-43q-12-1-25.5 14.5t-26.5 15.5-37-31q-30-39-42-47-52-38-251-137-13 2-13 25 0 16 102 101 82 68 164 135-82 76-82 98 0 43 58 125 63 89 116 89 58 0 58-134 0-120-5-113 39-53 39-85zM3023 225q0-57-19-110-24-67-66-81-196-65-293-65-114 0-114 108 0 11 6.5 38.5t6.5 36.5q22 0 73.5-9.5t63.5-9.5q193 0 261 78-3 51-100 140-68 55-136 111 0 132 51 132 17 0 77-41 57-40 92-74 44-42 63-93 34-96 34-161zM2071 1070q0-21-13-43-15-23-33-23-9 0-36 15t-41 15q-13 0-65-57-63-69-80-82-79-65-228-126h-36q23 44 177 162 140 107 140 157-81 54-81 105t58 122q54 65 88 74 10 3 44 3 38-32 44-117 1-66 3-131 59-68 59-74zM1231 1543q0-54-36-78-117-67-356-205h-34q-14 13-14 30 0 43 173 144l232 132q5-5 17.5-12t17.5-11zM1057 1212q1-34-33-52-144-68-432-207h-33q-13 13-13 35 0 45 100 95 54 23 107 45 93 50 279 142 14-13 25-13v-45zM2602 301q2-86-208-86-12 0-33 5t-34 5q-110 0-255-49-130-46-261-92-17-5-154-28-68-12-86-53-120-287-260-358-128-65-279-65-76 0-177 25-106 25-165 60v37l280-29q123 0 254 80 147 91 243 250-14 7-108 7-56 0-109 44-60 48-60 115 0 40 57 133 65 108 123 108 69 0 132-118t82-118q68 0 211 45 136 42 164 64 0 14-29 31-129 64-146 64-23 0-204-39v33q0 47 95 117 88 64 120 64 18 0 115-48 122-60 206-89 141-47 267-47 8 0 84-6 78-6 119-7l16 10v-65zM464 338q-8-64-16-127-12-80-38-109-6 0-18.5 6t-18.5 6l-94 925q0 110 69 159zM986 302q0-12-12-51-14-45-16-63-22-141-162-283-127-131-224-148-15-2-119-2-115 0-324 20l-24 25q14 39 29 46h38q12 0 69-4.5t69-4.5q300 0 516 290 78 106 78 124 0 38-76 122-38 40-77 79-21 21-21 44 0 20 16 55 20 43 45 43 26 0 77-53 42-45 52-63 66-126 66-176zM2827 1220l-11 59q-37-18-37-49 2 0 16-5t32-5zM1916 1209q0 36-14 50-25-25-25-38 12-12 39-12zM1403 164q3 12 3 22 0 16-12 34-17 23-21 35h-36l-23-23v-35q34-12 89-33z" glyph-name="uniFB7D" horiz-adv-x="3447" unicode="&#xfb7d;"/><glyph arabic-form="final" d="M2294 1465q0-45-217-188-137-89-237-145-5 0-17.5 6t-18.5 6q-3 53 23 79 17 16 142 95 100 66 313 182 0-3 6-12t6-23zM1598 1747q0-5-15-57-156-115-410-271-8 5-16.5 10t-8.5 20q0 58 186 176 84 56 249 162 15-14 15-40zM2264 215q0-13-39-106-20-50-41-100-104-299-478-299-31 0-249 33-6 7-22 34l13 17q263 12 398 62 226 86 325 309 0 25-14 25-8 0-38.5-25.5t-64.5-25.5q-64 0-101 42.5t-37 106.5q0 71 39 158 46 103 104 103 44 0 90-36 39-30 70-101 45-103 45-197zM1107 820q0-66-36-66-11 0-24.5 10t-26.5 10q-10 0-24-18-31-69-117-123-28-18-146-74l-15 13v27q59 44 117 88 108 88 108 122 0 16-9 18-83 77-83 111 0 42 40 110 43 74 83 74 17 0 45-16t32-29q9-24 7-75-2-63 0-79 2-18 25.5-54.5t23.5-48.5zM646 1161q2-30-59-112-68-91-120-91-7 0-75-9t-103-9q20 34 86 74 54 31 107 63-24 35-77 35-11 0-137-61v44q-1 35 63 84 59 46 85 46 37 0 125-23 94-25 105-41zM1680 247q0-69-36-152-49-109-128-109-9 0-110 20t-120 20q-13 0-154-25t-154-25h-274q-24-25-32-86.5t-64-115.5l-12.5-7t-31.5-7q-26 0-70 64-37 55-40 74-1 62-6 183-20 27-63 27-59 0-127-27-93-38-93-100 0-12 12.5-49.5t14.5-52.5q44-478 44-543 0-93-14-166-6-20-13-39-11-33-30-40l-86 798q0 75 32 164 43 123 124 163 37 19 105 30 56 10 112 19 23 5 51 59 31-48 97-125 37-33 98-63 58-28 79-28h89q151 0 183 59 1 16 6 50 17 75 82 186 18 30 83 102 57 61 57 74 0 93-55 352-3 13-44 60-3 13-3 39 0 28 84 224 39 2 47-58 2-43 4-88 20-9 54-40 15-23 15-48 0-13-25.5-67t-25.5-67q0-12 8.5-34.5t8.5-31.5q2-118 8-164 12-97 49-161 26-46 158-84 49-14 80-69 26-48 26-95zM2110 316v35q-53 54-80 54-1-4-20-30-12-18-12-31 0-15 5-20t5-9q46-23 67-23 11 0 35 24zM977 960l-13 30-14-6 12-24h15zM1598 184q-25 49-82 77-43 16-88 31-35-34-35-66 0-77 118-77 48 0 87 35zM1321 222q7 27-10 77-20 55-51 55-27 0-62-53-29-47-29-65 0-46 66-46 54 0 86 32z" glyph-name="uniFB7F" horiz-adv-x="2260" unicode="&#xfb7f;"/><glyph arabic-form="initial" d="M3128 1355q1-29-128-104-79-43-157-87-66-44-208-129h-36q-12 0-12 24 0 55 43 83 419 271 464 271 14 0 22.5-6t11.5-6v-46zM2341 1475q0-50-63-91-56-33-113-66-88-55-268-171h-35q-12 2-12 25 0 58 123 134 77 44 155 87 109 79 198 122 15-14 15-40zM2290 998q0-28-27-61-28-36-60-36t-62 34q-25 28-25 48 0 22 29 57t48 35q30 0 65-31 32-28 32-46zM3232 239q0-44-149-149-124-88-151-97-190-65-227-65h-67q-71 0-170 70-101 71-114 136-43-41-149-110-49-24-150-41-81-14-113-14-154 0-154 102 0 37 44 103 10 0 37-20 32-23 49-29 35-13 96-13 85 0 183 45 124 57 124 140 0 11-31 166t-31 166q0 53 54 107 20 0 34-22 22-54 39.5-218t46.5-237q45-119 147-147 17 17 24 28 5 14-1 29 45 147 121 249 93 124 201 124 31 0 111-48 86-52 104-90l-13-18q-6-1-12-1-22 0-70.5 12.5t-58.5 12.5q-52 0-156-53-120-60-120-122 0-39 69-89 59-44 79-44 103 0 336 194h38v-57zM1676 194q0-146-69-183l-126 982q-5 94 68 153 13-34 30-96 97-762 97-856zM1215 952q0-14-23-61-18 4-53 19-27 12-42 12 2 0-100-99-107-105-184-131-43-14-95-47-15 13-24 13 15 27 167 148 139 112 139 146 0 7-36 45.5t-36 67.5q0 47 47 122 51 83 96 83 17 0 37-26 18-23 21-41 1-28 2-85 2-42 14-66 7-12 41-53 29-32 29-47zM877 977q0-14-5-27t-5-16q-29-3-86-16-63-59-128-119-125-113-171-113h-54v38q35 37 93 80 48 32 97 65 85 62 85 94 0 12-8 17-74 56-74 95 0 30 43 119 54 106 106 106 77 0 77-138 0-32-5-74-4-37-3-38 1-8 21-35 17-25 17-38zM1379 307q0-69-36-141-20-42-41-60-38-31-152-69-70-26-141-51-105-37-163-37-11 0-122.5-5t-123.5-5q-419 0-419 240 0 90 126 230 38 0 38-20 0-10-26-60t-26-63q0-184 354-184 11 0 111.5 5t113.5 5q37 0 188 38 173 44 216 81-7 23-52 87-39 58-39 71 0 36 43 101 43 3 99-68 52-64 52-95zM959-230q0-30-33-65-31-32-49-32-25 0-69 32.5t-44 54.5q0 18 34 62.5t54 44.5q22 0 64.5-39.5t42.5-57.5zM1060 1086q0 39-11 48h-28v-35q12-13 39-13zM774 1097v56q-11 13-38 13 0-3-5.5-22t-5.5-37q5 0 24-5t25-5z" glyph-name="uniFB80" horiz-adv-x="3230" unicode="&#xfb80;"/><glyph arabic-form="medial" d="M3574 1384q-34-66-208-162-277-154-288-161h-34q-13 2-13 25 0 54 221 183 139 74 276 150 6-5 23.5-17.5t22.5-17.5zM2949 242q0-71-43-194h-23-24q0 92-12 238-19 226-20 242l-72 445q0 31 43 117h37q26-68 71-440 43-346 43-408zM3492 221q0-274-289-497-43-35-202-35-167 0-335 34-17 10-44 31 3 47 41 47 12 0 112-15t113-15q140 0 299 107 162 111 223 257 0 25-15 25-13 0-36-24-28-31-33-34-19-14-64-14-57 0-95 55-34 46-34 99 0 71 51 154 55 91 119 91 89 0 147-114 42-87 42-152zM1260 1312q0-14-13-41-17-35-20-45h-37q-5 27-36 61-36 40-68 40-56 0-133-82-66-70-90-130-18-43-10-89 1-8 14-39 10-27 10-44 0-28-30-56-3 0-43 13-25 33-25 84 0 115 107 283 117 183 226 183 40 0 94-46.5t54-91.5zM1198 877q0-18-17.5-35t-32.5-17q-14 0-47 20.5t-46 20.5q-7 0-86-78-88-88-152-120-131-67-162-67-10 0-19 3 118 93 338 290 0 21-92 86-7 62 50.5 148t112.5 86q59 0 67-89 3-67 4-132 1-4 2-6 25-27 48-55 32-37 32-55zM2427-306q0-37-27-53-86-51-217.5-114t-151.5-62h-54v44q0 41 64 74 298 147 321 146h54q0-4 5.5-12t5.5-23zM2693 313q0-3-49-99-62-123-256-187-155-51-329-51-11 0-66.5 5t-66.5 5q-47 0-66-65t-55-67q4 47 4 134-128 90-140 90t-107-51-107-51q-13 0-105.5 61t-99.5 61q-12 0-61-34-59-42-86-55-60-29-205.5-57t-237.5-28h-106q-63 0-183 52-130 54-152 105-34 75-34 125 0 82 65 186 19 32 64 54 14-14 14-31 0-12-20.5-63t-20.5-64q0-35 67-114 41-48 83-63 122-44 244-44h98q28 0 140 23 140 29 221 62 27 10 67 63 33 43 66 87h37q5-18-1-47-8-38-8-44 0-43 63-70 50-22 101-22 70 0 129 61.5t111 61.5q29 0 84.5-46.5t105.5-46.5q23 0 264 148.5t304 148.5q53 0 135-39 95-44 95-94zM881-260q0-25-32.5-58.5t-49.5-33.5q-37 0-75 30t-38 57q0 16 23 54 27 44 49 44 31 0 80-44 43-39 43-49zM3338 289q-44 44-61 44-22 0-51-56 35-35 66-35 46 0 46 47zM2539 247q-90 45-142 45-47 0-152-62-99-58-135-100h147q19-1 132 42 122 47 150 75zM1044 1031q0 18-5.5 37t-5.5 22q-26 0-49-24 34-35 60-35z" glyph-name="uniFB81" horiz-adv-x="3496" unicode="&#xfb81;"/><glyph arabic-form="final" d="M1121 1918q0-58-241-169-174-81-278-113l-23 25q9 27 35 63 232 135 494 218 13 0 13-24zM1028 1579q0-35-43.5-103.5t-73.5-72.5q-26 0-70-6-9-4-54-28-36-20-50-20-32 0-52 34-15 25-15 48 0 56 61 113 22-13 20-63 3 0 7.5-4.5t19.5-4.5q14 0 53 46 50 58 73 76v-63q-7-7 17-7 12 0 44 44 36 50 49 57 14-14 14-46zM1408 249q0 9-46-156-7-7-34-23l-105 972q0 134 80 152zM1531-191q0-41-82-71-47-14-95-29-45-26-159-69-5 12 0 42 8 38 8 45 0 4-31 41t-31 51q0 46 76 117.5t119 71.5q19 0 40-21t21-40q0-24-43-71 18 0-83 20l-17-17q14-46 48-54 3-1 60-1 9 0 68 4.5t87 4.5q14 0 14-24zM978 1058q0-7-39-67.5t-41-67.5q-10-92-37-266-11-50-52-165-36-104-36-115 0-10 29-61 32-55 39-76 14-52 14-99 0-20-14-55-16-41-31-44-234-54-344-54-133 0-133 97 0 14 23 86 98-19 110-19 50 0 125 90 69 82 69 114 0 54-202 312-206 262-264 262-9 0-25-5.5t-31-5.5q-123 0-123 164 0 67 12 102 4 0 11.5 5.5t22.5 5.5q126 0 387-333 172-222 260-374 46 21 61 103 5 26 10 128 13 243 10 275-1 12-13 35t-12 39q0 100 104 218h37q-2-59 3-156 1-1 42-35 28-23 28-38zM1602-335q0-43-83-84-47-18-94-37-35-14-208-88-14 14-14 36 0 45 116 103 85 43 144 57 7 3 36 22 26 17 38 17h53q12-2 12-26zM742 206q0 5-6 18t-6 18h-37q-19-39 1-59 25 0 48 23z" glyph-name="uniFB83" horiz-adv-x="1852" unicode="&#xfb83;"/><glyph arabic-form="isolated" d="M1234 1422q0-45-230-186-127-74-255-146h-34q-13 13-13 35 0 44 136 119 55 37 166 107 56 28 173 96h45q12-1 12-25zM589 1304q0-60-114-137-103-68-138-68h-42l-23 24q0 28 57 57 70 37 87 59 0 9-18 21-54 14-64 14-45 0-95-71h-38q35 95 66 134 41 49 107 49 63 0 133-21 82-26 82-61zM446 654q0-31-32.5-59t-59.5-28q-18 0-102 52 2 36 24 77 27 45 58 45 27 0 69.5-31t42.5-56zM1337 291q0-68-37-121-38-54-91-54-13 0-120.5 26t-120.5 26q-11 0-52-11-43-11-64-14-36-13-46-43-4-42-16-122-33-168-218-245-131-56-295-56-118 0-210 84.5t-92 191.5q0 58 64.5 173.5t104.5 133.5q15-13 24-13-70-168-70-233 0-71 70-135 63-59 119-59 85 0 192 26 145 36 223 103 7 64-24 150-12 33-63 107-46 68-46 80 0 13 12 39 17 35 21 47 3 0 8.5 5.5t19.5 5.5q13 0 71.5-66.5t102.5-66.5q41 0 98 29 66 36 79 80 7 23 96 103 94 84 127 84 46 0 93-126 40-102 40-129zM1192 292v36q-25 55-57 55-16-12-43-34v-34q11-7 33-23h67z" glyph-name="uniFB84" horiz-adv-x="1358" unicode="&#xfb84;"/><glyph arabic-form="final" d="M3053 1538q0-9-16-50-76-48-451-247-14 12-24 12v43q-1 29 202 143 153 84 274 140 15-15 15-41zM2858 939q0-87-77-87-108 0-108 71 0 28 24.5 60.5t52.5 32.5q44 0 77-27 31-25 31-50zM3452 315q0-109-215-109-12 0-64.5 10.5t-64.5 10.5q-18 0-203-62-196-64-215-68-130-27-355-63-207-32-231-32h-315q-11 0-91.5-10t-94.5-10q-92 0-174 13-34 5-103 32-64 26-76 26t-82-19q-84-24-106-29-246-54-390-54-11 0-88.5 10.5t-90.5 10.5q-114 0-189 86-67 78-67 175 0 166 149 250 15-14 15-36 0-10-26-71t-26-77q0-124 130-172 89-33 198-33h77q53 0 357 64 19 4 54 26 14 152 78 253 73 118 187 118 44 0 84-74 33-61 33-85 0-63-35-135-18-24-57-80 12-13 53-34 46-22 75-22 70 0 170 68 112 77 112 162 0 27-22 221-23 223-44 342-3 22-31 76-26 50-26 63 0 32 84 173 26 0 35-13 6-30 16-83 20-26 45-72-19-62-19-135 0-64 19-182 8-50 34-357-8-7 16-7 1 0 77.5 51t138.5 51q63 0 122-27 77-34 77-96 0-43-25-85-34-47-67-96 0-23 36-23 39 0 210 38 196 45 256 82 0 8-19 20-128 64-155 64-13 0-68-11-71-13-106-18v33q0 41 94 108 87 62 116 62 10 0 112-47 123-58 231-89 164-48 328-48h51.5 56.5q1-2 3-3 11-10 11-32zM1311 1443l-14-50q-11-32-32-49-88-69-231-145-120-61-239-122-15 12-25 12v43q-1 28 217 156 144 83 287 168 6 0 19-6.5t18-6.5zM1393 881q4-8 4-18 0-32-30-68t-60-36q-35 0-71 30t-36 52q0 26 29.5 59.5t51.5 33.5q58 0 112-53zM2295-192q0-47-37-69-96-56-267-133-163-74-184-74h-44q0 4-5.5 9.5t-5.5 20.5q0 47 83 90 53 23 104 45 179 86 331 141 8-5 16.5-9.5t8.5-20.5zM2233 306q-70 23-102 23-54 0-116-46-30-22-130-116h55q35-2 153 50 129 55 140 89zM1435 324q0 20-24 48.5t-43 28.5-58-37.5-39-54.5 21-42 35-29q108 53 108 86z" glyph-name="uniFB85" horiz-adv-x="3448" unicode="&#xfb85;"/><glyph arabic-form="isolated" d="M4170 1436q0-79-99-149-87-61-147-61-4 0-63.5 11t-89.5 11q3 14 31.5 51.5t41.5 45.5q29 3 72 17 24 18 86 95 36 46 96 46 72 0 72-67zM3545 1549q0-56-94-101-76-37-117-37h-63q-3 9-12 25 13 14 50 35.5t52 37.5q-10 25-41 25-16 0-43-17-33-20-45-24-7 2-25 14 52 129 164 129 41 0 101-23 73-28 73-64zM4036 300q0-135-53-209-18 0-36 23 0 109-7 206-8 126-39 404-29 256-29 261 0 57 10 80 14 32 67 79 8-11 22-34 65-717 65-810zM3084 1370q0-50-196-140-129-59-258-116-9-1-23 12t-14 29q0 66 444 245h34q13-13 13-30zM2603 1513q0-47-93-92-53-20-106-41l-67 14q22 22 102 84-19 25-58 25 9 0-35-5-33-4-50 3 9 25 42 64 42 50 75 50 39 0 114.5-39.5t75.5-62.5zM3033 668q0-18-28-47.5t-49-29.5q-23 0-65 31t-42 51q0 19 34 61t53 42q29 0 65-44 32-41 32-64zM1742 1476q1-37-289-181l-239-119q-14 1-14 25 0 45 204 166 158 94 314 167 14-12 24-12v-46zM3831 208q0-55-53-88-47-30-105-30-10 0-149 30l-752-132-860-20q-128 0-309.5 40.5t-191.5 40.5q-9 0-103.5-25.5t-112.5-25.5q-47 0-128 20-87 21-120 45-16 11-71 80-9 35-50 111l-128-70q-41-23-102-23-59 0-130 16-95 21-95 56 0 5 28 50 72 100 189 181 7 5 97 46 67 32 92 69 6 8 13 90 6 78 35 107 19 0 33-24 34-199 68-399 54-192 260-192h71q12 0 22 16-8 16-8 38 0 96 90 218 95 128 187 128 53 0 92-63 31-52 31-85 0-42-24-111-30-88-37-124 35-19 119.5-38.5t136.5-19.5 164 68q91 55 120 85 23 23 23 73 0 83-18 240-10 95-44 325-30 202-30 213 0 44 36 129 39 95 73 95 9-11 23-99 10-65 62-74-6-34-35-108-26-70-26-82t8-48q8-41 9-53 30-339 23-510 18-18 31-18 12 0 91 38 85 41 109 47 9 5 19 10 17 8 32 8 59 0 123-35 77-40 77-99 0-45-39-98-60-84-74-110 12-6 72-6 82 0 232 20 166 24 209 48-6 27-85 57-72 28-110 28-3 0-53-8-41-6-59 0 5 37 52 89 51 56 95 59 30-1 92 6 58 19 173 50 4 4 28 25-19 102-66 449-2 23-25 81-22 56-22 68 0 38 37 119 33 73 58 105h36q0-42 5-125 8-73 78-80v-56q1-15-5-22-9-9-9-10-36-41-36-110 0-13 31-197t31-197q0-18-62-179 17-33 67-44 57-13 279-42 165-23 165-37zM1487 848q0-32-38-65-32-28-44-28-30 0-66.5 33.5t-36.5 53.5 32 54 50 34q33 0 68-30t35-52zM995 1547q0-16-187-115-139-71-277-143h-36v58q14 19 45 49 89 57 237 129 143 70 163 69h55v-47zM873 1012q0-19-31-56t-51-37q-13 0-43.5 15.5t-43.5 15.5-43.5-25.5-43.5-25.5q-36 0-123 65 37 109 92 109 13 0 43.5-15.5t43.5-15.5 46.5 30.5 45.5 30.5q25 0 66.5-33.5t41.5-57.5zM2593 270q-90 45-133 45-14 0-233-106-57-29-73-77h104q21-1 249 63 51 15 86 75zM1569 315q0 22-20 59-24 44-47 44-28 0-73-45t-45-73q0-24 23.5-45.5t48.5-21.5q14 0 59 26 54 30 54 56zM821 368q0 56-34 91-50-13-124-58-78-48-97-83 16 0 58-6.5t54-6.5q55 0 143 63zM4066 1389h-47l-12-39h47q12 12 12 39z" glyph-name="uniFB86" horiz-adv-x="4046" unicode="&#xfb86;"/><glyph arabic-form="final" d="M3626 1497q-9-41-16-58-13-33-37-50-124-68-370-217h-36q0 4-6 9.5t-6 20.5q0 46 117 114 60 31 121 62 69 43 186 119h47zM3114 1796q0-18-29.5-48.5t-55.5-41.5q-132-52-382-156l-24 25q25 67 104 104 52 18 103 36 78 36 237 111h34q13-13 13-30zM3053 1413q-11-33-93-64-118-43-136-55h-36q-2 9-24 58-18 41-18 55 0 35 51 100 58 74 108 74 30 0 76-43v-38q-51-42-67-41h-56q11-20 47-29 53-13 82-13 62 0 66-4zM3401 859q0-34-43-64-36-23-49-23-47 0-102 53-4 28 26.5 74.5t54.5 46.5q25 0 69-33.5t44-53.5zM3575 280q0-203-85-271-69-56-263-56-149 0-192 24-63 34-74 124-15 115-38 635-4 65-24 263-20 190-20 198 0 56 44 117h36q20-38 22-102 0-54 1-107 9-88 23-266 1-48 18-235 16-164 16-257 0-143 33-191 40-60 165-60 76 0 152 20 104 27 104 77 0 13-26 67-99-82-138-82-51 0-99 54-44 48-44 84 0 43 45 148 46 113 81 130 11 4 53 4 99 0 163-145 47-106 47-173zM2570 1396q4-11 4-22 0-66-94-113-84-43-154-35 21 32 92 104-25 15-66 15 3 0-85-29 7 58 65 97 52 35 111 35 17 0 127-52zM2684 721q0-25-32.5-59t-54.5-34q-31 0-64 32t-33 55q0 13 20.5 44t20.5 44q0 12-25.5 40.5t-25.5 41.5q0 15 25 55 31 47 62 47 32 0 62-44 25-35 25-48 0-40-41-77 19-26 38-51 23-31 23-46zM2357 881q0-7-15-45-60-54-187-104-106-42-213-83-15 12-24 12v33q-1 37 165 112 17 8 239 99 5-6 17-12.5t18-11.5zM1937 1238q0-46-263-185l-316-158q-25 25-25 36 0 50 117 111 65 30 132 60 134 67 341 161 14-1 14-25zM1179 1171q0-14-23-61h-31q-14 0-22 15t-21 15q-7 0-61-51-63-61-90-78-42-22-123-75h-46q-13 1-13 25 0 37 246 216v30q-72 56-72 92 0 41 54 112 59 77 110 77 44 0 57-33 34-84 21-138-4-14-14-41-4-13 0-27 28-75 28-78zM2398-236q0-20-43-63-14-14-55-14-26 0-62 19-45 24-45 58 0 22 31 64.5t51 42.5q18 0 70.5-47t52.5-60zM2725 214q0-97-51-166-54-75-138-75-35 0-236 82 5 0-123.5-56t-204.5-56q-91 0-145 23-15 7-71 45-47 34-60 34t-23-10q-16-14-26-18-174-73-196-80-45-14-123-14-88 0-99 2-17 3-98 42-34 15-56 67-17 43-32 86-12 27-33 48-92-80-118-97-56-37-112-37-13 0-59 5.5t-58 5.5q-77 0-77 57 0 91 188 226 98 67 197 134 16 32 16 74 0 10-1 30t-1 30q0 59 36 104 46-81 58-281 5-81 72-265 15-40 95-61 61-18 123-18 158 0 241 89-22 56-84 65-56 7-111 13 88 192 307 192 80 0 147-41 78-46 78-118 0-50-102-132 68-57 154-57 81 0 213.5 61.5t123.5 61.5q13 0 51-20 47-25 59-29 90-34 160-34 18 18 18 42 0 19-14 55.5t-15 51.5q-2 31 20 137 2 0 20.5 5.5t36.5 5.5q53-160 53-209zM504 111q0-29-41-114-49-105-99-104h-116q13 25 89 69 70 39 85 96-30 8-60 17-43 13-43 47 0 47 19 92 24 56 63 56 35 0 72-74 31-62 31-85zM3411 365v34q-32 65-62 65-17 0-39-22t-22-39q0-16 24-37 26-24 53-24 22 0 46 23zM1075 1316v48h-48q0-16 16.5-32t31.5-16zM1005 275q-3 67-41 67-32 0-127-63-90-61-108-87 41-14 97-14 57 0 110 21 69 28 69 76z" glyph-name="uniFB87" horiz-adv-x="3570" unicode="&#xfb87;"/><glyph arabic-form="isolated" d="M3313 826q0-30-36-61-31-26-46-26-33 0-67.5 35t-34.5 62q0 14 30 54 32 44 52 44 25 0 66-48 36-43 36-60zM3436 657q0-18-30-55t-46-37q-13 0-59 31t-59 31q-10 0-52-36t-55-36q-34 0-67 35-31 31-31 51 0 27 33 62.5t54 35.5q10 0 112-51 24 26 47 53 27 29 41 29 36 0 78-55 34-45 34-58zM2853 1399q0-46-64-83-78-35-236-109-137-69-308-171-5 0-18 6t-18 6v43q-1 30 186 131 180 98 216 117 143 72 228 96 14-14 14-36zM3712-130q-420-237-445-236h-53q-13 13-13 31 0 41 187 136l278 140 46-11v-60zM3682 334q0-92-40-162-44-78-113-78-13 0-100 25.5t-100 25.5q-11 0-46-29-39-33-54-40-57-23-135-23-100 0-162.5 51.5t-89.5 51.5q-21 0-103-29-92-32-155-67t-77-114q-3-18-3-39 0-29 10-94t10-98q0-19-3-36-3-25-41-80-29-44-60-88-28 0-45 23-77 131-77 353 0 46 3 97-30 6-102-2-84-10-83-10-166 0-219 136-32 83-31 288 1 110 0 123-5 150-30 429-2 12-16 64-11 42-11 60 0 37 67 128 37-66 54-184 9-89 18-179 4-29 4-71v-289q0-185 24-238 51-114 242-114 65 0 125 32 29 16 101 102 64 77 118 91 15-14 15-31 0-45-57-131-9-14-77-90-41-46-41-86 0-25 6-30 20 12 42 47 27 42 28 43 27 34 80 89 194 138 336 138 53 0 122.5-51t138.5-51q85 0 126 51 104 130 129 153 16-12 25-12 0-34-19-85 22-46 123-46 32 0 48 17 2 12-6.5 37t-8.5 33q0 47 53 118 57-35 57-129zM1522 964q0-15-23-60h-35q-51 50-70 50-11 0-59-56-57-69-92-94-23-18-199-105-12 18-10 28 273 218 273 268 0 13-26 35-34 28-42 39-14 19-14 49 0 32 57 110 60 84 102 84 67 0 67-149 0-51-5-80 5-8 46-64 30-40 30-55zM1184 1016q0-62-41-62-13 0-20.5 5t-20.5 5-55-42q-54-54-70-67-11-8-191-84v37q76 60 224 193-8 16-44 64-27 38-27 53 0 44 57.5 119t95.5 75q69 0 69-124 0-23-4-60-2-30-1-35 0-5 14-33.5t14-43.5zM1676 263q0-33-27-104-31-80-58-93-143-62-278-92-85-19-242-37-133-17-164-17-152 0-273 44-187 67-187 217 0 45 106 208 16 21 57 21v-36q0-13-20-61t-20-60q0-99 128-151 97-39 215-39 21 0 162 13 149 14 175 21 81 17 163 34 99 27 170 82-9 16-65 90-47 62-47 72 0 26 54 108 56-19 103.5-89.5t47.5-130.5zM1215-217q-27-77-49-92-7-6-48-6-108 0-108 71 0 27 26.5 60t55.5 33q36 0 123-66zM1378 1167l-48 12-6-24q6-11 27-15 18-5 18-17zM1092 1166l-26 23q-35-35-35-37 23-23 48-23 13 13 13 37z" glyph-name="uniFB88" horiz-adv-x="3687" unicode="&#xfb88;"/><glyph arabic-form="final" d="M3049 1507q-157-100-454-257h-36q0 3-6 9t-6 21q0 14 17 41.5t30 35.5q45 27 430 219 14-11 25-11v-58zM2763 957q0-29-23-62-25-35-54-35-32 0-62 35-25 32-25 52t17 54q23 43 54 43 40 0 68-31 25-27 25-56zM2916 778q0-19-34-60.5t-53-41.5q-12 0-50.5 25.5t-51.5 25.5q-12 0-46.5-36t-45.5-36q-29 0-73.5 34t-44.5 48q0 26 35.5 64.5t56.5 38.5q15 0 117-52 18 21 35 43 25 29 43 29 38 0 78-38 34-31 34-44zM2773 251q0-158-63-217-60-54-213-54-114 0-148 19-65 36-85 180-22 148-58 757-8 51-21 154 0 8-13 31t-13 36q0 26 55 82 55-27 65-113 2-63 5-127 27-205 31-460 3-16 14-41 5-77 10-153 9-99 37-164 22-48 151-48 133 0 174 37-9 50-59 100-43 45-43 88 0 42 34 92h35q70-69 89-108 16-33 16-91zM1841 1018q0-32-30.5-64t-56.5-32q-11 0-39.5 15t-41.5 15q-14 0-52-35.5t-51-35.5q-17 0-52 30t-35 46q0 20 33.5 64t48.5 44q11 0 37-20.5t39-20.5q16 0 46 29 46 45 58 53 27-19 55-37 41-30 41-51zM1247 914q-14-13-30-13-11 0-40 15t-42 15-126-117-126-116h-55q24 32 130 154 85 96 85 111 0 12-27 39-35 33-42 45-3 12-3 28 0 38 44 110 51 85 105 85 71 0 71-121 0-20-2.5-50.5t-2.5-35.5q0-9 2-11 7-10 59-62v-76zM930 998q0-26-11-54-33 2-94-6-16-6-54-49-46-53-62-67-36-17-113-54-14 1-14 25 0 13 82 100t82 100q0 9-30.5 49t-30.5 64q0 43 47.5 110.5t88.5 79.5q9 3 45 3 23-34 19-105-4-88 1-109 2-9 5-12 39-53 39-75zM2189-195q-5-30-15-69-157-93-429-227h-34q-13 14-13 30 0 49 131 116l138 60q57 32 176 90h46zM2036 292q0-184-132-246-77-36-252-36-102 0-114 3-18 4-67 22-41 16-55 16-11 0-51-26-45-28-59-32-81-24-230-51-131-23-157-23h-141q-161 0-301 53-202 78-202 238 0 96 125 249h38q-51-129-51-172 0-36 41-88 42-55 89-74 154-64 316-64 7 0 169 23 177 23 259 31 15 9 41 24 72 18 96 63 30 58 58 85 54-23 49-116 39-28 101-28 94 0 280 44 42 10 68 33 0 31-38 108h-26q-54-82-131-82-112 0-112 158 0 65 46 159 52 102 102 102 92 0 173-162 68-135 68-211zM1053-271q0-32-44-62-35-25-48-25-37 0-64.5 25t-27.5 52q0 16 23 54 26 43 48 43 23 0 68-36.5t45-50.5zM1840 422v35q-32 35-46 34h-32q-26-45-11-70 53-18 89 1zM1112 1086q3 9 3 17 0 18-38 43l-12-38q5 0 23.5-11t23.5-11zM816 1117v49h-37q-14-28 10-47 10-2 27-2z" glyph-name="uniFB89" horiz-adv-x="2803" unicode="&#xfb89;"/><glyph arabic-form="final" d="M5810 1418q0-54-187-152-123-64-268-159h-46q0 3-5.5 8.5t-5.5 20.5q0 41 102 103 57 32 116 63 88 55 269 151 25-24 25-35zM5328 1551q0-58-51.5-118.5t-115.5-78.5q-59-5-185-17-19-8-67-25v33q0 12 27 49 35 46 39 55 14-1 26-1 79 0 134 90t106 90q36 0 61.5-24.5t25.5-52.5zM5523 870q0-82-82-82-36 0-67 30-26 26-26 42 0 19 31.5 61t50.5 42q34 0 66-44 27-35 27-49zM5687 240q0-48-19-119t-37.5-96-91.5-38q-200-38-226-38-78 0-95 5-59 17-101 89-18 32-24 96-4 55-8 111-13 103-13 278v367q0 12-20.5 143.5t-20.5 143.5q0 33 44 97h36q14-27 29-76l21-645q1-104 1-209 7-147 44.5-197t132.5-50q78 0 160 18 106 24 106 64 0 25-26 51-123-61-128-61-62 0-98 74-25 54-25 100 0 17 51 111t74 119q40 16 45 16 86 0 145-167 44-122 44-187zM4694 1111q0-82-189-159l-77 13q23 39 91 86-13 44-86 44-14 0-54-21-62-34-73-39v37l78 86q48 50 79 50 37 0 125-29 106-35 106-68zM3946 1489q0-71-311-182-72-33-226-99h-33q-13 13-13 31 0 43 123 103l126 52q14 7 155 74 99 47 114 47h53q12-2 12-26zM3813 947q0-45-102-87-12 0-44 15t-43 15q-13 0-56.5-35.5t-56.5-35.5q-12 0-49 28-42 30-58 35v43q0 20 34 54t52 34q12 0 46-25t47-25q12 0 53 35.5t54 35.5q35 0 79-33.5t44-53.5zM3096 1484q6-87-88-138-81-33-161-66l-68 14q51 36 154 113-51 36-103 36-13 0-65-50h-36q2 56 65 107 57 46 103 46 68 0 199-62zM2870 980q-1-34-43-68-38-31-63-31-23 0-54 22-34 24-34 49 0 26 33.5 59t54.5 33q42 0 106-64zM2288 670q0-19-39.5-58t-58.5-39q-16 0-51 32.5t-35 49.5q0 10 25 47t25 50q0 11-20.5 40.5t-20.5 47.5 28 58q31 44 54 44 19 0 50.5-34t31.5-54q0-12-25.5-45t-25.5-46q0-12 31-46.5t31-46.5zM4847 256q0-226-174-226-63 0-106 26t-53 26q-12 0-36-25-29-28-44-34-80-33-119-33-13 0-118 20t-118 20q-12 0-68-15-66-18-90-22-68-13-164-13-23 0-103 19-91 21-146 44-31 26-90 69-21-21-78-68-76-54-146-54h-118q-137 0-254.5 56t-124.5 56q-13 0-53-15-52-20-64-23-80-23-200-23-55 0-110 23-44 38-134 107-5 3-53 3-75 0-188-36-105-34-131-59-91-83-108-232-3-115-7-231-2-22-46.5-68t-78.5-60q-42 21-63 86-33 105-33 206 0 109 12 165 20 30 49 89l-18 18q-218-32-228-32-11 0-70.5 5t-72.5 5q-39 0-49-27-4-10-21-105-13-70-45-112-6-1-13-1-41 0-93.5 42.5t-62.5 84.5q-11 60-42 181-46 4-116-24-77-33-99-76-2-4-2-65l82-737q0-75-34-142-44 8-55 95-75 571-75 734 0 125 38 197 41 78 149 145 46 9 144 38 9 3 63 80 33-44 116-132 2-2 100-26 67-16 168-16 254 0 351 73 34 43 113 130h47q0-3 6-11.5t6-22.5q0-36-75-123-39-42-77-85-22-33-64-100l7-106q26 40 72 119 43 86 88 121 91 70 185 113 45 20 132 39 75 17 101 17 43 0 112.5-61.5t188.5-61.5q76 0 89 2 40 8 76 46-2 41 7 122 17 56 93 157 92 123 155 123 72 0 116-73 33-55 33-111 0-129-114-251 21-41 49-55 47-22 127-22h120q67 0 147 62 74 57 82 101h46q108-173 362-173 150 0 248 63 3 2 39 62 32 52 68 58 33-77-7-157 26-26 102-26 85 0 100 3 57 11 102 66 10 13 48 96 34 73 61 89h36q0-30-30-167 58-36 98-36 41 0 52 18 3 9 3 23 0 13-3.5 46.5t-3.5 51.5q0 72 43 107 7-1 25-6 32-76 32-168zM1151 1121q0-129-281-199l-56 11q-1 20 62 60l112 68q-8 24-72 24-49 0-69-14-29-26-57-50-16-7-26-7-12 1-12 25 0 37 66 103t98 66q33 0 211-35 24-15 24-52zM2605-384q0-50-34-64-128-52-390-154h-46v43q-1 42 174 114 125 48 248 97h35q13-14 13-36zM1888-526q-12-33-43-75-328-157-383-155h-54v36q61 70 198 122 180 68 225 96h34zM5522 361v45q-17 12-45 34-18-12-46-34v-35q6-3 26-20 15-13 30-13 12 0 35 23zM2911 370q-7 131-81 131-23 0-71-52-52-55-52-91 0-20 20-45.5t37-25.5q31 0 147 83zM3096 1484q6-87-88-138-81-33-161-66l-68 14q51 36 154 113-51 36-103 36-13 0-65-50h-36q2 56 65 107 57 46 103 46 68 0 199-62zM5219 1503h-48l-11-38h47q12 11 12 38z" glyph-name="uniFB8B" horiz-adv-x="6266" unicode="&#xfb8b;"/><glyph arabic-form="isolated" d="M2062 1771q0-42-198-160-161-95-279-147-15 15-15 36 0 70 444 301h35q13-13 13-30zM2021 1244q-52-32-152-105-2-10-2-54l93-886q0-88-34-188-41 6-50 86-3 61-6 123-28 250-92 756-2 16 13 55 15 41 15 50v38q-7 7-21 7-12 0-43-18-36-19-45-23-6 12-1 32 7 26 7 35 0 10-25.5 44.5t-25.5 52.5q0 30 71.5 107t108.5 77q30 0 76-43v-68q-25-22-46-22-11 0-29.5 8t-30.5 8q-17 0-37-13 19-54 108-54 16 0 68 8 24 5 80-13zM1407 1331q0-4-34-71-14 4-49 34-32 27-45 27-10 0-99-80-127-111-164-142-28-7-87-24l-24 25q30 43 133 120t143 137q-23 22-58 60-13 22-13 62t43 115q50 85 95 85 50 0 62-34 8-22 9-92 0-74 8-103 5-18 44-57 36-35 36-62zM874 676q0-106-219-175l-47 14q29 32 113 95-28 45-88 45-11 0-50-23-54-32-66-37v33q-1 40 62 86 58 44 90 44 29 0 181-35 24-15 24-47zM1591 363q0-24-38-124-39-103-56-115t-54-12q-14 0-136.5 15.5t-135.5 15.5q-193 0-328-88 6-14 93-79 81-61 81-93 0-27-32-63.5t-64-41.5q-127-8-254-14-126-13-141-117l82-614q0-119-46-159l-19 13q-28 131-62 362-37 249-37 326 0 101 57 200 68 117 180 141-5 18-13 18-1 0-22-7t-45-8q-14 14-14 30 0 60 102 135 53 39 189 114 103 57 105 72-4 13-4 29 0 41 28 119 24 65 48 131 7 23 8 98 1 67 19 98 13 23 58 23 54 0 163-101 34-32 112-80 82-50 113-77 63-55 63-147zM1240 1485q4 9 4 18 0 32-28 43-24 0-24-28 33-33 48-33zM1498 288v36q-84 104-182 125 0-16-6-48t-6-43q0-71 57-71 131 0 137 1zM1222 394q0 50-77 98-76-52-76-98 0-30 23-53.5t53-23.5q26 0 49 18 28 22 28 59z" glyph-name="uniFB8C" horiz-adv-x="1968" unicode="&#xfb8c;"/><glyph arabic-form="final" d="M2671 1864q0-40-79-86-64-33-128-65-84-39-249-120-15 14-15 31 0 55 191 158 128 64 255 128 25-25 25-46zM1934 1803q0-48-183-151-340-190-374-212h-45q-13 1-13 25 0 48 228 183 183 109 339 180h36q12-1 12-25zM2620 1364q-18-28-90-56-84-32-115-58 18-16 37-51l86-886q0-150-56-235-7 6-23 24-8 181-38 533-9 74-41 269-27 170-27 182 0 24 52 153-16 12-57-14-26 34-51 68-35 49-35 64 0 51 73 125 71 70 106 70t64-31q23-24 23-41 0-23-20-47t-37-24q-14 0-38 11-33 17-43 19l-26-27q19-37 43-45 0 1 39 1 2 0 87 9 44 5 87-13zM1811 938q0-23-43-59-41-34-54-34-19 0-53 33t-34 54q0 23 35 65.5t52 42.5q18 0 57.5-41.5t39.5-60.5zM1053 1737q0-19-16.5-40.5t-34.5-21.5q-13 0-29 12-23 16-27 19-89-70-178-141-106-77-181-95l-46 14q20 18 185 150 122 98 122 113 0 6-35.5 56.5t-35.5 65.5q0 25 35 91 38 73 63 73h105q18-32 18-69 0-21-8-56t-8-49q0-11 35.5-59.5t35.5-62.5zM1964 759q0-32-38-61-34-26-58-26-12 0-48.5 20.5t-49.5 20.5q-10 0-51.5-36t-66.5-36q-26 0-63 19-44 25-44 58 0 18 36.5 62.5t55.5 44.5q13 0 49-20.5t48-20.5q11 0 51 36t51 36q23 0 73-33 55-37 55-64zM1064 1465q0-41-21-91-23-56-54-75-27-5-72-17-11-4-60-34-40-23-54-23-77 0-77 91 0 53 55 114 17-14 15-64 3 0 10-4.5t22-4.5q27 0 47 50 25 62 40 73 24-12 24-53-1-8 22-8 27 0 41 38 22 59 25 64 37-40 37-56zM2180 283q0-116-68-222-45-24-112-24-13 0-61.5 10t-61.5 10q-11 0-40-20-33-23-50-28-42-13-104-13-13 0-97.5 15t-97.5 15q-12 0-99.5-40.5t-100.5-40.5q-121 0-188 52-57 45-114 163-76-90-205-141-110-43-209-43-62 0-102.5 33.5t-40.5 88.5q0 62 45 113 10-5 60-47 40-35 74-35 87 0 223 43 22 7 80 50 71 52 71 86 0 13-36 200t-36 199q0 8 33 107 27 0 34-12 37-79 59-284.5t57-281.5q59-128 206-128 155 0 238 184h47q1 9 1-145 55-18 98-18 112 0 166 80 19 38 57 112 21 37 57 32 8-17 8-37t-11.5-53.5-11.5-42.5q0-30 63-30 38 0 41 2 27 7 38 45-28 129 32 199 58-22 58-153zM919 1882q0 42-17 59 0-4-11-10t-11-21q0-33 39-28z" glyph-name="uniFB8D" horiz-adv-x="2546" unicode="&#xfb8d;"/><glyph arabic-form="isolated" d="M2623 1533q0-61-557-394h-45q-12 1-12 25 0 44 244 202 156 96 312 191h46q12-1 12-24zM2048 1640q6-15 6-29 0-68-114-141-104-65-162-65-14 0-28 6t-18 6q14 34 70 68 90 57 93 59-9 25-66 25-47 0-133-93-15 16-15 31 0 49 48 106 47 54 89 64 17 4 118 4 45 0 112-41zM2407 836q0-32-31.5-64.5t-54.5-32.5q-29 0-64 34-34 31-34 48 0 19 34.5 60.5t52.5 41.5q28 0 62.5-32t34.5-55zM1107 1543q0-42-507-313-14 12-24 12v33q-1 47 241 185 226 129 245 129 45 0 45-46zM2971 274q-10-29-79-105-8-1-53-8-38-5-52-5-12 0-26.5 4.5t-25.5 4.5q-88 0-309-76.5t-331-76.5q-9 0-25.5-5t-30.5-5q-155 0-262 133-35-38-109-99-59-34-146-34-13 0-61.5 10t-61 10-112.5 26-113 26-210-46-210-46h-148q-385 0-418 188-12 75-12 421l-41 548q0 55 56 123 35-30 47-132 18-156 20-160l10-554q-4-188 135-248 75-33 259-33 164 0 275 23 33 5 65 11 45 12 71 44-2 10-2 20 0 104 97.5 233.5t179.5 129.5q117 0 117-185 0-69-9-98-8-19-62-113 0-1 28-22 90-22 152-22 40 0 107 33 82 42 82 94l-82 809q0 38 33 87 11 0 30-10 23-12 25-25 14-81 27-236 18-221 20-245 11-112 41-358 4-25 27-58 28-41 58-41 21 0 33 18 157 228 289 228l215-76.5t329-76.5h63q53-1 76-1zM1415 867q0-32-38-62-33-25-55-25-12 0-48 15.5t-49 15.5q-10 0-45.5-30.5t-51.5-30.5q-26 0-66 36-37 32-37 45 0 28 37 66 33 37 50 37 11 0 44.5-20.5t48.5-20.5q12 0 50.5 30.5t51.5 30.5q23 0 64-29 44-32 44-58zM1087 1343q0-85-466-286-15 11-25 11v33q-1 44 121 109 68 32 137 64 86 41 175 99h46q0-4 6-10t6-20zM2346 226q-23 24-71 48.5t-72 24.5q-40 0-85-43-34-37-69-75 26-25 46-25 67 0 251 70zM1362 330q3 7 3 17 0 31-18 61-19 34-45 34-18 0-68-44-55-47-55-79 0-18 14-38 18-23 42-23 26 0 127 72z" glyph-name="uniFB8E" horiz-adv-x="2970" unicode="&#xfb8e;"/><glyph arabic-form="final" d="M1240 1715q0-70-454-234h-37v48q15 18 54 50 128 53 390 168h34q13-14 13-32zM1209 1226q-17-16-44-40-25-2-271-83 0 3 6 46 4 31-1 48-3 6-17 26-10 14-10 32 0 36 74 107 73 68 99 68 20 0 51-27t31-46q0-24-43-71 6 1-83 30l-17-16q24-34 118-34 57 0 93 9l14-12v-37zM1168 211q0-73-25-182-11-18-54-32l-105 935q0 56 45 137 7 6 45 21zM872 216q0-67-28-84-20-12-223-43-159-23-159-98l61-589q0-8-17.5-110t-18.5-129l-27 27-80 750q0 62 35 148 42 102 99 129-22 21-22 40 0 53 54 127 61 83 126 83 4 0 43-15 21-19 141-161 16-18 16-75zM667 277l-23 25h-35q-45-19-64-69h36q59 17 86 44z" glyph-name="uniFB8F" horiz-adv-x="1209" unicode="&#xfb8f;"/></font>
</defs>
</svg>
