<svg xmlns="http://www.w3.org/2000/svg"><defs><font horiz-adv-x="992"><font-face ascent="1638" bbox="0 -1024 6529 2300" cap-height="1841" descent="-410" panose-1="2 0 4 0 0 0 0 0 0 0" underline-position="-250" underline-thickness="100" unicode-range="U+000D-FEFC" units-per-em="2048" x-height="1225"/><missing-glyph d="M142 226v1362h700v-1362h-700zM284 368h416v1079h-416v-1079z"/><glyph arabic-form="isolated" d="M1813 1539q0-22-214-132-146-73-291-147h-47v47q14 20 45 50 416 231 462 229h45v-47zM2069 405v-258q-16-67-66-127-8 7-23 24-3 195-17 319-13 110-52 353-36 217-36 226 0 83 64 163 13 0 34-33 33-222 96-667zM1373 806q0-20-20-56-24-43-54-61-179-106-229-105h-32l-23 25q19 40 81 69 76 38 93 54-25 15-67 15-53 0-75-22-28-30-58-39-8 2-25 14 74 160 189 160 37 0 125-24 82-21 95-30zM2253-254q-17-16-43-40-48-8-309-83h-35q0 36 29 65-5 9-38 43-23 25-23 39 0 22 74 99 78 80 115 80 34 0 62-26 25-25 25-45 0-62-61-62-14 0-39.5 15.5t-35.5 15.5q-5-5-8.5-13t-8.5-13q46-46 102-46-3 0 77 8 67 8 104 2l13-12v-27zM2356-379q0-42-72-72-53-17-105-33-140-49-248-89l-66 12q16 67 102 99 73 23 146 45 63 24 186 69h44q13-14 13-31zM1711 251q-34-175-47-201-37-70-153-70-75 0-124 13-13 3-54 22-32 15-47 15-18 0-121-47-27-13-104-32-85-23-123-23-73 0-104 14-61 26-90 103-45 119-53 129-157-103-260-103h-81q-48 0-88 20-46 21-46 52 0 34 46 92 43 57 89 88 97 52 292 166 17 171 66 217 26-182 53-363 51-251 191-251 101 0 227.5 51t141.5 51q13 0 110-30.5t110-30.5q43 0 67 26-16 282-96 705-3 13-26 54-22 36-22 54 0 52 36 130 33 73 63 96 22-34 27-76 6-51 18-79 26-11 82-44-17-39-62-176zM1465-362q-14-25-47-59-38-40-55-40-13 0-54 26t-53 26q-14 0-54.5-31t-53.5-31q-28 0-67 45-35 41-35 58 0 34 44 66 37 26 53 26 13 0 48.5-25.5t48.5-25.5q9 0 46.5 30.5t55.5 30.5q36 0 123-96zM862-235q0-50-120-107-1 0-130-50-62-24-185-79h-34q-13 14-13 31 0 68 269 156 55 28 165 79h34q14-13 14-30zM676 256q5 50-34 102-55-25-111-49-74-36-120-80 16 0 54-7t48-7q63 0 163 41z" glyph-name="uniFB52" horiz-adv-x="2075" unicode="&#xfb52;"/><glyph arabic-form="final" d="M2067 1189q0-31-46-71-48 62-91 62-275-205-319-204h-75q23 40 125 111 120 83 171 139-6 15-42 54-30 36-30 48 0 47 58 125 63 85 117 85 77 0 77-100 0-31-8.5-81.5t-8.5-58.5q0-5 2-8 70-68 70-101zM1586 1451q0-41-138-126-70-38-141-77-68-45-208-120-15 15-15 41 0-6 14 49 189 107 441 267h36q0-3 5.5-11t5.5-23zM767 1507q0-14-5.5-27t-5.5-23q-3 0-11.5-5.5t-23.5-5.5q-11 0-50 25.5t-52 25.5-47-27q-56-47-63-52-78-56-289-124-8 1-36 13 39 40 174 123 127 76 174 133-61 75-61 102 0 51 59 120 62 73 120 73 12 0 21-3 46-19 46-90 0-33-10.5-84.5t-10.5-56.5q0-12 35.5-58t35.5-59zM747 1246q0-101-105-165-27-5-83-18-75-27-74-27-66 0-66 72 0 22 56 132 28-27 26-74 7-7 21-7 18 0 44 44 33 59 42 68 13-26 33-72 23 12 49 50 31 44 42 54 15-16 15-57zM2058-367q0-28-33.5-59.5t-59.5-31.5q-10 0-36.5 15t-39.5 15-49-30.5-49-30.5q-22 0-123 75 10 32 40 73 33 47 58 47 11 0 44-20.5t48-20.5q11 0 51 35.5t51 35.5q26 0 63-44 35-40 35-59zM1976 315q0-92-35-146t-174-74q-153-22-183-45-19-15-46-79-24-59-48-119-40-92-156.5-180.5t-197.5-88.5h-134q-173 0-335 93-1 7-12 25 39 35 76 35 13 0 103-20.5t102-20.5q152 0 306 91 181 106 222 272-41 29-81 58-42 36-42 76 0-4 32 96h33q12 0 51-25 43-28 64-34 9-2 86-2 178 0 266 57-6 35-45 108-37 70-37 81 0 51 34 102h34q49-33 85-132 32-83 32-128zM900 274q0-94-34-157-20-34-72-51-227-74-303-74-60 0-107 21-57 26-57 71 0 9 11 42.5t11 57.5q29 0 96-9.5t77-9.5q50 0 159 29 121 32 127 59-9 62-88 145-76 80-157 117 0 132 66 132 95 0 188-150 83-134 83-223zM1934 1345v57q-23 23-37 23-34-34-34-59 34-33 46-33 24 0 25 12zM634 1709l-49 12v-38q14 0 35-22z" glyph-name="uniFB53" horiz-adv-x="1984" unicode="&#xfb53;"/><glyph arabic-form="initial" d="M1473 1507q0-60-157-148-138-77-170-77-15 0-31 6t-19 6v36q53 29 163 101-10 25-52 25-34 0-116-61h-37v44q0 26 62.5 77.5t90.5 51.5q6 0 100-10.5t143-10.5q23-23 23-40zM879 949q0-21-17-44t-33-23q-15 0-40 20.5t-37 20.5q4 0-151.5-117.5t-188.5-116.5h-64q32 54 136 134 139 107 170 137-10 27-44 50-27 17-27 62 0 51 43 115 51 75 115 75 50 0 62-35 24-64 8-185 7-20 41-42 27-17 27-51zM1995-172q0-44-27-58-381-199-429-197h-55v44q0 33 99 75l118 46q94 45 280 121 14-14 14-31zM2118 273q0-52-46-106-65-76-213-142-143-64-237-64h-82q-200 0-297 143-18-22-92-66-77-46-108-46-13 0-71.5 5t-71.5 5q-34 0-49-17-4-61-7-121-8-76-50-117-74 6-142 83.5t-68 158.5q0 38 19 68-14 17-61 17-79 0-129-36-55-40-55-112l71-732q0-63-34-112l-33-57-97 813q0 93 34 185 50 137 154 189 28 16 112 25 47 5 83 72 49-48 157-121 104-43 228-43 66 0 122 37 62 39 62 97l-62 737q0 86 45 142h37q36-298 48-495 5-112 10-223 9-133 37-206 11-28 73-69 37 155 120 278 95 143 194 143 111 0 245-147v-35q-13-13-35-13-4 0-55.5 25.5t-83.5 25.5q-56 0-145-41-100-45-100-92 0-53 68-115 64-59 111-59 103 0 218 71 159 100 164 102 0-3 6-11.5t6-23.5zM725 1089q0 37-39 49v-38q11-11 39-11z" glyph-name="uniFB54" horiz-adv-x="2120" unicode="&#xfb54;"/><glyph arabic-form="medial" d="M4095 1501q0-102-98-179-84-67-159-67-10 0-26 5.5t-30 5.5q-9 0-96-34l-21 12q20 42 83 119 28 5 71 26 3 2 77 111 48 73 106 73 26 0 59.5-23t33.5-49zM3931 237q0-13-14-124-3-22-54-76l-117 952q0 69 54 163 7 0 20-15.5t15-28.5l47-501q5-54 28-215 21-145 21-155zM3080 1330q0-27-259-154-219-109-451-207h-36v58q62 61 188 119 107 48 214 94 282 138 309 138 15 0 23-6t12-6v-36zM2927 897q0-34-33-93-37-63-72-78-33-4-93-17-10-4-57-28-37-20-52-20-31 0-59 34-23 28-23 43 0 25 25 71.5t51 67.5q16-13 25-13 0-8-4.5-35t-4.5-38l17-17q35 22 64 69 31 51 48 64 17-28 14-75 5-5 13.5-8.5t13.5-8.5q40 16 57 61 10 31 22 61 48 0 48-40zM3501 251q-14-155-62-208-51-57-195-57h-66q-11 0-63 30.5t-65 30.5-38-30q-35-39-45-48-18-14-81-14-13 0-56.5 5t-55.5 5q-13 0-100.5-15t-99.5-15q-53 0-98.5 25.5t-39.5 25.5q-12 0-42-17.5t-44-20.5q-191-34-252-34-110 0-133 6-77 20-120 109-29 62-31 351-1 101-27 450-3 37-21 146-16 104-16 115 0 16 53 122h37q45-177 45-485 0-44 14-177 12-125 11-192-4-173 59-237 54-55 191-55 152 0 268 64 31 34 93 99h36q6-18-1-57-7-50-7-54 0-35 18-41h28q82 0 120 22 28 16 76 67 51 54 81 75 32-45-6-99v-27q16-18 36-18 83 0 122 73 52 94 105 121 19-33 5-86 19-27 64-48 40-19 62-19 77 0 149 27-34 251-86 684-2 18-25 74.5t-23 69.5q0 37 86 220 17-12 33-93 14-68 96-93v-35q1-35-71-139zM1616 1387q-4-34-26-80-71-48-479-276h-35q-12 0-12 24 0 55 156 141 58 28 164 82 95 51 185 109h47zM797 1009q0-33-41-64-37-27-61-27-11 0-39.5 15t-42.5 15q-11 0-36-25.5t-40-25.5q-12 0-64.5 21.5t-63.5 31.5q6 40 25 77 23 44 46 44 12 0 54-25.5t54-25.5q13 0 54 35.5t53 35.5q33 0 67.5-27t34.5-55zM1657 324q0-110-145-212-210-147-463-147-120 0-188 45-60 39-131 150-13-8-107-76-65-47-102-47-51 0-150 22-105 24-116 42 8 138 173 253 111 70 223 141 2 11 4 116 1 103 36 122l16-13q27-58 50.5-211t54.5-221q51-111 162-150 0 9-10 66-8 43 0 65 46 121 119 222 109 150 221 150 45 0 145-74 88-66 106-94v-34q-13-13-35-13-13 0-85 25.5t-85 25.5q-55 0-155-47-111-52-111-97 0-32 59-109 64-85 111-85 11 0 35 12 28 14 35 15 133 28 308 188 8-5 16.5-10t8.5-20zM818-131q0-42-26-63-14-12-141-69-195-89-321-119-14 2-14 25 0 58 200 145 139 58 277 116 25-25 25-35zM3991 1448h-36q-28-23-64-68h46q16 6 35 30t19 38zM706 260q-9 30-18 59-9 25-39 25-26 0-116-47-98-51-113-83 93-24 132-24 90 0 154 70z" glyph-name="uniFB55" horiz-adv-x="3945" unicode="&#xfb55;"/><glyph arabic-form="final" d="M1969 1383q0-34-27-53-114-80-295-186-177-104-197-103h-43v68q170 99 514 299h35q13-1 13-25zM1211 1342q0-39-146-131-40-26-318-190h-46q0 3-6 11t-6 23q0 48 121 116 74 38 147 76 65 39 196 120h46q12-1 12-25zM2010 170q0-112-84-250-86-144-205-218-105-64-259-64-90 0-209 18-146 24-185 58 7 13 24 33 113-17 201-17 148 0 286 62 169 77 241 219 31 0 59.5 44t30.5 95q-74-62-110-62-61 0-105 43.5t-44 104.5q0 89 38 180 48 112 121 112 107 0 163-166 37-108 37-192zM1282 236q0-61-62-124-15-14-55-14-61 0-114 13-20 5-67 28-41 21-55 21-10 0-58-60-52-66-83-80-67-34-176-34-152 0-177 157-29 195-65 576-29 325-29 367 0 40 43 127h36q30-54 40-145 5-78 10-155 9-127 31-400 7-115 15-230 27-134 142-134 3 0 107 13 51 7 152 180 15 25 83 104 90 103 124 103 59 0 114-144 44-117 44-169zM1856 303q0 20-16.5 41t-34.5 21q-19 0-40.5-27t-21.5-46q0-30 62-30 51 0 51 41zM1139 286q-2 28-21.5 53.5t-40.5 25.5q-25 0-50-59 68-34 82-34 17 0 30 14z" glyph-name="uniFB57" horiz-adv-x="2044" unicode="&#xfb57;"/><glyph arabic-form="initial" d="M2708 1771q0-44-82-84-53-23-104-46-171-106-321-181-25 24-25 36 0 54 141 133 79 40 158 78 68 40 208 111 14-12 25-12v-35zM2647 1245q0-39-43-69-35-23-54-23-12 0-43 15.5t-44 15.5-59-31-59-31q-18 0-57 27-41 28-41 45 0 25 44 70 41 43 54 43t46-20.5 46-20.5q9 0 49 35.5t53 35.5q39 0 77-43 31-36 31-49zM2073 1597q1-13-20-29-27-21-29-24-41-56-86-91-34-26-91-50.5t-77-24.5h-52l-23 24q2 26 72 67 51 29 102 59-12 24-57 24-15 0-64-23-71-33-83-37v54q-1 46 73 85 63 34 105 34 114 0 230-33v-35zM1981 902q0-30-33-64t-64-34q-27 0-64 23-44 24-44 54 0 25 32.5 66.5t55.5 41.5q35 0 76-32t41-55zM1530 1321q0 1-22-55h-42q-13 0-31.5 20.5t-31.5 20.5q6 0-145.5-123t-194.5-122h-54q31 58 136 136 127 96 171 145-17 25-59 67-23 23-23 55 0 46 39 114 50 86 120 86 87 0 87-153 0-55-9-97 3-4 36-47 23-29 23-47zM2739 328q0-69-116-100-64-17-125-17-11 0-29.5 5t-31.5 5q-98 0-193-34-84-36-235-96-133-48-319-82-7-2-26-2h-7q-81 0-104-39-17-60-68-174-91-142-177-200.5t-197-58.5h-107q-30 0-118 19-117 25-144 57 0 37 26 37 11 0 86-15.5t88-15.5q117 0 246 71 160 86 268 254 14 22 14 58-72 36-72 93 0 32 23 54.5t54 22.5q12 0 76.5-10.5t76.5-10.5q79 0 201 27 139 30 214 73 0 2-28 20-30 4-149 30-107 25-120 25-54 0-91-9v36q100 138 299 194 47 10 143 37 43 14 203 142 10 8 96 106 67 77 97 77 52 0 97-103 37-84 37-127 0-18-18-63t-27-54h-36q-15 45-29 90-29 73-65 73-13 0-64-59-72-85-81-93-33-34-192-140 90-62 291-67 311-9 320-11 13-1 13-25zM814 1260q0 1-22-56h-43q-13 0-29 15.5t-28 15.5q-17 0-23-3-9-34-151-123t-185-89q-15 0-26 6.5t-14 6.5q5 5 168 134 128 100 128 129 0 6-36 41t-36 66q0 42 50 123 60 98 125 98 16 0 46.5-22.5t41-42.5 10.5-45q0-26-15-74t-15-69q0-14 5-27 2-5 28-38 21-28 21-46zM978-70q0-24-44-62-42-35-58-35-10 0-112 63 5 47 39.5 94t61.5 47q26 0 69.5-43t43.5-64zM1735-770q-32-26-123-39l-136-18q-124-29-236-71-25-17-72-35-23-3-144-3-270 0-472 44-123 27-219 158-92 127-92 254 0 539 358 818-25 16-61 16-63 0-102-38-68-66-120-95-14 2-14 26 0 43 79 142 83 103 140 115 74 14 78 14-24 0 157-13 200-13 477-18-29-115-133-140-84-9-167-17-32-14-92-34-247-61-378-258-110-164-110-364 0-389 402-419 43-3 151-20 101-17 113-17t284 35.5 286 35.5h135q0-4 5.5-25t5.5-34zM1395 1461q5 9 5 21 0 42-39 60-35-35-35-49 66-32 69-32zM701 1444q0 33-46 57-45-45-45-69 16-12 43-33h37q0 4 5.5 17.5t5.5 27.5z" glyph-name="uniFB58" horiz-adv-x="2750" unicode="&#xfb58;"/><glyph arabic-form="medial" d="M789 602q0-38-34-67-27-25-48-25-43 0-74 36-28 30-28 56 0 20 24 58 27 45 53 45 32 0 72-45 35-39 35-58zM1752-186q0-54-204-150-136-58-272-117-15 13-25 13v46q28 37 112 77 73 30 146 61 62 35 185 100h46q0-4 6-10t6-20zM1772 284q0-68-23-122-27-62-70-62-86 0-255 82-7 0-66-48-65-51-91-62-48-9-138-51 0-196-69-257-80-71-201-122-126-54-223-54-160 0-253 71-106 79-106 232 0 152 177 371h58q-32-92-92-171-41-52-41-129 0-116 104-170 74-40 178-40 87 0 198 42 117 43 163 100 13 16 13 99 0 68-4 80-11 36-63 114-46 70-46 82 0 23 19 58 20 39 37 39 27 0 71-61 63-91 64-93 93-4 192 13 57 10 180 176 120 160 164 160 16 0 40-25 22-23 27-40 56-176 56-212zM1639 298q-1 2-45 89-18-17-46-44v-36q65-22 91-9z" glyph-name="uniFB59" horiz-adv-x="1784" unicode="&#xfb59;"/><glyph arabic-form="isolated" d="M3585 1502q0-45-224-171-201-112-315-151l-25 25q5 21 25 55 26 22 204 115 104 61 310 163 25-25 25-36zM3410 980q0-20-38.5-64t-58.5-44q-24 0-63 41-34 38-34 46 0 19 33.5 63.5t48.5 44.5q25 0 68.5-32.5t43.5-54.5zM3513 816q0-28-32.5-63t-49.5-35q-31 0-88 52-17-9-66-49-42-33-56-33-23 0-53 19-34 22-34 47 0 20 35 64t52 44q11 0 40.5-20.5t46.5-20.5q13 0 54 41t53 41q28 0 63-33t35-54zM2868 1430q0-50-44-73-152-89-453-239-14 12-25 12v32q0 46 340 224 53 31 157 80 25-25 25-36zM2099 1296q0-42-190-164-137-83-273-168h-35q-13 14-13 31 0 50 43 77l432 270h36v-46zM3574 273q0-25-31-117t-43-99q-31-21-135-38-156-27-231-27-13 0-113 15t-112 15q-21 0-41.5-35.5t-61.5-35.5q-204 0-322 123-148-123-303-123-12 0-12 5v0q-1 5-13 5-38 0-54-38-25-73-89-215-22-41-94-110-81-80-130-95-44-13-160-13-300 0-368 119 24 24 35 24 10 0 108.5-20t116.5-20q27 0 105 18 93 20 138 45 80 43 170 141 94 101 94 149 0 9-3 18-20 23-39 46t-19 53q0 26 20 59.5t41 33.5q13 0 92-26t93-26q142 0 240 72 53 38 126 133 55 72 89 72 12 0 74-65 73-76 103-97 13-9 120-40 123-34 179-34 80 0 270 34 40 6 68 34-10 29-54 112-38 73-38 86 0 37 44 102h36q21-26 59-84 45-92 45-156zM1793 447q0-13-55-148-24 8-27 41-1 27-4 55-48 170-149 233v79q25 22 40 22 29 0 66-36 52-50 73-101 56-132 56-145zM1066 662q0-20-37.5-58.5t-60.5-38.5q-12 0-43 15.5t-44 15.5q-12 0-60.5-36t-62.5-36q-26 0-102 76 46 73 49 77 25 32 53 32 12 0 44.5-20.5t42.5-20.5q13 0 54 35.5t54 35.5q27 0 70-27.5t43-49.5zM1506 191q0-58-23-123-25-70-61-93-158-100-474-130-8-1-31-9t-35.5-8-79-5-80.5-5q-164 0-284 29-253 62-253 232 0 130 137 259h57q-71-168-71-173 0-87 134-143 99-40 170-40h253q74 0 281 44 258 56 258 114 0 39-51 80t-51 94q0 55 33 107 61-9 117-89 54-76 54-141zM994-258q0-59-118-124-81-40-161-80-31-18-93-58h-45q-13 14-13 31 0 13 28 41 37 40 48 56 109 60 307 158h35q12-1 12-24zM840-535q0-41-32-63-80-53-212-120.5t-151-66.5h-64v33q-2 55 63 85 20 8 192 95 124 62 140 62h52q12-2 12-25zM2713 138q-22 38-77 89-34-34-34-48 42-27 111-41z" glyph-name="uniFB5A" horiz-adv-x="3583" unicode="&#xfb5a;"/><glyph arabic-form="final" d="M1899 1186q0-69-59-123-54-47-119-59-16-3-59-22-37-15-65-15-87 0-87 71 0 42 55 102 8-4 31-34 20-27 35-27 13 0 46 45 45 60 53 68 7-4 24-34 15-28 27-28 14 0 46 45 39 54 58 68 14-15 14-57zM1131 1335q0-52-135-151-131-94-178-94h-73l-23 24q18 40 97 74 92 40 128 80-36 26-82 26-78 0-137-79-8 0-37 16 20 59 80 116 63 60 115 60 84 0 234-43 0-3 5.5-8.5t5.5-20.5zM875 541q0-37-43-76-36-31-48-31-31 0-82.5 31t-51.5 56q0 16 30 64 32 54 57 54 33 0 88-41 50-39 50-57zM1889-236q0-49-229-142-7-3-297-109h-35q-13 14-13 36 0 48 35 62 471 188 484 188h43q0-4 6-12.5t6-22.5zM1909 296q0-47-74-189-16-1-32-1-125 0-267 92-38-42-56-58-39-34-66-41-44-4-87-7-58-8-81-44-12-19-31-102-22-95-37-133-1-4-59-57-114-105-289-138-14-3-119-3-159 0-262 75-116 83-116 233 0 82 58 185 54 95 130 162 37 0 37-36 0-13-56.5-107.5t-56.5-106.5q0-120 96-186 80-55 191-55 135 0 259 51 160 66 160 184 0 43-37 114l-72 124q-13 24-13 49 0 20 20 59.5t35 53.5q41-18 72-86 33-70 65-86 23-13 94-13 108 0 198 85 9 9 130 158 70 85 129 85 49 0 97-115 40-97 40-146zM1766 292q-10 27-19 53-16 38-49 38-36-36-34-59 34-33 58-32h44z" glyph-name="uniFB5B" horiz-adv-x="1921" unicode="&#xfb5b;"/><glyph arabic-form="initial" d="M5054 1776q0-51-26-68-87-55-237-127-141-68-163-68h-41q-13 14-13 31 0 50 33 67 140 63 413 189 5-5 17-12t17-12zM4071 1745q-22-69-52-95-44-38-111-81-70-45-88-45h-73l-23 25q7 8 143 113-22 26-67 26-24 0-121-72h-37v34q0 53 84 105 74 45 115 45 77 0 187-25 16-10 43-30zM4940 1257q10-20 10-34 0-33-69-47-99-22-113-29v-30q17-78 37-203 55-726 55-676 0-50-43-158-5 0-18.5-5t-18.5-5q-23 234-102 895-7 63 18 114v28q-20 10-68-13-6 6-21 23 4 15 4 51-48 54-48 79 0 56 76 118 70 56 114 56 25 0 53-17 34-20 34-50 0-17-24-41.5t-43-24.5q-12 0-31 12-24 15-37 20 0-8-19-26 55-37 97-37h65 92zM3427 1513q0-50-64-88-426-260-475-260h-42q-13 14-13 36 0 48 254 189 146 76 292 153h36q0-4 6-9.5t6-20.5zM4471 1636q0-84-107-143-81-37-162-75-30-20-394-217-258-139-258-195 0-21 18-34 143-77 304-290 34-45 90-159 69-140 69-198 0-46-27-124-29-87-58-98-25-13-84-31-136-23-246-23-11 0-57.5 5t-59.5 5q-40 0-71.5-45.5t-46.5-45.5q-116 0-186 23-29 9-102 51-65 37-76 37-13 0-34-25-24-29-30-33-38-21-112-39-64-14-90-14-49 0-116 44t-76 82q-26 117-41 308-4 225-23 675-1 19-16 66-15 44-15 58 0 12 26.5 68.5t38.5 69.5q19 0 33-23 27-99 31-166 28-464 41-840 4-77 52-125 45-44 106-44 114 0 200 77 28 25 118 143 59 77 107 77 10 0 58-55 65-74 79-87 32-32 114-58 76-25 127-25h82q43 0 133 20 94 21 109 37 2 44-14 79-39 81-115 196-105 160-154 160-5 0-25.5-10.5t-35.5-10.5q-83 0-127 84-31 60-31 121 0 19 16 47-1 8-1 16 0 79 88 183 79 92 175 149 242 124 729 392h36q0-4 5.5-14.5t5.5-25.5zM1594 1595q0-52-186-158-97-51-196-101l-172-98q-117-65-178-83-14 12-24 12v77l709 380h36q0-3 5.5-8.5t5.5-20.5zM2423-114q0-62-54-89-355-177-413-177h-51q-14 13-14 36 0 48 26 61 106 56 262 126 161 73 179 72h54q0-3 5.5-8.5t5.5-20.5zM2300 290q0-220-153-220-138 0-231 112-32-34-110-89-119-54-217-54-42 0-60 10-17-16-17-31 0-12 16-38 17-32 21-47 15-53 15-129 0-58-52-128-56-77-118-77-51 0-130 45-89 50-117 112-14 62-58 184-4 8-75 79-172-41-219-41-177 0-294 54-88 41-114 152-9 88-19 176-11 79-17 175-3 62-9 246-7 181-32 368 0 4-9 27-7 21-7 41 0 35 43 122h36q37-38 40-66 8-169 27-502 4-111 7-222 8-157 34-248 38-140 305-140 228 0 148-2 94 3 140 35 9 6 49 100 43 103 75 142 62 81 123 163 71 85 125 85 37 0 65-82 22-65 22-113 0-56-50-161-32-64-63-129 34-17 67-17 232 0 378 90 79 49 175 168 73 90 128 90 60 0 102-115 30-84 30-125zM3273 163q-24 48-97 121-47-46-46-58 65-65 98-63h45zM2168 279q0 31-46 77-68-33-68-66 0-16 38-29l62-18q14 15 14 36zM1430 407q0 13-12 43-17 39-39 39-24 0-87.5-99t-63.5-135q202 112 202 152zM1461-160q0 39-33 61-115 78-158 76h-74q34-184 193-184 72 0 72 47z" glyph-name="uniFB5C" horiz-adv-x="4860" unicode="&#xfb5c;"/><glyph arabic-form="isolated" d="M3302 1656q0-40-177-119-122-53-245-105-68-29-206-108h-37v43q-1 62 269 173 124 55 372 151 24-24 24-35zM3282 1235q0-34-32.5-60t-65.5-26q-13 0-43.5 15.5t-42.5 15.5-53.5-31-54.5-31q-29 0-63 29.5t-34 52.5q0 35 43 67 35 25 49 25 35 0 96-41 69 72 94 72 34 0 70.5-29t36.5-59zM2595 1149q0-17-30.5-55.5t-52.5-53.5q-44-31-129-64-107-42-177-42-37 0-60 13 14 36 103 70 105 39 132 65-13 16-52 16-69 0-115-51h-48v34q0 16 49 60 46 40 86 65 8 4 59 4 4 0 222-31 13-13 13-30zM3446 304q0-107-226-107-11 0-57.5 4.5t-60.5 4.5q-11 0-50-11-42-14-62-16-83-13-233-60-199-63-237-73-128-34-344-34-12 0-90 10.5t-89 10.5q-10 0-46-36t-51-36h-62q-86 0-178.5 51t-93.5 51q-10 0-27-19-23-24-31-28-88-55-192-55-29 0-100 29-66 26-89 43-20-22-40-115-20-98-52-139-136-176-430-176-131 0-177 24-67 34-124 103-63 77-63 144 0 76 63 209 62 131 125 195 37 0 37-20 0-14-61.5-125t-61.5-172q0-104 133-163 93-42 170-42 79 0 189 36 128 41 160 95 14 23 14 110l-82 988q0 30 53 163h38q0-11 .5-34.5t.5-36.5q0-57 39-378 40-328 55-384 23-82 85-139 65-61 143-61 108 0 195 71 23 20 123 133 62 72 112 72 26 0 58-36 26-29 51-58 38-39 119-99 94-42 274-42 101 0 258 32 154 32 186 56v8q-272 108-321 108-13 0-21-10t-21-9h-54v33q-1 22 55 75 52 49 80 61 115 37 229 76 155 51 231 104 25 17 150 147 112 117 130 117 37 0 76-115 31-94 31-121 0-54-44-142-31 11-54 90-25 87-61 114-57-68-191-201-47-39-234-133-2-5 8-12 309-107 664-107 34 0 63 1 13 0 13-24zM1152 1312q0-26-35-61-6 3-65 38-38 23-53 23 5 0-188.5-122.5t-289.5-122.5h-54q0 29 12 36 213 117 222 123 133 77 185 133-20 19-68 69-4 12-4 38 0 59 50 131 59 84 129 84 85 0 85-132 0-86-15-117 5-10 54-63 35-39 35-57zM2165-208q0-47-277-153-257-97-290-97-15 0-23.5 5.5t-12.5 5.5v44q0 32 44 53 42 8 123 27 67 20 228 90 142 61 153 61h55v-36zM997 1457v67q1 14-17 23-26 10-27 11-49-24-46-47 28-43 90-54zM1816 136q-33 87-86 122-25-25-55-68 54-56 98-54h43z" glyph-name="uniFB5E" horiz-adv-x="3438" unicode="&#xfb5e;"/><glyph arabic-form="final" d="M1146 1369q-36-64-148-130-98-57-185-80l-106 12q6 44 82 74 119 48 142 63-31 35-82 35-36 0-80-35-65-53-91-67-13 2-13 25t74 105q78 85 110 85 9 0 92-15 89-16 129-20 43-4 76-52zM767 621q0-34-44-63-34-24-48-24-47 0-102 53-3 33 25 76 29 46 61 46 26 0 64-26 44-28 44-62zM1801-240q-37-44-85-62-397-146-423-146h-64v48q15 16 33 38 490 179 484 179h55v-57zM1811 309q0-41-22-106t-42-88q-88-3-127 13-27 10-105 54-63 35-77 35-7 0-55-35-55-40-86-54-7-3-122-17-21-82-85-239-39-68-132-112-154-75-196-75-13 0-69.5-5.5t-68.5-5.5q-81 0-197 64-111 60-128 104-23 59-23 125 0 67 49 169 47 95 107 163l48-14q-102-179-102-227 0-113 123-175 90-45 185-45 91 0 214 42 164 54 164 137 0 133-99 294-14 22-14 59 0 24 23 92 3 0 11 5.5t23 5.5q27 0 74-93 48-95 70-99 64-13 112-13 87 0 174 80 11 10 133 148 71 79 117 79 47 0 90-124 33-100 33-142zM1687 290q0 9-3 26-11 31-24 62-14 33-40 33-28-24-64-68 47-35 131-53z" glyph-name="uniFB5F" horiz-adv-x="1812" unicode="&#xfb5f;"/><glyph arabic-form="initial" d="M2530 1619q0-32-36-67-122 62-128 62 6 0-159-97.5t-206-96.5h-64q0 32 22 46 182 109 315 205-3 11-29 51-22 34-22 50 0 58 54 122 57 67 120 67 48 0 57-23 16-39 16-87 0-45-20-129 26-22 51-44 29-26 29-59zM2581 1279q-23-40-85-52-73-15-100-39 93-574 93-860 0-176-54-249h-37q0 6-5 39-5 29-4 47 2 31 2 68 0 101-22 300-24 222-28 287-1 26-14 110-11 77-11 122 0 18 2 34 9 29 28 90-23 5-61-2-48-10-66-10-2 10 10 37 14 30 14 44 0 12-20.5 35t-20.5 36q0 52 64 109 62 55 111 55 36 0 58.5-22.5t22.5-48.5q0-18-22.5-45t-38.5-27q-17 0-48 31-18 0-24-6 23-46 102-46 144 0 154-1v-36zM2038 877q0-47-107-93-12 0-97 52-4 40 25.5 86t66.5 46q25 0 68.5-39t43.5-52zM1566 1617q1-35-247-170-245-134-392-202-15 14-15 35 0 54 33 73 542 312 557 311h64v-47zM1332 1009q0-29-35-65.5t-62-36.5q-23 0-54 23-33 24-33 49 0 11 36 54 39 48 61 48 20 0 53.5-26.5t33.5-45.5zM1485 830q0-35-43-73-40-34-64-34-19 0-81 40-72-71-98-71-20 0-61.5 34t-41.5 53q0 16 35 61.5t53 45.5q12 0 45.5-20.5t46.5-20.5 46 31 46 31q30 0 71-25 46-26 46-52zM912 467q0-13-13-40-18-35-20-41h-37q-15 56-56 165-15 31-61 90-38 50-38 61 0 72 56 72 67 0 125-146 44-114 44-161zM2151 374q0-41-22-110-24-79-51-101-23-18-85-28-235-37-277-37-105 0-227 54-50 22-109 113-10 15-74 79-50-34-100-66-79-58-79-98 0-56 138-70l176-16q65-26 65-118 0-105-47-143-65-51-254-126-202-79-298-79h-153q-24 0-100 19-89 21-138 45-70 34-104 80-12 16-50 94-13 28-13 94 0 201 199 414 16-12 25-12-19-53-82-174-40-75-40-141 0-119 135-201 110-65 209-65h61q126 0 282 46 153 46 224 103-34 28-134 41-116 15-152 30-72 32-72 113 0 92 161 248 150 146 203 146 28 0 77-66 66-87 116-124 90-67 217-67 45 0 234 34 37 7 37 43 0 14-41 80t-41 79q0 18 23.5 60.5t37.5 42.5q58 0 96-106 27-74 27-110zM2375 1789q0 37-39 49v-37q11-12 39-12z" glyph-name="uniFB60" horiz-adv-x="2498" unicode="&#xfb60;"/><glyph arabic-form="medial" d="M1864 1407q1-18-202-130-136-75-273-151-36 22-36 46 0 44 34 63 413 229 433 228h44v-56zM1230 1674q0-74-567-363h-34q-23 23-23 35 0 44 34 62 179 94 533 291h45q12-2 12-25zM1783 194q0-176-176-375-183-208-366-208h-118q-66 0-311 74v38q4 0 17 10.5t28 10.5q13 0 128-15t127-15q181 0 378 161 187 154 193 279-13-7-64-43-41-29-56-29-57 0-105 64-43 57-43 105 0 59 46 155 57 116 128 116 76 0 142-155 52-122 52-173zM1107 1064q3-59-14-89-7-12-76-62-3-55-15-172-19-125-52-236-7-24-35-87-22-51-22-65 0-10 21-63 23-57 25-69 15-71 15-109 0-22-15-59-18-42-40-51-56-19-172-38-97-15-126-15h-67q-133 0-133 71 0 33 30 70 27 33 42 33 12 0 34-10.5t33-10.5q43 0 138 103 92 99 92 133 0 55-168 247.5t-211 192.5q-11 0-38.5-10t-43.5-10q-117 0-154 87-20 45-20 148 0 92 24 112h31q6 1 45-29 271-114 582-595 54 39 68 132 7 90 14 181 9 36 21 113 1 25-7 76-10 57-10 80 0 15 3 28 20 121 106 178 10-17 22-115 9-68 73-90zM1619 270q-21 65-54 99-48-19-48-67 0-19 21-37.5t40-18.5q17 0 41 24zM862 156q0 12-6 33t-6 25h-36q-43-41-43-80h54q13 0 37 22z" glyph-name="uniFB61" horiz-adv-x="1787" unicode="&#xfb61;"/><glyph arabic-form="isolated" d="M2916 1493q0-43-45-72l-90-48q-109-67-423-202-14 12-23 12 0 43 12 58 33 40 130 88 78 37 156 73 16 5 51 17 73 40 218 110 14-14 14-36zM2824 954q2-36-40-75-38-35-67-35-13 0-43.5 20.5t-44.5 20.5q-12 0-50.5-26t-51.5-26q-33 0-69 34-33 31-33 48 0 29 39 68 34 34 43 34 13 0 56.5-25t56.5-25q11 0 47.5 30.5t49.5 30.5q15 0 51-29 54-45 56-45zM2179 1443q0-48-43-74l-92-48q-79-49-206-109-108-50-215-101h-47v43q-1 40 174 126 99 44 196 87 74 43 219 111 14-14 14-35zM1934 695q0-28-41.5-62.5t-66.5-34.5q-3 0-86 52 0 29 31 78 34 54 61 54 28 0 68-41 34-36 34-46zM1074 1197q0-33-24-57h-31q-13 0-42 26t-42 26q-11 0-55-44-52-52-75-66-172-104-308-150-26-16-33-16h-45q0 32 22 46 113 70 227 140 170 110 170 146 0 23-71 67-3 8-3 20 0 60 53 140 56 85 113 85 41 0 71-68 24-55 21-81-1-11-12-40.5t-11-45.5q0-13 5-24 9-21 44-41 26-15 26-63zM2998 306q0-37-20-99-22-64-46-89-52-50-143-70-30-7-149-39-94-25-109-25h-817q-14 0-61-54-61-70-85-89-3 43 18 126-18 12-151 60-13 5-52 43-35 36-49 36-10 0-62-40-58-47-89-59-59-23-161-23-63 0-159 12-42 6-114 42-22 10-64 57-39 42-52 42-76 0-179-144-79-109-95-159-15-41-40-123-3-9-3-96 0-347 344-403 10-1 54-15 40-12 53-12 10 0 77.5-5t80.5-5l579 41q65 0 81-48-33-26-122-37-139-19-148-21-37-9-222-65-77-23-204-23-96 0-281 35-167 31-177 40-131 104-180 195-48 88-48 221 0 42 16 96 18 61 22 104 10 153 88 278 69 85 192 244-21 43-63 48-40 0-80-1v33q-1 40 72 104 78 66 194 66 86 0 164-30 102-40 102-113 0-26-29.5-73.5t-53.5-57.5q24-74 236-74 98 0 216 66.5t102 66.5q12 0 52-32 51-39 68-48 98-53 167-53 23 0 301 194.5t339 194.5q43 0 131-37 109-45 109-96 0-47-65-143-53-80-79-100 0-23 31-23 67 0 394 64 17 3 40 21 27 21 27 38 0 37-54 97-32 36-66 72-13 40-13 36 0 36 65 122 65-22 120-120 50-88 50-151zM2394 319q-109 54-133 54-50 0-170-79-112-74-167-135h126q76-4 208 52 54 24 80 40 47 32 56 68zM929 1357v36q-31 34-36 34-24-24-24-36 0-34 60-34z" glyph-name="uniFB62" horiz-adv-x="3021" unicode="&#xfb62;"/><glyph arabic-form="final" d="M1275 1854q0-44-45-63-498-218-515-217h-44v43q0 34 201 119 312 131 355 153h36q0-4 6-12t6-23zM1182 1562q0-31-29-86-32-60-66-74-35-9-113-27-13-4-52-23-32-15-46-15-33 0-57.5 25t-24.5 57q0 26 43 92 26 0 67-63h9q27 0 57 50 33 55 66 63 4-23 20-60 20 10 53 48.5t59 53.5q14-15 14-41zM1541 359q0-45-35-248-20-31-55-43l-74 987q0 57 55 148 21-10 43-45 66-868 66-799zM1551-152q-23-54-54-64-204-64-229-63h-74q37 90 15 147 13 46 63 104 58 65 105 65 39 0 67-27 25-23 25-45 0-61-62-61 8 0-75 20l-7-6v-28q43-27 88-27 35 0 114 10zM1109 1091q5-38-37-95-47-65-50-85-9-120-48-359-7-27-46-120-32-81-32-104 0-13 31-117.5t31-117.5q0-23-13-58-14-41-32-46-189-54-309-54h-97q-102 0-102 51 0 24 34 97 44 0 122 17 40 20 189 191 13 15 13 42 0 81-194 290-187 202-236 202-11 0-50.5-10.5t-52.5-10.5q-27 0-89 62.5t-62 86.5q-2 137-2 147 34 32 66 32 36 0 59-19 52-41 67-50 115-71 251-201 140-135 207-244 32-58 102-162 48 60 63 140 35 190 35 352 0 11-20.5 53.5t-20.5 53.5q0 59 58 153.5t93 96.5q4-13 4-32 0-16-4.5-49.5t-4.5-48.5q0-71 77-84zM1632-318q-30-31-43-41-43-14-248-84-152-52-165-52h-41q-14 14-14 30 0 41 45 58 387 147 402 146h64v-57zM844 140v37q-31 34-37 34-48-50-64-80 43 0 72.5 4.5t28.5 4.5z" glyph-name="uniFB63" horiz-adv-x="1572" unicode="&#xfb63;"/><glyph arabic-form="initial" d="M2889 1407q-23-60-132-118-98-52-155-52-24 0-71 23 8 39 48 57 80 35 85 39-12 24-52 24-18 0-162-71v44q-2 19 93 104 39 36 105 36 12 0 91-23 89-23 126-29 5-5 11.5-17.5t12.5-16.5zM3912-222q0-28-33.5-62.5t-62.5-34.5q-36 0-72 29.5t-36 52.5q0 19 35 59 37 43 62 43 20 0 63.5-33.5t43.5-53.5zM4128-339q0-46-27-59-107-52-276-121-165-66-185-66h-41q-14 14-14 30 0 44 55 68 411 178 433 178h42q13-13 13-30zM3974 284q0-96-76-223-9-15-80-44t-95-29q-12 0-107 10t-108 10q-63 0-104 24-6 3-34 29-20 18-36 18-11 0-73-28-70-32-100-40-122-33-251-33-90 0-166 54-69 50-97 120-90-123-255-123-11 0-45 10t-47 10-38-32q-32-39-40-46-19-14-96-14-62 0-141 23-94 27-136 69-33-29-110-78-68-34-186-34-260 0-316 218-9 14-22 27-142-133-312-133-36 0-129 12-14 3-56 41 37 121 197 236 130 90 261 180 8 59 16 119 15 81 42 108 12 0 33-34 17-156 34-311t69-218q68-82 229-82 120 0 210 72 33 26 123 133 59 72 107 72 19 0 69-58 62-69 82-84 13-10 50-30 54-23 147-23 67 0 140.5 27t101.5 62q4 11 4 54l-72 671q0 122 55 169 41-15 54-127 15-184 51-553 8-67 15-134 11-86 32-131 21-46 87-66 41-13 101-13 166 0 271 59 0 22-38.5 48.5t-75.5 26.5q-19 0-33-8-20-5-38 10 63 202 292 202 85 0 154-33 87-41 87-115 0-37-37-74-33-31-66-61 0-23 37-32 95-23 148-23 235 0 235 72 0 12-76.5 122.5t-76.5 123.5q0 49 33 101h32q26 1 94-92 57-80 72-115 4-11 4-69zM3452-222q0-49-197-132-140-54-278-108h-34q-13 14-13 30 0 57 86 93 66 22 132 43 95 39 292 109 0-3 6-11.5t6-23.5zM2397-253q0-50-204-125-147-47-293-94l-14 12v57q17 16 44 39 11 2 276 98 14 5 68 35 45 24 58 23h65v-45zM1333-155q0-54-83-93-57-22-115-44-190-88-341-129-13 11-24 11v34q0 38 235 141 146 60 291 121 37 0 37-41zM667-9q-174-54-379-54-39 0-88 17-65 23-65 59 0 16 22 52t41 51q52 21 144 68 13 8 49 52 32 38 45 38 29 0 50-43 18-33 18-49 0-15-6.5-30.5t-6.5-18.5q-25 0-64 39-101-80-180-120-1-14 8-22 72-22 126-22-14 0 57.5 4.5t215.5 4.5zM2052 131q3 12 3 25 0 59-52 87-45-39-45-58 66-44 94-54zM1220 300q0 54-46 77-109-55-240-149 22-15 82-15 48 0 117 21 87 27 87 66z" glyph-name="uniFB64" horiz-adv-x="3992" unicode="&#xfb64;"/><glyph arabic-form="isolated" d="M2723 1239q-506-268-528-268h-32q-7 5-14.5 9.5t-7.5 20.5q0 57 84 98 424 209 444 208h54v-68zM2109 1298q0-76-526-317-15 11-25 11v57q73 60 240 144 190 95 264 145h36q0-4 5.5-15t5.5-25zM1546 1213q-3-54-115.5-138t-186.5-84q-37 0-55 36 22 23 143 108-20 20-61 20-14 0-150-82-14 2-14 26 0 44 70.5 106t128.5 62q29 0 123-20 98-21 117-34zM2755 202q0-118-100-295-106-189-230-264-63-37-94-41-103-14-160-14-111 0-367 44 0 5-6 23t-6 23q24 23 51 23 13 0 69.5-5t69.5-5q484 0 671 434 3 7-6 16-29-21-58-43-37-28-54-28-55 0-106 50-53 54-53 118 0 68 23 145 13 42 101 157h89q49-37 107.5-155t58.5-183zM891 1303q0-60-226-177-183-93-261-114-14 14-14 41 0 45 118 106 65 30 130 59 67 35 206 110h35q12-1 12-25zM1997 305q0-43-41.5-134t-63.5-99q-32-11-145-24-96-11-152-43-11-6-48-77-46-91-67-122-160-248-440-248-55 0-216 12-77 7-137 52v37q10 2 199 2 387 0 579 331-20 12-114 24-84 11-118 47-44 48-44 109t63 159q69 107 131 107t122-108q39-74 79-148 81 7 160 15 102 14 152 53 2 31-76 134t-78 126q0 11 17.5 56.5t27.5 56.5q82-38 150-152 60-102 60-166zM1884-626q0-29-23-59-24-34-53-34-13 0-48.5 15.5t-49.5 15.5q-11 0-50-36t-52-36q-29 0-68 43-34 38-34 50 0 25 29.5 68.5t52.5 43.5q9 0 43.5-25.5t48.5-25.5q12 0 53 36t54 36q30 0 63.5-33t33.5-59zM840 207q0-74-54-114-7-1-207-8-179-6-179-158l51-661q0-45-23-148-37 9-48 90-6 64-11 129-1 12-17 60-14 42-14 55v263q0 14-15 96t-15 95q0 58 54 165 58 115 110 138-6 6-40 6v63q-1 25 123 165 14 5 45 5 50 0 64-15 176-180 176-226zM2591 295q0 20-21 45.5t-40 25.5q-29 0-62-66 23-46 72-46 51 0 51 41zM1412 194q-20 62-55 80-46-45-45-59 61-21 100-21zM625 253q-42 31-56 31-15 0-47-27-43-37-50-41 56 11 153 37z" glyph-name="uniFB66" horiz-adv-x="2791" unicode="&#xfb66;"/><glyph arabic-form="final" d="M4397 1226q0-44-46-67-92 62-102 62-13 0-79-61-81-75-103-90-98-70-155-94-46-16-93-32l-45 12q0 27 11 34 177 118 356 267-5 9-52 57-40 40-40 55 0 52 58 136 65 94 131 94 81 0 81-133 0-39-8-91-5-43-5-44l54-54q37-36 37-51zM3906 1543q0-44-101-108l-116-64q-4-2-257-160h-46q-13 13-13 30 0 44 83 95l94 50q27 17 82 51 78 51 239 151 35-35 35-45zM4213 258q0-92-30-159-40-87-118-87-13 0-123.5 31t-122.5 31q-13 0-49-23-44-29-62-36-106-43-248-43-200 0-264 84-62 80-62 330 0 143-20 409-5 59-27 183-21 116-21 125 0 37 67 127 36-51 42-96 35-232 35-286v-259q0-123 33-346 7-47 56-75 57-33 131-33 182 0 295 43 8 3 56 34 40 26 58 26 33 0 127-35 90-32 137-28 3 3 24 37-27 85-27 140 0 76 44 120h37q32-227 32-214zM3690 586q0-82-76-82-29 0-96 42 0 40 18 82 22 49 58 49 46 0 73-32 23-28 23-59zM4264-330q0-29-22-62-25-36-54-36-25 0-102 52-59-93-98-93-25 0-69 36t-44 57q0 31 45 69 38 33 52 33 12 0 46-20.5t47-20.5q15 0 50 41t46 41q42 0 76-41 27-34 27-56zM2933 202q0-251-399-251-106 0-154 43-4 108 35 141 61-20 98-20 55 0 261 32 24 5 68 45-13 99-142 186-32 10-92 37-23 13-23 68 0 92 56 92 60 0 157-83 101-88 121-166 14-56 14-124zM3056-249q0-48-34-63-161-73-473-198-15 12-24 12v44q-1 36 105 83l122 48q151 63 246 110h45q13-13 13-36zM1048 1132q1-46-165-121-148-67-177-67-37 0-84 32-1 16-6 42-3 5-23 12-4 12-4 27 0 38 76 107 66 59 82.5 62.5t56.5 3.5q31 0 244-53v-45zM2226-392q0-33-26-65t-50-32q-30 0-91 41-93-92-104-92-22 0-73 42-54 42-54 65 0 35 34 67 32 31 57 31 21 0 98-52 38 23 62 60 15 22 51 22 34 0 65-27t31-60zM2186 258q0-25-22.5-59t-39.5-34q-12 0-63.5 31t-64.5 31q-68 0-196-62-113-53-136-80-55-64-55-188 0-45 14-165 3-34-32-100l-62-110h-37q-48 36-77 147-28 101-28 210 0 76 3 90 20 64 39 127-200-22-272-22-11 0-94 10t-96 10q-18 0-38-28-3-103-8-131-19-97-81-97-60 0-117 83-43 65-50 106-1 10 2 41 5 37 5 57 0 43-17 72-258-6-258-190l71-768q0-37-22-95-6 0-22-12-18 0-35 24-15 87-37 400-6 82-28 270-20 173-20 181 0 140 118 252 112 106 235 104 37-1 71 59 50-50 157-131 23-5 61-17 97-47 254-47 120 0 144 4 82 11 191 70 24 13 51 54 39 61 43 64 14 12 40 33 5 0 18.5-5.5t18.5-5.5v-36q0-49-86-156-105-129-116-152-23-46-23-110 0-22 15-36 30 105 116 212 99 123 211 162 186 66 232 66 34 0 80-54 43-52 43-79zM1766-576q0-52-220-138-149-58-278-92-25 24-25 36 0 34 26 51 50 33 133 58 132 37 142 41 28 10 91 48 52 31 66 31h54q0-4 5.5-12t5.5-23zM4232 1375q6 50-23 91-47-23-47-59 72-32 70-32zM824 1093q-50 25-57 25-32 0-106-79 104 10 163 54z" glyph-name="uniFB67" horiz-adv-x="4227" unicode="&#xfb67;"/><glyph arabic-form="initial" d="M2012 1764q0-61-567-321h-36q0 3-6 11t-6 23q0 59 229 168 174 83 348 165 10 0 23-13 15-16 15-33zM2001 1293q0-36-81-60-85-25-90-44-3-9-3-40 0-10 19-100 22-104 29-145 24-150 52-441 23-251 23-286 0-103-43-168h-37q-17 211-122 976-12 88 18 155v27q-47 9-65-11h-37q2 43-25 76.5t-27 60.5q0 44 68 115 70 75 122 75 34 0 65.5-26.5t31.5-55.5q0-19-20.5-45.5t-41.5-26.5q-14 0-41 16-32 21-44 25l-17-17q20-45 61-45 81 0 193 10 12-2 12-25zM1489 1087q-10-21-129-100-134-88-194-88h-63q-6 13-23 35 20 29 79 55 72 32 96 51v24q-3 0-19 4.5t-28 4.5q-52 0-155-61-14 14-14 35 0 57 73 101 62 37 111 37 52 0 266-53v-45zM967 1554q0-61-238-177-89-43-341-181-5 5-17 11.5t-17 11.5q-4 60 35 84 95 62 531 292h34q13-14 13-41zM732 623q0-38-33-68-27-25-49-25-12 0-112 63 0 30 21 75 28 57 65 57 35 0 73-41 35-37 35-61zM1612-294q0-18-29-57.5t-47-39.5q-17 0-112 72-20-25-70-79-13-3-29-3-19 0-69 30-54 32-54 52 0 34 39 70 36 32 64 32 11 0 50-20.5t52-20.5q12 0 48.5 36t49.5 36q37 0 73-43 34-39 34-65zM1623 377q0-175-130-227-72-30-275-30-61 0-85-18l-20-114q-15-68-38-110-47-86-216-147-140-50-240-50-143 0-238 64-110 74-110 212 0 165 136 306h37q0-3 5.5-12t5.5-22q0-11-41-91.5t-41-93.5q0-105 100-157 78-42 192-42 107 0 220 41 154 56 154 153 0 63-45 167-5 14-41 77-27 48-27 63 0 56 57 113 4-4 61-81 45-58 85-81 37-23 141-23 7 0 153 13 34 3 97 45-7 18-43 88-29 54-29 69 0 52 35 102 58-10 100-80 40-65 40-134z" glyph-name="uniFB68" horiz-adv-x="1937" unicode="&#xfb68;"/><glyph arabic-form="medial" d="M6263 1446q0-62-55-62-14 0-62.5 36t-60.5 36q-14 0-63-44-67-58-78-65-94-67-299-137-37 0-57 5.5t-19 5.5q0 29 11 36 105 55 211 109 134 71 196 146-4 6-42 49-29 32-29 49 0 48 64 124 68 81 125 81 36 0 68-53 29-47 29-86 0-11-20.5-52.5t-20.5-54.5 51-62 51-61zM6366 831q0-28-43-61-39-31-65-31-10 0-41 20.5t-46 20.5q-13 0-56-31t-56-31q-37 0-71 31-31 28-31 51 0 34 42 66 35 27 55 27 13 0 48-17 44-21 54-24 6-5 15 5-122 92-122 123 0 21 45 59t62 38 50-30.5 43-54.5q4-10-1-29-5-24-5-32 123-62 123-100zM5516 1599q0-49-54-79-151-82-355-183-213-107-232-106h-43q-12 1-12 25 0 55 181 147 106 48 211 96 99 50 290 141 14-15 14-41zM6529 324q0-36-28-116t-45-90q-24-14-95-14-112 0-185 67-140-97-245-97-78 0-155 61.5t-76 61.5q-55 0-238-55-4-2-16-14-59-225-198-363-140-141-310-141h-103q-64 0-175 49-100 44-137 78l14 18q82-4 146-20 55-13 106-13 95 0 220 48 129 50 182 112 15 12 41 27 100 107 100 151 0 12-17.5 29t-20.5 26-3 47q0 57 25 77 50 39 156 56 80 11 160 23 23 6 88 28 55 20 69 20h53q17-53 4-125 72-38 126-38 92 0 143 41 28 23 69.5 92.5t83.5 101.5q29-16 29-52 0-3-23-91 10-12 51-31.5t56-19.5q22 0 43 27 1 17-5 57-7 44-7 66 0 70 49 115h37q31-98 31-199zM3131 1574q0-77-361-254-89-55-270-151-25 25-25 36 0 76 362 252 81 45 246 141h35q13-1 13-24zM4974 417q0-51-48-140t-79-98q-116-32-335-61-179-24-219-24l-1402-102h-532q-10 0-50.5 11t-65.5 12q-35 24-61 72-25 45-32 93-14 116-41 410 2 67 0 195-3 66-29 205-24 132-24 138 0 80 56 123 13-7 31-23 31-70 44-215 7-103 15-207 8-183 30-522 5-48 68-95 61-44 109-44h246l1100 52q95 0 688 53 8 1 187 35 54 7 108 15 64 10 102 36-71 127-255 127l-968-93h-234q-12 0-101-10t-100-10q-13 0-207.5 10t-207.5 10q-66 0-158 40-103 45-103 94 0 39 49 110 226 332 681 476 6 1 31 16 19 12 34 11h52q14-13 14-35 0-95-148-132-47-16-143-51-83-29-183-91-52-32-133-97-110-88-110-115 0-53 223-82 157-21 294-21 232 0 746 38 413 30 561 47 246 28 229 28 79 0 169-53 102-61 102-136zM2597 1633q1-35-155-119-25-17-82-45-136-54-212-54-65 0-109 13-13 4-53 28-36 20-48 20-22 0-61.5-50.5t-69.5-50.5q-8 0-17 2 116 222 168 222 13 0 87.5-35.5t87.5-35.5q88 0 215 44 131 46 212 108h37v-47zM2002 251q-40-66-117-88-62-11-122-24-28-5-82-20-38-23-122-67-3 17 9 95-18 23-70 66-29 23-29 58 0 46 67 112 61 57 122 113 35 36 93 36 34 0 74-25 44-27 44-56t-31-70q-31-43-57-43-14 0-54.5 30.5t-52.5 30.5q-17 0-39-22t-22-39q0-37 59-68 47-24 68-24 14 0 78 15t77 15h94q4-10 13-25zM2083-37q-48-53-218-132-166-77-218-75h-85v33q0 39 206 121l290 110q15-12 25-12v-45zM1275 246q0-162-279-282-225-97-387-97-151 0-264 81-125 90-125 236 0 74 50.5 191t96.5 146h37q0-4 5.5-9.5t5.5-19.5q0-11-32-64-38-60-47-87-14-31-14-65 0-13 16-45 18-39 21-51 45-150 353-150 76 0 227 55 158 57 203 107 2 14-36 19-50-5-145 7-113 41-137 55-72 43-72 116 0 93 129 275 139 196 245 196 44 0 86.5-34.5t42.5-78.5q0-47-45-112h-35q-50 61-84 61-56 0-144-98-81-93-81-133 0-67 130-99 77-18 141-18 13 0 20.5 5t20.5 5q97 0 97-112zM6099 1611v57q-22 23-37 23-23-23-23-48 33-32 60-32z" glyph-name="uniFB69" horiz-adv-x="6563" unicode="&#xfb69;"/><glyph arabic-form="isolated" d="M2660 1541q-8-28-15-56-13-33-32-42-117-62-233-123-148-75-247-106-15 15-15 41 0 52 34 67 39 18 279 136 170 83 185 83h44zM2497 877q0-31-32-67t-55-36q-10 0-34 15t-38 15q-11 0-41.5-25t-45.5-25q-37 0-67 28-25 26-25 48 0 29 33 65 31 32 54 32 12 0 31-10t31-10 50.5 25.5 51.5 25.5q21 0 54-32t33-49zM1585 1434q0-25-12-55-3 0-11-5.5t-23-5.5q-12 0-53 35.5t-54 35.5q12 0-151-124-166-128-286-142l-13 13v27q21 16 186 130 110 75 172 143-13 35-41 50-20 10-20 62 0 67 56 130t124 69q45-47 45-107 0-16-4-47.5t-4-45.5q0-27 10-48t50-53q29-24 29-62zM2568 170q0-19 3.5-42.5t3.5-32.5q0-36-42-107-34-58-187-90-115-24-218-24-51 0-107 25-67 31-84 80-27 78-37 270-5 147-11 294-1 13-9 53-8 37-8 51v274q0 13-15 95.5t-15 95.5q0 18 21 52.5t43 48.5h36q18-46 23-129 3-71 6-141 8-112 21-338 1-120 3-240 6-164 33-259 15-21 37-36 104-33 140-33 129 0 264 53 17 7 17 54 0 34-35 87-19-27-60-59-44-33-63-33-55 0-105 59-44 53-44 94 0 62 53 170 64 128 132 128 93 0 158-198 46-144 46-222zM1124 1525q1-17-32-56t-61-57q-85-51-217-93-9-3-73-3-13 0-64 10.5t-64 10.5q-31 0-65-42t-56-42q-15 0-32 11 31 52 62 105 67 101 102 101 11 0 41.5-18t45.5-20q19-2 56-2 87 0 228 63 32 29 95 79 11-11 34-11v-36zM429 1450q0-61-54-122-55-62-120-62-82 0-82 82 0 41 43 120 52 94 105 94 45 0 76.5-33.5t31.5-78.5zM1566 369q0-99-15-175-9-48-20-74-21-51-61-70-26-12-87-21-77-11-98-17-42-10-82-105-56-132-195-244-145-117-267-117-104 0-185 23-55 14-108 28-66 20-111 56 36 36 76 36 13 0 87-15.5t88-15.5q87 0 213 49 152 58 215 144 39 40 109 131 0 24-16 24-11 0-9.5-5t-10.5-5q-76 0-133 29-77 40-77 119 0 55 60 162 67 120 124 120 52 0 113-111 39-73 78-145 5 1 109 11 75 7 110 45-14 160-86 655-3 22-31 89-26 63-26 75 0 117 96 230 34-18 37-76 1-45 2-91 21-35 74-59 16-41 16-50 0-13-30.5-66.5t-30.5-66.5q0-12 36-247.5t36-249.5zM521 231q0-11-7-40.5t-7-46.5q0-96-28-166-7-1-25-13-12 8-33 24-2 29 0 77 4 63 4 78 0-4-31 225-78 582-78 671 0 59 14 79 29 44 40 74 20 0 34-23 15-130 69-553 48-374 48-386zM1431 1605v36q-21 23-38 23l-11-49q5 0 24.5-5t24.5-5zM2394 337v34q-12 16-23.5 30t-27.5 14q-21 0-50-33v-46q46-23 56-23 22 0 45 24zM336 1416l-23 23h-34q-28-28-12-60h35q34 32 34 37zM1095 184q-45 67-69 67-36-36-33-58 73-37 102-9z" glyph-name="uniFB6A" horiz-adv-x="2596" unicode="&#xfb6a;"/><glyph arabic-form="final" d="M3911 1393q0-50-27-66-126-66-376-205h-35q-23 24-23 36 0 45 54 72 31 16 208 116 129 73 144 72h43q12-1 12-25zM3061 1537q0-48-122-123l-126-70q-103-59-309-181h-34q-13 13-13 35 0 50 134 124 77 40 155 78 193 123 301 172 14-14 14-35zM4053 152q-32-24-185-64-150-40-227-101h-35q-13 1-13 24 0 20 41 61-33 27-66 53-36 35-36 71 0 42 119 158 116 113 152 113 19 0 58-39.5t39-58.5q0-22-26-63-28-44-50-44-15 0-58 25.5t-55 25.5q-46 0-46-51 0-73 159-82 7 0 79.5 11t104.5 12q18-3 45-25v-26zM3388 190q0-45-42-152h-38l-114 966q0 91 34 188 8 6 45 21zM2252 1716q0-44-221-170-192-108-297-148-15 15-15 32 0 44 34 66 108 72 259 160 156 91 175 91h52q13-14 13-31zM2754 861q0-33-34-61-29-26-48-26-29 0-60 23-32 25-32 53 0 27 26.5 67.5t50.5 40.5q18 0 57.5-39t39.5-58zM2242 1383q0-67-56-127-58-62-143-76-11-2-42-21-28-16-56-16-40 0-64 33-18 24-18 49 0 26 31 72t60 60v-85q7-6 22-6 37 0 66 61t54 61q15-26 13-64 6-8 20-8t43 46q36 53 55 68 15-16 15-47zM3010 237q0-74-46-186-216-86-328-86h-61q-28 0-97 42 20 115 23 119 8 13 74 13 11 0 35.5-5t35.5-5q55 0 161 32 103 30 111 45-21 122-246 253 3 33 6 68 11 63 50 63 58 0 143-76 71-62 83-91 56-127 56-186zM2140 820q0-25-33.5-61t-59.5-36q-15 0-48 18-43 21-53 25v52q-1 20 28 54.5t48 34.5q30 0 74-30.5t44-56.5zM1371 1621l-18-44q-14-30-35-42-173-104-546-290l-25 25q10 31 36 73 174 94 521 290zM1812 600q0-44-15-108-4-23-60-45-2 104-31 187-10 28-57 91-42 57-42 70 0 24 15.5 47.5t35.5 23.5q61 0 113-125 41-100 41-141zM2354 298q0-24-22-103.5t-33-94.5q-34-39-240-80-177-34-237-34-67 0-175 16-117 19-140.5 38.5t-53.5 93.5q-26 67-35 67-6 0-100-58-106-65-144-82-76-36-185-52-161-23-217-23-175 0-312 66-184 88-184 261 0 57 45 151 52 107 122 165h47v-37q-112-130-112-166 0-156 171-232 126-55 305-55 13 0 33 8 23 8 28 9 132 23 246 47 33 8 132 62 119 68 119 109l-61 610q0 151 69 199 31-120 54-461 20-326 74-494 11-35 97-60 67-19 110-19h118q12 0 291 44 44 7 89 35 1 41-32 95-29 42-58 86-3 11-3 27 0 24 21 90 13 12 30 12 52 0 102-114 41-94 41-126zM1116 795q0-32-32.5-67.5t-54.5-35.5q-13 0-27 5t-24 4h-27q16-39 84-80 60-36 60-67 0-64-71-146-73-84-139-84-35 0-103 30-84 38-96 86-3 10 6 23.5t24 13.5q11 0 70-40 2-1 43-1 11 0 46 4.5t58 4.5q0 8 19 27-3 2-93 76-30 25-30 67 0 44 67 148 73 114 127 114 39 0 68-34 25-28 25-48z" glyph-name="uniFB6B" horiz-adv-x="4059" unicode="&#xfb6b;"/><glyph arabic-form="initial" d="M1302 1384q-374-235-619-330l-25 26q7 32 44 82 104 63 564 290h36v-68zM1241 246q0-164-107-164-50 0-133 34-109 45-122 48-14-16-24-29-53-135-284-135-61 0-122 37-56 35-64 69-33 136-52 298-64 543-64 707 0 24 23 71 28 56 56 56 33-98 40-189 2-54 10-163l22-338q13-212 56-326 22-58 141-58 139 0 230 98 23 24 123 182 62 98 128 98 65 0 111-145 32-105 32-151zM1107 267q-11 70-54 102-35-18-57-68 35-35 58-34h53z" glyph-name="uniFB6C" horiz-adv-x="1246" unicode="&#xfb6c;"/><glyph arabic-form="medial" d="M1659 1531q1-37-381-242-109-60-321-161-24 25-24 36 0 48 289 207 190 103 380 207h57v-47zM1599 1194q0-183-230-233-5-2-36-16-27-11-41-11-28 0-55 22t-27 39q0 31 31.5 79.5t57.5 52.5q2-2 8-42 5-28 20-28 20 0 55.5 59t59.5 63q15-26 13-64 7-7 21-7 49 0 61 60 13 65 48 72 14-14 14-46zM1506 677q0-42-43-70-35-21-59-21-46 0-112 63 0 16 28 68 35 63 68 63 26 0 72-42t46-61zM2457-87q-55-49-268-142-199-86-227-86-25 0-56 12v33q-1 38 34 53 208 91 494 199zM2234 279q0-32-22-95-23-67-44-79-109-3-197 23-17 5-72 33-48 25-60 25-8 0-68.5-82t-130.5-82q-36 0-128.5 41l-92.5 41q-11 0-82-30-76-33-101-39-200-43-365-43-106 0-232 26-151 31-194 80-50 59-61 179-1 18-1 170 0 267-31 655-1 13-12 54t-11 54q0 49 55 123 50-27 54-56 48-359 48-515 0-102-11-223-4-41-4-77 0-211 142-273 78-33 305-33 102 0 228 19 154 25 219 64 16 9 41 53 27 48 53 68h36q0-47 3-136 26-27 126-27 13 0 18-5.5t18-5.5q58 0 205 189.5t215 189.5q57 0 109-127 45-105 45-159zM2089 290q-7 28-14 57-13 44-41 44-21 0-48-27-23-24-28-41 66-34 77-33h54z" glyph-name="uniFB6D" horiz-adv-x="2259" unicode="&#xfb6d;"/><glyph arabic-form="isolated" d="M1946-67q0-53-37-75-72-43-448-218h-35q-13 14-13 41 0 48 131 110 70 28 139 55 78 41 228 111 5-5 17.5-11.5t17.5-12.5zM809 576q0-37-32-63-27-24-55-24-52 0-107 53-3 36 23 82 27 49 59 49 30 0 71-35.5t41-61.5zM1884 315q0-49-31-120-37-84-81-84-84 0-176 51t-95 51q-4 0-60.5-41t-114.5-41q-36 0-120 21-22-92-84-264-28-59-185-134-151-73-230-73-10 0-69.5 5t-73.5 5q-54 0-143 56-81 51-100 82-54 92-54 154 0 58 56.5 186t90.5 146h46v-37q1-12-27-60-32-58-41-84-13-35-13-90 0-75 121-157 63-42 197-42 111 0 230 53 117 53 156 118 13 23 13 84 0 13-51 125.5t-51 125.5q0 30 43 117h36q26-62 103-172 22-22 109-22 117 0 216 77 46 36 138 143 67 77 102 77 64 0 110-125 33-92 33-131zM1751 310q0 1-43 86-16 3-46-22-25-21-33-34 64-43 108-56 9 10 14 26z" glyph-name="uniFB6E" horiz-adv-x="1882" unicode="&#xfb6e;"/><glyph arabic-form="final" d="M3709 1490q0-68-320-228-62-32-191-106.5t-191-105.5q-8 5-16 10.5t-8 20.5q0 64 87 116 60 29 119 60 93 65 288 154 6 2 98 63 70 46 111 47 8-5 15.5-9.5t7.5-21.5zM3556 932q0-27-44-64-40-32-58-32-33 0-66 40-27 32-27 46 0 33 33.5 65.5t64.5 32.5q32 0 64.5-32.5t32.5-55.5zM3699 736q1-31-43-54-37-21-69-21-11 0-45 15.5t-47 15.5q-12 0-53-36t-54-36q-30 0-66 36-32 31-32 41 0 19 33.5 63t48.5 44q11 0 48-20.5t49-20.5q10 0 47 41t50 41q15 0 61-29 60-39 72-44v-36zM3904 313q0-29-24-119-9-33-60-103-8 0-31-6.5t-39-6.5q-12 0-86.5 25.5t-86.5 25.5q-10 0-78-48-63-44-168-44-93 0-141 24-32 26-65 53-56 46-86 46-100 0-206-73-116-81-116-177 0-11 20.5-112t20.5-114q0-36-59-104-47-54-89-86-37 13-54 55-53 125-53 254 0 36 5 89.5t5 69.5v45q-385-31-365-31-136 0-277 20-51 7-114 33-10 5-52 39-36 30-53 30-13 0-47-37-44-45-68-61-80-55-163-55h-53q-163 0-291 246-8 0-21-19-120-186-499-186-138 0-138 92 0 11 33 112h33q6 0 44-29 27-12 84-12 108 0 239 38 191 55 191 157 0 12-30.5 171.5t-30.5 170.5q0 132 46 170 10-6 22-14 30-165 61-332 42-205 118-322 53-80 178-80 43 0 120 23 27 20 33 34 22 0 58 16 88 91 106 91 14 0 62-31 72-48 74-48 57-33 161-33 6 0 82.5-7t109.5-7q28 0 93-3.5t73-3.5q120 0 234 54 35 16 93 92 52 69 105 79l24-25q-17-46-56-126-43-56-118-162l7-65q14 13 31 48 25 52 43 78 35 51 76 74 244 138 330 138 18 0 113-67t142-67q34 0 89 21 63 22 77 48 18 42 37 83 25 55 63 84 46-11 46-45 0-17-13-46-14-32-14-38-5-18 15-33 53-22 85-22 13 0 28 4.5t25 4.5q6 24-3 73-9 58-9 61 0 75 56 123 20-12 42-46 2-23 15-84 9-51 9-65zM3013-531q0-46-33-63-447-229-485-229h-63q-12 2-12 26 0 17 23 50 21 29 31 32 76 31 290 133 181 87 194 87h42q13-14 13-36zM1888-275q0-39-33-73.5t-65-34.5q-42 0-93 52-18-9-64-49-39-33-53-33-45 0-113 86 45 108 98 108 30 0 112-61 92 92 102 92 21 0 65-33.5t44-53.5zM995-164q1-26-188-129-179-96-256-120-14 11-25 11v54q-1 22 33 43 72 30 195 88 18 10 100 67 63 43 78 43h63v-57zM782-449q0-44-34-63-95-58-259-131-152-68-174-67h-43q-13 13-13 35 0 55 142 117 73 28 148 55 54 23 174 89h47q0-4 6-12t6-23z" glyph-name="uniFB6F" horiz-adv-x="3900" unicode="&#xfb6f;"/><glyph arabic-form="medial" d="M3684 1248q1-18-216-156-196-124-309-184h-46q0 4-5.5 14.5t-5.5 25.5q0 51 228 176 103 65 308 181h46v-57zM2651 1357q0-59-313-251-226-139-387-219h-35q-13 13-13 40 0 49 34 68 227 130 679 403 11-7 21-14 14-11 14-27zM3715 201q0-185-240-467-56-66-182-110-106-37-181-37 36 0-272 23-27 15-76 41 0 30 23 44 12 2 51 8 34 7 48 7 13 0 59-10.5t59-10.5q159 0 339 130 183 134 281 326v29l-16 16q-100-102-138-102-65 0-113 68-41 56-41 95 0 62 48 164 58 123 127 123 95 0 167-146 57-116 57-191zM2425 731q-1-42-25-78-27-43-67-43t-76 29.5-36 57.5 30.5 67.5 61.5 39.5q36 0 112-73zM1319 1735q-24-63-29-73-17-35-34-46-226-132-556-279-15 15-15 41 0 13 6 30 7 21 8 29 278 141 564 298h56zM1279 1352q0-40-33-100-37-69-83-86-27-10-106-51-66-34-80-34-31 0-76 42-11 76 43 152h37q0-34 27-61 25 18 49 57 40 63 42 66 27-17 54-62 37 13 55 60 11 31 23 63h35q13-14 13-46zM2979 385q0-66-81-172-173-227-565-227-10 0-75.5 5t-77.5 5q-60 0-86-61-24-66-50-133-18 0-35 24 2 13 16 79 10 49 10 77 0 16-2 28-3 17-41.5 42.5t-57.5 25.5q-7 0-72-43-71-45-116-57-51-13-201-13-113 0-144 7-78 15-167 85-16-23-16-61 0-18 4.5-55t4.5-54-3-30q-24-103-51-155-53-97-199-152-123-45-253-45-343 0-343 296 0 69 64 193 61 118 104 145 37 0 37-41 0-11-11-28-14-22-18-30-21-43-42-85.5t-21-80.5q0-205 256-205 233 0 379 140v242q0 12-41.5 419.5t-41.5 420.5q0 35 27 95 23 55 40 75 27-40 36-128 6-71 13-143 26-193 53-385 29-150 102-206 80-60 272-60 127 0 137 3 47 10 143 62 89 47 99 47 13 0 95-40.5t95-40.5q32 0 181 118 91 72 255 195 76 55 142 55 69 0 152-43 94-49 94-110zM3532 313q0 34-57 61-45-18-45-61 0-19 18-35t37-16q14 0 30.5 17t16.5 34zM2835 310q-87 64-143 64-78 0-187-74-94-64-150-138 23 0 70.5-6.5t56.5-6.5q21 0 126 33 110 34 173 62 32 14 54 66z" glyph-name="uniFB71" horiz-adv-x="4030" unicode="&#xfb71;"/><glyph arabic-form="isolated" d="M2810 1324q0-40-44-64-111-59-287.5-138.5t-195.5-79.5q-15 0-23.5 5.5t-11.5 5.5v44q-2 33 43 53 154 64 462 209h44q13-13 13-35zM2247 1283q0-70-167-166-148-86-188-85h-63q-3 10-12 25 25 37 101 75 96 47 124 70-11 24-56 24-14 0-63-28-61-35-82-43-13 2-13 25 0 32 63.5 95.5t94.5 63.5q13 0 66.5-5t66.5-5q30 0 116-22 12 0 12-24zM1981 653q0-35-30-68.5t-57-33.5q-20 0-63.5 32.5t-43.5 53.5q0 24 40 63 38 35 51 35 21 0 62-31.5t41-50.5zM1633 1078q0-20-23-66h-46q-36 41-54 41-7 0-110-72-115-82-180-110-26-1-72-12h-36q0 13 13 45 188 113 294 197v25q-25 0-49 41-24 37-24 64 0 46 43 111 54 79 121 79 16 0 48-18.5t39.5-34.5 7.5-36q0-26-16-78t-16-70q0-7 1-13 3-13 31-44t28-49zM2892 288q0-15-36-53t-68-60q-159-104-361-154-92-23-216-23-61 0-114 13-46 11-146 68-93 52-103 52-25 0-88-21-77-25-108-53-78-70-78-188 0-32 6.5-92.5t6.5-87.5q0-38-9-66-9-24-51-67-48-49-85-59-107 161-106 343 0 94 31 160-43 0-141.5-11t-104.5-11q-11 0-98.5 10t-100.5 10q-29 0-35-7-10-58-22-117-17-77-43-110-8-3-17-3-48 0-106 56t-67 114q-14 91-10 114 0 1 10 21 7 14 5 27-31 27-74 27-35 0-103-46-63-44-74-63-12-22-12-100l71-681q0-134-45-173-31 18-42 87-7 60-12 122-20 139-44 393-21 224-21 252 0 101 25 158 38 84 152 160 34 22 197 48 15 2 51 38 37-41 116-113 56-42 121-59 89-23 234-23 49 0 144 24 91 22 120 40 24 14 83 99 5 7 51 52h35q13-13 13-30 0-45-60-122-36-45-71-90-36-72-54-160 5-5 7.5-13.5t7.5-13.5q17 25 43 89 17 42 68 102 56 69 102 91 202 96 248 96 14 0 116-66.5t172-66.5h58q6 14 6 26 0 15-14.5 38.5t-14.5 43.5q0 36 44 135 110 249 278 249 45 0 107-42 66-44 103-106-12-15-12-26h-43q-13 0-34 16-23 19-30 21-11 4-45 4-54 0-146-49-100-52-100-100 0-58 80-117 69-51 105-51 90 0 300 152h48v-57zM1519 1217v58q-21 23-47 23-23-23-23-49 64-32 70-32z" glyph-name="uniFB72" horiz-adv-x="2908" unicode="&#xfb72;"/><glyph arabic-form="final" d="M1426 1386q0-56-166-140-34-17-241-129-147-78-162-78h-65v44q0 42 125 90 205 107 463 243h33q13-13 13-30zM1344 1008q0-93-64-154-51-50-124-65-9-3-43-26-29-22-60-22-98 0-98 82 0 41 34 80 28 31 57 42v-74q8-7 32-7 42 0 57 42 23 64 39 80 11-1 25-4 8-14 31-68 18-2 38 46 26 63 39 78 37 0 37-30zM1334 224q0-169-117-169-69 0-145.5 36t-75.5 36q-10 0-45-53-40-60-70-77-41-24-151-24-139 0-181 75-21 36-29 131-4 63-9 127-6 107-20 327-6 81-27 265-20 166-20 176 0 29 66 118 40-41 53-129 5-72 10-142 13-149 20-369 5-144 8-185 8-113 29-183 7-23 77-55 4-2 49-2 94 0 121 12 38 17 69 81 41 84 54 99 166 197 212 197 86 0 122-292zM1212 265q-26 77-62 77-17 0-37-26t-24-42q52-36 109-54z" glyph-name="uniFB73" horiz-adv-x="1334" unicode="&#xfb73;"/><glyph arabic-form="initial" d="M2549 1669q0-76-509-335h-54v32q-2 41 74 83 140 78 463 250 8-4 17-9.5t9-20.5zM3081 1500q0-66-136-156-264-158-527-315-360-221-484-368 153-93 307-187 113-84 113-239 0-66-36-140-21-45-80-72-54-23-147-45-81-18-106-18h-30q-181 0-168 281 4 85-7 265-1 29-18 174-1 56-3 111-3 77-20 124v247q0 10 56 87l18-14 56-478q228 236 1092 719 26 25 73 59h34q13-13 13-35zM1421 1340q0-57-22-91h-32q-6 0-82 51-61-70-242-180-191-116-262-115h-44q45 63 206.5 155.5t222.5 176.5q-13 34-42 49-20 11-20 62 0 53 37 113 47 77 122 77 81 0 84-67 0-16 10-70-8-37-4-102 13-35 68-59zM1340 840q0-21-21-59-24-44-45-44-17 0-64 27-54 32-54 60 0 39 34 75 31 32 58 32 40 0 68-32 24-30 24-59zM542 1434q0-56-57-133-61-83-117-83-48 0-92 43-1 8-1 17 0 81 47 174 52 104 117 104 103 0 103-122zM480 225q0-81-35-151-10-15-44-32l-105 987q0 57 7 75t61 94zM1534 251q0-124-58-173-38-33-143-52-123-22-180-49-4-3-104-169t-213-234q-25-18-83-42-57-13-166-13-121 0-246 24-39 6-96 63 26 22 63 22 19 0 50-6 34-7 46-8 39-3 81-3 12 0 37.5 8.5t34.5 8.5q133 1 325 149 71 54 151 196-87 18-174 34-82 25-82 100 0 54 46 163 59 140 133 140 52 0 106-103 27-62 55-125 9-13 35-39 83 11 165 21 136 24 136 71 0 12-61.5 118.5t-61.5 117.5q0 57 56 112 148-140 148-332zM1267 1444v58q-22 23-37 23-43-44-43-48 34-34 47-33h33zM2261 197v45q-71 103-185 159-189 94-199 100-15-14-15-25 0-198 24-288 11-42 51-52 55-13 89-13 58 0 235 74zM460 1410q-35 33-51 33-18 0-40-31t-22-46q0-23 13-24h34q22 7 44 29.5t22 38.5zM992 158q-38 57-78 77-12-22-34-57 69-35 81-35 16 0 31 15z" glyph-name="uniFB74" horiz-adv-x="2363" unicode="&#xfb74;"/><glyph arabic-form="medial" d="M3720 1473q0-46-179-169-117-77-234-153h-45q-13 2-13 25 0 45 173 163 126 79 250 159h35q13-1 13-25zM3208 1338q-180-185-355-228-13 2-13 25 0 35 79 86 86 56 95 77-6 6-36 6-14 0-57-22-56-29-80-38v44q-1 17 42 64t73.5 61 72.5 14q49 0 179-43v-46zM3679 224q0-74-45-185-17-19-75.5-37t-99.5-18q-105 0-169 51-51 40-118 153-72-93-213-147-121-47-237-47h-46q-50 0-97 29-57 34-57 83 0 37 44 102h36q20-51 156-51 79 0 206 36 182 50 182 133 0 12-30.5 186.5t-30.5 187.5q0 104 46 144 10-6 22-14 18-64 36-224 17-156 39-233 36-124 112-194 34-32 155-32 67 0 93 27 2 11 2 23 0 43-47.5 108.5t-47.5 87.5q0 49 33 102h34q54-21 89-125 28-82 28-146zM2235 1258q0-32-35-66-6 3-65 38-38 23-53 23-14 0-37-27-31-36-37-41-63-50-172-113.5t-129-63.5h-52l-23 26q56 46 173.5 128t174.5 128q-5 10-39 67-23 40-23 54 0 55 54 116 56 64 115 64 32 0 55-16 27-37 27-81 0-24-10-66-11-47-14-66 26-23 53-45 37-33 37-59zM3658-298q0-31-34-64t-57-33q-12 0-46 15.5t-47 15.5q-14 0-46.5-36t-45.5-36q-31 0-69 34-33 31-33 48 0 35 40 76 35 37 52 37 11 0 37.5-20.5t39.5-20.5 51.5 35.5 50.5 35.5q23 0 65-32.5t42-54.5zM956 1458q0-45-23-58-125-75-326.5-177.5t-220.5-101.5h-54v44q0 33 65 66 40 17 80 35 131 56 421 222h45q13-13 13-30zM2563 485q0-16-39-70-72-96-217-168-31-16-239-97-62-24-184-46-129-24-184-43-18-5-42-83-26-87-131-210-117-138-216-171-71-22-135-22-25 0-350 54-17 11-45 43l13 24q15 7 40 7 28 0 98-13t101-13q12 0 37 7.5t33 8.5q115 12 250 102 144 95 228 225v28q-16 18-42 18-12 0-20-5.5t-21-5.5q-56 0-120 40-74 47-74 109 0 39 63 154 53 97 75 122 9 5 41 5 54 0 66-16 32-45 132-238 46-12 42-12-18 0 138 23 29 4 47 24-8 20-44 86-28 52-28 67 0 20 32 105 36 92 63 133 55 79 112 120 35 26 110 26 53 0 140-44 99-52 106-107-24-24-41-24-13 0-59 20.5t-59 20.5q-70 0-156-35-115-47-115-124 0-58 70-119 66-59 119-59 20 0 153.5 65t226.5 119q9-5 17-10t8-21zM658 767q0-40-30-66-26-21-56-21-23 0-107 52 19 122 81 122 46 0 81-33 31-28 31-54zM1058 270q0-37-15-115-19-107-51-159-39-64-162-112-95-36-165-51-61-13-134-13-121 0-202 67-90 74-90 204 0 60 58 186 67 144 125 135 0-3 5.5-11.5t5.5-22.5q0-11-32-72-39-76-47-94-13-29-13-80 0-76 111-124 80-35 135-35 29 0 121 22 110 25 159 52 109 63 109 141 0 45-34 127-7 17-65 108-44 69-44 103 0 92 46 113 60-27 121-158 58-125 58-211zM2069 1398v80q-23-21-47-21v-37q20-22 47-22zM1518 230q-12 85-78 91-23-24-23-47 44-45 67-44h34z" glyph-name="uniFB75" horiz-adv-x="3678" unicode="&#xfb75;"/><glyph arabic-form="isolated" d="M1840-158q0-39-436-226h-44v67q91 67 208 119 124 54 247 108 15-12 25-12v-56zM704 606q0-33-32.5-62.5t-59.5-29.5q-36 0-69.5 25t-33.5 52q0 25 29.5 66t52.5 41q26 0 69.5-34.5t43.5-57.5zM1779 288q0-68-43-153h-114q-13 0-90.5 31t-90.5 31q-11 0-41-41-40-52-46-58-45-45-153-45 4 0-42 5-32 3-57-3-18-213-86-296-72-90-254-143-81-23-140-23-134 0-248 71-131 80-131 205 0 73 55 184 58 117 115 144 14-15 14-36 0-10-41-92.5t-41-101.5q0-97 109-160 86-51 168-51t199.5 42 166.5 90q13 13 13 79 0 79-56 176t-56 110q0 32 22 66 23 31 39 31 11 0 54-52 47-58 67-69.5t135-11.5q107 0 145 22 7 3 117 179 98 157 173 157 59 0 104-134 34-103 34-153zM1645 310v36q-25 55-50 55-20 0-41-14.5t-21-31.5q0-14 6-22.5t6-11.5q14 0 46-5.5t54-5.5z" glyph-name="uniFB76" horiz-adv-x="1778" unicode="&#xfb76;"/><glyph arabic-form="final" d="M2335 1569q0-67-265-207-221-115-314-141-15 14-15 35 0 44 34 62 169 84 513 281h34q13-14 13-30zM2253 1053q2-44-48-79-43-30-75-30-9 0-32.5 10t-38.5 10q-13 0-54-30.5t-53-30.5q-27 0-72 25-46 26-46 47 0 32 44 69 39 33 58 33 13 0 46.5-15.5t45.5-15.5q13 0 48.5 36t48.5 36q42 0 128-65zM1690 1430q0-32-26-55-186-165-276-165-15 0-28 5.5t-17 5.5v37q53 35 163 112-9 24-51 24-34 0-70-29.5t-62-29.5q-14 0-32 6 24 55 73 110 58 66 101 66 48 0 130-25 95-30 95-62zM1029 1264q-22-22-33-22-40 0-98 58-50-46-171-132-210-120-256-119h-69q0 9 2 23 253 162 394 263-1 1-43 61-25 36-25 64 0 46 61 117t103 71q84 0 84-103 0-37-12-87-5-23-11-46 15-28 74-86v-62zM2325 304q0-76-28-144-40-96-119-121-6-2-49-22-35-15-49-15h-164q-113 0-140 14-13 4-53 39-33 29-48 29-12 0-53-34-50-41-78-54-48-24-161-24-115 0-268 71 12-239-160-362-138-98-345-98-147 0-247 70-116 81-116 226 0 82 56.5 202t111.5 146q5 0 17.5-6t18.5-6v-45q0-12-37-68-46-70-63-106-2-9-2-24 0-107 100-176 86-60 181-60 52 0 133 13 16 9 51 24 92 26 99 29 66 26 98 76 4 4 4 53l-103 1028q0 53 78 138 32-102 48-281 17-107 40-317 14-36 35-102 8-58 47-162 32-49 116-82 72-28 133-28 86 0 133 26 73 40 151 168 30 0 44-23 1-4 7-92 77-48 158-48h135q11 0 59 9 54 12 70 14 23 2 68 44 0 63-27 117-103-93-148-93-61 0-107 86-36 66-36 99 0 45 64 151 68 115 115 115 62 0 146-145 65-114 80-176 4-17 4-73zM1782-340q0-36-42-64-36-24-54-24-16 0-118 74 0 37 27 77 29 44 64 44 33 0 78-41t45-66zM2130 434q-11 35-43 89h-33q-26 1-26-50 0-18 22-34.5t39-16.5q15 0 26 6t15 6zM893 1438l-10 93q-42-4-66-52 41-41 76-41z" glyph-name="uniFB77" horiz-adv-x="2325" unicode="&#xfb77;"/><glyph arabic-form="medial" d="M3425 1462q0-35-33-58-99-70-244-159-150-90-168-90-46 0-46 35 0 51 54 83 367 220 372 220h52q13-14 13-31zM2770 1620q0-57-229-186-196-109-258-126-14 12-24 12v43q0 21 192 135l272 158h34q13-14 13-36zM2607 807q0-28-44-57-36-25-49-25-36 0-102 66l42 76q21 32 55 32 27 0 64-44 34-38 34-48zM3527 208q0-109-119-294.5t-221-239.5-186-54q-13 0-67 4.5t-67 4.5q-162 0-300 54v37q10 2 223 2 178 0 348 105 192 119 287 329 5 6-5 16-81-93-123-93-60 0-111 59-48 54-48 100 0 88 64.5 195.5t120.5 107.5q82 0 149-142 55-118 55-191zM1572 1488q0-10-44-67-12 4-49 29-32 22-45 22-14 0-80-56-87-73-101-84-90-62-259-126l-77 15q138 93 420 299-12 31-51 49-31 15-31 67 0 56 43 126 50 79 105 79 82 0 94-86 3-23-8-63-11-45-11-63 0-14 4-27 4-9 49-54 41-40 41-60zM1633 1226q0-89-63-139-15-13-114-38-13-4-57-27-38-21-52-21-37 0-91 52-3 6-3 16 0 83 68 157 23-15 23-33 0-4-2-15t-2-18q0-14 6-27-7-9 16-9 40 0 62 52 34 85 38 90 5 0 18.5-5t19.5-5v-74q7-6 21-6 19 0 49 59 13 32 27 63 36-36 36-72zM1593 658q0-30-44-61-36-26-48-26-25 0-92 43-3 37 16 81 23 50 60 50 24 0 64-29 44-32 44-58zM2821 351q0-92-111-186-93-79-180-103-66-22-205-51-118-13-309-13h-249q-13 0-107.5 56.5t-107.5 56.5-49-30q-46-38-66-49-39-22-129-35-92-14-128-33-22-11-38-57-12-34-25-70-148-290-326-348-41-13-191-13-261 0-338 89 90 17 144 12 98-9 76-9 345 0 568 365 0 10-17 21l-134 24q-80 18-92 54-2 5-19 34-15 26-15 40 0 28 44 139 44 115 64 127 19 15 56 15 59 0 115-95 92-154 97-162 106 0 161 13 47 12 101 31 28 10 100 57 63 43 77 43 37 0 54-15 38-35 107-62 64-25 105-25 50 0 115 32 73 37 102 88 34 61 34 172 0 46-28 204-15 151-58 429-3 14-21 47-16 27-16 41 0 96 96 205 24-15 31-95 7-67 87-81v-45q0-14-21-66-25-60-30-81l62-435q-12-80-33-252 37 16 236 116 140 69 156 69 82 0 164-47 91-53 91-122zM487 1411q0-68-54.5-131t-119.5-63q-82 0-82 81 0 49 43 124 36 64 72 97 11 5 69 5 31 0 53-44 19-37 19-69zM466 279q0-154-44-219-49 20-49 52 0 10 5.5 28.5t5.5 26.5l-82 814q0 92 45 163h36q17-72 39-209 12-133 30-399 2-35 8-146 6-96 6-111zM3353 286v48q-34 32-57 32-45-44-45-71 0-16 13-26 11-8 21-15 34 0 68 32zM1417 1658q0 26-33 60-33-17-37-48l24-23zM2667 301q-109 65-158 65-82 0-404-201 9 0 24-13 140 17 280 35 166 29 258 114zM394 1362v37q-6 0-24.5 6t-22.5 6q-12-22-34-57l24-25q47 23 57 33zM968 156q-23 46-60 46l-11-37q11-12 32.5-22t23.5-12q10 9 15 25z" glyph-name="uniFB79" horiz-adv-x="3535" unicode="&#xfb79;"/><glyph arabic-form="isolated" d="M1283 1513q0-51-268-223-234-150-342-196-13 11-24 11v53q0 27 155 122l174 102q88 55 267 172 38 0 38-41zM1324 249q0-55-25-115-29-75-73-75-28 0-275 82-15-14-24-28-45-80-109-102-68-23-175-23-83 0-144 63-33 33-41 90-4 48-8 97l-21 276q0 10-10 50-10 38-10 64 0 242-21 408 0 9-9 54-7 37-7 50 0 65 54 136h36q30-115 49-444 15-138 31-409 1-155 19-195 31-67 149-67 82 0 116 13 46 17 75 67 31 59 99 165 34 42 95.5 93.5t80.5 51.5q66 0 113-145 35-108 35-157zM1190 255v36q-18 37-55 75-29-24-67-68 67-44 88-43h34z" glyph-name="uniFB7A" horiz-adv-x="1362" unicode="&#xfb7a;"/><glyph arabic-form="final" d="M1864 1706q0-54-70-102-58-34-116-70-98-59-298-191-10 0-24 12.5t-14 28.5q0 60 124 138 72 39 145 79 72 50 216 141 37 0 37-36zM1444 908q0-31-34-67-92 31-99 31-1 0-154.5-102t-214.5-102q-16 0-51 33 0 6 12 24t13 19q77 44 155 87 117 73 117 103 0 12-25.5 53t-25.5 54q0 30 36 104 46 96 103 96 28 0 53-15 49-29 49-96 0-24-7-70-8-43-6-58l50-44q29-27 29-50zM2069 232q0-65-43-153-52-107-121-107-12 0-168.5 40.5t-169.5 40.5q-5 0-131-28-130-29-191-33-150-9-283-9 0-61-18-132-24-95-62-95-57 0-140 105-26 32-32 85-1 47-6 141-3 4-14 18-16 1-34 1-87 0-161-36-84-42-84-109l61-665q0-123-4-149-3-18-40-56-17 0-35 24-6 132-41 449-34 302-34 305 0 116 52 218 58 115 156 156 31 13 186 27 16 2 40 23 36 32 43 36 42-55 136-152 38-32 232-32 190 0 258 39 8 16 5 45-2 33 0 45 27 107 63 176 22 42 107 115 74 64 74 92 0 11-9 41t-9 46q-7 80-7 266 0 33-23.5 108t-23.5 82q0 27 36 107 39 84 62 97 12-6 31-24 2-13 2-38v-18q0-33 5-46 5-20 29.5-33.5t48.5-25.5q1-8 1-16 0-41-23-83-18-30-37-61-1-4-1-79 0-298 43-408 11-29 175-145 16-8 43-39 56-96 56-156zM1290 1106q-15 0-32.5-14t-17.5-22q33-34 48-34 2 2 2 70zM1966 180q-15 39-75.5 89t-84.5 50q-33-52-33-111 73-52 138-52 33 0 55 24zM1700 314q0 108-56 108-25 0-71.5-51.5t-46.5-71.5q0-29 47-52 39-20 66-20 61 0 61 87z" glyph-name="uniFB7B" horiz-adv-x="2067" unicode="&#xfb7b;"/><glyph arabic-form="initial" d="M1472 1042q2-52-65-123-21-21-67-35-70-21-75-24-111-47-129-47-82 0-82 92 0 17 31 67 33 53 58 65 0-72 20-101h27q27 0 64 72 20 41 39 81 51-27 46-73 3 0 7.5-4t19.5-4q24 0 43 52 13 34 26 69h37v-87zM592 428q0-36-31-63-28-23-55-23-26 0-65 26-43 28-43 56 0 22 36 68 35 45 46 45 39 0 77-43 35-39 35-66zM1514 291q0-39-35-141-4-7-19-20-8-3-48-3-42 0-249 52-11-27-32-70-36-59-112-82-28 0-81-16-33-19-42-89l-10-98q-13-47-63-124-51-81-203-134-124-43-222-43-105 0-201 44-44 20-91 98-46 76-46 119 0 92 52 207.5t106 145.5h34q13-13 13-31 0-10-46-104t-46-110q0-106 102-163 75-42 154-42 112 0 239 55 150 65 150 155 0 43-14 90-11 38-57 129-41 81-41 93 0 57 44 101 39-2 84.5-72t85.5-70q29 0 138 23 23 5 60 97 16 40 51 92 126 187 207 187 65 0 106-109 32-87 32-167zM1453-334q0-57-44-78-409-199-444-197h-43q0 4-6 14.5t-6 25.5q0 46 121 102l138 54q89 40 259 110 8-5 16.5-10t8.5-21zM1381 312l-32 80h-36q-32-32-32-59 2 0 16-11t29-10h55z" glyph-name="uniFB7C" horiz-adv-x="1532" unicode="&#xfb7c;"/><glyph arabic-form="medial" d="M3657 1699q0-53-157-136-97-46-195-92-48-28-96-57-71-37-113-31-13 13-13 30 0 48 34 66 83 50 244 127 172 81 248 124h35q13-14 13-31zM3585 1300q0-25-37.5-92.5t-57.5-78.5q-35-9-113-37-91-38-94-38-26 0-53 16-34 20-34 51 10 39 24 68 30 69 66 79 1 18 1-83-7-8 17-8 25 0 55 46 18 29 35 57h34q11-16 30-41 34 3 55 41 29 56 34 61 38 0 38-41zM3472-190q1-50-64-83-118-53-349-157h-35q-13 14-13 41 0 58 103 104l136 52q115 65 197 90 15-11 25-11v-36zM3698 256q0-42-71-82-55-31-73-31-10 0-75 10.5t-79 10.5q-25 0-177-39-164-43-328-87-233-58-329-58-77 0-138 56t-71 56q-9 0-69-45-64-47-99-54-101-20-276-44-155-21-181-21-8 0-168 18-177 19-244 24-10-15-51-155-29-100-113-150-164-95-340-95-60 0-176 23-64 13-128 108-60 89-60 151 0 91 64.5 220.5t124.5 162.5q15-11 26-11v-46q0-12-51.5-116.5t-51.5-117.5q0-108 106-165 83-45 201-45 89 0 204 51 135 61 135 138 0 26-25 101-9 30-51 117-37 76-37 89 0 54 33 108h36q42-42 86-137 28-58 86-58 42 0 297.5 189.5t336.5 189.5q18 0 135-35 54-16 71-50 25-50 25-63 0-44-48-131-33-57-65-114 6-6 26-6 97 0 205.5 66.5t96.5 66.5q10 0 83.5-61.5t156.5-61.5q48 0 170 29.5t153 48.5q-27 30-128 46-151 26-166 31-13 12-13 34 0 74 173 180 121 74 189 98 75 22 223 67 30 60 59 121 62 113 98 113 42 0 114-54 75-57 75-105 0-93-149-149l-192-54q-49-21-168-43-85-15-156-72 14-27 47-32 495-85 465-85 1 0 56 5 48 4 73 2 30-9 105-19 0-3 6-14t6-25zM2653-338q0-33-36-64-33-28-61-28-11 0-51 25.5t-57 25.5q-13 0-51-35.5t-51-35.5q-34 0-112 74 0 14 37 71 41 60 59 60 12 0 48.5-20.5t49.5-20.5 48.5 35.5 48.5 35.5q37 0 85-53 43-49 43-70zM1763-286q0-73-436-257-14 13-25 13v53q0 33 187 129l216 102h45q13-13 13-40zM1517-609q0-41-24-53-96-51-268-121-164-66-186-66h-52q-13 13-13 30 0 57 44 78 99 47 252 107.5t172 59.5h63q0-4 6-12t6-23zM2058 269v35q-66 44-147 44-67 0-75-5-119-77-267-207 9 0 26.5-6.5t28.5-6.5q94 0 229 47 129 44 205 99z" glyph-name="uniFB7D" horiz-adv-x="3697" unicode="&#xfb7d;"/><glyph arabic-form="final" d="M1347 1936q0-58-226-160-155-66-311-132h-34q-13 14-13 36 0 54 44 72 176 69 526 209 14-1 14-25zM1265 1608q0-11-40-83-44-78-65-92-43-29-125-39-5 0-36.5-13t-45.5-13q-43 0-87 43 0 59 64 119h37q0-26 27-50 42 28 78 102h46q5-20 20-51 19 11 53 49t60 53q14-1 14-25zM1142 1045q0-16-36-62-40-52-44-62-13-31-24-116-14-96-23-130-14-51-60-183-38-109-38-123 0-13 30.5-122.5t30.5-122.5q0-51-2-58-7-36-42-47-103-33-350-33-89 0-127 31-2 5-2 13 0 31 17 77 19 49 40 63 41-21 72-21 36 0 47 12 152 152 152 198 0 52-192 269-195 217-248 217-13 0-18-4.5t-18-4.5q-70 0-132 45-67 50-67 118 0 4 31 131 1 13 25 13 89 0 294-191 160-150 219-231 51-76 154-224 48 27 71 121 14 82 28 162 18 45 41 142 1 19-9 73-10 58-10 86 0 14 1 27 6 30 89 167h37q1-51 14-147 4-16 28-44 21-26 21-39zM875 182v36q-33 33-37 33-34-33-54-79 70 0 91 10z" glyph-name="uniFB7F" horiz-adv-x="1156" unicode="&#xfb7f;"/><glyph arabic-form="initial" d="M2824 1443q0-53-25-70-109-74-366-193-96-44-116-43h-75v34q-1 41 54 64 63 26 283 127 177 81 191 81h54zM2200 1297q-2-75-130-153-114-69-182-69-25 0-55 12v36q55 30 163 95-12 11-52 11-42 0-46-2-15-6-69-49h-37v44q-1 10 62 68 67 62 96 62 8 0 227-32zM3050-240q0-31-25-63-28-35-62-35-15 0-40 15.5t-37 15.5q-13 0-43.5-30.5t-43.5-30.5q-24 0-64 28-43 30-43 59 0 37 34 68 30 29 58 29 42 0 78-41 11 8 47 49 30 33 44 33 22 0 59.5-38t37.5-59zM1565 1191q1-33-235-160-181-98-364-181-8 4-16.5 9.5t-8.5 21.5q0 53 257 190l310 156h57v-36zM1637 425q-10-28-44-64-37-5-104-17-104-20-217-68l-24 26q20 18 20 51 0 28-57 69-4 14-4 33 0 54 75 123 72 67 120 67 32 0 67-31.5t35-55.5q0-21-55-77-14 5-46 29-28 22-42 22-15 0-41-27 20-48 75-60 20-5 89-5 32 0 129 10zM838 1047l-24-23q-73 41-83 41 10 0-123-99-137-103-225-116l-56 13q25 36 143 118t154 131q-12 32-51 50-31 15-31 56 0 50 43 117 51 78 111 78 36 0 67-38 24-31 31-59 6-31 0-65-5-30-11-58 2-9 30-39 25-28 25-42v-65zM2917 241q0-63-24-127-31-84-84-84h-133q-74 0-83 4-12 3-50 23-31 14-46 14-5 0-55-35.5t-104-35.5q-11 0-56 10t-56 10q-13 0-89.5-20t-89.5-20-79.5 35.5-79.5 35.5q-12 0-41-19-33-23-50-30-120-42-175-42-13 0-218-5.5t-218-5.5q-36 0-190 51-1 0-22-27 0-67-24-133-30-85-81-85-56 0-113 89-45 70-48 99-7 77 4 142-4 7-13 17-62-16-125-32-82-29-114-91l92-736q-5-50-10-99-13-75-41-94l-19 50-104 772q1 33 2 92 8 120 132 217 116 90 228 88 15 24 50 78 27 0 54-42 52-81 105-108 58-32 162-62 116-33 188-33h154q154 0 273 28 194 47 210 156h26q28-9 28-35 0-15-12.5-53t-13.5-59q28-16 83-16 114 0 155 32 25 19 59 69 39 55 57 73 5-5 18-12t18-13q-5-15-15.5-46t-15.5-47q14-26 46-26 54 0 85 58 53 99 77 126h36q6-17 0-49-8-40-8-42 0-28 58-47 46-15 85-15 66 0 124 27 0 36-15 79-32 95-81 162-38 23-107 93-13 21-13 59 0 21 22 81 22 56 33 72 84-43 170-229 82-176 82-287zM704 1229v37q-25 28-60 10 12-24 60-47z" glyph-name="uniFB80" horiz-adv-x="2929" unicode="&#xfb80;"/><glyph arabic-form="medial" d="M4664 1529q0-83-105-156-93-65-166-65-13 0-18 5.5t-18 5.5q-17 0-96-51h-36q10 84 114 148 18 4 50 17 13 9 81 100 54 73 101 73 37 0 67-29 26-25 26-48zM4213 1549q0-101-313-179-24 23-24 48 57 44 144 83 6 23-37 23-11 0-55-17-49-18-83-23v33q0 16 45.5 59t61.5 46.5 56 3.5q51 0 121-20 84-25 84-57zM4459 331q0-85-43-210-5 0-18.5-5t-18.5-5l-74 911q0 49 35 137 29 15 45 15zM4090 1022q0-10-46-72-49-64-54-88 0-3-18-157-14-127-40-202-5-16-40-100-27-65-27-78 0-12 36-117.5t36-117.5q0-69-54-99-34-19-135-27-210-17-236-17-128 0-128 77 0 28 19 65 21 42 43 42 11 0 25.5-10t24.5-10q35 0 135.5 90.5t100.5 113.5q0 47-185 281-190 241-250 241-10 0-37-10t-40-10q-54 0-107 69-47 62-47 101v124q25 24 57 24 9 0 115-71 168-110 323-294 77-92 239-322 58 44 80 203l22 244q2 17-12 69-14 57-14 89 0 13 2 26 3 20 92 167h37q1-6 1-117 0-11 41-52t41-55zM2708 996q0-25-36.5-61t-60.5-36q-21 0-64 29.5t-43 47.5q0 31 34 64t68 33q20 0 61-29.5t41-47.5zM3977-283q-23-41-145-91l-196-78h-35q-5 11 0 33 9 30 9 39 0 13-29 39-20 17-40 35-4 12-4 33 0 69 72 125 68 54 138 54 30 0 50-23 17-19 17-38 0-29-23-48-18-14-33-14t-37 10.5-35 10.5q-10 0-36-26 36-56 118-56 18 0 77 12.5t86 12.5q23 0 35-6 1-7 11-24zM4121-416q0-39-27-54-93-49-260-115-156-62-179-62-16 0-30.5 17t-14.5 34q0 33 289 146 16 6 87 42 57 28 70 28h52q13-14 13-36zM2258 1360q0-41-27-58-109-71-288-169-246-135-293-162h-34q-14 13-14 41 0 46 23 60 149 89 608 318 8-5 16.5-10t8.5-20zM1469 607q0-79-35-146-5-11-31-33-24 18-25 68l2 70q-6 109-76 193.5t-70 88.5q0 19 18.5 45t37.5 26q46 0 107-97 51-81 58-122 14-76 14-93zM3036 290q0-231-215-231-12 0-72-10t-72-10q-23 0-69.5 27t-69.5 55q-16-5-43-29-32-31-45-40-37-23-105-23-11 0-40 5t-42 5-82-20.5-82-20.5-97.5 30.5-96.5 30.5q-13 0-54-16-48-18-68-22-31-6-123-6-23 0-70.5-13.5t-59.5-13.5h-137q-68 5-285 41-15-14-25-57-9-48-18-94-14-62-41-103-72-109-327-173-51-14-108-14-157 0-264 68-125 79-125 230 0 66 45 171 48 111 102 155 37 0 37-24 0-10-41-107t-41-113q0-106 110-167 88-49 187-49 165 0 351 105 36 21 45 45 4 11 4 61 0 11-4 25.5t-4 24.5q-2 68-53.5 167l-51.5 99q0 31 43 117h36q17-39 55-104 126-151 521-151 11 0 60.5 5.5t62.5 5.5q21 0 106 17 96 19 132 36 18 8 46 43 39 49 47 56h36q1-4 1-145 13-7 57-7 89 0 140 32 19 12 53 72 31 52 63 59 16-10 16-52-1-39-11-55 16-15 46-15 61 0 94 49 55 82 81 104 7-8 20-25-1-12-1-23 0-60 61-78 27-7 103-7 190 0 190 46 0 26-96 202-18 33-54 43-54 14-63 19-33 21-33 68 0 48 18 100 22 64 54 64 52 0 143-142 65-101 88-158 35-86 35-165zM814 1135q0-5-33-72h-32q-13 0-42 25.5t-42 25.5q-11 0-64-52-62-62-86-78-36-24-227-106l-68 14q51 45 177.5 127.5t180.5 130.5q-17 30-57 71-24 24-24 57 0 87 64 149 63 59 137 55 55-53 55-112 0-22-10-68-11-44-9-68 80-87 80-99zM712 582q0-36-50-68-39-25-52-25-18 0-102 52-5 10-5 23 0 36 30.5 72.5t60.5 36.5 74-35 44-56zM4561 1480q-9 3-15 3-16 0-36.5-18t-29.5-21h36q45 17 45 36zM3823 133q0 3-34 69-53-50-66-79 43 0 72.5 5t27.5 5zM670 1279v69q-24 22-47 22-34-34-34-58 22-23 66-45z" glyph-name="uniFB81" horiz-adv-x="4459" unicode="&#xfb81;"/><glyph arabic-form="isolated" d="M1629-212q0-51-64-90-91-53-227.5-120t-154.5-67h-64q-13 2-13 26 0 64 84 100l134 50q89 45 270 141 10-7 21-14 14-11 14-26zM626 483q0-36-44-67-34-25-48-25-47 0-103 53 0 27 23 74 29 57 64 57 30 0 70-38 38-35 38-54zM1659 279q0-65-26-113-29-51-76-51-81 0-167 30.5t-84 30.5q-11 0-48-49-43-57-61-70-29-22-75-32-39-8-79-15-23-91-94-271-35-65-190-129-142-58-225-58-158 0-264 60-136 76-136 232 0 67 53 176t104 145q38 0 38-20 0-12-29-61-33-59-41-79-12-32-12-95 0-106 112-159 77-36 159-36 85 0 220 41 184 57 184 144 0 105-44 197-5 10-40 63-28 41-28 57 0 62 33 111h36q46-61 93-122 30-30 114-30 83 0 125 48 13 14 83 144 20 38 102 113 92 84 131 84 56 0 100-136 32-104 32-150zM1515 289v47q1 20-18 42.5t-37 22.5q-6 0-56-42v-37l13-12q34-6 98-21z" glyph-name="uniFB82" horiz-adv-x="1667" unicode="&#xfb82;"/><glyph arabic-form="final" d="M2616 1204q0-14-5.5-27t-5.5-23q-3 0-11.5-5.5t-23.5-5.5q-11 0-50 25.5t-52 25.5q-2 0-192-133.5t-240-132.5h-52q-3 10-13 26 127 86 400 296-93 115-93 133 0 40 61 121 66 89 118 89 29 0 73-55 10-119 11-115-2-8-11-39-9-27-9-44 0-33 47.5-78t47.5-58zM1941 1496q0-57-274-222-229-139-337-183l-24 26q3 27 25 65 72 50 562 349h34q14-13 14-35zM2698 288q0-36-21-123-23-92-37-97-79-30-215-63-122-29-147-29-81 0-133 42 4 131 62 131 11 0 43-5t44-5q11 0 234 44 30 5 68 43-15 90-82 151-3 3-116 81-59 41-59 85 0 16 20 44 22 33 42 33 90 0 197-133 100-123 100-199zM1337 1644q0-63-136-124-112-50-157-50-11 0-107 20.5t-107 20.5q-12 0-36-23-34-31-45-38h-36v9q0 38 55.5 101.5t97.5 63.5q12 0 91.5-20.5t92.5-20.5q122 0 238 91h36q13-13 13-30zM2022 338q0-20-56-91-61-74-110-104-91-56-241-103-146-44-227-44-87 0-165 41-102 53-105 147-3 4-14 20-95 877-95 939 0 28 25 89 21 51 31 64 43-42 52-220 17-307 79-778 2-13 45-67 50-61 81-61h47q1 10 1 19 0 25-11.5 49t-11.5 34q0 13 12 35 13 26 15 33 28 121 101 213 88 108 194 108 122 0 240-138-6-11-13-22-10-14-28-14-12 0-63 20.5t-64 20.5q-42 0-140-41-121-53-121-113 0-27 45-100 51-84 93-84 68 0 185 70 105 61 182 135 5 0 18-6t19-6v-45zM947 204q0-37-144-77-89-21-176-43-37-13-82-57h-36q-3 20 3 48.5t6 27.5q0 12-46.5 53t-46.5 55q0 48 114.5 162t156.5 114q31 0 80-32.5t49-59.5q0-22-37-67t-51-45q-19 0-58 30.5t-49 30.5q-13 0-32-16-25-20-30-22-1-39 64-64 52-21 95-21 13 0 85 15t84 15q15 0 31-5.5t20-5.5v-36zM1009-19q0-40-253-170-239-123-256-122h-62q-13 13-13 36 0 44 98 95 65 30 131 59 276 137 299 137h45q0-5 5.5-12.5t5.5-22.5zM2453 1435l-25 25q-18-17-48-45 13-23 59-47z" glyph-name="uniFB83" horiz-adv-x="2727" unicode="&#xfb83;"/><glyph arabic-form="isolated" d="M3571 1584q6-15 6-32 0-60-58.5-127.5t-123.5-92.5q0-1-120-9-49-3-74-34h-48v47q48 31 134 97 5 3 78 118 48 75 120 75 42 0 86-42zM3079 1557q-5-11-21-30-220-157-290-157-15 0-23 5.5t-11 5.5v48q37 29 152 100-21 25-56 25-49 0-132-61h-46q2 46 70 112 65 61 98 61 11 0 105-17 104-20 154-25v-67zM3408 111q0-57-56-113-13 7-33 23-12 241-68 708-5 43-27 166-21 109-21 122 0 17 27 84 25 66 38 84 19 0 33-23 33-264 65-528 42-346 42-523zM2180 1636q0-73-557-358h-44q-13 13-13 35 0 49 43 73 508 280 515 280h43q13-13 13-30zM1575 1517q0-15-55-69-52-50-89.5-74.5t-227.5-106.5l-57 13q19 37 103 91 116 73 132 87-16 45-82 45-14 0-64-38-59-46-75-54-15 14-15 36 0 39 76 105 73 63 109 63 12 0 101-17 101-20 144-25v-56zM1903 842q0-24-38-62-33-35-44-35-29 0-70.5 30.5t-41.5 56.5q0 32 36 66 33 32 56 32 31 0 68-34 34-31 34-54zM2948 259q0-291-415-291-222 0-222 98 0 20 9.5 57.5t9.5 50.5q0 49-79 49-97 0-316.5-117.5t-374.5-117.5q-148 0-222 142-40 77-87 298-60-45-166-152-11-15-31-88-20-77-36-105-122-223-275-277-68-23-176-23-80 0-201 32-124 31-162 64 25 48 56 48 13 0 89.5-15.5t89.5-15.5q152 0 257 48 122 56 228 195 68 90 68 115 0 12-36 56t-36 56q0-7 33 92 29 0 52-5t33-5q90 0 135 75 29 64 57 127 14 23 49 23 37 0 60-135 31-186 60-251 61-135 192-135 68 0 169 32 111 34 143 74-26 17-95.5 42t-88.5 25q-31 0-116-112h-35q-13 13-13 30 0 60 95 154 92 92 141 92-26 0 179-56t409-56q87 0 186 10 14-14 14-31 0-62-76-109-49-25-99-50v-30q9-8 29-24 53-23 89-23 92 0 193 21 140 28 140 77 0-42-55 419-9 99-41 307-2 10-20 55-17 38-17 59 0 44 31 113 35 78 77 107 26-25 27-75v-82q30-21 80-61-5-26-35-98-27-66-27-79zM1381-303q0-28-27-62-29-36-60-36-11 0-44 20.5t-48 20.5q-13 0-51.5-36t-51.5-36q-17 0-62 32.5t-45 49.5q0 28 39 68 34 34 43 34 17 0 97-51 9 6 53 49 34 33 50 33 19 0 63-34t44-52zM849-396q0-44-34-63-95-54-249.5-125.5t-173.5-71.5h-54q12 57 13 63 9 32 22 38 142 62 428 194h35q13-13 13-35zM3480 1498q-10 10-25 15-36-16-41-21-18-14-35-49l53 17q29 9 48 38z" glyph-name="uniFB84" horiz-adv-x="3411" unicode="&#xfb84;"/><glyph arabic-form="final" d="M2464 1465q0-52-252-208-236-145-255-145-15 0-28.5 5.5t-16.5 5.5v44q-1 26 119 95 70 38 138 77 83 55 248 162h34q13-14 13-36zM2505 242q0-146-162-346-156-193-262-204-17-2-89-13-63-10-76-10-90 0-196 26-125 30-177 80 22 37 61 37 13 0 85-15.5t84-15.5q192 0 350 94 186 112 282 334v12q-84-92-125-92-69 0-120 58-44 50-44 96 0 71 47 185 57 142 132 142 83 0 154-176 56-138 56-192zM1666-101q0-47-127-80-82-22-174-68-21 0-30 24-2 10-30.5 55t-28.5 59q0 41 44.5 85.5l89.5 89.5-123 910q16 76 55 127 37-17 43-55 30-178 66-509 30-285 30-322 0-86-41-142 2-2 54-30 38-20 38-47 0-28-40-67 15-15 40-15 8 0 110 21 24-25 24-36zM816 574q0-35-34-73-31-34-54-34-22 0-73 32-54 34-54 60 0 32 31.5 67t60.5 35q34 0 81-41 42-36 42-46zM1757-413q0-48-23-58-368-178-423-177h-53q-12 1-12 25 0 19 32 71 145 59 433 168h35q0-3 5.5-8.5t5.5-20.5zM1185 88q0-85-4-106-9-50-52-136-25-50-179-119t-243-69h-100q-73 0-153 40-85 43-126 106-24 37-24 136 0 166 156 321 38 0 38-30 0-12-46-109.5t-46-110.5q0-99 94-149 74-40 182-40 118 0 242 41 168 56 168 153 0 59-13.5 95.5t-65.5 129.5q-44 79-44 92 0 50 34 103h32q42 1 73-75 28-64 56-129 21-59 21-144zM2341 359q-33 67-72 67-18 0-34.5-23.5t-16.5-43.5q0-18 19.5-37t37.5-19q38 0 66 56zM1439-85v28h-38v-28h38z" glyph-name="uniFB85" horiz-adv-x="2553" unicode="&#xfb85;"/><glyph arabic-form="isolated" d="M3007 1635q0-50-43-74-462-249-496-249h-42q-13 14-13 31t15 44 29 33l503 250h34q13-13 13-35zM2874 1123q0-95-84-165-24-21-71-31-68-15-74-18-74-27-93-27-34 0-63 20-35 22-35 57 0 21 27 76 31 64 61 73l16-13q2-4-2-73l19-18q31-3 51 43l36 80h46q15-26 12-74 7-7 21-7 25 0 54 69 23 53 65 64 14-14 14-56zM2055 1579q0-56-257-202-165-88-331-177h-33q-14 13-14 41 0 48 33 67 180 99 534 301h54q14-13 14-30zM1963 1072q0-172-220-204-12-1-49.5-24t-53.5-23q-29 0-61 24-36 27-36 58 0 61 54 132h37q0-8 5-31.5t5-40.5q3 0 5.5-4.5t16.5-4.5q26 0 58 51 18 30 37 61h36l31-62q39-5 66 45 31 59 54 68 15-14 15-45zM2894 252q0-29-52-154-22-14-71-14-83 0-151 36t-79 36q-10 0-69-55-67-60-103-76-54-23-151-23-32 0-104 32-65 28-96 50-9 0-27-24-26-32-40-44-44-34-80-34-13 0-62 10t-61 10q-13 0-79.5-15t-79.5-15q-11 0-89.5 20t-89.5 20q-12 0-39-15-32-19-47-23-86-23-155-23-12 0-55.5-5t-56.5-5-36-2-36-2q-79 0-177 79-32 26-61 84-39 81-49 97-112-98-150-113-25-10-126-10-134 0-189 32 0 4-5.5 9t-5.5 20q0 4 28 49 45 131 379 317 8 36 21 149 7 64 36 109 39-6 46-63 2-47 4-95l32-192q27-126 70-194 32-51 119-83 73-28 136-28h76q73 0 152 40 87 44 122 113h35q18-11 18-41 0-17-7.5-50.5t-7.5-44.5q7-6 47-6 137 0 191 32 29 17 59 68 32 55 55 73 5 0 18-6t18-6q-8-37-29-114 16-17 41-17 70 0 106 63 50 86 116 121 1-3 6-106 20-58 171-58 116 0 206 96 98 118 194 237 33 36 82 36 55 0 99-136 33-103 33-146zM908 1241q0-3-34-72-5 2-65 39-39 22-55 22-299-276-444-276-31 0-47 15 38 55 184 142t195 155q-5 9-57 64-35 38-35 59 0 43 64 128 70 92 125 92 85 0 85-158 0-28-3-65-3-34-3-36 90-96 90-109zM2762 272q-9 26-17 52-13 31-42 36-22-18-55-57 46-45 82-45 17 0 32 14zM744 1396v46q-17 34-48 34-33-34-33-46 0-13 27.5-23.5t53.5-10.5zM673 280q0 64-25 101-3-3-132-56-83-34-120-83 50-25 77-25 29 0 106 23 81 25 94 40z" glyph-name="uniFB86" horiz-adv-x="2878" unicode="&#xfb86;"/><glyph arabic-form="final" d="M2790 1471q0-72-77-142-74-67-138-67-10 0-24 4.5t-27 4.5q-57 0-75-28-21-34-67-42v43q-1 17 33 67t59 69q23 0 62 15l72 96q61 78 95 78 36 0 61.5-31t25.5-67zM2749 202q0-170-69-210l-136 1007q-5 84 57 129l17-13q57-218 87-432 44-332 44-481zM1940 1706q0-50-43-73-468-239-519-239-15 0-26 6t-15 6v43q0 30 208 128 281 132 338 165h44q13-13 13-36zM1838 1323q0-162-189-209-9-2-54-22-35-15-64-15-72 0-72 62 0 16 24 64 26 52 44 58 8-8 18-38 7-23 22-23 33 0 52 41t37 81h36q6-26 21-72 27-5 50 41 33 67 50 83 25-26 25-51zM1787 836q0-28-32.5-62.5t-49.5-34.5q-28 0-65 36t-37 61q0 15 28 54 32 44 59 44 32 0 64.5-32.5t32.5-65.5zM1890 668q0-36-44-68-35-25-49-25-12 0-40.5 15.5t-41.5 15.5q-11 0-45-30.5t-47-30.5q-25 0-69 32.5t-44 49.5q0 19 34.5 65.5t52.5 46.5q12 0 52-25.5t50-25.5q14 0 38.5 31t54.5 31q34 0 66-27t32-55zM968 1399q0-21-20-43.5t-37-22.5q-10 0-40 25.5t-46 25.5q5 0-169-128t-217-127h-63q-4 10-13 25 35 25 359 268v26q-72 36-72 95 0 50 43 122 54 87 121 87 35 0 70.5-39t31.5-79q-6-73-28-120 5-7 46-59 34-42 34-56zM957 1092q0-175-178-233-8-4-50-28-34-20-58-20-92 0-92 87t58 106q7-11 14-23 11-18 8-39 3 0 7.5-4t19.5-4q30 0 56 61 32 74 57 92 26-24 44-83 27 5 43 54 21 59 45 81 26-13 26-47zM2329 247q0-139-37-197-44-68-162-68-12 0-97.5 20t-97.5 20q-13 0-36-20-28-24-33-27-29-14-85-14-12 0-63 15.5t-64 15.5q-11 0-50-17-42-19-57-21-17-3-83-3-87 0-125 22-55 33-122 152-102-54-273-76-14-8-25-23 2-20 2-41 0-179-149-333-147-151-306-151-247 0-450 156 0 10 12.5 24t27.5 14q12 0 60-21 55-23 70-27 88-23 224-23 62 0 229 102 186 115 186 200 0 10-20.5 53.5t-20.5 58.5q0 105 84 152 54 30 188 50 141 21 191 44 8 4 66 4 19-18 18-68-1-55 6-66 79-50 148-50 31 0 91 17 69 20 85 43 18 29 35 60 26 40 55 55l25-13q5-15-1-58-8-53-8-57 0-36 41-36 69 0 95 72 30 86 95 111 3-7 3-116 18-11 80-24t94-13q62 0 62 57 0 61-85 643-4 25-37 95-31 67-31 81 0 28 41 103 36 68 55 86 34-12 34-95 1-43 14-60 6-6 51-28 30-14 30-37 0-13-30.5-90t-30.5-89q0-13 40.5-281.5t40.5-282.5zM823 1549v47q-21 24-47 24-22-23-22-50 3 0 27-10.5t42-10.5z" glyph-name="uniFB87" horiz-adv-x="2763" unicode="&#xfb87;"/><glyph arabic-form="isolated" d="M4041 1460q0-48-64-89-385-250-434-249h-42q-13 13-13 31 0 50 25 67 85 57 232 137 193 105 239 132h46q0-3 5.5-8.5t5.5-20.5zM4010 1025q0-26-40.5-62t-66.5-36-63 36q-35 32-35 46 0 40 34 67 30 26 68 26 36 0 72-34 31-29 31-43zM3386 1398q0-42-27-60-401-267-440-267h-53q-13 14-13 31 0 33 25 66 218 117 449 271h47q0-5 6-15.5t6-25.5zM2689 1127q0-19-23-66h-42q-13 0-36.5 25.5t-36.5 25.5q9 0-147-117.5t-213-117.5h-31l-24 25q27 45 146 125 135 92 172 132-8 21-43 56-29 28-29 65 0 60 48 127 52 73 116 73 93 0 93-129 0-29-5-71.5t-5-49.5v-8q7-10 42-51 18-22 18-44zM2782 513q0-41-62-61-43-10-85-19-62-24-185-78h-35q-6 10 1 32 7 30 7 39 0 11-20.5 43t-20.5 49q0 69 84 131 72 53 121 53 26 0 49-21t23-45q0-22-23-44.5t-44-22.5q13 0-70 21-17-17-17-26 0-46 82-46 8 0 77.5 9.5t104.5 9.5q13 0 13-24zM4246 344q0-63-38-150-33-76-56-92-32-23-167-49-306-57-399-57h-221q-135 0-208 23-86 27-186 110-112-113-358-151-77-2-224-27-27-8-45-74-24-84-99-161-15-16-161-146-26-23-103.5-44t-135.5-21q-72 0-343 74v36q23 23 51 23 13 0 82-10.5t82-10.5q155 0 285 75 126 73 268 238-18 36-93 42-101 7-123 15-61 24-61 106 0 60 50 158 58 114 120 114 64 0 121-107 60-115 65-117 53-22 126-22 91 0 351 64 53 12 98 64 40 45 73 45 13 0 129-71.5t250-71.5q304 0 710 75 29 5 68 44 0 41-37 97-41-35-82-69-30-24-71-24-65 0-111 65-37 53-37 99 0 65 50 165 61 122 139 122 96 0 177-177 64-141 64-202zM3263-347q0-25-37-61t-61-36q-9 0-111 51-79-82-103-82-34 0-66 29.5t-32 57.5q0 32 32 65t55 33q25 0 102-52 82 82 109 82 24 0 68-33t44-54zM1399 1148q0-21-23-66-2 0-13-5.5t-25-5.5q-13 0-29 11-23 17-27 20-34-39-120-120-162-128-250-126-13 11-22 11-1 2-1 5 0 48 144 153 42 26 83 52 58 41 58 71-82 76-82 123 0 42 47 114 54 85 112 85 42 0 62-33t20-79q0-19-4-51t-4-45q0-18 5-31 4-9 38-41 31-30 31-42zM1010 1143q0-24-16.5-48t-34.5-24q-13 0-18 5t-18 5q-8 0-79-67-81-78-122-104-49-17-148-54-5 5-12.5 17.5t-11.5 17.5q95 96 276 237-27 32-54 63.5t-27 74.5q0 51 33 109 43 75 110 75 81 0 88-77-5-56-4-163 1-9 19.5-31.5t18.5-35.5zM1604 441q0-90-41-169-48-92-123-92-11 0-67.5 20.5t-70.5 20.5q-11 0-46-26-39-28-55-33-20-6-100-15-16-73-30-146-22-100-55-156-48-80-222-139-144-48-244-48-125 0-213 88-84 85-84 199 0 109 43 184 32 56 115 133 16-15 16-36 0-11-36-99.5t-36-100.5q0-193 246-193 116 0 231 41 157 56 157 158 0 79-33 161-9 22-53 99-36 64-36 77 0 32 45 97 46-14 91-86 43-67 74-67h41q85 0 127 52 48 81 96 163h46q6-16 0-59-8-54-8-59 0-56 47-56h68q12 24 12 55 0 13-3 39.5t-3 40.5q0 61 47 111 18-14 39-75 18-56 18-84zM4051 492q-44 67-79 67-43-45-43-58v-32q46-23 60-23 41 0 62 46zM2546 1343q-13 14-38 14-23-23-23-36 0-15 15.5-28.5t31.5-26.5zM1244 1335q-14 0-31.5-14t-17.5-22q33-33 48-33 1 2 1 69zM2176 140q0 6-5 25t-5 23h-49q3-20 12-48h47zM881 1277v38h-18v-38h18z" glyph-name="uniFB88" horiz-adv-x="4488" unicode="&#xfb88;"/><glyph arabic-form="final" d="M3900 1561q0-55-33-73-432-240-464-238h-54q0 3-6 11.5t-6 23.5q0 42 177 130 238 118 245 123 89 59 106 59 35 0 35-36zM3849 993q0-28-46-66-42-37-61-37-13 0-46.5 20.5t-46.5 20.5q-12 0-45.5-30.5t-46.5-30.5q-67 0-118 77 68 107 98 107 11 0 47-20.5t50-20.5q13 0 54 31t54 31q27 0 64-26 43-27 43-56zM2989 1275q0-20-23-67h-36q-34 39-58 51-92-81-368-225l-98 14q41 42 179 121 142 79 199 138-6 27-56 59-46 29-46 73 0 52 62.5 125.5t111.5 73.5q79 0 98-76 5-17 5-37 0-23-9-73t-9-75q0-19 24-55t24-47zM2856 670q0-26-34-61.5t-63-35.5q-22 0-65 36t-43 51q0 24 31 63 33 45 66 45 22 0 63-33 45-35 45-65zM3931 312q0-39-23-118-20-72-34-90-35-49-162-81-175-43-375-43h-77q-313 0-421 163-54-49-161-120-49-6-131-36-26-18-55-75-39-77-50-93-59-86-84-116-54-65-119-109-96-65-243-65-196 0-378 54 0 30 22 45 18 4 69 4 13 0 74-5.5t75-5.5q145 0 302 94 169 100 236 248l-162 24q-95 20-95 110 0 48 47 154 56 127 111 127 64 0 125-100 36-68 73-135 101-14 210 33 31 13 98 75 61 56 74 56 9 0 82-58 78-62 109-73 96-33 264-33 225 0 285 13 57 7 112 15 73 13 110 50 8 57-37 117-109-82-132-82-57 0-75 14-52 40-81 101-3 7-3 48 0 78 67 181 69 106 128 106 88 0 164-174 61-143 61-220zM1013 1065q0-39-35-72-63 31-71 31-96-116-204-192-37-11-104-44l-57 15q152 133 276 257-82 102-82 122 0 53 57.5 121.5t106.5 68.5q74 0 79-66-5-58 5-174 3-9 17-33 12-20 12-34zM1883 348q0-69-75-169-77-105-163-145-111-52-276-79-232-36-290-36-109 0-272 49-158 52-314 105-1 6-12 24 25 26 56 26 12 0 118-20.5t119-20.5h243q26 0 106 59 74 55 81 70 7 49 24 142l-103 768q26 163 76 200 28 0 43-25-2-127 96-152v-55q0-9-35.5-72t-35.5-81q0-10 12-59 12-53 15-73 24-223 24-389 0-9-10-33t-10-38v-51q6-6 20-6 40 0 165 97t193 97q78 0 139-37 66-40 66-96zM716 1090q0-33-36-86-18 30-51 30-9 0-78-66-78-73-114-95-6-3-94-33l-46 13q10 23 125 112 108 84 108 110v11q-14 18-54 55-16 14-16 47 0 55 53.5 119.5t99.5 64.5q25 0 58-23 7-22 7-187 0-7 19-32.5t19-39.5zM2865 1434v47q-33 34-47 34l-23-13v-36q72-32 70-32zM3747 477q-65 64-90 64-2-4-21-26-12-15-12-30v-32q46-23 61-23 40 0 62 47zM2332 144q3 25-22 44-22 17-36 15l-11-47zM898 1198q0 6-5 25.5t-5 24.5h-38v-38zM1749 283q-87 45-137 45-47 0-175-93-110-79-157-130 68 11 200 34 92 21 169 58 96 44 100 86z" glyph-name="uniFB89" horiz-adv-x="3941" unicode="&#xfb89;"/><glyph arabic-form="final" d="M3240 1399q0-34-26-52-109-76-286-178t-196-102h-53q0 5-6 10.5t-6 20.5q0 47 33 67 165 88 494 270h33q13-14 13-36zM2513 1639q-13-79-103-136-67-35-134-71-112-73-288-170h-47v44q-2 41 53 74 427 260 454 259h65zM3199 227q0-158-87-308-99-168-273-262-82-44-274-44-19 0-222 44-28 6-75 54l13 17q39 5 123-4 95-9 94-9 365 0 599 405 4 5-5 15-67-51-112-51-62 0-112 57-47 53-47 106 0 50 43 140 40 86 82 136 17 4 32 4 95 0 163-113 58-97 58-187zM916 1381q0-7-14-46-185-176-369-176-62 0-97 12v37q87 29 266 109-27 16-77 16-35 0-154-71-15 14-15 30 0 47 75 108 71 56 109 56 35 0 143-27 112-29 133-48zM2401 304q0-54-25-130-29-86-63.5-108t-208.5-54q-169-30-246-30h-157q-276 0-317 393-2 16-23 57-63-80-125-131 0-142-3-163-13-101-76-183-30-39-188-108-163-70-237-70-153 0-263 65-136 78-136 227 0 65 50 178 53 119 107 154h37v-58q0-10-30-59-39-63-49-85-3-4-3-43 0-117 111-169 75-36 182-36 106 0 236 45 168 58 168 149 0 57-34 137-11 24-49 89-30 52-30 66 0 32 44 97h35q2-2 51-46 17-15 44-15 68 0 106 57 71 107 92 127 26 0 33-13 28-69 52-211 22-136 44-184 38-81 119-91 104-13 200-13 161 0 239 13l114 18q74 15 108 37-26 229-87 715-3 17-26 65-21 44-21 64 0 27 65 171 10 7 31 23 27-9 38-70 11-73 21-86 4-5 44-30 16-41 16-39 0-13-26-90t-26-90zM845 621q0-28-37-64-33-33-50-33-24 0-107 52-3 24 24 80 32 62 63 62 25 0 66-36t41-61zM1683-334q-51-14-215-69-135-45-149-44h-43q4 37 15 49 14 17 14 18 7 25-60 66-2 6-2 14 0 56 87 116 78 53 124 53 33 0 65-26.5t32-50.5q0-36-51-62 2-1 4-10 1-5 17-5 153 0 162-1v-48zM1848-467q-39-38-75-50-414-135-413-135h-31q-13 13-13 30 0 45 25 57 96 44 268 103 163 55 184 55h42l13-13v-47zM3045 281v35q-23 27-65 65-57-29-57-72 0-51 72-51 30 0 50 23zM1447-272q0 5-10 23.5t-10 24.5h-37q-1-2-1-48h58z" glyph-name="uniFB8B" horiz-adv-x="3582" unicode="&#xfb8b;"/><glyph arabic-form="isolated" d="M3646 1745q0-66-310-219-73-39-218-109-14 14-14 41 0 58 186 155 97 46 195 92 86 68 137 80 24-24 24-40zM3011 1688q0-40-37-63-117-73-280-164-173-95-191-95h-54v59q85 77 258 163 240 118 269 136l22-12q13-8 13-24zM3554 1218q-4-31-61-55-85-35-103-49 5-50 56-446 36-277 36-434 0-160-56-189l-18 13q-10 239-31 401-32 169-73 513 0 9 7 34t7 38v39q-7 10-89-3 2 22-6 64-11 17-23 34-14 24-14 39 0 43 62.5 106t116.5 63q76 0 76-66 0-67-71-67-7 0-33 5-17 4-29-1 10-24 78-24 6 0 54.5 5t90.5 5zM2858 879q0-20-33-62-33-45-54-45-35 0-73 31-34 28-34 51 0 15 30 57 32 45 51 45 26 0 69.5-28.5t43.5-48.5zM2314 1570q0-56-34-100-21-26-122-87-111-68-156-68h-62l-24 24q1 30 79 68 108 52 126 66-50 36-98 36-24 0-77-36.5t-91-32.5q51 97 94.5 134t109.5 37q77 0 255-41zM3155 229q0-55-35-160-15-44-186-83-144-33-224-33-73 0-128 43-5 26 9 76 14 53 35 75 92-31 109-31 66 0 175 20 138 25 153 57-30 93-101 160-2 3-85 48-60 33-60 68 0 30 16 65 18 44 45 44 30 0 90-36 78-46 134-144 53-93 53-169zM2295 1017q0-31-44-73-40-39-58-39-11 0-40 25.5t-42 25.5-51.5-35.5-51.5-35.5q-18 0-55 30t-37 52q0 29 44 68 39 34 53 34t39-15.5 38-15.5 54 30.5 54 30.5q29 0 63-30t34-52zM1681 1540q0-64-239-167-67-34-195-109h-45q-13 1-13 25 0 61 222 177 185 95 257 113 0-3 6.5-13.5t6.5-25.5zM1691 668q3-32-27-76-30-46-60-46-40 0-118 77 59 108 97 108 41 0 108-63zM902 1285q-4 0-12.5-5.5t-23.5-5.5q-11 0-50.5 35.5t-51.5 35.5q3 0-155.5-112.5t-204.5-112.5h-72l-13 13v27q94 59 189 118 148 93 147 119v10q-29 31-58 60-22 25-22 58 0 63 74 138 71 71 120 71 80 0 80-119 0-39-10-103-9-53-6-57 6-12 40-48 29-32 29-45v-77zM1261 541q0-72-46-127-22 14-26 52-1 27-4 53-28 83-60 143-8 14-53 66-37 44-37 59 0 20 23 67h32q21 0 84-63 6-23 27-62 60-81 60-188zM2418 321q0-101-46-180-56-98-164-110-19-2-86-15-61-12-73-12-81 0-129 13-16 4-51 38-32 31-45 31-11 0-48-25-40-28-58-34-37-16-113-40-152-34-283-34-11 0-70.5-5t-72.5-5q-296 0-385 114-10 13-62 142-61-47-124-94-59-39-115-39-113 0-245 63 18 86 114 169 87 66 174 131 59 26 142 90 9 13 7 44-5 57-5 50 0 119 65 179 19-76 51-349 21-177 82-245 83-92 296-92h159q47 0 203 26 172 28 198 47 41 33 113 151h48q0-20-10.5-67.5t-10.5-68.5q57-37 119-37 133 0 323 58 0 14-4.5 52t-4.5 56q-4 0-8.5 4.5t-18.5 4.5l-48-36t-80-36q-65 0-108 57-36 48-36 92 0 53 54 155 47 91 71 111 18 15 60 15 76 0 157-176 68-147 68-193zM2212 472q-54 54-68 54-38-45-10-91h67q0 6 5.5 19t5.5 18zM768 1521q13 40-11 90-21 2-69-43v-36q51-25 80-11zM717 283q0 50-23 120-71-33-141-65-73-39-121-95 137-34 122-34 24 0 79 23 58 25 84 51z" glyph-name="uniFB8C" horiz-adv-x="3478" unicode="&#xfb8c;"/><glyph arabic-form="final" d="M3072 1472q0-47-53-79-477-279-485-279h-52q-24 24-24 35 0 49 147 129 87 42 173 84 89 51 270 151 24-25 24-41zM2387 1416q0-45-65-107-2 0-32 30-17-35-10-58-50-37-123.5-76.5t-93.5-39.5h-62q-24 24-24 36 0 20 101 78 57 33 115 65-34 26-109 26-14 0-62-23-69-33-82-39-14 15-14 31 0 59 84 110 70 44 111 44 11 0 102-18 102-19 152-25 0-3 6-11.5t6-22.5zM1813 1497q0-51-32-75-96-71-275-172-169-95-191-95h-51q-13 13-13 30 0 50 200 161 290 160 315 177h35q12-2 12-26zM3063 295q0-12-9-29.5t-9-27.5q-9-150-157-296-126-125-239-156-10-3-103-3-136 0-269 27-137 28-186 68v37q63-1 146-20.5t129-19.5q100 0 270 64 345 217 345 320 0 13-47 69-59 70-73 93-3 12-3 43 6 87 46 87 64 0 118-126 41-96 41-130zM994 1718q0-69-456-307-5 5-17.5 11.5t-17.5 11.5q-7 53 25 74 44 30 431 251 11-8 21-15 14-11 14-26zM2622 487q-36-92-71-115-23-16-93-16-12 0-163.5 15.5t-163.5 15.5q-60 0-144-21.5t-123-46.5q4-17 24-67 18-43 18-55 0-76-41-135-45-64-113-64-61 0-117 31-7 3-92 61-96-143-426-143-128 0-243 64-44 25-71 94-31 79-50 97-52-43-72-57-39-27-79-42-36-13-114-13-54 0-125 16-76 18-96 38-6 65 105 171 85 82 164 129 41 20 81 39 57 29 77 55 10 13 21 103.5t40 124.5q42-110 71-325 25-177 71-239 72-91 261-91 157 0 249 32 71 26 127 112 60 92 88 107 92 51 289 98 3 4 11 6.5t14 6.5q-59 57-118 57-4 0-247-61-13 1-13 25 0 60 102 147 100 84 158 84-1 0 299-131 117-51 245-68 17-2 62-15 41-11 55-11 18 0 40 7.5t34 7.5q27 0 69-28zM738 1384q0-40-197-136-178-86-280-113-14 14-14 41 0 50 34 67 144 63 432 199 14-12 25-12v-46zM841 1012q0-33-44-70-40-33-58-33-11 0-40 15.5t-42 15.5q-14 0-62.5-36t-60.5-36q-25 0-69 33t-44 49q0 30 45 68 41 35 57 35 12 0 44-15.5t44-15.5 55.5 40.5 56.5 40.5q28 0 75-40 43-39 43-51zM1792 162v37q-45 55-97 55-17-3-55-48 67-45 98-44h54zM739 356q0 23-25 72-95-53-272-162 0-12 24-12 11 0 54-10.5t55-10.5q57 0 107 32 57 37 57 91z" glyph-name="uniFB8D" horiz-adv-x="3058" unicode="&#xfb8d;"/><glyph arabic-form="isolated" d="M2116 1215q0-63-35-120-40-63-99-68-25 2-74-5-12-5-52-27-32-20-46-20-32 0-59 43-23 35-23 54 0 10 39.5 73t48.5 65q7-7 20-23 0-1-10-54 3-8 3-17-8-8 16-8 30 0 53 53 31 71 39 80 14-10 35-49 18-33 32-33 20 0 43 47 26 55 44 65 25-13 25-56zM1420 1681q0-60-95-106-80-38-163-91-188-120-343-171-13 1-13 25 0 56 25 72 16 10 542 301h34q13-13 13-30zM1359 1271q0-36-25-95-31-70-71-86-39-9-112-37-28-18-57-36-36-22-58-22-87 0-87 103 0 61 58 101 14-21 22-72 3 0 10.5-4.5t22.5-4.5q13 0 22.5 8.5t59.5 110.5q0-1 25 25 11-8 34-38 18-24 33-24 13 0 21 8 19 40 75 114 27-13 27-51zM1389 627q0-31-37-68-33-35-49-35-38 0-85 37-43 35-43 55 0 32 29 67t53 35q29 0 77-27 55-31 55-64zM2106 263q0-66-41-117.5t-92-51.5q-59 0-109 13-19 5-72 33-46 25-59 25-10 0-71.5-66t-133.5-66q-73 0-204 102-38-62-182-110-129-43-230-43h-126q-110 0-196 34-119 50-139 154-7 32-7 164 0 88-31 605-2 28-20 120-17 89-17 100 0 47 55 102 15-4 38-26.5t26-39.5q34-250 34-429v-412q0-143 144-188 66-21 204-21 40 0 78.5-2t47.5-2q46 0 226 58 35 11 70 63 50 74 64 88 18-10 18-32 0-11-6-39.5t-6-45.5q55-47 179-47 78 0 162 93 11 12 132 172 69 94 110 94 57 0 111-136 43-109 43-146zM2239-54q0-53-154-128-89-37-176-75-68-34-198-89-14 12-23 12v57q5 11 22 29 131 54 378 171 33 22 94 58h45q0-3 6-12t6-23zM1963 282q-13 69-68 88-25-24-55-68 56-34 87-34 22 0 36 14z" glyph-name="uniFB8E" horiz-adv-x="2098" unicode="&#xfb8e;"/><glyph arabic-form="final" d="M818 1411q0-49-34-62-66-10-132-22-110-29-110-101 0-11 25.5-152.5t25.5-154.5q0-30-23-92-22-57-30-61-90 360-90 435 0 11 21 58 28 63 37 87-4 31-4 91 8 54 80 142 13 16 50 16 42 0 113-72t71-112zM1863-160q0-53-203-150-136-61-272-121h-45l-13 12v48q81 54 249 129 164 74 226 116h46q0-3 6-11.5t6-22.5zM736 530q0-31-31.5-66.5t-54.5-35.5q-33 0-70.5 33t-37.5 59q0 29 30 69 32 43 62 43t68-43q34-39 34-59zM1801 300q0-61-31-115-36-65-92-65-83 0-181 45-30 24-89 58-84-92-170-92-13 0-37 5-27 6-37 6-12-76-43-222-27-110-213-187-153-63-274-63-358 0-358 303 0 54 52 148 48 89 95 131h36q0-3 5.5-8.5t5.5-20.5q0-7-79-150-3-9-3-39 0-108 107-165 82-45 185-45 79 0 221 59 163 68 163 135 0 91-65 218-14 16-27 33-21 23-21 51 0 47 34 97h45q25-25 73-106 28-47 73-47h36q160 0 254 161 24 39 94 101 75 65 108 65 61 0 103-136 30-101 30-155zM1687 296v36l-30 60q-19 36-35 36-34 0-87-77 16-18 53-41 41-26 65-26 14 0 22.5 6t11.5 6z" glyph-name="uniFB8F" horiz-adv-x="1812" unicode="&#xfb8f;"/><glyph arabic-form="initial" d="M2082 1452q0-42-17-54-96-77-284-186-175-102-197-101h-44v43q0 43 158 132 96 51 191 102 56 39 178 100 15-13 15-36zM1518 1345q0-46-145-148-139-98-178-98h-72l-14 13v37q67 39 195 120-19 19-87 35-26 0-112-81h-46v34q-1 17 54 74 52 56 91 81 6 5 48 5 15 0 243-35 23-15 23-37zM1866-287q0-38-29.5-68t-56.5-30q-31 0-63 24-35 26-35 58 0 23 26 60 30 43 61 43t64-28 33-59zM2020 306q0-98-76-236-17-30-105-50-70-16-126-16-78 0-171 34-13 5-45 32-28 26-40 26-13 0-51-30-52-41-64-49-78-48-145-61-64-13-103-13-93 0-188 44-131 59-159 174-9 15-22 27-80-103-162-140-58-27-170-52-97-23-124-23-53 0-120 24-84 29-84 73 0 31 65 118 62-33 87-39 10-2 68-2 100 0 229 39 185 56 185 156 0 11-30.5 168t-30.5 170q0-12 32 132h37q28-64 57-283 27-198 80-283 81-130 265-130 164 0 245 78-9 26-54 53-41 23-58 23-12 0-27.5-4.5t-31.5-4.5q-13 1-13 25 0 77 116 138 96 51 166 51 126 0 229-93 4-11 4-24 0-70-85-156 14-29 68-35-2 1 86 1 127 0 174 46-3 30-24 89-9 16-67 107-42 65-42 80 0 32 19 73 21 45 43 45 58 0 116-146 47-119 47-156zM812-170q0-49-33-68-110-62-290-147-176-81-195-81h-32l-23 25q20 36 23 65 295 130 503 247h34q13-13 13-41z" glyph-name="uniFB90" horiz-adv-x="2048" unicode="&#xfb90;"/><glyph arabic-form="medial" d="M2666 1415q1-26-231-165-238-142-338-166-13 1-13 24 0 54 85 107l142 74q109 61 330 194 15-13 25-13v-55zM2502 764q6-54-26-90-29-31-65-31-44 0-112 42-1 33 25 84 31 58 67 58 11 0 111-63zM1787 1590q0-59-106-122-76-41-153-81-87-55-257-150h-44q-13 13-13 30 0 58 159 144 95 47 191 94 57 40 165 110h45q13-1 13-25zM1694 1165q0-65-55-152-9-13-108-58-103-46-133-46t-56 31-26 61q0 47 65 133 32-7 45-30 9-21 19-41 17 11 35 43 24 45 34 59 22-12 35-34 19-29 28-37 14 14 42 57t50 66q25-27 25-52zM1326 1579q0-84-153-154-123-55-195-55-11 0-55 5t-58 5q-53 0-75-29-43-55-105-94-15 15-15 41 0 42 74.5 128.5t105.5 86.5q10 0 62.5-10t65.5-10q181 0 290 112h46q12-2 12-26zM2984 416q-7-229-252-355-184-93-387-93-11 0-76 5t-78 5q-58 0-80-63-30-81-76-110 0 3-6.5 14t-6.5 26q0 11 25.5 76.5t25.5 76.5q0 22-71 84-67 59-82 59 1 0-198-44-42-10-56-35-4-33-17-91-24-47-61-143-17-74-149.5-177.5t-210.5-103.5h-107q-10 0-283 75-44 12-75 75 12 25 41 25 12 0 94-26t95-26h103q82 0 172 44 61 29 164 116 130 111 130 173 0 8-31 44.5t-31 52.5q0 68 43 98 56 39 193 65 176 35 249 61h36q0-41 3-124 72-39 121-39 48 0 163 88 185 142 218 163 137 88 238 88 75 0 117-19 20-9 103-65zM1162 193q0-107-43-174-9-1-26 9-19 11-20 25-105 841-105 943 0 65 56 159 12-7 31-24 24-85 36-261 14-223 23-283 48-339 48-394zM803 872q0-27-96-80-50-24-100-50-109-64-281-140-1 3-20 16-14 10-14 25 0 40 63 87 30 7 83 27 296 183 325 183 15 0 25.5-6t14.5-6v-56zM875 133q-57-47-184-83-121-34-218-123-5 0-18 5.5t-18 5.5q0 8 4 50 3 36 1 54-7 8-54 46-25 19-25 53 0 56 96 166.5t150 110.5q20 0 123-75-9-38-18-77-18-64-53-64-13 0-56.5 26t-56.5 26q-15 0-28-5t-17-5l-7-7v-29q71-56 149-56 13 0 89.5 20.5t89.5 20.5q24 0 41-14 0-5 5-23t5-23zM2841 301q-89 45-138 45-59 0-184-74.5t-159-127.5l118-13q177 50 203 60 130 48 160 110z" glyph-name="uniFB91" horiz-adv-x="2992" unicode="&#xfb91;"/><glyph arabic-form="isolated" d="M3703 1372q0-76-249-198-58-29-235-139h-46q-13 13-13 45 0 47 44 73 130 77 259 154 159 95 175 95h53q0-4 6-10t6-20zM2925 1479q0-54-250-194l-358-200h-45q-23 24-23 36 0 52 146 134l174 88 195 117q91 54 137 65 24-24 24-46zM2823 1034q0-60-5-75-5-17-41-66-13-18-134-62-118-43-143-43-66 0-66 87 0 92 61 149 25-31 20-85 17-17 35-17 25 11 42 82 15 62 52 61 29-12 29-31 0-5-1.5-15t-1.5-15q0-23 26-41 33 3 48.5 49t29.5 93h37q12-25 12-71zM1655 1372q0-52-124-152-117-94-148-94h-72q-14 14-14 31 0 28 70 75 83 57 84 57-25 22-62 22-14 0-105-92h-36q-13 13-13 30 0 49 25 80 23 38 81 90 31 12 76 15 33 3 84 1 71-1 77-1 22 0 51-28 26-25 26-34zM3642 317q0-115-64-224-74-5-157 14-104 25-145 77-18-1-69-67-60-76-195-76-158 0-196 72-26-35-98-100-6-3-75-3-36 0-83.5 15.5t-54.5 15.5q-12 0-102-25.5t-103-25.5q-10 0-82.5 25.5t-86.5 25.5q-12 0-26-12-15-13-24-16-185-53-257-53h-87q-114 0-170 13-40 9-128 50-79 38-91 38-13 0-43-30-43-41-51-48-59-44-177-44-128 0-206 58-64 47-154 187-144-114-197-114-7 0-31 .5t-42 .5q-134 0-194 45 20 108 174 223l242 160q3 93 37 228l27-13q48-158 85-412 11-74 111-140 91-60 163-60 20 0 88 20 62 19 68 23 25 17 78 69 33 32 58 32 9 0 72-38 68-42 104-52 76-23 228-23 148 0 205 14 127 30 187 139h47q2-13 2-25 0-27-10.5-52t-10.5-29v-40q13-7 57-7 125 0 222 53 2 2 58 75 48 64 92 65 0-3 5.5-11.5t5.5-22.5q0-9-50-112 17-16 61-16 87 0 111 46 53 96 97 137h36q0-14-4.5-56t-4.5-60q25-26 139-26 77 0 162 33 231 315 324 315 51 0 92-115 31-87 31-121zM1481 727q0-30-43-63-39-29-59-29-13 0-54 15t-54 15q-12 0-50.5-25.5t-51.5-25.5q-43 0-117 53-1 4-1 10 0 37 28 77 30 45 69 45t93-41q6 4 59 52 33 30 48 30 32 0 84-48 49-46 49-65zM888 1203q0-44-46-67-11 4-45 24-28 17-43 17-9 0-77-63-75-70-109-88-59-27-198-74-14 11-23 11-10 29 20 55 75 49 151 98 124 81 124 113 0 11-25 31-28 22-34 33-13 28-13 59 0 66 44 138 53 87 131 87t78-109q0-34-8-86t-8-58q0-4 1-6 7-13 48-61 32-36 32-54zM3518 277q-10 74-55 101-47-22-67-68l32-20q20-13 35-13h55zM733 1363q17 53-2 89-20 4-68-42v-35q45-27 70-12zM703 288q0 11-6 40t-6 39q-62-12-146-57-80-44-118-81 23 0 66-7t52-7q59 0 158 73z" glyph-name="uniFB92" horiz-adv-x="3642" unicode="&#xfb92;"/></font>
</defs>
</svg>
