<svg xmlns="http://www.w3.org/2000/svg"><defs><font horiz-adv-x="992"><font-face ascent="1638" bbox="-35 -1166.31 6053 2263" cap-height="1266" descent="-410" panose-1="2 0 4 0 0 0 0 0 0 0" underline-position="-250" underline-thickness="100" unicode-range="U+000D-FEFC" units-per-em="2048" x-height="1357"/><missing-glyph d="M142 226v1362h700v-1362h-700zM284 368h416v1079h-416v-1079z"/><glyph arabic-form="final" d="M4204 1346q0-11-16-42-19-10-209-128-139-86-223-111-13 2-13 25 0 78 413 292h35q13-14 13-36zM3589 1334q0-22-197-140-151-89-352-181-14 15-14 31 0 88 538 349 14-13 25-13v-46zM4214 112q0-170-133-341-139-180-298-180-231 0-388 84 0-1 14 34 71 15 57 15 13 0 77-10.5t77-10.5q273 0 468 295 16 24 16 54-47-32-100-32-76 0-123 76-36 58-36 109 0 56 40 137 48 98 108 98 103 0 170-135 51-105 51-193zM2637 1398q0-40-263-175-253-129-266-127h-54v57q59 61 129 93 60 23 119 46 103 52 288 140h36q0-3 5.5-11.5t5.5-22.5zM2606 1029q0-38-46-116-9-18-124-67-111-47-132-47-25 0-54 21-33 25-33 55 0 52 87 138 29-26 25-74 5-6 13-9t13-8q15 20 40.5 60.5t40.5 61.5q28-14 31-31 7-30 14-41 28-1 42 40 16 45 37 51h35q0-3 5.5-11t5.5-23zM3569 174q0-146-139-345-154-218-312-218-34 0-190 24-163 26-197 39-1 7-12 24 6 13 23 31 9 5 49 5 13 0 64-5t63-5q162 0 281 72 129 78 257 270l-17 16q-82-31-106-31-47 0-98 64-45 58-45 95 0 96 39 174 49 97 135 97 84 0 152-135 53-108 53-172zM1704 1248q3-6 3-13 0-59-159-144-146-78-201-78-15 0-26 6t-14 6v38l193 99q-37 26-82 26-33 0-95-40h-36l-5 21q62 131 182 131 18 0 124-22 110-23 116-30zM2934 358q0-48-25-120-9-5-25-21-79-103-157-142-67-34-183-72-106-34-129-33h-272q-37-50-108-112-13 55 8 132-75 81-128 81-12 0-47-25-47-35-63-43-81-43-177-43-95 0-166 43-17 11-44 49-32 47-45 60-45-46-141-119-6-3-59-3-66 0-116 35.5t-63 35.5q12 0-114.5-61t-198.5-61q-148 0-221 104-33 46-39 136-8 129-34 307-2 10 1 29 3 25 3 32 0 47-9 140-10 109-11 147-2 28-20 98.5t-18 80.5q0 29 26 71t46 42q60 0 75-332 7-185 40-553 9-58 87-107 37-22 115-22 100 0 196.5 56.5t110.5 56.5q10 0 93-36t97-36q32 0 80 35.5t48 62.5q0 13-20.5 92t-20.5 92q0 55 34 106h36q17-27 38-74 32-182 64-240 53-94 181-94 99 0 180.5 56.5t101.5 56.5q10 0 97.5-41t107.5-41q46 0 265.5 164t281.5 164q66 0 143-34 98-40 98-100zM1110 1283q-53-60-210-134-18-9-266-115-14 1-14 25 0 53 54 83 139 64 412 199 15-11 24-11v-47zM999 599q0-26-34-62t-63-36q-28 0-72 30-46 29-46 52 0 19 34 59 36 44 63 44 30 0 74-31.5t44-55.5zM1716-256q0-39-38-67-34-25-75-25-16 0-42 10.5t-40 10.5q-12 0-56-26t-56-26q-36 0-71 30-32 27-32 47 0 19 38.5 63.5t58.5 44.5q11 0 47.5-15.5t49.5-15.5 49 31 49 31q33 0 77-40 41-37 41-53zM4040 219q0 14-34 46h-37q5-25 27-49 18-20 30-21 10 9 14 24zM3384 247q0 12-5.5 33t-5.5 26h-47q-33-32-33-47 30-30 91-12zM2780 284q-134 33-138 33-108 0-291-172h105q62-2 190 57 126 56 134 82z" glyph-name="uniFB51" horiz-adv-x="4234" unicode="&#xfb51;"/><glyph arabic-form="isolated" d="M4070 1489q0-80-100-159-89-71-146-71-12 0-22.5 5.5t-23.5 5.5q-12 0-49-22-42-25-55-29-14 1-14 25 0 45 84 122 17 7 51 27 45 49 90 97 62 66 108 66 29 0 54-26 23-23 23-41zM3610 1556q0-50-118-116-102-58-133-58-21 0-67 23v36q31 16 61 32 35 20 53 45-4 0-19.5 3.5t-27.5 3.5q-21 0-82-41-15 12-25 12v37q77 77 100 91t68 14q55 0 115-20 75-25 75-62zM3906 230q0-42-11-96-14-66-35-73-37 15-43 56-126 820-126 917 0 12 18 48 22 43 25 53h37q6-6 19-23 28-179 73-526 43-330 43-356zM3456 1004q0-11-38-62-41-56-52-89-9-26-10-122-2-122-6-163-6-53-33-174-25-113-25-123 0-30 2-39 26-51 53-102 17-39 17-84 0-64-2-68-7-25-52-46-95-45-366-45-103 0-103 103 0 11 10.5 40t10.5 39q13 6 42 0 38-8 45-8 31 0 108 68 81 71 81 111 0 57-213 306-208 242-237 242-9 0-31-10t-35-10q-88 0-134 74-35 58-35 135 0 39 22 108h33q15 0 109-60 99-63 147-109 39-35 277-307 52-75 156-221 32 2 52 161 16 130 16 283 0 93-7 117-36 45-36 75 0 16 8 24 0 26 43.5 104t73.5 107q31-13 34-46-1 4-5-62-1-27 21-57 22-26 44-53 15-39 15-37zM2125 983q0-34-33-65-31-28-59-28-32 0-67.5 29.5t-35.5 52.5q0 33 44 70 39 33 59 33 25 0 58.5-35t33.5-57zM3434-335q-37-24-165-77-112-46-175-99h-36q-6 18 1 58 7 51 7 54 0 11-20.5 29.5t-20.5 31.5q0 61 73 125 69 59 122 59 72 0 72-61 0-19-20.5-45t-41.5-26q-13 0-28.5 10t-25.5 10l-17-15q25-26 77-26 12 0 73.5 15.5t74.5 15.5q15 0 31-11t19-11v-37zM3547-480q-275-135-456-195-14 14-14 30 0 17 19.5 43.5t34.5 34.5q325 158 371 158 9 0 45-33v-38zM1797 1362q0-16-11-31-7-8-15-16-515-291-533-290h-44v57q16 24 53 60 271 150 492 260h47q0-4 5.5-15t5.5-25zM1224 558q0-56-34-116h-36q-17 131-46 185-8 14-58 81-41 55-41 70 0 19 17.5 45.5t33.5 26.5q35 0 94-85 21-21 45-63 25-167 25-144zM763 1305q0-3-15-44-141-79-439-247h-34l-24 25q8 33 43 82 153 96 444 220 25-25 25-36zM2422 271q0-51-21-123-22-78-47-94-53-34-203-34-24 0-145 72-21-19-57-48-34-24-80-24-13 0-59 15.5t-59 15.5-72-25.5-72-25.5q-18 0-77 20.5t-71 20.5-148-25.5-148-25.5-28 5-29 5q-40 0-54-37-6-64-37-185-34-75-202-140-148-58-239-58-104 0-204 48-104 50-156 129-14 21-14 116 0 64 39 163 45 115 108 168 37 0 37-35 0-13-41-107.5t-41-106.5q0-102 124-159 89-41 168-41 107 0 212 34 152 50 152 145 0 8-10 44-8 31-4 47-10 18-73 117-47 73-47 88 0 28 27 64 24 34 35 34 22 0 59-44 50-61 72-78 37-28 80-40 49-13 122-13 112 0 213 44 11 5 27 31 20 33 35 47h45q9-22 14-94 23-28 81-28 77 0 114 47t75 97q29-24 35-82 4-41 47-41 34 0 72 60l48 82h48q0-94 43-114 14-8 91-8 96 0 123 26-31 107-85 192-10 16-49 39-44 28-57 42-25 24-25 80 0 42 18 87 23 57 59 57 28 0 54-41 23-43 46-85 20-27 54-82 25-49 52-135 25-82 25-103zM692 522q0-29-43-67-39-36-60-36-29 0-60.5 26.5t-31.5 50.5q0 23 30 65.5t51 42.5q31 0 69-23 45-26 45-59zM3958 1422l-6 15-57-34 5-14z" glyph-name="uniFB52" horiz-adv-x="3917" unicode="&#xfb52;"/><glyph arabic-form="final" d="M3319 1447q0-41-174-145-225-135-239-147h-46q-12 2-12 25 0 58 181 170l232 132h45q13-13 13-35zM2755 571q0-68-43-153-34 6-39 54-1 42-3 83-9 60-40 111-8 13-54 68-35 43-35 57 0 31 45 77 169-86 169-297zM3554-350q0-37-33-67-28-25-49-25-30 0-70 24-42 25-42 53 0 23 28 63 30 44 59 44 38 0 72.5-32t34.5-60zM3626 288q0-20-17-76-22-69-49-106-22-28-91-50-69-4-194-37-24-12-45-53l-28-64q-70-125-185-227-129-113-231-113-211 0-313 23-135 31-137 64 0 17 15 35 17 22 41 22 13 0 95-20.5t95-20.5q128 0 284 86 170 96 248 236-19 19-129 28-38 3-74 54-33 46-33 76 0 64 51 164 56 113 113 113 79 0 135-118t96-118q31 0 117 20 102 24 113 48 7 38-61 106-72 73-72 118 0 7 33 107 81-17 154-124 69-99 69-173zM2080 1365q0-4-15-44-53-49-203-132-279-157-290-156h-55v54q0 26 101 83 58 29 117 58 109 61 331 172 14-14 14-35zM3809-562q-170-91-464-227h-44q-13 1-13 24 0 60 44 83 101 53 264 122 159 67 178 67 15 0 23.5-6t11.5-6v-57zM2479 183q0-22-7-58-27-127-42-147-29-41-130-41-88 0-156 59-40 35-110 135-131-174-394-174-215 0-215 97 0 25 55 107 81-41 139-41h98q72 0 161 36 120 46 120 123 0 10-25.5 156.5t-25.5 160.5q0 72 10 116l26 23q18-12 42-34 35-175 70-351 70-250 231-250 13 0 28 4.5t24 4.5v97q-4 123-36 246-12 35-34 113-12 108-38 328-1 19-19 65-18 42-18 59 0 37 23 94 21 47 41 94h37q7-39 35-114 1-3 37-28 32-23 32-37 0-25-26-87t-25-112zM1394 1324q-11-23-36-62-26-27-131-92-126-76-177-76h-43q-12 1-12 25 0 25 78 71 48 27 96 53-11 24-51 24t-160-71q-15 15-15 30 0 45 84 107 77 57 116 57 44 0 125-16 104-21 126-50zM2613-535q0-40-24-54-104-58-278-135-165-72-186-71h-64q2 34 24 80 89 55 234 115l246 100h35q13-13 13-35zM1282 255q0-12-9-69-12-69-16-106t-40-53q-80-33-171-33-97 0-150 49-51 63-101 125-102-93-225-93-49 0-113 16-87 21-87 56 0 37 55 107 98 127 213 196 28 14 55 27 37 21 53 46 9 15-4 68-21 80 41 180 19 0 33-23 17-65 42-185 2-74 5-148 6-97 52-168 51-79 151-79 19 0 63 11 49 13 60 24-14 28-67 107-45 64-45 77 0 31 43 118h32q78 0 130-250zM1291-257q0-33-54-68-47-29-73-29-9 0-34.5 25.5t-42.5 25.5q-12 0-47.5-30.5t-55.5-30.5q-32 0-101 63-1 27 30 79t56 52q9 0 112-51 61 62 98 62 39 0 75.5-33.5t36.5-64.5zM820-57q0-53-156-126-90-43-288-129h-44q-13 13-13 35 0 46 192 133 137 59 275 117 1 0 21-9 13-6 13-21zM3062 197q0 6-5.5 25t-5.5 25h-37q-13-27 11-50h37zM779 311q0 36-45 72-43-29-169-130l139-14q25 12 50 22 25 14 25 50z" glyph-name="uniFB53" horiz-adv-x="3636" unicode="&#xfb53;"/><glyph arabic-form="initial" d="M3620 40q0-43-44-86h-46l-156 987q10 40 54 127 15 0 34.5-15t20.5-30q137-952 137-983zM2985 1166q0-54-148-126-133-64-175-63h-54q0 6-5.5 25t-5.5 24q43 24 133 81-6 23-46 23-27 0-104-51-14 2-14 25 0 47 74 95 67 44 110 44 15 0 211-35 24-15 24-42zM3722-310q-33-38-133-56-121-21-198-69h-45l-6 23q13 23 43 64v4q1 14-19 39t-20 38q0 41 75 110t119 69q32 0 58-26 24-26 24-50 0-27-21.5-52t-39.5-25q-15 0-35 16-26 22-31 25-5-5-13-8t-13-8q48-56 164-56h42q32-1 49-1v-37zM3886-466q0-43-55-59-464-136-483-136h-63q-13 2-13 26 0 14 15 35t29 27q109 42 298 92 173 45 197 44h64q0-3 5.5-9t5.5-20zM2238 1263q0-52-65-78-48-21-635-290h-47v54q0 37 351 200 337 155 355 155 41 0 41-41zM3344 229q0-47-44-81-40-32-90-32-11 0-109.5 10.5t-109.5 10.5q-57 0-293-76.5t-337-76.5q-12 0-54 10-48 10-64 13-12 1-31 22-26 27-40 37-68-60-90-70-25-12-85-12-12 0-55.5 10t-56.5 10-74.5-20-73.5-20q-13 0-77 25t-77 25q9 0-106-37-102-34-309-34-173 0-216 13-35 10-106 56-65 43-77 43 3 0-95-61t-192-61q-55 0-121 42-76 49-86 115-27 183-58 528-27 295-27 333 0 51 43 138h36q29-25 30-66 14-534 68-808 10-50 67-86 34-23 94-23 95 0 183 61.5l88 61.5q-3 0 124-66.5t235-66.5h87q56 0 171 21 112 21 128 32 31 40 103 111 29 0 45-24-1-22-5-54-4-28-4-38 0-38 63-38 82 0 127 42 12 12 81 112h46q13-13 13-31 0-13-8.5-36.5t-8.5-32.5q0-23 42-23 51 0 83 44 67 94 82 110 8-34 27-96 7-19 62-40 48-18 64-18 66 0 178 20 139 26 165 58 0 7-3 17-42 38-125 38-12 0-74-11-74-13-123-19-13 2-13 25 0 29 78 111 74 78 100 84 54 15 73 15 12 0 109-50 114-57 149-70 229-89 450-85 24-24 24-41zM999 1488q0-15-19.5-38.5t-35.5-29.5q-126-50-471-238h-34q-13 13-13 30 0 51 115 115 67 30 133 62 90 47 278 140h36q0-4 5.5-15t5.5-26zM1009 1320q0-34-222-150-164-86-293-142-10-1-24 12t-14 29 20 43 34 34q429 209 444 209h44q0-4 5.5-12.5t5.5-22.5zM1307 608q0 25-15-99-11-17-44-34-16 70-58 198-9 20-62 92-47 63-47 79 0 61 57 61 63 0 121-136 48-110 48-161zM784 659q0-35-34-68.5t-63-33.5q-23 0-107 52-2 41 25 90 31 52 67 52 37 0 77-41 35-36 35-51z" glyph-name="uniFB54" horiz-adv-x="3625" unicode="&#xfb54;"/><glyph arabic-form="isolated" d="M3341 1505q0-43-213-159l-292-148h-34q-14 14-14 31 0 57 174 146 89 41 178 81 47 29 144 79h44q13-13 13-30zM2757 1457q1-21-100-83-59-34-116-67-94-59-279-160-15 11-26 11v44q0 33 204 147 140 77 281 155h36v-47zM2144 1530q0-41-37-63-421-249-441-248h-52q-13 1-13 25 0 50 219 169 144 76 287 153 37 0 37-36zM1509 1316q0-67-164-144-141-66-189-66-32 0-46 14 8 26 88 65 90 45 117 79-14 16-52 16-42 0-79-30-52-41-81-52-14 14-14 31 0 53 86 117 77 56 114 56 47 0 127-25 93-29 93-61zM3567 383q0-35-64-63-53-23-89-23-14 0-195 40.5t-195 40.5q-37 0-104-17-69-19-100-40 71-143 71-183 0-138-138-138-110 0-187 34-8 3-25 23-14 14-29 14-12 0-40-24-32-28-45-34-101-44-186-44-65 0-125 42-45 35-90 71-21-21-79-68-19-14-54-14h-77q-12 0-84 30.5t-85 30.5q-7 0-86-37-86-42-127-51-93-24-253-24-129 0-142 2-47 9-131 62-38 25-66 92-25 59-34 59t-80-44q-83-52-113-66-11-3-42-3h-88q-47 0-122 52-1 6-1 12 0 82 156 238 2 3 103 72 32 14 64 27 49 25 59 66-4 85 21 199 5 5 21 19 6 0 32-15 35-155 58-337 14-28 35-91 45-181 286-181 94 0 214 19 116 18 141 34 22 14 57 85 29 56 71 56 25-22 26-40-2 34-2-46 0-54 199-67 97 0 97 98l-91 757q0 22 22 69t42 69q53-10 64-158 13-158 41-470 22-208 38-249 47-126 192-126 86 0 135 32 26 18 72 75 55 68 70 83 41 38 154 73 146 44 163 52-3 34-29 41-10 2-60 2-6 0-57-5-56-6-104-7l-46 9q-2 52 105.5 135.5t164.5 83.5q13 0 87-52 97-66 120-80 85-48 220-94 149-51 264-63v-45zM1704 711q0-32-32-68-34-39-71-39-11 0-46.5 15.5t-50.5 15.5q-13 0-56.5-31t-56.5-31q-15 0-53 25-41 28-54 52 20 20 54 72 17 25 53 25 13 0 46-15t46-15q14 0 57 35.5t56 35.5q21 0 64.5-30t43.5-47zM885 1157q0-39-36-72-13 7-67 44-42 28-56 28 3 0-122-87-132-93-195-118l-56 13q10 38 114 111 118 85 141 118-9 26-44 49-27 18-27 62 0 43 54 121 62 90 125 90 88 0 88-163 0-37-5-58 1-9 5-29 20-25 61-49 20-11 20-60zM2727 175q0 71-56 71-28-16-25-34 1 0 28.5-18.5t52.5-18.5zM720 1322v35q-16 35-57 35-19-11-12-60 1 0 22.5-5t46.5-5zM781 256q11 46-33 102-152-58-201-130l149-13q33 22 85 41z" glyph-name="uniFB56" horiz-adv-x="3575" unicode="&#xfb56;"/><glyph arabic-form="final" d="M2244 1591q0-62-61-62-14 0-54.5 20.5t-54.5 20.5q-13 0-53-33-55-48-66-55-94-65-188-96-14 12-24 12v36q61 47 123 94 112 87 112 109 0 10-20.5 49.5t-20.5 52.5q0 50 50 116 56 73 119 73 47 0 62-33 24-54 11-146 0-2-8.5-19.5t-6.5-29.5q7-10 51-60 29-34 29-49zM2325 1229q1-30-53-50-79-29-101-46 6-49 71-426 53-307 53-454 0-69-10-116-4-26-7-51-7-29-37-61h-36q-25 134-37 383-3 66-61 399-25 142-25 181 0 68 29 136-6 6-21 6-11 0-52-16-50-18-78-24l-34 132q0 47 73 121t122 74q26 0 59-25.5t33-51.5q0-13-52-91 16-4 30-4 16 0 40 9t38 9q39 0 56-34zM1639 1263q0-61-50-61-13 0-49 25.5t-49 25.5q-5 0-119-91-122-95-180-113-13 1-13 25 0 15 202 197 13 36 13 33 0 10-20.5 43t-20.5 50q0 73 59 134 62 63 143 59 29-30 29-81 0-23-8-70t-8-68q0-11 35.5-51t35.5-57zM1731 888q0-52-114-118-105-60-157-60-15 0-35.5 23.5t-20.5 43.5q0 19 25 75 28 62 52 74l17-13q1-1 1-2-1-21 2-61v-7q27 14 48 54 28 53 34 59 16-11 52-61 22 12 37 41 20 37 33 51 16-12 26-12v-87zM1056 1058q0-23-20-47t-36-24q-12 0-51.5 20.5t-51.5 20.5q-13 0-36-25-30-35-42-44-125-90-249-136l-56 13q10 16 148 122 128 99 128 126 0 10-20.5 41t-20.5 46q0 57 43 131 50 84 110 84 85 0 85-133 0-7-10-106 24-23 50-47 29-28 29-42zM1937 214q0-47-21-104-27-76-67-76-45 0-159 36t-107 36q-12 0-37-31-34-41-41-47-53-44-178-44-111 0-163 60-29 34-51 114-17 61-41 61 1 0-93.5-56.5t-147.5-56.5q-13 0-77 5t-77 5q-71 0-71 57 0 29 64 122 43 61 153 127 87 47 174 96 31 17 31 64 0 140 41 179 26 0 34-12 29-71 53-308 19-188 93-252 49-42 124-42 70 0 95 13 21 10 145 179 115 157 170 157 42 0 101-136 53-118 53-146zM544 193q0-87-64-166-69-84-156-84-32 0-87 36 47 31 116 48 13 3 89 75-7 14-58 45-45 26-45 62 0 32 20 80 25 63 62 63 48 0 90-74 33-59 33-85zM2101 1760q-6 8-60 34 20-60 46-60 10 11 14 26zM2131 1257l-44 46h-37q11-25 37.5-38.5t43.5-7.5zM1492 1417q9 9 3 25-6 19-28 25v-37zM902 1227q-14 14-38 14v-38q31 10 38 24zM1771 240q0 12-4.5 34t-4.5 26h-59l-12-36 23-24h57zM1055 324v57l-45 12q-78-38-96-47-55-32-83-63 11 0 36-6.5t35-6.5q20 0 153 54z" glyph-name="uniFB57" horiz-adv-x="2294" unicode="&#xfb57;"/><glyph arabic-form="initial" d="M2693 1510q0-18-19-42.5t-38-24.5q-12 0-43 16t-44 16q2 0-139-109-143-109-205-117-13 12-24 12v37q13 8 104 79 39 25 77 49 75 53 75 84 0 13-20.5 46t-20.5 46q0 56 46 123 52 76 118 76 17 0 42-20.5t25-34.5q0-19-3-79-3-52-1-83 70-50 70-74zM3511 1673q1-33-25-64-40-48-151-109-76-40-153-80-68-37-205-113-92-61-277-177-233-140-233-188 0-9 157-163 166-164 197-219 107-189 107-350 0-103-63-153-47-37-166-64-20-5-128-2-87 3-127-24-14-11-64-107-59-112-91-154-28-36-96-93-80-66-129-81-43-13-124-13-298 0-404 107 22 47 51 47 13 0 95-26t94-26q59 0 145 26 97 30 149 72 25 12 82 47 17 13 83 88 79 89 79 115 0 7-46.5 49t-46.5 59q0 11 10.5 49.5t10.5 54.5q15 16 57 9 26-15 82-34 102-13 143-13 66 0 172 22 140 31 140 75 0 65-119 215-106 136-155 166-13 8-95 28-60 14-88 60-14 21-14 110 0 190 142 318 59 52 382 247 329 198 596 346 15-11 26-11v-46zM1454 1475q0-44-96-105-56-31-111-63-78-50-237-149h-45q-13 13-13 30 0 51 150 141 80 42 159 86 18 10 125 90h55q13-14 13-30zM1208 1141q0-42-174-134-125-63-249-126h-35q-24 23-24 35 0 49 191 148 117 57 234 112h46q0-4 5.5-12t5.5-23zM1782 164q0-53-32-130-37-95-86-95-14 0-136.5 30.5t-135.5 30.5q11 0-167.5-56.5t-348.5-56.5h-88q-99 0-201 45-110 47-134 112-1 4-3 53 0 18-4 29-29 101-61 492-5 68-43 256-35 179-35 185 0 30 44 117 48-10 66-77 10-50 19-100 32-102 41-216 0-159 27-481 5-37 20-100 66-151 356-151-27 0 230 23 47 4 84 36 1 50 17 152 21 46 54 134-5-22-5 105 0 123 87 123 28 0 100-61 43-40 87-80 58-41 116-81 68-47 106-119 26-45 26-119zM2543 1629v38h-18v-38h18zM1689 137q-82 109-109 108h-33q0 2-5-32.5t-5-78.5q145 0 152 3zM1443 230q0 17-27.5 57t-49.5 51q-66-66-66-103 0-23 24.5-42t52.5-19q66 0 66 56zM2167 1503q0-53-107-125-133-64-175-63h-53q0 6-6 24.5t-6 24.5q43 24 133 80-6 24-46 24-27 0-104-52-14 2-14 26 0 46 74 95 68 43 110 43 15 0 171-34 23-16 23-43z" glyph-name="uniFB58" horiz-adv-x="2959" unicode="&#xfb58;"/><glyph arabic-form="medial" d="M4996 1459q0-48-43-74-13-7-280-167-170-102-185-101h-53q-12 0-12 24 0 52 233 188 194 112 326 165 14-14 14-35zM4279 1331q0-45-53-78-205-130-445-249-1 2-19 15-15 10-15 25 0 49 201 161 258 146 284 166 47 0 47-40zM5089 174q0-152-181-355-183-208-326-208-204 0-370 23-48 7-85 31v46q24 3 245 3 12 0 35.5 7.5t30.5 8.5q171 19 326 133 163 120 232 294l-15 17q-48-72-123-72-78 0-121 51-37 45-37 113 0 74 43 166 53 110 125 110 91 0 163-166 58-132 58-202zM3430 1387q0-47-227-175-285-161-319-188h-46q-13 2-13 25 0 54 125 129 77 42 155 83 101 64 141 87 80 45 159 75 25-25 25-36zM4300 271q0-122-44-222-107-240-229-328-110-79-305-79-10 0-118.5 10t-123 10-80.5 34q2 48 101 48 13 0 60-5t58-5q138 0 318 128 191 135 251 296 4 7-6 16-65-51-117-51-67 0-113 61-41 55-41 117 0 66 51 157 59 105 123 105 88 0 158-123 57-102 57-169zM3235 773q0-37-33-68-29-29-54-29-24 0-74 33-54 36-54 64 0 23 32 63 35 45 66 45 47 0 84-40 33-34 33-68zM2508 1407q0-44-134-126-77-43-155-87-192-127-361-211-14 12-25 12v56q12 17 33 39 379 238 630 353 0-4 6-12.5t6-23.5zM1689 1325q0-26-135-104-130-75-148-73h-63q0 3-5.5 24.5t-5.5 34.5q41 25 123 70 0 8-25.5 21t-36.5 13q-30 0-117-81h-37v43q0 16 42.5 66.5t82.5 78.5q21 16 64 16 29 0 139-23.5t122-30.5v-55zM3696 404q0-216-303-325-219-79-484-79 15 0-59 4-35 3-57-7-40-19-51-92.5t-58-98.5v75q-1 11 19 60.5t20 63.5q0 35-48 69-41 28-59 28-1 0-123.5-66.5t-178.5-66.5q-62 0-156 33-113 39-138 91-229-123-300-124-150 0-220 72-10 0-71-33-68-36-102-46-120-34-262-34-71 0-161 17-118 20-147 55l-72 86q-26 35-47 88-15-4-42-29-32-31-46-39-70-45-181-45-107 0-174 43 11 166 155 280 19 15 118 66 77 39 102 80 18 28 23 89 6 72 14 97 38-21 55-108 13-71 26-141 28-96 55-192 54-134 154-150 143-23 157-23 85 0 194 18 119 19 168 45 26 36 93 111 34-14 35-52 2-59 4-63 13-9 35-26 14-2 101-2 92 0 101 2 53 14 140 67-15 50-68 56-47-1-96-1v44q0 22 35 65 82 105 252 105 79 0 151-29 95-41 95-114 0-25-36-75-29-41-47-56-1-5 2-14 95-40 152-40 70 0 175 66.5t112 66.5q10 0 88-46t132-46q25 0 148 93 168 126 244 173 150 92 243 92 52 0 117-41 72-46 72-97zM1546 711q0-34-36-70.5t-62-36.5q-10 0-49 25.5t-53 25.5-35-23q-18-18-34-35-12-3-33-3-41 0-76 33-32 30-32 59 0 28 44 68 39 34 49 34 12 0 48-20.5t48-20.5q11 0 46 36t52 36q33 0 79-45 44-42 44-63zM778 1254q0-15-18-44-20-33-38-33-13 0-56.5 20.5t-56.5 20.5q4 0-129-111-151-126-322-185-14 11-23 11-4 31 31 55 325 224 325 271 0 9-30.5 56.5t-30.5 61.5q0 53 47 127 51 83 106 83 91 0 91-127 0-25-4-69-3-40-2-52 3-3 68-44 42-26 42-41zM4904 289q1 22-21.5 49t-46.5 30q-36-36-33-59 65-33 70-33 18 0 31 13zM4136 345q-54 54-79 54-33-34-33-51 0-19 21-35t40-16q18 0 34.5 16t16.5 32zM3553 324q-74 45-154 45-111 0-286-173h85q77-1 203.5 45t151.5 83zM581 1383q17 34 0 70-49-15-49-47 23-23 49-23zM614 288q0 45-12 70h-43q-22 0-98-40-86-45-92-82h157q31-1 88 52z" glyph-name="uniFB59" horiz-adv-x="5097" unicode="&#xfb59;"/><glyph arabic-form="isolated" d="M2270 1465q0-56-46-56-13 0-54 15t-53 15q-19 0-85-58-32-31-65-61-130-83-236-106-5 6-17.5 13.5t-16.5 12.5q45 41 147.5 117.5t149.5 117.5q-82 69-82 98 0 68 65 140 68 75 137 75 11 0 21-1 31-46 36-112-1 8-1-106 14-19 66-42 34-16 34-62zM3088 1525q1-50-185-133-123-49-247-99-38-16-245-117l-154-70q-130-71-130-127 0-16 1-23 195-141 343-431 23-47 61-154 15-41 15-93 0-102-46-177-20-34-112-58-126-23-364-65-42-192-170-337-140-157-302-157-89 0-208 31-139 36-191 87l13 18q44 4 134-4 102-9 99-9 155 0 292 94 147 100 230 279-33 25-66 49-37 34-37 64 0 58 45 118 102-41 165-41h98q69 0 308 68 9 71-92 248-106 186-175 186-14 0-24-5.5t-22-5.5q-64 0-105 73-34 59-34 116 0 13 8.5 27.5t8.5 24.5q2 95 66 187.5t165 150.5q241 137 833 363 15-11 24-11v-67zM1830 958q0-68-166-148-140-67-177-67-57 0-57 31 0 15 7 26.5t7 12.5q50 19 150 79-22 26-51 26-21 0-69-29.5t-72-29.5q-12 0-22 5 20 51 78 110 67 66 116 66-22 0 232-45 24-15 24-37zM1113 1532q0-65-444-307h-34q-13 13-13 35 0 50 151 138l158 84q47 35 135 89h36q0-3 5.5-14t5.5-25zM928 1196q-109-91-250-158l-236-100q-14 11-24 11v33q-1 17 13.5 42t28.5 32q418 199 428 199 15 0 25.5-5.5t14.5-5.5v-48zM1441 185q0-230-149-230-9 0-120.5 25.5t-124.5 25.5q-15 0-190.5-41t-275.5-41q-212 0-243 137-50 216-87 642-29 321-29 404 0 40 43 127h36q41-54 55-215l16-260q9-56 20-174 3-102 7.5-205t29.5-183q7-18 68-58.5t85-40.5h79q71 0 76 1 35 7 55 48 32 62 82 264 1 5-14 90-17 96 51 159 13 6 29 6 55 0 151-80 152-127 153-128 52-30 104-61 66-42 78-87 15-54 15-125zM2084 1605q0 9-2 26-11 16-47-2 24-24 49-24zM1348 154q-24 40-66 84-44 45-63 44h-43q0-9-9-56-6-38 0-56 23 2 77.5-12t73.5-14q21 0 30 10zM1062 237q0 18-21 55-22 41-46 52-46-23-53-44-24-67-24-74 0-15 6.5-23t6.5-12h96q35 16 35 46z" glyph-name="uniFB5A" horiz-adv-x="2561" unicode="&#xfb5a;"/><glyph arabic-form="initial" d="M3789 1594q-11-16-33-41-300-172-577-300-14 14-14 41 0 54 44.5 77.5t326.5 179.5q203 112 218 112 13 0 18.5-6t16.5-6v-57zM3012 1616q0-41-136-110-27-14-254-144-161-94-262-129-14 14-14 35 0 78 361 243 178 114 280 141 25-24 25-36zM3954 239q0-6-36-139-27-105-172-250-153-153-254-153-9 0-61.5 5t-65.5 5q-99 0-320 53l-13 11v26q19 33 66 33 13 0 72-5t72-5q10 0 21.5-5t24.5-5q132 0 263 75 149 85 256 249 10 27 7 34-58-41-106-41-55 0-107 59-47 53-47 89 0 67 52 174 63 129 138 129 74 0 147-155 63-130 63-184zM2274 1438q0-48-126-135-117-81-147-80h-83q-12 1-12 25 0 27 80 72l94 52q-6 25-47 25-27 0-163-82-8 1-26 14 85 180 246 180 57 0 114-16 70-22 70-55zM1630 1411q0-15-20-35t-37-20q-13 0-41 25.5t-41 25.5-41-30q-39-42-48-48-117-94-217-137l-56 12q-1 31 132 128.5t133 119.5q0 10-36 50.5t-36 58.5q0 50 56 122 64 82 134 82 45 0 62-33 21-41 21-105 0-7-11-51-9-38-4-60 4-14 28-54 22-35 22-51zM3319 449q0-107-175-107-12 0-191.5 25.5t-191.5 25.5q-60 0-146-18-111-24-147-60 63-100 63-158 0-87-47-141-36-43-117-43-58 0-128 29-77 31-104 73-43-39-140-98-86-34-176-34-72 0-152 33-107 43-132 49-17-57-64-159-31-46-113-46-115 0-195 99-45 55-104 187-37-33-118-89-50-23-126-23-64 0-186 23-17 10-44 30 0 55 68 141 58 75 129 128 76 43 230 136 13 175 70 197l17-13q19-87 46-258 0-51 16-153 18-41 51-122 12-33 78-72 63-37 94-37 50 0 60 58 1 3 1 64l-92 886q0 84 43 158h37q27-224 53-449 32-261 85-445 16-57 97-106 71-44 192-44 97 0 151 23 50 22 115 126 62 103 152 134 86 27 253 84 0 18-18 30-68 33-85 33-24 0-66.5-9t-67.5-9q-43 0-91 19v24q0 13 34 56 15 19 91 69 85 55 115 55 11 0 126-59 130-66 173-82 323-114 565-116 0-3 6-16.5t6-28.5zM1025 1115q0-18-17-42t-34-24q-13 0-43.5 20.5t-43.5 20.5q-17 0-156.5-107.5t-182.5-107.5h-44q0 4-5.5 9.5t-5.5 20.5q0 29 54 67 63 40 128 81 94 62 94 92 0 13-30.5 62t-30.5 61q0 63 57 139 63 81 132 81 76 0 76-119 0-42-9-103-9-54-9-57 70-69 70-94zM452 286q0-84-51-152-58-79-149-79-48 0-97 41 1 1 93 35 71 26 112 92-113 78-113 88 0 34 28 90 31 63 64 63 53 0 87-73 26-58 26-105zM3779 337q-56 55-79 55-22-22-22-69 4 0 20-6t30-6q28 0 51 26zM1493 1581q0 39-13 51-23-24-23-39 25 0 36-12zM2376 159q-7 23-30.5 46.5t-45.5 23.5q-45 0-45-27 44-45 77-43h44zM902 1321q-34 34-47 34-45-22-45-58 35-34 46-34 17 0 46 58zM1045 221q0 43-23 89-72-34-145-69-83-43-86-71-12 0 29-6.5t130-6.5q45 16 95 64z" glyph-name="uniFB5C" horiz-adv-x="3959" unicode="&#xfb5c;"/><glyph arabic-form="isolated" d="M3597 1556q0-53-102-108-63-29-126-59-132-82-259-130-15 15-15 41 0 48 104 103 67 31 134 63 83 48 239 121 9-5 17-10.5t8-20.5zM3474 988q0-28-53-64-48-34-70-34-31 0-59 34-23 28-23 43 0 23 34 65.5t58 42.5q28 0 70.5-31t42.5-56zM3616 828q4-8 4-18 0-34-50-71-43-33-65-33-11 0-45 15.5t-47 15.5-54-25.5-54-25.5q-55 0-108 66 22 35 43 70 28 38 65 38 13 0 46-15.5t46-15.5 36 23l34 34q11 4 33 4 30 0 116-62zM3013 1546q0-47-224-159-285-142-322-169-10-1-27 10-20 11-20 26 0 58 224 170 316 158 321 162h37q0-4 5.5-14.5t5.5-25.5zM2041 1285q0-13-13-28-18-22-20-28h-33q-12 0-51.5 25.5t-51.5 25.5q2 0-153-113-164-118-267-143-14 11-24 11v37q31 28 92 80 10 7 127 77 87 51 118 96-4 6-44 55-29 35-29 54 0 41 50 125 60 99 125 99 80 0 80-120 0-36-17-127 111-92 111-126zM2553 568q0-174-75-188 0 69-21 197-10 27-57 93-42 60-42 72 0 21 16 44t35 23q70 0 112-106 32-77 32-135zM2051 850q0-41-43-69-35-23-59-23-27 0-60 25t-33 51q0 20 37 64t56 44q34 0 68-32t34-60zM2184 686q0-35-33-69t-65-34q-10 0-43.5 15.5t-47.5 15.5q-13 0-59-30.5t-59-30.5q-30 0-68 34-35 30-35 42 0 35 44 73 39 35 59 35 11 0 48.5-20.5t48.5-20.5q13 0 51.5 36t51.5 36q21 0 64-29.5t43-52.5zM3536 205q0-31-36-150-12-44-40-53-104-33-313-33-91 0-124 12-51 17-94 83-9 14-24 28-122-75-193-90-157-33-364-33-90 0-206 66.5t-101 66.5q-13 0-45-30-37-33-51-38-89-18-255-78-2-1-32-75-45-108-192-256-53-52-115-73-40-13-171-13-75 0-163 22-76 21-152 41-2 9-12 25 36 35 56 35 13 0 87.5-10t87.5-10q112 0 244 73 148 83 242 221 3 28-27 33-24-4-82 4-127 44-127 139 0 84 55 185 60 113 130 113 64 0 119.5-133.5t99.5-133.5q22 0 100 20 87 22 134 43 11 6 55 41 36 29 55 29 13 0 63-34 71-47 87-56 76-43 244-43 122 0 240 22 143 25 171 68 3 13 3 64l-82 675q0 23 24 90 22 64 31 74 25 0 34-13 15-140 47-411 21-123 55-348-5-36-4-102 18-93 99-119 34-10 144-10 205 0 205 61 0 14-25 53-40 57-43 62.5t-3 48.5q0 93 56 93 51 0 83-100 25-77 25-146zM986 1475q0-60-300-209-124-68-351-181-15 14-15 41 0 47 84 95l104 50q79 38 235 123 49 33 98 67 64 44 80 43h54q0-4 5.5-10t5.5-19zM709 766q0-21-23-68-31-63-73-63-26 0-65 25-43 29-43 57 0 25 36 68.5t56 43.5q46 0 112-63zM1058 215q0-199-87-285-37-36-143-86-111-52-174-56-36-3-72-3-136 0-227 66-106 77-106 215 0 125 156 312 38 0 38-25 0-13-41-102.5t-41-102.5q0-95 98-148 74-40 159-40 176 0 349 138 3 50-15 121-12 44-57 141-42 89-42 100 0 27 14 59 19 44 47 44 68 0 111-142 33-109 33-206zM1866 1501q-10 10-11 24h-35q-25 1-25-36 0-12 24-35h35zM1516 154q0 50-21 70h-37v-36q3-6 58-34z" glyph-name="uniFB5E" horiz-adv-x="3543" unicode="&#xfb5e;"/><glyph arabic-form="final" d="M2372 1498q1-29-257-168-236-127-373-183-8 5-16.5 10t-8.5 20q0 56 277 202 189 98 353 167 15-12 25-12v-36zM2260 901q0-47-54-79-39-23-59-23-7 0-91 52 0 22 29 77 35 65 67 65 35 0 73-35 35-34 35-57zM2414 717q0-38-44-77-40-36-69-36-12 0-55 20.5t-53 20.5q-12 0-56-31t-56-31q-26 0-62 20-45 24-45 57 0 28 42 75 41 43 54 43 10 0 50-25.5t53-25.5q11 0 51 41t51 41q16 0 74-34 65-37 65-58zM1646 1311q0-59-156-157-141-89-182-89-31 0-51 37 56 47 184 132-33 25-82 25-23 0-116-91h-47v34q-1 51 155 155 22 15 90 15 98 0 192-32 13-12 13-29zM990 1437q0-35-220-152-290-157-338-190-1 1-21 10-14 6-14 21 0 53 103 117 57 29 115 59 108 60 328 182h47v-47zM1010 1243q1-43-207-131-120-54-351-160-14 15-14 36 0 47 66 88 56 26 111 52 71 37 349 161h46v-46zM2608 276q0-20-21-94-23-81-45-128-10-24-83-24-67 0-118.5 31t-54.5 31q-12 0-37-31-35-41-42-47-52-45-147-45-97 0-167 44-35 37-102 97-4 2-43 2-68 0-184-55-135-63-152-134-7-33-7-71 0-39 13-123 12-75 8-113-2-40-49-88-42-40-83-80-52 25-82 116-25 73-25 145 0 61 18 277 3 24-36 24-107 0-264-23-9-13-25-35-44-146-166-264t-226-118q-10 0-111 20.5t-114 20.5q-12 0-17.5-5t-17.5-5q-18 0-83.5 23t-75.5 32q1 7 3 24 31 34 68 34 13 0 80-10.5t79-10.5q83 0 102 3 1 0 101 30 40 12 157 107 137 112 137 172 0 14-31 54.5t-31 73.5q0 92 67 92 10 0 176-59 6-2 80-2 165 0 224 22 38 16 90 73 72 80 94 98h36q0-3 5.5-9t5.5-20q0-67-108.5-187t-105.5-155l6-68q18 18 31 39 105 180 222 233 188 86 253 86 44 0 137.5-71.5t169.5-71.5q97 0 139 100 4 26 17 71 21 27 61 84h37q1-46 4-136 26-35 57-41 28-4 56-7 11 20 11 52 0 14-3 45t-3 48q0 69 48 111 67-24 67-184zM376 302q0-91-4-118-8-50-49-153-6 0-19-5t-19-5q0 116-15 342-78 579-78 559 0 52 65 184 12-12 36-12z" glyph-name="uniFB5F" horiz-adv-x="2618" unicode="&#xfb5f;"/><glyph arabic-form="medial" d="M2298 1275q0-53-261-188-326-170-347-186h-35q-13 13-13 30 0 60 140 132 75 32 150 65 179 99 318 182h35q13-13 13-35zM1356 1561q0-61-208-152-89-44-270-119-24 24-24 35 0 41 194 138l282 134q26-25 26-36zM1315 1223q0-43-15-74-48-100-111-123-214-74-213-74-82 0-82 72 0 35 24 98 16 43 71 65 4-8 4-21 0-9-2.5-28t-2.5-27q0-36 40-36 30 0 54 57 11 32 21 64 6 6 33 22 28-26 24-74 3 0 7.5-4t19.5-4q48 0 61 64t54 68q0-3 6.5-16.5t6.5-28.5zM1397 696q0-36-54-77-47-36-64-36-13 0-46.5 20.5t-45.5 20.5q-13 0-53-30.5t-55-30.5q-41 0-69 34-23 28-23 53 0 27 34.5 67.5t67.5 40.5q12 0 47-15.5t45-15.5q12 0 49 30.5t49 30.5q33 0 77-38 41-34 41-54zM2523 199q0-37-64-79-56-38-85-38 11 0-235 30l-614-122q-99 0-146 12-36 11-87 74-47 57-85 57-41 0-100-46t-59-77q0-38 100-64 71-18 105-18 13 0 13 5.5t13 5.5q54 0 96-21 52-27 52-76 0-150-234-273-162-86-292-108-76-13-196-13-147 0-206 22-87 35-162 132-77 100-77 189 0 50 61 158t116 153h48v-37q-92-132-92-167 0-156 152-228 102-49 237-49 109 0 246 35 171 44 225 113-97 19-196 39-131 35-131 126 0 93 145 227 137 126 203 126 54 0 125-72t187-72q46 0 242 50-2 10-85 61-87 53-116 53-9 0-66-11-68-13-113-18v32q0 46 116 118 103 64 129 64 8 0 154-77 160-84 232-105 69-21 205-49 128-26 151-26 13 0 39.5-1t36.5-1q0-3 6-11t6-23zM813 788q0-82-151-150-123-55-192-55-12 0-72.5 15.5t-70.5 15.5q-17 0-132-131-8 1-37 17 14 36 81 136 75 111 98 111 13 0 92.5-25.5t91.5-25.5q69 0 153 51l124 82q15-15 15-41zM690 353q0-23-14-133-4-26-54-77-19 153-58 239-4 8-29 46-19 28-19 43 0 71 57 71 48 0 117-189z" glyph-name="uniFB61" horiz-adv-x="2531" unicode="&#xfb61;"/><glyph arabic-form="isolated" d="M1044 1551q0-33-84-97-81-61-141-88l-352-188h-35q-13 1-13 25 0 47 45 72 179 100 543 312 37 0 37-36zM1443 333q0-227-68-250l-85 695q0 13-20.5 135.5t-20.5 135.5q0 24 27 96 31 85 62 103zM911 931q0-31-32-66.5t-50-35.5q-20 0-102 55 7 27 27 66 33 63 65 63 29 0 62-32 30-32 30-50zM1177 235q0-228-281-239-21 0-88-9-62-7-76-7-118 0-118 77 0 96 57 96 12 0 45-5t47-5q77 0 177 20 98 20 115 37 1 88-107 171.5t-108 124.5q0 24 13 64 19 54 48 54 51 0 144-97 80-83 98-121 34-77 34-161zM1587-199q-10-28-45-64-108-27-328-94h-34q-6 9 0 37 8 36 8 44 0 10-20.5 44.5t-20.5 47.5q0 49 86 119 82 65 123 65 35 0 63-27 24-23 24-45 0-23-23-47t-43-24q-22 0-53 31h-27l-18-17q41-65 118-65 12 0 55 6 57 8 111 14zM1678-385q-29-31-43-41-126-38-422-137-15 12-24 12v33q-1 22 32 43 87 36 242 90 162 58 180 58 15 0 23-6t12-6v-46zM430 210q0-12-14-104-5-30-40-64h-37l-104 982q0 143 79 184z" glyph-name="uniFB62" horiz-adv-x="1451" unicode="&#xfb62;"/><glyph arabic-form="final" d="M1811 1409q0-39-150-129-79-45-160-90-67-44-197-119-14 11-25 11v34q0 33 63 72 36 19 73 38 27 18 82 51 99 61 299 172 15-14 15-40zM1340 1557q0-46-244-200-137-82-274-163l-24 25q9 32 35 76 70 48 495 298 0-4 6-12.5t6-23.5zM776 1473q-56-44-504-320h-37v45q0 41 217 168 143 83 288 165 5 0 18-5.5t18-5.5v-47zM675 743q0-30-44-63-37-29-54-29-28 0-62.5 29t-34.5 47q0 30 29.5 64t58.5 34q41 0 74-26t33-56zM1576-224q0-31-33.5-64t-59.5-33q-37 0-67 33-24 28-24 48 0 23 23 59 28 44 64 44t68-33q29-30 29-54zM1658 201q0-38-15-100-18-81-43-92-97-44-255-44-85 0-156 44-15 10-35 40t-33 39q-86-88-127-105-19-7-109-7-83 0-113 11-54 21-144 111-209-156-209-496 0-408 578-398 24 0 81-8.5t68-8.5 126 16q112 14 126 14h207v-49q-7 0-32-19-94-12-277-47-81-21-162-41-37-7-157-7-133 0-155 3-14 1-113 4t-198 66q-92 58-140 124-37 52-55 156 1 3 1 340 24 88 95 256 11 19 72 105 48 66 48 82 0 21-29 38-24 14-38 14-15 0-22-5t-11-5l-23 24q113 200 281 200 64 0 116-30 63-38 63-102 0-36-23-66-34-41-69-83 16-19 69-37 51-19 80-19 74 0 130 33 49 27 49 99l-72 728q0 90 66 164l18-14q20-122 52-523 8-102 15-205 16-136 46-214 7-19 107-56 6-2 49-2 58 0 170 18 0 4 4.5 6t4.5 17q0 13-45.5 82t-45.5 81q0 28 19 69 22 44 42 44 32 0 73-57 34-47 35-60 15-150 15-128z" glyph-name="uniFB63" horiz-adv-x="1653" unicode="&#xfb63;"/><glyph arabic-form="initial" d="M3491 1828q-11-29-37-67-169-99-543-286-14 1-14 25 0 48 121 123 63 34 127 68 110 60 322 162zM3429 1262q-46-36-150-66-112-33-181-80l-57 13q30 54 30 69 0 11-25.5 35.5t-25.5 36.5q0 42 94 125 90 80 121 80t53-33q19-27 19-49 0-27-17-49.5t-35-22.5q-15 0-39 16l-36 25-17-17q13-22 47.5-43.5t55.5-21.5q10 0 32 10t36 9h95v-37zM3348 169q0-29-14-113-8-46-43-45h-34l-94 966q0 14 18 65 20 58 25 83h38zM2610 1423q0-12-13-35-18-31-19-36h-43q-13 0-47 25t-46 25q-4 0-39-13-46-55-72-82-48-49-92-75-173-106-218-105h-54v38q347 220 347 269 0 10-41 49t-41 53q0 61 54 151 63 105 140 105 84 0 84-138 0-34-5-77.5t-5-42.5q110-92 110-111zM2601 977q0-23-31-64-31-43-57-43-30 0-97 64 5 28 40 74t52 46q41 0 69-30 24-25 24-47zM2743 793q0-30-41-65-37-32-56-32-11 0-42 15.5t-44 15.5-59.5-31-58.5-31q-31 0-98 67 46 71 49 74 27 34 59 34 13 0 37-13 34-15 44-18 68 72 98 72 28 0 70-31.5t42-56.5zM1719 1652q0-32-228-150-109-65-344-181v54q-2 41 43 64 270 138 482 270h47v-57zM1637 1212q0-63-78-122-62-46-120-59-13-4-52-27-36-21-51-21-35 0-61 29t-26 63 38 96q32 56 50 68 15-18 3-70-10-44 27-63 45 17 64 68 21 56 50 74 7-11 15-22 9-18 8-40 3 0 7-4.5t19-4.5q24 0 69 121h38v-86zM3030 225q0-71-45-151-24-40-61-51-10-3-47-3-13 0-85 20.5t-84 20.5q5 0-74-46t-126-46q-11 0-78.5 20.5t-80.5 20.5q-10 0-77-28-76-31-116-40-105-23-221-23-147 0-218 32-109 49-177 202-108-97-179-132-86-41-210-41-189 0-189 97 0 27 54 107 47-9 79-28 21-13 97-13 105 0 187 33 107 42 126 126l-41 317q14 95 43 168 20 0 34-23 32-191 64-384 30-165 101-224 87-74 306-74 57 0 162 26 96 24 110 36 23 21 54 85 21 47 58 47 21 0 37-25-4-41-27-124 0-25 32-25h38q40 0 107 27 65 26 76 42 30 74 108 197h36q6-19-1-67-8-60-8-80 44-26 106-37 18 29 18 57 0 20-10.5 46t-10.5 35q0 43 56 118 19-19 42-55 35-142 35-160zM849 1244q0-21-17-44t-34-23q-11 0-50 26t-52 26q-26 0-53-24-56-52-175-138-93-48-169-63-13 1-13 25 0 30 146 120 98 59 151 126-28 35-56 71-26 34-26 67 0 38 61 117 68 87 118 87 96 0 96-113 0-34-9-86.5t-9-60.5q0-6 1-8l56-54q34-34 34-51zM870 312q0-130-83.5-216t-203.5-86q-44 0-80 33-32 31-32 59 0 83 51 195 62 131 74 200 3 17 42 55 88-17 159-87 73-73 73-153zM440 159q0-94-62-170-65-81-153-81-54 0-91 12v49h39 41q39 0 86 51 39 40 48 65-3 2-69 10-44 60-44 94 0 26 28 75 30 53 54 53 53 0 93-73 30-56 30-85zM2425 1567v67l-22 24q-15 4-41-20-22-21-28-37 35-35 47-34h44zM685 1484h-47q-24-23-24-41 0-27 57-50 15 14 18 29 2 12-1 30-3 23-3 32zM757 235q0 15-32 60-37 53-70 53-25 0-49-44-23-40-23-69 0-26 18-48.5t43-22.5q19 0 60 18 53 24 53 53z" glyph-name="uniFB64" horiz-adv-x="3357" unicode="&#xfb64;"/><glyph arabic-form="medial" d="M2346 1558q0-41-37-68-5-4-211-140-163-107-250-150-14 14-14 35 0 76 465 353h34q13-13 13-30zM1691 1497q0-38-166-156-120-84-217-140h-46v54q-1 20 163 134 160 111 241 149 25-25 25-41zM1168 1527q0-50-188-185-128-91-235-153h-35q-13 14-13 37 0-12 14 43 139 93 420 299 37 0 37-41zM2479 222q0-159-186-371-183-207-306-207 13 0-385 75-1 1-34 33 33 18 93 13 113-9 91-9 170 0 326 95 176 106 299 310l-7 36q-87-72-132-72-66 0-112 74-36 60-36 110 0 43 40 139 49 117 103 117 92 0 175-146 71-123 71-197zM554 1430q0-46-207-190-164-115-237-152h-46q4 38 23 90 27 27 142 95 105 71 311 193 14-14 14-36zM615 750q0-38-32-68-28-25-50-25-32 0-67 25t-35 47q0 27 29 68 30 44 59 44 37 0 69-36 27-32 27-55zM1721 263q0-27-37-107-39-84-59-90-42-14-144-30-89-14-113-14-182 0-237 113-82-74-127-99-64-34-153-34-96 0-161 44-26 30-79 79-105-86-158-229-42-113-42-222 0-417 476-444 20 0 87-9 62-7 77-7 202 0 352.5 31t199.5 31q31 0 77-24-7-35-80-56-59-13-118-27-342-98-528-98-315 0-458 87-198 119-198 440 0 233 85 422 35 50 109 201-13 22-50 21-58-4-61-3v43q-1 37 68 103 57 55 78 63 62 25 145 25 74 0 128-31 61-34 61-92 0-27-22-72t-49-67q13-35 107-35 210 0 210 112 0 13-17 77-18 73-21 91-74 419-74 534 0 83 43 137 9 0 25.5-15t18.5-29q37-225 113-676 2-52 27-152 34-69 167-69 23 0 109 19.5t101 28.5v27q-41 45-100 134l-1-2q0-1-1 3t-1 15q0 28 20 69 21 44 41 44 77 0 127-125 37-90 37-136zM1414-238q0-24-26-63-30-45-61-45-25 0-64 24-43 26-43 53 0 42 36 77 31 30 56 30 37 0 71-26 31-25 31-50zM2274 357q-22 22-70 22v-46l22-23h47q0 5 .5 23.5t.5 23.5z" glyph-name="uniFB65" horiz-adv-x="2496" unicode="&#xfb65;"/><glyph arabic-form="isolated" d="M3525 1773q0-42-205-140l-290-136h-45q-13 14-13 31 0 51 55 77 421 199 423 199h62q13-14 13-31zM3577 258q0-185-44-224h-37q-14 246-46 474-3 28-47 275-24 144-24 238 0 77 14 151-7 8-21 8-44 0-147-61h-46q-2 31 8.5 51.5t10.5 34.5q0 10-25.5 38.5t-25.5 43.5q0 43 84 116t130 73q27 0 65-33t38-59q0-18-29-45t-47-27q-14 0-39 22-29 25-42 30l-18-17q8-39 45-45 0 1 68 1 11 0 64 4 60 6 86 8 8-3 24-16v-36q-35-24-102-70 3-29 60-444 43-310 43-491zM3157 939q0-61-156-135-134-65-172-65-14 0-25 5.5t-14 5.5v37q45 26 142 81-21 35-51 35-49 0-117-50h-47v36q24 42 99 85 72 42 115 42 34 0 121-23 105-27 105-54zM2645 1430q0-41-44-70l-82-40q-232-123-454-212-4 4-16.5 11t-17.5 13q22 83 125 125l174 68q229 131 250 130h52q13-1 13-25zM3290 212q0-94-35-196-23-69-145-184-134-126-214-126-180 0-414 63v47q12 2 255 2 105 0 280 120 181 125 181 218 0 25-109 154-4 5-4 50 0 92 46 92 33 0 89-63 50-55 55-74 15-51 15-103zM1150 1440q0-41-23-53-498-249-525-247h-45v43q-1 41 222 148 15 7 324 145h34q13-14 13-36zM2523-367q0-43-34-73-30-29-64-29-32 0-69.5 33t-37.5 69q0 41 37 68l70 46q10-10 73-56 25-17 25-58zM2645 268q0-168-75-232t-258-64q-81 0-134 13-21 5-75 37-49 31-62 31-10 0-62-30-56-33-75-38-115-34-196-34-188 0-252 91-52 74-84 332-6 13-23 37-98-57-136-120-9-14-5-58 5-88-41-227-28-82-207-160-158-69-245-69-136 0-237 56-137 77-137 230 0 80 46 165 51 92 134 142 25-24 25-41 0-10-51.5-90.5t-51.5-93.5q0-90 122-149 91-45 160-45 78 0 206 42 136 44 165 88 13 21 13 75 0 93-51 168t-51 98q0 28 23 70t43 42q13 0 56.5-20.5t56.5-20.5q74 0 109 45 60 76 95 99 5 0 32-16 23-61 54-230 25-140 62-194 56-82 175-82 32 0 112 19 87 20 93 36-38 57-87 57-12 0-27.5-5t-25.5-5l-3 3q-10 9-10 27 0 24 49 79 46 51 66 61 94 45 186 45 49 0 123-40 88-50 88-109 0-10-23-54-25-47-30-66 72-18 129-18 200 0 200 72 0 12-61.5 102t-61.5 103q0 19 21 64 22 48 35 48 42 0 103-83 56-78 56-183zM2143-320q0-62-116-101-25-9-112-41-99-39-290-99-24 25-24 36 0 47 34 63 106 46 277 108 165 60 185 60 46 0 46-26zM812 647q0-33-32.5-67.5t-54.5-34.5q-28 0-73 34.5t-45 52.5q0 23 31 63 33 44 67 44 43 0 75-30t32-62zM1549-305q0-39-32-67-30-25-59-25-14 0-54.5 15t-53.5 15q-10 0-42-30.5t-55-30.5q-26 0-102 73-6 20 27 70 35 52 64 52 10 0 42-15.5t46-15.5q12 0 43 30.5t44 30.5q38 0 87-42 45-40 45-60z" glyph-name="uniFB66" horiz-adv-x="3586" unicode="&#xfb66;"/><glyph arabic-form="final" d="M2390 1377q0-44-157-121-170-85-503-252h-35q-12 1-12 25 0 17 23 50t41 42q571 281 577 281h52q14-1 14-25zM1570 1398q0-45-218-167-154-82-308-165h-46v43q-2 34 32 53 445 261 475 260h53q12-1 12-24zM1345 599q0-34-44-73-40-34-58-34-50 0-103 76 63 118 108 118 19 0 58-34t39-53zM2604 287q0-124-23-176-34-81-136-81-11 0-61 10.5t-62 10.5q-10 0-46-26-39-28-54-32-45-13-99-13-13 0-79.5 15t-79.5 15q-11 0-50-16-42-18-61-21-71-13-206-13-64 0-140 22-88 27-128 70-13-4-41-36-32-35-47-43-95-54-187-54-99 0-152 37-61 43-135 177-36-40-126-73-85-30-145-30-49 0-108 20-76 25-76 62 0 72 95 154 48 42 179 126 97 63 101 85 3 63 16 187h46q37-53 62-219 26-173 66-240 66-113 218-113 82 0 158 66.5t99 66.5q1 0 98-46t224-46q128 0 186 32 18 10 41 55 27 52 53 76h35q21-59 2-146 18-17 62-17 126 0 160 49 14 47 58 139 13 20 52 37 38-10 38-34 0-13-10.5-38t-10.5-35q0-57 81-57 14 0 41 27-20 62-20 86 0 64 53 153 8 0 34-15 25-87 25-158zM863 916q0-40-42-71-35-26-60-26-11 0-37 10.5t-39 10.5-51.5-31-51.5-31q-29 0-63 29.5t-34 52.5q0 31 34.5 67t57.5 36q11 0 37.5-10.5t39.5-10.5 51.5 35.5 50.5 35.5q21 0 64-38t43-59zM781 247q0 45-12 70h-42q-10 0-170-96l25-27q7 4 97 12 73 8 102 41zM1111 1655q0-44-27-58-149-74-440-218-8 4-16.5 9t-8.5 21q0 57 85 105 66 30 133 61 77 41 226 110h35q13-13 13-30zM824 1360q0-77-446-246-14 12-24 12v43q-1 35 173 116 243 112 250 116h34q13-14 13-41z" glyph-name="uniFB67" horiz-adv-x="2619" unicode="&#xfb67;"/><glyph arabic-form="initial" d="M2150 1606q0-43-85-87-61-27-123-54-89-49-271-129 0 3-6 11.5t-6 23.5q0 41 53 72 335 189 373 188h52q13-1 13-25zM1996 981q0-36-33-68-31-28-59-28-11 0-37 10t-40 10q-13 0-54-25.5t-53-25.5q-33 0-101 41-7 40 29 86.5t66 46.5q12 0 41.5-10t40.5-10q13 0 51.5 30.5t51.5 30.5q37 0 67-27t30-61zM2089 285q0-171-95-242-82-59-259-59-9 0-33.5-1t-38.5-1q-148 0-186 128-57 195-107 582-39 307-39 371 0 38 44 149 54-30 71-168 23-201 47-401 30-233 66-397 10-48 84-76 60-23 118-23 61 0 135 19 100 27 100 68 0 34-36 67-81-82-128-82-46 0-96 61-47 58-47 98 0 58 50 160 60 121 125 121 84 0 162-177 63-143 63-197zM1116 1606q0-55-228-172-28-14-157-91-99-59-113-58h-44v44q-1 40 194 141 275 144 300 161h35q13-1 13-25zM1136 203q0-74-25-158-30-104-80-130-205-105-289-105h-92q-116 0-207 74-95 77-95 182 0 59 47 157 50 105 101 129 26-13 26-41 0-12-36-80t-36-79q0-91 115-137 76-31 152-31 77 0 167 28 101 33 147 82 13 14 13 79 0 70-51 294-30 124-58 247-9 104-38 287-3 9-21 33-16 20-16 35 0 43 28 129 31 93 58 106 28 0 43-24 3-138 95-161 0-66-23-129-1 0-45-52-3-7-3-28 0 12 61.5-312t61.5-395zM1883 416v44q-17 13-46 36-12-7-35-24v-35q34-34 51-34t30 13z" glyph-name="uniFB68" horiz-adv-x="2096" unicode="&#xfb68;"/><glyph arabic-form="medial" d="M2154 1401q0-51-25-69-162-120-438-256h-34q-13 13-13 30 0 46 207 165 161 92 279 142 15-12 24-12zM1163 1229q0-48-46-127-44-76-71-85-39-9-113-27-8-3-59-23-40-15-54-15-67 0-67 82 0 77 64 153 6 0 24-5.5t24-5.5q0-9-5-38t-5-46q7-7 21-7 25 0 57 56 36 67 51 77 27-42 25-75 18-17 33-17 27 51 85 144 10-8 21-15 15-11 15-26zM2125 220q0-165-119-350-127-197-265-197-160 0-400 33-55 8-55 33v33q23 24 50 24 14 0 75-10.5t74-10.5q69 0 254 64 64 21 177 134 117 119 117 175 0 12-66.5 91.5t-66.5 93.5q0 26 22 117h57q146-115 146-230zM1552 301q0-33-31-108-31-71-44-77-104-52-164-73-94-30-267-56-186-27-329-27-466 0-466 250 0 127 116 230h35q13-13 13-30 0-11-25.5-60.5t-25.5-62.5q0-54 78-104 58-37 102-48 55-12 209-12 144 0 157 2 154 29 306 57 213 46 213 89 0 11-61.5 81t-61.5 83q0 11 25 64 26 57 41 64 86-33 137-125 43-74 43-137zM968-225q0-32-42-69-39-33-66-33t-96 42q-1 6-1 13 0 45 34 87 32 42 63 42 43 0 75.5-24.5t32.5-57.5zM1183-394q-15-31-55-74-373-146-402-146h-42l-13 12v59q17 15 44 37 65 17 243 81 160 57 170 57h31z" glyph-name="uniFB69" horiz-adv-x="2139" unicode="&#xfb69;"/><glyph arabic-form="isolated" d="M3893 1863q0-75-579-317-15 0-23.5 5.5t-11.5 5.5v34q-1 34 238 148 290 139 329 165 47-23 47-41zM3882 1336q0-39-44-54-33-10-185-65-111-39-125-39h-44q0 10 14.5 40t14.5 41q0 9-20.5 38t-20.5 44q0 54 88 118 77 57 112 57 87 0 87-77 0-19-51-71 45-11 150 3 24-23 24-35zM3861 210q0-55-43-117h-37l-134 930q0 54 42 185h37q6-7 19-24 34-200 93-595 23-194 23-379zM2725 993q0-32-33.5-67.5t-58.5-35.5q-28 0-70.5 34t-42.5 59q0 23 24 58 28 44 63 44 33 0 73-27 45-30 45-65zM3534 282q0-12-8.5-39.5t-9.5-43.5q-3-160-140-324-146-172-308-172-10 0-87 5.5t-92 5.5q-36 0-124 23-93 24-101 42 0 47 46 47 13 0 92.5-10t91.5-10q331 0 517 342 4 6-5 16-43-31-87-31-74 0-114 67-29 51-29 117 0 114 105 256 15 3 31 3 73 0 131-80 24-32 77-140 14-31 14-74zM2930 358q0-177-150-365-156-197-326-197-20 0-206 12-67 5-157 41v36q29 34 51 34 12 0 68.5-10.5t69.5-10.5q137 0 263 74 38 35 115 105 39 25 106 84 64 80 64 115t-52 94q-71 82-78 93-4 6-4 49 0 82 52 82 60 0 127-104 57-90 57-132zM2715-343q0-56-242-155-163-68-296-106-14 11-24 11-9 71 32 91 96 48 250 104 128 45 256 91 24-24 24-36zM1271 747q0-32-35-67t-62-35q-55 0-81 44-16 26-16 48 0 26 20 59 25 44 67 44 28 0 67.5-34t39.5-59zM2316 410q0-104-372-209-46-16-144-45-96-23-211-23-107 0-127 3-62 11-138 61-12 9-52 60-30 40-57 40-32 0-100-36-79-41-79-82 0-33 89-68 75-29 111-29 12 0 20 5t21 5q61 0 108-37 50-39 50-95 0-175-341-282-244-77-411-77-187 0-310 71-156 89-156 272 0 176 146 301h36q12-1 12-25 0-13-41-77t-41-77q0-144 126-233 109-78 248-78h62q101 0 285.5 58.5t210.5 99.5q-4 3-18 12l-198 30q-163 40-163 157 0 42 55 111 69 86 171 160 110 77 174 77 43 0 69-31 54-63 62-69 55-45 110-61 31-1 91-12 24 6 24 23 0 6-9.5 31.5t-9.5 43.5q0 11 4 21 19 77 77 177 82 144 169 171 46 14 78 14 57 0 150-77 42-40 85-79 0-39-35-39-8 0-55.5 25.5t-98.5 25.5q-58 0-144-42-96-47-96-96 0-40 55-99t88-59q77 0 194 46 101 43 201 86 25-24 25-50zM882 793q0-39-52.5-92.5t-151.5-86.5q-93-31-179-31-13 0-78.5 15.5t-75.5 15.5q-13 0-59-32-53-39-78-49v34q-1 31 74 107 71 73 88 73 13 0 84.5-25.5t85.5-25.5q63 0 163 36 113 41 141 86 38 0 38-25zM1589-358q0-44-43-68-336-189-384-188h-52q-13 2-13 25 0 55 55 83 128 53 389 178h35q13-13 13-30zM3650 1368l-24 37-14-10 24-36zM3370 320q-12 71-69 79-24-48-22-59l66-33q23 0 25 13zM2203 1464q0-57-166-141-149-74-192-74-41 0-41 41 0 16 46 48 39 26 77 52 6 23-37 23-39 0-121-61l-57 13q101 160 230 160 13 0 100-12 107-16 149-20 0-3 6-8.5t6-20.5zM3358 1213q0-57-166-141-149-73-192-73-41 0-41 41 0 15 46 47 39 26 77 53 6 22-36 22-40 0-122-61l-57 13q102 161 230 161 13 0 100-13 107-15 149-20 0-3 6-8.5t6-20.5z" glyph-name="uniFB6A" horiz-adv-x="3867" unicode="&#xfb6a;"/><glyph arabic-form="final" d="M1435 1631q-15-30-47-74-18-13-201-99-110-54-321-139-14 14-14 30 0 71 237 156 144 83 320 151 1 0 26-25zM1415 1125q-25-18-129-60-56-22-56-84l103-881q0-54-33-152-22 0-34-11-29 30-33 86-11 170-46 408-48 325-57 391-2 26 3 76 6 66 6 85 2-1-112-1 0 8 9.5 30t9.5 35-20.5 41.5-20.5 40.5q0 40 67.5 115t111.5 75q30 0 65-33 33-30 33-49 0-12-17-38-23-35-25-37 20-10 161 3l14-12v-28zM698 1380q0-65-148-141-126-64-165-63h-52l-13 12v27q56 38 153 119-4 5-41 5-31 0-61-23-60-48-78-59l-25 25q60 106 109.5 143t131.5 37q9 0 92-22.5t86-24.5q11-8 11-35zM677 576q0-38-42-70-38-27-65-27-20 0-52 16-45 20-45 51 0 29 35.5 73.5t56.5 44.5q26 0 69-33.5t43-54.5zM1046 85q0-291-269-377-150-47-191-47h-98q-40 0-131.5 59t-105.5 97q-34 84-34 110 0 144 158 337 26-26 26-51 0-13-36-84.5t-36-84.5q0-107 98-165 75-45 168-45 97 0 208 41 141 53 141 133 0 12-61.5 165t-61.5 163q0 47 44 111 40 0 54-32 23-35 61-114 66-184 66-216zM1178 1167q0 4-35 39l-14-39h49z" glyph-name="uniFB6B" horiz-adv-x="1347" unicode="&#xfb6b;"/><glyph arabic-form="initial" d="M3442 1740q0-16-12-30-7-9-15-17-431-229-451-228h-54v54q-1 22 33 43 286 115 473 219 26-25 26-41zM3410 1244q-5-12-14.5-26.5t-11.5-15.5q-107-49-327-137-14 11-24 11v33q0 7 40 53-52 45-52 82 0 40 74 115t121 75q38 0 67-34 25-28 25-48 0-18-23.5-40t-42.5-22q2 0-81 21l-17-16q54-36 82-36 14 0 56 6t64 6q50 0 64-27zM3401 246q0-86-25-212-10-17-30-43-5 0-18 5t-18 5l-104 935q0 24 54 158h37zM2694 1290q0-47-157-130-140-75-165-75-15 0-28.5 6t-16.5 6v47q44 22 132 81-22 34-62 34-20 0-116-70h-37v43q0 16 52 66 49 49 83 69 25 15 59 15-8 0 222-45 34-21 34-47zM2684 881q0-31-34-67t-59-36q-39 0-67 25-25 23-25 51 0 19 26 64 30 54 61 54 26 0 62-35t36-56zM2817 706q0-18-43-60t-65-42q-20 0-82 41-107-72-112-72-28 0-62.5 32t-34.5 50q0 31 39 68 37 35 58 35 12 0 43.5-15.5t43.5-15.5q22 0 63 67 2 0 3 1 9 4 31 4 32 0 75-31.5t43-61.5zM1414 1546q0-27-16.5-49t-34.5-22q-10 0-43 25t-49 25q4 0-204-133t-236-133q-15 0-26 6t-14 6q0 18 2 27 229 151 365 265-9 27-48 47-33 15-33 64 0 59 62 136 68 85 141 85 10 0 19-2 33-33 40-54 28-101-4-185 79-86 79-108zM3042 282q0-57-31-136-36-95-81-95-14 0-98 20.5t-97 20.5q-12 0-34-27-25-33-40-41-62-34-121-34-13 0-92 15t-92 15-53-15q-52-19-63-23-80-22-196-22-178 0-279 49-68 34-177 143-142 143-253 226h-18l-9-7q0-17 8-70 6-47 6-60 0-35-17-107-19-81-37-90-41-20-125-44h-89q-55-2-82-23-24-19-56-99-41-100-59-131-156-259-461-259 5 0-312 64 0 4-5.5 22.5t-5.5 23.5q24 23 82 23 13 0 107.5-10t107.5-10q92 0 275 133 196 144 196 251 0 11-36 57t-36 60q0 25 13 61 16 42 33 42 12 0 32-12 24-14 31-17 40-12 126-12 89 0 121 7 36 9 106 49-23 101-145 276-99 144-200 253-25 26-25 111 0 114 138 254 36 38 244 141 288 143 625 276 88 35 310 97 25-25 25-46 0-20-16-53-17-40-38-52-79-25-226-78-112-45-634-280-87-38-173-76-142-72-142-127 0-13 160-156 152-135 274-232 67-55 176-170 99-107 153-144 87-61 184-61 11 0 81-10t83-10q140 0 212 43 10 6 50 77 36 63 66 64 27-16 27-44 0-16-11-53t-11-56q0-30 25-34-19 3 47 3 137 0 181 60 20 27 47 95 32 78 50 110h36q15-24 15-53 0-17-6-45t-6-38q0-37 66-37 42 0 67 27-31 123-31 117 0 33 44 122 24-11 50-44 23-29 25-42 14-113 14-123zM799 1637q-6-35-26-87-141-84-427-239-10-2-24 11t-14 30q0 48 34 67 138 68 410 218h47zM1259 1691v56q-21 24-35 24-21-11-45-58 45-22 80-22z" glyph-name="uniFB6C" horiz-adv-x="3411" unicode="&#xfb6c;"/><glyph arabic-form="medial" d="M3693 821q0-30-40-68-36-35-52-35-25 0-69 36.5t-44 56.5q0 11 30 58 33 54 58 54 46 0 84-42 33-35 33-60zM3324 1323q0-34-63-75-36-33-104-77-169-53-186-53-9 0-56 23 6 33 73 62 85 36 111 63-22 26-51 26-33 0-106-71h-36v34q-1 27 66 85 56 49 79 60 9 5 48 5 21 0 202-46 23-15 23-36zM2658 1398q-14-36-63-62-194-102-400-196h-37v54q-1 36 95 83 358 178 361 178h44v-57zM4000-64q0-72-487-240-14 14-14 35 0 17 14.5 42t29.5 31q41 15 240 97 147 60 162 60h43q12-1 12-25zM1992 1376q-150-96-432-237h-35q-13 13-13 30 0 47 36 67 138 69 408 208h36v-68zM3857 211q0-27-66-155-15-28-105-54-78-20-121-20h-97q-23 0-80 16-66 18-92 38-7 6-38 47-25 32-41 32-12 0-42-21-34-24-48-28-198-64-289-64-11 0-66.5 10t-66.5 10q-35 0-49-25t-68-25q-89 0-175 27-110 35-130 96-16-5-48-36-40-37-50-43-51-34-115-34-56 0-199 81-13 0-45-24-38-28-51-34-124-54-201-54-126 0-186 45-68 47-107 180-57-101-286-174-191-61-327-61-144 0-259 54-156 72-156 216 0 52 46 151 51 110 101 130h47q-71-168-71-183 0-32 32-85 34-54 67-66 147-54 152-54h107q115 0 362 75 8 2 102 50 25 13 45 47 14 22 14 99l-62 584q0 60 43 168h37q43-161 64.5-462t62.5-452q12-44 99-70 67-18 134-18 77 0 153 46t108 46q13 0 112.5-36t113.5-36q79 0 191 123t157 123q10 0 77-67 74-75 110-95 25-14 96-34 67-19 85-19h72q25 0 169 48-14 31-51 37-30 4-60 9-12 0-12 23 0 18 37.5 66t76.5 78q20 15 94 42 40 14 64 14 70 0 140-26 100-38 100-107 0-68-82-150 0-8 18-22 73-32 166-32 129 0 174 36-10 37-54 130-38 82-38 94 0 39 45 128 74-38 121-157 39-98 39-176zM1973 693q0-34-43-73-40-34-65-34-10 0-37.5 15t-44.5 15q-12 0-50.5-25.5t-51.5-25.5q-28 0-64 34-33 31-33 48 0 23 35 67.5t52 44.5q13 0 46-20.5t46-20.5q10 0 45.5 31t51.5 31q25 0 69-33.5t44-53.5zM1163 1356q-477-269-496-268h-65v33q-1 40 226 157l288 146h47v-68zM1041 714q0-32-43-77-38-41-49-41-14 0-27.5 5t-16.5 5l-17-16q20-21 84-66 28-19 28-61 0-66-64-127-60-57-110-57-83 0-151 44-16 20-52 61v58q17-7 91-44 57-28 71-28 33 0 62 17l-68 44q-34 25-34 67 0 52 77 157 85 115 153 115 23 0 44.5-17t21.5-39zM2495 189q-12 12-27 33t-18 25q-33-16-36-48 14-10 81-10z" glyph-name="uniFB6D" horiz-adv-x="3867" unicode="&#xfb6d;"/><glyph arabic-form="isolated" d="M1885 1878q0-94-475-296h-36v33q0 42 196 146 277 147 278 147 37 0 37-30zM1824 1575q0-68-62-131-58-57-127-72-12-2-45-21-29-16-48-16-67 0-67 62 0 46 45 111 30 0 56-51 31-6 49 40 13 37 27 73h36q4-24 19-61 36 16 67 101h38q0-4 6-12t6-23zM2356 1473q0-75-75-140-31-27-130-87 26-143 75-482 59-411 59-525 0-84-34-182h-37q-29 304-142 1006-1 8-1 18 0 22 11 71 12 56 14 81-32 30-47 30-12 0-49-32-40-33-61-39-13 2-13 25 0 17 42 74t73 80q18 1 50 16l84 106q45 57 99 57 82 0 82-77zM1363 756q0-21-34-64t-48-43q-13 0-46 20.5t-46 20.5-54-31-54-31q-33 0-65 26.5t-32 55.5q0 25 33.5 69t48.5 44q13 0 54-20.5t54-20.5q12 0 43 31t44 31q34 0 69-32 33-30 33-56zM1875 352q2-17 2-33 0-128-110-203-90-61-199-61-129 0-209 45-44 25-93 84-39 45-67 45-25 0-74-45.5t-49-61.5q0-39 38-55 67-26 177-38 76-8 133-57 14-204-253-329-210-100-427-100-117 0-226 53-143 69-172 197-17 73-17 58 0 69 51 184 56 126 116 162h37v-36q0-9-45.5-85.5t-45.5-91.5q0-129 127-210 103-67 210-67h67q85 0 233 53 151 54 171 96l-9 9q-81 18-162 37-136 42-136 138 0 70 115 207 122 146 208 146 31 0 66-40 54-61 101-92.5t176-31.5q62 0 70 3 20 6 104 55-18 173-38 347-25 200-58 326-8 28-30 51-18 17-18 52 0 122 86 231 37-14 45-82 8-72 73-104-15-68-40-198zM841 659q0-86-177-149-130-46-186-46-12 0-76.5 20.5t-77.5 20.5q-10 0-50-31-43-33-61-39 45 193 136 193 11 0 78.5-25t80.5-25q49 0 133 27 105 35 152 85h34q14-13 14-31zM1690-360q2-46-53-73-358-177-383-177h-63q-12 2-12 26 0 50 149 122 80 35 160 69 64 28 177 80 14-12 25-12v-35zM2273 1445q-5 0-23.5 6t-23.5 6q-18-36-27-69 57 22 74 57z" glyph-name="uniFB6E" horiz-adv-x="2291" unicode="&#xfb6e;"/><glyph arabic-form="final" d="M4258 1761q-3-46-179-141-143-70-285-141h-35q-13 1-13 25 0 99 476 271 22 0 36-14zM4216 1344q7-71-101-109-188-67-200-74-12 7-33 24 4 11 4 21 0 18-18.5 51t-18.5 52q0 41 66 115t113 74q20 0 53.5-26t33.5-45q0-24-25-53t-36-29q-34 0-67 31l-15-16q20-35 86-35 3 0 158 19zM3643 1380q-18-27-113-90-101-68-138-67h-53q-12 1-12 25 0 20 39 47 58 39 63 45-28 26-56 26-33 0-114-41-14 1-14 25 0 16 43 66 41 46 62 58 27 14 64 14 13 0 97-17 98-20 132-25v-66zM4167 285q0-43-15-174-2-17-40-55-17 0-35 23-2 259-23 421-72 558-72 522 0 13 18 74 21 72 25 94h38zM3624 874q0-39-54-74-42-28-64-28-41 0-97 53 6 27 30 70 35 61 72 61 24 0 68.5-35t44.5-47zM3091 1473q0-57-122-131-79-41-157-82-164-99-279-150-15 11-24 11v44q-1 34 86 82 50 24 100 49 118 66 349 202h35q12-1 12-25zM2385 1284q0-9-16-49-260-167-298-165h-74v47q50 26 153 91-7 25-41 25-16 0-66-28-74-43-77-43v33q-1 37 72 105 72 66 106 66-12 0 217-45 24-15 24-37zM3798 275q0-158-84-224-72-57-223-57-109 0-192 33-12 5-61 50-43 39-65 39 3 0-106-37-51-18-213-46-170-29-244-29-10 0-44.5 5t-52.5 5q-71 0-79.5-3.5t-41.5-26.5q-28-20-43-20-104 0-237 33-15 4-91 78-122-91-205-91-65 0-113 45.5t-65 45.5q-12 0-55-33-49-37-71-45-291-105-407-105-10 0-131.5-5t-134.5-5q-155 0-294 70-177 88-177 241 0 62 52 150 54 94 108 112l24-26q-51-102-51-138 0-236 445-236 299 0 593 105 41 14 68 70 33 71 55 91 30 0 47-35-20-62-18-91 17-26 76-48 55-20 96-20 88 0 185.5 128t156.5 128q32 0 87-61 72-78 90-91 78-53 315-53 223 0 354 69-18 38-49 38-57 0-41-4-13 13-13 30 0 18 30 61 32 46 65 67 68 46 171 46 55 0 129-34 96-42 96-104 0-17-61-132 33-39 75-46 7-1 74-1 136 0 169 36 0 40-56.5 145.5t-56.5 110.5q0 25 22.5 66t44.5 41q57 0 107-130 41-106 41-162zM1392 1345q0-60-26-81-143-108-613-389h-44q-13 13-13 40 0 51 43 77 356 220 605 394h35q13-14 13-41zM1290 598q0-44-45-77-35-25-58-25-11 0-35.5 10t-36.5 10-58.5-30.5-58.5-30.5q-29 0-65 33-33 31-33 49 0 32 45 68 41 34 63 34 11 0 40-15.5t42-15.5 43.5 36 43.5 36q37 0 75-29t38-53zM2200 169v46l-25 24q-24-24-24-49 5 0 24-10.5t25-10.5z" glyph-name="uniFB6F" horiz-adv-x="4172" unicode="&#xfb6f;"/><glyph arabic-form="initial" d="M1956 1457q0-41-181-151-173-105-266-130-13 1-13 25 0 61 53 93 335 199 366 199 41 0 41-36zM1394 1549q-1-19-16-55-27-33-87-66-47-26-95-51-94-58-237-130-15 11-26 11v44q0 19 403 262 24-3 58-15zM2151 443q0-96-184-219-170-113-261-113-12 0-28-10.5t-29-10.5q-94 0-195 28-126 35-159 95l-12-16q10-52-13-153 24-22 112-51 62-20 62-71 0-22-15-69-18-54-41-79-51-54-184.5-124.5t-223.5-88.5q-113-23-206-23-131 0-259 74-156 91-156 233 0 81 51 179t117 147q37 0 37-35 0-36-90-155-2-8-2-34 0-122 147-193 109-53 206-53 9 0 72 5t76 5q36 0 149 56 105 52 128 72-22 18-140 53-33 5-65 9-61 15-61 46 0 59 98 97.5t99 61.5q0 14 4 52.5t4 48.5l-62 819q0 127 67 191l17-14q24-110 64-403 31-225 63-304 18-48 36-95 30-66 77-96h38q-4 26 0 69 19 20 44 61 56 155 115 225 72 85 176 85 131 0 235-136 0-36-47-58-85 61-137 61-64 0-146-52-90-59-90-122 0-44 50-104t83-60q7 0 218 104 31 16 102 90h46q13-1 13-25zM932 1006q0-57-177-152-108-54-215-109h-34l-24 26q14 33 44 76 118 61 359 195h34q13-14 13-36zM932 658q0-20-23-87-25-71-40-79-164-74-228-74-61 0-87 44l20 86q18 61 59 74 24-49 23-64 7-7 21-7 23 0 74 101 31 0 56-51h26q18 39 63 113 36-18 36-56z" glyph-name="uniFB70" horiz-adv-x="2156" unicode="&#xfb70;"/><glyph arabic-form="medial" d="M2856 1349q0-43-120-114-69-37-138-73-100-58-122-69-75-40-127-51-14 14-14 36 0 57 103 111 78 35 155 70 55 31 239 121l16-10t8-21zM1955 1375q0-68-423-291h-35q-13 13-13 30 0 89 447 297 24-25 24-36zM1382 1467q0-42-121-121-68-41-137-82-103-64-219-129-15 14-15 35 0 58 86 111 60 35 122 70 88 56 259 162 25-25 25-46zM2825 228q0-121-98-282-102-167-232-241-54-31-134-52-11-3-108-3-145 0-346 52l-12 12v37q28 32 55 32 14 0 80-5t79-5q176 0 228 23 82 35 186 123 117 101 170 197 4 5-6 15-49-31-81-31-47 0-103 52t-56 96q0 54 50 155 63 127 139 127 78 0 139-123 50-102 50-179zM2099 443q0-90-184-216-159-109-210-114-24-2-104-14-67-9-81-9h-56q-33 0-111 61-67 53-88 82-17-35-37-127 38-29 101.5-41.5t81.5-25.5q32-26 32-97 0-131-304-249-246-94-351-94-143 0-257 71-142 87-142 246 0 55 49 151 52 103 108 145h35q13-13 13-30 0-13-27-51-39-52-43-59-12-20-12-69 0-132 127-195 90-45 205-45 100 0 253 52t182 95q-26 13-127 34-90 18-128 47v55q42 22 110 83 54 81 54 201l-62 646q0 79 54 178 50-2 50-130 0-11 1-17 14-114 51-338 20-105 40-212 37-132 113-153 17 147 90 285 90 166 205 166 149 0 245-137v-36q-4 0-14.5-5.5t-25.5-5.5q-11 0-57.5 30.5t-60.5 30.5q-61 0-148-52-103-61-103-132 0-57 49.5-115.5t104.5-58.5q60 0 169 77 88 62 161 138h36q13-13 13-46zM911 505q0-11-11-64-11-58-14-81-19-33-37-45-14 64-44 168-12 31-59 110-40 67-40 80 0 15 23 62h46q45-27 90.5-103t45.5-127zM2661 297v36q-43 43-58 43-23-23-23-37v-42q41-20 81 0z" glyph-name="uniFB71" horiz-adv-x="2831" unicode="&#xfb71;"/><glyph arabic-form="isolated" d="M3687 1380q-33-52-181-140-192-114-252-162h-48v43q0 51 196 170 108 61 217 124h44q7-13 24-35zM3062 632q0-81-36-135-6-1-32-14-13 28-16 78-4 56-11.5 79.5t-55.5 93.5q-43 64-43 77 0 25 17 48t34 23q56 0 104-102 39-88 39-148zM2325 1375q-140-77-423-236h-34q-13 13-13 35 0 47 25 62 127 64 387 199h45l13-12v-48zM3605 242q0-70-35-165-30-36-75-103-134-268-448-268-50 0-342 53v46q23 23 56 23 12 0 94-10t95-10q139 0 301 102 177 110 234 264v13q-74-52-105-52-71 0-113 76-30 54-30 98 0 61 54 154 59 102 119 102 76 0 141-147 54-120 54-176zM2715 202q0-230-175-230-168 0-273 184-16-3-38-27-20-21-39-41-46-44-159-72-99-24-182-24-126 0-168 53 1 57 43 141h31q13 0 29-13t26-15 80-2q85 0 185 28 148 42 148 120 0 13-20.5 128t-20.5 128q0 72 33 189h36q27-166 54-331 68-283 261-283 29 0 46 16-16 274-86 787-1 15-19 55t-18 53q0 67 85 214h36q2-5 2-91 0-39 67-88 15-25 15-35 0-11-25.5-81t-25.5-83q0-12 36-339.5t36-340.5zM1117 1511q0-28-54-62-62-26-184-88-196-121-239-120h-43q-12 2-12 25 0 51 43 73 443 219 453 219 15 0 23-5.5t13-5.5v-36zM2868-387q0-47-44-68-323-157-382-156h-62q-13 13-13 30 0 45 82 79l104 36q100 45 290 120 25-25 25-41zM1056 1144q0-72-35-136-15-27-118-68-90-37-104-37-46 0-91 43 6 44 13 87 13 59 63 95 21-11 22-29v-36q2-10 11-17 29 0 47 50l20 72h47q5-27 19-81 26 14 34 38 11 37 23 74h35q14-13 14-55zM1588 718q0-32-16-68-20-44-45-44-12 0-48 31t-54 31q-52 0-167-91-120-94-120-150 0-108 220-108 12 0 30.5 5t31.5 5q25 0 60.5-35.5t35.5-60.5q0-63-65-177-41-71-272-146-221-72-364-72-99 0-218 68-133 76-149 172 0 1-13.5 19.5t-13.5 32.5q0 75 48 190 57 137 140 203 37 0 37-25 0-4-14-43-88-130-88-192 0-116 120-195 101-66 197-66 11 0 64 10t65 10q68 0 204 42 141 43 158 76-10 29-55 29-63-1-64 0-80 29-160 59-48 29-48 117 0 126 177 309 172 177 273 177 44 0 81-43 32-38 32-70zM3431 333q-29 58-58 58-23-24-23-38 33-34 55-34 24 0 26 14z" glyph-name="uniFB72" horiz-adv-x="3609" unicode="&#xfb72;"/><glyph arabic-form="final" d="M2138 1438q0-39-92-86-58-26-116.5-52t-289.5-129q-25 25-25 36 0 45 34 62 395 210 448 210 41 0 41-41zM1380 1760q0-55-54-84-162-86-382-177-14 12-24 12v43q0 28 187 125 169 86 258 117 15-15 15-36zM1410 1340q-13-24-44-53-166-66-300-106-6 7-21 23 0 1 14 53-38 46-38 73 0 49 75 115 72 64 115 64 29 0 52.5-22t23.5-44q0-67-66-67-6 0-28 6-14 4-38-2 37-24 102-24 49 0 130 19 5-4 11.5-17t11.5-18zM1390 326q0-134-44-239h-36q-15 263-46 515-11 81-46 262-33 164-33 174 0 60 55 153 42-21 57-106 7-67 13-133 14-51 36-154 44-312 44-472zM766 1340q0-72-172-161-151-80-208-80-14 0-59 23v37q71 24 213 100-13 15-46 15-28 0-111-61h-47q45 173 220 173 6 0 81-5.5t117-5.5q0-4 6-12t6-23zM2138 214q0-188-166-370-171-188-357-188-176 0-387 63-1 7-12 24 38 36 82 36 12 0 81.5-5t82.5-5q337 0 559 345 6 14 6 34-10-3-51-24-34-18-49-18-62 0-104 73-33 59-33 112 0 49 53 151 61 115 115 115 89 0 141-150 39-108 39-193zM735 674q0-33-43-72-39-35-60-35-43 0-81 36-31 29-31 46 0 29 29 69 32 44 63 44 34 0 81-42 42-36 42-46zM1093 147q0-12-16-55-19-49-22-63-21-96-121-152-32-18-172-64-70-24-135-24-157 0-259 57-125 69-125 209 0 52 50.5 156t96.5 140q37 0 37-25 0-8-35.5-91.5t-35.5-97.5q0-89 109-139 75-34 142-34 96 0 209 31 127 34 176 87 1 9 1 21 0 38-57 201-5 14-43 73-36 53-36 67 0 15 54 122 68-5 129-174 53-148 53-245zM1984 304v34q-34 34-58 34-23-23-23-48 33-33 50-33t31 13z" glyph-name="uniFB73" horiz-adv-x="2146" unicode="&#xfb73;"/><glyph arabic-form="initial" d="M2876 1717q-287-159-485-278h-34q-13 14-13 31 0 64 102 118l146 68q33 21 227 131h44l13-13v-57zM2866 1322q-38-50-147-96-84-31-168-63-4 18-35 71-29 49-29 62 0 47 72.5 110.5t121.5 63.5q27 0 60-22.5t33-38.5q0-26-41-67 16-15 30-15 10 0 90 20 5-12 13-25zM2272 1599q-17-84-133-161-97-65-179-81-14 12-25 12v37q88 69 133 91-21 24-52 24-59 0-84-50h-58v34q-1 14 48 69 53 59 88 66 10 4 27 4 195 0 235-45zM2927 149q0-54-54-122-28 0-45 23-23 227-68 595-8 51-41 223-27 145-27 157 0 56 54 147 30 0 44-23 61-362 65-390 36-233 44-390 2-35 16-124 12-85 12-96zM1688 1603q0-63-101-124-68-36-136-73-65-49-247-140h-35q-13 13-13 30 0 47 145 131 255 146 340 206h34q13-13 13-30zM1023 1557q0-53-125-121-140-80-413-222-25 25-25 36 0 53 54 83 206 114 462 249h35q12-1 12-25zM2538 542q0-50-122-114-90-49-138-61-2-1-204-71-75-26-230-83-7-207-192-207-116 0-195 82l-116-72q-75-40-138-40-88 0-147 33-20 20-76 49-18-147-45-215-44-112-140-147-26-19-81-55-79-44-228-44-136 0-243 81-111 82-111 191 0 89 32 156 25 55 115 175 37 0 37-30 0-13-35.5-90t-35.5-89q0-122 123-185 86-46 174-46 77 0 186 47.5t139 93.5q13 22 13 59l-93 988q0 31 23 100 22 66 33 73 37-6 49-74 2-8 11-114 9-114 45-296 11-88 20-177 22-135 71-209 68-102 194-102 98 0 170 64l104 118q61 64 131 64 25 0 79-14.5t87-14.5q25 0 49 7 0 3 5 5t5 17q0 9-26 47.5t-26 59.5q0 12 21 52 22 44 27 62 24 96 99 183 84 98 171 98 58 0 135-42 86-46 110-105 0-48-46-48-12 0-66 20.5t-66 20.5q-69 0-146-46-85-50-85-107 0-49 69-95 58-39 85-39 22 0 394 144 14-12 25-12v-46zM1719 183q-35 68-67 68h-75v-38q65-43 91-43 11 0 29.5 6.5t21.5 6.5z" glyph-name="uniFB74" horiz-adv-x="2935" unicode="&#xfb74;"/><glyph arabic-form="medial" d="M3315 1426q0-42-44-64-184-88-554-268h-34q-13 1-13 25 0 66 81 110l136 60q100 56 404 172 24-24 24-35zM2404 781q0-31-21.5-99t-33.5-80q-5 0-18 6t-18 6q-1-4-9 115-4 58-37 132-9 20-48 85-30 51-30 66 0 37 44 81 63-12 120-129 51-106 51-183zM1442 1534q0-45-27-59-149-73-440-218-9 5-17 10t-8 21q0 57 84 105l134 60q77 42 226 111h34q14-13 14-30zM3673 366q0-249-423-345-50-11-159-12h-55q-122 0-176-14-19-6-51-72-29-62-98-67v44q0 11 17 41 20 37 24 47-13 17-28 28-59 33-105 33-13 0-40-15-31-19-46-23-157-43-339-43-151 0-256 163-68-90-185-118-63-15-189-15-190 0-202 45-6 23-15 172-43 18-105 18-58 0-267-92t-337-92q-143 0-187 95-51 112-72 339-54 597-54 652 0 99 67 153 30-30 32-56l34-450q21-272 54-450 6-30 64-89 64 82 129 163 98 124 173 124 13 0 84-26 90-35 117-43 239-74 317-74 64 0 164 20 25-24 25-41 0-56-53-108-18-19-77-28-2-2-14-13v-19q26-19 107-34 66-12 93-12 23 0 99 18 90 22 134 45 39 20 39 85l-93 685q-2 10-2 19 0 50 67 99 12 0 33-34 26-183 68-523 39-360 148-392 42-13 162-13 189 0 243 33 29 17 63 73 38 59 62 78 36-14 36-60 0-34-20-57 9-9 72-28 61-19 72-19 8 0 262.5 184.5t335.5 184.5q73 0 159-51 92-55 92-113zM1155 1206q0-77-446-246-15 12-24 12v43q-1 35 173 116 243 112 249 116h35q13-14 13-41zM2209-135q0-51-80-95-48-20-97-41-99-50-300-140-5 5-17 11.5t-17 11.5q-3 51 25 68 148 72 439 225h36q0-4 5.5-14.5t5.5-25.5zM3509 301q-92 55-148 55-110 0-312-170l149-14q83 23 165 46 109 34 146 83zM949 312q-13 5-50 31-33 23-46 23-36 0-95-37-64-41-64-80 0-25 12-25h35q36 17 72 26 40 10 81 20 46 15 55 42z" glyph-name="uniFB75" horiz-adv-x="3683" unicode="&#xfb75;"/><glyph arabic-form="isolated" d="M3898 1577q0-47-209-166-196-111-227-110h-43q-12 1-12 24 0 44 33 63 139 69 411 219h34q13-14 13-30zM3786 977q0-28-43-59-37-28-54-28-12 0-41.5 10.5t-40.5 10.5q-13 0-46.5-30.5t-45.5-30.5q-30 0-64 29t-34 52q0 25 34 69t53 44q13 0 46.5-20t46.5-20q12 0 45 30.5t47 30.5q29 0 63-33t34-55zM3315 1469q0-58-146-143-132-77-177-77-22 0-46 24 4 29 62 66 88 55 92 59-13 15-62 15-42 0-60-10-32-25-66-51h-47q9 63 81.5 123.5t138.5 60.5q13 0 87-13 93-15 132-20 0-3 5.5-11t5.5-23zM2670 1459q0-63-64-94-154-73-462-228h-36v44q-1 48 212 155 274 138 302 158h35q13-13 13-35zM3848 323q0-39-19-111-22-83-45-96-48-28-128-45-65-12-130-23-27-6-39-46-6-24-13-50-192-361-420-361-85 0-223 33-175 42-170 99 40 0 148-10t117-10q7 0 116 23 95 21 203 111 51 44 106.5 114t55.5 90q0 11-23 30-29 25-35 34-13 20-13 54 0 30 44 97 15-5 70-25 45-16 59-16 47 0 124 18 101 24 101 59 0 13-45.5 92t-45.5 92q0 20 11 53 16 44 40 44 55 0 108-115 46-95 46-135zM2547 711q0-44-43-74-34-23-65-23-23 0-65 26.5t-42 45.5q0 23 35 66 37 47 62 47 32 0 75-31.5t43-56.5zM1114 1244q0-18-16.5-37t-35.5-19q-12 0-45.5 15t-46.5 15-43-30q-41-41-51-48-98-71-268-147l-46 11v39q77 49 153 99 133 90 133 122 0 6-31 45t-31 73q0 66 47 132 53 75 126 75 14 0 29-3 55-42 55-137 0-28-9-90 4-6 50-55 30-31 30-60zM3079 389q0-30-43-118-48-93-82-115-102-61-270-105-158-41-270-41-12 0-89 5t-90 5q-36 0-67-81-34-90-56-102-15 14-15 41 0 18 9 60t9 61q0 8-1 14-42 33-117 96 6 3-18 3-21 0-81-61t-119-61q-12 0-114.5 25.5t-115.5 25.5q-12 0-71-29-68-32-91-39-41-13-125-13-140 0-224 49-86 51-145 175-122-102-220-102-43 0-127 23t-108 40q16 94 98 176 49 48 160 121 102 67 129 99 8 10 22 106 13 92 56 131l18-13q9-27 9-120 0-36 36-202 38-173 57-200 45-65 98-87.5t168-22.5h74q54 0 122 42 24 16 45 55 29 56 37 66h37q0-42 3-125 28-28 126-28 94 0 146 37 13 9 65 69 32 38 76 38 31 0 81.5-51.5t133.5-51.5q13 0 13-5t13-5q8 0 200 136 218 154 272 187 59 35 127 35 45 0 127-44 92-50 92-99zM1339 711q0-68-36-125-4-7-20-23-32 10-34 70-5 95-6 98-21 79-109 221 0 20 19.5 51t37.5 31q73 0 117-157 31-107 31-166zM2905 315q-87 43-138 43-53 0-152-64-90-59-129-108h44q59-4 239 42 41 20 121 52 15 30 15 35zM948 1383v58q-40 21-59-1 0-29 59-57zM867 299q0 64-11 99h-35q-128-72-199-128 99-24 118-24 75 0 127 53z" glyph-name="uniFB76" horiz-adv-x="3856" unicode="&#xfb76;"/><glyph arabic-form="final" d="M5114 1395q0-85-559-373-11 11-34 11v54q0 24 211 139 262 143 344 205 38 0 38-36zM4418 1846q-17-54-95-100-62-31-122-62l-298-168q-47-12-57-12 0 3-5.5 11.5t-5.5 22.5q0 47 25 63 119 73 300 171 184 99 203 99h32zM4407 1325q3-24-55-56l-88-48q16-49 38-142l95-825q0-158-44-204h-36l-155 1008q12 63 41 122-6 5-20 5-13 0-58-16-50-19-83-24-2 31-7 85-1 3-34 35-23 23-23 38 0 48 91 126 87 73 124 73 26 0 64-26.5t38-49.5q0-18-24-42t-42-24q-13 0-38 16-30 20-43 25-28-21-28-44 40-38 88-38-1 0 175 30zM5094 233q0-39-49-160-64-159-198-274-136-118-265-118-209 0-461 75 37 58 76 58 14 0 88-10.5t87-10.5q170 0 324 85 182 101 295 300l-7 35q-125-61-131-61-50 0-102 63-46 58-46 95 0 64 40 163 52 129 128 129 73 0 165-156 56-95 56-213zM3506 1249q-81-55-161-109-126-77-202-77-6 0-56 21v28q62 34 184 109-27 16-76 16-15 0-62-34-60-41-74-48 0 3-6.5 9.5t-6.5 20.5q0 54 90 118 81 57 120 57 57 0 250-44v-67zM4039 402q0-149-188-272-161-104-308-115-13-2-56-14.5t-57-12.5q-13 0-115 10t-115 10q-35 0-49-27-23-58-77-166h-48q51 168 51 188 0 18-42.5 63t-64.5 45q-11 0-55-33-49-37-77-47-213-74-473-74-144 0-211 19-140 37-166 158-1 4-11 18-50-77-213-115-121-29-249-29-249 0-249 153 0 17 2 46.5t2 42.5q0 75-82 75-12 0-49-13-39-13-53-15-162-16-291-163-122-138-149-306-1-10-14-50-13-36-13-51 0-204 79-320 100-148 347-201 126-27 174-27l810 61 24-24q-33-56-158-80l-184-32q-296-99-574-99-136 0-304 62-197 73-241 177-24 45-62 144-23 94-23 236 0-19 37 227 35 231 281 499-44 16-88 16-15 0-73-39-83-58-91-63-25 25-25 36t54 105q21 36 86 88 71 58 106 58 12 0 227-31t228-31l94 11q92 10 154 10 14-13 14-31 0-50-64-119l-83-38q-7-4-7-33 0-107 174-107 128 0 250 25 180 38 180 113 0 10-20 88-23 88-29 126-64 395-64 533 0 83 44 118 30 0 45-23 23-137 88-585 11-76 55-245 6-40 13-81 16-55 70-87.5t228-32.5q337 0 494 84 13 7 51 78 34 65 77 72 2-46 25-124 10-18 77-39 63-20 95-20l263 179.5t321 179.5q67 0 145-34 100-43 100-105zM1357 1202q-44-77-84-105-49-34-131-71-79-35-98-34h-106v38q56 28 173 99-27 15-76 15-75 0-111-59h-38v32q0 24 54 81 52 53 82 65 11 4 74 4 11 0 100-10 96-13 126-14 12-16 35-41zM2340-166q0-44-23-58-103-59-259-133.5t-176-73.5h-41l-23 24q18 58 64 83 96 55 240 122t163 67h41q14-14 14-31zM4899 360q0 5-6 23t-6 23q-5 0-23 5.5t-23 5.5l-34-34q9-18 67-47zM3865 322q-89 44-133 44-45 0-122-48-60-39-119-79-17-22-55-64 9 0 34-7t37-7q53 0 263 75 31 20 83 52 9 8 12 34z" glyph-name="uniFB77" horiz-adv-x="5093" unicode="&#xfb77;"/><glyph arabic-form="initial" d="M1719 36q0-36-76-167-44-74-324-173-266-95-388-95-123 0-240 46-161 64-218 193-34 76-34 135 0 65 52 174 56 121 127 179 12-9 23-16 13-11 13-25t-36-77q-48-81-54-94-2-5-2-45 0-159 158-234 108-52 247-52 131 0 310 55 204 62 268 144-59 27-141 34-103 8-132 16-44 11-44 53 0 48 53 83 64 17 128 35 85 26 85 107 0 7-90 532 0 51-6 154-2 21-24.5 66t-22.5 57q0 38 36 127 40 96 72 103l16-12q8-51 16-103 14-69 94-111 3-80-3-98-5-13-33-55-25-36-25-50 0-124 55-363 28-127 28-201 0-82-32-149v-28q29-11 80-32 19-10 41-44 23-38 23-69zM1811-322q0-58-216-171-165-86-241-110l-20 14q-14 11-14 26 0 51 83 93 52 22 104 42 113 55 269 142 11-7 21-13 14-8 14-23z" glyph-name="uniFB78" horiz-adv-x="1726" unicode="&#xfb78;"/><glyph arabic-form="medial" d="M1065 1168q0-33-33.5-70t-59.5-37q-21 0-70 29-53 32-53 58 0 33 33 73 34 45 70 45 44 0 82-41 31-35 31-57zM1402 134q0-24-12-78-16-63-34-86-70-91-292-175.5t-384-84.5q-455 0-455 368 0 82 8 109 11 35 77 164 4 9 62 64h46q-81-247-81-250 0-163 137-232 93-50 232-50 108 0 286.5 57t257.5 116q0 7 9 16-49 44-162 53-127 9-142 18-44 22-44 52 0 45 44 63 70 21 139 43 91 29 132 72 23 24 23 78 0 41-27 77-120-72-147-72-74 0-120 85-34 63-34 115 0 45 60 146 69 116 130 116 44 0 71-27 51-48 109-162 60-123 60-196 0-63-21-131-33-113-41-145 27-13 80-41 33-19 33-82zM1464-311q0-46-37-69-118-73-281-163-172-95-190-95h-32q-8 4-15.5 9t-7.5 21q0 46 212 164 265 149 283 164h45q7-5 15-10t8-21zM1135 653v36l-43 43h-46q0-29-1-68 66-23 90-11z" glyph-name="uniFB79" horiz-adv-x="1409" unicode="&#xfb79;"/><glyph arabic-form="isolated" d="M3230 1397q0-30-45-72-73 41-83 41-31 0-68-43-119-140-290-172l-97 14q112 73 348 237-6 12-42 61-30 40-30 56 0 33 37 100 44 76 89 91 43 14 86 14 52-50 52-92 0-18-14-53.5t-14-59.5q0-11 35.5-59.5t35.5-62.5zM3066 940q0-18-37-62.5t-60-44.5q-18 0-63 30.5t-45 46.5q0 26 28 73 33 55 70 55t72-34 35-64zM2524 1304q0-60-41-110-47-56-128-68-11-1-56-20-40-16-57-16-66 0-66 76 0 80 78 138 34-56 13-76 0-1-1-2t2.5-2.5 14.5-1.5q28 0 43 44 19 57 26 64 38 14 47 14 3-30 27-81 21 37 72 103 26-26 26-62zM3353 280q0-28-14-138-6-44-33-65-18-15-120-46-26-11-73-24-105-13-175-13-127 0-127 112 0 20 23 91 27-4 86-18 45-11 59-11 59 0 141 20 110 28 110 72 0 49-89 135l-94 82q-22 28-22 49 0 28 25 69 27 44 52 44 94 0 180-158 71-133 71-201zM1991 1534q0-51-44-73-159-73-482-227h-46v43q-1 66 548 293 24-24 24-36zM1930 1151q0-44-36-98-43-63-102-74-6-1-33-1-24-1-37-5-80-27-89-27-39 0-82 43 2 99 77 162l17-12q18-25-1-47v-7q14-16 25-16 28 0 79 102h36q4-21 29-61 12 8 69 91h36q0-4 6-20t6-30zM2677 250q0-153-74-288-89-162-256-241-29-14-161-14-115 0-127 3-100 31-200 61v36q28 26 64 26 22 0 63-11.5t62-11.5q76 0 162 23 81 22 183 101 33 27 159 171 33 38 33 79 0 23-48.5 77t-94.5 82q6 153 61 153 71 0 127-103 47-84 47-143zM2728-432q0-43-196-134-183-85-219-85h-53q-13 14-13 31 0 44 33 67 67 46 413 168 14 0 22.5-5.5t12.5-5.5v-36zM1264 792q0-34-32.5-68t-59.5-34q-11 0-40 10t-42 10-54-30.5-53-30.5q-17 0-54 23-44 27-44 54 0 30 36.5 68.5t66.5 38.5q15 0 76-30 9 6 48 43 30 28 45 28 41 0 78-38 29-30 29-44zM2012-446q0-29-34-70-34-43-64-43-10 0-43 20.5t-48 20.5q-13 0-54-25.5t-55-25.5q-40 0-79 39-33 33-33 53 0 33 44 70 38 32 59 32 12 0 45.5-20.5t45.5-20.5q11 0 50.5 36t52.5 36q32 0 74-42 39-39 39-60zM2073 373q0-60-29-139-33-90-76-114-14-9-93-31.5t-252-22.5q-236 0-326 64-38 28-117 143-12 9-34 28-138-75-138-133 0-69 138-88 79-10 157-19 54-47 54-61 0-70-56-167-9-15-60-46-274-172-509-172-168 0-284 77-136 92-136 261 0 65 39 148 42 91 108 148 37 0 37-30 0-13-35.5-79.5t-35.5-78.5q0-49 34-124 42-89 96-104 187-54 203-54h91q13 0 77 18 73 22 97 26 57 10 159 74-34 25-119.5 43.5t-114.5 37.5q-53 33-53 108 0 104 116 243 112 135 187 135 33 0 72-50 58-77 77-94 28-24 87-58 114-33 214-33 82 0 174 13 44 6 62 12 45 16 76 53-5 16-47 85-35 58-35 77 0 28 16 63 20 46 52 46 47 0 91-95 36-77 36-110zM732 592q0-28-36-74-73-94-256-94-12 0-79 15.5t-79 15.5q-45 0-60-22-21-31-73-50v45q0 32 64 97 62 62 89 62 11 0 82.5-25t86.5-25q113 0 213 81h35q13-2 13-26zM1458-494q-125-91-487-218-24 24-24 41 0 51 130 106 70 25 139 49 76 37 218 91 13-12 24-12v-57zM3069 1552v37h-17v-37h17z" glyph-name="uniFB7A" horiz-adv-x="3358" unicode="&#xfb7a;"/><glyph arabic-form="initial" d="M1214 1376q0-50-53-107-50-54-95-65-19 1-60-6l-105-37q-77 0-77 66 0 17 30 64 32 52 58 64 12-25 33-72 34 5 56 48 30 62 44 76 19-14 30-38 17-39 21-44 32 41 105 101 0-3 6.5-19.5t6.5-30.5zM1685 234q0-96-25-216-6-33-52-54-33 25-33 45 0 291-3 328-7 101-35 327-26 209-26 215 0 138 66 210 43-21 43-42 0-6-3.5-17.5t-3.5-16.5zM1101 869q0-39-41-76-34-31-51-31-41 0-80 44-32 35-32 48 0 26 45 66 41 36 57 36 35 0 68.5-30t33.5-57zM1827-281q-73-40-353-144-17 11-17 33 0 13 7 37.5t7 33.5q-26 13-52 25-21 11-21 39 0 52 81 113 76 56 124 56 79 0 79-52 0-32-28-84 45-11 161-7l12-13v-37zM1962-375q0-61-417-212h-63q-12-1-12 23 0 87 467 230 25-24 25-41zM1377 50q0-77-55-156-52-74-287-158-220-80-328-80-70 0-184 50-130 55-186 127-45 56-45 161 0 86 53 191 61 121 146 157 5 0 17.5-6.5t18.5-6.5q-20-59-72-137-40-59-40-106 0-119 127-194 105-62 216-62 55 0 205 38 127 33 163.5 47.5t87.5 63.5q-33 36-124 53-70 11-139 24-34 10-34 46 0 49 115 91l132 48q19 12 19 39 0 13-66.5 108t-66.5 108q0 23 19 68 24 54 53 54 66 0 126-135 48-106 48-146 0-62-62-164 7-10 83-47 60-29 60-76zM1275-367q-9-22-17-45-14-29-36-41-91-50-246-115-147-62-168-61h-65v57q50 61 207 115 191 66 247 103z" glyph-name="uniFB7C" horiz-adv-x="1691" unicode="&#xfb7c;"/><glyph arabic-form="medial" d="M2338 1342q0-15-14-39-17-33-43-37-13 4-53 34-35 27-49 27t-35-24q-31-32-34-34-64-51-309-178l-57 13q7 26 78 72l98 60q48 41 141 117-6 15-43 67-28 41-28 55 0 41 64 118 69 81 120 81 77 0 77-105 0-22-3-55t-3-41q0-12 2-16 5-7 55-52 36-32 36-63zM2399 927q0-36-36-75-32-37-56-37-11 0-40 15t-42 15-59-30.5-59-30.5q-17 0-62 30.5t-45 46.5q0 29 43.5 73.5t69.5 44.5q10 0 35-15.5t36-15.5q13 0 54 30.5t53 30.5q40 0 76-31 32-28 32-51zM1846 1409q0-62-115-138-102-68-137-66h-54v47q35 37 102 82-7 23-41 23-43 0-95-60h-38v44q-1 29 93 114 29 25 81 25-3 0 193-32 0-4 5.5-14.5t5.5-24.5zM1108 1123q-27 8-119 48-77 33-90 33-9 0-18-3-36-40-112-107-209-136-260-136h-32q-23 24-23 36 0 29 136 105 160 90 212 151-11 21-58 56-35 26-35 62 0 58 82 138 78 77 129 77 74 0 74-130 0-75-16-129 49-29 64-44 67-67 66-100v-57zM2113-193q0-30-37-74t-61-44q-17 0-58 31l-70 54q16 37 32 76 27 44 76 44 32 0 75-30.5t43-56.5zM2420 247q0-20-21-94-22-79-42-123-93-34-107-34h-55q-81 0-176 43-91 41-128 90-18-23-60-70-75-83-164-83-30 0-43 3-45 19-81 55-41 43-59 54-55-73-275-136-200-58-336-58h-107q-142 0-284 64-192 85-192 238 0 42 48 149 54 119 100 122 36 0 36-41 0-13-30.5-72t-30.5-71q0-55 65-110 51-44 105-62 123-44 270-44 364 0 514 94 31 20 113 182h57q-4-49 4-136 10-26 72-49 52-19 75-19 38 0 86 29 62 36 62 88 0 14-20.5 106t-20.5 105q0 120 47 153 12-11 31-33 37-109 73-218 37-99 86-140 59-49 177-49 80 0 58-2 30 3 30 38 0 13-46.5 84.5t-46.5 84.5q0 35 44 122 54 4 116-109 56-101 56-151zM1140 672q0-36-43-67-34-26-49-26-12 0-39 15.5t-38 15.5q-13 0-54-36t-54-36q-36 0-113 76 67 119 109 119 12 0 40-15.5t41-15.5q12 0 49 41t48 41q39 0 74-46 29-40 29-66zM2152 1493l-11 48q-14 0-39-25 24-23 50-23zM903 1369v57q-22 23-35 23-36-17-36-46 0-15 23.5-21.5t47.5-12.5z" glyph-name="uniFB7D" horiz-adv-x="2431" unicode="&#xfb7d;"/><glyph arabic-form="isolated" d="M2459 1669q0-51-193-163l-272-154h-46v55q-1 35 32 53 139 74 422 239h44q13-13 13-30zM2776 205q0-157-69-184l-156 1074q13 78 54 133 10 0 26.5-11.5t18.5-22.5q36-240 71-480 55-372 55-509zM1496 1612q0-51-237-182-125-68-393-191-14 11-24 11v34q-2 44 35 63 189 94 572 301 47 0 47-36zM1988 895q0-59-152-143-100-56-159-76h-35q-12 1-12 25 0 31 50 64 81 53 93 65-13 20-36 20-13 0-60-33-59-41-74-49-14 14-14 31 0 28 61 90 56 55 85 69 9 5 53 5 200 0 200-68zM2981-147q-8-48-79-79-49-16-98-33-57-24-165-78h-33q-14 11-23 11 0 9 14.5 35.5t14.5 40.5q0 10-25.5 38t-25.5 44q0 47 65.5 107.5t124.5 60.5q18 0 42-12 35-17 35-44 0-30-41-71 15-16 66-16 33 0 93 21 5-6 17.5-12.5t17.5-12.5zM3124-336q-232-129-528-216-14 13-14 30 0 59 44 78 266 117 451 177h35q12-23 12-69zM2367 251q-53-271-143-271-43 0-149.5 40.5t-107.5 40.5q-10 0-48-36-41-37-57-43-27-13-83-31-103-12-134-12-213 0-288 235-247-225-608-225-115 0-190 13-106 18-188.5 106t-82.5 178q0 55 46 153 47 102 101 152h37q0-3 5.5-11t5.5-23q0-10-36-77t-36-82q0-58 33-104 21-31 72-70 60-47 95-49 27-1 97-6 66-6 78-6h105q115 0 270 75 164 81 171 160l-91 737 10 98q6 32 44 66 25 0 33-13 22-150 62-442 11-134 51-358 5-14 12-110 6-80 35-124 58-89 218-89 120 0 193 61.5t104 61.5q13 0 110.5-41t110.5-41 17.5 4 13.5 4v77q-2 51-25 195-26 157-102 564-3 10-21 55-17 38-17 58 0 37 44 124.5t64 95.5q20-16 24-65 2-41 3-82 14-14 63-46 18-12 18-58 0-13-22-67-25-60-30-87zM2080-276q0-33-41-69-39-34-67-34-11 0-37.5 10.5t-38.5 10.5q-13 0-51.5-25.5t-50.5-25.5q-32 0-70 23-43 27-43 59 0 33 46 75 40 37 56 37 11 0 45.5-20.5t52.5-20.5q13 0 48.5 31t48.5 31q33 0 69-33 33-30 33-49zM1066 492q0-18-25-63-27-47-52-67-95-75-183-75-22 0-72 37.5t-56 58.5v35q2 12 25 12 13 0 59-20.5t58-20.5q37 0 63 27 0 9-18 21-78 23-94 41-12 11-12 54 0 67 75 172 81 115 156 115 19 0 42.5-23.5t23.5-43.5-36.5-68.5-55.5-48.5q-11 0-32.5 10t-32.5 10l-7-7v-28q51-21 101-42 73-35 73-86z" glyph-name="uniFB7E" horiz-adv-x="2787" unicode="&#xfb7e;"/><glyph arabic-form="final" d="M2551 1331q0-60-198-173-138-77-277-154h-34q-13 13-13 30 0 74 299 217 68 40 209 111 14-15 14-31zM1107 1541q0-21-25-65-28-48-59-70-39-9-114-27-18-5-71-28-45-20-59-20-71 0-71 62 0 46 43 131h37q0-33 38-71 12 10 89 112h36q13-12 13-43 5-5 12.5-8.5t13.5-8.5q24 24 70 92 47-24 47-56zM2623 251q0-129-89-274.5t-231-248.5q-10-8-53-18-113-27-185-27-181 0-363 64 2 21 1 68l259-19q267 0 484 263 11 14 64 120 4 6-5 15-91-71-133-71-66 0-112 83-36 66-36 116 0 39 56 145 51 96 68 111 10 5 49 5 95 0 167-135 59-111 59-197zM1885-36q0-48-62-70-43-11-84-20-63-18-175-88h-35q-19 33-6 75-24 26-49 53-8 11-8 35t112 155l-123 981q7 36 55 133 53-29 54-66 6-176 53-450 45-257 45-387 0-88-13-174 35-1 70.5-35.5t35.5-69.5q0-32-34-50 45-12 151 4 13-2 13-26zM1005 963q0-37-22-68-26-35-60-35-29 0-71 34t-42 63q0 23 32 64 33 44 60 44 41 0 72-30.5t31-71.5zM1967-368q0-55-64-89-82-44-230-102-142-55-163-55h-43q-12 2-12 25 0 57 54 83 80 24 226 78 68 35 208 90l16-10t8-20zM1384 128q0-85-35.5-146.5t-162.5-121.5q-45-22-216-77-181-59-216-59h-82q-156 0-269 84-125 95-125 253 0 75 44 172 37 80 133 175h47q0-3 5.5-9t5.5-21q0-17-39.5-85.5t-70.5-105.5q-2-8-2-34 0-245 348-245 130 0 269.5 47.5t231.5 122.5q-14 33-71 42-44 3-88 5-110 8-176 30-13 0-13 24 0 71 110 106 123 39 136 67-7 56-81 155-72 96-72 112 0 20 19 64 23 54 47 54 35 0 96.5-62t78.5-115q25-77 25-109 0-55-41-159 19-16 119-59 45-20 45-105zM1332-286q0-17-22-40-65-50-134-80-286-126-300-125h-65q0 3-5.5 9t-5.5 20q0 17 18.5 43.5t35.5 34.5q62 23 185 68 57 21 236 110h46q0-4 5.5-14.5t5.5-25.5zM2428 330v45q-34 34-59 34-23-24-23-46 0-28 57-56zM1648-25v17l-48 12v-17z" glyph-name="uniFB7F" horiz-adv-x="2637" unicode="&#xfb7f;"/><glyph arabic-form="initial" d="M931 1389q0-54-26-72-102-69-272-166-227-130-279-161h-45q-13 13-13 30 0 45 156 140 88 48 174 97 95 57 281 162 8-5 16-10.5t8-19.5zM726 661q0-30-24-69-28-43-62-43-41 0-107 62-4 22 26.5 82.5t49.5 60.5q47 0 85-36 32-31 32-57zM1741-111q0-47-187-141-157-78-291-120-14 14-14 41 0 56 86 94 56 20 111 41 7 4 270 120 25-24 25-35zM1750 333q0-57-33-125-40-79-90-79-27 0-140 51t-110 51q-12 0-40-31-35-38-49-48-45-27-96-31l-90-6q-4-12-15-35-3-14-10-69-22-173-201-264-135-68-293-68-128 0-237 74-121 83-121 207 0 65 63 185 58 110 95 138 16-13 26-13v-35q0-11-36-83t-36-85q0-38 23-73 88-141 270-141 119 0 226 43 137 57 137 156 0 5-18 60-11 35-61 130-44 84-44 96 0 46 54 118 31 0 57-25 25-39 49-77 40-63 72-69 67-13 70-13 70 0 130 43 17 12 38 47 18 31 35 62 21 31 121 146 52 61 91 61 51 0 113-146 50-122 50-152zM1596 336q-23 43-34 58-24 37-43 42l-24-24v-45q37-17 101-31z" glyph-name="uniFB80" horiz-adv-x="1761" unicode="&#xfb80;"/><glyph arabic-form="medial" d="M5337 1664q0-80-95-167-92-84-165-84-12 0-39 10.5t-38 10.5q-26 0-98-72-25 25-25 40 0 46 74 97 50 35 102 69 11 11 60 86 38 61 84 82 12 4 44 4 96 0 96-76zM4856 1658q0-65-121-139-93-56-139-65h-35q-12 2-12 25 0 19 113 104-12 24-61 24-57 0-95-50h-48q22 67 72 118 54 55 106 55 48 0 122-16 98-22 98-56zM5214 317q0-167-69-193l-155 997q-7 100 56 179 13-12 31-34 6-90 17-144 67-319 83-472 5-54 23-199 14-120 14-134zM4282 1199q-8-10-17-19-14-13-28-13-13 0-54 25.5t-53 25.5q-28 0-52-25-46-49-63-63-185-146-313-167-13 1-13 25 0 27 97 95 50 32 100 65 39 30 79 60 52 39 52 56 0 11-31 52t-31 56q0 62 63 133.5t122 71.5q78 0 78-106 0-30-7-74-8-47-8-49 23-20 79-70v-79zM3556 1263q0-51-155-139-141-80-168-80h-43l-23 25q14 31 71 67 46 29 93 57-28 25-52 25-18 0-162-70v43q-1 15 28 51.5t55 52.5q69 46 115 46 56 0 205-20 12 0 36-24v-34zM4806 347l-22-118q-12-74-64-103-77-44-186-34-104 10-120-3-3-2-35-39-27-30-40-30-73 0-187 35-117 36-142 68-17-21-68-58-92-45-171-45-12 0-73.5 15.5t-74.5 15.5-43-26q-34-27-48-32-36-13-83-13-13 0-56.5 15t-56.5 15-71.5-20.5-71.5-20.5q-12 0-63.5 10.5t-64.5 10.5-118-25.5-118-25.5q-197 0-271 95-43 56-51 177-8 96-41 96-14 0-53-28-40-32-63-62-5-56-11-113-21-104-98-104h-82q-54 0-195 92-27-34-90-89-71-43-166-43-191 0-255 151-48 176-96 350-118-33-118-165 0-22 2.5-64.5t2.5-62.5q0-161-191-266-159-87-317-87-162 0-259 80-105 88-105 247 0 33 65 181 19 47 105 106 24-25 24-41-71-159-71-184 0-107 93-166 77-49 173-49 120 0 330 94 69 31 69 110 0 88-56 182.5t-56 124.5q0 46 44 113 11-4 59-29 41-22 55-22 86 0 137 87 58 99 80 107 7-7 20-23 7-33 38-258 21-159 60-243 15-33 82-68 65-32 106-32 121 0 194 82 51 77 102 153 60 83 149 83 10 0 71-26t78-26q46 0 89 29 48 32 48 78l-60 564q0 73 53 157h37q12-40 38-331 4-42 41-327 9-118 17-236 21-138 108-188 38-22 176-22 103 0 119 6 44 16 68 104 9 10 31 32h36q17-25 11-62l-10-62q36-18 63-18 35 0 86 21 64 26 84 68 28 57 58 74h36q1-4 1-116 7-6 42-6 58 0 78 42 34 72 78 111 6 0 18.5-5.5t17.5-5.5q0 12-16-104 39-38 115-38 100 0 187 74 27 23 126 138 63 75 107 75 13 0 68-54 73-69 99-88 56-43 110-43 58 0 163 13 12 1 46 34-48 400-116 715-3 15-27 54-20 33-20 70 0 100 84 229 41-1 48-50 0-40 1-81 0-14 2-24 14-19 58-33 32-11 32-46 0-14-22-75-24-70-29-95zM3013-220q0-44-33-63-96-56-251-128-153-69-172-69h-54q17 87 52 107 42 24 401 188h44q13-13 13-35zM1078 1475q0-56-53-90-125-77-326.5-183.5t-220.5-105.5h-53q-12 1-12 25 0 66 361 243 94 52 280 141l16-10t8-20zM2337-231q1-40-43-63-378-186-393-186h-53q-12 1-12 25 0 52 54 82 97 55 240.5 122t162.5 66h44v-46zM832 752q0-28-23-70-27-47-53-47-28 0-73 41.5t-45 60.5 36.5 71 55.5 52q47 0 79-47 23-37 23-61zM1560-302q0-32-34-74-35-44-69-44-14 0-49.5 26t-47.5 26q-13 0-51-36t-51-36q-7 0-107 63 0 33 28 85 32 57 63 57 11 0 56-25.5t57-25.5q11 0 41 41t51 41q23 0 68-40.5t45-57.5zM5223 1616h-47q-23-45-20-69 67 44 67 69zM4129 1430q-12 12-49 12l10-49q14 0 27 15 12 12 12 22zM4189 247q-23 49-48 49v-38zM2205 208q-59 89-92 89-26 0-62-36 88-67 128-67 24 0 26 14z" glyph-name="uniFB81" horiz-adv-x="5222" unicode="&#xfb81;"/><glyph arabic-form="final" d="M3857 1719q0-22-20-44.5t-35-22.5q-14 0-60 20.5t-58 20.5q-9 0-44-13-54-66-127-106-137-75-276-136l-24 23q0 29 23 43 89 57 179 115 105 68 166 131-6 10-37 46-24 26-24 41 0 68 65 141t135 73q25 0 60-21 15-26 15-62 0-24-10-78-8-51-7-77l50-44q29-27 29-50zM3868 1393q-9-54-75-78-96-36-109-47 31-29 37-70 76-537 77-748 1-14 9.5-80t8.5-79q0-110-32-225h-48l-124 1018q0 9 42 161-18 0-51-13-46-16-59-20l-11 14q-2 9 7.5 27t9.5 31-20.5 43.5-20.5 43.5q0 38 54 105 60 74 110 74 82 0 82-70 0-13-3.5-36t-3.5-30q0-17 13-17 10 0 82 19zM3386 987q0-85-57-150t-127-65q-47 0-77 45-25 38-25 82 0 59 59 136 67 85 136 85 42 0 71-64 20-46 20-69zM2895 1720q-11-32-36-74-217-158-543-301-14 15-14 36 0 62 53 93 160 89 482 270h35zM3499 173q0-168-166-350-170-187-341-187-129 0-341 53v58q9 1 198 1 149 0 308.5 107t221.5 250v12q-44-31-100-31-148 0-148 184 0 84 43 170 48 97 110 97 115 0 174-156 41-107 41-208zM2486 1002q0-99-270-217-30-13-125-13-12 0-76 10t-77 10-53-37q-54-53-71-65l-16 10t-8 21q0 32 65 118.5t93 86.5q13 0 82-15.5t82-15.5q187 0 335 143 39 0 39-36zM2332 496q0-35-14-129-5-31-31-56-24 11-41 92-25 111-31 127t-44 84q-33 57-33 71 0 42 34 76 62-18 112-109 48-85 48-156zM1308 1581q0-34-504-335-92-55-127-53h-44v43q0 17 20 43 19 24 33 31 358 192 554 311h45q23-24 23-40zM2813 357q0-101-1-114-9-72-55-145-28-45-201-79-130-25-179-25h-187q-71 0-130 13-28 5-84 38-52 30-63 30-13 0-52-42-44-46-64-56-70-34-182-34-93 0-160 63-58 54-122 182-108-123-329-196-183-59-346-59-153 0-272 76-143 93-143 251 0 23 25 100 29 91 60 143 24 39 94 75 26-14 26-41 0-14-41-90.5t-41-89.5q0-131 131-199 97-52 217-52 73 0 188 23 67 14 192 64 161 63 201 116 16 21 13 83l-92 672 22 82q12 45 43 76 19 0 34-24 9-54 34-284 20-187 47-279l38-304q48-204 248-204 77 0 69-2 27 5 81 45 16 10 57 60 33 40 49 40 8 0 69-39 66-42 96-51 77-23 163-23 12 0 127.5 10.5t127 10.5 152.5 33q14 8 38 24-34 459-106 777-4 14-22 47-15 29-15 45 0 51 74 199h36q22-50 44-99 24-44 80-64-8-77-37-127-23-42-23-98 0-12 35.5-278.5t35.5-279.5zM2148-277q0-52-65-74-281-95-290-94h-53q-6 16 0 47 9 40 9 44 0 10-26 43t-26 49q0 45 77 121 75 74 112 74 34 0 71-33t37-59q0-32-32-55-25-17-40-17-5 0-66 31-7 2-16-8 0-10 28-31 13-1 55.5-12t55.5-11q24 0 145 21 24-25 24-36zM1052 813q0-40-64-120-4-1-11-1-6 0-21.5 2.5t-23.5 2.5q-33 0-54-32 4-8 18-24 146-49 146-125 0-31-36.5-91t-58.5-69q-69-35-156-35-97 0-128 44-2 10 6.5 24t24.5 14q13 0 36-5t36-5q60 0 103 28 0 26-38 36-53 13-64 21-32 25-32 73 0 71 90 194 95 129 161 129 19 0 42.5-21.5t23.5-39.5zM2229-464q-70-56-196-99-204-70-206-71-5-2-30-22-20-15-34-15h-53q-13 14-13 30 0 46 44 68 99 49 260 110 152 58 174 57h54v-58zM3703 1880l-11 38q-6 0-19.5-5.5t-18.5-5.5q0-6 5.5-19.5t5.5-18.5zM3295 942q-12 21-58 45-37-38-34-58l23-24h45q24 24 24 37zM3335 271v37q-53 54-78 54-6-5-12.5-17t-11.5-17q3-5 43-57h59z" glyph-name="uniFB83" horiz-adv-x="4217" unicode="&#xfb83;"/><glyph arabic-form="isolated" d="M2722 1570q0-94-84-181-81-85-161-85-11 0-26 5.5t-25 5.5q-37 0-61-30-44-53-56-62h-36v34q0 14 45 81 45 64 59 74 28 10 71 36l70 120q54 84 128 84 20 0 49-32 27-32 27-50zM2201 1898q0-39-44-68-135-90-307-174-75-37-124-75h-34q-13 13-13 30 0 60 45 91 78 54 211 122 184 95 218 114h36q0-4 6-14.5t6-25.5zM2180 1581q0-40-14-79-29-78-81-103-201-95-217-95-66 0-66 77 0 41 64 128 18-7 45-62 35 3 53 59 19 59 37 64 15-20 61-71 23 23 44 66 26 51 37 67 37-19 37-51zM2610 193q0-23-33-168-5 0-23.5-4.5t-23.5-4.5q-13 181-57 545-88 534-88 523 0 14 53 148h34q25 1 32-55l82-655q24-200 24-329zM1689 987q0-39-35-78-32-35-57-35-35 0-67 44-26 34-26 49 0 32 30 72t57 40q46 0 75-38 23-28 23-54zM2211 203l-46-190q-27-70-128-70-115 0-176 53-37 32-127 172-38-57-61-85-43-52-80-66-162-64-308-64-39 0-81 29-48 34-48 73 0 49 56 123 101-51 123-51 83 0 200 38 164 55 164 146 0 9-25.5 125t-25.5 131q0 41 22 152 5 0 23.5 5.5t23.5 5.5q28-131 97-392 20-63 64-127 59-85 114-85h108q0 3 4.5 7.5t4.5 18.5q0 32-56 399-17 130-71 378-2 6-28 72-20 51-20 68 0 59 75 204h36q15-25 24-109 6-52 79-75 2-13 2-25 0-31-41-160zM931 1627q0-39-87-90-50-26-99-52-194-125-411-241h-45q-14 0-14 24 0 57 137 138 92 47 184 95 92 55 277 161h35q23-24 23-35zM1883-129q0-61-54-88-356-179-413-177h-64v55q-1 44 507 241l16-10t8-21zM624 833q0-38-25-70-27-32-62-32-36 0-74 25-44 30-44 72 0 17 30 65 34 53 57 53 47 0 85-42 33-38 33-71zM1269 592q0-136-36-186-15-23-81-41-79-23-108-43-12-8-8-67 11-159-59-268-54-87-218-146-141-52-253-52-103 0-189 61-103 71-127 199-17 89-17 67 0 54 53 166 57 120 105 142 37 0 37-37 0-12-36-94t-36-95q0-27 31-92.5t49-79.5q67-53 192-53 85 0 204 38 169 55 169 146 0 117-61 223.5t-61 135.5q0 30 18 68 19 44 43 44 12 0 61.5-51t122.5-51q92 0 92 41 0 13-30.5 64t-30.5 64 11 53.5 11 62.5q3 0 11 6t23 6q26 0 62-41 31-35 41-64 15-41 15-126zM1217-298q0-28-33-73t-58-45q-12 0-44 20.5t-43 20.5q-10 0-40.5-30.5t-52.5-30.5q-37 0-64 32-23 28-23 56 0 40 34 75 30 32 58 32 12 0 40.5-15.5t41.5-15.5 30 25.5 52 25.5q21 0 59-24 43-28 43-53zM2610 1483l-13 36q-44-20-57-59 58 0 70 23z" glyph-name="uniFB84" horiz-adv-x="2620" unicode="&#xfb84;"/><glyph arabic-form="final" d="M3378 1588q-20-68-191-170-155-93-246-111-13 14-13 41 0 45 26 60 122 62 367 205h34zM2877 1588q0-86-434-291h-35q-12 1-12 24 0 55 42 83 129 69 391 219h36q0-4 6-12.5t6-22.5zM3225 863q-6-36-30-72-32-48-73-48-19 0-68 30-54 34-54 57 0 22 44 65t74 43q29 0 107-75zM2825 610q0-42-42-70-33-22-60-22-49 0-99 54-2 18 9 53 13 46 15 61-78 81-78 103 0 34 44 68 40 29 69 29 26 0 69-34t43-57q0-40-41-78 71-95 71-107zM2273 1552q0-47-102-112-68-38-136-75-73-48-146-94-99-60-155-67-13 12-24 12v43q-1 21 25 53 75 37 283 163 176 108 189 108h53q13-14 13-31zM2212 938q0-26-42.5-64t-60.5-38q-13 0-36 15t-36 15q-12 0-58.5-31t-59.5-31q-32 0-74.5 35.5t-42.5 57.5q0 38 45 78 39 34 57 34 12 0 46.5-20.5t45.5-20.5q13 0 54 36t53 36q34 0 73-44 36-39 36-58zM1597 1701q0-16-25-54-28-42-50-51-64-26-227-117-143-80-155-80h-44v54q-1 49 248 162 79 46 229 121 24-25 24-35zM1536 1316q0-61-57-140-7-12-110-58-107-47-136-47-41 0-76 32 0 136 67 182 24-36 24-64 6-5 13.5-8.5t12.5-8.5q27 26 90 133 33-7 34-28 2-29 21-44 30 0 45 36 20 52 35 66 37-18 37-51zM941 1298q-37-32-45-32-13 0-49 20.5t-49 20.5q-4 0-179-128.5t-251-128.5q-14 0-25.5 6t-14.5 6v37q14 10 180 118 108 69 168 135-28 33-55 64.5t-27 74.5q0 51 64 130 68 85 125 85 88 0 88-134 0-32-5-84-5-44-5-51 25-16 80-61v-78zM3194 292q0-77-37-168-48-118-121-118-44 0-146 46t-95 46q-14 0-37-19-34-27-38-29-129-74-335-74-108 0-217.5 40.5t-99.5 40.5q-10 0-60-23-61-27-87-35-40-13-125-13-94 0-171.5 40.5t-78.5 40.5q-8 0-102.5-51t-199.5-51q-61 0-71 3-19 3-115 39h-27l-14-122q-14-102-49-152-128-187-441-187-132 0-233 76-110 84-110 211 0 78 71 215 74 140 148 193 29 0 47-35-154-234-154-282 0-95 106-160 88-54 171-54 79 0 195 38 153 51 153 126l-113 1069q0 52 8 70 1 4 46 88 41 0 49-34 16-77 33-237 1-160 76-480 27-121 84-166t175-45q94 0 136 22 3 2 73 47 51 34 68 34 12 0 145.5-46.5t146.5-46.5q44 0 93 38-4 14-4 33 0 104 86 243 91 147 178 147 133 0 133-215 0-143-72-191 22-45 81-53 7-2 104-2 114 0 198 32 50 19 106 59 45 32 64 32 11 0 108-41t113-41h37q11 30 11 68 0 10-1 29t-1 29q0 79 54 150 19 0 33-23 25-90 25-151zM1597-254q0-32-43-72-40-36-59-36-14 0-49 24-27 19-53 39-4 39 22 83 30 49 69 49 28 0 70.5-31.5t42.5-55.5zM2221 349q-27 87-61 87-33 0-70-46-32-41-32-66t16-49 40-24q21 0 64 37t43 61zM777 1492v46q-22 24-37 24-24-24-24-36 0-34 61-34z" glyph-name="uniFB85" horiz-adv-x="3200" unicode="&#xfb85;"/><glyph arabic-form="isolated" d="M2626 1482q0-52-43-78-370-219-403-218h-55v44q-1 42 35 64 137 78 419 219h34q13-14 13-31zM2053 1322q0-34-145-119-137-79-158-78h-54q-12 1-12 24 0 37 60 75l94 58q-29 16-51 16-13 0-68-32-64-38-96-49v44q0 16 66 81t91 74q11 5 73 5 70 0 200-43v-56zM1889 607q0-38-38-75-33-32-54-32-33 0-81 43-42 39-42 53 0 18 31 65 36 53 66 53 32 0 75-37t43-70zM1449 1108q0-66-52-66-5 0-96 61-7-4-169-130-102-78-179-105l-57 13q14 27 43 64 67 49 134 96 110 84 110 108 0 11-41 48t-41 50q0 47 61 127 68 88 133 88 56 0 70-51 5-24 2-84-3-63 3-95 3-19 42-52 37-31 37-72zM812 1185q17-163-353-266-4 6-16.5 13t-17.5 12q7 23 84 65 93 50 121 78-29 16-72 16-46 0-65-17-51-46-61-54h-36q-12 2-12 26 0 17 36 66.5t67 75.5 122 26q71 0 203-41zM2811 332q-19-148-335-257-256-87-449-87-99 0-155 23-27 11-72 50-35 29-64 29-47 0-126-29-95-36-129-81-39-54-39-132 0-38 12-115.5t12-115.5q0-12-1-24 0-15-42-81-49-77-81-77-45 0-95 140-38 105-41 141-12 123 28 245-2 3-5 12 0 5-16 5-12 0-73.5-10.5t-74.5-10.5q-12 0-45.5 5.5t-46.5 5.5q-37 0-75-29-18-228-99-228-52 0-124 87-61 74-63 92-2 15 6 49 7 37 7 54 0 35-23 57-14 4-32 4-111 0-184-84-2-10-2-84l82-748q0-22-25-80-24-61-40-73-17 0-34 23-23 152-61 494-35 319-35 348 0 132 86 238 100 125 267 137 9 1 33.5 20t38.5 19q11 0 71-49 68-54 105-72 73-32 234-32 127 0 223 63 22 14 47 59 30 53 54 77 28 13 76 36 5-5 17.5-12t17.5-13q-20-56-88-162-82-128-97-157-4-5 5-14 95 109 228 187.5t229 78.5q11 0 95-51.5t95-51.5h98q2 10 2 19 0 21-12 48t-12 46q0 98 91 237 100 152 201 152 78 0 162-42 95-47 119-117-17-35-51-35-13 0-72 20.5t-72 20.5q-48 0-138-46-97-49-97-88 0-47 57.5-105.5t95.5-58.5q80 0 209 62 94 46 186 92 6-5 18-11.5t18-12.5zM1273 1279q0 37-12 50-2 0-27-26 24-24 39-24z" glyph-name="uniFB86" horiz-adv-x="2822" unicode="&#xfb86;"/><glyph arabic-form="final" d="M3786 1600q0-36-26-55-45-33-212-121-279-147-311-146h-43q-22 24-22 35 0 49 155 126 16 9 196 86 84 40 251 110 0-3 6-11.5t6-23.5zM3774 1149q-12-33-63-45-57-14-77-38-2-12-2-65l72-794q0-126-35-196-12-18-42-33l-19 13q-6 158-27 410-3 39-45 297-24 156-14 268 9 15 28 50-2 2-4 11-1 5-16 5-13 0-50-16-44-19-70-25-14 26 7 75-72 42-72 89 0 53 84 120 78 64 127 64 79 0 79-73 0-42-24-75 5-5 48-6h115v-36zM2926 1294q-12-31-36-76-22-24-119-86-110-69-148-69h-94l-12 13v27q58 36 163 104-10 10-56 10-54 0-75-19-34-26-67-53h-37v34q0 40 81 101 68 51 87.5 55t77.5 4q38 0 179-14 31-4 56-31zM2158 1319q0-44-44-69-152-86-366-196-223-114-242-114h-52q-13 1-13 25 0 52 36 73 150 85 373.5 198t242.5 113h52q13-14 13-30zM1124 1334q0-48-44-73-136-82-336.5-186t-219.5-103h-55q6 28 13 68 114 85 302 177 223 109 292 153h34q14-14 14-36zM3438 207q0-55-75-91-53-26-89-26-12 0-102.5 15t-102.5 15q-22 0-321-64-66-15-91-57-2 0-20.5 9.5t-33.5 9.5q-12 0-76.5-15t-76.5-15q-85 0-175 91-15-6-61-57-31-34-123-34-12 0-50.5 5t-51.5 5-66.5-15-66.5-15q-11 0-88 15t-91 15q-12 0-63-16-58-18-74-22-64-13-160-13-12 0-74.5 15.5t-73.5 15.5q-30 0-37-8-7-45-24-132-16-63-42-94-60-74-200-127-127-49-225-49-246 0-345 146-10 15-27 73.5t-17 77.5q0 58 58 160 52 91 119 166h37q0-3 5.5-9t5.5-21q0-12-32-71-44-78-58-109-2-9-2-34 0-87 103-156 88-59 158-59 89 0 206 38 168 56 168 152 0 95-66.5 203.5t-66.5 122.5q0 39 43 108h46q58-58 90-115 12-26 23-51 21-42 40-47 131-32 183-32 178 0 234 22 27 11 78 79 48 62 67 62 43 0 43-44 0-19-10.5-56.5t-8.5-44.5q14-9 62-9 86 0 122 44l86 120h36q15-15 15-39 0-16-8.5-43.5t-8.5-36.5q0-24 40-24 62 0 90 46 58 94 82 117h35q7-10 0-41-7-39-7-45 0-64 158-77 9 0 235 43 30 6 58 34-90 66-123 66-38 0-181-41l-24 25q20 68 65 114 32 31 91.5 69t78.5 38q33 0 106-47 105-68 117-73 74-39 296-99 98-27 117-27 11 0 49-.5t61-.5q0-4 6-12t6-23zM837 535q0-42-30-74.5t-62-32.5q-28 0-112 52 0 34 21 87 26 65 60 65 35 0 80-36 43-36 43-61zM3537 1188v13q-34 15-48-13h48z" glyph-name="uniFB87" horiz-adv-x="3710" unicode="&#xfb87;"/><glyph arabic-form="isolated" d="M1134 1366q0-57-265-227-35-22-312-186h-36v64q-1 33 121 106 68 39 136 76 109 66 331 203 25-25 25-36zM1134 210q0-35-32.5-87t-54.5-52q-96 0-275 72-84-163-319-163-111 0-165 84-33 50-42 115-28 187-59 551-26 306-26 350 0 27 26 91t41 68q40-12 62-209 3-22 41-523 7-103 37-286 6-16 57-45 40-23 90-23 133 0 186 70 16 38 47 102 41 46 107 133 17 31 55 63t55 32q50 0 83-75 86-200 86-268zM948 277v47q-20 23-46 23-23-23-23-47 23-7 69-23z" glyph-name="uniFB88" horiz-adv-x="1149" unicode="&#xfb88;"/><glyph arabic-form="final" d="M2958 1406q0-4-15-44-75-64-132-91l-412-198-24 25q3 27 24 66 118 84 398 222 37 17 114 55h34q13-13 13-35zM1514 1289q-32-32-51-32-12 0-63.5 31t-64.5 31q2 0-132-111-138-114-214-128-26-17-34-17h-64q12 52 177 158 160 104 160 139 0 10-69 84-3 13-3 33 0 54 62 127 66 76 127 76 12 0 24-4 35-36 39-65 3-23-6-77-10-60-10-67 0-21 122-109v-69zM3152 469q0-112-259-208-235-88-379-127l-92-10q-69-8-96-31-9-238-85-238-50 0-114 48-59 45-77 88-5 44-20 151-154-154-351-154-59 0-130 42-82 49-113 122-10-7-109-58-72-37-97-74-26-76-109-235-63-88-172-165-120-82-203-82-95 0-225 18-165 23-204 58 26 47 87 47 10 0 64-5.5t69-5.5q335 0 568 324v26q-16 7-46 3-42-5-41-5-80 0-146 46-74 53-74 133 0 51 54 166 63 136 125 136 64 0 145-138.5t111-138.5q60 0 114.5 49t54.5 105q0 13-36 317.5t-36 317.5q0 98 54 163 26 0 34-12 30-75 45-340 10-67 27-194 6-80 11-161 13-123 56-192 59-94 177-94 104 0 193 54 27 16 91 95 56 67 80 67 2 0 131-80 52-33 140-33 74 0 100 10 8 7 8 21 0 12-30.5 63.5t-30.5 64.5q0 1 27 73 15 48 29 95 23 68 60 111 97 115 206 115 114 0 229-126v-68h-54q-11 0-26 14-24 20-29 23.5t-43 3.5q-58 0-146-39-110-47-110-111 0-43 70.5-105.5t108.5-62.5q42 0 186 65 169 78 204 88 8-4 16-9.5t8-20.5zM2641-212q0-70-219-151-49-19-204-86-123-54-136-54h-32q-23 23-23 36 0 64 351 191 79 34 250 100 0-4 6.5-12.5t6.5-23.5zM614 1416q0-82-54-136t-136-54q-77 0-77 103 0 49 44 128 52 97 115 97 52 0 81-45 27-39 27-93zM562 177q0-134-43-189-41 2-49 53l-4 84q-11 153-30 266-99 562-99 585 0 34 54 168 30 0 44-23 39-170 62-308 22-132 45-385 20-216 20-251zM1320 1508q0 4-16 30-6 4-34 4 15-26 34-36zM510 1372v36l-47 12q-24-47-22-58 24-13 69 10zM1032 189q-16 55-76 95-12-6-35-23v-34q9-25 53-33 29-2 58-5z" glyph-name="uniFB89" horiz-adv-x="3156" unicode="&#xfb89;"/><glyph arabic-form="isolated" d="M4740 1614q0-58-23-89-36-19-100-56-172-107-213-131-104-61-190-91-14 11-23 11-4 61 23 80 85 59 491 287 5 0 17.5-5.5t17.5-5.5zM4015 1590q0-54-33-76-333-225-465-267l-24 25q5 25 24 66 15 14 173 105 119 68 257 172h56q12-1 12-25zM3902 894q0-30-35.5-64t-60.5-34q-22 0-73 35-56 37-56 63 0 25 41 71.5t61 46.5q37 0 80-43t43-75zM3370 1543q0-55-219-201-145-96-276-166h-47v54q0 31 84 80 44 33 143 97 67 36 133 73 90 54 124 94h45q13-13 13-31zM4701 156q0-213-166.5-390.5t-370.5-177.5q-109 0-318 34-28 4-67 43 26 57 52 57 12 0 94-15.5t95-15.5q143 0 320 102 216 125 251 308-65-52-95-52-80 0-128 78-36 58-36 111 0 19 28 96 31 85 58 129 23 37 83 37 103 0 160-144 40-103 40-200zM3452 628q0-27-33-65-37-43-75-43-27 0-72.5 38t-45.5 65q0 13 23 38 26 32 29 38-5 6-57 64-36 39-36 54 0 17 36 58 37 44 62 44 24 0 69-33 50-36 69-75-41-38-41-71 0-13 36-56t36-56zM2694 1466q0-50-197-150-92-60-277-171h-36q0 4-6 10t-6 21q0 48 44 77 393 260 423 259h55v-46zM3943 259q0-25-19-89-24-77-53-117-19-24-112-24-12 0-117.5 25t-117.5 25h-18q-3 1-6 1-155-112-468-112-134 0-178 60-19 25-31 114-9 60-57 60-79 0-273-102t-332-102h-121q-92 0-154 139-40 87-49 162l-95 774q0 56 43 143h37q36-53 39-97 20-205 58-614 11-140 61-265 8-20 104-68 58 92 115 184 92 123 189 123 52 0 187-56.5t237-56.5q57 0 183 17 68 9 68-22v-32q0-52-133-132 39-45 85-54 10-2 99-2 180 0 302.5 56.5t143.5 56.5q15 0 93-29 64-23 160-23 14 22 14 54 0 26-12.5 84t-12.5 88q0 55 31 91h44q19 1 32-55 34-145 34-205zM1691 1467q0-54-207-192-144-96-288-191h-36q0 4-6 12t-6 23q0 49 64 93 61 39 123 77 103 66 309 203h35q12-1 12-25zM2551-222q0-31-31-74t-56-43q-22 0-74 36-54 38-54 61 0 15 34 64 37 53 59 53 32 0 77-35.5t45-61.5zM902 1344q0-21-55-77-13 7-67 44-41 28-56 28 5 0-139-116-155-124-261-160l-45 13q10 28 185 162 51 44 152 128 0 9-71 76-6 9-6 28 0 67 45 141 51 86 119 86 97 0 97-161 0-31-3-68 10-17 60-68 45-45 45-56zM770 909q0-35-30-71-26-31-42-31-30 0-76.5 36t-46.5 61q0 18 28 64 32 54 59 54 31 0 69.5-42t38.5-71zM1640 207q0-177-160-380-170-218-352-218-100 0-365 54-32 16-95 40v36q33 34 45 34 13 0 141-20.5t141-20.5q165 0 351 154 175 144 184 256-98-52-131-52-71 0-112 51-36 47-36 118 0 66 46 167 58 125 133 125 82 0 152-152 58-124 58-192zM974 361q0-114-84-268-86-157-194-234-91-66-259-66-13 0-105 10.5t-105 10.5q-57 0-74 5t-69 39q2 58 66 58 13 0 84.5-10t84.5-10q133 0 330 126 212 136 212 257 0 12-71.5 110.5t-71.5 110.5q0 28 16 66 18 46 46 46 48 0 124-115 70-105 70-136zM4547 247q-19 59-78 78-24-24-24-47 45-45 67-45 21 0 35 14zM2459 248q-53 57-123 57-52 0-95-44-38-40-48-88h86q51-3 180 75zM717 1505q-10 24-33 58h-36v-38q3 0 27.5-10t41.5-10zM1466 288q-34 68-61 68-18 0-41-23v-35q20-19 54-21 32-2 48 11z" glyph-name="uniFB8A" horiz-adv-x="4708" unicode="&#xfb8a;"/><glyph arabic-form="final" d="M1671 1484q0-52-136-135-77-42-153-83-100-59-290-171-26 25-26 36 0 72 208 172 58 27 349 212h35q13-13 13-31zM1926 413q1-50-46-94-68-65-210-133-139-67-249-91-140-31-327-37-26-24-35-108-10-88-39-122-75-90-231-142-128-44-235-44-186 0-304 136-32 54-38 96t-6 54q0 151 167 337 48 0 48-30 0-12-51-99.5t-51-99.5q0-120 113-179 79-41 174-41 77 0 205 41 163 53 163 123 0 12-8.5 34t-9.5 31q-9 75-36 121-1 3-35 48-24 32-24 47 0 30 44 117h35q12-8 69-90 49-73 83-73 11 0 55 4.5t66 4.5l18 18q-3 9-24 55-18 40-18 56 0 13 15 43 19 42 23 51 110 311 310 311 86 0 214-137v-67q-3 0-20.5-6t-29.5-6q-11 0-40 22.5t-38 25.5q-54 14-65 14-45 0-127-46-99-55-99-118 0-44 72-111 67-63 103-63 47 0 208 90 126 70 174 104 5 0 18-5.5t19-5.5v-36zM708 553q0-43-38-80-33-33-59-33-46 0-74 33-24 28-24 59 0 29 26 69 29 44 56 44 26 0 69.5-36t43.5-56z" glyph-name="uniFB8B" horiz-adv-x="1827" unicode="&#xfb8b;"/></font>
</defs>
</svg>
