<svg xmlns="http://www.w3.org/2000/svg"><defs><font horiz-adv-x="992"><font-face ascent="1638" bbox="-309 -1305 6601 2299" cap-height="673" descent="-410" panose-1="2 0 4 0 0 0 0 0 0 0" underline-position="-250" underline-thickness="100" unicode-range="U+000D-FEFC" units-per-em="2048" x-height="1166"/><missing-glyph d="M142 226v1362h700v-1362h-700zM284 368h416v1079h-416v-1079z"/><glyph arabic-form="final" d="M2728 1357q0-63-372-262h-45q-13 14-13 41 0 43 151 132 105 62 211 124h45q23-24 23-35zM1889 1751q0-66-334-235h-65q14 76 53 100 257 165 281 165h51q14-13 14-30zM2482 936q0-77-114-138-99-51-182-51-11 0-50.5 5.5t-52.5 5.5q-6 0-98-31l-25 24q27 87 54 112 21 18 69 18 12 0 58.5-5.5t59.5-5.5q87 0 140 29 91 50 128 63 13-2 13-26zM2800 271q0-40-19-99-23-73-55-88-68-28-262-65-203-39-309-39-141 0-232 33-22 8-53.5 38.5t-39.5 54.5q-58 164-58 421 0-4-24 194.5t-51 316.5q-4 19 18 83v28q-14 6-44-2-36-10-45-10h-33q-5 24-25 89-17 55-17 69 0 30 74.5 105t104.5 75q17 0 46-27t37-49q2-25 6-70 34-20 89-20 0-3 5.5-13.5t5.5-25.5q0-33-58-60-33-13-67-25-4-2-18-14 21-58 48-183 17-148 41-440 7-166 13-203 19-117 80-159 48-33 233-33 129 0 288 25 219 33 219 88 0 10-46.5 87t-46.5 92q0 33 22 61 20 26 40 26 56 0 100-126 33-95 33-135zM2359 440q0-50-33-81-17 0-35 23-10 38-55 143-40 94-40 104 0 33 24 57 62-10 104-101 35-76 35-145zM2923-209q0-34-43-62-37-26-64-26-12 0-41.5 10.5t-40.5 10.5q-13 0-49-20.5t-49-20.5q-37 0-67 34-25 28-25 48 0 39 44 69 33 23 48 23 13 0 31-5.5t31-5.5q12 0 50.5 16t51.5 16q35 0 81-37 42-34 42-50zM1407 1182q0-56-61-56-11 0-27 5t-30 5q-27 0-93-62-90-85-108-98-37-17-115-54l-57 14q8 7 164 152 102 94 102 110 0 3-35.5 48t-35.5 75q0 33 46 99 53 75 102 75 44 0 62-44 10-24 11-81 1-68 7-95 3-15 35.5-48.5t32.5-44.5zM977 1484q0-45-372-276h-34l-16 10t-8 21q0 39 179 161 169 116 187 114h53q0-3 5.5-9t5.5-21zM1469 813q0-44-4-53-26-51-60-71-115-65-166-65-35 0-62 34-25 31-25 64 0 19 23 65 22 0 40-4.5t29-4.5q17 0 36.5 31t49.5 31q14 0 21.5-5.5t19.5-5.5q14 0 32 24 26 34 31 37 35-35 35-77zM1592 194q0-26-24-58-26-34-53-34-13 0-71.5 31t-72.5 31q-37 0-213-76-52-22-77-65-36-64-36-151 0-32 7-104.5t7-113.5q0-36-4-69-1-19-42.5-58t-60.5-39q-47 0-87 126-30 93-38 176 1 41-7 122-10 37-57 37-13 0-54-5t-54-5q-113 0-166 45-64 55-83 204-5 172-26 492-6 65-33 231-25 150-25 164t19 54q20 45 38 59 19-13 41-45 32-158 58-456 37-436 41-476 5-49 72-82 54-27 100-27 159 0 290 184h34q21-16 21-40 0-14-9-43t-9-42q-8-8 16-8 9 0 71 45 71 50 101 64 147 66 222 66 60 0 113-46 51-44 51-88zM1674-256q0-32-33.5-67t-58.5-35q-12 0-46 15.5t-47 15.5-48.5-20.5-48.5-20.5q-32 0-72 39-35 36-35 53 0 34 43 66 36 26 54 26 12 0 40.5-10t41.5-10q15 0 58.5 20.5t53.5 20.5q29 0 63.5-36.5t34.5-56.5zM1253 1330q0 29-25 29-24 0-24-29h49z" glyph-name="uniFB51" horiz-adv-x="2819" unicode="&#xfb51;"/><glyph arabic-form="isolated" d="M2664 1525q2-14 2-27 0-84-96-155-86-63-161-63-155 0-151 0-13 1-13 25 0 37 67 75 45 22 89 45 25 15 63 61 42 51 60.5 65.5t48.5 14.5q24 0 91-41zM2562 225q0-64-21-192-8-4-24-13-43 18-44 56-5 207-40 443.5t-38 334.5q-1 23-9 82-8 55-8 68 0 35 43 121h38zM1774 1669q0-44-199-154-143-76-286-153h-44q-13 13-13 31 0 44 230 170 187 102 300 146 0-3 6-14.5t6-25.5zM1744 1213q0-87-54-124-42-30-129-54-72-22-99-22-36 0-60 43-17 32-17 55 0 15 23 86h47q19-40 38-40 28 0 40 24 27 55 29 57h35q10-15 40-50 28 19 70 82 37-40 37-57zM1744 604q0-39-31-67-28-25-57-25-35 0-71 28.5t-36 53.5q0 26 33.5 59t64.5 33 65-31q32-29 32-51zM791 1290q0-51-46-51-13 0-56.5 25.5t-55.5 25.5q-16 0-142.5-102.5t-155.5-102.5h-53q-13 2-13 26 0 22 64 68 54 38 108 77 74 60 74 101 0 10-25.5 52t-25.5 55q0 50 56 120 60 74 113 74 35 0 52-33 18-37 18-81 0-22-5.5-63.5t-6.5-60.5q13-18 68-71 32-30 32-59zM2153 240q0-97-43-165-53-85-156-85-13 0-102 25.5t-98 25.5q10 0-152.5-40.5t-221.5-40.5q-105 0-225 86.5t-118 86.5q-36 0-71-48-31-41-31-60 0-59 158-99 87-22 174-43 36-41 36-72 0-174-293-293-224-91-377-91-186 0-297 75-128 85-128 253 0 192 156 336h37q0-3 6-12t6-22q0 2-46.5-81.5t-46.5-143.5q0-131 135-196 94-45 204-45 104 0 272 55 159 53 178 84 0 17-7 21-300 63-300 193 0 69 105 207 112 146 191 146 35 0 82-44 69-64 91-78 50-32 181-32 133 0 131 0 67 5 122 43 20 13 53 59.5t53 61.5q7-7 21-24 1-10-2-36-5-32-5-46 56-48 139-48 97 0 97 77 0 11-14 130-15 138-20 197-10 115-52 328-2 10-20 55-17 38-17 58 0 62 64 169h36q6-31 25-85 12-21 46-52 23-21 23-53 0-34-20.5-68.5t-20.5-115.5zM761 870q0-76-52-116-44-33-147-51-3-1-38-15-30-12-45-12-36 0-61.5 26t-25.5 61q0 46 35 96 13-4 38-23 21-17 35-17 24 0 48 38 34 56 44 65 16-20 31-39 20-23 36-23 13 0 32 29 17 26 32 52 38-18 38-71zM1467-557q0-33-33-63-30-25-49-25-43 0-81 44-31 37-31 58 0 31 33 59 30 23 54 23 22 0 63-32 44-36 44-64zM1713-680q0-55-232-153-210-88-249-88-15 0-26 5.5t-14 5.5v37q44 52 138 90 81 29 161 59 10 4 87 41 56 28 69 27h54q12 0 12-24zM605 1486q0 29-24 29t-24-29h48zM2580 1479h-36q-22-13-22-59 58 28 58 59z" glyph-name="uniFB52" horiz-adv-x="2573" unicode="&#xfb52;"/><glyph arabic-form="final" d="M775 1444q0-56-476-312-14 12-24 12v54q-1 25 198 145 193 117 278 147 24-24 24-46zM1226 262q0-97-67-183-40-51-156-68-80-9-160-19-7-1-48-43-15-14-75-14-14 0-83 10t-81 10q-33 0-49-13-61-60-185-158-93-54-273-54-67 0-102 12v36q27 35 72 43l74 14q99 37 296 133 40 23 45 54-1 41 6 123 12 53 67 118 60 70 110 70 46 0 70-27 54-64 77-84 33-28 79-39 49-13 132-13 44 0 92 19 60 26 60 63 0 9-3 19l-124 799q-4 72 65 154h36q3-34 15-95 20-21 45-62 3-21-9-67-14-55-16-78-4-52 21-224 19-70 45-205 24-217 24-231zM1267-265q0-39-22-55-68-48-193-109-118-56-139-55h-43q-23 23-23 40 0 28 148 105 107 55 214 109h45q13-13 13-35zM638 161l-34 48q-11-12-28-34z" glyph-name="uniFB53" horiz-adv-x="1222" unicode="&#xfb53;"/><glyph arabic-form="initial" d="M2217 1578q0-46-46-46-13 0-53.5 20.5t-54.5 20.5-120-80q-139-104-170-125h-35q-12 2-12 25 0 10 102.5 111.5t102.5 114.5q0 6-31 47t-31 76q0 45 44 111 51 78 114 78 60 0 68-89 0-55 1-109 16-38 73-83 48-38 48-72zM2268 1163q0-38-33-67-29-25-54-25-11 0-47.5 15.5t-49.5 15.5q-12 0-45.5-20.5t-46.5-20.5q-31 0-68 33-34 30-34 49 0 36 43 67 35 25 49 25 13 0 36-10.5t36-10.5q12 0 50.5 20.5t51.5 20.5q28 0 70-33.5t42-58.5zM1705 1168q0-49-172-157-90-52-180-103h-34q-13 13-13 35 0 43 104 110 62 35 123 71 36 25 114 79h45q13-13 13-35zM1153 1163q0-82-118-155-99-60-149-60-34 0-60 33-22 29-22 64 0 47 34 96h37q0-11 28-40 32 11 79 82 41-20 63-20 23 0 33 22 18 39 38 60 37-36 37-82zM712 1328q-9-9-18-19-14-13-28-13-12 0-48 20.5t-50 20.5q-1 0-154.5-123t-212.5-123q-27 0-52 25 17 39 53 63 223 145 223 194 0 12-30.5 56t-30.5 77q0 64 40 112 52 63 151 56 40-36 41-159 1-26 6-38 11-29 110-101v-48zM2381 262q0-29-43-68-39-34-56-34h-284q-3 0-347-121-35-11-184-37-95-15-139-65-12-14-20-56-10-50-16-66-126-280-266-328-68-23-171-23-78 0-175 25-112 31-142 72 21 23 65 23 25 0 67.5-9t51.5-9q72 0 168 33 109 38 226.5 152.5t117.5 188.5q0 11-36 57.5t-36 64.5q0 87 82 87 13 0 65-10t64-10q148 0 292 78-29 59-125 67l-152 10v33q0 37 73 93 48 36 148 72 69 23 140 48 164 72 234 143 52 61 103 123 58 64 118 59 42-25 71-111 24-71 24-124 0-56-45-102-26 13-60 87-31 67-64 67-13 0-117-106-126-127-175-166 57-64 242-81 267-22 290-28 0-3 5.5-8.5t5.5-20.5zM784 288q0-32-19-68-20-42-47-47-118-8-236-17-108-18-108-155l51-599q0-76-33-142h-37l-73 705q0 79 25 142 32 66 64 131 3 37 16 103 19 51 67 114 62 83 114 83 44 0 119-81 58-62 82-106 15-26 15-63zM1347-588q0-41-199-136-186-89-217-88h-62l-13 12v48q59 37 234 118 169 77 181 77h64q0-4 6-10t6-21zM1999 1773q0 28-25 28-24 0-24-28h49zM500 1527q0 29-25 29-24 0-24-29h49z" glyph-name="uniFB54" horiz-adv-x="2400" unicode="&#xfb54;"/><glyph arabic-form="medial" d="M1206 1434q0-39-230-183-222-139-248-139h-65v45q0 27 92 80 58 30 116 61 104 60 310 172 25-25 25-36zM795 1489q-13-96-160-166-122-57-217-57-13 0-63 4.5t-60 4.5q-40 0-48-2-21-7-68-47h-47v43q-1 37 61 84 58 45 91 45 11 0 75-10t79-10q85 0 159 30 36 15 152 81h46zM1247 226q0-65-40.5-112t-92.5-47q-12 0-88.5 20.5t-85.5 20.5q-38 0-66-41-38-57-70-78-36-24-126-24-68 0-72 1-49 7-95 44-52 42-65 119-5 64-12 127-37 204-45 451-2 53-17 184-16 126-16 134 0 57 45 117 44-20 54-72 5-48 9-96 13-93 28-369 13-231 40-367 11-54 66-84 45-25 96-25 105 0 179 98 6 8 103 183 54 98 112 98 60 0 115-130 44-106 44-152zM1081 274q0 18-5 36.5t-5 21.5h-59l11-58h33.5 24.5z" glyph-name="uniFB55" horiz-adv-x="1248" unicode="&#xfb55;"/><glyph arabic-form="isolated" d="M2120 1824q0-44-54-74-330-188-341-187h-53q-13 1-13 25 0 45 54 73 42 21 203 115 125 73 139 72h53q12-1 12-24zM2139 1320q-19-18-132-63-110-43-128-42h-53q-5 18-31 72-23 48-23 61 0 29 71.5 101t108.5 72q86 0 86-69 0-28-20-68 21-10 106-8l15 10v-66zM1486 1737q0-34-145-132-119-78-238-155h-34q-8 5-15.5 10t-7.5 20q0 45 150 141 121 73 242 145h36q0-4 6-9.5t6-19.5zM2110 216q0-40-43-148-27 0-36 13l-38 360q-18 132-41 409 0 28-18 104-18 74-18 86 0 35 54 143 37-11 51-66 4-14 13-91 22-175 50-495 26-287 26-315zM963 1948q-38-66-198-164l-266-160h-45q-13 14-13 31 0 38 184 151 145 90 281 155zM923 1496q0-76-55-116-42-32-144-57-3-1-36-15-27-12-42-12-26 0-71 43-10 91 45 151 7-3 28-29 19-22 34-22 12 0 40.5 41t41.5 41q10 0 34.5-20.5t34.5-20.5q10 10 32 41t32 41q26-25 26-66zM1895 310q-11-49-20-69-20-41-56-48-30-6-140-8-97-2-146-19-77-37-155-73-96-46-189-46-62 0-220 82-36-17-45-76-2-46-5-93-18-117-177-200-138-71-265-71-122 0-212 75-100 82-100 217 0 48 57 162 61 118 93 118 2 0 3-2 11-10 11-33 0-9-31-82.5t-31-96.5q0-102 100-155 73-39 161-39 78 0 183 48 114 54 136 112 4 10 4 75l-82 809q0 85 13 190 1 13 43 56 8-8 22-24 14-97 41-288 77-559 193-559 35 0 105 97.5t151 97.5q8 0 108-42 110-46 169-58 114-25 209-27 43-1 72-30zM1363 268q-36 35-72 35-7 0-37-21-35-25-45-47 14-14 46-14 18 0 55 14 41 16 53 33z" glyph-name="uniFB56" horiz-adv-x="2116" unicode="&#xfb56;"/><glyph arabic-form="final" d="M1922 1496q0-98-105-171-88-59-166-59-10 0-31 5-17 3-29 1-27-17-44-16h-44v33q0 36 65 82 40 24 79 49 30 41 95 117 46 46 93 46 36 0 61.5-26t25.5-61zM1317 1431l-423-196h-44q-24 24-24 36 0 24 220 129 210 101 231 101 14 0 25.5-6t14.5-6v-58zM1748 221q0-74-33-152h-37l-104 904q0 103 45 149 39-19 44-55zM1246 1189q0-115-188-163-11-3-48-21-31-16-45-16-31 0-50 32-17 28-17 60 0 13 33 112 36 0 56-40 14 5 50 39 32 33 46 33 10 0 23.5-10.5t26.5-10.5q16 0 36 23 15 19 31 39 46-38 46-77zM724 1107q0-22-15.5-39.5t-30.5-17.5q-12 0-50.5 20.5t-52.5 20.5q-35 0-129.5-92t-151.5-92q-41 0-41 41 0 18 12 29 56 42 113 83 80 60 80 93 0 13-25.5 61.5t-25.5 60.5q0 39 49 108 55 77 104 77 81 0 81-135 0-28-3.5-60.5t-3.5-33.5l58-60q32-34 32-64zM1451 288q0-100-35-176-46-96-134-96-13 0-105 36t-105 36q-9 0-69-45-66-52-97.5-65t-63.5-13q-89 0-139 46-23 23-98 139-60-25-120-51-55-21-114-21-138 0-138 66 0 85 172 220l208 146q17 30 53 89 9 0 23-13t14-31v-258q0-45 47-100 50-58 102-58 60 0 121 54 58 51 58 99 0 14-20.5 165t-20.5 163q0 85 34 123 19 0 33-23 26-47 40-201 16-159 44-223 47-106 162-106 37 0 56 47l-113 414q12 40 33 112h37q135-406 135-475zM590 342h-47q-33-18-67-38-36-22-37-52h64q18 0 48.5 32.5t38.5 57.5zM562 1283v38l-68 10 10-47q1-1 58-1zM1839 1481l-46 14q-44-23-44-60 6-1 13-1 43 0 77 47z" glyph-name="uniFB57" horiz-adv-x="1746" unicode="&#xfb57;"/><glyph arabic-form="initial" d="M1799 1687q-208-149-365-227-14 15-14 36 0 62 178 166 146 85 187 94l14-12v-57zM1093 1583q0-32-263-188-253-150-270-150-41 0-41 41 0 39 259 192 248 146 268 146 47 0 47-41zM1717 257q0-73-30-160-45-121-123-121-74 0-145 31-86 40-105 105-6 20-33 48-69-46-212-121-219-84-437-84-166 0-274 64-136 80-136 243 0 156 137 285h37v-46q0-12-28-47-35-42-41-56-3-5-3-49 0-129 145-189 95-41 204-41 135 0 334 58 259 77 259 188l-71 716q0 4 32 131 6 1 22 12 19 0 34-24l41-400q23-233 51-419 3-39 5-76 4-49 22-76 51-80 156-80 61 0 77 52l-133 896q17 84 64 178h37q1-52 24-135 5-7 47-41 33-26 33-44 0-14-28-79-36-81-44-105zM980 743q0-79-144-129 17-21 58-45 54-34 65-42 3-99-56-161.5t-153-62.5q-83 0-118 66 14 32 44 32h13 14q25 0 42 20-52 68-52 117 0 69 78 163t142 94q67 0 67-52z" glyph-name="uniFB58" horiz-adv-x="1736" unicode="&#xfb58;"/><glyph arabic-form="isolated" d="M2925 1609q0-65-474-316h-36q0 4-6 12t-6 23q0 45 194 160 135 76 271 152h44q13-14 13-31zM2444 1546q0-55-26-79-51-47-141-97-84-47-106-47h-62l-23 25q8 35 71 67t72 65q-17 17-36 17-39 0-90-50h-47q16 72 73 118 52 44 110 44 36 0 112-22 79-23 93-41zM2904 954q0-36-33-64t-63-28q-12 0-31 5t-31 5q-13 0-54-20.5t-54-20.5q-28 0-60 24t-32 53q0 53 45 73 17 8 66 9 54 0 77 7 9 3 39 22 25 17 40 17 35 0 65-33 26-29 26-49zM1973 1620q0-52-475-308h-34q-13 14-13 31 0 49 189 156 132 76 265 151h55q13-13 13-30zM1943 657q0-37-34-66-28-26-48-26-23 0-61 27-42 31-39 61 29 77 29 87 0 12-4 22t-28 46q-20 29-20 44 0 26 23 56 26 36 59 36 16 0 54-28 41-30 41-54 0-3-1-6 0-11-11-42t-11-46q0-6 2-12 3-12 27-51 22-34 22-48zM2465-212q0-32-32-67.5t-55-35.5q-31 0-64.5 33t-33.5 65q0 40 34 65 28 21 59 21 37 0 67-33 25-28 25-48zM1267 846q0-37-28-64-25-23-54-23-30 0-60 23-33 26-33 54 0 17 26 54 30 44 62 44 30 0 60-35 27-30 27-53zM2772 304q0-111-35-166-18-28-112-53-82-22-129-22-58 0-137 46.5l-79 46.5q-14 0-70-46.5t-119-46.5q-13 0-105 36t-105 36-41-20q-34-24-44-28-114-44-217-44-97 0-199 61t-124 61q-38 0-276-118 21-31 155-55 111-21 111-102 0-166-313-281-239-88-388-88-169 0-289 88-136 98-136 265 0 89 52 199 60 126 139 154 7-5 15.5-10t8.5-20q0-13-39-75-48-79-61-107-3-4-3-54 0-266 364-266 102 0 225 31 151 37 210 98-12 12-156 59-120 40-120 104 0 77 165 175 140 85 188 88 12 1 56 46-1 25-47 28-62 3-85 17-2 105 111 167 85 47 165 47 76 0 151-33 95-42 95-111 0-3-63-157 65-48 139-48 69 0 186.5 46.5t120.5 46.5q12 0 95.5-30.5t94.5-30.5q52 0 84 30 28 28 28 66 0 13-20.5 128.5t-20.5 128.5q0 68 23 106 26 0 34-11 24-43 51-180 26-130 61-184 55-84 169-84 133 0 133 66 0 12-25.5 62t-25.5 66q0 10 6 37t6 43q3 0 11.5 6t22.5 6q50 0 83-105 25-77 25-115zM1686-330q0-46-33-64-383-198-424-197h-51q-14 13-14 35 0 39 44 63 97 53 245.5 120.5t167.5 67.5h53q12-2 12-25z" glyph-name="uniFB5A" horiz-adv-x="2768" unicode="&#xfb5a;"/><glyph arabic-form="final" d="M3914 1352q0-45-198-171-136-86-236-137h-45q-12 2-12 26 0 38 168 147 132 82 265 165h45q13-14 13-30zM3371 1277q-12-72-137-150-118-73-195-73-31 0-55 13-2 26 64 62 90 49 109 65-5 32-17 36 5-1-45-1-33 0-43-7-51-31-74-42-8 0-36 16 37 145 210 145 50 0 120-19 75-20 99-45zM2532 1393q0-40-229-169-204-115-340-170-25 25-25 41 0 39 34 58 489 270 505 270h42q13-14 13-30zM3853 287q0-164-123-164-13 0-92 20.5t-92 20.5q-12 0-55-33-49-38-70.5-46.5t-94.5-16.5q-61-7-88-29t-50-86q-30-91-36-103-60-120-164-186-98-63-205-63-85 0-188 27-120 32-154 77 31 9 199 9 85 0 112.5 5t110.5 38q71 28 166 121 107 104 107 173 0 11-25.5 60.5t-25.5 62.5q0 82 62 82 12 0 73.5-20.5t74.5-20.5q121 0 205 82 24 23 113 153 56 82 112 82 62 0 101-117 27-81 27-128zM2440 670q0-36-30-63-25-24-47-24-42 0-85 42-5 9-5 21 0 34 29.5 73t55.5 39q33 0 59-34 23-29 23-54zM2911 353q0-47-59-138-60-93-117-130-77-50-145-62-55-10-177-11t-182-12q-33-5-71-48-47-52-66-64 0 13 4 58.5t4 58.5q0 18-21.5 42t-39.5 24q-14 0-38-19-32-26-37-28-78-44-151-44-55 0-116 30-71 35-86 86-24 83-68 574-5 54-27 213-20 146-20 156 0 19 16 54 20 43 45 43 22 0 37-24 29-287 88-861 6-48 72-81 52-27 90-27 69 0 129.5 56.5t95.5 56.5q13 0 72-31t71-31q48 0 232.5 143.5t254.5 143.5q56 0 124-30 86-39 86-98zM1118 1325q1-27-227-147-214-112-331-154-13 11-23 11v47q64 67 216 140 170 81 341 160 15-11 24-11v-46zM1058 691q0-41-37-72-32-25-61-25-11 0-40.5 10t-41.5 10-56-30.5-56-30.5q-28 0-73 33t-45 54q0 27 33.5 62t64.5 35q14 0 39-10t37-10q13 0 56.5 30.5t56.5 30.5q37 0 80-32t43-55zM1426 271q0-35-25-102-30-82-70-104-112-64-325-98-168-28-312-28-152 0-268 46-167 67-167 209 0 62 18 99 21 43 98 126h45q13-1 13-25 0-13-25.5-71.5t-25.5-71.5q0-149 414-149 122 0 273 29 184 36 235 90 1 7 1 12 0 35-52 89t-52 77q0 21 19 60 22 42 43 42 76 0 126-104 37-78 37-126zM3708 319v27l-46 12-2-2t-1-37h49zM2757 247v36q-50 34-108 34-63 0-121-38-54-45-109-89l24-26h103q42 0 211 83z" glyph-name="uniFB5B" horiz-adv-x="3851" unicode="&#xfb5b;"/><glyph arabic-form="initial" d="M3811 2041q0-43-174-150-140-81-281-162h-34q-8 4-15.5 9t-7.5 21q0 42 97 103 54 31 110 62 148 94 279 152 26-25 26-35zM3849 1414q-24-33-52-42-89-21-269-84-12 7-32 24 0 20-16.5 64.5t-16.5 54.5q0 37 74 110.5t115 73.5q34 0 56-22 21-21 21-44 0-54-113-73 26-19 64-19 18 0 55 6t55 6q19 0 35-4 13-2 24 16v-67zM3329 1360q0-48-134-121-121-63-157-63-15 0-28.5 5.5t-17.5 5.5v47q35 23 102 80-1 0-2 1-12 14-39 14-6 0-98-31-15 14-15 31 0 40 65 84 57 39 89 39 43 0 129-25 106-30 106-67zM3811 325q0-136-23-203-5 0-18.5-5.5t-18.5-5.5l-135 1007q-15 64 33 169h37q31-76 39-168 23-166 46-333 40-301 40-461zM3370 827q0-35-32-68.5t-60-33.5q-30 0-68 43-34 40-34 54 0 25 23 54 26 33 59 33 27 0 68-27 44-29 44-55zM2756 1575q0-44-191-166-126-76-253-152h-35q-7 5-15 10t-8 21q0 46 102 111 58 32 115 65 78 50 227 141h45q13-13 13-30zM3545 274q0-13-9-29-9-20-9-28-28-169-163-317-143-158-296-158-75 0-247 34-37 7-86 53 36 36 62 36 11 0 42.5-5t44.5-5q65 0 204 33 91 22 225 149 139 134 139 217 0 46-52 88-59 45-68 80-3 11-3 26 0 16 13 48 18 45 44 45 70 0 121-126 38-93 38-141zM2398 648q0-25-23-86h-37q-12 52-46 156-15 32-65 105-45 63-45 76 0 51 41 51 70 0 127-132 48-109 48-170zM2971 366q0-11-12-51-14-43-16-57-9-61-28-93-124-222-256-311-120-81-292-81-35 0-127 24-76 21-97 29-2 10 9 27t25 19q61 2 184 16 152 31 290 140.5t208 259.5q-20 5-62-3-51-11-56-11-56 0-105 54-44 49-44 90 0 51 57 160 65 127 122 127 76 0 144-156 56-127 56-183zM1159 1549q0-56-290-192-102-49-227-120l-46 11v59q482 268 498 268h52q13-2 13-26zM2285 250q-44-139-153-139-13 0-63.5 4.5t-59.5 4.5q-119 0-322.5-76t-322.5-76q-93 0-159 44-40 27-82 84-34 45-46 45-13 0-55-31-55-39-71-48-224-115-458-115-146 0-253 64-136 82-136 238 0 140 126 261 38 0 38-36 0-13-25.5-77t-25.5-77q0-106 120-171 91-49 167-49 145 0 319 56 244 77 244 210 0 144-82 666 0 14 33 81h35q50-50 71-280 27-296 39-378 40-262 103-262 27 0 72 58 65 84 92 108 65 59 139 59 32 0 231.5-72t335.5-72q12 0 46 5t47 5q21 0 56-34zM1732-196q0-93-108-93-15 0-85 21-3 6-3 19 0 42 25 85 30 50 74 50 35 0 66-27.5t31-54.5zM1987-317q-56-49-268-145-203-93-238-93-15 0-23 6t-11 6v58q46 32 260 129.5t240 97.5q17 0 40-23v-36zM811 489q0-65-71-129.5t-129-64.5q-79 0-168 84-2 10 6 24.5t24 14.5q13 0 61.5-15.5t61.5-15.5q16 0 51 18v27q-56 56-63 68-9 15-9 56 0 44 57 137 63 103 118 103 19 0 40-16.5t21-34.5q0-40-34-76-29-26-59-52 32-31 88-100 5-12 5-28zM2786 497q-43 22-59 22l-11-48 57-12q13 13 13 38zM1629 210q-58 44-117 44-35 0-74-21-44-23-44-56 0-36 46-36 53 0 166 34 23 17 23 35z" glyph-name="uniFB5C" horiz-adv-x="3820" unicode="&#xfb5c;"/><glyph arabic-form="isolated" d="M2344 1378q0-19-186-146-182-125-189-123h-64q5 24 13 58 87 67 222 157 149 101 168 101 15 0 23.5-6t12.5-6v-35zM1832 1563q0-66-84-135-79-64-137-63h-177q22 84 73 117 22 2 62 16 13 10 82 92 52 61 94 61 32 0 58-23 29-26 29-65zM1771 279q0-132-34-184h-37l-123 1038q0 88 54 138 12 0 33-33 17-81 41-227 66-545 66-732zM1197 1510q-32-30-226-150-210-130-245-130-16 0-40 24v35q39 38 236.5 159t224.5 121 50-24v-35zM1156 1180q0-40-14-69-26-52-81-72-149-54-155-54-67 0-67 82 0 20 23 91 14 0 35.5-9.5t33.5-9.5q15 0 37.5 25t34.5 25q10 0 24-10t27-10q24 0 54 61h35q13-13 13-50zM2365 217q0-120-72-268-79-163-196-250-102-75-254-75-62 0-190 13-20 1-97 53 36 36 82 36 11 0 27-5.5t29-5.5q90 0 224 44 58 19 194 144 150 138 150 208v38q-1 2-4 12-1 4-16 4-8 0-40.5-10t-46.5-10q-68 0-112 62-36 52-36 102 0 58 47 151 54 105 106 105 94 0 157-159 48-118 48-189zM604 867q0-15-6-28t-6-17q-121 19-111 19-18 0-146.5-107t-177.5-107h-42l-12 12v38q265 181 265 216 0 12-40.5 66t-40.5 67q0 51 57 117.5t106 66.5q40 0 58-34.5t18-70.5q0-15-4.5-42.5t-4.5-40.5q0-21 7-39.5t45-62.5q35-39 35-53zM1454 212q0-101-30-145-39-55-140-55-85 0-146 36t-58 36q-9 0-77.5-71.5t-153.5-71.5q-78 0-116 42-13 16-39 78-18 43-50 43-3 0-67-35.5t-127-35.5q-74 0-153 63 14 105 99 186 37 35 176 128 116 77 166 145 16-44 26-138-3-57-4-175 2-50 45-94t91-44q47 0 100 61 48 55 48 88 0 12-25.5 178.5t-25.5 179.5q0 54 46 118 32-45 48-142 12-79 24-159 32-139 44-164 41-88 135-88 61 0 61 46 0 1-61 180.5t-61 249.5q0 50 33 117 43-11 56-59 7-38 15-77 45-119 91-237 30-80 30-184zM2191 356q-18 34-60 34l-11-48 59-11q0 9 12 25zM655 274q0 22-13 35h-45q-48-28-137-87 37-36 67-36 34 0 75 20 53 26 53 68zM456 1045v38l-69 11 11-48q1-1 58-1zM1758 1547l-47 14q-44-23-44-60 6-2 14-2 42 0 77 48z" glyph-name="uniFB5E" horiz-adv-x="2365" unicode="&#xfb5e;"/><glyph arabic-form="final" d="M2397 1682q0-36-43-63-302-189-351-187h-64q0 4-6.5 12t-6.5 23q0 67 435 261 9 0 23-13 13-16 13-33zM2316 1170q0-29-33.5-63t-63.5-34q-31 0-74.5 34.5t-43.5 57.5q0 38 42 68 37 24 60 24 29 0 69-28 44-31 44-59zM1763 1493q0-29-23-48-17-14-28-14-13 0-38.5 15.5t-38.5 15.5q3 0-155-118t-208-118q-15 0-26 6t-14 6v37q75 59 150 119 136 108 136 129 0 10-41 56t-41 67q0 41 46 107 54 77 112 77 63 0 75-99 3-65 4-129 9-12 59-50 31-23 31-59zM1691 996q0-24-34-60.5t-57-36.5q-32 0-70 44-33 38-33 48 0 26 33.5 59t63.5 33q32 0 64.5-32t32.5-55zM2756 473q0-67-94-140-121-94-354-157-206-56-361-56-98 0-231.5 26t-121.5 26q-22 0-103-19-95-22-151-46-23-10-62-83-26-53-52-105-82-141-202-235-49-37-95-41-132-14-185-14-106 0-218 32-1 8-12 24 18 30 89 35 60 3 120 4 95 9 249 117 166 115 207 225 0 9-17 20-128 23-150 31-88 35-88 121 0 54 56 154 66 118 133 118 70 0 118-107.5t112-107.5q30 0 70 14 43 15 50 33 11 63 47 185 28 69 81 133 70 85 131 85 67 0 104-98 29-74 29-158 0-12-17-74-21-73-25-94 64-37 145-37 180 0 180 36 2 17-7 52-10 39-10 58 0 13 3 25 40 132 106 222 87 119 194 119 127 0 219-126 0-5-5.5-18t-5.5-19h-54q-11 0-43 15.5t-45 15.5q-58 0-146-47-100-52-100-107 0-49 68-100 60-44 91-44 88 0 306 144h34q13-14 13-37zM852 1262q0-14-6-22.5t-6-10.5q-30-9-65-2-43 10-41 10-15 0-21-6.5t-7-7.5l-130-120q-127-112-161-112h-62q-13 2-13 26 0 20 135.5 133.5t141.5 151.5q-14 16-57 37-28-13-34-61-5-41-43-41-11 0-25.5 5t-25.5 5q-17 0-131.5-102.5t-159.5-102.5q-23 0-57 35 11 29 117 115 98 79 98 116 0 13-9 22-53 50-53 101 0 22 22 72 23 58 52 86 31 32 97 26 52-36 55-129t36-115h9q5 5 18 67 13 53 64 105 55 55 103 55 12 0 23-4 36-27 45-98 11-108 11-109 8-24 45-71 35-41 35-54zM729 305q0-129-86-277-92-156-234-251-51-35-182-35-206 0-306 54v37q46 22 66 22 13 0 46-5t46-5q146 0 345 133 213 142 213 276 0 34-120 177 0 1-8 13-6 10-6 25 0 20 19 57 22 45 48 45 78 0 126-125 33-88 33-141zM1743 473q0 21-14 45-18 33-48 33-27 0-59.5-34t-32.5-69q0-61 56-61 19 0 54 23 44 29 44 63zM1582 1666q0 29-25 29-24 0-24-29h49zM672 1445q0 29-24 29t-24-29h48zM369 1453q0 29-24 29t-24-29h48z" glyph-name="uniFB5F" horiz-adv-x="2770" unicode="&#xfb5f;"/><glyph arabic-form="initial" d="M2371 1631q0-43-33-63-427-260-453-260-14 0-19.5 6t-15.5 6v54q-1 33 204 151 172 99 270 141h34q13-13 13-35zM2371 1140q0-161-148-173-12-1-56-19t-57-18q-28 0-55 33-22 31-22 54 0 41 44 106h35q5-10 20-30 31 10 78 82 35 0 65-31 25 21 82 51 14-14 14-55zM2535 330q0-195-136-380-150-208-356-208-101 0-214 26-133 30-144 73 18 28 72 28 25 0 70-7t58-7q140 0 283 82 159 89 227 232l36 64q22 40 22 56 0 14-45 82-38 56-75 111-3 12-3 38 0 82 47 82 72 0 122-122 36-91 36-150zM784 1053q0-15-5.5-25.5t-5.5-14.5q-24-5-67 0-52 9-55 9-19 0-152.5-113t-195.5-113q-15 0-26 6t-14 6v33q-1 9 127 112t128 120q0 22-126 123l-2-24q0-28 12.5-74.5t12.5-74.5q-43-5-113-35-113-98-259-171l-88 13q23 42 134 112 107 67 132 125-82 96-82 134 0 48 50 115 56 74 114 74 35 0 64-65 36-81 43-88 4 2 99 109 40 44 91 44 47 0 67-33 18-31 20-72 1-37 2-73 1-18 5-30 9-22 52-72 38-45 38-57zM1746-417q1-28-209-126-199-94-216-93h-63q-13 13-13 35 0 46 34 62 106 52 259.5 115.5t172.5 63.5q14 0 22.5-5.5t12.5-5.5v-46zM2084 329q0-13-36-54.5t-52-41.5h-386q2 0-219.5-77t-360.5-77q-107 0-191 87.5t-116 87.5q-36 0-122-37-93-39-93-65 0-14 76.5-85t76.5-84q0-49-42-93-15-16-126-26-131-13-187-31-95-33-95-106l51-599q0-96-23-153h-36q-6 11-20 33-64 515-64 637 0 99 36 171 47 73 93 147-23 59-14 83 22 63 143 158 54 49 165 127 52 29 145 59 86 28 108 28 63 0 97-45 30-43 62-85 49-45 148-45 183 0 296 79-13 34-73 66-55 30-85 30-12 0-82.5-20.5t-81.5-20.5q-46 0-46 51 0 66 102 129 88 55 139 55 17 0 132-62 128-69 156-79 59-20 174-47 118-19 351-59v-36zM1122-299q0-34-37-64-32-28-60-28-8 0-40 10t-47 10q-13 0-54-20.5t-54-20.5q-35 0-75 33-42 35-42 70 0 40 33 68 28 24 59 24 13 0 48.5-15.5t48.5-15.5 56.5 20.5 55.5 20.5q40 0 76-33 32-32 32-59zM582 1224q0 29-25 29-24 0-24-29h49zM287 1208q0 28-25 28-24 0-24-28h49z" glyph-name="uniFB60" horiz-adv-x="2523" unicode="&#xfb60;"/><glyph arabic-form="isolated" d="M1300 1525q0-41-43-72-52-29-103-60-93-50-278-149h-45q-13 13-13 35 0-12 14 44 157 93 443 247 25-24 25-45zM1289 992q0-39-35-64-32-23-72-23-11 0-33.5 5t-32.5 5q-13 0-54-25.5t-54-25.5q-42 0-97 53-3 30 24 73 32 48 73 48 10 0 25.5-5t30.5-5q13 0 54 25.5t53 25.5q28 0 73-31t45-56zM767 1466q0-50-25-88-12-18-103-68-103-57-153-57-22 0-56 34 2 34 39 56 55 31 63 41 6 23-31 23-13 0-53-22-46-24-65-29-14 11-24 11 7 65 73 116 62 46 120 46 25 0 109-23 88-25 106-40zM1361 265q0-170-91-237-74-55-231-55-85 0-94 4-64 19-140 91-71 69-69 69-11 0-49-34-42-38-55-45-154-74-315-74-195 0-195 107 0 25 18.5 65t38.5 53q56-38 94-47 22-5 90-5 83 0 182 31 128 41 158 110 3 8 3 59 0 13-26 169t-26 169q0 50 34 117 30 0 44-22 30-44 50-228 22-196 64-279 69-136 229-136 85 0 101 5 51 12 73 70-24 6-64-3-50-10-55-10-68 0-112 53-36 46-36 100 0 66 61 164 63 102 114 102 87 0 153-164 51-127 51-199zM1155 405v28h-38v-28h38z" glyph-name="uniFB62" horiz-adv-x="1448" unicode="&#xfb62;"/><glyph arabic-form="final" d="M2538 1647q0-32-165-140-98-60-197-121h-44q-24 24-24 36 0 41 177 148l196 112h46q0-3 5.5-11.5t5.5-23.5zM2385 1028q0-39-43-64-31-18-50-18-27 0-59 22.5t-32 44.5 33 63q35 44 64 44t61-43q26-36 26-49zM2047 1606q0-43-182-160-173-111-204-110h-53q0 3-5.5 9t-5.5 21q0 47 166 135 88 46 237 141h34q13-13 13-36zM1279 1540q0-46-266-197-201-113-353-182-15 11-25 11v58q181 140 597 340h34q13-14 13-30zM2610 362q0-154-67-221-57-58-275-89-17-3-39-38-19-31-22-46-15-90-118.5-215t-198.5-165q-30-13-135-13-67 0-189 25-140 29-154 61l12 25q25 14 60 14 25 0 79-11.5t80-11.5q29 0 141 33 86 25 215 144t129 175q0 10-2 19-59 77-59 99 0 92 77 92 13 0 56.5-5t56.5-5q75 0 152 19 109 26 109 73 0 52-41 52-13 0-56.5-20.5t-56.5-20.5q-123 0-123 143 0 60 41 151 50 115 118 115 62 0 130-102 53-81 66-138 14-62 14-139zM1351 813q0-31-31.5-67t-56.5-36q-51 0-106 53-4 7-4 19 0 31 27.5 67t57.5 36q29 0 71-27t42-45zM1852 469q0-46-63-142-64-99-123-135-96-59-278-93-103-6-307-27-18-11-36-34-2-57-36-174-58-110-218-174-134-54-270-54-152 0-243 66-105 77-105 231 0 83 32 133 52 77 104 153 38 0 38-21 0-5-36-89t-36-115q0-104 119-157 82-37 168-37 112 0 243 55 146 62 146 139 0 71-51 169t-51 128q0 92 56 92 12 0 61.5-51.5t87.5-51.5q29 0 259 164t304 164q64 0 143-37 92-44 92-102zM1699 387q-32 57-123 57-111 0-296-170 2 0 13.5-7t26.5-7q106 0 273 54 56 18 106 73zM2433 524l-23 24h-37q-5-43 12-61h35q13 14 13 37z" glyph-name="uniFB63" horiz-adv-x="2616" unicode="&#xfb63;"/><glyph arabic-form="initial" d="M2065 1472q0-111-105-179-87-56-187-56-11 0-27 5t-29 5q-21 0-86-39-9 1-36 18 55 116 95 130 32 1 90 25 42 53 82 107 63 77 121 77 82 0 82-93zM1318 1559q-21-46-54-63-94-49-250-114-152-63-172-63-10 0-56 23v35q63 52 269 139 186 79 206 79 39 0 57-36zM1881 331q0-180-59-230l-105 921q0 54 45 143 50-27 54-66 65-619 65-768zM1256 1257q0-144-198-188-4-1-38-15-28-12-46-12-34 0-60 24.5t-26 57.5q0 43 24 101 6 5 32 22 24-12 24-53 3 0 10.5-4.5t22.5-4.5q22 0 43 42 16 30 31 60h35q26-50 44-50 13 0 38 33 30 38 50 48 14-27 14-61zM703 1034l-12-23q-9-2-19-2-24 0-67 11.5t-50 11.5q7 0-142.5-107.5t-221.5-107.5q-14 0-25 6t-14 6v37q73 47 147 92 90 59 138 120-24 32-47.5 65t-23.5 74q0 58 54.5 121t114.5 63q76 0 76-124t-8-105q17-42 100-102v-36zM1553 249q-19-98-39-196-24-65-125-65-77 0-165 45.5t-80 45.5q-2 0-83-71t-178-71q-95 0-142 48-22 22-50 88-20 47-49 47l-65.5-40.5t-144.5-40.5q-62 0-116 19-73 27-73 78 0 94 197 235 107 70 213 139 17 36 63 111h37l4-306q19-204 156-204 64 0 128 45 72 50 72 118 0 13-31 187t-31 187q0 40 44 127 26 0 34-12 13-81 41-226 17-108 35-215 46-161 184-161 41 0 51 8t10 44q0 12-56 235t-56 236q0 47 44 111h36zM1972 1440h-47q-23-20-23-37l21-6q33 9 49 43zM662 310q0 14-5.5 23t-5.5 12h-54q-33 2-180-116 22-23 22-26h135q20 0 54 42.5t34 64.5zM516 1224q0 29-25 29-24 0-24-29h49z" glyph-name="uniFB64" horiz-adv-x="1895" unicode="&#xfb64;"/><glyph arabic-form="medial" d="M2179 1559q0-49-228-193-147-93-258-149l-46 10v60q201 131 474 297h45q13-1 13-25zM1062 1557q-23-23-40-23-13 0-54 20.5t-53 20.5q-14 0-62-38-67-53-79-62-115-75-219-105-5 5-17 12t-17 13q18 30 120 104 106 76 146 132-6 8-53 61-29 33-29 51 0 43 56 112 63 77 123 77t71-84q4-61 8-124 10-36 99-101v-66zM2210 279q0-41-21-120-23-87-46-118-18-24-145-45-110-18-172-18-54 0-124 13-76 13-250 152-192 154-260 182-31-17-43-83l-18-108q-14-46-75-85-73-46-84-59l-34-94q-29-74-83-99-7-4-53-4-13 0-61.5 10.5t-61.5 10.5q-34 0-53-18-24-31-50-62-36-44-109-81-91-44-269-65-62 0-92.5 6.5t-23.5 6.5q0 31 22 45 103 38 327 133l78 36q45 27 59 68l-15 68q-2 15-2 31 0 88 74.5 169.5t155.5 81.5q12 0 87-25.5t88-25.5q59 0 108 37 2 46-4 58-52 97-211 251-186 182-243 260-14 19-14 85 0 157 145 271 90 70 476 270.5t433 200.5q15 0 26-5.5t14-5.5v-57q1-45-128-115-81-44-140-66-98-36-371-183-353-191-353-264 0-27 90-97 80-61 328-235 164-133 511-383 101-63 264-63 102 0 183 23 17 5 48 34-48 417-106 787-4 17-27 63-21 42-21 55 0 15 62 204 7 0 23 11 19 0 34-23 0-20 2-60 1-13 4-23 25-27 65-91 3-6 3-15 0-16-14.5-62t-14.5-68q0-138 41-423.5t41-273.5zM612 489q0-56-134-120-112-54-142-54-14 0-29.5 5.5t-18.5 5.5l-13 12v38q36 19 112 69-18 38-46 34-10 0-51-10-52-14-86-19v43q0 42 68 73 59 25 105 25 67 0 145-28 90-33 90-74zM879 1780l-40 13v-15l35-13zM838-8q-6 8-75 77h-66l-7-22q4-27 47-50 36-19 60-19 26 0 41 14z" glyph-name="uniFB65" horiz-adv-x="2211" unicode="&#xfb65;"/><glyph arabic-form="isolated" d="M2304 1739q-55-51-186-118-110-55-219-110-10 8-21 15-13 11-13 26 0 41 43 67 305 179 331 178h65v-58zM2336 1209q0-68-85-87l-114-14q-4-1-32-15-21-12-36-12-30 0-68 26-45 28-45 61 0 32 33 61 30 26 54 26 12 0 41.5-10t40.5-10q13 0 51.5 25.5t50.5 25.5q27 0 68-27.5t41-49.5zM1168 1869q0-47-54-78-323-188-331-188h-52q-13 14-13 31 0 36 186 146 109 60 217 120h34q13-13 13-31zM1168 1511q0-52-46-121-18-28-95-61t-120-33q-33 0-76 33 1 39 2 79 7 52 43 82 19-9 43-51 15 5 43.5 38.5t41.5 33.5q-5 0 66-31 32 31 49 81h38q0-4 5.5-20t5.5-30zM655 1817q0-48-25-70-68-51-186-119-200-115-201-116h-57q5 24 12 58 74 73 208 144l224 114q15-11 25-11zM2478 317q1-52-148-106-12 0-68.5 5t-69.5 5q-173 0-416.5-112.5t-372.5-112.5q-68 0-127.5 30.5t-81.5 30.5q-23 0-43-71-29-98-50-133-44-72-122-72-105 0-161 70-16 20-128 227-37-21-119-59-65-23-140-23-110 0-184 52-1 113 217 271 14 10 95 52 60 31 84 63 14 18 15 88.5t32 107.5q8 0 25-15.5t19-29.5q23-166 89-491 9-37 63-83.5t94-52.5q10-3 24-3 72 0 72 123l-82 972q0 135 44 174 25 0 34-13 16-161 72-482 27-177 55-354 54-205 235-205 72 0 156 19 109 25 141 67-14 14-28 23-133 45-204 45-141 0-125 0v34q-1 34 82 96 71 54 95 60 189 50 306 109 44 22 189 170 34 42 69 83.5t71 41.5q55 0 91-106 27-77 27-120 0-50-35-102-16 12-72 78-47 55-61 55-25 0-57-42-28-40-56-79-5-7-149-151 21-20 39-33 102-44 341-44 10 0 57 5.5t60 5.5q56 0 107-34v-34zM2202-199q0-66-457-252h-43q0 2-6 12.5t-6 25.5q0 38 194 133 166 80 293 122 25-24 25-41zM697 918q0-36-33-66-29-27-54-27-10 0-35 10t-37 10-56-30.5-56-30.5q-29 0-64 34-33 31-33 48 0 25 31 58.5t55 33.5q12 0 31-5t31-5q13 0 56.5 30.5t56.5 30.5q34 0 72-37 35-33 35-54zM666 202v48q-25 22-41 22-33 0-92-40-53-35-71-59l129-13q27 11 75 42z" glyph-name="uniFB66" horiz-adv-x="2482" unicode="&#xfb66;"/><glyph arabic-form="final" d="M4326 1983q0-48-186-141l-268-130h-45q-13 13-13 30 0 41 187 136 93 45 278 141h34q13-14 13-36zM4337 1493q-24-53-55-65-191-76-249-74h-43q-4 23-25 93-18 61-18 70 0 52 75 111 68 53 110 53 32 0 57-23.5t25-47.5q0-20-22.5-46t-39.5-26q-10 0-33 11-18 8-28 3 32-35 92-35 137 0 141-1 1-6 13-23zM4285 253q0-93-30-185 0-11-24-35-17 0-35 24 0 116-17 328-12 154-57 471-42 296-42 297 0 19 16 76 17 61 28 72h37zM3906 978q0-23-125-87-119-60-137-60h-103l-24 25q12 37 74 57 69 21 80 36-21 36-51 36-17 0-109-31-14 14-14 36 0 39 74 81 65 37 95 37 42 0 240-74v-56zM3272 1435q0-44-526-327h-45q-13 13-13 31 0 47 226 178 145 80 290 159h45q23-24 23-41zM3978-264q0-92-87-92-14 0-39 10.5t-38 10.5q-9 0-44-26t-48-26q-30 0-68 37-34 33-34 51 0 29 32.5 62.5t58.5 33.5q12 0 33.5-4.5t34.5-4.5q12 0 50.5 20t51.5 20q47 0 75-33 22-28 22-59zM2678 586q0-45-46-113-24 34-31 77-10 57-18.5 79t-57.5 90q-41 58-41 81 0 15 5.5 31t5.5 20h56q58-33 96-127 31-77 31-138zM2186 560q0-34-30.5-60.5t-56.5-26.5q-28 0-65 19-42 22-42 47 0 16 22.5 52.5t41.5 50.5q12 5 33 5 32 0 63-23 34-26 34-64zM1224 1519q-26-22-41-22-11 0-47.5 15.5t-49.5 15.5-170-112.5-169-112.5h-43q-12 1-12 25 0 33 128 115.5t128 130.5q0 28-36 53t-36 70q0 41 54 111 60 78 115 78 87 0 87-160 0-40-4-50 14-29 96-88v-69zM3957 268q0-159-84-211-104-65-330-65-9 0-51.5 5t-56.5 5q-70 0-98.5-30.5t-80.5-30.5q-100 0-186 56t-111 56q3 0-107.5-35.5t-209.5-35.5q-156 0-308 33-12 2-59 32-44 27-58 27-13 0-56-27-58-36-70-42-70-33-201-33-178 0-269 81-161 170-322 339h-36q-4-80-33-223-28-70-98-101-35-16-134-34-85-15-121-40-12-68-25-136-22-102-78-102-42 0-99 61t-63 118q-6 61 4 102-7 13-23 37-135-17-182-59t-47-141l62-619q0-74-34-152h-37q-21 146-43 292-40 292-40 408 0 139 19 197 31 100 146 202 26 22 166 48 8 1 36 20 27 18 42 18 10 0 63-32 59-37 87-47 7-3 112-3 157 0 210 58 1 8 1 17 0 55-39 133-35 61-68 123-15 30-136 185-96 125-96 181 0 133 116 255 47 48 234 136 114 54 339 154 209 88 460 184 12 5 112 51 83 39 96 39h53q7-5 15-10.5t8-20.5q0-19-20-56-22-41-44-53-33-18-339-140-398-158-469-190-449-199-449-283 0-10 297-314 304-312 459-458 26-23 141-50 11-2 91-2 122 0 183 23 18 6 85 56 61 44 75 44 11 0 63-37 60-43 87-53 87-33 244-33 23 0 163 13 67 6 111 40 56 59 110 118 82 85 138 85 30 0 71-54 59-82 77-98 87-84 252-84 53 0 150 19 114 22 132 49v16q0 33-36 90.5t-36 97.5q0 46 34 97 139-69 139-266zM2432-176q0-48-34-64-389-189-444-187h-54v47q15 34 54 50 435 189 437 189 41 0 41-35zM671 836q0-52-146-125-129-64-167-64-32 0-86 35 23 24 74 53 73 41 90 51-15 45-51 45-17 0-42.5-15t-36.5-15h-54v48q41 34 83 69 34 26 75 26 47 0 148-36 113-40 113-72zM3178 156q-17 55-42 81h-36q-6-26 8-53 14-28 37-28h33z" glyph-name="uniFB67" horiz-adv-x="4279" unicode="&#xfb67;"/><glyph arabic-form="medial" d="M2343 1525q0-47-201-175-12-7-284-168h-44q-13 13-13 35 0 44 32 66 395 268 445 267h53q12-2 12-25zM1892 1575q0-114-114-179-97-55-228-55-19 0-58-24-46-28-67-33-13 14-13 31 0 57 104 148 22 6 61 26 46 63 154 179 29 25 65 25 96 0 96-118zM1165 1511l-454-237h-54q-13 13-13 35 0 38 43 62 108 62 257 135 152 75 171 75 27 0 50-24v-46zM1729 260q0-29-16.5-88.5t-27.5-74.5q-25 0-35 13-13 129-66 562-50 397-50 407 0 124 46 154 36-17 43-66 106-847 106-907zM1115 1207q0-38-19-85-25-62-66-81-140-65-202-65-39 0-82 44 0 69 33 151 31 0 57-52h36q21 36 62 103 6-2 65-61 47 9 51.5 61.5t29.5 61.5q35-24 35-77zM2333 275q0-160-89-326-95-179-251-279-69-45-213-45-81 0-220 13-58 6-97 32 0 29 24 44 77 6 237 17 119 7 270 129 145 117 217 253v36q-129 9-177.5 49t-48.5 134q0 46 47 151 55 125 117 125 69 0 133-154 51-126 51-179zM551 1069q0-14-5.5-27t-5.5-23q-3 0-14-5.5t-25-5.5q-12 0-46 15t-47 15q-10 0-134-89-131-95-167-105-18 0-36 6.5t-21 6.5q10 12 225 228-17 34-56 67-26 21-26 60 0 57 54 128 58 77 115 77 62 0 72-101 3-58 7-116 11-17 67-73 43-44 43-58zM1401 168q0-27-29.5-100t-45.5-81q-27-14-83-14-55 0-104 14-20 5-72 33-46 25-60 25l-93.5-66.5t-177.5-66.5q-78 0-126 46-23 20-59 83-27 45-50 45-13 0-50-25-45-29-56-34-35-13-84-13-35 0-94 20-75 24-75 57 0 91 299 314 51 38 69 92 23 65 45 90 18 0 33-23 13-149 27-299 31-179 167-179 45 0 110 48 69 52 69 95 0 13-25.5 207.5t-25.5 207.5q0 61 33 127h37q24-57 42-238 18-182 49-255 50-121 167-121 38 0 51 36l-113 451q20 81 43 127h37q16-75 56-217 60-183 63-192 26-97 26-194zM1790 1547l-47 14q-44-23-44-60 7-2 14-2 43 0 77 48zM2168 354v36q-12 6-34 24-36-18-36-49 24-23 46-23 24 0 24 12zM365 1234v37l-68 11 10-47q1-1 58-1zM501 245q0 21-25 46-66-17-128-64v-37q3 0 19-6t31-6q26 0 59 15 44 21 44 52z" glyph-name="uniFB69" horiz-adv-x="2336" unicode="&#xfb69;"/><glyph arabic-form="isolated" d="M3490 1531q-134-103-402-287h-34q-13 13-13 35 0 62 403 322l46-11v-59zM2969 1411q0-59-125-139-111-70-147-70-45 0-45 36 0 15 40 51 69 59 72 61-15 16-35 16-15 0-59-17-54-19-68-24v45q-1 16 35.5 53t68.5 51q9 5 73 5 190 0 190-68zM2385 1540q0-70-444-337h-45q-12 0-12 24 0 73 237 202 71 47 206 141h45q13-14 13-30zM3522 265q0-60-27-104-32-55-91-55-14 0-100.5 20.5t-99.5 20.5q-18 0-90-55-76-59-113-106-48-94-159-286-54-80-163-140-106-58-191-58-63 0-167 27-121 31-150 68 28 8 178 8 163 0 313.5 100t214.5 252q-25 19-94 34-71 15-97 32-45 29-45 93 0 65 47 163 54 114 117 114 53 0 102.5-107.5t102.5-107.5q66 0 186 179.5t182 179.5q49 0 100-125 44-106 44-147zM1761 614q0-73-52-149-9 99-34 177-9 28-51 102-37 66-37 79 0 51 41 51 60 0 102-126 31-92 31-134zM1163 1509q0-42-47-42-11 0-42 14.5t-42 14.5q-6 0-125-94-127-98-180-112-12 11-21 11v33q214 177 214 209 0 11-33 50.5t-33 52.5q0 61 51.5 114.5t107.5 53.5q18 0 42-14 19-24 19-61 0-17-5-47.5t-5-41.5q0-17 7-26 4-6 55-56 37-35 37-59zM2385 270q0-165-64-234-67-72-238-72-72 0-128 30.5t-77 30.5q-10 0-91.5-41t-158.5-41q-130 0-250 121-202 203-298 268-8-4-23-17-3-73-17-143-24-37-55-113-1-68-3-137-5-80-63-119-36-24-95-24-12 0-36 5t-35 5q-31 0-39-2-137-183-330-212l-87 13q32 38 167 106 120 61 157 134 2 4 2 14 0 11-6 60t-6 78q0 81 57.5 144.5t139.5 63.5q13 0 32.5-5t29.5-5q29 0 63 21 39 25 39 56 0 9-58 110-36 66-108 184-20 29-147 147-86 80-86 153 0 133 85 238 75 92 420 270 167 90 512 271 266 137 304 137 41 0 41-51 0-58-54-89-176-100-553-287-312-154-362-181-311-171-311-242 0-20 225-208 286-240 306-258 87-93 266-280 62-63 196-63 114 0 189.5 46t87.5 46q11 0 49-25 43-28 60-34 38-12 96-12 159 0 173 97l-112 793q-2 35 19 99 24 71 56 106 37-21 43-54 2-34 3-69 1-13 4-23 49-56 49-68 0-13-20.5-77t-20.5-77zM675 473q0-53-26-79-44-40-132-88-83-45-104-45h-84q0 5-5.5 24t-5.5 25q43 27 132 90-6 24-46 24-32 0-113-41l-25 24q21 68 77 107 45 32 87 32 57 0 191-34 18-5 54-39zM3367 303q0 26-22 48h-36l-12-37q46-23 70-11zM2806 189l-40 13v-15l35-13zM839 2q-32 15-100 32l-12-37q67-33 81-33 31 0 31 38zM984 1671q0 26-23 26-22 0-22-26h45z" glyph-name="uniFB6A" horiz-adv-x="3538" unicode="&#xfb6a;"/><glyph arabic-form="initial" d="M2023 1547q0-44-44-73-444-270-479-270-51 0-51 41 0 17 15 43.5t29 33.5q255 131 472 260h46q0-4 6-12.5t6-22.5zM1275 1373q0-57-46-57-12 0-58.5 20.5t-59.5 20.5q-7 0-43-13-50-50-143-127-170-105-209-105h-32q-23 24-23 36 0 30 63 72 265 173 265 209 0 14-28 45-35 40-39.5 51t-4.5 42q0 53 59 130 62 80 115 80 46 0 73-80 25-71 15-120-1-4-11-30-8-18-3-29 16-36 68-78 42-33 42-67zM671 1557q0-59-43-84-383-218-403-218-14 0-22.5 5.5t-11.5 5.5v68q92 68 213 136 212 122 232 133 35-35 35-46zM2053 251q0-118-95-290-102-183-234-278-22-16-108-31-73-14-100-14-77 0-171 15-116 20-151 50 10 48 81 48 13 0 49-5.5t48-5.5q152 0 321 109 172 111 197 231-48 9-131 42-64 43-64 134 0 63 40 166 53 137 129 137 75 0 138-137 51-112 51-171zM1480 297q0-240-138-240-10 0-121.5 25.5t-124.5 25.5q-11 0-183-48-49-9-99-19-67-16-100-54-15-36-48-101-124-191-213-266-115-95-269-95-163 0-301 76 26 47 56 47 13 0 61.5-5t61.5-5q9 0 42.5 1t49.5 1q79 0 248 120 177 124 177 200 0 28-37 32l-86 10q-60 14-89 58-24 37-24 84 0 53 58 146 64 105 127 105 47 0 107.5-102.5t101.5-102.5q63 0 100 22 34 21 46 55 8 31 16 63 28 66 76 205 1 3-6 47-7 52-7 87 0 126 83 126 39 0 55-16 119-106 344-324 36-39 36-158zM1090 1584q0 29-25 29-24 0-24-29h49zM1888 353q-3 0-21 5.5t-36 5.5q-23-23-23-47l23-24h46q17 29 11 60zM1377 265v35q-85 84-98 84h-32q-23-46-23-81 0-20 31-36t67-16q44 0 55 14zM1131 335v68q-34 33-55 33-27 0-47-24.5t-20-52.5q0-46 67-46 30 0 55 22zM552 230q-2 0-20 5.5t-36 5.5q-23-23-23-47l23-24h46q17 29 10 60z" glyph-name="uniFB6C" horiz-adv-x="2034" unicode="&#xfb6c;"/><glyph arabic-form="medial" d="M2918 1531q0-83-83.5-159t-162.5-76q-9 0-44 10t-49 10q-15 0-126-81h-37v54q0 17 66.5 78.5t90.5 67.5q28 2 69 16 42 51 83 102 58 71 111 71 37 0 63-43 19-32 19-50zM2456 1602q0-52-24-89-18-25-103-70-90-45-133-45-7 0-56 22v28q35 29 91 88-5 6-25 6 1 0-60-31h-45q-13 14-13 36 0 50 58 86 52 32 106 32 114 0 204-63zM2795 318q0-115-4-144-2-9-30-64h-47l-104 910q0 75 33 142h44q18 0 22-65 1-23 46-344 40-284 40-435zM1955 1434q0-74-434-302h-44q-13 14-13 31 0 61 125 125 174 88 308 182h34q24-24 24-36zM849 1091q0-37-34-71-62 20-94 20-19 0-27-3-56-56-174-157-118-85-172-85-15 0-26 5.5t-14 5.5v47q91 66 276 225 0 16-8 21-95 41-95 120 0 75 58 138 63 66 143 62 49-42 49-132v-9q0-45 8-68t61-66q49-41 49-53zM2385 318q0-160-74-228-70-64-228-64-94 0-144 13-19 5-68 29-43 20-59 20-220-92-333-92-85 0-150 46l-65 46q-13 0-39-15-33-20-41-23-60-24-140-24-110 0-156 72t-110 72q-32 0-106-26t-89-42v-29q89-64 106-82.5t17-55.5q0-21-12-54-14-38-32-46-29-12-88-14-49-2-98-2-108-9-204-51-31-14-47-69l82-645q-7-41-34-132h-37q-27 150-62 417-31 241-31 268 0 111 29 176 27 59 110 148-5 16-5 33 0 126 235 256 207 113 322 113 98 0 133-71.5t139-71.5q143 0 143 102l-82 758q0 35 43 123 50-17 62-105 5-73 10-145 13-91 34-256 11-110 41-338 18-106 59-137 29-22 104-22 118 0 189 58-8 43-55 55-38 5-75 10-24 23-24 35 0 73 115 122 87 37 152 37 225 0 225-138 0-19-51-122 48-37 138-37 99 0 124 23t25 115q0 11-16 107-18 109-23 159-8 83-27 246-4 30-31 112-26 78-26 88 0 90 84 204h37q3-44 24-125 25-20 65-54 15-25 15-40 0-13-30.5-95t-30.5-94q0-14 30.5-259.5t30.5-258.5zM1648-357q0-32-26.5-52.5t-216.5-107.5q-200-91-238-91-14 0-22 6t-18 6v57q109 63 268 140.5t178 76.5h63q0-4 6-12.5t6-22.5zM1095-347q0-31-34-60-31-27-58-27-11 0-40 10.5t-42 10.5-54-26-54-26q-29 0-61 25-36 26-36 57 0 41 31 67t72 26q10 0 31.5-5.5t34.5-5.5q12 0 53 20.5t55 20.5q37 0 69.5-26t32.5-61zM2818 1512h-36q-22-14-22-60 58 29 58 60zM634 1268l-49 12v-38h36q10 10 13 26z" glyph-name="uniFB6D" horiz-adv-x="2793" unicode="&#xfb6d;"/><glyph arabic-form="isolated" d="M3162 1507q0-87-97-161-86-64-154-64-11 0-35 5t-36 5q-67 0-110-50h-48q7 70 86 133l110 72q34 46 112 137 26 25 70 25 102 0 102-102zM2998 360q0-95-53-183-6 0-19 5.5t-18 5.5l-74 822q0 117 56 159 28-13 33-56 75-676 75-753zM2067 1185q0-43-44-77-51-32-102-65-97-54-298-171h-35q-13 14-13 36 0 45 122 121 63 35 127 70 62 44 195 121h35q13-13 13-35zM2794 190q0-38-53-70-43-26-65-26-9 0-109 10.5t-116 10.5q-13 0-294.5-71.5t-294.5-71.5q-104 0-229 125-192 191-237 222-30-18-51-101.5t-69-110.5q-80-44-218-44-120 0-176.5 77t-125.5 77q-121 0-225-68 26-54 102-108 62-43 62-85 0-67-54-104-11-8-129-13-132-6-197-24-101-32-101-104l82-676q0-9-33-107h-38l-103 720q-2 7-2 16 0 74 77 213 27 29 85 90-14 25-14 53 0 121 241 254 212 117 319 117 52 0 120.5-82t171.5-82q113 0 149 37 7 85-134 273-207 278-212 286-3 6-3 70 0 178 93 269 58 59 319 204 172 95 461 225 62 30 123 60 82 40 96 39h54v-57q1-53-242-171l-292-132q-49-31-143-86-104-55-209-110-178-105-178-165 0-51 357-399 125-140 379-393 48-42 160-42 65 0 76 2 41 7 114 47-8 40-62 40-12 0-38-2t-38-2q-29 0-45 9-12 0-12 23 0 20 23 56 26 39 52 48 65 25 328 58 37 5 37 74 0 113-75 491-3 14-22 54-15 37-15 49 0 62 84 189h36q0-1 14-90 8-53 70-85 0-43-20.5-125t-20.5-89q0-13 26-197t26-197q0-52-41-164 55-50 196-63 160-14 203-37v-34zM633 1103q0-46-46-46-13 0-40.5 10t-41.5 10q-13 0-171.5-123t-226.5-123q-39 0-57 36 13 28 64 62 66 42 133 84 120 81 120 120 0 16-8 17-74 62-74 116 0 52 54 114 58 67 119 67 10 0 19-2 31-22 40-94 12-102 16-114 6-17 56-61 44-37 44-73zM1801-238q0-38-44-64-100-56-260-128-153-69-174-69h-52q-13 13-13 36 0 47 34 62 240 110 462 198h34q13-13 13-35zM1094-340q0-28-32.5-63t-59.5-35q-12 0-46 15.5t-46 15.5q-13 0-48.5-20.5t-48.5-20.5q-42 0-77 29-31 27-31 52 0 38 40 68 32 25 52 25 12 0 39-10t38-10q13 0 51 20.5t52 20.5q31 0 74-31.5t43-55.5zM3038 1475h-49l13-40q36 19 36 40zM437 1309l-49 12v-38h36q10 10 13 26zM2571 1540q0-48-126-120-114-65-146-64h-73q-24 24-24 35 0 23 57 52 71 36 77 41-20 36-52 36-11 0-40-10.5t-40-10.5q-12 2-12 26 0 44 51 77 46 30 93 30 78 0 212-45 23-15 23-47z" glyph-name="uniFB6E" horiz-adv-x="3003" unicode="&#xfb6e;"/><glyph arabic-form="initial" d="M1990 1495q0-39-33-61-388-257-424-257h-52q-14 14-14 31 0 46 211 173l254 144h45q13-14 13-30zM813 1372q0-61-146-128-122-56-162-56-48 0-82 33v46q47 16 134 51v27q-16 17-47 17-15 0-53.5-21t-63.5-21q-10 0-20 2-2 53 67 105 62 48 111 48 41 0 144-34 118-38 118-69zM1130 348q0-97-5-119-6-32-49-136-26 0-38 13v277l-72 666q0 66 45 108 10-2 24-5 27-44 29-71 11-141 39-449 27-276 27-284zM2051 179q0-179-150-370-162-208-352-208-79 0-178 24-110 28-169 70 0 6-11 24 25 25 57 25 12 0 81-10t82-10q145 0 251 57 137 75 266 267v27q-10 5-37 2-41-6-45-6-59 0-103 54-40 49-40 105 0 65 46 158 56 113 128 113 79 0 133-143 41-109 41-179zM567 829q0-26-23-57-26-35-54-35-31 0-64.5 26t-33.5 50q0 35 26 61.5t56 26.5q27 0 58-22 35-24 35-50zM1272-152q-59-53-239-87-10-2-48-20-33-17-46-17h-43q-2 32-6 86 0 6-18.5 35.5t-18.5 47.5q0 51 76 112 69 56 109 56 25 0 56-31 26-26 31-45-17-57-17-79 26-5 76-9.5t76-9.5l12-12v-27zM792 241q0-111-35-177-15-27-153-57-122-27-171-27-112 0-112 86 0 40 33 83 55 2 164 4 128 4 181 68-19 63-122 139-92 68-92 106 0 23 16 53 20 34 45 34 3 0 68-25 88-32 137-126 41-78 41-161zM1304-450q0-17-15.5-40.5t-29.5-28.5q-355-136-406-136t-51 41q0 42 33 57 86 39 232 89 140 48 161 48h62q14-13 14-30zM1886 268v36q-12 11-34 34-36-19-36-48 5-6 22.5-17.5t23.5-16.5q10 10 24 12z" glyph-name="uniFB70" horiz-adv-x="2133" unicode="&#xfb70;"/><glyph arabic-form="medial" d="M2208 1842q0-46-248-190-233-136-254-136-14 0-25.5 5.5t-14.5 5.5v33q-1 30 133 107l176 96q66 47 186 120h34q13-13 13-41zM2187 1312q-28-37-98-55-78-21-97-36 0-10 13-24.5t15-23.5q30-190 66-547 30-307 30-344 0 30-25-165-4-30-42-56l-18 14q-20 236-99 974-5 43 31 114v27q-13 6-37 3-36-5-40-5-26 0-44 24 0 19-22 62.5t-22 56.5q0 44 74 119t121 75q32 0 59-32 23-28 23-45 0-20-17-43t-35-23q-9 0-31 6.5t-51 6.5q18-33 52-33 179 0 181-1l13-12v-37zM1502 1705q0-51-241-184-176-97-278-139l-20 16q-14 9-14 25 0 36 63 73 41 20 82 42 316 192 342 191h53q13 0 13-24zM682 1714q0-48-382-249h-46q0 4-6 14.5t-6 25.5q0 38 166 134 119 66 237 131h37v-56zM641 1254q0-60-116-129-100-60-139-60-38 0-67 33-26 29-26 59 0 26 44 91 10 0 64-30 24 30 80 92 2 0 21-15t32-15q15 0 43 27 35 31 41 34 23-48 23-87zM1757 287q0-102-46-159t-123-57q-10 0-70 10.5t-73 10.5q-12 0-125-31t-126-31q-97 0-187.5 56.5t-119.5 56.5q-151 0-228-54-18-13-63-156-41-132-173-247.5t-248-115.5q-22 0-308 65-16 10-44 30v37q11 1 229 1 136 0 266 74 145 82 228 230 6 11-7 90-4 24 11 68 16 50 46 66 77 40 240 77 133 30 169 30 37 0 43-34 10-53 14-61 17-22 91-37 59-12 103-12 65 0 101 31 22 18 56 76 37 64 71 98 44-3 44-55 0-10-3-38-2-23-1-33 27-39 103-28 33 29 33 70 0 14-5.5 43t-5.5 44q0 46 40 79 68-4 68-194z" glyph-name="uniFB71" horiz-adv-x="2115" unicode="&#xfb71;"/><glyph arabic-form="isolated" d="M2871 1456q0-31-66-121-42-58-151-69-117-11-144-35h-47v34q-1 45 83 114 22 8 62 28 27 18 54 55 19 30 39 59 29 37 74 37 32 0 66-43 30-38 30-59zM2769 319q0-60-13-124-20-92-56-100l-105 921q0 89 54 142 19 0 34-23 14-100 38-318 48-451 48-498zM1971 1635q0-43-222-169-127-66-253-132h-36q0 4-6 12t-6 23q0 45 203 158 136 72 272 143h35q13-13 13-35zM1919 1185q0-76-52-110-21-15-135-53-4-1-50-22-34-15-49-15-41 0-69 35-23 28-23 52 0 32 43 96 10 0 32-20t37-20q30 0 44 25 27 50 41 67 9 0 37-20t42-20q48 0 53 70h37q12-24 12-65zM1930 647q0-33-50-60-39-22-52-22-36 0-66 33-27 30-27 54 0 30 44 61 39 26 58 26 34 0 66-43 27-36 27-49zM885 1212q-4 0-15-6t-25-6q-11 0-40 20.5t-42 20.5q-12 0-84-65-88-82-124-106-78-55-106-53h-65v47q21 22 63 59 52 33 103 65 100 71 100 115 0 14-5 17-8 2-8 5-40 43-46 64-3 6-3 41 0 49 44 112 54 78 125 78 17 0 39-20.5t24-35.5q-5-62-4-184 2-17 35.5-48t33.5-44v-76zM2349 309q0-276-220-276-47 0-114.5 30.5t-74.5 30.5-80-25q-80-28-119-34-83-13-190-13-129 0-221 48-49 26-114 89-50 47-80 47-39 0-88.5-47t-49.5-75q0-40 58-59 40-14 105-13 83 2 105-1 40-5 68-24 43-29 43-97 0-165-312-271-226-77-364-77-169 0-284 77-136 92-136 260 0 94 53 208 52 110 114 160h35q13-13 13-30 0-10-41-91-46-94-58-130-3-7-3-50 0-136 143-199 95-41 205-41 253 0 421 110-1 8 9 17-30 18-118 36t-123 39q-56 34-56 104 0 85 129 223 127 135 199 135 27 0 91-57 92-81 111-94 47-33 212-33 125 0 170 11 120 32 207 152h37q10-109 43-137 18-15 81-15 40 0 92 46-24 224-65 613-3 22-30.5 92.5t-27.5 82.5q0 31 28 104 30 79 57 104h36q3-47 24-135 13-26 45-51 25-18 25-43 0-12-25.5-76.5t-25.5-76.5zM875 846q0-73-53-126-49-47-115-56-17-3-61-21-40-16-58-16-82 0-82 112 0 56 57 113 10-19 42-62 15 8 78 91 26 0 67-61 32 2 41 39 13 50 27 64 57-23 57-77zM1500-484q0-37-32-64-28-23-56-23-31 0-65 33-31 31-31 54 0 36 33 68 31 29 58 29 43 0 70-34 23-30 23-63zM1756-581q0-17-18.5-44t-36.5-35q-101-51-258-114-154-64-174-64-22 0-45 24v35q6 12 22 29 151 75 463 199h33q14-13 14-30zM732 1473l-50 12v-38h37q10 10 13 26zM2776 1479h-36q-21-13-21-59 57 28 57 59z" glyph-name="uniFB72" horiz-adv-x="2752" unicode="&#xfb72;"/><glyph arabic-form="final" d="M1301 1594q0-25-159-142-141-103-254-170h-44q-13 13-13 35 0 38 63 81 56 35 112 69 101 77 237 162h35q23-23 23-35zM1731 283q0-104-26-197-6-6-43-22l-115 987q0 24 18 74 22 61 49 75l17-13q38-139 56-319 44-474 44-585zM1791-312q-31-36-54-41-33-8-130-38-84-26-97-26h-63q-2 32-6 86-1 7-14 32.5t-13 40.5q0 38 74 104 71 64 100 64 23 0 57.5-24t34.5-42q0-30-41-71 42-17 152-39v-46zM790 519q0-41-22-104-27-82-64-95 4-15 4 126 0 87-62 180-59 89-60 79v73q3 0 11.5 6.5t22.5 6.5q69 0 125-124 45-98 45-148zM1342 48q0-64-66-156-63-88-300-175-227-84-366-84-142 0-258 88-126 94-126 230 0 102 57 212 59 114 134 146l24-26q-102-163-102-250 0-118 130-190 102-55 198-55 105 0 284 63t217 116q-22 33-124 48-116 18-162 50 0 66 53 106 16 13 106 34 82 19 127 69-4 284-55 644-2 16-25 87-22 67-22 82 0 128 87 195 18-14 25-52 10-56 13-64 5-13 39-50 30-34 30-49 0-14-21-75-25-69-30-89l61-481q-9-80-51-251 42-28 86-55 37-25 37-68zM1946-433q0-44-44-64-98-42-259-95-152-51-173-51-14 0-23 6t-12 6v47q21 22 33 29 358 148 403 148h63q12-2 12-26z" glyph-name="uniFB73" horiz-adv-x="1726" unicode="&#xfb73;"/><glyph arabic-form="initial" d="M2960 1402q0-55-260-194-241-129-268-129-15 0-28.5 5.5t-16.5 5.5v34q-1 22 217 149 224 130 331 164 25-24 25-35zM2397 1309q0-46-147-126-134-73-167-73h-82l-14 12v48q57 24 164 80-4 34-41 34-12 0-62-17-57-19-88-23-14 0-14 24 0 53 81 98 71 41 129 41 51 0 135-26 106-32 106-72zM2816-211q0-31-44-64-37-28-53-28-18 0-52.5 32.5t-34.5 54.5q0 26 27.5 56.5t59.5 30.5q33 0 67-33 30-30 30-49zM1444 762q0-39-37-67-32-26-60-26-31 0-62 23-35 26-35 64t34 65q28 23 58 23 32 0 67-30t35-52zM2898 286q0-152-140-218-91-43-218-43-108 0-161 23-9 4-65 40-45 28-60 28-12 0-88-30-83-33-111-38-208-41-287-48-54-6-231-6-2 0-161 5-165 4-252 5-26-21-41-90-20-98-21-101-53-136-226-207-131-52-267-52-128 0-238 64-136 79-136 218 0 61 30 134 36 87 90 115 6-24 0-79-7-69-7-68 0-220 307-220 99 0 137 12 112 37 118 40 80 33 111 79 13 20 13 89 0 82-13 110-1 1-61 108-29 50-29 89 0 97 57 97 31 0 70.5-72t88.5-72q40 0 98 50 78 67 81 69 27 16 203 147 110 82 185 82 68 0 136-32 85-41 85-100 0-40-48-118-59-96-64-112 14-27 41-27 172 0 317 79-8 20-51 45-71 42-72 43 24 71 104 118 71 43 141 43 58 0 141-30 105-40 105-93 0-18-61-127 38-40 78-47h70q189 0 189 72 0 13-51 107.5t-51 107.5q0 30 16 59 18 33 40 33 52 0 109-124 50-108 50-157zM1711-298q0-61-241-163-163-69-299-108-23 25-23 36 0 42 154 111l176 70q76 37 219 90 14-14 14-36zM1741 338q-73 55-128 55-57 0-140-67-70-61-141-124l108-14 156 34q112 34 145 116z" glyph-name="uniFB74" horiz-adv-x="2885" unicode="&#xfb74;"/><glyph arabic-form="medial" d="M3918 1898q0-48-54-79-13-7-232-140-145-87-160-87h-65q11 29 23 69 218 154 474 267 14-14 14-30zM3917 1425q0-43-33-56-77-27-236-94h-35q-4 12-25 71-18 48-18 65 0 63 64 124 59 56 100 56 25 0 71-43v-46q-10-27-46-31-58-5-66-9 38-24 82-24 11 0 34.5 5t36.5 5q31 0 71-23zM3416 1340q0-62-147-136-127-64-175-64-20 0-46 22v28q54 32 153 100-13 35-45 35-14 0-57-22-48-24-68-29-14 14-14 30 0 47 85 94 71 40 99 40 37 0 120-32 95-35 95-66zM3877 306q0-127-32-178-8 0-26-11l-126 998q0 56 43 117 27 0 35-13 45-206 47-318 3-118 31-361 28-238 28-234zM3416 808q0-27-32-57t-55-30q-30 0-76 42-4 39 17 82 23 50 59 50 35 0 63-33 24-30 24-54zM2792 1622q0-39-136-129-95-62-153-90-16-7-122-81-81-56-128-58-14 13-14 40 0 44 201 171 147 89 295 177h44q13-14 13-30zM3591 250q0-5-50-181-46-168-171-272-121-100-266-100-105 0-301 74v37q8 2 173 2 11 0 50.5 6.5t57.5 6.5q108 0 266.5 138t158.5 227q0 12-56.5 100t-56.5 100q0 46 33 97h35q127-103 127-235zM2362 644q0-61-23-107h-37q-11 51-21 103-18 77-45 114-30 37-60 73-39 47-39 63 0 18 18.5 37t37.5 19q74 0 128-136 41-104 41-166zM2966 332q0-144-91-314-100-182-240-256-63-34-207-34-222 0-300 43 0 27 12 35 72 24 119 24 12 0 31-5t31-5q149 0 323 127 179 129 231 285-11 1-20 1-23 0-49-12t-50-12q-60 0-104 43t-44 100q0 50 45 161 58 136 123 136 44 0 106-83 51-65 70-115 14-37 14-119zM2168 255q0-118-157-118-13 0-39 .5t-37 .5q-37 0-58-4-110-27-310-109-152-61-244-61-97 0-171 47-44 28-96 88-41 48-56 48 8 0-77.5-46t-142.5-46q-69 0-178 52-2 77 62 147 33 35 137 111 88 66 114 108 22 34 25 104 3 85 11 112 48 4 77-125 27-122 53-244 42-132 119-132 35 0 76 59 63 91 80 108 58 59 136 59 11 0 96-35 95-38 125-45 186-43 280-43 12 0 57.5 5t55.5 5q62 0 62-46zM1757-181q0-37-28-78-30-44-64-44-29 0-65.5 34t-36.5 53q0 28 41 64 36 34 52 34 36 0 101-63zM2004-313q0-54-64-89-93-51-240-115-142-62-162-62-22 0-46 23v35q105 86 320 169 17 7 70 40 46 30 56 30h53q13-14 13-31zM1153-125q0-38-220-162-210-118-236-118h-52q-13 14-13 30 0 53 496 298 15-12 25-12v-36zM591 61q-19-44-76-54-120-23-236-23-179 0-179 123 9 39 87 72 88 38 99 52 70 90 115 90 19 0 43-23t23-42v-55l-105-6q-39-27-119-94 13-26 102-26 13 0 71.5 5.5t71.5 5.5q68 0 103-25zM2802 406q0 12-6 33t-6 25h-57q-31-54-10-81h55zM1522 206q-51 33-97 33-35 0-67-23t-39-56q-8 0 25.5-6.5t102.5-6.5q22 12 44 23 27 18 31 36zM969 261v49l-47 11q-31-20-61-41-42-30-43-49-2 0 18.5-6t57.5-6q27 12 75 42z" glyph-name="uniFB75" horiz-adv-x="3883" unicode="&#xfb75;"/><glyph arabic-form="isolated" d="M2570 1452q0-50-193-174l-272-164h-44q-13 13-13 35 0 42 33 63 149 94 441 269h36q0-3 6-9t6-20zM2878 132h-240q-24 0-175-82t-282-82q-23 0-82 16-68 18-100 37-18 11-63 65-37 45-58 45-9 0-46-36-43-42-64-53-118-64-279-64-42 0-86 29-52 36-52 88 0 32 45 98 132-52 155-52 69 0 174 38 131 48 131 110 0 10-3 20l-92 400q-4 31 33 86 26 0 46-37 14-34 29-67 27-125 54-249 64-240 135-240 23 0 103.5 102.5t173.5 102.5q13 0 61-19 63-25 78-29 181-57 390-79 36-29 36-68 0-30-22-80zM1044 1764q0-52-171-166-146-96-203-115-14 11-25 11v44q0 25 341 251h46q12-2 12-25zM849 1447q0-55-188-173-175-110-197-108h-52q-13 1-13 24 0 43 187 158 127 80 217 123h34q12-1 12-24zM931 740q0-30-32-63.5t-60-33.5q-11 0-39.5 10.5t-41.5 10.5q-14 0-57-20.5t-56-20.5q-32 0-57 21.5t-25 44.5q0 33 40 72 36 35 52 35-7 0 76-20l16 15q-92 86-92 118 0 28 33.5 60t64.5 32q18 0 49-23t33-42q-3-31-4-91 100-81 100-105zM1954-141q1-56-415-229h-52l-13 13v47q47 38 226 125 184 91 219 91 15 0 23.5-5.5t11.5-5.5v-36zM1188 254q0-103-44-175-48-81-131-81-11 0-84 20.5t-85 20.5q-13 0-55-24-54-29-66-34-109-44-206-44-44 0-111.5 26t-84.5 50q-30 41-66 238-30 173-30 224v253q0 23-18 144-6 42-31 152-23 98-23 111 0 31 54 111 24 0 44-33 60-196 58-504 0-104 35-378 3-42 26-121 53-99 198-99 86 0 190 56t112 56q11 0 76-20.5t78-20.5q42 0 58 19 2 3 10 18-18 43-18 108 0 75 24 120h36q54-97 54-193zM1320-278q0-33-44-65-39-28-63-28-11 0-35.5 5.5t-35.5 5.5q-13 0-56.5-20.5t-56.5-20.5q-28 0-64 34-34 31-34 48 0 33 34 69 31 33 54 33 11 0 39-10t43-10q12 0 58.5 20.5t58.5 20.5q33 0 69-34 33-31 33-48zM2365 187q-30 46-98 46t-96-56l23-25h113q23 0 58 35z" glyph-name="uniFB76" horiz-adv-x="2929" unicode="&#xfb76;"/><glyph arabic-form="final" d="M2133 1633q0-51-168-158-96-56-194-113h-45q-13 13-13 31 0 43 62 84l74 40q83 50 246 152 38 0 38-36zM1713 1664q0-46-43-76-323-226-372-226h-53l-12 13v57q139 89 423 267h34q23-24 23-35zM1928 906q0-31-32-64t-54-33q-27 0-65 26-44 28-44 55 0 35 43 66 37 27 60 27 29 0 60-23 32-25 32-54zM1027 1781q0-48-54-79-364-207-382-207h-32q-8 5-15.5 10t-7.5 20q0 17 26 51.5t48 47.5q339 187 352 187h54q0-4 5.5-9.5t5.5-20.5zM986 1362q0-60-25-100-15-25-116-62-91-33-109-33-77 0-77 82 0 34 14 68 18 45 47 45 16 0 47-31 26 27 79 77 26 5 51 9 40 9 53 26 36-36 36-81zM2092 302q0-190-84-269-79-73-259-73-88 0-153 45.5t-77 45.5-53-22q-45-22-64-27-57-4-175-15-13-11-49-35-23-13-94-13-35 0-148 25.5t-109 25.5q-12 0-122-31t-123-31q-76 0-138 43-84 56-100 167-31 205-61 809-2 38-18 136-16 94-16 105 0 60 46 102 77-43 78-223v-41q0-31 1-46 29-275 29-236v-259q0-12 8-31.5t8-28.5q22-190 30-213 40-110 174-110 113 0 195 64 18 14 112 118 57 64 113 64 11 0 64-55 63-66 92-87 60-42 166-42 143 0 143 128l-71 788q0 65 43 128 8 0 34-16 10-21 21-61 14-200 48-603 14-98 41-297 5-48 69-76 49-22 97-22 130 0 179 70-24 9-57 2-42-11-35-11-64 0-106 62-38 55-38 118 0 69 51 158 57 103 124 103 77 0 137-153 47-120 47-180zM1918 426l-23 24h-37q-5-44 11-61h36q13 13 13 37zM1082 120q-3 68-56 68-45 0-45-48 33-34 61-34 27 0 40 14z" glyph-name="uniFB77" horiz-adv-x="2100" unicode="&#xfb77;"/><glyph arabic-form="initial" d="M2787 1516q0-66-186-166-131-70-198-91-15 12-25 12v43q-1 26 147 111 107 60 214 121h35q13-14 13-30zM2315 1673q1-26-186-135-179-104-192-104-14 0-25.5 5.5t-14.5 5.5v47q43 42 191.5 140t172.5 97h54v-56zM2715 758q0-39-43-69-33-24-49-24-26 0-69.5 30t-43.5 52q0 30 32.5 61.5t64.5 31.5q36 0 73-31 35-28 35-51zM1823 1907q-417-279-466-279h-52q-13 13-13 36 0 82 496 312 15 0 23-6t12-6v-57zM2254 1325q0-68-25-104-11-16-104-56-90-39-107-39-71 0-71 87t46 87q13 0 21-5t20-5q13 0 46 25.5t47 25.5q12 0 19.5-5t21.5-5q10 0 35 21 29 27 37 30 14-15 14-57zM1814 1443q0-39-44-58-78-22-227-74h-34q-43 78-43 148 0 25 76 105 78 84 114 84 22 0 49-25.5t27-51.5q0-24-21-39.5t-41-15.5q-11 0-29.5 5t-34.5 5l-18-16q39-32 97-32 11 0 33.5 1.5t32.5 1.5q31 0 52-9 0-3 5.5-8.5t5.5-20.5zM2746 292q0-262-175-262-11 0-99.5 20.5t-99.5 20.5q-8 0-78-35-72-36-116-43-81-13-190-13-117 0-161 28-78 52-109 231-37 219-37 198v233l-52 502q0 43 45 107h36q63-411 63-423v-320q0-25 17-87 19-69 21-92l8-106q12-46 74-86 36-22 125-22 143 0 254 56.5t126 56.5q9 0 86.5-25.5t92.5-25.5q31 0 53 27 2 19-7 69-11 55-11 83 0 67 45 107 36-3 64-82 25-68 25-117zM1046 1314q0-45-157-111-136-56-166-56-71 0-76 46 3 20 59.5 44.5t64.5 54.5q-3 0-12.5 4t-24.5 4q-14 0-91-51h-44q-13 13-13 31 0 50 82 100 72 43 112 43 68 0 266-74v-35zM2398-199q0-30-31-64t-56-34-64 31q-44 35-44 67 0 25 21 52 26 34 66 34 30 0 67-26 41-29 41-60zM1026 747q0-32-36-67t-62-35q-11 0-35.5 5t-35.5 5q-13 0-54-15.5t-54-15.5q-39 0-70.5 22t-31.5 55q0 25 33.5 61.5t58.5 36.5q13 0 38.5-10.5t38.5-10.5 56.5 25.5 55.5 25.5q30 0 65-33 33-31 33-49zM1456 353q0-127-104-216-49-41-299-100-87-20-243-40-134-17-163-17-170 0-284 60-146 78-146 236 0 71 11 103 20 61 95 131h46v-46q1-13-19.5-56t-20.5-55q0-121 153-171 87-29 195-29 113 0 341 39 315 53 315 131 0 10-41 69.5t-41 72.5q0 29 19 65 23 43 53 43 61 0 102-104 31-77 31-116z" glyph-name="uniFB78" horiz-adv-x="2763" unicode="&#xfb78;"/><glyph arabic-form="medial" d="M1637 238q0-109-57-181-64-79-178-79-83 0-142 44-33 26-73 84-32 46-46 46t-37-22q-42-36-42-37-60-44-172-44-164 0-164 87 0 95 159 214 88 63 175 126 11 20 22 102 9 72 37 95 25 0 32-12 19-35 44-183t60-213q56-104 167-104 62 0 103 36-11 37-49 126-33 77-33 89 0 43 44 88 60-17 107-114 43-85 43-148zM1566-196q0-30-32-66.5t-56-36.5q-23 0-62 26-45 30-45 61 0 22 29 63 32 45 58 45 23 0 65.5-34t42.5-58zM1852-299q0-49-54-78-91-48-242-110-143-57-165-57-27 0-50 23v32q0 50 197 110 247 111 259 111h32q8-5 15.5-10t7.5-21zM1207-160q0-50-43-74-321-178-373-177h-72q-13 13-13 35 0 41 23 53 384 188 412 188h54q12-1 12-25zM675-26q-9-42-86-55-142-23-252-23-43 0-90 18-64 23-64 64 0 19 25 56 27 41 59 62 7 4 122 84 76 53 91 53 18 0 40-22.5t21-31.5v-55q-24-24-35-24-13 0-18 5.5t-18 5.5q-34 0-144-88 31-35 113-35 11 0 70 5t74 5q58 0 92-24zM1115 295q0 16-24 40h-34q-38-24-78-47-47-33-58-63l23.5-6t53.5-6q31 11 62 23 55 27 55 59z" glyph-name="uniFB79" horiz-adv-x="1635" unicode="&#xfb79;"/><glyph arabic-form="isolated" d="M4123 1406q0-73-476-323-14 0-23 5.5t-12 5.5v58q209 172 487 289 24-25 24-35zM3549 1772q-11-16-32-40-264-166-401-239h-35q-7 4-15 9.5t-8 21.5q0 39 44 66 384 240 393 239h54v-57zM3539 1324q0-18-33-43-159-76-218-74h-53q-5 18-31 71-23 49-23 61 0 44 73 110 70 64 107 64 23 0 49.5-25.5t26.5-40.5q0-29-31-40.5t-61-22.5q20-29 65-29 13 0 41 3t42 3q13 0 23-2 23-24 23-35zM3028 1641q0-59-98-107-81-41-133-41-11 0-33 5.5t-32 5.5q0 3-5.5 11.5t-5.5 22.5q0 15 23 34 30 25 38 37-22 2-62 5-11 1-20 4v32q0 29 54 60 49 28 69 28 51 0 192-55 13-9 13-42zM3498 249q0-59-25-118.5t-53-70.5l-146 976q-4 26 14 71.5t40 67.5q19 0 33-23 22-89 78-453 59-380 59-450zM4174 249q0-140-87-300-95-177-243-265-57-34-187-34-106 0-228 22-99 18-124 32v37q131 12 373 34 68 7 191.5 113.5t162.5 186.5v28q-10 6-31 3-30-6-37-6-60 0-114 52t-54 112q0 51 46 159 59 138 133 138t142-136q57-114 57-176zM2997 786q0-28-27-64-30-38-60-38-24 0-64 27-43 31-43 60 0 24 31 65.5t51 41.5q22 0 67-34.5t45-57.5zM2127 1544q0-63-546-368-10-1-24 11.5t-14 29.5q0 54 197 165 108 66 329 192h46q0-4 6-10t6-20zM1390 1467q0-51-64-94-383-259-403-259h-54q-12 2-12 26 0 47 190 170 142 91 285 182h45q13-1 13-25zM3151 387q0-108-125-212-67-55-258-99-124-29-605-72-25-2-44-23 1 12 15-160 4-71-64-134-61-58-118-58-54 0-113 40-63 41-98 107-15 50-57 132-28 25-87 91h-284q-22-12-56-93-43-100-57-120-182-269-384-269-73 0-199 26-151 32-169 72 18 35 61 35 13 0 64.5-5t63.5-5q104 0 183 23 101 29 238 157t137 198q0 11-46 71t-46 78 17 53q21 44 49 44 10 0 56-26 51-27 69-33 114-33 203-33 124 0 171 32 20 13 44 61 29 56 40 68 72 108 145 214.5t139 106.5q8 0 16-2 64-71 64-199 0-108-82-256 19-28 41-34 6-2 52-2 123 0 183 22 94 33 182 141 24 27 24 149 0 82-65 666-1 10-15 54-12 41-12 59 0 110 86 189 30-12 32-44l2-58q1-8 4-13 8-12 48-53 32-32 32-47 0-13-35.5-79t-35.5-80q0-8 11-76 13-74 15-107 12-116 34-447 3 0 7.5-4.5t19.5-4.5q21 0 105 56.5t166 56.5q69 0 145-40 91-49 91-114zM703 1170q0-56-46-56-12 0-40.5 10.5t-41.5 10.5q-29 0-156.5-113t-161.5-113h-52q-13 13-13 31 0 19 128 118.5t128 131.5q0 27-41 52.5t-41 76.5q0 54 53 118 56 66 111 66 30 0 54-30 22-25 23-47 1-38 1-77 1-46 16-74 12-24 51-51 28-21 28-54zM684 274q0-50-46-171-19-50-104-91-71-34-112-34-52 0-95 34t-43 78q0 62 74 243 76 187 110 187 72 0 147-95 69-87 69-151zM3999 307q0 17-5 36t-5 22h-47q-23-22-23-46l23-24zM2987 321q-74 56-133 56-53 0-140-55-78-50-116-98h126q44 0 143.5 36.5t119.5 60.5zM2025 382q0 21-14.5 43.5t-31.5 22.5q-30 0-82-83-28-49-57-97 13-4 27-4 53 0 106 43 52 41 52 75zM2004-151q-6 15-61.5 51.5t-67.5 35.5h-64v-37l56-56q35-29 76-29 28 0 61 35zM570 223q0 24-35 58t-67 34q-27 0-51-43-20-39-20-70 0-41 66-41 107 27 107 62zM519 1358l-49 13v-39h37q9 10 12 26z" glyph-name="uniFB7A" horiz-adv-x="4166" unicode="&#xfb7a;"/><glyph arabic-form="final" d="M1876 1558q0-85-71-155-64-64-159-88-59-1-163-6-16-9-42-24-8 0-36 15 18 74 73 120 27 6 82 28 41 22 87 77 71 84 76 90 26 25 71 25 82 0 82-82zM1169 1533q0-51-44-74-340-177-362-177h-52q-23 24-23 35 0 38 200 142 190 99 216 98h52q13-1 13-24zM1753 171q0-111-70-137l-146 1047q0 94 56 149 39-16 49-85 5-56 11-114 18-102 51-409zM1118 1159q0-143-168-188-11-4-51-22-33-15-47-15-26 0-72 42-3 23 5 69 11 54 29 72 11 0 30-16 26-20 33-24 21 17 46 58 27 46 46 65 20-11 61-31 16 20 63 72 25-26 25-82zM585 1036q0-51-45-51-13 0-49 20.5t-49 20.5q-11 0-147.5-113t-205.5-113q-15 0-28.5 6.5t-16.5 6.5v36q15 16 52 49l116 72q107 73 107 107 0 15-5 17-7 3-8 5-69 48-69 101 0 19 27 71 27 59 56.5 87.5t118.5 25.5q43-36 43-101 0-13-2-37.5t-2-33.5q0-23 7-36 14-27 64-68 36-29 36-72zM1405 206q0-96-42-155t-112-59q-49 0-99 13-18 4-65 33-43 25-56 25t-42-32q-40-42-58-56-72-55-156-55-83 0-122 40-28 29-85 145-15-5-116-46-65-26-117-26-180 0-180 77 0 24 49 84 60 75 169 141 117 71 158 116 14 13 26 72 11 50 45 63 46-53 52-208 7-169 46-235 29-49 106-49 178 0 178 169 0 13-25 187t-25 187 32 111h37q41-103 49-167l24-244q38-172 159-172 18 0 37.5 16.5t19.5 35.5q0 12-46 209.5t-46 210.5q0 24 54 132 34-10 51-101l20-138q22-69 44-137 36-114 36-187zM554 260v38l-46 11q-78-39-138-87 22-21 22-25h54q42-1 108 63zM396 1244l-49 12v-39h37q10 10 12 27zM1786 1553h-36q-22-14-22-60 58 29 58 60z" glyph-name="uniFB7B" horiz-adv-x="1748" unicode="&#xfb7b;"/><glyph arabic-form="initial" d="M2487 1421q0-42-37-71-99-76-248-174-154-103-172-102h-54v57q89 82 225 172 114 74 228 149h35q7-5 15-10t8-21zM1893 1570q0-50-159-158-86-54-171-107-57-39-175-119h-34q-14 13-14 35 0 53 238 210 213 140 301 174 14-14 14-35zM2681 320q0-12-34.5-66.5t-58.5-77.5q-60-59-289-125-216-63-319-63-90 0-136 23-12 7-60 46-37 33-54 33-4 0-61-46t-114-46q-15 0-85.5 20.5t-83.5 20.5q-11 0-78-37-77-42-104-52-68-23-166-23-128 0-194 50-32 24-72 93-29 50-66 50 9 0-69-45.5t-177-45.5q-205 0-205 102 0 72 100 161 60 53 188 134 104 66 108 79 5 23 0 103-4 69 17 115 11 11 33 32 46-100 82-304 33-184 74-249 66-102 222-102 116 0 208 56.5t125 56.5q11 0 86.5-20.5t87.5-20.5q94 0 94 102 0 14-2 30l-92 681q0 49 33 118h36q48-68 70-321 14-92 41-277 9-61 27-163 8-34 50-95 50-75 87-75h69q4 4 9 25-4 11-4 31 0 114 83 262 96 174 215 174 67 0 141-47t105-112q0-36-46-36-12 0-73.5 25.5t-74.5 25.5q-43 0-124-48-92-55-92-106 0-56 60-106 54-47 99-47 74 0 189 58 73 42 148 85h36q0-5 5.5-13t5.5-23zM1504 750q0-59-156-139-138-70-178-70h-94q-12 1-12 25 0 30 63 59 36 15 73 30 13 8 49 36v26q-2 0-17 4t-30 4q-28 0-111-61h-47q59 184 194 184-11 0 231-56 35-7 35-42zM1627-330q0-41-43-74-36-28-59-28-12 0-53 15.5t-55 15.5q-13 0-59-26t-59-26q-37 0-71 31-31 28-31 51 0 32 39 70 36 33 53 33 11 0 45-15.5t47-15.5 56.5 25.5 56.5 25.5q31 0 79-25 54-30 54-57zM797-119q-9-22-19-44-14-30-35-40-98-53-245-120-149-68-168-67h-52q-13 13-13 30 0 16 19.5 43t34.5 35q369 188 423 187h32zM695 295q0 15-6 25.5t-6 14.5h-63q-21 1-89-46.5t-81-72.5q47-23 81-23 51 0 103 26 61 32 61 76z" glyph-name="uniFB7C" horiz-adv-x="2700" unicode="&#xfb7c;"/><glyph arabic-form="medial" d="M2698 1374q0-21-184-130-188-112-261-130-14 12-23 12-8 54 23 75 93 64 229 145 143 85 161 84h55v-56zM2074 1559q0-48-123-121-68-36-135-72-78-44-237-139h-45q-13 13-13 35 0 45 122 117l126 64q155 96 280 152 25-25 25-36zM2044 1144q0-100-54-129-49-27-128.5-56t-99.5-29q-77 0-77 87 0 59 45 107 7-3 29-30 19-21 33-21 36 0 44 26 14 50 26 65h46l28-29q20 25 71 82 37-19 37-73zM2944 300q0-104-260-203-132-50-276-82-42-9-358-123-97-35-196-185-108-167-192-218-39-23-95-23-78 0-123 77-35 60-35 127 0 59 54 192 33 81 49 111 42 75 105 126h37v-46q0-2-45-93-30-48-59-95-39-65-39-118 0-32 31-68 32-39 66-39 39 0 116 66 73 63 90 105 81 187 411 318-2 16-15 69-11 48-11 79v24q9 77 94 202 102 150 206 150 63 0 150-45 90-48 121-102v-36q-5 0-18-5.5t-28-5.5q1 0-94 37-9 4-64 4-68 0-141-32-95-41-95-107 0-28 42-73 38-40 78-63 21-12 75-12 68 0 249 64 14 4 57 33 39 26 48 25h52q13-13 13-35zM1244 1404q0-15-6-16-10-4-12-6-41-57-217-156-140-77-280-153h-44q-13 13-13 30 0 40 43 68 437 281 475 280h54v-47zM1245 904q0-31-32.5-64t-64.5-33q-42 0-97 52-3 9-3 20 0 35 29 73.5t55 38.5q28 0 70.5-31t42.5-56zM1491 305q0-59-22-126-22-73-56-98-123-94-356-162-219-64-390-64-152 0-280 67-166 87-166 250 0 45 39 134 45 104 98 132 37 0 37-31 0-12-25.5-76.5t-25.5-76.5q0-123 149-184 100-41 199-41 126 0 325 44 194 43 261 84 33 16 67 31 43 24 43 61 0 35-36 35-13 0-54-15t-53-15q-77 0-116 63-27 46-27 101 0 64 43 157 55 119 130 119 86 0 158-178 58-142 58-211zM1284 450q0 14-12.5 26.5t-21.5 12.5q-25 0-25-29z" glyph-name="uniFB7D" horiz-adv-x="2962" unicode="&#xfb7d;"/><glyph arabic-form="isolated" d="M3585 1439q0-37-26-59-57-50-210.5-137.5t-240.5-120.5q-25 25-25 36 0 33 182 149 131 82 262 163h35q8-5 15.5-10t7.5-21zM3001 1280q0-50-145-128-129-71-158-71h-72l-13 13v37q56 29 163 99-20 36-56 36-42 0-111-51h-37v44q-1 25 65 73 48 35 81 52 11 5 38 5 47 0 245-75v-34zM2182 1393q0-46-43-73-505-311-526-310h-54v58l576 361h34q13-13 13-36zM3391-229q0-33-42-65-36-27-56-27-29 0-72 32-45 35-45 65 0 18 38 58t59 40q28 0 74-44 44-41 44-59zM1988 666q0-25-42-61t-65-36q-44 0-72 34-26 29-26 63 0 20 19 54 25 43 58 43 22 0 75-38t53-59zM3472 319q0-139-104-228-100-85-239-85-82 0-180.5 46t-110.5 46q3 0-117-37-136-41-277-62-223-34-502-34-11 0-94 5.5t-96 5.5q-91 0-119-32-34-61-68-120h-47q29 134 29 152 0 38-48 68-38 23-59 23-5 0-90-45.5t-171-45.5q-95 0-183.5 86.5t-92.5 86.5q-173-82-215-82-43 0-106.5 24t-87.5 50q-7 85 185 259 65 40 180 146 14 19-5 78-6 21 4 67 13 51 37 82 26 0 34-12 36-82 54-264 17-174 49-236 52-101 193-101 61 0 143.5 45.5t102.5 45.5q12 0 107-40.5t108-40.5q50 0 119 52 62 48 124 97 91 64 183 129 108 70 177 70t136-31q85-37 85-97 0-43-92-204 26-26 62-26 121 0 215 58-4 41-48 49-68 12-75 17 30 107 143 167 88 46 174 46 64 0 133-51 72-53 72-107 0-13-17-54-20-49-25-67 51-34 76-39-2 1 58 1 67 0 120 25 64 30 64 83 0 13-56 128t-56 127q0 32 44 98 71-23 124-136 46-100 46-186zM1117 1198q0-17-18.5-36t-36.5-19q-14 0-57 20.5t-57 20.5q-12 0-194-117.5t-195-117.5h-64q0 4-6 9.5t-6 20.5q0 22 23 36 294 157 294 220 0 9-30.5 49t-30.5 64q0 46 53 120 61 84 126 84 18 0 43-21.5t30-43.5q3-15 0-86-2-57 16-87 12-20 64-64 46-38 46-52zM422 170q0-73-72-154t-144-81q-54 0-71 35 6 17 70 38.5t83 73.5q-21 29-43 58-28 39-28 56 0 26 27 72 33 56 70 56 50 0 83-75 25-53 25-79zM2357 297q-7 27-55 44-39 13-74 13-55 0-153-65t-118-115q15-14 52-14 72 0 241 54 67 21 107 83zM892 313q0 54-35 72-152-69-158-132-9 0 27-5.5t111-5.5q48 26 55 39v32zM896 1399l-49 12v-38h37q10 10 12 26z" glyph-name="uniFB7E" horiz-adv-x="3463" unicode="&#xfb7e;"/><glyph arabic-form="final" d="M2548 1919q0-64-414-277h-45q-12 2-12 26 0 45 99 106l118 64q57 38 113 76 82 50 118 45 23-23 23-40zM3060 1391q0-39-202-153-192-110-204-107h-54v58q134 83 402 238h44q14-14 14-36zM2536 1369q-36-39-74-52-230-74-222-74-36 0-82 148 0 48 72.5 119t117.5 71q37 0 64-34 23-27 23-48 0-28-27-47-19-14-29-14t-34.5 6-53.5 6q17-33 57-33 172 0 188-3v-45zM2455 337q0-50-16-164-18-116-27-127h-37l-104 1028q0 30 43 116h38zM2067 1074q0-52-156-130-138-70-172-70-41 0-41 36 0 12 27 42 30 34 34 49-3 3-45 1-36-3-36 15 0 36 74 91 71 53 104 53 29 0 115-31 96-33 96-56zM1637 1632q0-42-54-79-409-280-444-279h-32q-8 5-15.5 10t-7.5 20q0 48 101 113 62 36 126 73 111 86 290 183 11-8 22-15 14-11 14-26zM3069 163q0-155-123-340-127-192-289-266-29-14-150-14-84 0-187 19-130 24-141 60 27 30 88 30 29 0 79.5-8t62.5-8q131 0 301 125 166 124 227 259v28q-13 5-45-3-39-11-48-11-56 0-106 59-47 53-47 100 0 62 50 167 61 125 129 125 67 0 139-146 60-124 60-176zM858 1520q0-34-205-175-155-102-311-204h-35q-12 1-12 25 0 56 236 214 169 113 280 170h34q13-14 13-30zM2199 188q0-135-454-218-235-43-398-112-84-35-255-235-148-171-265-171-60 0-98 59-34 51-34 114 0 83 45 203 51 139 122 196h35q12-1 12-24 0-3-45-90-50-95-65-137-2-7-2-45 0-113 82-113 116 0 290 254 35 51 101 90 43 25 147 64 90 34 125 61 9 14-1 46-31 94-14 137 40 105 106 188 90 112 182 112 52 0 120-36 78-41 110-101 0-37-45-37-13 0-61.5 15.5t-61.5 15.5q-52 0-132-36-99-43-99-97 0-32 45.5-88t74.5-64q8-2 55-2 50 0 186 41 133 41 127 41h52q13-13 13-31zM786 767q0-31-32-64.5t-50-33.5q-30 0-62 37-29 32-29 50 0 26 23 54 26 34 59 34 28 0 59-23 32-26 32-54zM1227 460q0-131-136-233-118-89-258-108-54-8-245-17-17-10-35-34-4-50-37-143-81-127-223-201-130-68-264-68-137 0-233 71-105 78-105 206 0 52 51 166 68 153 72 165 13 17 26 17 9 0 24-10 18-11 22-13v-35q0-10-27-47-33-44-42-66-13-31-13-85 0-205 265-205 103 0 232 56 158 67 158 158 0 58-14 96-6 17-41 96-27 60-27 75 0 36 44 102 21-6 71-45 47-37 59-37 47 0 206.5 143.5t249.5 143.5q63 0 136-41 84-48 84-107zM2885 277q-24 24-46 24-25 0-25-36 0-12 23-35h36zM1072 401q-107 54-132 54-37 0-114.5-62.5t-89.5-100.5q10 0 39.5-6t41.5-6q24 0 95 20 81 21 127 45 33 16 33 56z" glyph-name="uniFB7F" horiz-adv-x="3083" unicode="&#xfb7f;"/><glyph arabic-form="initial" d="M1343 1596q0-56-83-109l-144-84q-14-9-258-159h-46q-12 0-12 24 0 56 198 171 97 61 298 182h34q13-1 13-25zM513 1504q0-40-15-55-10-10-137-42-103-27-103-82 0-13 35.5-156t35.5-156q0-87-36-108l-18 13q-11 76-52 225-37 136-37 146 0 68 47 174-15 32-15 66 0 55 37 94.5t85 39.5q55 0 114-53.5t59-105.5zM1619 480q0-47-87-111-59-42-117-83-14 0-91-35-96-42-118-49-60-23-296-78-14-9-26-25-10-55-37-153-53-138-204-214-129-66-278-66-127 0-218 77-94 81-94 205 0 77 43 159 10 22 92 153 39 0 39-31 0-13-21-51-24-44-28-58-13-41-13-86 0-105 85-159 71-45 181-45 90 0 200 42 149 56 149 148 0 67-34 141-4 7-42 77-27 48-27 63 0 41 16 64 15 19 29 38 25-17 97-84 31-28 79-28 65 0 65 36 0 8-2 19-21 69-15 124 10 88 96 203 97 130 193 130 63 0 127-34 73-39 103-104 0-37-46-37-12 0-68.5 20.5t-68.5 20.5q-60 0-130-51-75-56-75-113 0-59 65-94 51-28 104-28 48 0 181 66t127 66h42q23-23 23-35zM504 639q0-27-25-60t-52-33q-36 0-72 32.5t-36 60.5q0 25 29.5 58.5t52.5 33.5q35 0 69-32t34-60z" glyph-name="uniFB80" horiz-adv-x="1631" unicode="&#xfb80;"/><glyph arabic-form="medial" d="M2391 1490q0-13-25-41t-49-42q-35-19-206-126-132-81-146-81h-52q-13 13-13 35 0 31 154 131 88 52 175 105 48 23 136 67 15-12 26-12v-36zM1940 1454q-2-61-116-143-111-81-180-81-15 0-31 6t-19 6v37q40 30 122 91-18 45-52 45-27 0-106-50h-36q18 76 80 119 48 33 98 33 44 0 132-23t108-40zM2330-203q0-36-33-66-29-25-49-25-23 0-62.5 35.5t-39.5 50.5q0 16 24 53 31 45 63 45 30 0 63.5-32.5t33.5-60.5zM1204 805q0-36-34-63-29-24-53-24t-54 23q-34 27-34 54 0 31 25 63 26 35 57 35 35 0 66-34 27-30 27-54zM2463 375q0-134-72-220-76-92-204-92-13 0-134.5 36t-132.5 36q-7 0-111-35-111-38-160-44-90-13-277-13-13 0-153.5 15.5t-153.5 15.5q-49 0-64-29-14-23-23-71l-14-80q-32-134-194-215-132-66-253-66-123 0-214 85-93 87-93 212 0 159 137 295h37q-61-144-61-218 0-100 84-159 70-51 157-51 82 0 194 52 138 63 138 148 0 65-46 181.5t-46 129.5q0 48 44 92 28 0 70.5-61t80.5-61q47 0 207 158.5t238 158.5q63 0 123-33 77-41 77-110 0-57-30-102-36-54-73-107 26-26 67-26 49 0 121 20 84 25 99 56-18 24-53 44-52 31-59 37 66 160 235 160 67 0 128-27 77-33 77-91 0-19-51-122 37-39 70-46 4-1 53-1 143 0 143 77 0 13-46.5 110t-46.5 110q0 31 15 60 17 32 42 32 52 0 94-115 34-89 34-126zM1429-244q0-53-64-88-100-55-237-121-141-67-160-67-41 0-41 41t175 131q134 68 269 135h45q13-13 13-31zM1163-540q0-51-34-69-95-49-269-115-162-62-184-62-15 0-23 6t-12 6v43q0 29 155 94l196 78q108 49 105 49h53q13-13 13-30zM1500 366q-49 45-112 45-102 0-194-150-7 0 24.5-7t93.5-7q46 18 92 35 67 32 96 84z" glyph-name="uniFB81" horiz-adv-x="2457" unicode="&#xfb81;"/><glyph arabic-form="final" d="M2163 1579q0-41-26-59-93-63-228-143-143-85-161-84h-55v54q0 27 201 147 194 116 204 115h52q13-13 13-30zM1733 1651q0-52-26-72-97-69-253-159-151-87-171-87-15 0-26 5.5t-15 5.5v44q0 23 196.5 143t280.5 150q14-15 14-30zM1969 882q0-37-34-67-28-24-48-24-30 0-69 24-44 27-44 57 0 35 32 63.5t65 28.5q36 0 67-25t31-57zM1109 1717q0-43-26-65-39-33-104-68-54-30-108-59-151-91-270-131-25 25-25 46 0 38 160 123 242 130 315 179h45q13-1 13-25zM1058 1246q0-41-32.5-88.5t-63.5-57.5q-22-6-83-16-14-3-55-21-36-17-48-17-35 0-58 40-19 35-19 73 0 25 23 71h43q12 0 20.5-15t20.5-15q14 0 49.5 46t48.5 46 23.5-10.5 22.5-10.5q9 0 60 51 10-1 25-5 23-36 23-71zM2153 274q0-323-348-323-106 0-140 13-21 9-74 46-47 33-57 33-12 0-42-17-34-18-49-21-69-3-194-27-30-11-71-40-25-18-64-18-108 0-185 31t-91 31l-91-38q-56-24-125-24-72 0-131 33-68 38-76 104-29 233-69 670-36 390-36 422 0 13 18 54 23 50 25 57h47q44-86 44-146v-259q0-24 22-271 25-271 41-392 3-19 27-49 30-36 58-37h31q20-2 35-2 101 0 170 61 14 14 92 114 47 61 97 61 11 0 68-53 72-67 103-89 20-14 85-28 63-14 97-14 52 0 98 24 60 33 60 94l-92 783q0 57 54 122 20 0 34-24 20-189 62-543 17-178 33-355 33-132 211-132 10 0 37 4t52 5q0 6 20 25-77 20-124 77-41 49-41 99 0 53 57 154 66 117 133 117 82 0 143-148 46-114 46-184zM1968 373v37l-58 11-12-47q36-18 70-1zM2039 188q0 29-15 29-44-22-44-39 18 0 37 5t22 5zM1073 120q-3 68-55 68-46 0-46-48 34-34 61-34t40 14z" glyph-name="uniFB83" horiz-adv-x="2164" unicode="&#xfb83;"/><glyph arabic-form="isolated" d="M2803 1533q0-67-383-281h-34q-14 13-14 40 0 51 44 77 323 200 346 200 41 0 41-36zM1840 1855q0-49-64-89-350-219-403-218h-53q-13 2-13 26 0 52 209 171 127 70 256 141h44q8-5 16-10.5t8-20.5zM2649 734q0-38-37-70-31-27-55-27-36 0-71 30-32 28-32 51 0 28 33.5 60.5t64.5 32.5q32 0 64.5-26.5t32.5-50.5zM2351 1091q1-27-114-90-93-52-155-74-6-3-65-32-47-23-61-23h-62l-12 13v58q97 59 246 132.5t169 72.5h54v-57zM1829 1366q-6-11-23-30-235-85-294-85-28 0-51 56-20 45-20 72 0 46 84 119 81 71 120 71 84 0 84-81 0-26-12-46 35-10 112-40v-36zM2280 729q0-145-179-168-11-1-42-15-28-12-45-12-82 0-82 103 0 25 45 91 22-10 55-41 10 4 89 83 10-6 31-16t31-15q15 16 50 52 47-28 47-62zM2700 222q0-98-47-166-51-74-137-74-12 0-102 20t-103 20q-11 0-75-30-69-32-93-38-138-34-221-34-67 0-161 34-22 8-53 38.5t-39 53.5q-13 37-34 208-20 169-20 236v273q0 11-20.5 179t-20.5 181q0 25 16 69 19 52 39 59 22 0 43-34 39-158 43-340 5-154 9-307 2-29 2-69 0-17-1-50t-1-50q0-146 38-212 53-95 201-95-19 0 199 23 43 4 94 66 44 52 89 105 36 0 44-34l6-50q40-48 164-39 25 28 25 66 0 21-11 64.5t-11 63.5q0 44 39 73h34q21-17 43-94 22-74 22-116zM1072 1762q-25-79-26-81-9-20-38-38-318-198-362-197h-63q-13 13-13 35 0 36 26 52 361 231 411 229h65zM2362-238q0-38-36-70-32-27-56-27-34 0-68 31.5t-34 59.5q0 22 26 59 30 44 60 44 26 0 67-36t41-61zM1400 238q0-74-34-141-43-85-115-85-11 0-122 31t-124 31l-145-46t-259-46q-102 0-154 42-59 48-79 166-12 74-21 273-11 220-23 311-8 71-36 239-25 147-25 161 0 43 44 107h36q28-64 49-248 14-154 27-309 14-138 41-409 8-82 69-125 49-34 113-34 34 0 75 17t44 30q12 62 38 164 5 16 33 69 25 45 25 57 0 13-20.5 56.5t-20.5 56.5q0 53 30.5 98.5t71.5 45.5q59 0 257-178 176-158 190-184 35-67 35-150zM1286 218v37q-73 74-87 74h-32l-23-30q0-93 102-93 15 0 25.5 6t14.5 6zM1052 319q0 17-18 50-24 42-54 42-20 0-51-24.5t-30-43.5v-52q69-23 86-23 67 0 67 51z" glyph-name="uniFB84" horiz-adv-x="2713" unicode="&#xfb84;"/><glyph arabic-form="final" d="M1776 257q0-271-256-271-90 0-145 44-24 21-66 85-30 45-61 45-29 0-92-51.5t-158-51.5q-57 0-111 18-74 24-74 69 0 95 228 266 39 21 77 41 53 27 71 64 2 5 9 95 5 81 40 123 35-28 83-229 22-107 43-214 45-120 176-120 93 0 134 45-11 33-54 104-39 64-39 76 0-8 34 92h55q106-101 106-230zM1683-249q0-30-41-68-38-35-55-35-29 0-72 35-46 36-46 68 0 18 32 58 35 44 60 44 36 0 81-44 41-40 41-58zM1867-379q1-63-475-209-46 0-46 36 0 54 44 73 388 168 443 168 13 0 18.5-5.5t15.5-5.5v-57zM1253-122q0-56-53-83-92-47-247-108-150-59-170-59-41 0-41 41 0 46 44 67 340 169 382 168h73q12-2 12-26zM763 31q-27-20-107-42-83-24-134-24h-118q-31 0-89 22.5t-75 41.5q18 94 64 126 199 137 238 137 57 0 56-44v-66q-32 3-95-5-44-28-141-87 0-33 38-33h341q0-4 22-26zM1222 296v47h-54q-15 1-70-37-58-38-69-60 14-15 51-15 96 0 142 65z" glyph-name="uniFB85" horiz-adv-x="1772" unicode="&#xfb85;"/><glyph arabic-form="isolated" d="M2818 1621q0-28-181-138-135-82-232-131h-44q-13 13-13 30 0 51 83 97 57 29 114 59 154 105 249 141 14-12 24-12v-46zM2758 988q0-35-27-66.5t-55-31.5q-12 0-43 10.5t-44 10.5-59.5-25.5-58.5-25.5q-30 0-60 23-33 25-33 53 0 32 24 63 27 35 64 35 11 0 38-10.5t38-10.5q13 0 62 26t61 26q33 0 63-24t30-53zM2819 261q0-192-116-262-82-50-268-50-70 0-128 35-76 45-89 133-36 237-89 665-47 389-47 416 0 20 22 91h47q36-47 50-177 13-201 61-594 15-114 29-227 44-168 169-168 56 0 209 33 28 6 58 34v30l-12 16q-8 10-24 10-13 0-61.5-26t-61.5-26q-71 0-114 73-35 57-35 111 0 76 50 175 58 112 125 112 41 0 69-28 8-9 45-66 70-107 86-147 25-63 25-163zM1866 1607q0-52-43-78-407-249-434-249h-63q0 5-6 10.5t-6 20.5q0 39 190 151 157 93 315 186h35q12-14 12-41zM1078 1346q0-57-160-133-140-66-183-66-34 0-86 33 6 31 71 55 88 34 123 63 7 43-47 43-41 0-110-50h-48v43q0 37 85 87 73 43 94 43-12 0 237-76 24-15 24-42zM1866 246q-32-156-53-192-41-74-146-74-62 0-104 13-14 4-51 27-31 21-45 21-12 0-79-39-82-48-108-60-45-20-199-55-171-41-249-41-185 0-349 58-224 77-224 224 0 82 33 166 40 103 105 125 15-11 25-11v-36q1-11-19.5-63.5t-20.5-67.5q0-137 192-196 114-35 249-35 113 0 304 45 233 55 276 127 19 35 38 69 32 52 62 56 46-17 26-108 24-46 138-46 72 0 98 17-13 177-86 633-5 28-33 138-25 99-25 113 0 50 20 112 26 80 69 93 12-47 36-137 4-13 41.5-45.5t37.5-47.5q0-13-21-72-25-67-29-92zM1130 522q0-35-33-69t-60-34q-11 0-44.5 16t-47.5 16q-13 0-49-26t-48-26q-42 0-72 35-25 30-25 58 0 42 29 68 25 23 57 23 12 0 36.5-5t35.5-5q13 0 54 20.5t54 20.5q25 0 69-34t44-58zM2624 426q-28 55-56 54h-35q0-10-5.5-18t-5.5-22q0-19 18-35t38-16q46 0 46 37z" glyph-name="uniFB86" horiz-adv-x="2834" unicode="&#xfb86;"/><glyph arabic-form="final" d="M1629 1472q0-43-216-173-119-67-239-133h-44q-13 13-13 35 0 50 142 129 73 36 147 72 126 79 208 111 15-15 15-41zM861 1329q0-65-166-131-136-54-182-54-44 0-61 36 14 31 76.5 50t87.5 64q-8 14-41 14-35 0-96-40h-35q-13 1-13 25 0 57 84 102 68 36 110 36 59 0 141-29 95-35 95-73zM717 590q0-43-19-82-25-49-68-49-41 0-84 38.5t-43 73.5q0 29 25 61t56 32q32 0 133-74zM1711 361q0-62-41-115t-93-53q-12 0-114.5 30.5t-115.5 30.5q-12 0-52-43-49-53-67-66-11-8-70-30-47-18-60-43-10-19-14-90-4-77-12-103-47-146-221-227-139-64-282-64-150 0-255 86-108 88-108 222 0 68 56 179 50 100 91 137 5 0 18-5.5t19-5.5v-45q0-10-36-87.5t-36-90.5q0-106 100-167 80-48 171-48 141 0 253 44 152 62 152 186 0 36-3 50-15 50-70 161-50 100-50 111 0-8 33 91h47q37-41 73-84 41-38 98-38 73 0 222 179.5t208 179.5q51 0 109-127 50-110 50-155zM1546 410q-24 48-57 48-24-23-24-37l24-24z" glyph-name="uniFB87" horiz-adv-x="1725" unicode="&#xfb87;"/><glyph arabic-form="isolated" d="M3189 1969q0-53-372-271h-46q-12 1-12 25 0 45 176 160 98 60 196 121h35q23-23 23-35zM3219 1412q-28-36-87-53l-100-24q-40-14-117-37-43 88-43 133 0 46 74 112 69 63 100 63 19 0 40-24t21-44q0-31-61-72 10-14 44-18 22-2 65 1t51 3l13-13v-27zM2636 1620q0-52-43-83-59-11-120-22-103-25-103-89 0-13 36-156.5t36-155.5q0-83-48-123-95 446-95 440 0 57 44 130 12 23 45 42-11 26-15 77 6 28 32 65 33 45 62 45 40 0 107-75 62-69 62-95zM3159 295q0-201-71-204l-124 992q0 84 56 134 36-34 43-87 28-198 56-395 40-298 40-440zM2729 791q0-32-41-72-36-35-52-35-32 0-122 63 0 29 19 73 25 58 62 58 26 0 80-35.5t54-51.5zM1868 1943q0-38-204-166-145-85-291-171h-34q-13 13-13 35 0 73 506 343 36 0 36-41zM1889 1437q-30-60-199-91-41-8-102-47h-46q0 23-26 74.5t-26 62.5q0 30 73.5 104.5t100.5 74.5q25 0 81-53v-47q-8-10-17-19-13-13-28-13-13 0-36.5 10t-33.5 10l-18-18q4-33 72-33-5 0 83 8 73 7 110 1 2-9 12-24zM2299 878q0-35-179-145-170-103-257-131-14 12-25 12v32q0 38 101 95 58 28 116 57 67 41 196 110h34q14-13 14-30zM2790 249q0-32-29-109-32-83-54.5-97t-105.5-14q-13 0-103 20.5t-102 20.5q-13 0-71-29-69-33-91-40-103-33-212-33-226 0-273 94-51 103-68 304-11 162-21 322-7 69-39 248-29 166-29 172 0 16 23.5 63.5t32.5 54.5q52-40 66-117 7-61 15-122.5t33-307.5q7-124 12-247 10-147 55-221 29-48 67-57 90-23 177-23 113 0 333 123 13 0 102.5-26t102.5-26q77 0 77 41 0 13-20.5 82.5t-20.5 81.5q0 93 51 93 72 0 92-251zM1090 1831q0-57-133-130-73-34-145-68-179-107-280-140-25 24-25 36 0 49 43 72 300 158 483 259h46q0-4 5.5-9.5t5.5-19.5zM2524-258q0-92-82-92-34 0-78.5 33t-44.5 59q0 27 35.5 65t56.5 38q43 0 80-40 33-35 33-63zM1326 249q0-178-105-258-63-48-135-62-106-20-297-43-167-21-195-21-282 0-282 103 0 111 97 111 10 0 48.5-4.5t54.5-4.5q26 0 237 23 244 27 376 50 52 9 89 45-31 390-97 705-2 11-32 64-25 46-25 90 0 34 26 106 30 83 62 104 18-26 47-116 7-21 64-74 16-14 16-45 0-13-25.5-77t-25.5-77 51-310 51-309zM967 653q0-60-56-92.5t-56-35.5q0-13 35.5-56.5t35.5-55.5q0-76-73-136-68-54-131-54-88 0-133 86v34q13 13 30 13 10 0 42-15.5t45-15.5q47 0 47 26 0 13-20.5 49t-20.5 48q0 48 60 150 68 116 129 116 66 0 66-61z" glyph-name="uniFB88" horiz-adv-x="3170" unicode="&#xfb88;"/><glyph arabic-form="final" d="M2097 1658l-494-308h-47v65q-1 36 217 151 93 56 278 163l46-12v-59zM1145 1713q0-54-474-333h-45q-23 24-23 36 0 60 506 343 9 0 22-13 14-16 14-33zM1514 832q0-71-33-136h-37q2 107-26 185-9 27-51 89-37 54-37 67 0 33 24 56 58 6 113-106 47-96 47-155zM1104 1058q0-20-31.5-64t-49.5-44q-28 0-65.5 35t-37.5 62q0 19 23 54 29 43 64 43 27 0 62-32.5t35-53.5zM2282 270q0-90-41-167-51-95-138-95-11 0-109 25.5t-111 25.5q2 0-169.5-45.5t-235.5-45.5q-97 0-163 42-34 21-82 78-36 43-62 43-13 0-49-25-51-37-61-44-144-84-325-84-58 0-102 25-51 31-51 82 0 26 17 64 20 44 44 44 12 0 86.5-20.5t87.5-20.5q91 0 197 57.5t130 121.5l-91 409q0 42 43 87 7 0 33-15 32-59 77-291 40-210 124-320 24-31 98-58 6-2 55-2 136 0 150 38 8 51 26 153 21 51 55 153-7-28-7 120 0 171 82 171 27 0 220-156t227-205q14-21 30-76 15-51 15-69zM388 305q0-234-59-255l-115 1085q0 108 79 142zM2179 238q0 36-138 128-12-6-33-24l-7-35q-6-24-6-37 0-32 45-56 39-21 73-21 66 0 66 45zM1903 300q0 25-23 64-26 43-54 43-21 0-43.5-31.5t-22.5-50.5q0-23 25-46 27-25 62-25 14 0 27.5 5.5t17.5 5.5q0 4 5.5 12t5.5 23z" glyph-name="uniFB89" horiz-adv-x="2293" unicode="&#xfb89;"/><glyph arabic-form="final" d="M2157 1723q0-47-86-106-66-38-131-76-84-57-268-170h-34q-8 4-15.5 9t-7.5 21q0 51 200 176 148 86 295 171h35q12-1 12-25zM2045 1001q0-32-35-68-31-34-52-34-12 0-33 10t-34 10q-12 0-53-25.5t-55-25.5q-38 0-74 31-33 28-33 51 0 32 40 69 36 34 58 34 9 0 36-10.5t40-10.5 54 31 54 31q34 0 62-33 25-30 25-60zM1164 1702q0-39-121-119-69-42-137-83-50-31-161-116-63-49-109-55-14 11-24 11v44q-1 37 204 168 151 93 301 186h34q13-14 13-36zM2116 284q0-125-45-202-32-53-166-92-111-33-178-33-216 0-243 148-31 174-50 425-13 207-28 415-3 39-26 145-22 101-22 116 0 92 52 92 55 0 83-248 11-155 22-309 8-122 17-244 12-137 44-268 11-45 69-73 50-25 102-25 59 0 160 28 117 32 117 64 0 15-13 33t-28 18q-13 0-61.5-20.5t-61.5-20.5q-68 0-109 68-34 55-34 117 0 57 54 155 62 111 126 111 89 0 162-188 57-145 57-212zM1154 249q2-22 2-43 0-193-184-308-150-94-320-94-120 0-232 82-116 85-116 184 0 69 38 157.5t88 138.5q38 0 38-30 0-13-25.5-77t-25.5-77q0-106 120-164 86-40 167-40 110 0 221 54 137 68 137 176 0 3-86 562-18 122-40 215-6 23-39 88-29 58-29 71 0 55 84 214h36q8-38 34-114 13-23 47-60 24-26 24-55 0-13-17-67-20-63-24-86zM1899 439q13 26-11 49h-37v-49h48z" glyph-name="uniFB8B" horiz-adv-x="2118" unicode="&#xfb8b;"/><glyph arabic-form="isolated" d="M2722 1584q0-20-167-135-160-110-218-134-4 5-16.5 11.5t-17.5 11.5q0 44 14 57 78 71 217 161 131 86 152 86 15 0 23.5-6t12.5-6v-46zM1760 2031q0-56-234-192-215-125-237-125-41 0-41 36 0 42 133 121 83 45 167 90 60 43 175 111 37 0 37-41zM2609 827q0-26-36-52-34-24-55-24-103 0-103 77 0 29 31.5 63.5t61.5 34.5q14 0 48-18 43-22 53-26v-55zM1739 1473q-45-53-127-87-72-25-143-51h-34q-64 129-64 149 0 57 73 119 68 60 122 60 36 0 71-33v-57q-17-33-56-33 13 0-70 21l-27-27q19-29 63-35 71-9 75-11 35 10 94 10zM2231 1192q0-49-33-69-376-218-393-217h-65v57q67 69 444 259h34q13-14 13-30zM2590 327q0-272-164-272-12 0-98 20.5t-97 20.5q-21 0-53-22-27-18-52-36-106-65-284-65-73 0-151 44-43 25-71 82-24 48-31 114-95 816-95 968 0 63 33 113h36q28-52 36-146 4-73 8-145 10-67 27-194 19-146 41-421 5-241 193-241 119 0 223 43 24 11 90 53 57 37 70 37 11 0 90.5-25.5t94.5-25.5q48 0 58 27 1 7 1 16 0 19-7.5 66.5t-7.5 72.5q0 67 41 104 25 0 33-12 36-53 36-176zM2180 736q0-140-168-183-10-2-47-21-32-16-46-16-32 0-61 33-26 30-26 54 0-2 33 96h47q0-30 26-30 29 20 71 81 8 0 32-9.5t37-9.5q23 0 53 60h38q0-4 5.5-22.5t5.5-32.5zM2323-190q0-34-41-65-36-27-56-27-37 0-64 33-23 27-23 49 0 39 25.5 70.5t56.5 31.5q33 0 67.5-32.5t34.5-59.5zM1074 1022q0-39-37-70-32-26-55-26-32 0-67.5 35t-35.5 61q0 24 26 63 29 45 62 45t72-42q35-39 35-66zM756 1543q0-40-145-133-29-18-184-128-112-79-127-79h-54v68l463 319h47v-47zM1391 187q8-31 8-62 0-192-290-322-235-106-449-106-143 0-263 85-142 100-142 258 0 97 70 241t121 143q13-12 24-12v-46q0-10-20-34-25-32-30-39-52-94-52-166 0-123 130-197 104-59 208-59 126 0 307.5 58.5t213.5 110.5q-14 47-142 56-134 9-154 43-3 15-3 28 0 72 124.5 122.5t124.5 98.5q0 25-13.5 48.5t-81.5 127.5q-49 75-49 90 0 7 33 107h46q60-44 115-155 52-105 52-172 0-11-20.5-67t-20.5-66q0-27 38-45 26-10 51-21 31-17 64-48zM1493-320q-30-42-243-149-201-100-223-100h-63q-13 14-13 30 0 46 108 98l120 48q81 39 289 131 15-11 25-11v-47z" glyph-name="uniFB8C" horiz-adv-x="2601" unicode="&#xfb8c;"/><glyph arabic-form="final" d="M3679 1651q3-18 3-36 0-99-91-176-85-73-178-73-10 0-36.5 5t-39.5 5q-40 0-91-51h-36q-12 1-12 25 0 40 84 113 38 15 113 57 47 50 95 98 64 65 113 65 42 0 76-32zM3546 280q0-151-33-214-28 0-45 23-12 157-38 442-12 100-48 355-30 217-30 229 0 121 57 138 36-51 41-96 15-146 48-421 48-356 48-456zM2654 1256q-26-30-73-71-402-239-413-239h-52q-13 13-13 30t19 43 34 35q453 261 464 261 14 0 22.5-6t11.5-6v-47zM3106 275q0-173-87-241-77-61-256-61-114 0-200 41t-107 41q-10 0-136-41t-233-41q-71 0-163.5 46.5t-82.5 46.5q-30 0-81.5-51t-117.5-51q-48 0-110 40.5t-69 40.5q25 0-145-56t-311-56q-11 0-52 5t-56 5q-12 0-73.5-20.5t-74.5-20.5q-11 0-97 20.5t-97 20.5q-13 0-55-38-53-49-70-61-53-34-155-72-92-34-116-34h-134l-23 24q0 23 33 44 113 43 226 87 128 50 187 117-6 21-6 47 0 101 74 199 79 102 169 95 105-167 188-212 60-33 209-33 143 0 285 54 24 9 61 51 58 66 62 68h36q5-33 23-94 16-29 69-50 48-19 89-19 117 0 117 170l-102 906q0 81 45 102 22 0 43-33 53-164 66-545 3-118 43-419 20-160 217-160 104 0 201 59 0 2-4 16-18 39-109 39v43q0 42 82 95 70 44 106 51 21 4 72 4 68 0 139-33 92-43 92-115l-51-112q36-47 143-47 205 0 205 97 0 22-35 283-37 282-61 423-3 20-26 82-22 56-22 72 0 52 24 110 23 56 52 80 8-1 25-5 5-37 25-111 7-19 38-37 40-23 51-33 0-30-3-76-1-5-35-64-13-20-13-99zM843 1033q0-57-51-57-13 0-48.5 16t-48.5 16q-20 0-28-4-55-56-164-147-152-96-189-95h-52q-12 1-12 25 0 26 63 72 66 41 133 83 121 81 121 116 0-3-41 46t-41 82q0 53 54 128 60 83 120 83 79 0 79-149 0-25-2.5-53.5t-2.5-27.5q7-11 65-71 45-48 45-63zM2154-348q0-54-44-74-412-198-444-198h-42q-13 13-13 31 0 62 103 104 63 20 125 41 84 38 257 131h44q14-13 14-35zM1642-313q0-44-33-71-26-21-54-21-13 0-38.5 10t-38.5 10-56-25.5-56-25.5q-23 0-68.5 30.5t-45.5 46.5q0 41 45 72 34 25 58 25 11 0 45-10t47-10 51.5 25.5 51.5 25.5q38 0 67-33 25-28 25-49zM649 1230q-11 0-13 23-14 0-38-26 7-7 25-6 18 0 26 9zM637 129q0 18-5 36.5t-5 21.5h-38v-49q5 0 24-4.5t24-4.5zM3596 1602h-36q-21-14-21-59 57 28 57 59zM3142 1592q0-49-126-121-114-64-146-64h-73q-23 24-23 36 0 23 56 51 72 37 77 42-19 35-51 35-11 0-40-10t-40-10q-12 1-12 25 0 44 51 77 46 30 92 30 79 0 212-45 23-14 23-46z" glyph-name="uniFB8D" horiz-adv-x="3565" unicode="&#xfb8d;"/><glyph arabic-form="isolated" d="M3890 1538q0-64-55-130-60-73-143-87-47 0-144-6-3-1-20-13.5t-32-12.5h-35v44q0 24 61 67 32 20 63 39 37 54 114 154 46 54 100 54 91 0 91-109zM3419 1565q0-49-126-121-114-64-146-64h-73q-23 24-23 36 0 23 56 51 71 37 77 42-19 35-51 35-11 0-40-10t-40-10q-12 1-12 25 0 44 51 77 46 30 92 30 79 0 212-45 23-14 23-46zM3747 274q0-136-43-184-10-1-27 9-18 12-19 26-17 318-37 481-8 62-41 278-27 181-27 199 0 21 25 61 28 42 54 51zM2508 1495q-130-103-307-201-145-74-291-149h-33q-13 13-13 35 0 59 619 385 15-13 25-13v-57zM2335 914q0-28-34-53-29-24-54-24-28 0-62.5 26t-34.5 46q0 25 34.5 58.5t57.5 33.5q38 0 67-34 26-30 26-53zM3287 331q0-70-19-158-22-101-49-123-52-43-186-70-109-23-187-23-128 0-158 66-10 62-21 124-16 66-113 66-82 0-324-97.5t-356-97.5q-12 0-96.5 36t-93.5 36q-13 0-43-24-40-31-46-34-97-54-188-54-134 0-195 75-37 47-67 171-32 132-68 184-15 1-60-38-45-41-73-83-12-18-22-66-12-57-15-66-161-444-461-444-230 0-292 88 7 7 24 21 21 4 69-1 57-5 60-5 188 0 361 151 172 149 172 305 0 11-20 36-23 28-29 43-13 34-13 69 0 32 23 53 21 18 44 18 10 0 20.5-5t24.5-5q77 0 112 46 20 26 44 105t53 115q7 0 32-16 32-145 63-290 37-172 105-256 17-22 129-22 90 0 120 11 85 30 133 142h38q23-101 83-124 21-8 112-8 185 0 339 98-51 76-164 76-11 0-74-12-74-13-119-18-12 1-12 25 0 59 105 139 96 71 135 71 387-195 619-195 13 0 58 5.5t56 5.5q40 0 81-23v-45q0-40-63-83-36-11-101-42-3-64 113-64 98 0 183 23 124 33 124 100 0 13-11 69-14 67-17 89-22 159-57 471-2 21-30 93-28 70-28 82 0 74 74 210h36q10-18 10-63 0-82 84-133-5-33-29-105-21-66-21-78t41-273.5 41-273.5zM993 1204q2-46-12-90h-53q-13 0-34.5 15t-33.5 15q3 0-33-13-88-82-176-165-121-108-200-108-15 0-26 5.5t-15 5.5v37q81 58 161 116 156 121 156 163 0 13-33 39-46 35-56 46-3 13-3 33 0 49 39 123 52 98 125 98 28 0 55-27 45-40 45-140 0-34-6-63 8-8 100-90zM1823-355q0-19-32-53t-56-34q-39 0-74 34-33 31-33 64 0 24 26.5 55t55.5 31q28 0 70.5-35t42.5-62zM2088-520q1-56-517-260-46 0-46 36 0 37 26 51 109 64 300 150 180 81 202 81 15 0 23-6t12-6v-46zM1270-401q0-33-44-65-37-27-54-27-10 0-51 15.5t-56 15.5q-14 0-53-20.5t-54-20.5q-41 0-77 34-31 30-31 57 0 36 32 61 28 21 49 21 14 0 49.5-15t48.5-15 56.5 30.5 56.5 30.5q19 0 73.5-43t54.5-59zM3777 1512h-37q-21-14-21-60 58 29 58 60zM798 1366l-49 13v-39h37q9 10 12 26z" glyph-name="uniFB8E" horiz-adv-x="3748" unicode="&#xfb8e;"/><glyph arabic-form="initial" d="M1277 348q0-36-13-133-18-128-41-163h-37l-114 1023q0 48 7 65 9 22 48 68 48-8 64-127 86-615 86-733zM642 670q0-33-37-72-33-35-55-35-25 0-82 53 0 131 82 131 26 0 59-28t33-49zM1450-252q-25-42-152-77-106-29-174-29-35 0-49 4-54 93-54 134 0 42 92 122 90 78 128 78 20 0 49.5-29.5t33.5-47.5q-4-20-27-90 27-9 136-9l17 10v-66zM1564-373q0-43-44-64-82-40-227-90-133-46-155-46h-74q-12 2-12 25 0 53 44 73 88 41 247 91 146 46 170 46 51 0 51-35zM980 159q0-186-173-299-143-95-303-95-121 0-206.5 83.5t-85.5 192.5q0 58 39 156 44 109 90 131 14-15 14-46 0-12-20.5-85t-20.5-85q0-87 103-137 74-36 138-36 75 0 185 41 148 56 148 143 0 12-61.5 161t-61.5 162q0 30 34 86h35q63-67 105-181 41-108 41-192z" glyph-name="uniFB90" horiz-adv-x="1494" unicode="&#xfb90;"/><glyph arabic-form="medial" d="M2363 1633q0-55-65-100-60-36-121-72-83-50-247-149h-46q0 3-6 11t-6 23q0 51 103 115 62 33 125 66 99 56 206 131h45q12-2 12-25zM2220 717q0-31-36-64-32-29-51-29-23 0-54 24t-40 53q9 26 23 92 0 2-29 47-18 28-18 46 0 22 26 52 30 34 62 34 27 0 62-37.5t31-60.5q-1-2-16-35-12-26-9-44 2-10 25.5-38t23.5-40zM1718 1387q0-56-46-56-13 0-48.5 20.5t-48.5 20.5q-8 0-175.5-138.5t-230.5-137.5h-53q-12 1-12 25 0 17 25.5 45t48.5 37q195 85 274 214-92 115-92 134 0 49 60 122 65 78 125 78 81 0 81-137 0-28-4-61t-4-31q20-27 72-67 28-21 28-68zM1729 583q0-33-36-64-32-27-57-27-77 0-77 113 0 87 2 75-1 5-15 29-12 21-12 38 0 34 34 59 28 23 53 23 53 0 83-54 4-16-5-52-9-45-9-63 0-7 19.5-34t19.5-43zM981 1407q0-43-43-73-353-239-373-238h-64q0 4-5.5 12.5t-5.5 22.5q0 53 227 181 73 50 217 141h34q13-13 13-46zM653 1566q0-104-196-179-149-56-228-56-11 0-39 5t-43 5q-42 0-55-7l-78-54q-15 12-25 12 38 92 51 113 42 70 96 70 11 0 55-5.5t59-5.5q176 0 366 143 37 0 37-41zM2240 261q0-87-40-152-49-79-138-79-12 0-108 26t-108 26q3 0-274-95-39-14-57-45-24-58-78-164-44-77-119-149-92-87-167-97-97-13-139-13-81 0-212 24-16 10-43 31 0 28 23 43 25 4 155 1 94-3 152 26 76 38 164 109 113 92 150 171v28q-12 11-97 19-81 7-125 54-34 37-34 98 0 62 68 161 72 105 132 105 70 0 117.5-118t117.5-118q97 0 176 51.5t116 51.5q11 0 98-25.5t101-25.5q32 0 54 27v16q0 25-11.5 71t-11.5 69q0 50 40 93 38-11 69-89 29-71 29-131zM838 220q0-122-85-191-74-60-186-60-46 0-109 26-82 32-89 81-105 846-105 968 0 61 44 102h37q27-85 39-209 15-187 29-375 20-224 49-372 9-47 114-47 149 0 149 67 0 2-36 62t-36 86q0 32 16 60 18 33 46 33 59 0 96-104 27-75 27-127zM735-220q0-34-32-56-28-21-65-21-29 0-63 27.5t-34 49.5q0 30 33 64t59 34q34 0 68-31.5t34-66.5zM1340 190q-13 13-50 13 0-14 13.5-26.5t22.5-12.5q11 10 14 26zM1545 1593q0 26-24 49-35-18-35-49h59z" glyph-name="uniFB91" horiz-adv-x="2254" unicode="&#xfb91;"/><glyph arabic-form="isolated" d="M1141 1697q0-80-434-333h-44q-13 13-13 30 0 42 82 101 57 38 114 75 214 157 283 161 0-3 6-11.5t6-22.5zM1540 304q0-66-32-148h-48l-104 931q0 113 44 153 9 0 26-16t18-29q96-762 96-891zM1724-126q1-37-74-64-239-84-249-83h-33q-12 28-12 60 0 12-3 23-58 63-58 85 0 28 74 112 79 87 121 87 28 0 57-44 24-37 24-53 0-13-16-36-23-31-24-35 19-21 53-21 15 0 60 9 41 7 63 5l17 9v-54zM1858-264q0-68-280-167-75-28-238-78-25 24-25 46 0 42 44 62 381 168 434 168h52q13-14 13-31zM1203 94q0-64-56-141-78-107-285-182-182-65-330-65-153 0-255 80-108 87-108 231 0 74 51 185 54 117 108 138 14-12 25-12v-56q0-12-25-43-29-35-34-50-13-33-13-75 0-128 111-190 80-45 192-45 103 0 236 41 144 44 178 97-31 36-157 59-109 19-109 59 0 19 18 50 20 35 46 48 15 7 105 28 68 17 104 56 14 14 14 53 0 21-28 257-31 251-48 362-4 24-26 88-21 59-21 72 0 44 27 106 32 70 71 88 22-21 29-62 4-32 8-65 20-25 45-71 2-14-8-50-14-45-16-65-4-38 10-193 8-87 34-279 25-174 25-183 0-11-18-73-20-70-23-90 7-7 76-42 47-24 47-66z" glyph-name="uniFB92" horiz-adv-x="1553" unicode="&#xfb92;"/><glyph arabic-form="final" d="M1840 1548q0-160-250-233-41-1-114-3-16-1-30-4-4 0-20.5-18t-31.5-18h-45q21 103 176 176 22 9 55 60 39 60 48 69 73 74 119 74 41 0 67-31t26-72zM1205 1624q0-35-214-135-152-72-295-125-10 7-20 15-14 10-14 26 0 39 104 88 57 23 115 47 24 11 150 73 94 48 108 47h54q0-4 6-12.5t6-23.5zM1696 324q0-180-59-199l-115 911q0 98 44 153h36q17-56 39-158 55-574 55-707zM1164 1271q0-90-117-159-96-55-165-55-87 0-87 123 0 47 34 81 12 0 29-19 35-41 36-43 35 4 45 40 17 55 22 62 2 11 26 11 30 0 51-41 22 11 38 38 22 35 30 43h35q23-45 23-81zM1399 263q0-82-41-156-47-85-117-85-55 0-144.5 46.5t-80.5 46.5q3 0-75.5-71.5t-165.5-71.5q-67 0-111 44-18 19-55 84-25 45-50 45-12 0-101.5-25.5t-102.5-25.5q-103 0-163 53 15 139 350 317 43 23 58 81 18 66 45 92 14 0 37-24v-259q0-198 134-198 65 0 114.5 48t49.5 105q0 13-20.5 189.5t-20.5 189.5q0 63 33 112h36q23-172 97-515 8-28 56-54 43-25 69-25 57 0 57 41 0 14-51.5 200.5t-51.5 199.5q0 16 20 60 21 47 36 63 37-25 55-115 27-135 34-154 70-187 70-238zM703-192q0-18-30.5-53t-54.5-46q-425-198-473-198-21 0-46 23v32q0 39 54 63 460 209 485 209h52q13-13 13-30zM559 292l-13 37q-48-16-88-57 13-5 29-5 42 0 72 25zM1736 1553h-36q-22-14-22-60 58 29 58 60z" glyph-name="uniFB93" horiz-adv-x="1710" unicode="&#xfb93;"/><glyph arabic-form="initial" d="M2166 1711q0-62-209-174-137-74-237-112-14 12-24 12v33q-2 30 32 53 90 62 227 140.5t155 78.5h43q13-13 13-31zM2043 1057q0-37-42-67-36-26-55-26-36 0-64 34-23 28-23 48 0 30 23.5 61.5t52.5 31.5q27 0 65-26 43-28 43-56zM1562 1665q0-45-27-63-408-270-451-268h-53q0 4-6 9.5t-6 20.5q0 43 233 181 201 119 296 156 14-14 14-36zM1531 964q0-37-33-67-27-25-49-25-11 0-39.5 10.5t-42.5 10.5q-13 0-51.5-20.5t-50.5-20.5q-25 0-59 26t-34 50q0 32 32 65t55 33q11 0 25-5t27-5 59 20.5 59 20.5q33 0 67.5-32t34.5-61zM876 1461q0-61-137-136-118-64-156-63h-53l-23 23q5 36 74 67 64 28 60 55-8 8-36 8-14 0-49-17-46-21-55-24-14 15-14 31 0 47 73 93 64 40 91 40 48 0 130-23 95-26 95-54zM2166 279q0-188-133-259-95-48-297-48-102 0-200 30.5t-118 30.5q-12 0-130-36t-131-36q-178 0-298 204-215-183-429-183-50 0-113 32-76 38-76 90 0 47 44 112 6-1 76-32 63-28 131-28 106 0 205 41 127 53 127 143 0 10-35.5 162t-35.5 166q0 41 45 112 13-7 32-23 29-61 60-249 29-181 72-256 67-117 210-117 65 0 100 38-1 13-1 28 0 144 64 261 78 140 213 143 46-45 61-84 25-68 25-151 0-13-18-80-19-79-24-108 15-8 38-25 72-22 121-22 78 0 182 21 137 30 151 77 3 35-36 35-13 0-56.5-25.5t-56.5-25.5q-138 0-138 174 0 92 50 182 54 95 119 95 90 0 153-177 47-133 47-212zM1992 425q-2 12-21.5 31t-34.5 22l-25-5v-49l13-12q3 0 13-5.5t24-5.5q16 0 21 8zM1541 350q0 20-24 51t-42 31q-22 0-65-44t-43-69q0-18 25-39.5t52-21.5q19 0 54 25 43 31 43 67z" glyph-name="uniFB94" horiz-adv-x="2169" unicode="&#xfb94;"/><glyph arabic-form="medial" d="M3077 1447q0-55-285-215-266-149-288-149-41 0-41 36 0 47 43 72 299 172 523 291h35q13-13 13-35zM2073 1524q0-58-54-90-579-340-601-340-15 0-26 5.5t-14 5.5v44q-1 45 299 202 129 76 382 203 14-15 14-30zM1828 827q0-82-77-82-34 0-73 23-45 27-45 59 0 40 44 69 34 23 58 23 39 0 67-33 26-29 26-59zM1039 1322q0-50-176-133-158-75-182-75-16 0-51 35 23 36 70 68 58 40 73 56-14 15-41 15-23 0-86-40h-46v47q117 126 188 126 80 0 251-64v-35zM3394 382q0-97-118-210-120-115-245-130-129-1-368-27-25-6-49-53-22-44-47-44 0 25-3 73-1 26-12 39-20 27-72 54-49 27-69 27 9 0-76-46.5t-170-46.5q-102 0-191.5 51t-99.5 51q15 0-107.5-45.5t-209.5-45.5q-46 0-115 25t-75 25q-12 0-55-23-50-28-72-35-329-105-600-105-173 0-298 57-183 83-183 265 0 51 54 146 4 7 62 63h35q13-1 13-24 0-13-20.5-64.5t-20.5-63.5q0-85 100-152 94-64 294-64 74 0 231 28 109 21 219 40 112 18 172 56 69 44 112 142h47q1-42 5-125 7-11 69-30 59-18 76-18 93 0 190 67v30q-27 31-89 43-42 7-84 15 40 183 265 183 235 0 235-133 0-12-35.5-66.5t-35.5-67.5q0-61 164-61 101 0 158.5 51t92.5 51q22 0 73.5-41t99.5-41q64 0 260 174.5t293 174.5q57 0 125-51 75-56 75-118zM1039 561q0-39-31-65.5t-61-26.5q-11 0-32 5t-34 5-51.5-25.5-51.5-25.5q-36 0-71.5 34t-35.5 63q0 43 33 68 25 19 48 19 13 0 41.5-10.5t40.5-10.5q13 0 56.5 26t56.5 26q39 0 68-34 24-27 24-48zM3271 322q-74 55-143 55-47 0-142-62-100-66-102-111-9 0 24.5-5.5t102.5-5.5q121 38 156 52 89 37 104 77z" glyph-name="uniFB95" horiz-adv-x="3401" unicode="&#xfb95;"/></font>
</defs>
</svg>
